<svg xmlns="http://www.w3.org/2000/svg" width="360" height="180" viewBox="0 0 360 180">
  <metadata><?xpacket begin="﻿" id="W5M0MpCehiHzreSzNTczkc9d"?>
<x:xmpmeta xmlns:x="adobe:ns:meta/" x:xmptk="Adobe XMP Core 5.6-c138 79.159824, 2016/09/14-01:09:01        ">
   <rdf:RDF xmlns:rdf="http://www.w3.org/1999/02/22-rdf-syntax-ns#">
      <rdf:Description rdf:about=""/>
   </rdf:RDF>
</x:xmpmeta>
                                                                                                    
                                                                                                    
                                                                                                    
                                                                                                    
                                                                                                    
                                                                                                    
                                                                                                    
                                                                                                    
                                                                                                    
                                                                                                    
                                                                                                    
                                                                                                    
                                                                                                    
                                                                                                    
                                                                                                    
                                                                                                    
                                                                                                    
                                                                                                    
                                                                                                    
                                                                                                    
                           
<?xpacket end="w"?></metadata>
<defs>
    <style>
      .cls-1 {
        fill: #f0f7f5;
        fill-rule: evenodd;
      }
    </style>
  </defs>
  <path id="bg" class="cls-1" d="M774,6582H637a10,10,0,0,0,0,20H764a10,10,0,0,1,0,20H478.165a10,10,0,1,1,0-20H597a10,10,0,0,0,0-20H563.165a10,10,0,1,1,0-20H577a10,10,0,0,0,0-20H485.166a10,10,0,1,1,0-20H545a10,10,0,0,0,0-20H490a10,10,0,0,1,0-20H600a10,10,0,0,1,0,20H585a10,10,0,0,0,0,20h76a10,10,0,0,0,0-20H640.166a10,10,0,1,1,0-20H680a10,10,0,0,0,0-20H550.166a10,10,0,1,1,0-20H764a10,10,0,0,1,0,20H720a10,10,0,0,0,0,20h9a10,10,0,0,1,0,20H701a10,10,0,0,0,0,20h83a10,10,0,0,1,0,20H736a10,10,0,0,0,0,20h38A10,10,0,0,1,774,6582ZM461,6442h49a10,10,0,0,1,0,20H461A10,10,0,0,1,461,6442Zm-17,120h79a10,10,0,0,1,0,20H444A10,10,0,0,1,444,6562Z" transform="translate(-434 -6442)"/>
</svg>
