<svg id="icon" xmlns="http://www.w3.org/2000/svg" width="139" height="152" viewBox="0 0 139 152">
  <metadata><?xpacket begin="﻿" id="W5M0MpCehiHzreSzNTczkc9d"?>
<x:xmpmeta xmlns:x="adobe:ns:meta/" x:xmptk="Adobe XMP Core 5.6-c138 79.159824, 2016/09/14-01:09:01        ">
   <rdf:RDF xmlns:rdf="http://www.w3.org/1999/02/22-rdf-syntax-ns#">
      <rdf:Description rdf:about=""/>
   </rdf:RDF>
</x:xmpmeta>
                                                                                                    
                                                                                                    
                                                                                                    
                                                                                                    
                                                                                                    
                                                                                                    
                                                                                                    
                                                                                                    
                                                                                                    
                                                                                                    
                                                                                                    
                                                                                                    
                                                                                                    
                                                                                                    
                                                                                                    
                                                                                                    
                                                                                                    
                                                                                                    
                                                                                                    
                                                                                                    
                           
<?xpacket end="w"?></metadata>
<defs>
    <style>
      .cls-1, .cls-2 {
        fill: #226d4f;
      }

      .cls-1, .cls-4, .cls-5, .cls-7 {
        fill-rule: evenodd;
      }

      .cls-3, .cls-4 {
        fill: #16d488;
      }

      .cls-5, .cls-6 {
        fill: #c1ecdb;
      }

      .cls-7 {
        fill: #fff;
      }
    </style>
  </defs>
  <path class="cls-1" d="M657,6437v2a25.025,25.025,0,0,1,25,25h2A27.029,27.029,0,0,0,657,6437Zm16,27h-2a14.015,14.015,0,0,0-14-14v-2A16.02,16.02,0,0,1,673,6464Z" transform="translate(-545 -6437)"/>
  <path id="Shape_1013_copy_3" data-name="Shape 1013 copy 3" class="cls-1" d="M554,6569H666v-67.01a10,10,0,0,0-10-10H564a10,10,0,0,0-10,10V6569h0Z" transform="translate(-545 -6437)"/>
  <rect class="cls-2" y="130" width="134" height="22" rx="4" ry="4"/>
  <rect id="Rectangle_537_copy" data-name="Rectangle 537 copy" class="cls-3" x="2" y="132" width="130" height="18" rx="2" ry="2"/>
  <path class="cls-1" d="M612,6574a4,4,0,1,1-4,4A4,4,0,0,1,612,6574Zm0,2a2,2,0,1,1-2,2A2,2,0,0,1,612,6576Z" transform="translate(-545 -6437)"/>
  <path id="Shape_1013_copy_3-2" data-name="Shape 1013 copy 3" class="cls-4" d="M556,6567.01H664v-65a8,8,0,0,0-8-8H564a8,8,0,0,0-8,8v65h0Z" transform="translate(-545 -6437)"/>
  <path id="Shape_1013_copy_3-3" data-name="Shape 1013 copy 3" class="cls-5" d="M560,6563.01H660v-61a4,4,0,0,0-4-4H564a4,4,0,0,0-4,4v61h0Z" transform="translate(-545 -6437)"/>
  <path id="Shape_1013_copy_4" data-name="Shape 1013 copy 4" class="cls-1" d="M612,6460.99h42a6,6,0,0,1,6,6V6479a6,6,0,0,1-6,6H612a6,6,0,0,1-6-6v-12.01A6,6,0,0,1,612,6460.99Z" transform="translate(-545 -6437)"/>
  <rect class="cls-2" x="84" y="48" width="8" height="7"/>
  <rect id="Rectangle_535_copy" data-name="Rectangle 535 copy" class="cls-3" x="86" y="48" width="4" height="7"/>
  <path id="Shape_1013_copy_4-2" data-name="Shape 1013 copy 4" class="cls-4" d="M612,6463.01h42a4,4,0,0,1,4,4v12a4,4,0,0,1-4,4H612a4,4,0,0,1-4-4v-12A4,4,0,0,1,612,6463.01Z" transform="translate(-545 -6437)"/>
  <path id="Shape_1013_copy_4-3" data-name="Shape 1013 copy 4" class="cls-1" d="M613,6467.01h40a1,1,0,0,1,1,1v10a1,1,0,0,1-1,1H613a1,1,0,0,1-1-1v-10A1,1,0,0,1,613,6467.01Z" transform="translate(-545 -6437)"/>
  <path class="cls-4" d="M650,6471h-3v-2h5v8h-2v-6Z" transform="translate(-545 -6437)"/>
  <path id="Ellipse_15_copy_5" data-name="Ellipse 15 copy 5" class="cls-1" d="M636,6537h-6a2,2,0,0,1-2-2v-6a2,2,0,0,1,2-2h6a2,2,0,0,1,2,2v6A2,2,0,0,1,636,6537Zm16,0h-6a2,2,0,0,1-2-2v-6a2,2,0,0,1,2-2h6a2,2,0,0,1,2,2v6A2,2,0,0,1,652,6537Z" transform="translate(-545 -6437)"/>
  <rect id="Ellipse_15_copy_7" data-name="Ellipse 15 copy 7" class="cls-2" x="67" y="90" width="10" height="10" rx="2" ry="2"/>
  <rect class="cls-3" x="85" y="92" width="6" height="6"/>
  <rect id="Rectangle_545_copy_4" data-name="Rectangle 545 copy 4" class="cls-3" x="69" y="92" width="6" height="6"/>
  <path id="Ellipse_15_copy_6" data-name="Ellipse 15 copy 6" class="cls-1" d="M636,6553h-6a2,2,0,0,1-2-2v-6a2,2,0,0,1,2-2h6a2,2,0,0,1,2,2v6A2,2,0,0,1,636,6553Zm16,0h-6a2,2,0,0,1-2-2v-6a2,2,0,0,1,2-2h6a2,2,0,0,1,2,2v6A2,2,0,0,1,652,6553Z" transform="translate(-545 -6437)"/>
  <rect id="Ellipse_15_copy_8" data-name="Ellipse 15 copy 8" class="cls-2" x="67" y="106" width="10" height="10" rx="2" ry="2"/>
  <rect id="Rectangle_545_copy_2" data-name="Rectangle 545 copy 2" class="cls-3" x="85" y="108" width="6" height="6"/>
  <rect id="Rectangle_545_copy_3" data-name="Rectangle 545 copy 3" class="cls-3" x="69" y="108" width="6" height="6"/>
  <rect id="Rectangle_545_copy" data-name="Rectangle 545 copy" class="cls-3" x="101" y="92" width="6" height="6"/>
  <path id="Ellipse_15_copy_4" data-name="Ellipse 15 copy 4" class="cls-1" d="M652,6521H614a2,2,0,0,1-2-2v-9a2,2,0,0,1,2-2h38a2,2,0,0,1,2,2v9A2,2,0,0,1,652,6521Zm0-11H614v9h38v-9Z" transform="translate(-545 -6437)"/>
  <rect id="Ellipse_15_copy_9" data-name="Ellipse 15 copy 9" class="cls-2" x="21" y="74" width="32" height="6" rx="2" ry="2"/>
  <rect class="cls-6" x="23" y="76" width="28" height="2"/>
  <path class="cls-7" d="M570,6515v-29l3.988,1.99,3.993-1.99H578l3.992,1.99,3.993-1.99H586l3.992,1.99,3.993-1.99H594l0,29H570Z" transform="translate(-545 -6437)"/>
  <path class="cls-5" d="M574,6493h16v2H574v-2Zm0,5h15v2H574v-2Zm0,5h14v2H574v-2Z" transform="translate(-545 -6437)"/>
  <rect class="cls-3" x="69" y="73" width="38" height="9"/>
  <rect id="Rectangle_545_copy_5" data-name="Rectangle 545 copy 5" class="cls-3" x="101" y="108" width="6" height="6"/>
</svg>
