<svg id="_1" data-name="1" xmlns="http://www.w3.org/2000/svg" width="60" height="74" viewBox="0 0 60 74">
  <metadata><?xpacket begin="﻿" id="W5M0MpCehiHzreSzNTczkc9d"?>
<x:xmpmeta xmlns:x="adobe:ns:meta/" x:xmptk="Adobe XMP Core 5.6-c138 79.159824, 2016/09/14-01:09:01        ">
   <rdf:RDF xmlns:rdf="http://www.w3.org/1999/02/22-rdf-syntax-ns#">
      <rdf:Description rdf:about=""/>
   </rdf:RDF>
</x:xmpmeta>
                                                                                                    
                                                                                                    
                                                                                                    
                                                                                                    
                                                                                                    
                                                                                                    
                                                                                                    
                                                                                                    
                                                                                                    
                                                                                                    
                                                                                                    
                                                                                                    
                                                                                                    
                                                                                                    
                                                                                                    
                                                                                                    
                                                                                                    
                                                                                                    
                                                                                                    
                                                                                                    
                           
<?xpacket end="w"?></metadata>
<defs>
    <style>
      .cls-1, .cls-4 {
        fill: #226d4f;
      }

      .cls-2 {
        fill: #16d488;
      }

      .cls-3 {
        fill: #c1ecdb;
      }

      .cls-3, .cls-4 {
        fill-rule: evenodd;
      }
    </style>
  </defs>
  <rect class="cls-1" width="60" height="74" rx="4" ry="4"/>
  <rect id="Rectangle_54_copy" data-name="Rectangle 54 copy" class="cls-2" x="2" y="2" width="56" height="70" rx="2" ry="2"/>
  <path class="cls-3" d="M285,1034h48v45.99H285V1034h0Z" transform="translate(-279 -1012)"/>
  <path class="cls-4" d="M325,1017h6v9h-6v-9Zm2,2h2v5h-2v-5Z" transform="translate(-279 -1012)"/>
  <rect class="cls-1" x="53" y="12" width="2" height="2"/>
  <path class="cls-4" d="M297,1048h-6a2,2,0,0,1-2-2v-6a2,2,0,0,1,2-2h6a2,2,0,0,1,2,2v6A2,2,0,0,1,297,1048Zm0-8h-6v6h6v-6Z" transform="translate(-279 -1012)"/>
  <path class="cls-4" d="M297,1062h-6a2,2,0,0,1-2-2v-6a2,2,0,0,1,2-2h6a2,2,0,0,1,2,2v6A2,2,0,0,1,297,1062Zm0-8h-6v6h6v-6Z" transform="translate(-279 -1012)"/>
  <path class="cls-4" d="M297,1076h-6a2,2,0,0,1-2-2v-6a2,2,0,0,1,2-2h6a2,2,0,0,1,2,2v6A2,2,0,0,1,297,1076Zm0-8h-6v6h6v-6Z" transform="translate(-279 -1012)"/>
  <path class="cls-4" d="M312,1076h-6a2,2,0,0,1-2-2v-6a2,2,0,0,1,2-2h6a2,2,0,0,1,2,2v6A2,2,0,0,1,312,1076Zm0-8h-6v6h6v-6Z" transform="translate(-279 -1012)"/>
  <path class="cls-4" d="M312,1062h-6a2,2,0,0,1-2-2v-6a2,2,0,0,1,2-2h6a2,2,0,0,1,2,2v6A2,2,0,0,1,312,1062Zm0-8h-6v6h6v-6Z" transform="translate(-279 -1012)"/>
  <path class="cls-4" d="M327,1076h-6a2,2,0,0,1-2-2v-20a2,2,0,0,1,2-2h6a2,2,0,0,1,2,2v20A2,2,0,0,1,327,1076Zm0-22h-6v20h6v-20Z" transform="translate(-279 -1012)"/>
  <path class="cls-4" d="M312,1048h-6a2,2,0,0,1-2-2v-6a2,2,0,0,1,2-2h6a2,2,0,0,1,2,2v6A2,2,0,0,1,312,1048Zm0-8h-6v6h6v-6Z" transform="translate(-279 -1012)"/>
  <path class="cls-4" d="M327,1048h-6a2,2,0,0,1-2-2v-6a2,2,0,0,1,2-2h6a2,2,0,0,1,2,2v6A2,2,0,0,1,327,1048Zm0-8h-6v6h6v-6Z" transform="translate(-279 -1012)"/>
  <rect class="cls-1" x="1" y="16" width="58" height="2"/>
  <rect class="cls-2" x="12" y="28" width="6" height="6"/>
  <rect id="Rectangle_537_copy_2" data-name="Rectangle 537 copy 2" class="cls-2" x="27" y="28" width="6" height="6"/>
  <rect id="Rectangle_537_copy_3" data-name="Rectangle 537 copy 3" class="cls-2" x="42" y="28" width="6" height="6"/>
  <rect id="Rectangle_537_copy_4" data-name="Rectangle 537 copy 4" class="cls-2" x="27" y="42" width="6" height="6"/>
  <rect id="Rectangle_537_copy_8" data-name="Rectangle 537 copy 8" class="cls-2" x="42" y="42" width="6" height="20"/>
  <rect id="Rectangle_537_copy_5" data-name="Rectangle 537 copy 5" class="cls-2" x="12" y="42" width="6" height="6"/>
  <rect id="Rectangle_537_copy_6" data-name="Rectangle 537 copy 6" class="cls-2" x="12" y="56" width="6" height="6"/>
  <rect id="Rectangle_537_copy_7" data-name="Rectangle 537 copy 7" class="cls-2" x="27" y="56" width="6" height="6"/>
</svg>
