<svg xmlns="http://www.w3.org/2000/svg" width="140" height="90" viewBox="0 0 140 90">
  <metadata><?xpacket begin="﻿" id="W5M0MpCehiHzreSzNTczkc9d"?>
<x:xmpmeta xmlns:x="adobe:ns:meta/" x:xmptk="Adobe XMP Core 5.6-c138 79.159824, 2016/09/14-01:09:01        ">
   <rdf:RDF xmlns:rdf="http://www.w3.org/1999/02/22-rdf-syntax-ns#">
      <rdf:Description rdf:about=""/>
   </rdf:RDF>
</x:xmpmeta>
                                                                                                    
                                                                                                    
                                                                                                    
                                                                                                    
                                                                                                    
                                                                                                    
                                                                                                    
                                                                                                    
                                                                                                    
                                                                                                    
                                                                                                    
                                                                                                    
                                                                                                    
                                                                                                    
                                                                                                    
                                                                                                    
                                                                                                    
                                                                                                    
                                                                                                    
                                                                                                    
                           
<?xpacket end="w"?></metadata>
<defs>
    <style>
      .cls-1 {
        fill: #f0f7f5;
        fill-rule: evenodd;
      }
    </style>
  </defs>
  <path id="_1_bg" data-name="1_bg" class="cls-1" d="M373,1064H342a5,5,0,0,1,0-10h10a5,5,0,0,0,0-10H341a5,5,0,0,1,0-10h18a5,5,0,0,0,0-10H346a5,5,0,0,1,0-10h13a5,5,0,0,0,0-10H261a5,5,0,0,0,0,10h62a5,5,0,0,1,0,10H269a5,5,0,0,0,0,10h9a5,5,0,0,1,0,10H253a5,5,0,0,0,0,10h44a5,5,0,0,1,0,10H249a5,5,0,0,0,0,10h19a5,5,0,0,1,0,10H254a5,5,0,0,0,0,10h50a5,5,0,0,0,0-10H288a5,5,0,0,1,0-10h85A5,5,0,0,0,373,1064Zm-22,20H324a5,5,0,0,0,0,10h27A5,5,0,0,0,351,1084Zm-97-55a5,5,0,0,0-5-5h-6a5,5,0,0,0,0,10h6A5,5,0,0,0,254,1029Z" transform="translate(-238 -1004)"/>
</svg>
