<svg id="_2" data-name="2" xmlns="http://www.w3.org/2000/svg" width="83.281" height="74" viewBox="0 0 83.281 74">
  <metadata><?xpacket begin="﻿" id="W5M0MpCehiHzreSzNTczkc9d"?>
<x:xmpmeta xmlns:x="adobe:ns:meta/" x:xmptk="Adobe XMP Core 5.6-c138 79.159824, 2016/09/14-01:09:01        ">
   <rdf:RDF xmlns:rdf="http://www.w3.org/1999/02/22-rdf-syntax-ns#">
      <rdf:Description rdf:about=""/>
   </rdf:RDF>
</x:xmpmeta>
                                                                                                    
                                                                                                    
                                                                                                    
                                                                                                    
                                                                                                    
                                                                                                    
                                                                                                    
                                                                                                    
                                                                                                    
                                                                                                    
                                                                                                    
                                                                                                    
                                                                                                    
                                                                                                    
                                                                                                    
                                                                                                    
                                                                                                    
                                                                                                    
                                                                                                    
                                                                                                    
                           
<?xpacket end="w"?></metadata>
<defs>
    <style>
      .cls-1 {
        fill: #226d4f;
      }

      .cls-1, .cls-2, .cls-3 {
        fill-rule: evenodd;
      }

      .cls-2 {
        fill: #16d488;
      }

      .cls-3 {
        fill: #c1ecdb;
      }
    </style>
  </defs>
  <path class="cls-1" d="M676.155,1052.09a4.968,4.968,0,0,1-4.506,2.91,37.206,37.206,0,0,1-60.085,22.72A7,7,0,0,1,616,1065.29a7.111,7.111,0,0,1,4.444,1.57,23.216,23.216,0,0,0,14.545,5.14,22.973,22.973,0,0,0,22.343-17.16,5.007,5.007,0,0,1-2.52-8.1l1.42-1.65,4.3-5,0.763-.88a5.026,5.026,0,0,1,7.623,0l0.762,0.88,4.3,5,1.421,1.65A4.945,4.945,0,0,1,676.155,1052.09Zm-22.179-19.38a7.064,7.064,0,0,1-4.444-1.58,23.2,23.2,0,0,0-14.544-5.13,22.96,22.96,0,0,0-22.343,17.16,5,5,0,0,1,2.52,8.09l-1.421,1.65-4.3,5-0.762.89a5.045,5.045,0,0,1-7.623,0l-0.762-.89-4.3-5-1.421-1.65a5,5,0,0,1,3.757-8.25,37.206,37.206,0,0,1,60.085-22.72A7,7,0,0,1,653.976,1032.71Z" transform="translate(-593.344 -1012)"/>
  <path class="cls-2" d="M671.594,1053H669.9a35.189,35.189,0,0,1-57.069,23.17,5.009,5.009,0,0,1,6.347-7.75A25.139,25.139,0,0,0,659.767,1053h-1.145a3,3,0,0,1-2.287-4.95l1.421-1.65,4.3-5.01,0.762-.88a3.016,3.016,0,0,1,4.574,0l0.762,0.88,4.3,5.01,1.421,1.65A3,3,0,0,1,671.594,1053Zm-17.618-22.29a5.049,5.049,0,0,1-3.178-1.13A25.139,25.139,0,0,0,610.209,1045h1.144a3,3,0,0,1,2.287,4.95l-1.42,1.65-4.3,5-0.763.89a3.034,3.034,0,0,1-4.573,0l-0.763-.89-4.3-5-1.42-1.65a3,3,0,0,1,2.287-4.95h1.694a35.189,35.189,0,0,1,57.069-23.17A5,5,0,0,1,653.976,1030.71Z" transform="translate(-593.344 -1012)"/>
  <path class="cls-3" d="M666.112,1049a31.148,31.148,0,0,1-50.748,24.06,1,1,0,0,1-.113-1.43,1.009,1.009,0,0,1,1.4-.11A29.137,29.137,0,0,0,664.1,1049h-3.3l4.3-5,4.3,5h-3.3Zm-12.783-22.53A29.147,29.147,0,0,0,605.871,1049h3.3l-4.3,5-4.3-5h3.3a31.157,31.157,0,0,1,50.748-24.07,1.011,1.011,0,0,1,.113,1.44A1,1,0,0,1,653.329,1026.47Z" transform="translate(-593.344 -1012)"/>
</svg>
