<svg xmlns="http://www.w3.org/2000/svg" width="140" height="90" viewBox="0 0 140 90">
  <metadata><?xpacket begin="﻿" id="W5M0MpCehiHzreSzNTczkc9d"?>
<x:xmpmeta xmlns:x="adobe:ns:meta/" x:xmptk="Adobe XMP Core 5.6-c138 79.159824, 2016/09/14-01:09:01        ">
   <rdf:RDF xmlns:rdf="http://www.w3.org/1999/02/22-rdf-syntax-ns#">
      <rdf:Description rdf:about=""/>
   </rdf:RDF>
</x:xmpmeta>
                                                                                                    
                                                                                                    
                                                                                                    
                                                                                                    
                                                                                                    
                                                                                                    
                                                                                                    
                                                                                                    
                                                                                                    
                                                                                                    
                                                                                                    
                                                                                                    
                                                                                                    
                                                                                                    
                                                                                                    
                                                                                                    
                                                                                                    
                                                                                                    
                                                                                                    
                                                                                                    
                           
<?xpacket end="w"?></metadata>
<defs>
    <style>
      .cls-1 {
        fill: #f0f7f5;
        fill-rule: evenodd;
      }
    </style>
  </defs>
  <path id="_2_bg" data-name="2_bg" class="cls-1" d="M571,1064h45a5,5,0,0,0,0-10H583a5,5,0,0,1,0-10h24a5,5,0,0,0,0-10H576a5,5,0,0,1,0-10h97a5,5,0,0,0,0-10H575a5,5,0,0,1,0-10H698a5,5,0,0,1,0,10h-5a5,5,0,0,0,0,10h7a5,5,0,0,1,0,10H627a5,5,0,0,0,0,10h29a5,5,0,0,1,0,10H636a5,5,0,0,0,0,10h54a5,5,0,0,1,0,10H614a5,5,0,0,0,0,10h81a5,5,0,0,1,0,10H581a5,5,0,0,1,0-10h13a5,5,0,0,0,0-10H571A5,5,0,0,1,571,1064Zm100-15a5,5,0,0,1,5-5h25a5,5,0,0,1,0,10H676A5,5,0,0,1,671,1049Z" transform="translate(-566 -1004)"/>
</svg>
