<?xml version="1.0" encoding="utf-8"?>
<!-- Generator: Adobe Illustrator 21.1.0, SVG Export Plug-In . SVG Version: 6.00 Build 0)  -->
<svg version="1.1" id="Layer_1" xmlns="http://www.w3.org/2000/svg" xmlns:xlink="http://www.w3.org/1999/xlink" x="0px" y="0px"
	 viewBox="0 0 58.3 67" style="enable-background:new 0 0 58.3 67;" xml:space="preserve">
<style type="text/css">
	.st0{fill:#226D4F;}
	.st1{fill:#16D488;}
	.st2{fill:#C1ECDB;}
</style>
<path class="st0" d="M42.3,66c-1.6,0-3.1-0.8-4.1-2.1L28.1,49.9l-11,13.6c-0.8,1-2,1.7-3.3,1.8c-0.2,0-0.4,0-0.6,0
	c-2.5,0-4.6-1.9-4.9-4.3L1,6.6C0.7,3.9,2.6,1.4,5.4,1c1.2-0.1,2.3,0.1,3.3,0.8L55,31.7c2.3,1.5,2.9,4.6,1.4,6.9
	c-0.7,1-1.8,1.8-3,2.1l-16.9,4l9.8,13.6c1.6,2.2,1.1,5.3-1.2,6.9C44.3,65.7,43.3,66,42.3,66L42.3,66L42.3,66z M6,2
	c0.8,0,1.5,0.2,2.2,0.6l46.3,29.9c1.8,1.2,2.3,3.7,1.1,5.5c-0.6,0.8-1.4,1.4-2.4,1.7L34.9,44l10.6,14.8c1.2,1.8,0.8,4.3-1.1,5.5
	c-1.8,1.2-4.2,0.8-5.4-0.9L28.1,48.2L16.3,62.9c-0.7,0.8-1.6,1.3-2.6,1.5c-0.2,0-0.3,0-0.5,0c-2,0-3.7-1.5-4-3.5L2,6.5
	C1.8,4.3,3.3,2.3,5.5,2C5.6,2,5.8,2,6,2 M6,0C2.7,0,0,2.6,0,5.9c0,0.3,0,0.5,0,0.8l7.2,54.4c0.4,3,2.9,5.2,5.9,5.2
	c0.3,0,0.5,0,0.8,0c1.5-0.2,3-1,3.9-2.2l10.2-12.6l9.4,13c1.9,2.7,5.7,3.3,8.4,1.4c2.7-1.9,3.3-5.6,1.4-8.3c0,0,0,0,0,0l-8.9-12.4
	l15.4-3.6c3.2-0.8,5.2-4,4.4-7.2c-0.4-1.5-1.2-2.7-2.5-3.6L9.3,1C8.3,0.3,7.2,0,6,0C6,0,6,0,6,0z M6,0C2.7,0,0,2.6,0,5.9
	c0,0.3,0,0.5,0,0.8l7.2,54.4c0.4,3,2.9,5.2,5.9,5.2c0.3,0,0.5,0,0.8,0c1.5-0.2,3-1,3.9-2.2L28,51.5l9.4,13c1.9,2.7,5.7,3.3,8.4,1.4
	c2.7-1.9,3.3-5.6,1.4-8.3c0,0,0,0,0,0l-8.9-12.4l15.4-3.6c3.2-0.8,5.2-4,4.4-7.2c-0.4-1.5-1.2-2.7-2.5-3.6L9.2,0.9
	C8.3,0.3,7.1,0,6,0C6,0,6,0,6,0z"/>
<path id="Shape_994_copy" class="st1" d="M6,2c0.8,0,1.5,0.2,2.2,0.6l46.3,29.9c1.8,1.2,2.3,3.7,1.1,5.5c-0.6,0.8-1.4,1.4-2.4,1.7
	L34.9,44l10.6,14.8c1.2,1.8,0.8,4.3-1.1,5.5c-1.8,1.2-4.2,0.8-5.4-0.9L28.1,48.2L16.3,62.9c-0.7,0.8-1.6,1.3-2.6,1.5
	c-0.2,0-0.3,0-0.5,0c-2,0-3.7-1.5-4-3.5L2,6.5C1.8,4.3,3.3,2.3,5.5,2C5.6,2,5.8,2,6,2"/>
<path class="st2" d="M28.4,41.7l-3.3,4.1L13.2,60.4L6,6h0l46.4,29.8L28.4,41.7z M6,6L6,6z"/>
</svg>
