<svg xmlns="http://www.w3.org/2000/svg" width="140" height="90" viewBox="0 0 140 90">
  <metadata><?xpacket begin="﻿" id="W5M0MpCehiHzreSzNTczkc9d"?>
<x:xmpmeta xmlns:x="adobe:ns:meta/" x:xmptk="Adobe XMP Core 5.6-c138 79.159824, 2016/09/14-01:09:01        ">
   <rdf:RDF xmlns:rdf="http://www.w3.org/1999/02/22-rdf-syntax-ns#">
      <rdf:Description rdf:about=""/>
   </rdf:RDF>
</x:xmpmeta>
                                                                                                    
                                                                                                    
                                                                                                    
                                                                                                    
                                                                                                    
                                                                                                    
                                                                                                    
                                                                                                    
                                                                                                    
                                                                                                    
                                                                                                    
                                                                                                    
                                                                                                    
                                                                                                    
                                                                                                    
                                                                                                    
                                                                                                    
                                                                                                    
                                                                                                    
                                                                                                    
                           
<?xpacket end="w"?></metadata>
<defs>
    <style>
      .cls-1 {
        fill: #f0f7f5;
        fill-rule: evenodd;
      }
    </style>
  </defs>
  <path id="_3_bg" data-name="3_bg" class="cls-1" d="M921,1064h27a5,5,0,0,0,0-10H903a5,5,0,0,1,0-10h14a5,5,0,0,0,0-10H896a5,5,0,0,1,0-10h83a5,5,0,0,0,0-10H916a5,5,0,0,1,0-10h88a5,5,0,0,1,0,10h-5a5,5,0,0,0,0,10h27a5,5,0,0,1,0,10h-6a5,5,0,0,0,0,10h2a5,5,0,0,1,0,10h-14a5,5,0,0,0,0,10h8a5,5,0,0,1,0,10H945a5,5,0,0,0,0,10h66a5,5,0,0,1,0,10H915a5,5,0,0,1,0-10h10a5,5,0,0,0,0-10h-4A5,5,0,0,1,921,1064Zm16-30h63a5,5,0,0,1,0,10H937A5,5,0,0,1,937,1034Z" transform="translate(-891 -1004)"/>
</svg>
