<svg id="_4" data-name="4" xmlns="http://www.w3.org/2000/svg" width="66" height="80" viewBox="0 0 66 80">
  <metadata><?xpacket begin="﻿" id="W5M0MpCehiHzreSzNTczkc9d"?>
<x:xmpmeta xmlns:x="adobe:ns:meta/" x:xmptk="Adobe XMP Core 5.6-c138 79.159824, 2016/09/14-01:09:01        ">
   <rdf:RDF xmlns:rdf="http://www.w3.org/1999/02/22-rdf-syntax-ns#">
      <rdf:Description rdf:about=""/>
   </rdf:RDF>
</x:xmpmeta>
                                                                                                    
                                                                                                    
                                                                                                    
                                                                                                    
                                                                                                    
                                                                                                    
                                                                                                    
                                                                                                    
                                                                                                    
                                                                                                    
                                                                                                    
                                                                                                    
                                                                                                    
                                                                                                    
                                                                                                    
                                                                                                    
                                                                                                    
                                                                                                    
                                                                                                    
                                                                                                    
                           
<?xpacket end="w"?></metadata>
<defs>
    <style>
      .cls-1, .cls-3 {
        fill: #226d4f;
      }

      .cls-2 {
        fill: #16d488;
      }

      .cls-3, .cls-4 {
        fill-rule: evenodd;
      }

      .cls-4 {
        fill: #f76161;
      }

      .cls-5 {
        fill: #c1ecdb;
      }
    </style>
  </defs>
  <rect id="Rounded_Rectangle_1" data-name="Rounded Rectangle 1" class="cls-1" x="30" y="56" width="6" height="18" rx="3" ry="3"/>
  <rect id="Rounded_Rectangle_3" data-name="Rounded Rectangle 3" class="cls-2" x="32" y="60" width="2" height="12" rx="1" ry="1"/>
  <path id="Rounded_Rectangle_2" data-name="Rounded Rectangle 2" class="cls-3" d="M1266,1079h48v10h-48v-10h0Z" transform="translate(-1257 -1009)"/>
  <rect class="cls-2" x="11" y="72" width="44" height="6"/>
  <circle class="cls-1" cx="33" cy="33" r="33"/>
  <circle class="cls-2" cx="33" cy="33" r="31"/>
  <circle id="Ellipse_16_copy" data-name="Ellipse 16 copy" class="cls-2" cx="33" cy="33" r="31"/>
  <path class="cls-4" d="M1316.53,1025.96A30.814,30.814,0,0,1,1321,1042h-31Z" transform="translate(-1257 -1009)"/>
  <circle class="cls-5" cx="33" cy="33" r="27"/>
  <rect class="cls-1" x="32" y="4" width="2" height="6" rx="1" ry="1"/>
  <path id="Rectangle_155_copy_9" data-name="Rectangle 155 copy 9" class="cls-3" d="M1275.5,1016.88h0a1.01,1.01,0,0,1,1.37.37l2,3.46a1.01,1.01,0,0,1-.37,1.37h0a1,1,0,0,1-1.37-.37l-2-3.46A1.01,1.01,0,0,1,1275.5,1016.88Z" transform="translate(-1257 -1009)"/>
  <path id="Rectangle_155_copy_10" data-name="Rectangle 155 copy 10" class="cls-3" d="M1304.5,1016.88h0a1.01,1.01,0,0,1,.37,1.37l-2,3.46a1,1,0,0,1-1.37.37h0a1.01,1.01,0,0,1-.37-1.37l2-3.46A1.01,1.01,0,0,1,1304.5,1016.88Z" transform="translate(-1257 -1009)"/>
  <path id="Rectangle_155_copy_11" data-name="Rectangle 155 copy 11" class="cls-3" d="M1264.89,1027.5h0a1,1,0,0,1,1.36-.37l3.47,2a1.007,1.007,0,0,1,.36,1.37h0a0.987,0.987,0,0,1-1.36.36l-3.47-2A0.985,0.985,0,0,1,1264.89,1027.5Z" transform="translate(-1257 -1009)"/>
  <path id="Rectangle_155_copy_12" data-name="Rectangle 155 copy 12" class="cls-3" d="M1315.11,1027.5h0a0.985,0.985,0,0,1-.36,1.36l-3.47,2a0.987,0.987,0,0,1-1.36-.36h0a1.007,1.007,0,0,1,.36-1.37l3.47-2A1,1,0,0,1,1315.11,1027.5Z" transform="translate(-1257 -1009)"/>
  <rect id="Rectangle_155_copy_6" data-name="Rectangle 155 copy 6" class="cls-1" x="56" y="32" width="6" height="2" rx="1" ry="1"/>
  <rect id="Rectangle_155_copy_5" data-name="Rectangle 155 copy 5" class="cls-1" x="4" y="32" width="6" height="2" rx="1" ry="1"/>
  <path class="cls-3" d="M1306.85,1038.51l-13.38,5.48a3.953,3.953,0,0,1-2.43,1.87,4,4,0,0,1-2.08-7.73,4.056,4.056,0,0,1,3.05.41l14.32-1.94A1,1,0,0,1,1306.85,1038.51Z" transform="translate(-1257 -1009)"/>
  <circle id="Shape_14_copy" data-name="Shape 14 copy" class="cls-2" cx="33" cy="33" r="2"/>
</svg>
