<svg xmlns="http://www.w3.org/2000/svg" width="142" height="90" viewBox="0 0 142 90">
  <metadata><?xpacket begin="﻿" id="W5M0MpCehiHzreSzNTczkc9d"?>
<x:xmpmeta xmlns:x="adobe:ns:meta/" x:xmptk="Adobe XMP Core 5.6-c138 79.159824, 2016/09/14-01:09:01        ">
   <rdf:RDF xmlns:rdf="http://www.w3.org/1999/02/22-rdf-syntax-ns#">
      <rdf:Description rdf:about=""/>
   </rdf:RDF>
</x:xmpmeta>
                                                                                                    
                                                                                                    
                                                                                                    
                                                                                                    
                                                                                                    
                                                                                                    
                                                                                                    
                                                                                                    
                                                                                                    
                                                                                                    
                                                                                                    
                                                                                                    
                                                                                                    
                                                                                                    
                                                                                                    
                                                                                                    
                                                                                                    
                                                                                                    
                                                                                                    
                                                                                                    
                           
<?xpacket end="w"?></metadata>
<defs>
    <style>
      .cls-1 {
        fill: #f0f7f5;
        fill-rule: evenodd;
      }
    </style>
  </defs>
  <path id="_4_bg" data-name="4_bg" class="cls-1" d="M1239,1064h43a5,5,0,0,0,0-10h-56a5,5,0,0,1,0-10h98a5,5,0,0,0,0-10h-74a5,5,0,0,1,0-10h63a5,5,0,0,0,0-10h-77a5,5,0,0,1,0-10h115a5,5,0,0,1,0,10h-18a5,5,0,0,0,0,10h17a5,5,0,0,1,0,10h-6a5,5,0,0,0,0,10h12a5,5,0,0,1,0,10h-54a5,5,0,0,0,0,10h48a5,5,0,0,1,0,10h-10a5,5,0,0,0,0,10h15a5,5,0,0,1,0,10h-81a5,5,0,0,1,0-10h46a5,5,0,0,0,0-10h-81A5,5,0,0,1,1239,1064Zm-15-40h6a5,5,0,0,1,5,5h0a5,5,0,0,1-5,5h-6a5,5,0,0,1-5-5h0A5,5,0,0,1,1224,1024Zm9,60h21a5,5,0,0,1,0,10h-21A5,5,0,0,1,1233,1084Z" transform="translate(-1219 -1004)"/>
</svg>
