<svg id="_1" data-name="1" xmlns="http://www.w3.org/2000/svg" width="78" height="66" viewBox="0 0 78 66">
  <metadata><?xpacket begin="﻿" id="W5M0MpCehiHzreSzNTczkc9d"?>
<x:xmpmeta xmlns:x="adobe:ns:meta/" x:xmptk="Adobe XMP Core 5.6-c138 79.159824, 2016/09/14-01:09:01        ">
   <rdf:RDF xmlns:rdf="http://www.w3.org/1999/02/22-rdf-syntax-ns#">
      <rdf:Description rdf:about=""/>
   </rdf:RDF>
</x:xmpmeta>
                                                                                                    
                                                                                                    
                                                                                                    
                                                                                                    
                                                                                                    
                                                                                                    
                                                                                                    
                                                                                                    
                                                                                                    
                                                                                                    
                                                                                                    
                                                                                                    
                                                                                                    
                                                                                                    
                                                                                                    
                                                                                                    
                                                                                                    
                                                                                                    
                                                                                                    
                                                                                                    
                           
<?xpacket end="w"?></metadata>
<defs>
    <style>
      .cls-1, .cls-4 {
        fill: #226d4f;
      }

      .cls-1, .cls-2, .cls-3 {
        fill-rule: evenodd;
      }

      .cls-2, .cls-5 {
        fill: #16d488;
      }

      .cls-3 {
        fill: #c1ecdb;
      }
    </style>
  </defs>
  <path id="Rectangle_44_copy" data-name="Rectangle 44 copy" class="cls-1" d="M118,76.991H89v6h11a2,2,0,0,1,2,2v2a2,2,0,0,1-2,2H70a2,2,0,0,1-2-2v-2a2,2,0,0,1,2-2H81v-6H52a6,6,0,0,1-6-6v-42a6,6,0,0,1,6-6h66a6,6,0,0,1,6,6v42A6,6,0,0,1,118,76.991Z" transform="translate(-46 -23)"/>
  <path id="Rectangle_20_copy" data-name="Rectangle 20 copy" class="cls-2" d="M52,24.992h66a4,4,0,0,1,4,4v42a4,4,0,0,1-4,4H52a4,4,0,0,1-4-4v-42A4,4,0,0,1,52,24.992Z" transform="translate(-46 -23)"/>
  <path id="Rectangle_20_copy-2" data-name="Rectangle 20 copy" class="cls-2" d="M99,86.992H71a1,1,0,0,1,0-2H83v-10h4v10H99A1,1,0,0,1,99,86.992Z" transform="translate(-46 -23)"/>
  <path id="Rectangle_46_copy" data-name="Rectangle 46 copy" class="cls-1" d="M81,75h9v2H81V75Zm1,8h8v2H82V83Z" transform="translate(-46 -23)"/>
  <path id="Rectangle_42_copy" data-name="Rectangle 42 copy" class="cls-3" d="M54,28.993h62a2,2,0,0,1,2,2v35a2,2,0,0,1-2,2H54a2,2,0,0,1-2-2v-35A2,2,0,0,1,54,28.993Z" transform="translate(-46 -23)"/>
  <rect class="cls-4" x="47" y="10" width="7" height="28"/>
  <rect id="Rectangle_608_copy" data-name="Rectangle 608 copy" class="cls-5" x="49" y="12" width="3" height="24"/>
  <rect id="Rectangle_608_copy_3" data-name="Rectangle 608 copy 3" class="cls-4" x="59" y="20" width="7" height="18"/>
  <rect id="Rectangle_608_copy_3-2" data-name="Rectangle 608 copy 3" class="cls-5" x="61" y="22" width="3" height="14"/>
  <path class="cls-1" d="M85,48A12,12,0,1,1,73,36,12,12,0,0,1,85,48ZM73,61A13,13,0,1,1,86,48,13.014,13.014,0,0,1,73,61Zm0-24A11,11,0,1,0,84,48,11.013,11.013,0,0,0,73,37ZM83.724,53.362a11.97,11.97,0,0,0-7.38-16.879L73.253,47.128a1.089,1.089,0,0,0,.56,1.278ZM84.171,54.7l-10.8-5.4a2.091,2.091,0,0,1-1.073-2.453l3.369-11.6,0.96,0.278A13.056,13.056,0,0,1,86,48a12.858,12.858,0,0,1-1.382,5.81ZM77.013,37.766l-2.8,9.641a0.092,0.092,0,0,0,.047.106L83.238,52A10.821,10.821,0,0,0,84,48,11.055,11.055,0,0,0,77.013,37.766Z" transform="translate(-46 -23)"/>
  <circle id="Shape_1081_copy_2" data-name="Shape 1081 copy 2" class="cls-5" cx="27" cy="25" r="11"/>
  <circle class="cls-4" cx="27" cy="25" r="13"/>
  <circle id="Ellipse_673_copy" data-name="Ellipse 673 copy" class="cls-5" cx="27" cy="25" r="11"/>
  <path class="cls-1" d="M85.011,49.989H73.962a2.018,2.018,0,0,1-1.6-.775,1.788,1.788,0,0,1-.272-1.683l3.706-10.521,1.954,0.618L74.08,48.041H85.011v1.949Z" transform="translate(-46 -23)"/>
  <path id="Shape_1082_copy" data-name="Shape 1082 copy" class="cls-3" d="M77.61,38.022L74.08,48.041H84c0-.016,0-0.027,0-0.042A10.989,10.989,0,0,0,77.61,38.022Z" transform="translate(-46 -23)"/>
</svg>
