<svg id="_1_1" data-name="1_1" xmlns="http://www.w3.org/2000/svg" width="147.125" height="83" viewBox="0 0 147.125 83">
  <metadata><?xpacket begin="﻿" id="W5M0MpCehiHzreSzNTczkc9d"?>
<x:xmpmeta xmlns:x="adobe:ns:meta/" x:xmptk="Adobe XMP Core 5.6-c138 79.159824, 2016/09/14-01:09:01        ">
   <rdf:RDF xmlns:rdf="http://www.w3.org/1999/02/22-rdf-syntax-ns#">
      <rdf:Description rdf:about=""/>
   </rdf:RDF>
</x:xmpmeta>
                                                                                                    
                                                                                                    
                                                                                                    
                                                                                                    
                                                                                                    
                                                                                                    
                                                                                                    
                                                                                                    
                                                                                                    
                                                                                                    
                                                                                                    
                                                                                                    
                                                                                                    
                                                                                                    
                                                                                                    
                                                                                                    
                                                                                                    
                                                                                                    
                                                                                                    
                                                                                                    
                           
<?xpacket end="w"?></metadata>
<defs>
    <style>
      .cls-1 {
        fill: #2c7457;
      }

      .cls-1, .cls-2, .cls-3 {
        fill-rule: evenodd;
        opacity: 0.5;
      }

      .cls-2 {
        fill: #16d488;
      }

      .cls-3 {
        fill: #226d4f;
      }
    </style>
  </defs>
  <path id="Rectangle_131_copy_17" data-name="Rectangle 131 copy 17" class="cls-1" d="M10.656,45.054L8,42.4,5.342,45.054,3.928,43.642l2.657-2.657L3.928,38.327l1.414-1.412L8,39.57l2.657-2.654,1.414,1.412L9.413,40.985l2.657,2.657Z" transform="translate(-3.938 -1.969)"/>
  <path id="Ellipse_42_copy_19" data-name="Ellipse 42 copy 19" class="cls-2" d="M20,84.984a4,4,0,1,1,4-4A4,4,0,0,1,20,84.984Zm0-6a2,2,0,1,0,2,2A2,2,0,0,0,20,78.984Z" transform="translate(-3.938 -1.969)"/>
  <path id="Rectangle_131_copy_23" data-name="Rectangle 131 copy 23" class="cls-2" d="M149.656,13.054L147,10.4l-2.657,2.656-1.414-1.414,2.657-2.654-2.657-2.658,1.414-1.418L147,7.568l2.657-2.658,1.414,1.418-2.657,2.658,2.657,2.654Z" transform="translate(-3.938 -1.969)"/>
  <path id="Ellipse_42_copy_22" data-name="Ellipse 42 copy 22" class="cls-3" d="M147,57.984a4,4,0,1,1,4-4A4,4,0,0,1,147,57.984Zm0-6a2,2,0,1,0,2,2A2,2,0,0,0,147,51.983Z" transform="translate(-3.938 -1.969)"/>
  <path id="Ellipse_42_copy_33" data-name="Ellipse 42 copy 33" class="cls-3" d="M28,9.984a4,4,0,1,1,4-4A4,4,0,0,1,28,9.984Zm0-6a2,2,0,1,0,2,2A2,2,0,0,0,28,3.983Z" transform="translate(-3.938 -1.969)"/>
</svg>
