<svg xmlns="http://www.w3.org/2000/svg" width="170" height="110" viewBox="0 0 170 110">
  <metadata><?xpacket begin="﻿" id="W5M0MpCehiHzreSzNTczkc9d"?>
<x:xmpmeta xmlns:x="adobe:ns:meta/" x:xmptk="Adobe XMP Core 5.6-c138 79.159824, 2016/09/14-01:09:01        ">
   <rdf:RDF xmlns:rdf="http://www.w3.org/1999/02/22-rdf-syntax-ns#">
      <rdf:Description rdf:about=""/>
   </rdf:RDF>
</x:xmpmeta>
                                                                                                    
                                                                                                    
                                                                                                    
                                                                                                    
                                                                                                    
                                                                                                    
                                                                                                    
                                                                                                    
                                                                                                    
                                                                                                    
                                                                                                    
                                                                                                    
                                                                                                    
                                                                                                    
                                                                                                    
                                                                                                    
                                                                                                    
                                                                                                    
                                                                                                    
                                                                                                    
                           
<?xpacket end="w"?></metadata>
<defs>
    <style>
      .cls-1 {
        fill: #f0f7f5;
        fill-rule: evenodd;
      }
    </style>
  </defs>
  <path id="_1_bg" data-name="1_bg" class="cls-1" d="M98,50.01h67a5,5,0,1,0,0-10H92a5,5,0,0,1,0-10h68a5,5,0,1,0,0-10H78.478l0-.008H76a5,5,0,1,1,0-10h0c0.016,0,.03.006,0.046,0.006H155a5,5,0,0,0,0-10H10a5,5,0,0,0,0,10H56a5,5,0,0,1,0,10H5a5,5,0,1,0,0,10H72a5,5,0,0,1,0,10H25a5,5,0,1,0,0,10H78a5,5,0,1,1,0,10H40a5,5,0,0,0,0,10H72a5,5,0,1,1,0,10H29a5,5,0,1,0,0,10l14,0a5,5,0,0,1,0,10H15a5,5,0,1,0,0,10H165a5,5,0,1,0,0-10H63a5,5,0,0,1,0-10l101,0a5,5,0,1,0,0-10H92a5,5,0,1,1,0-10h38a5,5,0,0,0,0-10H98A5,5,0,1,1,98,50.01ZM170,65a5,5,0,0,0-5-5H150a5,5,0,0,0,0,10h15A5,5,0,0,0,170,65ZM25,65a5,5,0,0,0-5-5H5A5,5,0,0,0,5,70H20A5,5,0,0,0,25,65Z"/>
</svg>
