<svg id="_2" data-name="2" xmlns="http://www.w3.org/2000/svg" width="78" height="59" viewBox="0 0 78 59">
  <metadata><?xpacket begin="﻿" id="W5M0MpCehiHzreSzNTczkc9d"?>
<x:xmpmeta xmlns:x="adobe:ns:meta/" x:xmptk="Adobe XMP Core 5.6-c138 79.159824, 2016/09/14-01:09:01        ">
   <rdf:RDF xmlns:rdf="http://www.w3.org/1999/02/22-rdf-syntax-ns#">
      <rdf:Description rdf:about=""/>
   </rdf:RDF>
</x:xmpmeta>
                                                                                                    
                                                                                                    
                                                                                                    
                                                                                                    
                                                                                                    
                                                                                                    
                                                                                                    
                                                                                                    
                                                                                                    
                                                                                                    
                                                                                                    
                                                                                                    
                                                                                                    
                                                                                                    
                                                                                                    
                                                                                                    
                                                                                                    
                                                                                                    
                                                                                                    
                                                                                                    
                           
<?xpacket end="w"?></metadata>
<defs>
    <style>
      .cls-1 {
        fill: #226d4f;
      }

      .cls-1, .cls-2 {
        fill-rule: evenodd;
      }

      .cls-2 {
        fill: #16d488;
      }

      .cls-3 {
        fill: #c1ecdb;
      }
    </style>
  </defs>
  <path id="Shape_990_copy_4" data-name="Shape 990 copy 4" class="cls-1" d="M124,29V82a3,3,0,0,1-3,3H49a3,3,0,0,1-3-3V29a3,3,0,0,1,3-3h72A3,3,0,0,1,124,29Z" transform="translate(-46 -26)"/>
  <path id="Shape_990_copy_4-2" data-name="Shape 990 copy 4" class="cls-2" d="M122,29V82a1,1,0,0,1-1,1H49a1,1,0,0,1-1-1V29a1,1,0,0,1,1-1h72A1,1,0,0,1,122,29Z" transform="translate(-46 -26)"/>
  <rect id="Rectangle_52_copy_2" data-name="Rectangle 52 copy 2" class="cls-3" x="6" y="12" width="66" height="41" rx="1" ry="1"/>
  <path class="cls-1" d="M48,34V32h62V28h2v4h10v2H48ZM60,44H78a2,2,0,0,1,2,2V71a2,2,0,0,1-2,2H60a2,2,0,0,1-2-2V46A2,2,0,0,1,60,44Zm0,27H78V46H60V71ZM88,44v2H86A2,2,0,0,1,88,44Zm0,6H86V48h2v2Zm0,4H86V52h2v2Zm0,4a2,2,0,0,1-2-2h2v2Zm2-14h2v2H90V44Zm2,14H90V56h2v2Zm2-14h2v2H94V44Zm2,14H94V56h2v2Zm2-14h2v2H98V44Zm2,14H98V56h2v2Zm2-14h2v2h-2V44Zm2,14h-2V56h2v2ZM87,64h17a1,1,0,1,1,0,2H87A1,1,0,1,1,87,64Zm19-20h2v2h-2V44Zm2,14h-2V56h2v2ZM87,71h21a1,1,0,1,1,0,2H87A1,1,0,1,1,87,71Zm25-25h-2V44A2,2,0,0,1,112,46Zm0,4h-2V48h2v2Zm0,4h-2V52h2v2Zm-2,4V56h2A2,2,0,0,1,110,58Z" transform="translate(-46 -26)"/>
</svg>
