<svg id="_2_1" data-name="2_1" xmlns="http://www.w3.org/2000/svg" width="157" height="82.094" viewBox="0 0 157 82.094">
  <metadata><?xpacket begin="﻿" id="W5M0MpCehiHzreSzNTczkc9d"?>
<x:xmpmeta xmlns:x="adobe:ns:meta/" x:xmptk="Adobe XMP Core 5.6-c138 79.159824, 2016/09/14-01:09:01        ">
   <rdf:RDF xmlns:rdf="http://www.w3.org/1999/02/22-rdf-syntax-ns#">
      <rdf:Description rdf:about=""/>
   </rdf:RDF>
</x:xmpmeta>
                                                                                                    
                                                                                                    
                                                                                                    
                                                                                                    
                                                                                                    
                                                                                                    
                                                                                                    
                                                                                                    
                                                                                                    
                                                                                                    
                                                                                                    
                                                                                                    
                                                                                                    
                                                                                                    
                                                                                                    
                                                                                                    
                                                                                                    
                                                                                                    
                                                                                                    
                                                                                                    
                           
<?xpacket end="w"?></metadata>
<defs>
    <style>
      .cls-1 {
        fill: #16d488;
      }

      .cls-1, .cls-2 {
        fill-rule: evenodd;
        opacity: 0.5;
      }

      .cls-2 {
        fill: #226d4f;
      }
    </style>
  </defs>
  <path id="Rectangle_131_copy_21" data-name="Rectangle 131 copy 21" class="cls-1" d="M18,24.741V20.984H14.242v-2l3.756,0,0-3.76h2v3.759h3.758v2l-3.76,0,0,3.755H18Z" transform="translate(-4 -14.969)"/>
  <path id="Rounded_Rectangle_10_copy_22" data-name="Rounded Rectangle 10 copy 22" class="cls-1" d="M147,23.983h-7a1,1,0,0,1-1-1v-7a1,1,0,0,1,1-1h7a1,1,0,0,1,1,1v7A1,1,0,0,1,147,23.983Zm-1-7h-5v5h5v-5Z" transform="translate(-4 -14.969)"/>
  <path id="Ellipse_42_copy_23" data-name="Ellipse 42 copy 23" class="cls-1" d="M8,58.983a4,4,0,1,1,4-4A4,4,0,0,1,8,58.983Zm0-6a2,2,0,1,0,2,2A2,2,0,0,0,8,52.983Z" transform="translate(-4 -14.969)"/>
  <path id="Rectangle_131_copy_23" data-name="Rectangle 131 copy 23" class="cls-1" d="M147.656,97.054L145,94.4l-2.657,2.656-1.414-1.414,2.657-2.654-2.657-2.66,1.414-1.415L145,91.568l2.657-2.658,1.414,1.415-2.657,2.66,2.657,2.654Z" transform="translate(-4 -14.969)"/>
  <path id="Rounded_Rectangle_10_copy_21" data-name="Rounded Rectangle 10 copy 21" class="cls-2" d="M22,91.988H15a1,1,0,0,1-1-1v-7a1,1,0,0,1,1-1h7a1,1,0,0,1,1,1v7A1,1,0,0,1,22,91.988Zm-1-7H16v5h5v-5Z" transform="translate(-4 -14.969)"/>
  <path id="Ellipse_42_copy_27" data-name="Ellipse 42 copy 27" class="cls-2" d="M157,59.983a4,4,0,1,1,4-4A4,4,0,0,1,157,59.983Zm0-6a2,2,0,1,0,2,2A2,2,0,0,0,157,53.983Z" transform="translate(-4 -14.969)"/>
</svg>
