<svg xmlns="http://www.w3.org/2000/svg" width="170" height="110" viewBox="0 0 170 110">
  <metadata><?xpacket begin="﻿" id="W5M0MpCehiHzreSzNTczkc9d"?>
<x:xmpmeta xmlns:x="adobe:ns:meta/" x:xmptk="Adobe XMP Core 5.6-c138 79.159824, 2016/09/14-01:09:01        ">
   <rdf:RDF xmlns:rdf="http://www.w3.org/1999/02/22-rdf-syntax-ns#">
      <rdf:Description rdf:about=""/>
   </rdf:RDF>
</x:xmpmeta>
                                                                                                    
                                                                                                    
                                                                                                    
                                                                                                    
                                                                                                    
                                                                                                    
                                                                                                    
                                                                                                    
                                                                                                    
                                                                                                    
                                                                                                    
                                                                                                    
                                                                                                    
                                                                                                    
                                                                                                    
                                                                                                    
                                                                                                    
                                                                                                    
                                                                                                    
                                                                                                    
                           
<?xpacket end="w"?></metadata>
<defs>
    <style>
      .cls-1 {
        fill: #f0f7f5;
        fill-rule: evenodd;
      }
    </style>
  </defs>
  <path id="_2_bg" data-name="2_bg" class="cls-1" d="M93,50.01h37a5,5,0,1,0,0-10H87a5,5,0,0,1,0-10h78a5,5,0,1,0,0-10H143.478a0.033,0.033,0,0,0,0-.008H141a5,5,0,1,1,0-10h0c0.016,0,.03.006,0.046,0.006H152a5,5,0,0,0,0-10H5a5,5,0,0,0,0,10H121a5,5,0,0,1,0,10H20a5,5,0,1,0,0,10H67a5,5,0,0,1,0,10H30a5,5,0,1,0,0,10H73a5,5,0,1,1,0,10H25a5,5,0,0,0,0,10H131a5,5,0,1,1,0,10H24a5,5,0,1,0,0,10l5,0a5,5,0,0,1,0,10H10a5,5,0,1,0,0,10H130a5,5,0,1,0,0-10H49a5,5,0,0,1,0-10l110,0a5,5,0,1,0,0-10h-8a5,5,0,1,1,0-10h4a5,5,0,0,0,0-10H93A5,5,0,1,1,93,50.01ZM170,105a5,5,0,0,0-5-5H150a5,5,0,1,0,0,10h15A5,5,0,0,0,170,105Z"/>
</svg>
