<?xml version="1.0" encoding="utf-8"?>
<!-- Generator: Adobe Illustrator 21.1.0, SVG Export Plug-In . SVG Version: 6.00 Build 0)  -->
<svg version="1.1" id="_3" xmlns="http://www.w3.org/2000/svg" xmlns:xlink="http://www.w3.org/1999/xlink" x="0px" y="0px"
	 viewBox="0 0 66.8 76" style="enable-background:new 0 0 66.8 76;" xml:space="preserve">
<style type="text/css">
	.st0{fill:#226D4F;}
	.st1{fill:#16D488;}
	.st2{fill:#C1ECDB;}
</style>
<path class="st0" d="M58,63.3L35.1,74.7c-0.9,0.4-1.9,0.4-2.8,0L9,63.1c-1-0.5-1.6-1.4-1.7-2.5L1,4.5C0.8,2.8,2.1,1.2,3.8,1
	c0.1,0,0.2,0,0.4,0h58.5c1.8,0,3.2,1.4,3.2,3.2c0,0.1,0,0.2,0,0.3l-6.1,56.2C59.6,61.8,58.9,62.8,58,63.3z M33.7,76
	c-0.6,0-1.3-0.1-1.8-0.4L8.6,64c-1.3-0.6-2.1-1.9-2.3-3.3L0,4.6c-0.1-1.2,0.2-2.4,1-3.3C1.9,0.5,3,0,4.2,0h58.5
	c1.2,0,2.3,0.5,3.1,1.4c0.8,0.9,1.2,2.1,1,3.2l-6.1,56.2c-0.1,1.4-1,2.7-2.3,3.3L35.6,75.6C35,75.8,34.4,76,33.7,76z M4.2,2
	C3,2,2,3,2,4.2c0,0.1,0,0.2,0,0.2l6.2,56c0.1,0.7,0.5,1.4,1.2,1.7l23.3,11.6c0.6,0.3,1.3,0.3,1.9,0l22.8-11.4c0.7-0.3,1.1-1,1.2-1.7
	l6.1-56.2c0.1-0.6-0.1-1.2-0.5-1.7c-0.4-0.5-1-0.7-1.6-0.7L4.2,2L4.2,2z M33.7,76c-0.6,0-1.3-0.1-1.8-0.4L8.6,64
	c-1.3-0.6-2.1-1.9-2.3-3.3L0,4.7c-0.1-1.2,0.2-2.4,1-3.3C1.9,0.5,3,0,4.2,0h58.5c1.2,0,2.3,0.5,3.1,1.4c0.8,0.9,1.2,2.1,1,3.2
	l-6.1,56.2c-0.1,1.4-1,2.7-2.3,3.3L35.6,75.6C35,75.9,34.4,76,33.7,76z"/>
<path id="Shape_1085_copy" class="st1" d="M4.2,2C3,2,2,3,2,4.2c0,0.1,0,0.2,0,0.2l6.2,56c0.1,0.7,0.5,1.4,1.2,1.7l23.3,11.6
	c0.6,0.3,1.3,0.3,1.9,0l22.8-11.4c0.7-0.3,1.1-1,1.2-1.7l6.1-56.2c0.1-0.6-0.1-1.2-0.5-1.7c-0.4-0.5-1-0.7-1.6-0.7L4.2,2L4.2,2z"/>
<path class="st2" d="M60.7,6l-5.8,53.2L33.7,69.8L12.1,59L6.2,6H60.7"/>
<path id="HTML" class="st0" d="M20.9,30.1v4H17v-4h-2.2v9.5H17v-4h3.8v4h2.2v-9.5H20.9L20.9,30.1z M31.6,30.1h-7.5v1.7h2.7v7.7h2.2
	v-7.7h2.7L31.6,30.1L31.6,30.1z M41.8,30.1c-0.1,0-0.2,0-0.3,0c-0.1,0-0.1,0-0.2,0c-0.1,0-0.1,0.1-0.2,0.1c-0.1,0.1-0.1,0.1-0.1,0.2
	l-2.4,4.8c-0.1,0.2-0.2,0.3-0.3,0.5s-0.2,0.4-0.2,0.6c-0.1-0.2-0.2-0.4-0.2-0.5s-0.2-0.3-0.3-0.5l-2.4-4.8c0-0.1-0.1-0.1-0.1-0.2
	c0,0-0.1-0.1-0.2-0.1c-0.1,0-0.1,0-0.2,0c-0.1,0-0.2,0-0.3,0h-1.7v9.5h1.9v-5.4c0-0.1,0-0.3,0-0.4s0-0.3,0-0.5l2.5,4.9
	c0.1,0.1,0.2,0.3,0.3,0.3c0.1,0.1,0.3,0.1,0.5,0.1h0.3c0.2,0,0.3,0,0.5-0.1c0.1-0.1,0.2-0.2,0.3-0.3l2.5-4.9c0,0.2,0,0.3,0,0.4
	s0,0.3,0,0.4v5.4h1.9v-9.5C43.5,30.1,41.8,30.1,41.8,30.1z M48,37.8v-7.7h-2.2v9.5h5.7v-1.8L48,37.8L48,37.8z"/>
</svg>
