<svg id="_3_1" data-name="3_1" xmlns="http://www.w3.org/2000/svg" width="133.063" height="78.063" viewBox="0 0 133.063 78.063">
  <metadata><?xpacket begin="﻿" id="W5M0MpCehiHzreSzNTczkc9d"?>
<x:xmpmeta xmlns:x="adobe:ns:meta/" x:xmptk="Adobe XMP Core 5.6-c138 79.159824, 2016/09/14-01:09:01        ">
   <rdf:RDF xmlns:rdf="http://www.w3.org/1999/02/22-rdf-syntax-ns#">
      <rdf:Description rdf:about=""/>
   </rdf:RDF>
</x:xmpmeta>
                                                                                                    
                                                                                                    
                                                                                                    
                                                                                                    
                                                                                                    
                                                                                                    
                                                                                                    
                                                                                                    
                                                                                                    
                                                                                                    
                                                                                                    
                                                                                                    
                                                                                                    
                                                                                                    
                                                                                                    
                                                                                                    
                                                                                                    
                                                                                                    
                                                                                                    
                                                                                                    
                           
<?xpacket end="w"?></metadata>
<defs>
    <style>
      .cls-1 {
        fill: #16d488;
      }

      .cls-1, .cls-2 {
        fill-rule: evenodd;
        opacity: 0.5;
      }

      .cls-2 {
        fill: #226d4f;
      }
    </style>
  </defs>
  <path id="Rounded_Rectangle_10_copy_23" data-name="Rounded Rectangle 10 copy 23" class="cls-1" d="M148,80.984h-7a1,1,0,0,1-1-1v-7a1,1,0,0,1,1-1h7a1,1,0,0,1,1,1v7A1,1,0,0,1,148,80.984Zm-1-7h-5v5h5v-5Z" transform="translate(-15.938 -7.906)"/>
  <path id="Rectangle_131_copy_30" data-name="Rectangle 131 copy 30" class="cls-1" d="M26.656,16.056L24,13.4l-2.657,2.656-1.414-1.414,2.657-2.654-2.657-2.66,1.414-1.415L24,10.569l2.657-2.658L28.07,9.327l-2.657,2.66,2.657,2.654Z" transform="translate(-15.938 -7.906)"/>
  <path id="Rectangle_131_copy_25" data-name="Rectangle 131 copy 25" class="cls-2" d="M22.656,48.054L20,45.4l-2.657,2.656L15.928,46.64l2.657-2.654-2.657-2.658,1.414-1.418L20,42.568l2.657-2.658,1.414,1.418-2.657,2.658L24.07,46.64Z" transform="translate(-15.938 -7.906)"/>
  <path id="Rectangle_131_copy_26" data-name="Rectangle 131 copy 26" class="cls-2" d="M143.656,18.054L141,15.4l-2.657,2.656-1.414-1.414,2.657-2.654-2.657-2.658,1.414-1.418L141,12.568l2.657-2.658,1.414,1.418-2.657,2.658,2.657,2.654Z" transform="translate(-15.938 -7.906)"/>
  <path id="Ellipse_42_copy_34" data-name="Ellipse 42 copy 34" class="cls-2" d="M25,85.984a4,4,0,1,1,4-4A4,4,0,0,1,25,85.984Zm0-6a2,2,0,1,0,2,2A2,2,0,0,0,25,79.983Z" transform="translate(-15.938 -7.906)"/>
</svg>
