<svg xmlns="http://www.w3.org/2000/svg" width="170" height="110" viewBox="0 0 170 110">
  <metadata><?xpacket begin="﻿" id="W5M0MpCehiHzreSzNTczkc9d"?>
<x:xmpmeta xmlns:x="adobe:ns:meta/" x:xmptk="Adobe XMP Core 5.6-c138 79.159824, 2016/09/14-01:09:01        ">
   <rdf:RDF xmlns:rdf="http://www.w3.org/1999/02/22-rdf-syntax-ns#">
      <rdf:Description rdf:about=""/>
   </rdf:RDF>
</x:xmpmeta>
                                                                                                    
                                                                                                    
                                                                                                    
                                                                                                    
                                                                                                    
                                                                                                    
                                                                                                    
                                                                                                    
                                                                                                    
                                                                                                    
                                                                                                    
                                                                                                    
                                                                                                    
                                                                                                    
                                                                                                    
                                                                                                    
                                                                                                    
                                                                                                    
                                                                                                    
                                                                                                    
                           
<?xpacket end="w"?></metadata>
<defs>
    <style>
      .cls-1 {
        fill: #f0f7f5;
        fill-rule: evenodd;
      }
    </style>
  </defs>
  <path id="_3_bg" data-name="3_bg" class="cls-1" d="M93,59.989h37a5,5,0,1,1,0,10H87a5,5,0,1,0,0,10h78a5,5,0,1,1,0,10H143.478a0.032,0.032,0,0,1,0,.008H141a5,5,0,1,0,0,10h0c0.016,0,.03-0.006.046-0.006H152a5,5,0,0,1,0,10H65a5,5,0,0,1,0-10h56a5,5,0,0,0,0-10H5a5,5,0,1,1,0-10H67a5,5,0,0,0,0-10H30a5,5,0,1,1,0-10H73a5,5,0,1,0,0-10H15a5,5,0,0,1,0-10H37a5,5,0,1,0,0-10H5a5,5,0,0,1,0-10l94,0a5,5,0,0,0,0-10H10a5,5,0,1,1,0-10H120a5,5,0,1,1,0,10h-1a5,5,0,0,0,0,10l30,0a5,5,0,1,1,0,10H57a5,5,0,1,0,0,10h98a5,5,0,0,1,0,10H93A5,5,0,1,0,93,59.989ZM170,4.995a5,5,0,0,1-5,5H140a5,5,0,1,1,0-10h25A5,5,0,0,1,170,4.995ZM50,105a5,5,0,0,1-5,5H20a5,5,0,1,1,0-10H45A5,5,0,0,1,50,105Z"/>
</svg>
