<svg id="_4" data-name="4" xmlns="http://www.w3.org/2000/svg" width="76" height="62" viewBox="0 0 76 62">
  <metadata><?xpacket begin="﻿" id="W5M0MpCehiHzreSzNTczkc9d"?>
<x:xmpmeta xmlns:x="adobe:ns:meta/" x:xmptk="Adobe XMP Core 5.6-c138 79.159824, 2016/09/14-01:09:01        ">
   <rdf:RDF xmlns:rdf="http://www.w3.org/1999/02/22-rdf-syntax-ns#">
      <rdf:Description rdf:about=""/>
   </rdf:RDF>
</x:xmpmeta>
                                                                                                    
                                                                                                    
                                                                                                    
                                                                                                    
                                                                                                    
                                                                                                    
                                                                                                    
                                                                                                    
                                                                                                    
                                                                                                    
                                                                                                    
                                                                                                    
                                                                                                    
                                                                                                    
                                                                                                    
                                                                                                    
                                                                                                    
                                                                                                    
                                                                                                    
                                                                                                    
                           
<?xpacket end="w"?></metadata>
<defs>
    <style>
      .cls-1, .cls-4 {
        fill: #226d4f;
      }

      .cls-2 {
        fill: #16d488;
      }

      .cls-2, .cls-3, .cls-4 {
        fill-rule: evenodd;
      }

      .cls-3 {
        fill: #c1ecdb;
      }
    </style>
  </defs>
  <rect id="Shape_22_copy_8" data-name="Shape 22 copy 8" class="cls-1" width="76" height="62" rx="4" ry="4"/>
  <path id="Rounded_Rectangle_2_copy_8" data-name="Rounded Rectangle 2 copy 8" class="cls-2" d="M49,25.995h72V84H49v-58h0Z" transform="translate(-47 -24)"/>
  <path id="Rectangle_52_copy_8" data-name="Rectangle 52 copy 8" class="cls-3" d="M53,36h64V80H53V36h0Z" transform="translate(-47 -24)"/>
  <path id="Rounded_Rectangle_29_copy_4" data-name="Rounded Rectangle 29 copy 4" class="cls-4" d="M74.7,47.659L63.877,58l2.165,2.068,8.659,8.27a0.944,0.944,0,0,1,0,1.378,1.055,1.055,0,0,1-1.443,0L64.6,61.442l-2.165-2.066L60.99,58l1.443-1.377L73.258,46.281a1.055,1.055,0,0,1,1.443,0A0.944,0.944,0,0,1,74.7,47.659Zm20.567,0L106.116,58l-2.169,2.068-8.679,8.27a0.943,0.943,0,0,0,0,1.378,1.059,1.059,0,0,0,1.446,0l8.679-8.271,2.17-2.066L109.009,58l-1.446-1.377L96.714,46.281a1.059,1.059,0,0,0-1.446,0A0.943,0.943,0,0,0,95.268,47.659Z" transform="translate(-47 -24)"/>
  <path id="Rounded_Rectangle_29_copy" data-name="Rounded Rectangle 29 copy" class="cls-4" d="M90,49.335a1,1,0,0,1,.366,1.367l-9,15.59a1,1,0,0,1-1.732-1l9-15.588A1,1,0,0,1,90,49.335Z" transform="translate(-47 -24)"/>
  <path id="Rectangle_576_copy_2" data-name="Rectangle 576 copy 2" class="cls-4" d="M48,32V30h54V26h2v4h18v2H48Z" transform="translate(-47 -24)"/>
</svg>
