<svg id="_4_1" data-name="4_1" xmlns="http://www.w3.org/2000/svg" width="147.063" height="78.094" viewBox="0 0 147.063 78.094">
  <metadata><?xpacket begin="﻿" id="W5M0MpCehiHzreSzNTczkc9d"?>
<x:xmpmeta xmlns:x="adobe:ns:meta/" x:xmptk="Adobe XMP Core 5.6-c138 79.159824, 2016/09/14-01:09:01        ">
   <rdf:RDF xmlns:rdf="http://www.w3.org/1999/02/22-rdf-syntax-ns#">
      <rdf:Description rdf:about=""/>
   </rdf:RDF>
</x:xmpmeta>
                                                                                                    
                                                                                                    
                                                                                                    
                                                                                                    
                                                                                                    
                                                                                                    
                                                                                                    
                                                                                                    
                                                                                                    
                                                                                                    
                                                                                                    
                                                                                                    
                                                                                                    
                                                                                                    
                                                                                                    
                                                                                                    
                                                                                                    
                                                                                                    
                                                                                                    
                                                                                                    
                           
<?xpacket end="w"?></metadata>
<defs>
    <style>
      .cls-1 {
        fill: #16d488;
      }

      .cls-1, .cls-2 {
        fill-rule: evenodd;
        opacity: 0.5;
      }

      .cls-2 {
        fill: #226d4f;
      }
    </style>
  </defs>
  <path id="Rectangle_131_copy_34" data-name="Rectangle 131 copy 34" class="cls-1" d="M21.656,59.056L19,56.4l-2.657,2.656-1.414-1.414,2.657-2.654-2.657-2.66,1.414-1.415L19,53.569l2.657-2.658,1.414,1.415-2.657,2.66,2.657,2.654Z" transform="translate(-14.938 -15.969)"/>
  <path id="Ellipse_42_copy_30" data-name="Ellipse 42 copy 30" class="cls-1" d="M147,23.983a4,4,0,1,1,4-4A4,4,0,0,1,147,23.983Zm0-6a2,2,0,1,0,2,2A2,2,0,0,0,147,17.983Z" transform="translate(-14.938 -15.969)"/>
  <path id="Rectangle_131_copy_33" data-name="Rectangle 131 copy 33" class="cls-2" d="M149.656,94.054L147,91.4l-2.657,2.656-1.414-1.414,2.657-2.656-2.657-2.658,1.414-1.413L147,88.569l2.657-2.656,1.414,1.413-2.657,2.658,2.657,2.656Z" transform="translate(-14.938 -15.969)"/>
  <path id="Ellipse_42_copy_32" data-name="Ellipse 42 copy 32" class="cls-2" d="M23,23.984a4,4,0,1,1,4-4A4,4,0,0,1,23,23.984Zm0-6a2,2,0,1,0,2,2A2,2,0,0,0,23,17.984Z" transform="translate(-14.938 -15.969)"/>
  <path id="Rounded_Rectangle_10_copy_25" data-name="Rounded Rectangle 10 copy 25" class="cls-2" d="M161,60.987h-7a1,1,0,0,1-1-1v-7a1,1,0,0,1,1-1h7a1,1,0,0,1,1,1v7A1,1,0,0,1,161,60.987Zm-1-7h-5v5h5v-5Z" transform="translate(-14.938 -15.969)"/>
</svg>
