<svg xmlns="http://www.w3.org/2000/svg" width="170" height="110" viewBox="0 0 170 110">
  <metadata><?xpacket begin="﻿" id="W5M0MpCehiHzreSzNTczkc9d"?>
<x:xmpmeta xmlns:x="adobe:ns:meta/" x:xmptk="Adobe XMP Core 5.6-c138 79.159824, 2016/09/14-01:09:01        ">
   <rdf:RDF xmlns:rdf="http://www.w3.org/1999/02/22-rdf-syntax-ns#">
      <rdf:Description rdf:about=""/>
   </rdf:RDF>
</x:xmpmeta>
                                                                                                    
                                                                                                    
                                                                                                    
                                                                                                    
                                                                                                    
                                                                                                    
                                                                                                    
                                                                                                    
                                                                                                    
                                                                                                    
                                                                                                    
                                                                                                    
                                                                                                    
                                                                                                    
                                                                                                    
                                                                                                    
                                                                                                    
                                                                                                    
                                                                                                    
                                                                                                    
                           
<?xpacket end="w"?></metadata>
<defs>
    <style>
      .cls-1 {
        fill: #f0f7f5;
        fill-rule: evenodd;
      }
    </style>
  </defs>
  <path id="_4_bg" data-name="4_bg" class="cls-1" d="M77,59.989H10a5,5,0,1,0,0,10H83a5,5,0,0,1,0,10H5a5,5,0,0,0,0,10H37.522l0,0.008H40a5,5,0,1,1,0,10h0c-0.016,0-.03-0.006-0.046-0.006H28a5,5,0,0,0,0,10H65a5,5,0,0,0,0-10H60a5,5,0,0,1,0-10h85a5,5,0,1,0,0-10H103a5,5,0,0,1,0-10h57a5,5,0,1,0,0-10H97a5,5,0,1,1,0-10h58a5,5,0,0,0,0-10H123a5,5,0,1,1,0-10h42a5,5,0,1,0,0-10l-14,0a5,5,0,0,1,0-10h9a5,5,0,1,0,0-10H5a5,5,0,1,0,0,10H131a5,5,0,0,1,0,10l-110,0a5,5,0,0,0,0,10h82a5,5,0,1,1,0,10H45a5,5,0,0,0,0,10H77A5,5,0,1,1,77,59.989Zm-77-15a5,5,0,0,0,5,5H25a5,5,0,0,0,0-10H5A5,5,0,0,0,0,44.994Zm80,60a5,5,0,0,0,5,5h80a5,5,0,1,0,0-10H85A5,5,0,0,0,80,105Z"/>
</svg>
