<svg xmlns="http://www.w3.org/2000/svg" width="71" height="62" viewBox="0 0 71 62">
  <metadata><?xpacket begin="﻿" id="W5M0MpCehiHzreSzNTczkc9d"?>
<x:xmpmeta xmlns:x="adobe:ns:meta/" x:xmptk="Adobe XMP Core 5.6-c138 79.159824, 2016/09/14-01:09:01        ">
   <rdf:RDF xmlns:rdf="http://www.w3.org/1999/02/22-rdf-syntax-ns#">
      <rdf:Description rdf:about=""/>
   </rdf:RDF>
</x:xmpmeta>
                                                                                                    
                                                                                                    
                                                                                                    
                                                                                                    
                                                                                                    
                                                                                                    
                                                                                                    
                                                                                                    
                                                                                                    
                                                                                                    
                                                                                                    
                                                                                                    
                                                                                                    
                                                                                                    
                                                                                                    
                                                                                                    
                                                                                                    
                                                                                                    
                                                                                                    
                                                                                                    
                           
<?xpacket end="w"?></metadata>
<defs>
    <style>
      .cls-1 {
        fill: #226d4f;
      }

      .cls-2, .cls-3 {
        fill: #16d488;
      }

      .cls-2, .cls-4 {
        fill-rule: evenodd;
      }

      .cls-4, .cls-5 {
        fill: #c1ecdb;
      }
    </style>
  </defs>
  <rect id="Shape_22_copy_12" data-name="Shape 22 copy 12" class="cls-1" width="60" height="20" rx="6" ry="6"/>
  <path id="Rounded_Rectangle_2_copy_12" data-name="Rounded Rectangle 2 copy 12" class="cls-2" d="M2,2H58V18H2V2H2Z"/>
  <rect id="Shape_22_copy_12-2" data-name="Shape 22 copy 12" class="cls-1" width="60" height="20" rx="4" ry="4"/>
  <rect id="Rounded_Rectangle_2_copy_12-2" data-name="Rounded Rectangle 2 copy 12" class="cls-3" x="2" y="2" width="56" height="16" rx="2" ry="2"/>
  <rect id="Shape_22_copy_13" data-name="Shape 22 copy 13" class="cls-1" y="18" width="60" height="20" rx="6" ry="6"/>
  <path id="Rounded_Rectangle_2_copy_13" data-name="Rounded Rectangle 2 copy 13" class="cls-2" d="M2,20H58V36H2V20H2Z"/>
  <rect id="Shape_22_copy_13-2" data-name="Shape 22 copy 13" class="cls-1" y="18" width="60" height="20" rx="4" ry="4"/>
  <rect id="Rounded_Rectangle_2_copy_13-2" data-name="Rounded Rectangle 2 copy 13" class="cls-3" x="2" y="20" width="56" height="16" rx="2" ry="2"/>
  <rect id="Shape_22_copy_14" data-name="Shape 22 copy 14" class="cls-1" y="36" width="60" height="20" rx="6" ry="6"/>
  <path id="Rounded_Rectangle_2_copy_14" data-name="Rounded Rectangle 2 copy 14" class="cls-2" d="M2,38H58V54H2V38H2Z"/>
  <rect id="Shape_22_copy_14-2" data-name="Shape 22 copy 14" class="cls-1" y="36" width="60" height="20" rx="4" ry="4"/>
  <rect id="Rounded_Rectangle_2_copy_14-2" data-name="Rounded Rectangle 2 copy 14" class="cls-3" x="2" y="38" width="56" height="16" rx="2" ry="2"/>
  <path id="Rounded_Rectangle_2_copy_16" data-name="Rounded Rectangle 2 copy 16" class="cls-4" d="M6,42H54v8H6V42H6Z"/>
  <circle class="cls-1" cx="10" cy="46" r="2"/>
  <path id="Rounded_Rectangle_2_copy_17" data-name="Rounded Rectangle 2 copy 17" class="cls-4" d="M6,24H54v8H6V24H6Z"/>
  <path id="Rounded_Rectangle_2_copy_18" data-name="Rounded Rectangle 2 copy 18" class="cls-4" d="M6,6H54v8H6V6H6Z"/>
  <circle id="Ellipse_674_copy" data-name="Ellipse 674 copy" class="cls-1" cx="10" cy="28" r="2"/>
  <circle id="Ellipse_674_copy_2" data-name="Ellipse 674 copy 2" class="cls-1" cx="10" cy="10" r="2"/>
  <rect id="Shape_22_copy_15" data-name="Shape 22 copy 15" class="cls-1" x="29" y="27" width="42" height="13" rx="4" ry="4"/>
  <path id="Rounded_Rectangle_2_copy_15" data-name="Rounded Rectangle 2 copy 15" class="cls-2" d="M31,29H69v9H31V29h0Z"/>
  <rect id="Shape_22_copy_15-2" data-name="Shape 22 copy 15" class="cls-1" x="29" y="27" width="42" height="13" rx="4" ry="4"/>
  <rect id="Rounded_Rectangle_2_copy_15-2" data-name="Rounded Rectangle 2 copy 15" class="cls-3" x="31" y="29" width="38" height="9" rx="2" ry="2"/>
  <rect class="cls-5" x="34" y="32" width="32" height="3"/>
  <rect id="Shape_22_copy_15-3" data-name="Shape 22 copy 15" class="cls-1" x="29" y="38" width="42" height="13" rx="4" ry="4"/>
  <path id="Rounded_Rectangle_2_copy_15-3" data-name="Rounded Rectangle 2 copy 15" class="cls-2" d="M31,40H69v9H31V40h0Z"/>
  <rect id="Shape_22_copy_15-4" data-name="Shape 22 copy 15" class="cls-1" x="29" y="38" width="42" height="13" rx="4" ry="4"/>
  <rect id="Rounded_Rectangle_2_copy_15-4" data-name="Rounded Rectangle 2 copy 15" class="cls-3" x="31" y="40" width="38" height="9" rx="2" ry="2"/>
  <rect id="Shape_22_copy_15-5" data-name="Shape 22 copy 15" class="cls-1" x="29" y="49" width="42" height="13" rx="4" ry="4"/>
  <path id="Rounded_Rectangle_2_copy_15-5" data-name="Rounded Rectangle 2 copy 15" class="cls-2" d="M31,51H69v9H31V51h0Z"/>
  <rect id="Rectangle_609_copy" data-name="Rectangle 609 copy" class="cls-5" x="34" y="43" width="32" height="3"/>
  <rect id="Shape_22_copy_15-6" data-name="Shape 22 copy 15" class="cls-1" x="29" y="49" width="42" height="13" rx="4" ry="4"/>
  <rect id="Rounded_Rectangle_2_copy_15-6" data-name="Rounded Rectangle 2 copy 15" class="cls-3" x="31" y="51" width="38" height="9" rx="2" ry="2"/>
  <rect id="Rectangle_609_copy_2" data-name="Rectangle 609 copy 2" class="cls-5" x="34" y="54" width="32" height="3"/>
</svg>
