<svg id="_5_1" data-name="5_1" xmlns="http://www.w3.org/2000/svg" width="130.063" height="79.156" viewBox="0 0 130.063 79.156">
  <metadata><?xpacket begin="﻿" id="W5M0MpCehiHzreSzNTczkc9d"?>
<x:xmpmeta xmlns:x="adobe:ns:meta/" x:xmptk="Adobe XMP Core 5.6-c138 79.159824, 2016/09/14-01:09:01        ">
   <rdf:RDF xmlns:rdf="http://www.w3.org/1999/02/22-rdf-syntax-ns#">
      <rdf:Description rdf:about=""/>
   </rdf:RDF>
</x:xmpmeta>
                                                                                                    
                                                                                                    
                                                                                                    
                                                                                                    
                                                                                                    
                                                                                                    
                                                                                                    
                                                                                                    
                                                                                                    
                                                                                                    
                                                                                                    
                                                                                                    
                                                                                                    
                                                                                                    
                                                                                                    
                                                                                                    
                                                                                                    
                                                                                                    
                                                                                                    
                                                                                                    
                           
<?xpacket end="w"?></metadata>
<defs>
    <style>
      .cls-1 {
        fill: #16d488;
      }

      .cls-1, .cls-2 {
        fill-rule: evenodd;
        opacity: 0.5;
      }

      .cls-2 {
        fill: #226d4f;
      }
    </style>
  </defs>
  <path id="Rounded_Rectangle_10_copy_24" data-name="Rounded Rectangle 10 copy 24" class="cls-1" d="M151,78.984h-7a1,1,0,0,1-1-1v-7a1,1,0,0,1,1-1h7a1,1,0,0,1,1,1v7A1,1,0,0,1,151,78.984Zm-1-7h-5v5h5v-5Z" transform="translate(-21.938 -13.906)"/>
  <path id="Rectangle_131_copy_32" data-name="Rectangle 131 copy 32" class="cls-1" d="M28.656,22.054L26,19.4l-2.657,2.656L21.928,20.64l2.657-2.654-2.657-2.658,1.414-1.418L26,16.567l2.657-2.658,1.414,1.418-2.657,2.658L30.07,20.64Z" transform="translate(-21.938 -13.906)"/>
  <path id="Rectangle_131_copy_24" data-name="Rectangle 131 copy 24" class="cls-2" d="M30.656,93.055L28,90.4l-2.657,2.656-1.414-1.414,2.657-2.656-2.657-2.658,1.414-1.413L28,87.57l2.657-2.656,1.414,1.413-2.657,2.658,2.657,2.656Z" transform="translate(-21.938 -13.906)"/>
  <path id="Rectangle_131_copy_31" data-name="Rectangle 131 copy 31" class="cls-2" d="M139.656,23.054L137,20.4l-2.657,2.656-1.414-1.414,2.657-2.656-2.657-2.658,1.414-1.413L137,17.569l2.657-2.656,1.414,1.413-2.657,2.658,2.657,2.656Z" transform="translate(-21.938 -13.906)"/>
</svg>
