<svg xmlns="http://www.w3.org/2000/svg" width="170" height="110" viewBox="0 0 170 110">
  <metadata><?xpacket begin="﻿" id="W5M0MpCehiHzreSzNTczkc9d"?>
<x:xmpmeta xmlns:x="adobe:ns:meta/" x:xmptk="Adobe XMP Core 5.6-c138 79.159824, 2016/09/14-01:09:01        ">
   <rdf:RDF xmlns:rdf="http://www.w3.org/1999/02/22-rdf-syntax-ns#">
      <rdf:Description rdf:about=""/>
   </rdf:RDF>
</x:xmpmeta>
                                                                                                    
                                                                                                    
                                                                                                    
                                                                                                    
                                                                                                    
                                                                                                    
                                                                                                    
                                                                                                    
                                                                                                    
                                                                                                    
                                                                                                    
                                                                                                    
                                                                                                    
                                                                                                    
                                                                                                    
                                                                                                    
                                                                                                    
                                                                                                    
                                                                                                    
                                                                                                    
                           
<?xpacket end="w"?></metadata>
<defs>
    <style>
      .cls-1 {
        fill: #f0f7f5;
        fill-rule: evenodd;
      }
    </style>
  </defs>
  <path id="_5_bg" data-name="5_bg" class="cls-1" d="M77,50.01H60a5,5,0,1,1,0-10H83a5,5,0,0,0,0-10H25a5,5,0,0,1,0-10H37.522l0-.008H40a5,5,0,1,0,0-10h0c-0.016,0-.03.006-0.046,0.006H5a5,5,0,0,1,0-10H105a5,5,0,0,1,0,10H60a5,5,0,0,0,0,10h85a5,5,0,1,1,0,10H103a5,5,0,0,0,0,10h57a5,5,0,1,1,0,10H97a5,5,0,1,0,0,10h58a5,5,0,0,1,0,10H123a5,5,0,1,0,0,10h42a5,5,0,1,1,0,10l-24,0a5,5,0,0,0,0,10h19a5,5,0,1,1,0,10H5a5,5,0,1,1,0-10H121a5,5,0,0,0,0-10l-80,0a5,5,0,1,1,0-10h62a5,5,0,1,0,0-10H20a5,5,0,0,1,0-10H77A5,5,0,1,0,77,50.01ZM0,45a5,5,0,0,1,5-5H40a5,5,0,0,1,0,10H5A5,5,0,0,1,0,45ZM120,5a5,5,0,0,1,5-5h40a5,5,0,1,1,0,10H125A5,5,0,0,1,120,5Z"/>
</svg>
