<svg version="1.1" id="Layer_1" xmlns="http://www.w3.org/2000/svg" xmlns:xlink="http://www.w3.org/1999/xlink" x="0px" y="0px"
	 viewBox="0 0 40 40" enable-background="new 0 0 40 40" xml:space="preserve" width="17px" height="17px">
<g>
	<g>
		<path fill-rule="evenodd" clip-rule="evenodd" fill="#d0cee1" d="M20,0C9,0,0,9,0,20c0,11,9,20,20,20s20-9,20-20C40,9,31,0,20,0z
			 M27.1,20.9h-6.3v6.2c0,0.5-0.4,0.9-0.9,0.9c-0.5,0-0.9-0.4-0.9-0.9v-6.2h-6.2c-0.5,0-0.9-0.4-0.9-0.9c0-0.5,0.4-0.9,0.9-0.9h6.2
			v-6.3c0-0.5,0.4-0.9,0.9-0.9c0.5,0,0.9,0.4,0.9,0.9v6.3h6.3c0.5,0,0.9,0.4,0.9,0.9C28,20.5,27.6,20.9,27.1,20.9z"/>
	</g>
</g>
</svg>
