<?xml version="1.0" encoding="utf-8"?>
<!-- Generator: Adobe Illustrator 18.1.0, SVG Export Plug-In . SVG Version: 6.00 Build 0)  -->
<!DOCTYPE svg PUBLIC "-//W3C//DTD SVG 1.1//EN" "http://www.w3.org/Graphics/SVG/1.1/DTD/svg11.dtd">
<svg version="1.1" id="Layer_1" xmlns="http://www.w3.org/2000/svg" xmlns:xlink="http://www.w3.org/1999/xlink" x="0px" y="0px"
	 viewBox="0 0 16 16" enable-background="new 0 0 16 16" xml:space="preserve">
<path fill-rule="evenodd" clip-rule="evenodd" fill="#1D1D1B" d="M8,16c-4.4,0-8-3.6-8-8l0,0V6l4,4H2.4c0.7,2,2.5,3.5,4.6,3.9V9H6
	C5.4,9,5,8.6,5,8c0-0.6,0.4-1,1-1h1V5.8C5.8,5.4,5,4.3,5,3c0-1.5,1.1-2.8,2.6-3C7.7,0,7.9,0,8,0c0.1,0,0.3,0,0.4,0
	C9.9,0.2,11,1.5,11,3c0,1.3-0.8,2.4-2,2.8V7h1c0.6,0,1,0.4,1,1c0,0.6-0.4,1-1,1H9v4.9c2.2-0.4,3.9-1.9,4.6-3.9H12l4-4v2l0,0
	C16,12.4,12.4,16,8,16z M8,2C7.4,2,7,2.4,7,3c0,0.6,0.4,1,1,1c0.6,0,1-0.4,1-1C9,2.4,8.6,2,8,2z"/>
</svg>
