<?xml version="1.0" encoding="utf-8"?>
<!-- Generator: Adobe Illustrator 18.1.0, SVG Export Plug-In . SVG Version: 6.00 Build 0)  -->
<!DOCTYPE svg PUBLIC "-//W3C//DTD SVG 1.1//EN" "http://www.w3.org/Graphics/SVG/1.1/DTD/svg11.dtd">
<svg version="1.1" id="Layer_1" xmlns="http://www.w3.org/2000/svg" xmlns:xlink="http://www.w3.org/1999/xlink" x="0px" y="0px"
	 viewBox="0 0 60 60" enable-background="new 0 0 60 60" xml:space="preserve">
<g>
	<g>
		<path fill-rule="evenodd" clip-rule="evenodd" fill="#1D1D1B" d="M23,34v2c0,0.6,1.4,1,2,1h10c0.6,0,2-0.4,2-1v-2
			c-1.3-1.2-3.8-2-7-2C26.8,32,24.3,32.8,23,34z M30,30c1.7,0,3-1.8,3-4c0-2.2-1.3-4-3-4c-1.7,0-3,1.8-3,4C27,28.2,28.3,30,30,30z
			 M30,0C13.4,0,0,13.4,0,30s13.4,30,30,30c16.6,0,30-13.4,30-30S46.6,0,30,0z M39,36c0,1.1-1.9,3-3,3H24c-1.1,0-3-1.9-3-3v-2
			c0,0,0.4-2.6,5.6-3.7c-1-1.1-1.6-2.6-1.6-4.3c0-3.3,2.2-6,5-6c2.8,0,5,2.7,5,6c0,1.7-0.6,3.2-1.6,4.3c5.1,1,5.6,3.7,5.6,3.7V36z"
			/>
	</g>
</g>
</svg>
