<?xml version="1.0" encoding="utf-8"?>
<!-- Generator: Adobe Illustrator 18.1.0, SVG Export Plug-In . SVG Version: 6.00 Build 0)  -->
<!DOCTYPE svg PUBLIC "-//W3C//DTD SVG 1.1//EN" "http://www.w3.org/Graphics/SVG/1.1/DTD/svg11.dtd">
<svg version="1.1" id="Layer_1" xmlns="http://www.w3.org/2000/svg" xmlns:xlink="http://www.w3.org/1999/xlink" x="0px" y="0px"
	 viewBox="0 0 40 40" enable-background="new 0 0 40 40" xml:space="preserve">
<g>
	<g>
		<path fill="#D0CEE1" d="M20,0C9,0,0,9,0,20c0,11,9,20,20,20s20-9,20-20C40,9,31,0,20,0z M20,8c1.7,0,3,1.3,3,2.9
			c0,1.6-1.3,2.9-3,2.9c-1.7,0-3-1.3-3-2.9C17,9.3,18.3,8,20,8z M29.8,24.8c-0.2,0.3-0.5,0.4-0.8,0.4c-0.2,0-0.4-0.1-0.6-0.2
			l-3.5-2.4c-0.2-0.1-0.3-0.3-0.4-0.5l0,0l-1-2.3L23,23.3c0.2,0.1,1.7,1,3.3,2c0.9,0.6,1.7,1,1.7,2.3c0,1.3-1.7,1.4-2.6,1.4h-7.2
			c-0.4,0-1-0.4-1-1c0-0.8,1-0.9,2.2-1.1c2-0.3,4.2-0.6,4.2-0.6l-3.1-1c0,0,0.1-0.1-1.3,0.4c-1.8,0.6-3.2,1-3.2,2.1
			c0,1,0.8,1.1,0.8,1.1s-2,0-2.8,0c-1.2,0-2-0.6-2-1.4c0-1,0.8-1.5,1.9-2.4c1-0.7,2.9-1.8,3.1-1.9l-0.5-3.6l-1,2.3l0,0
			c-0.1,0.2-0.2,0.4-0.4,0.5L11.6,25c-0.2,0.1-0.4,0.2-0.6,0.2c-0.3,0-0.6-0.1-0.8-0.4c-0.3-0.4-0.2-1,0.2-1.3l3.2-2.2l1.4-4.9
			c0.1-0.3,0.4-0.5,0.7-0.6l0-0.1c0,0,2.3-1,4.3-1c2,0,4.3,1,4.3,1l0,0.1c0.3,0.1,0.6,0.3,0.7,0.6l1.4,4.9l3.2,2.2
			C30,23.8,30.1,24.4,29.8,24.8z"/>
	</g>
</g>
</svg>
