<?xml version="1.0" encoding="utf-8"?>
<!-- Generator: Adobe Illustrator 18.1.0, SVG Export Plug-In . SVG Version: 6.00 Build 0)  -->
<!DOCTYPE svg PUBLIC "-//W3C//DTD SVG 1.1//EN" "http://www.w3.org/Graphics/SVG/1.1/DTD/svg11.dtd">
<svg version="1.1" id="Layer_1" xmlns="http://www.w3.org/2000/svg" xmlns:xlink="http://www.w3.org/1999/xlink" x="0px" y="0px"
	 viewBox="0 0 16 16" enable-background="new 0 0 16 16" xml:space="preserve">
<path fill="#7090c7" fill-rule="evenodd" clip-rule="evenodd" fill="#7090c7" d="M75,5c-8.3,0-15,6.7-15,15s6.7,15,15,15s15-6.7,15-15S83.3,5,75,5z M73,24h-2v-2
			h2V24z M73,21h-2v-2h2V21z M73,18h-2v-2h2V18z M76,24h-2v-2h2V24z M76,21h-2v-2h2V21z M76,18h-2v-2h2V18z M79,24h-2v-2h2V24z
			 M79,21h-2v-2h2V21z M79,18h-2v-2h2V18z"/>
</svg>
