<?xml version="1.0" encoding="utf-8"?>
<!-- Generator: Adobe Illustrator 18.1.1, SVG Export Plug-In . SVG Version: 6.00 Build 0)  -->
<svg version="1.1" id="Layer_1" xmlns="http://www.w3.org/2000/svg" xmlns:xlink="http://www.w3.org/1999/xlink" x="0px" y="0px"
	 viewBox="76.5 0 459 459" enable-background="new 76.5 0 459 459" xml:space="preserve">
<g>
	<g>
		<path fill="#7090c7" d="M306,0C179,0,76.5,102.5,76.5,229.5S179,459,306,459s229.5-102.5,229.5-229.5S433,0,306,0z M275.4,290.7h-30.6v-30.6h30.6
			V290.7z M275.4,244.8h-30.6v-30.6h30.6V244.8z M275.4,198.9h-30.6v-30.6h30.6V198.9z M321.3,290.7h-30.6v-30.6h30.6V290.7z
			 M321.3,244.8h-30.6v-30.6h30.6V244.8z M321.3,198.9h-30.6v-30.6h30.6V198.9z M367.2,290.7h-30.6v-30.6h30.6V290.7z M367.2,244.8
			h-30.6v-30.6h30.6V244.8z M367.2,198.9h-30.6v-30.6h30.6V198.9z"/>
	</g>
</g>
</svg>
