<?xml version="1.0" encoding="utf-8"?>
<!-- Generator: Adobe Illustrator 18.1.0, SVG Export Plug-In . SVG Version: 6.00 Build 0)  -->
<!DOCTYPE svg PUBLIC "-//W3C//DTD SVG 1.1//EN" "http://www.w3.org/Graphics/SVG/1.1/DTD/svg11.dtd">
<svg version="1.1" id="Layer_1" xmlns="http://www.w3.org/2000/svg" xmlns:xlink="http://www.w3.org/1999/xlink" x="0px" y="0px"
	 viewBox="0 0 40 40" enable-background="new 0 0 40 40" xml:space="preserve">
<g>
	<g>
		<path fill-rule="evenodd" clip-rule="evenodd" fill="#1D1D1B" d="M14,26c0,0.6,0.4,1,1,1h10c0.6,0,1-0.4,1-1v-9H14V26z M17,21h2
			v-2c0-0.6,0.4-1,1-1s1,0.4,1,1v2h2c0.6,0,1,0.4,1,1s-0.4,1-1,1h-2v2c0,0.6-0.4,1-1,1s-1-0.4-1-1v-2h-2c-0.6,0-1-0.4-1-1
			S16.4,21,17,21z M20,0C9,0,0,9,0,20c0,11,9,20,20,20s20-9,20-20C40,9,31,0,20,0z M24,12h1v1.5c0,0.3-0.2,0.5-0.5,0.5
			c-0.3,0-0.5-0.2-0.5-0.5V12z M15,12h1v1.5c0,0.3-0.2,0.5-0.5,0.5c-0.3,0-0.5-0.2-0.5-0.5V12z M28,26c0,1.7-1.3,3-3,3H15
			c-1.7,0-3-1.3-3-3V15c0-1.3,0.8-2.4,2-2.8v1.3c0,0.8,0.7,1.5,1.5,1.5s1.5-0.7,1.5-1.5V12h6v1.5c0,0.8,0.7,1.5,1.5,1.5
			s1.5-0.7,1.5-1.5v-1.3c1.2,0.4,2,1.5,2,2.8V26z"/>
	</g>
</g>
</svg>
