<?xml version="1.0" encoding="utf-8"?>
<!-- Generator: Adobe Illustrator 18.1.0, SVG Export Plug-In . SVG Version: 6.00 Build 0)  -->
<!DOCTYPE svg PUBLIC "-//W3C//DTD SVG 1.1//EN" "http://www.w3.org/Graphics/SVG/1.1/DTD/svg11.dtd">
<svg version="1.1" id="Layer_1" xmlns="http://www.w3.org/2000/svg" xmlns:xlink="http://www.w3.org/1999/xlink" x="0px" y="0px"
	 viewBox="0 0 310 40" enable-background="new 0 0 310 40" xml:space="preserve">
<g>
	<g>
		<path fill-rule="evenodd" clip-rule="evenodd" d="M15,5C6.7,5,0,11.7,0,20c0,8.3,6.7,15,15,15s15-6.7,15-15C30,11.7,23.3,5,15,5z
			 M15,11c2.8,0,5,2.2,5,5s-2.2,5-5,5s-5-2.2-5-5S12.2,11,15,11z M15,29c-3.1,0-8-2.4-8-4c0-1.6,4.1-2.8,8-2.8c3.9,0,8,1.2,8,2.8
			C23,26.6,18,29,15,29z"/>
	</g>
</g>
<g>
	<g>
		<path fill-rule="evenodd" clip-rule="evenodd" d="M45,5c-8.3,0-15,6.7-15,15c0,8.3,6.7,15,15,15c8.3,0,15-6.7,15-15
			C60,11.7,53.3,5,45,5z M39,22c-1.1,0-2-0.9-2-2c0-1.1,0.9-2,2-2c1.1,0,2,0.9,2,2C41,21.1,40.1,22,39,22z M45,22c-1.1,0-2-0.9-2-2
			c0-1.1,0.9-2,2-2c1.1,0,2,0.9,2,2C47,21.1,46.1,22,45,22z M51,22c-1.1,0-2-0.9-2-2c0-1.1,0.9-2,2-2c1.1,0,2,0.9,2,2
			C53,21.1,52.1,22,51,22z"/>
	</g>
</g>
<g>
	<g>
		<path fill-rule="evenodd" clip-rule="evenodd" d="M75,5c-8.3,0-15,6.7-15,15s6.7,15,15,15s15-6.7,15-15S83.3,5,75,5z M73,24h-2v-2
			h2V24z M73,21h-2v-2h2V21z M73,18h-2v-2h2V18z M76,24h-2v-2h2V24z M76,21h-2v-2h2V21z M76,18h-2v-2h2V18z M79,24h-2v-2h2V24z
			 M79,21h-2v-2h2V21z M79,18h-2v-2h2V18z"/>
	</g>
</g>
<g>
	<g>
		<path fill-rule="evenodd" clip-rule="evenodd" d="M105,5c-8.3,0-15,6.7-15,15c0,8.3,6.7,15,15,15c8.3,0,15-6.7,15-15
			C120,11.7,113.3,5,105,5z M110,20v5c0,0.6-0.4,1-1,1h-2v-5c0-0.6-0.4-1-1-1h-2c-0.6,0-1,0.4-1,1v5h-2c-0.6,0-1-0.4-1-1v-5h-2l7-8
			l7,8H110z"/>
	</g>
</g>
<g>
	<g>
		<path fill-rule="evenodd" clip-rule="evenodd" d="M135,5c-8.3,0-15,6.7-15,15c0,8.3,6.7,15,15,15s15-6.7,15-15
			C150,11.7,143.3,5,135,5z M141,21h-8.3l1.4,1.4c0.2,0.2,0.2,0.5,0,0.7l-0.7,0.7c-0.2,0.2-0.5,0.2-0.7,0l-2.8-2.8l-0.7-0.7
			c-0.2-0.2-0.2-0.5,0-0.7l0.7-0.7l2.8-2.8c0.2-0.2,0.5-0.2,0.7,0l0.7,0.7c0.2,0.2,0.2,0.5,0,0.7l-1.4,1.4c9.3,0,8.4,0.1,8.4,0.1
			c0.6,0,1,0.4,1,1C142,20.6,141.6,21,141,21z"/>
	</g>
</g>
<g>
	<g>
		<path fill-rule="evenodd" clip-rule="evenodd" d="M165,5c-8.3,0-15,6.7-15,15c0,8.3,6.7,15,15,15c8.3,0,15-6.7,15-15
			C180,11.7,173.3,5,165,5z M170.9,20.3l-0.7,0.7l-2.8,2.8c-0.2,0.2-0.5,0.2-0.7,0l-0.7-0.7c-0.2-0.2-0.2-0.5,0-0.7l1.4-1.4l-8.3,0
			c-0.6,0-1-0.4-1-1s0.4-1,1-1c0,0-0.9-0.1,8.4-0.1l-1.4-1.4c-0.2-0.2-0.2-0.5,0-0.7l0.7-0.7c0.2-0.2,0.5-0.2,0.7,0l2.8,2.8l0.7,0.7
			C171.1,19.8,171.1,20.1,170.9,20.3z"/>
	</g>
</g>
<g>
	<g>
		<path fill-rule="evenodd" clip-rule="evenodd" d="M180,10v20h60V10H180z M204,22c-1.1,0-2-0.9-2-2c0-1.1,0.9-2,2-2
			c1.1,0,2,0.9,2,2C206,21.1,205.1,22,204,22z M210,22c-1.1,0-2-0.9-2-2c0-1.1,0.9-2,2-2c1.1,0,2,0.9,2,2C212,21.1,211.1,22,210,22z
			 M216,22c-1.1,0-2-0.9-2-2c0-1.1,0.9-2,2-2c1.1,0,2,0.9,2,2C218,21.1,217.1,22,216,22z"/>
	</g>
</g>
<g>
	<g>
		<path fill-rule="evenodd" clip-rule="evenodd" d="M255,4.9c-8.3,0-15,6.7-15,15c0,8.3,6.7,15,15,15s15-6.7,15-15
			C270,11.6,263.3,4.9,255,4.9z M255,27.9c-4.4,0-8-3.6-8-8c0-4.4,3.6-8,8-8c4.4,0,8,3.6,8,8C263,24.4,259.4,27.9,255,27.9z
			 M255,13.9c-3.3,0-6,2.7-6,6c0,3.3,2.7,6,6,6c3.3,0,6-2.7,6-6C261,16.6,258.3,13.9,255,13.9z M258,20.9h-3c-0.6,0-1-0.4-1-1v-3
			c0-0.6,0.4-1,1-1c0.6,0,1,0.4,1,1v2h2c0.6,0,1,0.4,1,1C259,20.5,258.6,20.9,258,20.9z"/>
	</g>
</g>
<g>
	<g>
		<path d="M290-0.1c-11,0-20,9-20,20c0,11,9,20,20,20c11,0,20-9,20-20C310,8.9,301-0.1,290-0.1z M296.4,24.9l-1.4,1.4l-4.9-4.9
			l-4.9,4.9l-1.4-1.4l4.9-4.9l-4.9-4.9l1.4-1.4l4.9,4.9l4.9-4.9l1.4,1.4l-4.9,4.9L296.4,24.9z"/>
	</g>
</g>
</svg>
