<?xml version="1.0" encoding="utf-8"?>
<!-- Generator: Adobe Illustrator 18.1.0, SVG Export Plug-In . SVG Version: 6.00 Build 0)  -->
<!DOCTYPE svg PUBLIC "-//W3C//DTD SVG 1.1//EN" "http://www.w3.org/Graphics/SVG/1.1/DTD/svg11.dtd">
<svg version="1.1" id="Layer_1" xmlns="http://www.w3.org/2000/svg" xmlns:xlink="http://www.w3.org/1999/xlink" x="0px" y="0px"
	 viewBox="0 0 16 16" enable-background="new 0 0 16 16" xml:space="preserve">
<path fill-rule="evenodd" clip-rule="evenodd" fill="#1D1D1B" d="M11,16H5c-1.7,0-3-1.3-3-3l0,0c0.3-1.8,1.5-3.4,3.1-4.2
	C4.4,8,4,7.1,4,6V4c0-2.2,1.8-4,4-4c2.2,0,4,1.8,4,4v2c0,1.1-0.4,2-1.1,2.8c1.6,0.9,2.8,2.4,3.1,4.2l0,0C14,14.7,12.7,16,11,16z
	 M10,6V4c0-1.1-0.9-2-2-2S6,2.9,6,4v2c0,1.1,0.9,2,2,2S10,7.1,10,6z M12,13c-0.4-1.7-2.1-3-4-3l0,0l0,0c-1.9,0-3.6,1.3-4,3l0,0
	c0,0.6,0.4,1,1,1h6C11.6,14,12,13.6,12,13L12,13z"/>
</svg>
