<?xml version="1.0" encoding="utf-8"?>
<!-- Generator: Adobe Illustrator 18.1.0, SVG Export Plug-In . SVG Version: 6.00 Build 0)  -->
<!DOCTYPE svg PUBLIC "-//W3C//DTD SVG 1.1//EN" "http://www.w3.org/Graphics/SVG/1.1/DTD/svg11.dtd">
<svg version="1.1" id="Layer_1" xmlns="http://www.w3.org/2000/svg" xmlns:xlink="http://www.w3.org/1999/xlink" x="0px" y="0px"
	 viewBox="0 0 40 40" enable-background="new 0 0 40 40" xml:space="preserve">
<g>
	<g>
		<path fill="#1D1D1B" d="M20,0C9,0,0,9,0,20c0,11,9,20,20,20s20-9,20-20C40,9,31,0,20,0z M11.7,11.7c1-1,2.7-1,3.7,0l-3.7,3.8
			C10.7,14.5,10.7,12.8,11.7,11.7z M20,28c-4.4,0-7.9-3.6-7.9-7.9c0-4.4,3.5-8,7.9-8c4.4,0,7.9,3.6,7.9,8C27.9,24.4,24.3,28,20,28z
			 M28.2,15.5l-3.7-3.8c1-1,2.7-1,3.7,0C29.3,12.8,29.3,14.5,28.2,15.5z M20,13.6c-3.5,0-6.4,2.9-6.4,6.5c0,3.6,2.9,6.5,6.4,6.5
			c3.5,0,6.4-2.9,6.4-6.5C26.4,16.5,23.5,13.6,20,13.6z M21.4,22.3l-1.7-1.7l-0.2-0.2L19.4,20l-0.9-3.6l1.1-0.3l0.9,3.6l1.7,1.7
			L21.4,22.3z"/>
	</g>
</g>
</svg>
