<?xml version="1.0" encoding="utf-8"?>
<!-- Generator: Adobe Illustrator 18.1.0, SVG Export Plug-In . SVG Version: 6.00 Build 0)  -->
<!DOCTYPE svg PUBLIC "-//W3C//DTD SVG 1.1//EN" "http://www.w3.org/Graphics/SVG/1.1/DTD/svg11.dtd">
<svg version="1.1" id="Layer_1" xmlns="http://www.w3.org/2000/svg" xmlns:xlink="http://www.w3.org/1999/xlink" x="0px" y="0px"
	 viewBox="0 0 30 30" enable-background="new 0 0 30 30" xml:space="preserve">
<g>
	<g>
		<path fill-rule="evenodd" clip-rule="evenodd" fill="#7090C7" d="M15,0C6.7,0,0,6.7,0,15s6.7,15,15,15s15-6.7,15-15S23.3,0,15,0z M13,19h-2v-2h2
			V19z M13,16h-2v-2h2V16z M13,13h-2v-2h2V13z M16,19h-2v-2h2V19z M16,16h-2v-2h2V16z M16,13h-2v-2h2V13z M19,19h-2v-2h2V19z M19,16
			h-2v-2h2V16z M19,13h-2v-2h2V13z"/>
	</g>
</g>
</svg>
