<?xml version="1.0" encoding="utf-8"?>
<!-- Generator: Adobe Illustrator 18.1.0, SVG Export Plug-In . SVG Version: 6.00 Build 0)  -->
<!DOCTYPE svg PUBLIC "-//W3C//DTD SVG 1.1//EN" "http://www.w3.org/Graphics/SVG/1.1/DTD/svg11.dtd">
<svg version="1.1" id="Layer_1" xmlns="http://www.w3.org/2000/svg" xmlns:xlink="http://www.w3.org/1999/xlink" x="0px" y="0px"
	 viewBox="0 0 64 64" enable-background="new 0 0 64 64" xml:space="preserve">
<g>
	<g>
		<path fill="#3eaf71" d="M26.4,38.3L20,32l-4,4l10.4,10L48,22l-4-4L26.4,38.3z M32,0C14.3,0,0,14.3,0,32c0,17.7,14.3,32,32,32
			c17.7,0,32-14.3,32-32C64,14.3,49.7,0,32,0z M32,59C17.1,59,5,46.9,5,32C5,17.1,17.1,5,32,5c14.9,0,27,12.1,27,27
			C59,46.9,46.9,59,32,59z"/>
	</g>
</g>
</svg>
