<?xml version="1.0" encoding="utf-8"?>
<!-- Generator: Adobe Illustrator 18.1.0, SVG Export Plug-In . SVG Version: 6.00 Build 0)  -->
<!DOCTYPE svg PUBLIC "-//W3C//DTD SVG 1.1//EN" "http://www.w3.org/Graphics/SVG/1.1/DTD/svg11.dtd">
<svg version="1.1" id="Layer_1" xmlns="http://www.w3.org/2000/svg" xmlns:xlink="http://www.w3.org/1999/xlink" x="0px" y="0px"
	 viewBox="0 0 6 22" enable-background="new 0 0 6 22" xml:space="preserve" width="6px" height="22px">
<g>
	<g>
		<path fill="#D0CEE1" d="M0,2h2V0H0V2z M0,6h2V4H0V6z M0,10h2V8H0V10z M4,0v2h2V0H4z M4,6h2V4H4V6z M4,10
			h2V8H4V10z M0,14h2v-2H0V14z M0,18h2v-2H0V18z M0,22h2v-2H0V22z M4,14h2v-2H4V14z M4,18h2v-2H4V18z M4,22h2v-2H4V22z"/>
	</g>
</g>
</svg>