<?xml version="1.0" encoding="utf-8"?>
<!-- Generator: Adobe Illustrator 18.1.0, SVG Export Plug-In . SVG Version: 6.00 Build 0)  -->
<!DOCTYPE svg PUBLIC "-//W3C//DTD SVG 1.1//EN" "http://www.w3.org/Graphics/SVG/1.1/DTD/svg11.dtd">
<svg version="1.1" id="Layer_1" xmlns="http://www.w3.org/2000/svg" xmlns:xlink="http://www.w3.org/1999/xlink" x="0px" y="0px"
	 viewBox="0 0 40 40" enable-background="new 0 0 40 40" xml:space="preserve">
<g>
	<g>
		<path fill="#D0CEE1" d="M20,0C9,0,0,9,0,20c0,11,9,20,20,20s20-9,20-20C40,9,31,0,20,0z M20.4,32c0,0-0.9-9.7-3-11.9
			c3.4,1.7,4.7,10.1,4.7,10.1L20.4,32z M22.2,26.6c0.8-3.1-1.6-9.2-7.4-8.3c2.1,3.2,0.5,8,3.4,9.4c-8.5-0.2-5-12.6-10.2-13.4
			c8-3.7,14,0.7,15.5,5.5c0.4-0.8,0.9-1.6,1.6-1.9c-0.6,0.6-1,2.1-1.3,3.5C24,23.4,23.5,25.2,22.2,26.6z M24,25.7L24,25.7
			c2.8-1.9,1.4-7.8,3.2-9.2c-1.4,0.1-2.6,0.5-3.7,1.1c-0.5-0.8-1-1.6-1.7-2.2c2.1-2,5.4-2.9,9.2-1.2C28.5,16.3,29.9,25.8,24,25.7z"
			/>
	</g>
</g>
</svg>
