<?xml version="1.0" encoding="utf-8"?>
<!-- Generator: Adobe Illustrator 18.1.0, SVG Export Plug-In . SVG Version: 6.00 Build 0)  -->
<!DOCTYPE svg PUBLIC "-//W3C//DTD SVG 1.1//EN" "http://www.w3.org/Graphics/SVG/1.1/DTD/svg11.dtd">
<svg version="1.1" id="Layer_1" xmlns="http://www.w3.org/2000/svg" xmlns:xlink="http://www.w3.org/1999/xlink" x="0px" y="0px"
	 viewBox="0 0 40 40" enable-background="new 0 0 40 40" xml:space="preserve">
<g>
	<g>
		<path fill="#D0CEE1" d="M20,19.7c2.7,0,5-2.1,5-4.7c0-2.6-2.2-4.7-5-4.7c-2.7,0-5,2.1-5,4.7C15,17.6,17.3,19.7,20,19.7z
			 M22.7,12.7c-0.2,0.6-0.4,1.2-0.7,1.7c-0.2,0.3-0.7,0-0.5-0.3c0.3-0.5,0.5-1,0.7-1.6C22.3,12.3,22.8,12.4,22.7,12.7z M20.7,13.3
			c0.3-0.3,0.5-0.7,0.7-1.1c0.1-0.3,0.6,0,0.5,0.3c-0.2,0.5-0.5,0.9-0.8,1.3C20.9,14,20.5,13.6,20.7,13.3z M20,23.2
			c-3.2,0-5.9,1.6-5.9,3.6c0,2,2.6,2.8,5.9,2.8c3.2,0,5.9-0.8,5.9-2.8C25.9,24.8,23.2,23.2,20,23.2z M20,28.8c-1.2,0-5.1-0.1-5.1-2
			c0-1.5,2.3-2.8,5.1-2.8s5.1,1.3,5.1,2.8C25.1,28.7,21.2,28.8,20,28.8z M20,0C9,0,0,9,0,20c0,11,9,20,20,20s20-9,20-20
			C40,9,31,0,20,0z M20,9c3.5,0,6.4,2.7,6.4,6c0,2.8-2.1,5.2-4.8,5.8c-0.5,0.1-0.9,0.2-1.4,0.2c0,0-0.1,0-0.1,0c0,0-0.1,0-0.1,0
			c-0.5,0-1-0.1-1.4-0.2c-2.8-0.6-4.8-3-4.8-5.8C13.6,11.7,16.5,9,20,9z M22.1,21.7c0,0.2-0.1,0.4-0.3,0.5c-0.6-0.1-1.1-0.1-1.7-0.1
			c-0.6,0-1.2,0-1.7,0.1C18.1,22.1,18,22,18,21.7c0-0.3,0.2-0.5,0.5-0.5c0.5,0.1,1,0.2,1.6,0.2c0.5,0,1.1-0.1,1.6-0.2
			C21.8,21.2,22.1,21.5,22.1,21.7z M20,31c-3.9,0-7-1.9-7-4.3c0-2,2.2-3.7,5.3-4.1c0.5-0.1,1-0.1,1.6-0.1c0.1,0,0.1,0,0.2,0
			c0.1,0,0.1,0,0.2,0c0.5,0,1.1,0.1,1.6,0.1c3,0.5,5.3,2.1,5.3,4.1C27,29.1,23.9,31,20,31z"/>
	</g>
</g>
</svg>
