<?xml version="1.0" encoding="utf-8"?>
<!-- Generated by IcoMoon.io -->
<!DOCTYPE svg PUBLIC "-//W3C//DTD SVG 1.1//EN" "http://www.w3.org/Graphics/SVG/1.1/DTD/svg11.dtd">

<svg version="1.1" xmlns="http://www.w3.org/2000/svg" xmlns:xlink="http://www.w3.org/1999/xlink" width="61" height="61" viewBox="0 0 61 61">
<g transform="translate(0 0)">
	<path fill="#d0cee1" d="M15 30c-8.28 0-15-6.72-15-15s6.72-15 15-15c8.28 0 15 6.72 15 15s-6.72 15-15 15zM20.34 14c0 0-4.34 0-4.34 0s0-4.34 0-4.34c0-0.37-0.45-0.66-1-0.66s-1 0.29-1 0.66c0 0 0 4.34 0 4.34s-4.34 0-4.34 0c-0.37 0-0.66 0.45-0.66 1s0.29 1 0.66 1c0 0 4.34 0 4.34 0s0 4.34 0 4.34c0 0.37 0.45 0.66 1 0.66s1-0.29 1-0.66c0 0 0-4.34 0-4.34s4.34 0 4.34 0c0.37 0 0.66-0.45 0.66-1s-0.29-1-0.66-1z"></path>
</g>
<g transform="translate(31 0)">
	<path fill="#3eaf71" d="M15 30c-8.28 0-15-6.72-15-15s6.72-15 15-15c8.28 0 15 6.72 15 15s-6.72 15-15 15zM20.34 14c0 0-10.68 0-10.68 0-0.37 0-0.66 0.45-0.66 1s0.29 1 0.66 1c0 0 10.68 0 10.68 0 0.37 0 0.66-0.45 0.66-1s-0.29-1-0.66-1z"></path>
</g>

</svg>
