<?xml version="1.0" encoding="utf-8"?>
<!-- Generator: Adobe Illustrator 18.1.0, SVG Export Plug-In . SVG Version: 6.00 Build 0)  -->
<!DOCTYPE svg PUBLIC "-//W3C//DTD SVG 1.1//EN" "http://www.w3.org/Graphics/SVG/1.1/DTD/svg11.dtd">
<svg version="1.1" id="Layer_1" xmlns="http://www.w3.org/2000/svg" xmlns:xlink="http://www.w3.org/1999/xlink" x="0px" y="0px"
	 viewBox="0 0 16 16" enable-background="new 0 0 16 16" xml:space="preserve">
<path fill-rule="evenodd" clip-rule="evenodd" fill="#1D1D1B" d="M10.5,16C8,16,6,14,6,11.5C6,9,8,7,10.5,7C13,7,15,9,15,11.5
	C15,14,13,16,10.5,16z M10.5,9C9.1,9,8,10.1,8,11.5c0,1.4,1.1,2.5,2.5,2.5c1.4,0,2.5-1.1,2.5-2.5C13,10.1,11.9,9,10.5,9z M13,5.3
	v1.3c-0.1-0.1-0.3-0.2-0.5-0.2C12.8,6.1,13,5.7,13,5.3z M11.3,6.1C11,6,10.8,6,10.5,6C9.3,6,8.3,6.4,7.4,7C7.2,7,7.1,7,7,7
	C3.7,7,1,5.7,1,4V3c0-1.7,2.7-3,6-3c3.3,0,6,1.3,6,3v1C13,4.8,12.4,5.5,11.3,6.1z M6.3,8c-0.5,0.5-0.8,1.2-1,1.9C2.8,9.5,1,8.4,1,7
	V5.3C1,6.9,3.3,7.8,6.3,8z M5.1,10.9C5,11.1,5,11.3,5,11.5c0,0.5,0.1,0.9,0.2,1.3C2.8,12.5,1,11.3,1,10V8.3C1,9.6,2.7,10.5,5.1,10.9
	z M5.6,13.9c0.4,0.8,1,1.5,1.7,2.1c-0.1,0-0.2,0-0.3,0c-3.3,0-6-1.3-6-3v-1.7C1,12.7,3,13.7,5.6,13.9z"/>
</svg>
