<?xml version="1.0" encoding="utf-8"?>
<!-- Generator: Adobe Illustrator 18.1.0, SVG Export Plug-In . SVG Version: 6.00 Build 0)  -->
<!DOCTYPE svg PUBLIC "-//W3C//DTD SVG 1.1//EN" "http://www.w3.org/Graphics/SVG/1.1/DTD/svg11.dtd">
<svg version="1.1" id="Layer_1" xmlns="http://www.w3.org/2000/svg" xmlns:xlink="http://www.w3.org/1999/xlink" x="0px" y="0px"
	 viewBox="0 0 40 40" enable-background="new 0 0 40 40" xml:space="preserve">
<g>
	<g>
		<path fill="#D0CEE1" d="M20,0C9,0,0,9,0,20c0,11,9,20,20,20s20-9,20-20C40,9,31,0,20,0z M23.4,32c-0.6-2.1-2.8-4.6-3.5-5.4
			c-0.7-0.8,0.3-2.4,1.5-2.9c0.6-0.3,3.9,0.6,4.5-0.2c0.7-0.8-0.2-1.9-0.2-2c0.2-0.1,0.8,0,0.8-0.4c0.1-0.5-0.4-0.6-0.4-0.6
			s0.5-0.2,0.5-0.6c0-0.3-0.5-0.5-0.5-0.8c0-0.7,0.7-0.6,0.8-1.1c0-0.5-1.8-2.1-2-2.6c-0.2-0.5,0.3-2-0.4-2.2
			c-0.7-0.2-0.7,0.8-1,1.1c-0.3,0.3-1.5,0.8-1.7,1c-0.3,0.2-0.5,1.6,0.4,1.5c-0.6,0.6-0.9,0-1.1-0.1c-0.2-0.1-0.8,1.1-0.9,1.6
			c0,0.5,0.3,1.3,1.1,0.6c0.3,1.4-2.2,1.2-2.4,1.3c-0.1,0.1-1.9,4.5-2.6,4.3c-5.2-1-9-12-1-16.6c8.2-3.1,13.2,3.3,13.7,7.3
			C32,33,19.5,42,23.4,32z"/>
	</g>
</g>
</svg>
