<?xml version="1.0" encoding="utf-8"?>
<!-- Generator: Adobe Illustrator 18.1.0, SVG Export Plug-In . SVG Version: 6.00 Build 0)  -->
<!DOCTYPE svg PUBLIC "-//W3C//DTD SVG 1.1//EN" "http://www.w3.org/Graphics/SVG/1.1/DTD/svg11.dtd">
<svg version="1.1" id="Layer_1" xmlns="http://www.w3.org/2000/svg" xmlns:xlink="http://www.w3.org/1999/xlink" x="0px" y="0px"
	 viewBox="0 0 16 16" enable-background="new 0 0 16 16" xml:space="preserve">
<path fill-rule="evenodd" clip-rule="evenodd" fill="#1D1D1B" d="M15.6,15H6.4C6.2,15,6,14.8,6,14.5v-1C6,13.2,6.2,13,6.4,13h9.2
	c0.2,0,0.4,0.2,0.4,0.5v1C16,14.8,15.8,15,15.6,15z M15.6,9H6.4C6.2,9,6,8.8,6,8.5v-1C6,7.2,6.2,7,6.4,7h9.2C15.8,7,16,7.2,16,7.5v1
	C16,8.8,15.8,9,15.6,9z M15.6,3H6.4C6.2,3,6,2.8,6,2.5v-1C6,1.2,6.2,1,6.4,1h9.2C15.8,1,16,1.2,16,1.5v1C16,2.8,15.8,3,15.6,3z
	 M2,16c-1.1,0-2-0.9-2-2c0-1.1,0.9-2,2-2c1.1,0,2,0.9,2,2C4,15.1,3.1,16,2,16z M2,10c-1.1,0-2-0.9-2-2c0-1.1,0.9-2,2-2
	c1.1,0,2,0.9,2,2C4,9.1,3.1,10,2,10z M2,4C0.9,4,0,3.1,0,2c0-1.1,0.9-2,2-2c1.1,0,2,0.9,2,2C4,3.1,3.1,4,2,4z"/>
</svg>
