<?xml version="1.0" encoding="utf-8"?>
<!-- Generator: Adobe Illustrator 18.1.0, SVG Export Plug-In . SVG Version: 6.00 Build 0)  -->
<!DOCTYPE svg PUBLIC "-//W3C//DTD SVG 1.1//EN" "http://www.w3.org/Graphics/SVG/1.1/DTD/svg11.dtd">
<svg version="1.1" id="Layer_1" xmlns="http://www.w3.org/2000/svg" xmlns:xlink="http://www.w3.org/1999/xlink" x="0px" y="0px"
	 viewBox="0 0 40 40" enable-background="new 0 0 40 40" xml:space="preserve">
<g>
	<g>
		<path fill="#D0CEE1" d="M20,0C9,0,0,9,0,20c0,11,9,20,20,20s20-9,20-20C40,9,31,0,20,0z M25.9,20c1.4,0,2.5,1.1,2.5,2.5
			c0,1.4-1.1,2.5-2.5,2.5c-1.4,0-2.5-1.1-2.5-2.5C23.4,21.1,24.5,20,25.9,20z M17.7,10.9c1.3,0,2.4,1.1,2.4,2.4
			c0,1.3-1.1,2.4-2.4,2.4c-1.3,0-2.4-1.1-2.4-2.4c0-0.3,0-0.6,0.1-0.8c0.2-0.7,0.8-1.2,1.5-1.5C17.1,11,17.4,10.9,17.7,10.9z
			 M15.6,10c0.4,0,0.8,0.2,1,0.6c-0.4,0.1-0.8,0.4-1.1,0.7c-0.3,0.3-0.5,0.7-0.7,1.1c-0.3-0.2-0.6-0.6-0.6-1.1
			C14.4,10.6,14.9,10,15.6,10z M14,16.7c0.1-0.2,0.2-0.5,0.4-0.6c0.2-0.1,0.4-0.2,0.6-0.2c0.6-0.1,1.3,0.1,1.8,0.2c0,0,0.1,0,0.1,0
			c0,0,0.1,0,0.1,0c0.1,0,0.3,0.1,0.4,0.2c0,0,2.4,2.3,2.4,2.3c0.1,0.1,0.2,0.2,0.3,0.2l2.7,1c0.5,0.2,0.7,0.7,0.5,1.1
			c-0.1,0.4-0.5,0.6-0.8,0.6c-0.1,0-0.2,0-0.3-0.1l-3-1.2c-0.1,0-0.2-0.1-0.3-0.2l-1.1-1.1c0,0,0,0,0,0c0.3,1-0.9,1.4-1.3,2.2
			c-0.1,0.2-0.2,0.4-0.3,0.7h-4.2C12.2,21.2,13.4,18,14,16.7z M28.9,28h-4.7c-0.1,0-0.3,0-0.4-0.1c-0.1-0.1-0.3-0.1-0.4-0.2L22,27
			H11c-0.5,0-1-0.7-1-1.1v-2.1c0-0.4,0.4-0.8,0.9-0.8c0,0,9.5,0,10.2,0c0.4,0,0.5,0.1,0.8,0.3l2.9,2.7h4.2c0.6,0,1.1,0.4,1.1,1
			C30,27.5,29.5,28,28.9,28z"/>
	</g>
</g>
</svg>
