<?xml version="1.0" encoding="utf-8"?>
<!-- Generator: Adobe Illustrator 18.1.0, SVG Export Plug-In . SVG Version: 6.00 Build 0)  -->
<!DOCTYPE svg PUBLIC "-//W3C//DTD SVG 1.1//EN" "http://www.w3.org/Graphics/SVG/1.1/DTD/svg11.dtd">
<svg version="1.1" id="Layer_1" xmlns="http://www.w3.org/2000/svg" xmlns:xlink="http://www.w3.org/1999/xlink" x="0px" y="0px"
	 viewBox="0 0 40 40" enable-background="new 0 0 40 40" xml:space="preserve">
<g>
	<g>
		<path fill="#D0CEE1" d="M20,0C9,0,0,9,0,20c0,11,9,20,20,20s20-9,20-20C40,9,31,0,20,0z M16.9,8.8c0-0.4,0.4-0.8,0.9-0.8h4.3
			c0.5,0,0.9,0.4,0.9,0.8v8.3c0,0.1,0,0.1,0,0.2c-0.1,0.3-0.4,0.6-0.8,0.6h-4.3c-0.4,0-0.7-0.2-0.8-0.5c0-0.1,0-0.2,0-0.2V8.8z
			 M17.7,19c0.1,0,0.2,0,0.3,0h3.9c0.1,0,0.3,0,0.4,0c1,0.3,1.9,1,1.7,2.7c-0.4,3.1-1,6-1.6,6.7c-0.4,0.5-1.5,0.6-2.1,0.6
			c-0.1,0-0.2,0-0.3,0c0,0-0.1,0-0.3,0c-0.5,0-1.6-0.1-2.1-0.6c-0.6-0.7-1.2-3.6-1.6-6.7C15.8,20.1,16.7,19.3,17.7,19z M26,20.7
			c-0.7,4.4-1.5,8.6-2.4,9.5c-0.7,0.7-2.3,0.8-3.1,0.8c-0.2,0-0.4,0-0.4,0c-0.1,0-0.2,0-0.4,0c-0.8,0-2.4-0.1-3.1-0.8
			c-0.9-0.9-1.8-5.1-2.4-9.5c-0.3-2.1,0.7-3.2,1.9-3.7v0.1c0,0.1,0,0.2,0,0.2c0,0.1,0,0.2,0.1,0.3c-0.3,0.1-0.6,0.3-0.8,0.6
			c-0.5,0.6-0.7,1.4-0.6,2.4c1.1,7.3,2,8.9,2.3,9.2c0.3,0.4,1.3,0.6,2.6,0.6c0.2,0,0.3,0,0.4,0l0,0l0,0c0.1,0,0.2,0,0.4,0
			c1.3,0,2.3-0.2,2.6-0.6c0.3-0.3,1.2-1.9,2.3-9.2c0.2-1,0-1.9-0.6-2.4c-0.3-0.3-0.6-0.5-1-0.7c0-0.1,0.1-0.2,0.1-0.3
			c0-0.1,0-0.1,0-0.2v-0.2C25.2,17.5,26.3,18.5,26,20.7z"/>
	</g>
</g>
</svg>
