<?xml version="1.0" encoding="utf-8"?>
<!-- Generator: Adobe Illustrator 18.1.1, SVG Export Plug-In . SVG Version: 6.00 Build 0)  -->
<svg version="1.1" id="Layer_1" xmlns="http://www.w3.org/2000/svg" xmlns:xlink="http://www.w3.org/1999/xlink" x="0px" y="0px"
	 viewBox="-265 349 80 95" enable-background="new -265 349 80 95" xml:space="preserve">
<path fill="#FFFFFF" d="M-265,349h80v34.2c-0.4-5.2-4.3-9.5-9.1-11.4c0-2.7,0.1-5.4,0.1-8c-0.7,0-2.2,0-3,0
	c0.1-4.1,0.1-8.3,0.1-12.4c-3.6,0.1-7.1,0.2-10.6,0.3c0,4,0,8.1,0.1,12.1c-1.1,0.1-2.2,0.3-3.3,0.4c0,2.6,0,5.1,0,7.7
	c-2.7,1.3-5.4,2.9-7,5.6c-2.6,3.9-1.9,8.8-2,13.3c0,0.6,0,1.9,0,2.6c0,9.2,0,18.4,0,27.6c0.1,3.7,0,7.3,0,11c0,4,0,8.1,0,12.1h-7
	c-0.2-1.3-0.3-2.7-0.5-4c-2.1-18.8-4.3-37.6-6.5-56.3c-1.5,0-2.9,0-4.4,0c0-1.9,0-3.9,0-5.8c-5.4,0-10.7,0-16.1,0
	c0.1,1.9,0.1,3.9,0.1,5.8c-1.3,0-2.6,0-3.9,0c-2.2,18.9-4.4,37.7-6.6,56.6c-0.2,1-0.3,2.1-0.5,3.1V349z"/>
<path fill="#C9C6D9" d="M-207.4,351.6c3.5-0.1,7.1-0.2,10.6-0.3c0,4.1,0,8.3-0.1,12.4c-3.5-0.1-7-0.2-10.4,0
	C-207.4,359.7-207.4,355.7-207.4,351.6z"/>
<path fill="#FFFFFF" d="M-202.6,355.9c1.9-0.7,3,2.5,0.9,2.8C-203.6,359.4-204.5,356.4-202.6,355.9z"/>
<path fill="#BCE0CF" d="M-210.6,364.3c1.1-0.1,2.1-0.3,3.2-0.4c3.4-0.2,6.9-0.1,10.3,0c0.7,0,2.2,0,2.9,0c-0.1,2.6-0.1,5.3-0.1,7.9
	c-5.4-0.7-10.9-0.5-16.3,0.1C-210.5,369.3-210.6,366.8-210.6,364.3z"/>
<path fill="#436297" d="M-210.6,371.9c5.5-0.5,11-0.8,16.5-0.1c4.8,1.9,8.6,6.1,9.1,11.4v7.8c-11.5,0-23-0.4-34.6-0.2
	c0.1-4.4-0.6-9.3,2-13.3C-216,374.8-213.3,373.1-210.6,371.9z"/>
<path fill="#6C8BC0" d="M-254.1,377.9c5.4,0,10.7,0,16.1,0c0,1.9,0,3.9,0,5.8c-5.3,0-10.7,0-16,0
	C-254,381.8-254.1,379.8-254.1,377.9z"/>
<path fill="#F3797A" d="M-258,383.7c1.3,0,2.6,0,3.9,0c5.3,0,10.7,0,16,0c1.5,0,2.9,0,4.4,0c2.2,18.8,4.4,37.5,6.5,56.3
	c-12.5-0.1-25,0.7-37.4,0.3C-262.3,421.4-260.1,402.6-258,383.7z"/>
<path fill="#6C8BC0" d="M-219.6,390.7c11.5-0.2,23.1,0.2,34.6,0.2v2.2c-11.5-0.2-23,0.4-34.6,0.2
	C-219.6,392.7-219.6,391.4-219.6,390.7z"/>
<path fill="#436297" d="M-219.6,393.3c11.5,0.3,23-0.3,34.6-0.2v28.1c-11.5,0.1-23-0.1-34.5-0.1
	C-219.6,411.9-219.6,402.6-219.6,393.3z"/>
<path fill="#BCE0CF" d="M-247.7,400.3c1.9-1.6,5.3,0.2,5.1,2.7c0.2,2.6-3.8,4.4-5.4,2.2C-249.7,403.9-249.2,401.4-247.7,400.3z"/>
<path fill="#BCE0CF" d="M-255.4,412.5c6.4,0,12.8,0.1,19.3,0.1c-0.1,6.4-0.1,12.8,0,19.3c-6.4-0.1-12.8,0.1-19.2,0.1
	C-255.4,425.5-255.4,419-255.4,412.5z"/>
<path fill="#C9C6D9" d="M-219.6,431.9c0.1-3.7,0.1-7.4,0-11c11.5-0.1,23,0.1,34.5,0v10.8C-196.5,431.7-208,432-219.6,431.9z"/>
<path fill="#436297" d="M-219.6,431.9c11.5,0.1,23-0.2,34.6-0.1V444h-34.6C-219.6,440-219.6,435.9-219.6,431.9z"/>
<path fill="#DC545D" d="M-264.5,440.3c12.5,0.4,25-0.3,37.4-0.3c0.2,1.3,0.3,2.7,0.5,4H-265v-0.6
	C-264.9,442.4-264.7,441.3-264.5,440.3z"/>
<rect x="-255.4" y="412.5" fill="#CCFFD9" width="19.3" height="19.3"/>
<rect x="-253.6" y="360.8" fill="#FFFFFF" width="10.1" height="6.1"/>
<rect x="-244.3" y="369.6" fill="#FFFFFF" width="10.1" height="6.1"/>
<rect x="-254.1" y="377.9" fill="#6C8BC0" width="16.1" height="5.8"/>
<rect x="-219.5" y="420.7" fill="#C9C6D9" width="34.5" height="11.5"/>
<rect x="-219.6" y="390.7" fill="#6C8BC0" width="34.6" height="2.6"/>
<rect x="-219.6" y="390.1" fill="#6C8BC0" width="34.6" height="3.4"/>
<rect x="-207.4" y="351.4" fill="#C9C6D9" width="10.6" height="0.6"/>
<rect x="-207.4" y="351.4" fill="#C9C6D9" width="0.8" height="12.3"/>
<rect x="-198" y="351.4" fill="#C9C6D9" width="1.3" height="12.3"/>
<circle fill="#FFFFFF" cx="-202.1" cy="357.3" r="1.8"/>
<ellipse fill="#BCE0CF" cx="-245.8" cy="403" rx="3.3" ry="3.3"/>
<rect x="-264.5" y="440" fill="#DC545D" width="37.4" height="4"/>
<rect x="-210.6" y="363.5" fill="#BCE0CF" width="16.3" height="1.7"/>
</svg>
