<?xml version="1.0" encoding="utf-8"?>
<!-- Generator: Adobe Illustrator 18.1.0, SVG Export Plug-In . SVG Version: 6.00 Build 0)  -->
<!DOCTYPE svg PUBLIC "-//W3C//DTD SVG 1.1//EN" "http://www.w3.org/Graphics/SVG/1.1/DTD/svg11.dtd">
<svg version="1.1" id="Layer_1" xmlns="http://www.w3.org/2000/svg" xmlns:xlink="http://www.w3.org/1999/xlink" x="0px" y="0px"
	 viewBox="0 0 60 60" enable-background="new 0 0 60 60" xml:space="preserve">
<g>
	<g>
		<path fill-rule="evenodd" clip-rule="evenodd" fill="#1D1D1B" d="M30,0C13.4,0,0,13.4,0,30c0,16.6,13.4,30,30,30
			c16.6,0,30-13.4,30-30C60,13.4,46.6,0,30,0z M39.4,46H19.6c0,0-1.6-4.1-1.6-4.9c0-0.8,1.6-1.6,1.6-1.6l8-2.7
			c-3.6-0.8-6.3-4-6.4-7.8c-1.4-0.5-2.1-4.1-1.3-4.9c0.3-0.3,0.8-0.2,1.3,0c-0.1-5.2,0.8-6,0.8-6c1.6-3.3,6.6-2,8.2-1.6
			c1.7-0.3,5.1-1.9,5.8-2.5c0,0,1.6,2.9,1.6,4.1c0,0.8,0,4.1,0,4.1v1.9c0.5-0.2,1-0.3,1.3,0c0.8,0.8,0.1,4.4-1.3,4.9
			c-0.1,3.8-2.8,7-6.4,7.8l8,2.7c0,0,1.6,0.8,1.6,1.6C41,41.9,39.4,46,39.4,46z"/>
	</g>
</g>
</svg>
