<?xml version="1.0" encoding="utf-8"?>
<svg xmlns="http://www.w3.org/2000/svg"
	xmlns:xlink="http://www.w3.org/1999/xlink"
	width="40px" height="40px">
<path fill="rgb(207,205,225)" fill-rule="evenodd" d="M 20 0C 31.05 0 40 8.95 40 20 40 31.05 31.05 40 20 40 8.95 40 0 31.05 0 20 0 8.95 8.95 0 20 0ZM 28 28C 28 28 13 28 13 28 11.9 28 11 27.1 11 26 11 26 11 16 11 16 11 14.9 11.9 14 13 14 13 14 13 11 13 11 13 9.9 13.9 9 15 9 15 9 28 14 28 14 29.1 14 30 14.9 30 16 30 16 30 26 30 26 30 27.1 29.1 28 28 28ZM 16 11.28C 15.45 11.28 15 11.73 15 12.28 15 12.28 15 14 15 14 15 14 23 14 23 14 23 14 16 11.28 16 11.28ZM 28 17C 28 16.45 27.55 16 27 16 27 16 14 16 14 16 13.45 16 13 16.45 13 17 13 17 13 25 13 25 13 25.55 13.45 26 14 26 14 26 27 26 27 26 27.55 26 28 25.55 28 25 28 25 28 17 28 17ZM 16.5 22C 16.5 22 15.5 22 15.5 22 15.22 22 15 21.78 15 21.5 15 21.5 15 20.5 15 20.5 15 20.22 15.22 20 15.5 20 15.5 20 16.5 20 16.5 20 16.78 20 17 20.22 17 20.5 17 20.5 17 21.5 17 21.5 17 21.78 16.78 22 16.5 22Z"/>
</svg>