<?xml version="1.0" encoding="utf-8"?>
<!-- Generator: Adobe Illustrator 18.1.0, SVG Export Plug-In . SVG Version: 6.00 Build 0)  -->
<!DOCTYPE svg PUBLIC "-//W3C//DTD SVG 1.1//EN" "http://www.w3.org/Graphics/SVG/1.1/DTD/svg11.dtd">
<svg version="1.1" id="Layer_1" xmlns="http://www.w3.org/2000/svg" xmlns:xlink="http://www.w3.org/1999/xlink" x="0px" y="0px"
	 viewBox="0 0 16 16" enable-background="new 0 0 16 16" xml:space="preserve">
<g>
	<g>
		<path fill-rule="evenodd" clip-rule="evenodd" fill="#D0CEE1" d="M15.1,7.1H8.9V0.9C8.9,0.4,8.5,0,8,0C7.5,0,7.1,0.4,7.1,0.9v6.2
			H0.9C0.4,7.1,0,7.5,0,8c0,0.5,0.4,0.9,0.9,0.9h6.2v6.2C7.1,15.6,7.5,16,8,16c0.5,0,0.9-0.4,0.9-0.9V8.9h6.2C15.6,8.9,16,8.5,16,8
			C16,7.5,15.6,7.1,15.1,7.1z"/>
	</g>
</g>
</svg>
