<?xml version="1.0" encoding="utf-8"?>
<!-- Generator: Adobe Illustrator 18.1.1, SVG Export Plug-In . SVG Version: 6.00 Build 0)  -->
<svg version="1.1" id="Layer_1" xmlns="http://www.w3.org/2000/svg" xmlns:xlink="http://www.w3.org/1999/xlink" x="0px" y="0px"
	 viewBox="-117 400.9 40 40" enable-background="new -117 400.9 40 40" xml:space="preserve">
<g>
	<g>
		<g>
			<path id="symbol0" fill="#F9F7FD" d="M223,440.9H93H33H-97c-11.1,0-20-9-20-20c0-11.1,8.9-20,20-20H33h60h130c11,0,20,8.9,20,20
				C243,431.9,234,440.9,223,440.9z"/>
		</g>
		<g>
			<defs>
				<path id="SVGID_1_" d="M223,440.9H93H33H-97c-11.1,0-20-9-20-20c0-11.1,8.9-20,20-20H33h60h130c11,0,20,8.9,20,20
					C243,431.9,234,440.9,223,440.9z"/>
			</defs>
			<clipPath id="SVGID_2_">
				<use xlink:href="#SVGID_1_"  overflow="visible"/>
			</clipPath>
			<rect x="-117" y="400.9" clip-path="url(#SVGID_2_)" fill="#F3F1F9" width="40" height="40"/>
		</g>
	</g>
	<g>
		<defs>
			<path id="SVGID_3_" d="M223,440.9H93H33H-97c-11.1,0-20-9-20-20c0-11.1,8.9-20,20-20H33h60h130c11,0,20,8.9,20,20
				C243,431.9,234,440.9,223,440.9z"/>
		</defs>
		<clipPath id="SVGID_4_">
			<use xlink:href="#SVGID_3_"  overflow="visible"/>
		</clipPath>
		<g clip-path="url(#SVGID_4_)">
			<path id="symbol0_1_" fill="none" stroke="#F3F1F9" stroke-width="4" d="M223,440.9H93H33H-97c-11.1,0-20-9-20-20
				c0-11.1,8.9-20,20-20H33h60h130c11,0,20,8.9,20,20C243,431.9,234,440.9,223,440.9z"/>
		</g>
	</g>
</g>
<text transform="matrix(1 0 0 1 -98 425.3544)" fill="#A09DB7" font-family="'ArialMT'" font-size="13">7</text>
</svg>
