<?xml version="1.0" encoding="utf-8"?>
<!-- Generator: Adobe Illustrator 18.1.0, SVG Export Plug-In . SVG Version: 6.00 Build 0)  -->
<!DOCTYPE svg PUBLIC "-//W3C//DTD SVG 1.1//EN" "http://www.w3.org/Graphics/SVG/1.1/DTD/svg11.dtd">
<svg version="1.1" id="Layer_1" xmlns="http://www.w3.org/2000/svg" xmlns:xlink="http://www.w3.org/1999/xlink" x="0px" y="0px"
	 viewBox="0 0 40 40" enable-background="new 0 0 40 40" xml:space="preserve">
<g>
	<g>
		<path fill="#D0CEE1" d="M19.5,17.6h0.8c0.1,0,0.1-0.1,0.1-0.1c-0.1-0.1-0.2-0.2-0.4-0.3c0,0,0,0-0.1,0l-0.1,0c0,0-0.1,0-0.1,0
			l-0.1,0c0,0,0,0-0.1,0c-0.2,0-0.3,0.1-0.4,0.3C19.3,17.5,19.4,17.6,19.5,17.6z M23.2,15.7L23.2,15.7c0.3-0.4,0.5-1,0.5-1.5
			c0-0.4-0.1-0.8-0.3-1.2h-1.7C22.7,13.6,23.2,14.6,23.2,15.7z M18,9.4c0.6-0.3,1.3-0.5,2-0.6c-0.3-0.1-0.6-0.2-1-0.2
			c-1.3,0-2.4,0.9-2.6,2.1C16.9,10.2,17.4,9.7,18,9.4z M19.9,18.2c0.3,0,0.5-0.1,0.5-0.3c0-0.1,0-0.1-0.1-0.1h-0.8
			c-0.1,0-0.1,0.1-0.1,0.1C19.4,18.1,19.6,18.2,19.9,18.2z M19.1,12.5c0.3-0.1,0.5-0.1,0.8-0.1h3.3c0-0.1,0-0.1,0-0.2
			c0-0.1,0-0.3-0.1-0.5c0-0.2-0.1-0.4-0.2-0.6c-0.2-0.5-0.6-1-1-1.3c-0.2-0.1-0.3-0.2-0.5-0.3c-0.2-0.1-0.3-0.1-0.5-0.2
			c0,0-0.1,0-0.2,0c-0.2,0-0.4-0.1-0.6-0.1c-0.6,0-1.3,0.2-2,0.5c-0.7,0.4-1.2,0.9-1.6,1.5c-0.1,0.1-0.2,0.3-0.2,0.5
			c-0.1,0.1-0.1,0.3-0.2,0.5c0,0.2-0.1,0.3-0.1,0.5c-0.1,0.6,0,1.3,0.3,2.1c0,0,0,0,0,0.1c0.1-0.2,0.2-0.5,0.3-0.8
			c0.1-0.1,0.2-0.3,0.3-0.4c0.1-0.1,0.1-0.2,0.2-0.2c0-0.1,0.1-0.1,0.1-0.2c0,0,0,0,0.1-0.1c0.2-0.2,0.4-0.3,0.6-0.4
			c0.1-0.1,0.3-0.2,0.5-0.2C18.8,12.6,18.9,12.5,19.1,12.5z M20,0C9,0,0,9,0,20c0,11,9,20,20,20s20-9,20-20C40,9,31,0,20,0z
			 M28,16.3c0.3-0.3,0.7-0.4,1-0.8c0.5-0.6,0.6-1.4,0.6-2.1c0,0,0-0.1,0-0.1c0-0.1,0-0.1,0-0.1s0,0,0.1,0.1c0,0,0,0.1,0.1,0.1
			c0.4,0.5,0.6,1.1,0.6,1.7c0,0.4-0.1,0.8-0.3,1.2c-0.2,0.4-0.5,0.6-0.8,0.9c-0.3,0.2-0.5,0.4-0.8,0.6c-0.4,0.4-0.6,1-0.6,1.5
			c0,0.1,0,0.2,0,0.4c0,0,0,0.3,0,0.3s0,0-0.1-0.1c-0.3-0.3-0.6-0.7-0.7-1.2c0-0.1,0-0.1,0-0.2C26.9,17.7,27.3,16.9,28,16.3z
			 M11,16.3c0.3-0.3,0.7-0.4,1-0.8c0.5-0.6,0.6-1.4,0.6-2.1c0,0,0-0.1,0-0.1c0-0.1,0-0.1,0-0.1s0,0,0.1,0.1c0,0,0,0.1,0.1,0.1
			c0.4,0.5,0.6,1.1,0.6,1.7c0,0.4-0.1,0.8-0.3,1.2c-0.2,0.4-0.5,0.6-0.8,0.9c-0.3,0.2-0.5,0.4-0.8,0.6c-0.4,0.4-0.6,1-0.6,1.5
			c0,0.1,0,0.2,0,0.4c0,0,0,0.3,0,0.3s0,0-0.1-0.1c-0.3-0.3-0.6-0.7-0.7-1.2c0-0.1,0-0.1,0-0.2C10,17.7,10.3,16.9,11,16.3z M20,30
			c-6.9,0-12.1-2.8-11-5c0.7-1.4,2.7-2.2,5.5-2.6v-0.7c0-1,0.8-1.7,1.8-1.7h1.8c0.3,0,0.6-0.3,0.5-0.6c-0.1-0.5-0.6-0.8-0.9-1.2
			c-0.4-0.3-0.7-0.8-0.9-1.2c-0.2-0.4-0.2-0.8-0.4-1.1c-0.4-0.8-0.7-1.6-0.7-2.5c0-0.5,0.1-1,0.2-1.5c0-0.2-0.1-0.4-0.1-0.6
			c0-1.8,1.5-3.2,3.3-3.2c0.9,0,1.7,0.4,2.3,0.9c1.4,0.4,2,1.3,2.3,2c0.3,0.7,0.3,1.3,0.3,1.6c0.3,0.5,0.5,1,0.5,1.6
			c0,0.5-0.1,1.1-0.4,1.5c-0.1,0.2-0.3,0.4-0.5,0.6c-0.2,0.2-0.3,0.3-0.5,0.5c-0.2,0.5-0.5,0.9-0.8,1.2c-0.4,0.4-0.9,0.7-1,1.2
			c-0.1,0.3,0.2,0.6,0.5,0.6h2c1,0,1.8,0.8,1.8,1.7v0.7c2.5,0.4,4.4,1.3,5.5,2.6C32.6,26.9,27,30,20,30z M25.5,25.7
			c0,0.7-2.5,1.2-5.5,1.2c-3,0-5.5-0.5-5.5-1.2v-3.3c-3.1,0.5-4.5,1.6-4.5,2.7c0,1.7,4.5,3.1,10,3.1c5.5,0,10-1.4,10-3.1
			c0-1.2-1.5-2.2-4.5-2.7V24L25.5,25.7z M25.5,22.4L25.5,22.4c-0.9-0.2-1.9-0.3-2.9-0.3C23.7,22.2,24.7,22.3,25.5,22.4z M18.6,22
			c-1.5,0-2.9,0.1-4.1,0.3v0C15.6,22.2,17,22.1,18.6,22z"/>
	</g>
</g>
</svg>
