<?xml version="1.0" encoding="utf-8"?>
<!-- Generated by IcoMoon.io -->
<!DOCTYPE svg PUBLIC "-//W3C//DTD SVG 1.1//EN" "http://www.w3.org/Graphics/SVG/1.1/DTD/svg11.dtd">

<svg version="1.1" xmlns="http://www.w3.org/2000/svg" xmlns:xlink="http://www.w3.org/1999/xlink" width="131" height="131" viewBox="0 0 131 131">
<g transform="translate(0 0)">
	<path d="M16 32c-8.8 0-16-7.2-16-16v0-4l8 8h-3.2c1.4 4 5 7 9.2 7.8v-9.8h-2c-1.2 0-2-0.8-2-2s0.8-2 2-2h2v-2.4c-2.4-0.8-4-3-4-5.6 0-3 2.2-5.6 5.2-6 0.2 0 0.6 0 0.8 0s0.6 0 0.8 0c3 0.4 5.2 3 5.2 6 0 2.6-1.6 4.8-4 5.6v2.4h2c1.2 0 2 0.8 2 2s-0.8 2-2 2h-2v9.8c4.4-0.8 7.8-3.8 9.2-7.8h-3.2l8-8v4c0 8.8-7.2 16-16 16zM16 4c-1.2 0-2 0.8-2 2s0.8 2 2 2c1.2 0 2-0.8 2-2s-0.8-2-2-2z" fill="#444444"></path>
</g>
<g transform="translate(33 0)">
	<path d="M26 32h-20c-3.4 0-6-2.6-6-6v-20c0-2.6 1.6-4.8 4-5.6v2.6c0 1.6 1.4 3 3 3s3-1.4 3-3v-3h12v3c0 1.6 1.4 3 3 3s3-1.4 3-3v-2.6c2.4 0.8 4 3 4 5.6v20c0 3.4-2.6 6-6 6zM28 10h-24v16c0 1.2 0.8 2 2 2h20c1.2 0 2-0.8 2-2v-16zM20 20h4v4h-4v-4zM20 14h4v4h-4v-4zM14 20h4v4h-4v-4zM14 14h4v4h-4v-4zM8 20h4v4h-4v-4zM8 14h4v4h-4v-4zM25 4c-0.6 0-1-0.4-1-1v-3h2v3c0 0.6-0.4 1-1 1zM7 4c-0.6 0-1-0.4-1-1v-3h2v3c0 0.6-0.4 1-1 1z" fill="#444444"></path>
</g>
<g transform="translate(66 0)">
	<path d="M20 12h-8c-0.48 0-0.8 0.32-0.8 0.8v5.6c0 0.48 0.32 0.8 0.8 0.8h5.36l1.040 1.6 1.040-1.6h0.56c0.48 0 0.8-0.32 0.8-0.8v-5.6c0-0.48-0.32-0.8-0.8-0.8zM16 17.6h-3.2v-0.8h3.2v0.8zM19.2 16h-6.4v-0.8h6.4v0.8zM19.2 14.4h-6.4v-0.8h6.4v0.8zM16 0c-8.8 0-16 7.2-16 16s7.2 16 16 16 16-7.2 16-16c0-8.8-7.2-16-16-16zM22.4 18.4c0 1.36-1.040 2.4-2.4 2.4l-1.6 2.4-1.6-2.4h-4.8c-1.36 0-2.4-1.040-2.4-2.4v-5.6c0-1.36 1.040-2.4 2.4-2.4h8c1.36 0 2.4 1.040 2.4 2.4v5.6z" fill="#444444"></path>
</g>
<g transform="translate(99 0)">
	<path d="M22 32h-12c-3.4 0-6-2.6-6-6v0c0.6-3.6 3-6.8 6.2-8.4-1.4-1.6-2.2-3.4-2.2-5.6v-4c0-4.4 3.6-8 8-8s8 3.6 8 8v4c0 2.2-0.8 4-2.2 5.6 3.2 1.8 5.6 4.8 6.2 8.4v0c0 3.4-2.6 6-6 6zM20 12v-4c0-2.2-1.8-4-4-4s-4 1.8-4 4v4c0 2.2 1.8 4 4 4s4-1.8 4-4zM24 26c-0.8-3.4-4.2-6-8-6v0 0c-3.8 0-7.2 2.6-8 6v0c0 1.2 0.8 2 2 2h12c1.2 0 2-0.8 2-2v0z" fill="#444444"></path>
</g>
<g transform="translate(0 33)">
	<path d="M12.8 16.8l1.6 1.6 4.8-4.8-1.6-1.6-4.8 4.8zM11.2 20l2.4-0.8-1.6-1.6-0.8 2.4zM16 0c-8.8 0-16 7.2-16 16s7.2 16 16 16 16-7.2 16-16c0-8.8-7.2-16-16-16zM14.4 20l-4.8 1.6 1.6-4.8 8-8 3.2 3.2-8 8z" fill="#444444"></path>
</g>
<g transform="translate(33 33)">
	<path d="M21 32c-5 0-9-4-9-9s4-9 9-9c5 0 9 4 9 9s-4 9-9 9zM21 18c-2.8 0-5 2.2-5 5s2.2 5 5 5c2.8 0 5-2.2 5-5s-2.2-5-5-5zM26 10.6v2.6c-0.2-0.2-0.6-0.4-1-0.4 0.6-0.6 1-1.4 1-2.2zM22.6 12.2c-0.6-0.2-1-0.2-1.6-0.2-2.4 0-4.4 0.8-6.2 2-0.4 0-0.6 0-0.8 0-6.6 0-12-2.6-12-6v-2c0-3.4 5.4-6 12-6s12 2.6 12 6v2c0 1.6-1.2 3-3.4 4.2zM12.6 16c-1 1-1.6 2.4-2 3.8-5-0.8-8.6-3-8.6-5.8v-3.4c0 3.2 4.6 5 10.6 5.4zM10.2 21.8c-0.2 0.4-0.2 0.8-0.2 1.2 0 1 0.2 1.8 0.4 2.6-4.8-0.6-8.4-3-8.4-5.6v-3.4c0 2.6 3.4 4.4 8.2 5.2zM11.2 27.8c0.8 1.6 2 3 3.4 4.2-0.2 0-0.4 0-0.6 0-6.6 0-12-2.6-12-6v-3.4c0 2.8 4 4.8 9.2 5.2z" fill="#444444"></path>
</g>
<g transform="translate(66 33)">
	<path d="M31.2 30h-18.4c-0.4 0-0.8-0.4-0.8-1v-2c0-0.6 0.4-1 0.8-1h18.4c0.4 0 0.8 0.4 0.8 1v2c0 0.6-0.4 1-0.8 1zM31.2 18h-18.4c-0.4 0-0.8-0.4-0.8-1v-2c0-0.6 0.4-1 0.8-1h18.4c0.4 0 0.8 0.4 0.8 1v2c0 0.6-0.4 1-0.8 1zM31.2 6h-18.4c-0.4 0-0.8-0.4-0.8-1v-2c0-0.6 0.4-1 0.8-1h18.4c0.4 0 0.8 0.4 0.8 1v2c0 0.6-0.4 1-0.8 1zM4 32c-2.2 0-4-1.8-4-4s1.8-4 4-4c2.2 0 4 1.8 4 4s-1.8 4-4 4zM4 20c-2.2 0-4-1.8-4-4s1.8-4 4-4c2.2 0 4 1.8 4 4s-1.8 4-4 4zM4 8c-2.2 0-4-1.8-4-4s1.8-4 4-4c2.2 0 4 1.8 4 4s-1.8 4-4 4z" fill="#444444"></path>
</g>
<g transform="translate(99 33)">
	<path d="M16 0c-8.8 0-16 7.2-16 16s7.2 16 16 16 16-7.2 16-16c0-8.8-7.2-16-16-16zM21.12 19.92l-1.12 1.12-4-3.92-3.92 3.92-1.12-1.12 3.92-3.92-3.92-3.92 1.12-1.12 3.92 3.92 3.92-3.92 1.12 1.12-3.92 3.92 4 3.92z" fill="#444444"></path>
</g>
<g transform="translate(0 66)">
	<path d="M16 0c-8.84 0-16 7.16-16 16s7.16 16 16 16c8.84 0 16-7.16 16-16s-7.16-16-16-16zM22.4 22.4c0 0-12 0-12 0-0.88 0-1.6-0.72-1.6-1.6 0 0 0-8 0-8 0-0.88 0.72-1.6 1.6-1.6 0 0 0-2.4 0-2.4 0-0.88 0.72-1.6 1.6-1.6 0 0 10.4 4 10.4 4 0.88 0 1.6 0.72 1.6 1.6 0 0 0 8 0 8 0 0.88-0.72 1.6-1.6 1.6zM12.8 9.024c-0.44 0-0.8 0.36-0.8 0.8 0 0 0 1.376 0 1.376s6.4 0 6.4 0c0 0-5.6-2.176-5.6-2.176zM22.4 13.6c0-0.44-0.36-0.8-0.8-0.8 0 0-10.4 0-10.4 0-0.44 0-0.8 0.36-0.8 0.8 0 0 0 6.4 0 6.4 0 0.44 0.36 0.8 0.8 0.8 0 0 10.4 0 10.4 0 0.44 0 0.8-0.36 0.8-0.8 0 0 0-6.4 0-6.4zM13.2 17.6c0 0-0.8 0-0.8 0-0.224 0-0.4-0.176-0.4-0.4 0 0 0-0.8 0-0.8 0-0.224 0.176-0.4 0.4-0.4 0 0 0.8 0 0.8 0 0.224 0 0.4 0.176 0.4 0.4 0 0 0 0.8 0 0.8 0 0.224-0.176 0.4-0.4 0.4z" fill="#444444"></path>
</g>
<g transform="translate(33 66)">
	<path d="M16 0c-8.84 0-16 7.16-16 16s7.16 16 16 16c8.84 0 16-7.16 16-16s-7.16-16-16-16zM20.8 23.2c0 0-9.6 0-9.6 0-0.88 0-2.4-1.52-2.4-2.4 0 0 0-1.6 0-1.6s0.336-2.096 4.448-2.928c-0.76-0.872-1.248-2.104-1.248-3.472 0-2.648 1.792-4.8 4-4.8s4 2.152 4 4.8c0 1.368-0.488 2.6-1.248 3.472 4.112 0.832 4.448 2.928 4.448 2.928s0 1.6 0 1.6c0 0.88-1.52 2.4-2.4 2.4zM16 9.6c-1.328 0-2.4 1.432-2.4 3.2s1.072 3.2 2.4 3.2c1.328 0 2.4-1.432 2.4-3.2s-1.072-3.2-2.4-3.2zM21.6 20c0 0 0-0.8 0-0.8-1.024-0.944-3.048-1.6-5.6-1.6s-4.576 0.656-5.6 1.6c0 0 0 0.8 0 0.8s0 0.8 0 0.8c0 0.44 1.16 0.8 1.6 0.8 0 0 8 0 8 0 0.44 0 1.6-0.36 1.6-0.8 0 0 0-0.8 0-0.8z" fill="#444444"></path>
</g>
<g transform="translate(66 66)">
	<path d="M28 14c-2.2 0-4-1.8-4-4 0 2.2-1.8 4-4 4s-4-1.8-4-4c0 2.2-1.8 4-4 4s-4-1.8-4-4c0 2.2-1.8 4-4 4s-4-1.8-4-4l4-10h24l4 10c0 2.2-1.8 4-4 4zM4 28v-12c1.6 0 3-0.6 4-1.6v13.6h-4zM28 16v12h-4v-13.6c1 1 2.4 1.6 4 1.6zM8 32h2v-4h12v4h2v-2h6v2h-28v-2h6v2z" fill="#444444"></path>
</g>
<g transform="translate(99 66)">
	<path d="M16 32c-8.84 0-16-7.16-16-16s7.16-16 16-16c8.84 0 16 7.16 16 16s-7.16 16-16 16zM21.704 15.304c0 0-5 0-5 0s0-5.008 0-5.008c0-0.384-0.32-0.696-0.704-0.696s-0.696 0.312-0.696 0.696c0 0 0 5.008 0 5.008s-5 0-5 0c-0.392 0-0.704 0.312-0.704 0.696s0.312 0.704 0.704 0.704c0 0 5 0 5 0s0 4.992 0 4.992c0 0.392 0.312 0.704 0.696 0.704s0.704-0.312 0.704-0.704c0 0 0-4.992 0-4.992s5 0 5 0c0.384 0 0.696-0.32 0.696-0.704s-0.312-0.696-0.696-0.696z" fill="#444444"></path>
</g>
<g transform="translate(0 99)">
	<path d="M16 0c-8.84 0-16 7.16-16 16s7.16 16 16 16c8.84 0 16-7.16 16-16s-7.16-16-16-16zM16 24c-4.416 0-8-3.584-8-8s3.584-8 8-8c4.416 0 8 3.584 8 8s-3.584 8-8 8zM16 9.6c-3.536 0-6.4 2.864-6.4 6.4s2.864 6.4 6.4 6.4c3.536 0 6.4-2.864 6.4-6.4s-2.864-6.4-6.4-6.4zM18.584 19.096c0 0-2.584-1.496-2.584-1.496-0.224 0-0.8-0.576-0.8-0.8 0 0 0-4.8 0-4.8 0-0.224 0.576-0.8 0.8-0.8s0.8 0.576 0.8 0.8c0 0 0 4.216 0 4.216s2.584 1.488 2.584 1.488c0.192 0.112 0.408 0.904 0.296 1.096s-0.904 0.4-1.096 0.296z" fill="#444444"></path>
</g>
<g transform="translate(33 99)">
	<path d="M16 12.8c-1.76 0-3.2 1.44-3.2 3.2s1.44 3.2 3.2 3.2c1.76 0 3.2-1.44 3.2-3.2s-1.44-3.2-3.2-3.2zM16 17.6c-0.88 0-1.6-0.72-1.6-1.6 0 0 0-0.080 0-0.080 0.16 0.080 0.24 0.080 0.4 0.080 0.64 0 1.2-0.56 1.2-1.2 0-0.16 0-0.24-0.080-0.4 0 0 0.080 0 0.080 0 0.88 0 1.6 0.72 1.6 1.6s-0.72 1.6-1.6 1.6zM16 0c-8.8 0-16 7.2-16 16s7.2 16 16 16 16-7.2 16-16c0-8.8-7.2-16-16-16zM16 20.8c-4.8 0-6.4-4.8-6.4-4.8s1.6-4.8 6.4-4.8 6.4 4.8 6.4 4.8-1.6 4.8-6.4 4.8z" fill="#444444"></path>
</g>
<g transform="translate(66 99)">
	<path d="M16 0c-8.8 0-16 7.2-16 16s7.2 16 16 16c8.8 0 16-7.2 16-16s-7.2-16-16-16zM13.76 21.6l-4.16-4 1.6-1.6 2.56 2.56 7.040-8.16 1.6 1.6-8.64 9.6z" fill="#444444"></path>
</g>

</svg>
