<?xml version="1.0" encoding="utf-8"?>
<svg xmlns="http://www.w3.org/2000/svg"
	xmlns:xlink="http://www.w3.org/1999/xlink"
	width="40px" height="40px">
<path fill="rgb(111,143,199)" fill-rule="evenodd" d="M 20 0C 31.05 0 40 8.95 40 20 40 31.05 31.05 40 20 40 8.95 40 0 31.05 0 20 0 8.95 8.95 0 20 0ZM 26 29C 26 29 14 29 14 29 12.9 29 11 27.1 11 26 11 26 11 24 11 24 11 24 11.42 21.38 16.56 20.34 15.61 19.25 15 17.71 15 16 15 12.69 17.24 10 20 10 22.76 10 25 12.69 25 16 25 17.71 24.39 19.25 23.44 20.34 28.58 21.38 29 24 29 24 29 24 29 26 29 26 29 27.1 27.1 29 26 29ZM 20 12C 18.34 12 17 13.79 17 16 17 18.21 18.34 20 20 20 21.66 20 23 18.21 23 16 23 13.79 21.66 12 20 12ZM 27 25C 27 25 27 24 27 24 25.72 22.82 23.19 22 20 22 16.81 22 14.28 22.82 13 24 13 24 13 25 13 25 13 25 13 26 13 26 13 26.55 14.45 27 15 27 15 27 25 27 25 27 25.55 27 27 26.55 27 26 27 26 27 25 27 25Z"/>
</svg>