<?xml version="1.0" encoding="utf-8"?>
<!-- Generator: Adobe Illustrator 18.1.0, SVG Export Plug-In . SVG Version: 6.00 Build 0)  -->
<!DOCTYPE svg PUBLIC "-//W3C//DTD SVG 1.1//EN" "http://www.w3.org/Graphics/SVG/1.1/DTD/svg11.dtd">
<svg version="1.1" id="Layer_1" xmlns="http://www.w3.org/2000/svg" xmlns:xlink="http://www.w3.org/1999/xlink" x="0px" y="0px"
	 viewBox="0 0 16 16" enable-background="new 0 0 16 16" xml:space="preserve">
<path fill-rule="evenodd" clip-rule="evenodd" fill="#1D1D1B" d="M14,7c-1.1,0-2-0.9-2-2c0,1.1-0.9,2-2,2C8.9,7,8,6.1,8,5
	c0,1.1-0.9,2-2,2C4.9,7,4,6.1,4,5c0,1.1-0.9,2-2,2C0.9,7,0,6.1,0,5l2-5h12l2,5C16,6.1,15.1,7,14,7z M2,14V8c0.8,0,1.5-0.3,2-0.8V12
	l0,0v2H2z M14,8v6h-2v-2l0,0V7.2C12.5,7.7,13.2,8,14,8z M4,16h1v-2h6v2h1v-1h3v1H1v-1h3V16z"/>
</svg>
