<?xml version="1.0" encoding="utf-8"?>
<!-- Generator: Adobe Illustrator 18.1.1, SVG Export Plug-In . SVG Version: 6.00 Build 0)  -->
<svg version="1.1" id="Layer_1" xmlns="http://www.w3.org/2000/svg" xmlns:xlink="http://www.w3.org/1999/xlink" x="0px" y="0px"
	 viewBox="0 0 612 614" enable-background="new 0 0 612 614" xml:space="preserve">
<g>
	<g>
		<path fill="#7090c7" d="M306,2C136.7,2,0,138.7,0,308s136.7,306,306,306s306-136.7,306-306S475.3,2,306,2z M306,124.4
			c57.1,0,102,44.9,102,102s-44.9,102-102,102s-102-44.9-102-102S248.9,124.4,306,124.4z M306,491.6c-63.2,0-163.2-49-163.2-81.6
			s83.6-57.1,163.2-57.1s163.2,24.5,163.2,57.1S367.2,491.6,306,491.6z"/>
	</g>
</g>
</svg>
