<?xml version="1.0" encoding="utf-8"?>
<svg xmlns="http://www.w3.org/2000/svg"
	xmlns:xlink="http://www.w3.org/1999/xlink"
	width="40px" height="40px">
<path fill="rgb(111,143,199)" fill-rule="evenodd" d="M 20 40C 8.95 40 0 31.05 0 20 0 8.95 8.95 0 20 0 31.05 0 40 8.95 40 20 40 31.05 31.05 40 20 40ZM 27.13 19.13C 27.13 19.13 20.88 19.13 20.88 19.13 20.88 19.13 20.88 12.87 20.88 12.87 20.88 12.39 20.48 12 20 12 19.52 12 19.13 12.39 19.13 12.87 19.13 12.87 19.13 19.13 19.13 19.13 19.13 19.13 12.88 19.13 12.88 19.13 12.39 19.13 12 19.52 12 20 12 20.48 12.39 20.88 12.88 20.88 12.88 20.88 19.13 20.88 19.13 20.88 19.13 20.88 19.13 27.12 19.13 27.12 19.13 27.61 19.52 28 20 28 20.48 28 20.88 27.61 20.88 27.12 20.88 27.12 20.88 20.88 20.88 20.88 20.88 20.88 27.13 20.88 27.13 20.88 27.61 20.88 28 20.48 28 20 28 19.52 27.61 19.13 27.13 19.13Z"/>
</svg>