<?xml version="1.0" encoding="utf-8"?>
<svg xmlns="http://www.w3.org/2000/svg"
	xmlns:xlink="http://www.w3.org/1999/xlink"
	width="40px" height="40px">
<path fill="rgb(207,205,225)" fill-rule="evenodd" d="M 20 0C 31.05 0 40 8.95 40 20 40 31.05 31.05 40 20 40 8.95 40 0 31.05 0 20 0 8.95 8.95 0 20 0ZM 20 30C 14.48 30 10 25.52 10 20 10 14.48 14.48 10 20 10 25.52 10 30 14.48 30 20 30 25.52 25.52 30 20 30ZM 20 12C 15.58 12 12 15.58 12 20 12 24.42 15.58 28 20 28 24.42 28 28 24.42 28 20 28 15.58 24.42 12 20 12ZM 23.23 23.87C 23.23 23.87 20 22 20 22 19.72 22 19 21.28 19 21 19 21 19 15 19 15 19 14.72 19.72 14 20 14 20.28 14 21 14.72 21 15 21 15 21 20.27 21 20.27 21 20.27 24.23 22.13 24.23 22.13 24.47 22.27 24.74 23.26 24.6 23.5 24.46 23.74 23.47 24 23.23 23.87Z"/>
</svg>