<?xml version="1.0" encoding="utf-8"?>
<!-- Generator: Adobe Illustrator 18.1.0, SVG Export Plug-In . SVG Version: 6.00 Build 0)  -->
<!DOCTYPE svg PUBLIC "-//W3C//DTD SVG 1.1//EN" "http://www.w3.org/Graphics/SVG/1.1/DTD/svg11.dtd">
<svg version="1.1" id="Layer_1" xmlns="http://www.w3.org/2000/svg" xmlns:xlink="http://www.w3.org/1999/xlink" x="0px" y="0px"
	 viewBox="0 0 40 40" enable-background="new 0 0 40 40" xml:space="preserve">
<g>
	<g>
		<path fill-rule="evenodd" clip-rule="evenodd" fill="#CBD7ED" d="M20,16c-2.2,0-4,1.8-4,4c0,2.2,1.8,4,4,4c2.2,0,4-1.8,4-4
			C24,17.8,22.2,16,20,16z M20,22c-1.1,0-2-0.9-2-2c0,0,0-0.1,0-0.1c0.2,0.1,0.3,0.1,0.5,0.1c0.8,0,1.5-0.7,1.5-1.5
			c0-0.2,0-0.3-0.1-0.5c0,0,0.1,0,0.1,0c1.1,0,2,0.9,2,2C22,21.1,21.1,22,20,22z M20,0C9,0,0,9,0,20c0,11,9,20,20,20s20-9,20-20
			C40,9,31,0,20,0z M20,26c-6,0-8-6-8-6s2-6,8-6s8,6,8,6S26,26,20,26z"/>
	</g>
</g>
</svg>
