<svg id="_1" data-name="1" xmlns="http://www.w3.org/2000/svg" width="98" height="74" viewBox="0 0 98 74">
  <metadata><?xpacket begin="﻿" id="W5M0MpCehiHzreSzNTczkc9d"?>
<x:xmpmeta xmlns:x="adobe:ns:meta/" x:xmptk="Adobe XMP Core 5.6-c138 79.159824, 2016/09/14-01:09:01        ">
   <rdf:RDF xmlns:rdf="http://www.w3.org/1999/02/22-rdf-syntax-ns#">
      <rdf:Description rdf:about=""/>
   </rdf:RDF>
</x:xmpmeta>
                                                                                                    
                                                                                                    
                                                                                                    
                                                                                                    
                                                                                                    
                                                                                                    
                                                                                                    
                                                                                                    
                                                                                                    
                                                                                                    
                                                                                                    
                                                                                                    
                                                                                                    
                                                                                                    
                                                                                                    
                                                                                                    
                                                                                                    
                                                                                                    
                                                                                                    
                                                                                                    
                           
<?xpacket end="w"?></metadata>
<defs>
    <style>
      .cls-1, .cls-3 {
        fill: #226d4f;
      }

      .cls-1, .cls-2, .cls-5 {
        fill-rule: evenodd;
      }

      .cls-2, .cls-4 {
        fill: #16d488;
      }

      .cls-5 {
        fill: #beecda;
      }
    </style>
  </defs>
  <path class="cls-1" d="M79.539,41.379H78.208a16.98,16.98,0,0,1-.942,2.265l0.943,0.944a2.462,2.462,0,0,1,0,3.481L74.075,52.2a2.466,2.466,0,0,1-3.48,0l-0.944-.942a16.839,16.839,0,0,1-2.267.942v1.328a2.464,2.464,0,0,1-2.461,2.462H59.076a2.464,2.464,0,0,1-2.462-2.462V52.2a16.85,16.85,0,0,1-2.267-.942l-0.943.942a2.467,2.467,0,0,1-3.481,0L45.791,48.07a2.462,2.462,0,0,1,0-3.481l0.943-.944a16.949,16.949,0,0,1-.942-2.265h-1.33A2.466,2.466,0,0,1,42,38.915V33.07a2.461,2.461,0,0,1,2.461-2.461h1.331a17.084,17.084,0,0,1,.942-2.268L45.792,27.4a2.464,2.464,0,0,1,0-3.48l4.134-4.135a2.52,2.52,0,0,1,3.481,0l0.943,0.941a17.747,17.747,0,0,1,2.267-.941V18.455a2.465,2.465,0,0,1,2.462-2.462h5.846a2.465,2.465,0,0,1,2.462,2.462v1.329a17.688,17.688,0,0,1,2.267.941l0.943-.941a2.537,2.537,0,0,1,3.48,0l4.134,4.135a2.464,2.464,0,0,1,0,3.48l-0.943.943a17.032,17.032,0,0,1,.942,2.267h1.331A2.461,2.461,0,0,1,82,33.07v5.845A2.466,2.466,0,0,1,79.539,41.379ZM62,41.992a6,6,0,1,1,6-6A6,6,0,0,1,62,41.992Z" transform="translate(-42 -16)"/>
  <path id="Shape_1053_copy" data-name="Shape 1053 copy" class="cls-2" d="M80,33.07a0.462,0.462,0,0,0-.462-0.462H76.714l-0.206-.724a14.939,14.939,0,0,0-1.345-3.236l-0.371-.66,2-2a0.464,0.464,0,0,0,0-.654L72.662,21.2a0.476,0.476,0,0,0-.654,0l-2,2-0.661-.37a14.929,14.929,0,0,0-3.234-1.344l-0.728-.208V18.455a0.463,0.463,0,0,0-.462-0.462H59.077a0.463,0.463,0,0,0-.462.462v2.823l-0.728.208a14.982,14.982,0,0,0-3.234,1.344l-0.66.37-2-2a0.461,0.461,0,0,0-.652,0l-4.134,4.134a0.463,0.463,0,0,0,0,.654l2,2-0.371.66a14.887,14.887,0,0,0-1.344,3.236l-0.206.724H44.461A0.462,0.462,0,0,0,44,33.07v5.845a0.463,0.463,0,0,0,.461.462h2.825l0.206,0.731a14.98,14.98,0,0,0,1.344,3.23L49.206,44l-2,2a0.46,0.46,0,0,0-.136.325,0.45,0.45,0,0,0,.135.324l4.133,4.136a0.465,0.465,0,0,0,.653,0l2-2,0.661,0.371A15,15,0,0,0,57.888,50.5l0.727,0.206v2.823a0.461,0.461,0,0,0,.462.462h5.846a0.461,0.461,0,0,0,.461-0.462V50.708l0.727-.206a15,15,0,0,0,3.234-1.344l0.661-.37,2,2a0.464,0.464,0,0,0,.652,0l4.133-4.136a0.45,0.45,0,0,0,.135-0.324A0.46,0.46,0,0,0,76.793,46l-2-2,0.37-.66a15,15,0,0,0,1.345-3.232l0.207-.73h2.824A0.463,0.463,0,0,0,80,38.915V33.07ZM62,43.993a8,8,0,1,1,8-8A8,8,0,0,1,62,43.993Z" transform="translate(-42 -16)"/>
  <rect id="Rounded_Rectangle_1" data-name="Rounded Rectangle 1" class="cls-3" x="22" y="22" width="58" height="52" rx="6" ry="6"/>
  <rect class="cls-3" x="78" y="50" width="9" height="12"/>
  <rect class="cls-4" x="80" y="52" width="5" height="8"/>
  <path id="Rounded_Rectangle_1_copy" data-name="Rounded Rectangle 1 copy" class="cls-2" d="M70,39.993h46a4,4,0,0,1,4,4v40a4,4,0,0,1-4,4H70a4,4,0,0,1-4-4v-40A4,4,0,0,1,70,39.993Z" transform="translate(-42 -16)"/>
  <path id="Rounded_Rectangle_1_copy_5" data-name="Rounded Rectangle 1 copy 5" class="cls-1" d="M131,72.993h-2v-2h2a4,4,0,0,0,4-4v-12h2v12A6,6,0,0,1,131,72.993ZM136,48a4,4,0,1,1-4,4A4,4,0,0,1,136,48Z" transform="translate(-42 -16)"/>
  <circle id="Rounded_Rectangle_1_copy_6" data-name="Rounded Rectangle 1 copy 6" class="cls-4" cx="94" cy="36" r="2"/>
  <path id="Rounded_Rectangle_1_copy_4" data-name="Rounded Rectangle 1 copy 4" class="cls-5" d="M70,43.991h46v40H70v-40h0Z" transform="translate(-42 -16)"/>
  <path id="Ellipse_668_copy_2" data-name="Ellipse 668 copy 2" class="cls-1" d="M78,61a4,4,0,1,1-4,4A4,4,0,0,1,78,61Zm0,2a2,2,0,1,1-2,2A2,2,0,0,1,78,63Zm12-2a4,4,0,1,1-4,4A4,4,0,0,1,90,61Zm0,2a2,2,0,1,1-2,2A2,2,0,0,1,90,63Zm12-2a4,4,0,1,1-4,4A4,4,0,0,1,102,61Zm0,2a2,2,0,1,1-2,2A2,2,0,0,1,102,63Z" transform="translate(-42 -16)"/>
  <path id="Rounded_Rectangle_2_copy" data-name="Rounded Rectangle 2 copy" class="cls-1" d="M75,73h30a1,1,0,0,1,0,2H75A1,1,0,0,1,75,73Zm0,5h30a1,1,0,0,1,0,2H75A1,1,0,0,1,75,78Z" transform="translate(-42 -16)"/>
  <path id="Rounded_Rectangle_1_copy_3" data-name="Rounded Rectangle 1 copy 3" class="cls-1" d="M75,47.991h30a1,1,0,0,1,1,1v7a1,1,0,0,1-1,1H75a1,1,0,0,1-1-1v-7A1,1,0,0,1,75,47.991Zm1,2h28v5H76v-5h0Z" transform="translate(-42 -16)"/>
</svg>
