<svg id="_1_1" data-name="1_1" xmlns="http://www.w3.org/2000/svg" width="144.063" height="94.813" viewBox="0 0 144.063 94.813">
  <metadata><?xpacket begin="﻿" id="W5M0MpCehiHzreSzNTczkc9d"?>
<x:xmpmeta xmlns:x="adobe:ns:meta/" x:xmptk="Adobe XMP Core 5.6-c138 79.159824, 2016/09/14-01:09:01        ">
   <rdf:RDF xmlns:rdf="http://www.w3.org/1999/02/22-rdf-syntax-ns#">
      <rdf:Description rdf:about=""/>
   </rdf:RDF>
</x:xmpmeta>
                                                                                                    
                                                                                                    
                                                                                                    
                                                                                                    
                                                                                                    
                                                                                                    
                                                                                                    
                                                                                                    
                                                                                                    
                                                                                                    
                                                                                                    
                                                                                                    
                                                                                                    
                                                                                                    
                                                                                                    
                                                                                                    
                                                                                                    
                                                                                                    
                                                                                                    
                                                                                                    
                           
<?xpacket end="w"?></metadata>
<defs>
    <style>
      .cls-1 {
        fill: #2c7457;
      }

      .cls-1, .cls-2, .cls-3 {
        fill-rule: evenodd;
        opacity: 0.5;
      }

      .cls-2 {
        fill: #16d488;
      }

      .cls-3 {
        fill: #226d4f;
      }
    </style>
  </defs>
  <path id="Rectangle_131_copy_12" data-name="Rectangle 131 copy 12" class="cls-1" d="M23.656,59.06L21,56.4,18.343,59.06l-1.414-1.415,2.657-2.655-2.657-2.658,1.414-1.414L21,53.574l2.657-2.656,1.414,1.414L22.414,54.99l2.657,2.655Z" transform="translate(-16.938 -7.188)"/>
  <path id="Rectangle_175_copy_12" data-name="Rectangle 175 copy 12" class="cls-2" d="M160,55.989h-3v3a1,1,0,1,1-2,0v-3h-3a1,1,0,1,1,0-2h3v-3a1,1,0,0,1,2,0v3h3A1,1,0,1,1,160,55.989Z" transform="translate(-16.938 -7.188)"/>
  <path id="Rectangle_175_copy_14" data-name="Rectangle 175 copy 14" class="cls-2" d="M34,15.99H31v3a1,1,0,1,1-2,0v-3H26a1,1,0,0,1,0-2h3v-3a1,1,0,0,1,2,0v3h3A1,1,0,0,1,34,15.99Z" transform="translate(-16.938 -7.188)"/>
  <path id="Rounded_Rectangle_10_copy_11" data-name="Rounded Rectangle 10 copy 11" class="cls-2" d="M36,101.99H29a1,1,0,0,1-1-1v-7a1,1,0,0,1,1-1h7a1,1,0,0,1,1,1v7A1,1,0,0,1,36,101.99Zm-1-7H30v5h5v-5Z" transform="translate(-16.938 -7.188)"/>
  <path id="Ellipse_42_copy_13" data-name="Ellipse 42 copy 13" class="cls-3" d="M152,100.991a4,4,0,1,1,4-4A4,4,0,0,1,152,100.991Zm0-6a2,2,0,1,0,2,2A2,2,0,0,0,152,94.988Z" transform="translate(-16.938 -7.188)"/>
  <path id="Shape_981_copy_8" data-name="Shape 981 copy 8" class="cls-3" d="M144.851,17.865l-11.069-2.758,8.207-7.925Zm-7.162-3.8,4.339,1.08-1.122-4.188Z" transform="translate(-16.938 -7.188)"/>
</svg>
