<svg xmlns="http://www.w3.org/2000/svg" width="170" height="110" viewBox="0 0 170 110">
  <metadata><?xpacket begin="﻿" id="W5M0MpCehiHzreSzNTczkc9d"?>
<x:xmpmeta xmlns:x="adobe:ns:meta/" x:xmptk="Adobe XMP Core 5.6-c138 79.159824, 2016/09/14-01:09:01        ">
   <rdf:RDF xmlns:rdf="http://www.w3.org/1999/02/22-rdf-syntax-ns#">
      <rdf:Description rdf:about=""/>
   </rdf:RDF>
</x:xmpmeta>
                                                                                                    
                                                                                                    
                                                                                                    
                                                                                                    
                                                                                                    
                                                                                                    
                                                                                                    
                                                                                                    
                                                                                                    
                                                                                                    
                                                                                                    
                                                                                                    
                                                                                                    
                                                                                                    
                                                                                                    
                                                                                                    
                                                                                                    
                                                                                                    
                                                                                                    
                                                                                                    
                           
<?xpacket end="w"?></metadata>
<defs>
    <style>
      .cls-1 {
        fill: #f0f7f5;
        fill-rule: evenodd;
      }
    </style>
  </defs>
  <path id="_1_bg" data-name="1_bg" class="cls-1" d="M155,9.99H65a5,5,0,0,0,0,10l99,0a5,5,0,1,1,0,10H142a5,5,0,1,0,0,10h13a5,5,0,0,1,0,10H98a5,5,0,1,0,0,10h67a5,5,0,1,1,0,10H142a5,5,0,0,0,0,10h8a5,5,0,0,1,0,10H76a5,5,0,0,0,0,10h89a5,5,0,0,1,0,10H30a5,5,0,0,1,0-10H56a5,5,0,0,0,0-10H10a5,5,0,0,1,0-10H122a5,5,0,0,0,0-10H5a5,5,0,1,1,0-10H78a5,5,0,1,0,0-10H65a5,5,0,0,1,0-10h57a5,5,0,1,0,0-10H25a5,5,0,1,1,0-10l18,0a5,5,0,0,0,0-10H15a5,5,0,1,1,0-10H155A5,5,0,1,1,155,9.99ZM5,40H45a5,5,0,0,1,0,10H5A5,5,0,0,1,5,40Z"/>
</svg>
