<svg id="_2" data-name="2" xmlns="http://www.w3.org/2000/svg" width="82" height="75.031" viewBox="0 0 82 75.031">
  <metadata><?xpacket begin="﻿" id="W5M0MpCehiHzreSzNTczkc9d"?>
<x:xmpmeta xmlns:x="adobe:ns:meta/" x:xmptk="Adobe XMP Core 5.6-c138 79.159824, 2016/09/14-01:09:01        ">
   <rdf:RDF xmlns:rdf="http://www.w3.org/1999/02/22-rdf-syntax-ns#">
      <rdf:Description rdf:about=""/>
   </rdf:RDF>
</x:xmpmeta>
                                                                                                    
                                                                                                    
                                                                                                    
                                                                                                    
                                                                                                    
                                                                                                    
                                                                                                    
                                                                                                    
                                                                                                    
                                                                                                    
                                                                                                    
                                                                                                    
                                                                                                    
                                                                                                    
                                                                                                    
                                                                                                    
                                                                                                    
                                                                                                    
                                                                                                    
                                                                                                    
                           
<?xpacket end="w"?></metadata>
<defs>
    <style>
      .cls-1, .cls-3 {
        fill: #226d4f;
      }

      .cls-1, .cls-2, .cls-4, .cls-6 {
        fill-rule: evenodd;
      }

      .cls-2, .cls-5 {
        fill: #16d488;
      }

      .cls-4 {
        fill: #c1ecdb;
      }

      .cls-6 {
        fill: #fff;
      }
    </style>
  </defs>
  <path id="Shape_1013_copy_5" data-name="Shape 1013 copy 5" class="cls-1" d="M55,32.986h57.99a6,6,0,0,1,6,6V78.993H49V38.985A6,6,0,0,1,55,32.986Z" transform="translate(-44 -16.969)"/>
  <path id="Rectangle_537_copy_2" data-name="Rectangle 537 copy 2" class="cls-1" d="M46,77.993h78a2,2,0,0,1,2,2v10a2,2,0,0,1-2,2H46a2,2,0,0,1-2-2v-10A2,2,0,0,1,46,77.993Z" transform="translate(-44 -16.969)"/>
  <path id="Rectangle_537_copy_2-2" data-name="Rectangle 537 copy 2" class="cls-2" d="M46.006,79.993h77.988v10H46.006v-10h0Z" transform="translate(-44 -16.969)"/>
  <circle id="Ellipse_557_copy" data-name="Ellipse 557 copy" class="cls-3" cx="40" cy="68.031" r="2"/>
  <path id="Shape_1013_copy_5-2" data-name="Shape 1013 copy 5" class="cls-2" d="M55,35h58.009a4,4,0,0,1,4,4V78H51v-39A4,4,0,0,1,55,35Z" transform="translate(-44 -16.969)"/>
  <path id="Shape_1013_copy_5-3" data-name="Shape 1013 copy 5" class="cls-4" d="M56.987,38.995H111a2,2,0,0,1,2,2V75H54.987V41A2,2,0,0,1,56.987,38.995Z" transform="translate(-44 -16.969)"/>
  <path id="Shape_1013_copy_5-4" data-name="Shape 1013 copy 5" class="cls-1" d="M84.012,16.984H110a4,4,0,0,1,4,4v4.007a4,4,0,0,1-4,4H84.012a4,4,0,0,1-4-4V20.985A4,4,0,0,1,84.012,16.984Z" transform="translate(-44 -16.969)"/>
  <rect id="Rectangle_535_copy_2" data-name="Rectangle 535 copy 2" class="cls-3" x="49" y="12.031" width="8" height="4"/>
  <path id="Ellipse_15_copy_12" data-name="Ellipse 15 copy 12" class="cls-1" d="M84,54.99h4a1,1,0,0,1,1,1v4a1,1,0,0,1-1,1H84a1,1,0,0,1-1-1v-4A1,1,0,0,1,84,54.99Zm10,0h4a1,1,0,0,1,1,1v4a1,1,0,0,1-1,1H94a1,1,0,0,1-1-1v-4A1,1,0,0,1,94,54.99Zm10,0h4a1,1,0,0,1,1,1v4a1,1,0,0,1-1,1h-4a1,1,0,0,1-1-1v-4A1,1,0,0,1,104,54.99Z" transform="translate(-44 -16.969)"/>
  <rect id="Rectangle_535_copy_2-2" data-name="Rectangle 535 copy 2" class="cls-5" x="51" y="12.031" width="4" height="4"/>
  <path id="Shape_1013_copy_5-5" data-name="Shape 1013 copy 5" class="cls-2" d="M83.987,19h26.007a2,2,0,0,1,2,2v4a2,2,0,0,1-2,2H83.987a2,2,0,0,1-2-2V21A2,2,0,0,1,83.987,19Z" transform="translate(-44 -16.969)"/>
  <path id="Shape_1013_copy_5-6" data-name="Shape 1013 copy 5" class="cls-1" d="M84,21h26.012v4H84V21h0Z" transform="translate(-44 -16.969)"/>
  <path id="Rectangle_545_copy_8" data-name="Rectangle 545 copy 8" class="cls-2" d="M85,57h2v2H85V57Zm10,0h2v2H95V57Zm10,0h2v2h-2V57Z" transform="translate(-44 -16.969)"/>
  <path id="Ellipse_15_copy_13" data-name="Ellipse 15 copy 13" class="cls-1" d="M84,64.991h4a1,1,0,0,1,1,1v4a1,1,0,0,1-1,1H84a1,1,0,0,1-1-1v-4A1,1,0,0,1,84,64.991Zm10,0h4a1,1,0,0,1,1,1v4a1,1,0,0,1-1,1H94a1,1,0,0,1-1-1v-4A1,1,0,0,1,94,64.991Zm10,0h4a1,1,0,0,1,1,1v4a1,1,0,0,1-1,1h-4a1,1,0,0,1-1-1v-4A1,1,0,0,1,104,64.991Z" transform="translate(-44 -16.969)"/>
  <path id="Rectangle_545_copy_9" data-name="Rectangle 545 copy 9" class="cls-2" d="M85,67h2v2H85V67Zm10,0h2v2H95V67Zm10,0h2v2h-2V67Z" transform="translate(-44 -16.969)"/>
  <path id="Ellipse_15_copy_10" data-name="Ellipse 15 copy 10" class="cls-1" d="M107.821,50.992H84.191A1.212,1.212,0,0,1,83,49.76V44.222a1.211,1.211,0,0,1,1.191-1.23h23.63a1.211,1.211,0,0,1,1.191,1.23V49.76A1.211,1.211,0,0,1,107.821,50.992Z" transform="translate(-44 -16.969)"/>
  <path id="Ellipse_15_copy_10-2" data-name="Ellipse 15 copy 10" class="cls-1" d="M61.006,44.991H75.985a2,2,0,0,1,2,2h0a2,2,0,0,1-2,2H61.006a2,2,0,0,1-2-2h0A2,2,0,0,1,61.006,44.991Z" transform="translate(-44 -16.969)"/>
  <path id="Rectangle_556_copy" data-name="Rectangle 556 copy" class="cls-6" d="M60.987,46.992v-11l2.488,2.166,2.491-2.169h0.009l2.491,2.169,2.491-2.169h0.009L73.5,38.161l2.491-2.169H76l0,11H60.987Z" transform="translate(-44 -16.969)"/>
  <rect id="Rectangle_553_copy" data-name="Rectangle 553 copy" class="cls-5" x="41" y="28.031" width="22" height="4"/>
</svg>
