<svg id="_2_1" data-name="2_1" xmlns="http://www.w3.org/2000/svg" width="151.063" height="88.875" viewBox="0 0 151.063 88.875">
  <metadata><?xpacket begin="﻿" id="W5M0MpCehiHzreSzNTczkc9d"?>
<x:xmpmeta xmlns:x="adobe:ns:meta/" x:xmptk="Adobe XMP Core 5.6-c138 79.159824, 2016/09/14-01:09:01        ">
   <rdf:RDF xmlns:rdf="http://www.w3.org/1999/02/22-rdf-syntax-ns#">
      <rdf:Description rdf:about=""/>
   </rdf:RDF>
</x:xmpmeta>
                                                                                                    
                                                                                                    
                                                                                                    
                                                                                                    
                                                                                                    
                                                                                                    
                                                                                                    
                                                                                                    
                                                                                                    
                                                                                                    
                                                                                                    
                                                                                                    
                                                                                                    
                                                                                                    
                                                                                                    
                                                                                                    
                                                                                                    
                                                                                                    
                                                                                                    
                                                                                                    
                           
<?xpacket end="w"?></metadata>
<defs>
    <style>
      .cls-1 {
        fill: #2c7457;
      }

      .cls-1, .cls-2, .cls-3 {
        fill-rule: evenodd;
        opacity: 0.5;
      }

      .cls-2 {
        fill: #16d488;
      }

      .cls-3 {
        fill: #226d4f;
      }
    </style>
  </defs>
  <path id="Rectangle_131_copy_13" data-name="Rectangle 131 copy 13" class="cls-1" d="M156.656,59.06L154,56.4l-2.657,2.656-1.414-1.415,2.657-2.655-2.657-2.658,1.414-1.414L154,53.574l2.657-2.656,1.414,1.414-2.657,2.658,2.657,2.655Z" transform="translate(-7 -10)"/>
  <path id="Rectangle_175_copy_15" data-name="Rectangle 175 copy 15" class="cls-2" d="M34,15.99H31v3a1,1,0,1,1-2,0v-3H26a1,1,0,0,1,0-2h3v-3a1,1,0,0,1,2,0v3h3A1,1,0,0,1,34,15.99Z" transform="translate(-7 -10)"/>
  <path id="Rounded_Rectangle_10_copy_12" data-name="Rounded Rectangle 10 copy 12" class="cls-2" d="M150,23.99h-7a1,1,0,0,1-1-1v-7a1,1,0,0,1,1-1h7a1,1,0,0,1,1,1v7A1,1,0,0,1,150,23.99Zm-1-7h-5v5h5v-5Z" transform="translate(-7 -10)"/>
  <path id="Shape_981_copy_9" data-name="Shape 981 copy 9" class="cls-3" d="M25.851,98.864L14.782,96.106l8.207-7.923Zm-7.162-3.8,4.339,1.079-1.122-4.186Z" transform="translate(-7 -10)"/>
  <path id="Rectangle_175_copy_19" data-name="Rectangle 175 copy 19" class="cls-3" d="M16,55.989H13v3a1,1,0,1,1-2,0v-3H8a1,1,0,1,1,0-2h3v-3a1,1,0,0,1,2,0v3h3A1,1,0,1,1,16,55.989Z" transform="translate(-7 -10)"/>
  <path id="Rectangle_175_copy_13" data-name="Rectangle 175 copy 13" class="cls-2" d="M155,90.991h-3v3a1,1,0,1,1-2,0v-3h-3a1,1,0,0,1,0-2h3v-3a1,1,0,0,1,2,0v3h3A1,1,0,0,1,155,90.991Z" transform="translate(-7 -10)"/>
</svg>
