<svg xmlns="http://www.w3.org/2000/svg" width="170" height="110" viewBox="0 0 170 110">
  <metadata><?xpacket begin="﻿" id="W5M0MpCehiHzreSzNTczkc9d"?>
<x:xmpmeta xmlns:x="adobe:ns:meta/" x:xmptk="Adobe XMP Core 5.6-c138 79.159824, 2016/09/14-01:09:01        ">
   <rdf:RDF xmlns:rdf="http://www.w3.org/1999/02/22-rdf-syntax-ns#">
      <rdf:Description rdf:about=""/>
   </rdf:RDF>
</x:xmpmeta>
                                                                                                    
                                                                                                    
                                                                                                    
                                                                                                    
                                                                                                    
                                                                                                    
                                                                                                    
                                                                                                    
                                                                                                    
                                                                                                    
                                                                                                    
                                                                                                    
                                                                                                    
                                                                                                    
                                                                                                    
                                                                                                    
                                                                                                    
                                                                                                    
                                                                                                    
                                                                                                    
                           
<?xpacket end="w"?></metadata>
<defs>
    <style>
      .cls-1 {
        fill: #f0f7f5;
        fill-rule: evenodd;
      }
    </style>
  </defs>
  <path id="_2_bg" data-name="2_bg" class="cls-1" d="M5,100H97a5,5,0,0,0,0-10l-78,0a5,5,0,1,1,0-10h9a5,5,0,1,0,0-10H5a5,5,0,0,1,0-10H22a5,5,0,1,0,0-10H5a5,5,0,1,1,0-10H78a5,5,0,0,0,0-10H10a5,5,0,1,1,0-10H54a5,5,0,0,0,0-10H5a5,5,0,1,1,0-10H150a5,5,0,1,1,0,10H74a5,5,0,0,0,0,10h86a5,5,0,1,1,0,10H98a5,5,0,0,0,0,10h67a5,5,0,1,1,0,10H42a5,5,0,1,0,0,10h83a5,5,0,0,1,0,10H48a5,5,0,1,0,0,10H165a5,5,0,1,1,0,10l-48,0a5,5,0,0,0,0,10h28a5,5,0,1,1,0,10H5A5,5,0,1,1,5,100ZM145,60h12a5,5,0,0,1,0,10H145A5,5,0,0,1,145,60Z"/>
</svg>
