<svg id="_3" data-name="3" xmlns="http://www.w3.org/2000/svg" width="60" height="74" viewBox="0 0 60 74">
  <metadata><?xpacket begin="﻿" id="W5M0MpCehiHzreSzNTczkc9d"?>
<x:xmpmeta xmlns:x="adobe:ns:meta/" x:xmptk="Adobe XMP Core 5.6-c138 79.159824, 2016/09/14-01:09:01        ">
   <rdf:RDF xmlns:rdf="http://www.w3.org/1999/02/22-rdf-syntax-ns#">
      <rdf:Description rdf:about=""/>
   </rdf:RDF>
</x:xmpmeta>
                                                                                                    
                                                                                                    
                                                                                                    
                                                                                                    
                                                                                                    
                                                                                                    
                                                                                                    
                                                                                                    
                                                                                                    
                                                                                                    
                                                                                                    
                                                                                                    
                                                                                                    
                                                                                                    
                                                                                                    
                                                                                                    
                                                                                                    
                                                                                                    
                                                                                                    
                                                                                                    
                           
<?xpacket end="w"?></metadata>
<defs>
    <style>
      .cls-1, .cls-4 {
        fill: #226d4f;
      }

      .cls-1, .cls-2, .cls-3 {
        fill-rule: evenodd;
      }

      .cls-2, .cls-5 {
        fill: #16d488;
      }

      .cls-3 {
        fill: #c1ecdb;
      }
    </style>
  </defs>
  <path class="cls-1" d="M59,16.99h52a4,4,0,0,1,4,4v66a4,4,0,0,1-4,4H59a4,4,0,0,1-4-4v-66A4,4,0,0,1,59,16.99Z" transform="translate(-55 -17)"/>
  <path id="Rectangle_54_copy" data-name="Rectangle 54 copy" class="cls-2" d="M59,18.989h52a2,2,0,0,1,2,2v66a2,2,0,0,1-2,2H59a2,2,0,0,1-2-2v-66A2,2,0,0,1,59,18.989Z" transform="translate(-55 -17)"/>
  <path class="cls-3" d="M61,38.992h48v46H61v-46h0Z" transform="translate(-55 -17)"/>
  <path class="cls-1" d="M101,22h6v9h-6V22Zm2,2h2v5h-2V24Z" transform="translate(-55 -17)"/>
  <rect class="cls-4" x="53" y="12" width="2" height="2"/>
  <path class="cls-1" d="M73,52.994H67a2,2,0,0,1-2-2v-6a2,2,0,0,1,2-2h6a2,2,0,0,1,2,2v6A2,2,0,0,1,73,52.994Zm0-8H67v6h6v-6Z" transform="translate(-55 -17)"/>
  <path class="cls-1" d="M73,66.992H67a2,2,0,0,1-2-2v-6a2,2,0,0,1,2-2h6a2,2,0,0,1,2,2v6A2,2,0,0,1,73,66.992Zm0-8H67v6h6v-6Z" transform="translate(-55 -17)"/>
  <path class="cls-1" d="M73,80.991H67a2,2,0,0,1-2-2v-6a2,2,0,0,1,2-2h6a2,2,0,0,1,2,2v6A2,2,0,0,1,73,80.991Zm0-8H67v6h6v-6Z" transform="translate(-55 -17)"/>
  <path class="cls-1" d="M88,80.991H82a2,2,0,0,1-2-2v-6a2,2,0,0,1,2-2h6a2,2,0,0,1,2,2v6A2,2,0,0,1,88,80.991Zm0-8H82v6h6v-6Z" transform="translate(-55 -17)"/>
  <path class="cls-1" d="M88,66.992H82a2,2,0,0,1-2-2v-6a2,2,0,0,1,2-2h6a2,2,0,0,1,2,2v6A2,2,0,0,1,88,66.992Zm0-8H82v6h6v-6Z" transform="translate(-55 -17)"/>
  <path class="cls-1" d="M103,80.991H97a2,2,0,0,1-2-2v-20a2,2,0,0,1,2-2h6a2,2,0,0,1,2,2v20A2,2,0,0,1,103,80.991Zm0-22H97v20h6v-20Z" transform="translate(-55 -17)"/>
  <path class="cls-1" d="M88,52.994H82a2,2,0,0,1-2-2v-6a2,2,0,0,1,2-2h6a2,2,0,0,1,2,2v6A2,2,0,0,1,88,52.994Zm0-8H82v6h6v-6Z" transform="translate(-55 -17)"/>
  <path class="cls-1" d="M103,52.994H97a2,2,0,0,1-2-2v-6a2,2,0,0,1,2-2h6a2,2,0,0,1,2,2v6A2,2,0,0,1,103,52.994Zm0-8H97v6h6v-6Z" transform="translate(-55 -17)"/>
  <rect class="cls-4" x="1" y="16" width="58" height="2"/>
  <rect class="cls-5" x="12" y="28" width="6" height="6"/>
  <rect id="Rectangle_537_copy_2" data-name="Rectangle 537 copy 2" class="cls-5" x="27" y="28" width="6" height="6"/>
  <rect id="Rectangle_537_copy_3" data-name="Rectangle 537 copy 3" class="cls-5" x="42" y="28" width="6" height="6"/>
  <rect id="Rectangle_537_copy_4" data-name="Rectangle 537 copy 4" class="cls-5" x="27" y="42" width="6" height="6"/>
  <rect id="Rectangle_537_copy_8" data-name="Rectangle 537 copy 8" class="cls-5" x="42" y="42" width="6" height="20"/>
  <rect id="Rectangle_537_copy_5" data-name="Rectangle 537 copy 5" class="cls-5" x="12" y="42" width="6" height="6"/>
  <rect id="Rectangle_537_copy_6" data-name="Rectangle 537 copy 6" class="cls-5" x="12" y="56" width="6" height="6"/>
  <rect id="Rectangle_537_copy_7" data-name="Rectangle 537 copy 7" class="cls-5" x="27" y="56" width="6" height="6"/>
</svg>
