<svg xmlns="http://www.w3.org/2000/svg" width="170" height="110" viewBox="0 0 170 110">
  <metadata><?xpacket begin="﻿" id="W5M0MpCehiHzreSzNTczkc9d"?>
<x:xmpmeta xmlns:x="adobe:ns:meta/" x:xmptk="Adobe XMP Core 5.6-c138 79.159824, 2016/09/14-01:09:01        ">
   <rdf:RDF xmlns:rdf="http://www.w3.org/1999/02/22-rdf-syntax-ns#">
      <rdf:Description rdf:about=""/>
   </rdf:RDF>
</x:xmpmeta>
                                                                                                    
                                                                                                    
                                                                                                    
                                                                                                    
                                                                                                    
                                                                                                    
                                                                                                    
                                                                                                    
                                                                                                    
                                                                                                    
                                                                                                    
                                                                                                    
                                                                                                    
                                                                                                    
                                                                                                    
                                                                                                    
                                                                                                    
                                                                                                    
                                                                                                    
                                                                                                    
                           
<?xpacket end="w"?></metadata>
<defs>
    <style>
      .cls-1 {
        fill: #f0f7f5;
        fill-rule: evenodd;
      }
    </style>
  </defs>
  <path id="_3_bg" data-name="3_bg" class="cls-1" d="M165,100H123a5,5,0,0,1,0-10l28,0a5,5,0,1,0,0-10H92a5,5,0,1,1,0-10h73a5,5,0,0,0,0-10H128a5,5,0,1,1,0-10h37a5,5,0,1,0,0-10H92a5,5,0,0,1,0-10h8a5,5,0,1,0,0-10H56a5,5,0,0,1,0-10H165a5,5,0,1,0,0-10H10a5,5,0,1,0,0,10H36a5,5,0,0,1,0,10H20a5,5,0,1,0,0,10H72a5,5,0,0,1,0,10H35a5,5,0,1,0,0,10h73a5,5,0,1,1,0,10H5A5,5,0,0,0,5,70H72a5,5,0,1,1,0,10H25a5,5,0,1,0,0,10l78,0a5,5,0,0,1,0,10H55a5,5,0,1,0,0,10H165A5,5,0,1,0,165,100Zm-142,0H35a5,5,0,0,1,0,10H23A5,5,0,0,1,23,99.994Zm97-80h42a5,5,0,1,1,0,10H120A5,5,0,1,1,120,19.994Z"/>
</svg>
