<?xml version="1.0" encoding="utf-8"?>
<!-- Generator: Adobe Illustrator 21.1.0, SVG Export Plug-In . SVG Version: 6.00 Build 0)  -->
<svg version="1.1" id="_1" xmlns="http://www.w3.org/2000/svg" xmlns:xlink="http://www.w3.org/1999/xlink" x="0px" y="0px"
	 viewBox="0 0 128 77" style="enable-background:new 0 0 128 77;" xml:space="preserve">
<style type="text/css">
	.st0{fill:#226D4F;}
	.st1{fill:#16D488;}
</style>
<path class="st0" d="M12.1,74.9V17.1c-1,0.3-2.6,0.8-5.2,1.5c-1.1,0.3-2,0.6-2.7,0.8c-0.2,0.1-0.5,0.1-0.7,0.1l0,0
	c-1.3,0-2.4-1.1-2.4-2.4V9.2L1.7,9C4.3,8,6.8,6.9,9.3,5.6c2.2-1,4.2-2.5,5.8-4.2L15.4,1h10.9v73.9L12.1,74.9L12.1,74.9z M25.4,2
	v71.9H13.1V15.6c-0.6,0.4-2.7,1.1-6.5,2c-1.1,0.3-2.1,0.6-2.8,0.8c-0.1,0-0.3,0.1-0.4,0.1c-0.8,0-1.4-0.6-1.4-1.4V9.9
	c2.7-1,5.2-2.1,7.7-3.4c2.3-1.1,4.4-2.6,6.2-4.5L25.4,2 M27.4,0H15l-0.6,0.7c-1.6,1.7-3.5,3-5.5,4C6.4,6,3.9,7.1,1.3,8L0,8.5v8.6
	c0,1.9,1.5,3.4,3.4,3.4c0.3,0,0.7-0.1,1-0.1l2.7-0.8c1.7-0.4,3-0.8,3.9-1.1v57.4h16.3L27.4,0L27.4,0L27.4,0z M56,76
	c-7.1,0-12.1-2-14.9-5.9c-2.7-3.8-4.1-9.4-4.1-16.8v-1h13.9v1c0,3.9,0.4,6.9,1.2,8.8c0.7,1.7,2.1,2.5,4.3,2.5
	c1.4,0.1,2.7-0.4,3.5-1.5c0.9-1.4,1.5-3,1.6-4.7c0.3-3,0.4-5.9,0.4-8.9c0-4.6-0.4-8-1.3-10.1c-0.7-1.9-2.2-2.7-4.6-2.7
	c-1.3,0-2.6,0.5-3.5,1.4c-1.1,1.2-1.9,2.6-2.3,4.2l-0.2,0.7H37.9L38.7,1h34.2v13h-22l-0.6,14.1c0.9-0.6,1.9-1.1,2.9-1.4
	c2.1-0.7,4.3-1.1,6.5-1.1c5.4,0,9.5,2.1,12.1,6.3c2.5,4,3.8,9.7,3.8,16.9c0.1,4.8-0.4,9.6-1.6,14.2c-0.9,3.7-3,7-6,9.5
	C65.3,74.8,61.2,76,56,76L56,76z M71.9,2v11h-22l-0.7,17.3c1.2-1.2,2.7-2.2,4.3-2.7c2-0.7,4.1-1,6.2-1c5.1,0,8.8,1.9,11.3,5.8
	c2.4,3.9,3.7,9.3,3.7,16.4c0.1,4.7-0.4,9.4-1.5,13.9c-0.9,3.5-2.8,6.7-5.6,9C64.8,73.9,61,75,56,75c-6.8,0-11.5-1.8-14.1-5.5
	c-2.6-3.6-3.9-9-3.9-16.2h11.9c0,4.1,0.4,7.2,1.3,9.2c0.9,2.1,2.6,3.1,5.2,3.1c1.7,0.1,3.3-0.6,4.3-1.9c1-1.5,1.7-3.3,1.8-5.1
	c0.3-3,0.4-6,0.4-9c0-4.7-0.4-8.2-1.3-10.5c-0.9-2.2-2.7-3.4-5.5-3.4c-1.6,0-3.1,0.6-4.2,1.7c-1.2,1.3-2.1,2.9-2.5,4.6H39l0.7-40
	L71.9,2 M73.9,0H37.7l0,2L37,42l0,2H51l0.4-1.5c0.3-1.4,1-2.7,2-3.7c0.7-0.7,1.8-1.2,2.8-1.1c2.5,0,3.2,1.1,3.6,2.1
	c0.8,2,1.2,5.3,1.2,9.7c0,2.9-0.1,5.8-0.4,8.8c-0.1,1.5-0.6,2.9-1.4,4.2c-0.7,0.8-1.7,1.2-2.7,1.1c-2.3,0-3-1-3.4-1.9
	c-0.8-1.8-1.2-4.6-1.2-8.4v-2H36v2c0,7.6,1.5,13.4,4.3,17.4c3,4.2,8.3,6.3,15.7,6.3c5.4,0,9.7-1.3,12.8-3.7c3.1-2.6,5.3-6.1,6.3-10
	c1.2-4.7,1.7-9.6,1.6-14.5c0-7.4-1.3-13.3-4-17.5c-2.8-4.5-7.2-6.8-13-6.8c-2.3,0-4.7,0.4-6.9,1.1c-0.5,0.2-1,0.4-1.5,0.6L51.8,15
	h22L73.9,0L73.9,0L73.9,0z M103.8,56.3V42H91.2v-9.8h12.6V18h10.4v14.2H127V42h-12.8v14.3H103.8L103.8,56.3z M113.2,19v14.2H126V41
	h-12.8v14.3h-8.4V41H92.2v-7.8h12.6V19H113.2 M115.2,17h-12.4v14.2H90.2V43h12.6v14.3h12.4V43H128V31.2h-12.8L115.2,17L115.2,17
	L115.2,17z M27.4,0H15l-0.6,0.7c-1.6,1.7-3.5,3-5.5,4C6.4,6,3.9,7.1,1.3,8L0,8.5v8.6c0,1.9,1.5,3.4,3.4,3.4c0.3,0,0.7-0.1,1-0.1
	l2.7-0.8c1.7-0.4,3-0.8,3.9-1.1v57.4h16.3L27.4,0L27.4,0L27.4,0z M74,0H37.9l0,2l-0.7,40l0,2h14.1l0.4-1.5c0.3-1.4,1-2.7,2-3.7
	c0.7-0.7,1.8-1.2,2.8-1.1c2.5,0,3.2,1.1,3.6,2.1c0.8,2,1.2,5.3,1.2,9.7c0,2.9-0.1,5.8-0.4,8.8c-0.1,1.5-0.6,2.9-1.4,4.2
	c-0.7,0.8-1.7,1.2-2.7,1.1c-2.3,0-3-1-3.4-1.9c-0.8-1.8-1.2-4.6-1.2-8.4v-2h-16v2c0,7.6,1.5,13.4,4.3,17.4c3,4.2,8.3,6.3,15.7,6.3
	c5.4,0,9.7-1.3,12.8-3.7c3.1-2.6,5.3-6.1,6.3-10c1.2-4.7,1.7-9.6,1.6-14.5c0-7.4-1.3-13.3-4-17.5c-2.8-4.5-7.2-6.8-13-6.8
	c-2.3,0-4.7,0.4-6.9,1.1c-0.5,0.2-1,0.4-1.5,0.6L52,15h22L74,0L74,0L74,0z M115.2,17.1h-12.4v14.2H90.2v11.8h12.6v14.3h12.4V43.2
	H128V31.3h-12.8L115.2,17.1L115.2,17.1L115.2,17.1z"/>
<path id="Shape_1058_copy" class="st1" d="M25.4,2v71.9H13.1V15.6c-0.6,0.4-2.7,1.1-6.5,2c-1.1,0.3-2.1,0.6-2.8,0.8
	c-0.1,0-0.3,0.1-0.4,0.1c-0.8,0-1.4-0.6-1.4-1.4V9.9c2.7-1,5.2-2.1,7.7-3.4c2.3-1.1,4.4-2.6,6.2-4.5L25.4,2 M71.9,2v11h-22
	l-0.7,17.3c1.2-1.2,2.7-2.2,4.3-2.7c2-0.7,4.1-1,6.2-1c5.1,0,8.8,1.9,11.3,5.8c2.4,3.9,3.7,9.3,3.7,16.4c0.1,4.7-0.4,9.4-1.5,13.9
	c-0.9,3.5-2.8,6.7-5.6,9C64.8,73.9,61,75,56,75c-6.8,0-11.5-1.8-14.1-5.5c-2.6-3.6-3.9-9-3.9-16.2h11.9c0,4.1,0.4,7.2,1.3,9.2
	c0.9,2.1,2.6,3.1,5.2,3.1c1.7,0.1,3.3-0.6,4.3-1.9c1-1.5,1.7-3.3,1.8-5.1c0.3-3,0.4-6,0.4-9c0-4.7-0.4-8.2-1.3-10.5
	c-0.9-2.2-2.7-3.4-5.5-3.4c-1.6,0-3.1,0.6-4.2,1.7c-1.2,1.3-2.1,2.9-2.5,4.6H39l0.7-40L71.9,2 M113.2,19v14.2H126V41h-12.8v14.3
	h-8.4V41H92.2v-7.8h12.6V19H113.2"/>
</svg>
