<svg id="_1_1" data-name="1_1" xmlns="http://www.w3.org/2000/svg" width="212.063" height="86.87" viewBox="0 0 212.063 86.87">
  <metadata><?xpacket begin="﻿" id="W5M0MpCehiHzreSzNTczkc9d"?>
<x:xmpmeta xmlns:x="adobe:ns:meta/" x:xmptk="Adobe XMP Core 5.6-c138 79.159824, 2016/09/14-01:09:01        ">
   <rdf:RDF xmlns:rdf="http://www.w3.org/1999/02/22-rdf-syntax-ns#">
      <rdf:Description rdf:about=""/>
   </rdf:RDF>
</x:xmpmeta>
                                                                                                    
                                                                                                    
                                                                                                    
                                                                                                    
                                                                                                    
                                                                                                    
                                                                                                    
                                                                                                    
                                                                                                    
                                                                                                    
                                                                                                    
                                                                                                    
                                                                                                    
                                                                                                    
                                                                                                    
                                                                                                    
                                                                                                    
                                                                                                    
                                                                                                    
                                                                                                    
                           
<?xpacket end="w"?></metadata>
<defs>
    <style>
      .cls-1 {
        fill: #2c7457;
      }

      .cls-1, .cls-2, .cls-3 {
        fill-rule: evenodd;
        opacity: 0.5;
      }

      .cls-2 {
        fill: #16d488;
      }

      .cls-3 {
        fill: #226d4f;
      }
    </style>
  </defs>
  <path id="Rectangle_131_copy_2" data-name="Rectangle 131 copy 2" class="cls-1" d="M298.656,2777.07L296,2774.41l-2.657,2.66-1.414-1.42,2.656-2.65-2.656-2.66,1.414-1.42,2.657,2.66,2.656-2.66,1.415,1.42-2.657,2.66,2.657,2.65Z" transform="translate(-266 -2762.19)"/>
  <path id="Shape_981_copy_2" data-name="Shape 981 copy 2" class="cls-2" d="M446.851,2772.87l-11.068-2.76,8.206-7.92Zm-7.162-3.8,4.339,1.08-1.122-4.19Z" transform="translate(-266 -2762.19)"/>
  <path id="Rectangle_131_copy_3" data-name="Rectangle 131 copy 3" class="cls-2" d="M299.656,2849.07L297,2846.41l-2.656,2.66-1.415-1.42,2.657-2.65-2.657-2.66,1.415-1.42,2.656,2.66,2.657-2.66,1.414,1.42-2.656,2.66,2.656,2.65Z" transform="translate(-266 -2762.19)"/>
  <path id="Ellipse_42_copy_3" data-name="Ellipse 42 copy 3" class="cls-3" d="M270,2817a4,4,0,1,1,4-4A4,4,0,0,1,270,2817Zm0-6a2,2,0,1,0,2,2A2,2,0,0,0,270,2811Z" transform="translate(-266 -2762.19)"/>
  <path id="Rectangle_131_copy_8" data-name="Rectangle 131 copy 8" class="cls-1" d="M476.656,2809.07L474,2806.41l-2.657,2.66-1.414-1.42,2.656-2.65-2.656-2.66,1.414-1.42,2.657,2.66,2.656-2.66,1.415,1.42-2.657,2.66,2.657,2.65Z" transform="translate(-266 -2762.19)"/>
</svg>
