<?xml version="1.0" encoding="utf-8"?>
<!-- Generator: Adobe Illustrator 21.1.0, SVG Export Plug-In . SVG Version: 6.00 Build 0)  -->
<svg version="1.1" id="_2" xmlns="http://www.w3.org/2000/svg" xmlns:xlink="http://www.w3.org/1999/xlink" x="0px" y="0px"
	 viewBox="0 0 135 78" style="enable-background:new 0 0 135 78;" xml:space="preserve">
<style type="text/css">
	.st0{fill:#226D4F;}
	.st1{fill:#16D488;}
</style>
<path class="st0" d="M110.8,57.3V43H98.2v-9.8h12.6V18.9h10.4v14.2H134V43h-12.8v14.3H110.8z M120.2,19.9v14.2H133V42h-12.8v14.3
	h-8.4V42H99.2v-7.8h12.6V19.9H120.2 M122.2,17.9h-12.4v14.2H97.2V44h12.6v14.3h12.4V44H135V32.1h-12.8L122.2,17.9L122.2,17.9
	L122.2,17.9z M5.8,75.9l14.4-62.7H1V1.8h33.5v8.6L19.7,75.9L5.8,75.9L5.8,75.9z M33.5,2.8v7.5L18.9,74.9H7l14.4-62.7H2V2.8H33.5
	 M35.5,0.8H0v13.4h18.9L5.1,74.5l-0.6,2.4h16l0.4-1.6l14.6-64.6l0-0.2L35.5,0.8L35.5,0.8L35.5,0.8z M61.4,77c-6.4,0-11.4-2-14.8-6.1
	c-3.3-4-5-9.3-5-15.9v-32c0-6.8,1.6-12.2,4.9-16.1c3.3-4,8.3-6,14.9-6c6.5,0,11.5,2,14.7,6C79.4,11,81,16.4,81,23.1v32
	c0,6.6-1.7,11.9-5,15.9C72.6,75,67.7,77,61.4,77z M61.4,13.6c-2.2,0-3.5,0.7-4.1,2.3c-0.9,2.4-1.3,4.8-1.2,7.4v31.6
	c0,9.5,4,9.5,5.3,9.5c1.3,0,5.2,0,5.2-9.5V23.3c0.1-2.5-0.3-5-1.2-7.3C64.7,14.4,63.5,13.6,61.4,13.6z M61.4,2
	c6.2,0,10.9,1.9,14,5.6c3.1,3.8,4.7,8.9,4.7,15.5v32c0,6.3-1.6,11.4-4.8,15.2C72,74.1,67.4,76,61.4,76c-6.2,0-10.8-1.9-14-5.7
	c-3.2-3.8-4.8-8.9-4.8-15.2v-32c0-6.6,1.6-11.8,4.7-15.5C50.3,3.9,55,2,61.4,2 M61.4,65.4c4.1,0,6.2-3.5,6.2-10.5V23.3
	c0.1-2.6-0.3-5.2-1.2-7.7c-0.8-2-2.5-3-5-3c-2.5,0-4.2,1-5.1,2.9c-0.9,2.5-1.3,5.1-1.2,7.7v31.6C55.1,61.9,57.2,65.4,61.4,65.4
	 M61.2,0C54.3,0,49,2.1,45.6,6.3c-3.4,4.1-5.1,9.7-5.1,16.8v32c0,6.8,1.8,12.4,5.3,16.5c3.6,4.3,8.8,6.4,15.5,6.4
	c6.6,0,11.8-2.2,15.4-6.4c3.5-4.1,5.3-9.7,5.3-16.5v-32c0-7-1.7-12.6-5.1-16.7C73.3,2.2,68.1,0,61.2,0L61.2,0L61.2,0z M61.5,63.4
	c-1.2,0-4.3,0-4.3-8.5V23.3c-0.1-2.4,0.3-4.7,1.1-7c0.4-0.9,1-1.7,3.2-1.7c2.1,0,2.8,0.9,3.1,1.8c0.8,2.2,1.2,4.6,1.1,6.9v31.6
	C65.7,63.4,62.6,63.4,61.5,63.4L61.5,63.4L61.5,63.4z M35.5,0.9H0v13.4h18.9L5.1,74.6l-0.6,2.4h16l0.4-1.6l14.6-64.6l0-0.2L35.5,0.9
	L35.5,0.9L35.5,0.9z M61.7,0C54.8,0,49.5,2.1,46,6.3c-3.4,4.1-5.1,9.7-5.1,16.8v32c0,6.8,1.8,12.4,5.3,16.5C49.7,75.8,55,78,61.7,78
	c6.6,0,11.8-2.2,15.4-6.4c3.5-4.1,5.3-9.7,5.3-16.5v-32c0-7-1.7-12.6-5.1-16.7C73.7,2.2,68.5,0,61.7,0L61.7,0L61.7,0z M61.5,63.4
	c-1.2,0-4.3,0-4.3-8.5V23.3c-0.1-2.4,0.3-4.7,1.1-7c0.4-0.9,1-1.7,3.2-1.7c2.1,0,2.8,0.9,3.1,1.8c0.8,2.2,1.2,4.6,1.1,6.9v31.6
	C65.7,63.4,62.6,63.4,61.5,63.4L61.5,63.4L61.5,63.4z M122.2,17.9h-12.4v14.2H97.2V44h12.6v14.3h12.4V44H135V32.1h-12.8L122.2,17.9
	L122.2,17.9L122.2,17.9z"/>
<path id="Shape_1059_copy" class="st1" d="M120.2,19.9v14.2H133V42h-12.8v14.3h-8.4V42H99.2v-7.8h12.6V19.9H120.2 M33.5,2.8v7.5
	L18.9,74.9H7l14.4-62.7H2V2.8H33.5 M61.4,2c6.2,0,10.9,1.9,14,5.6c3.1,3.8,4.7,8.9,4.7,15.5v32c0,6.3-1.6,11.4-4.8,15.2
	C72,74.1,67.4,76,61.4,76c-6.2,0-10.8-1.9-14-5.7c-3.2-3.8-4.8-8.9-4.8-15.2v-32c0-6.6,1.6-11.8,4.7-15.5C50.3,3.9,55,2,61.4,2
	 M61.4,65.4c4.1,0,6.2-3.5,6.2-10.5V23.3c0.1-2.6-0.3-5.2-1.2-7.7c-0.8-2-2.5-3-5-3c-2.5,0-4.2,1-5.1,2.9c-0.9,2.5-1.3,5.1-1.2,7.7
	v31.6C55.1,61.9,57.2,65.4,61.4,65.4"/>
</svg>
