<svg id="_2_1" data-name="2_1" xmlns="http://www.w3.org/2000/svg" width="236.062" height="82.06" viewBox="0 0 236.062 82.06">
  <metadata><?xpacket begin="﻿" id="W5M0MpCehiHzreSzNTczkc9d"?>
<x:xmpmeta xmlns:x="adobe:ns:meta/" x:xmptk="Adobe XMP Core 5.6-c138 79.159824, 2016/09/14-01:09:01        ">
   <rdf:RDF xmlns:rdf="http://www.w3.org/1999/02/22-rdf-syntax-ns#">
      <rdf:Description rdf:about=""/>
   </rdf:RDF>
</x:xmpmeta>
                                                                                                    
                                                                                                    
                                                                                                    
                                                                                                    
                                                                                                    
                                                                                                    
                                                                                                    
                                                                                                    
                                                                                                    
                                                                                                    
                                                                                                    
                                                                                                    
                                                                                                    
                                                                                                    
                                                                                                    
                                                                                                    
                                                                                                    
                                                                                                    
                                                                                                    
                                                                                                    
                           
<?xpacket end="w"?></metadata>
<defs>
    <style>
      .cls-1 {
        fill: #16d488;
      }

      .cls-1, .cls-2 {
        fill-rule: evenodd;
        opacity: 0.5;
      }

      .cls-2 {
        fill: #2c7457;
      }
    </style>
  </defs>
  <path id="Ellipse_42_copy" data-name="Ellipse 42 copy" class="cls-1" d="M922,2841a4,4,0,1,1,4-4A4,4,0,0,1,922,2841Zm0-6a2,2,0,1,0,2,2A2,2,0,0,0,922,2835Z" transform="translate(-689.938 -2758.94)"/>
  <path id="Rectangle_131_copy_6" data-name="Rectangle 131 copy 6" class="cls-1" d="M696.656,2803.07L694,2800.41l-2.656,2.66-1.415-1.42,2.657-2.65-2.657-2.66,1.415-1.42,2.656,2.66,2.657-2.66,1.415,1.42-2.657,2.66,2.657,2.65Z" transform="translate(-689.938 -2758.94)"/>
  <path id="Rectangle_131_copy_10" data-name="Rectangle 131 copy 10" class="cls-2" d="M726.656,2767.07L724,2764.41l-2.657,2.66-1.414-1.42,2.656-2.65-2.656-2.66,1.414-1.42,2.657,2.66,2.656-2.66,1.415,1.42-2.657,2.66,2.657,2.65Z" transform="translate(-689.938 -2758.94)"/>
  <path id="Rectangle_131_copy_11" data-name="Rectangle 131 copy 11" class="cls-2" d="M918.656,2804.07L916,2801.41l-2.657,2.66-1.414-1.42,2.656-2.65-2.656-2.66,1.414-1.42,2.657,2.66,2.656-2.66,1.415,1.42-2.657,2.66,2.657,2.65Z" transform="translate(-689.938 -2758.94)"/>
  <path id="Shape_981_copy_6" data-name="Shape 981 copy 6" class="cls-2" d="M727.261,2840.55l-11.4.2,5.876-9.77Zm-7.9-1.82,4.471-.08-2.168-3.75Z" transform="translate(-689.938 -2758.94)"/>
  <path id="Rounded_Rectangle_10_copy_6" data-name="Rounded Rectangle 10 copy 6" class="cls-1" d="M866,2768h-7a1,1,0,0,1-1-1v-7a1,1,0,0,1,1-1h7a1,1,0,0,1,1,1v7A1,1,0,0,1,866,2768Zm-1-7h-5v5h5v-5Z" transform="translate(-689.938 -2758.94)"/>
</svg>
