<?xml version="1.0" encoding="utf-8"?>
<!-- Generator: Adobe Illustrator 21.1.0, SVG Export Plug-In . SVG Version: 6.00 Build 0)  -->
<svg version="1.1" id="_3" xmlns="http://www.w3.org/2000/svg" xmlns:xlink="http://www.w3.org/1999/xlink" x="0px" y="0px"
	 viewBox="0 0 140 78" style="enable-background:new 0 0 140 78;" xml:space="preserve">
<style type="text/css">
	.st0{fill:#226D4F;}
	.st1{fill:#16D488;}
</style>
<path class="st0" d="M115.8,57.3V43h-12.6v-9.8h12.6V18.9h10.4v14.2H139V43h-12.8v14.3H115.8z M125.2,19.9v14.2H138V42h-12.8v14.3
	h-8.4V42h-12.6v-7.8h12.6V19.9H125.2 M127.2,17.9h-12.4v14.2h-12.6V44h12.6v14.3h12.4V44H140V32.1h-12.8V17.9L127.2,17.9z M20.8,77
	C7.7,77,1,69.7,1,55.4v-3.5h14.3V55c0.1,3.5,0.5,6,1.4,7.6c0.8,1.4,2.2,2.1,4.3,2.1c2.1,0,3.5-0.7,4.2-2.2c0.8-1.7,1.3-4.4,1.3-8.1
	c0-3.7-0.6-6.5-1.8-8.4c-1.1-1.8-3-2.7-5.7-2.8h-3V31.3h2.8c2.8-0.1,4.9-0.8,6-2.2c1.2-1.5,1.8-4,1.8-7.6c0-3.1-0.4-5.3-1.3-6.8
	c-0.8-1.3-2.2-1.9-4.3-1.9c-2.1,0-3.4,0.7-4.1,2.1c-0.8,1.6-1.3,4-1.3,7.2v3.6H1v-4.4c0-6.4,1.7-11.4,5.1-15C9.5,2.8,14.5,1,20.7,1
	C27.1,1,32,2.8,35.5,6.2s5.1,8.4,5.1,14.8c0.1,3.9-0.8,7.7-2.8,11c-1.3,2.1-3,3.7-5.2,4.9c2.2,1.2,4,3,5.3,5.2c1.8,3,2.7,7,2.7,12
	c0,7.1-1.6,12.7-4.8,16.7C32.6,74.9,27.6,77,20.8,77z M20.7,2c6.1,0,10.8,1.6,14,4.9s4.8,8,4.8,14.1c0.1,3.7-0.8,7.3-2.6,10.4
	c-1.5,2.6-4,4.5-6.9,5.4c2.9,1,5.4,3,7,5.7c1.7,2.8,2.5,6.7,2.5,11.5c0,6.9-1.5,12.2-4.5,16.1c-3,3.9-7.8,5.8-14.2,5.8
	C8.3,76,2,69.1,2,55.4v-2.5h12.3V55c0.1,3.7,0.6,6.4,1.5,8.1s2.7,2.6,5.2,2.6s4.2-0.9,5.1-2.8s1.4-4.7,1.4-8.5
	c0-3.9-0.6-6.9-1.9-8.9S22,42.4,19,42.2h-2v-9.9h1.8c3.2-0.1,5.5-0.9,6.8-2.6s1.9-4.4,1.9-8.2c0-3.3-0.5-5.7-1.5-7.3
	s-2.7-2.4-5.2-2.4c-2.4,0-4.1,0.9-5,2.6s-1.4,4.3-1.5,7.6v2.6H2v-3.4C2,15.1,3.6,10.4,6.8,7C10.1,3.7,14.7,2,20.7,2 M20.7,0
	C14.2,0,9,1.9,5.4,5.6C1.8,9.4,0,14.6,0,21.3v5.4h16.3v-4.6c-0.1-2.3,0.3-4.6,1.2-6.7c0.4-0.7,1.1-1.5,3.3-1.5
	c2.3,0,3.1,0.8,3.5,1.4c0.5,0.9,1.2,2.7,1.2,6.3c0,4.1-0.8,6.1-1.5,6.9c-0.9,1.2-2.7,1.8-5.2,1.8h-3.7v13.9h4c2.4,0.1,4,0.9,4.9,2.4
	c1.1,1.7,1.6,4.3,1.6,7.8c0,4.4-0.6,6.6-1.2,7.6c-0.4,0.8-1.1,1.6-3.3,1.6c-2.3,0-3-0.9-3.4-1.5c-0.5-1-1.2-3-1.3-7.2v-4.1H0v4.5
	C0,70.2,7.2,78,20.8,78c7.1,0,12.4-2.2,15.8-6.6c3.3-4.2,4.9-10,4.9-17.3c0-5.2-0.9-9.4-2.8-12.6c-1.1-1.8-2.5-3.4-4.2-4.6
	c1.6-1.2,3-2.7,4.1-4.4c2.1-3.5,3.1-7.5,2.9-11.5c0-6.6-1.8-11.8-5.4-15.5S27.4,0,20.7,0L20.7,0L20.7,0z M68.3,77
	c-6.4,0-11.4-2-14.8-6.1c-3.3-4-5-9.3-5-15.9V23.2c0-6.8,1.7-12.2,4.9-16.1c3.3-4,8.3-6,14.9-6c6.5,0,11.5,2,14.8,6
	C86.3,11,88,16.4,88,23.2v31.9c0,6.6-1.7,11.9-5,15.9C79.6,75,74.7,77,68.3,77L68.3,77z M68.3,13.7c-2.2,0-3.5,0.7-4.1,2.3
	c-0.9,2.3-1.3,4.8-1.2,7.3v31.6c0,9.5,4,9.5,5.3,9.5c1.3,0,5.2,0,5.2-9.5V23.3c0.1-2.5-0.3-5-1.2-7.3C71.7,14.4,70.4,13.7,68.3,13.7
	L68.3,13.7z M68.3,2.1c6.2,0,10.9,1.9,14,5.6c3.1,3.8,4.7,8.9,4.7,15.4v31.9c0,6.3-1.6,11.4-4.8,15.2C79,74.1,74.4,76,68.3,76
	c-6.2,0-10.8-1.9-14-5.7c-3.2-3.8-4.8-8.9-4.8-15.2V23.2c0-6.6,1.6-11.8,4.7-15.5C57.3,3.9,62,2.1,68.3,2.1 M68.3,65.4
	c4.1,0,6.2-3.5,6.2-10.5V23.3c0.1-2.6-0.3-5.2-1.2-7.7c-0.8-2-2.5-3-5-3c-2.5,0-4.2,1-5.1,2.9c-0.9,2.5-1.3,5.1-1.2,7.7v31.6
	C62,61.9,64.1,65.4,68.3,65.4 M68.5,0c-6.9,0-12.2,2.1-15.7,6.3c-3.4,4.1-5.1,9.7-5.1,16.8v31.9c0,6.8,1.8,12.4,5.3,16.5
	c3.6,4.2,8.8,6.4,15.6,6.4c6.6,0,11.8-2.2,15.4-6.4c3.5-4.1,5.3-9.7,5.3-16.5V23.1c0-7-1.7-12.6-5.1-16.7C80.5,2.2,75.3,0,68.5,0
	L68.5,0L68.5,0z M68.3,63.4c-1.2,0-4.3,0-4.3-8.5V23.3c-0.1-2.4,0.3-4.7,1.1-6.9c0.4-0.9,1-1.7,3.2-1.7c2.1,0,2.8,0.9,3.1,1.8
	c0.8,2.2,1.2,4.6,1.1,6.9v31.6C72.6,63.4,69.4,63.4,68.3,63.4L68.3,63.4L68.3,63.4z M20.7,0C14.2,0,9,1.9,5.4,5.6
	C1.8,9.4,0,14.6,0,21.3v5.4h16.3v-4.6c-0.1-2.3,0.3-4.6,1.2-6.7c0.4-0.7,1.1-1.5,3.3-1.5c2.3,0,3.1,0.8,3.5,1.4
	c0.5,0.9,1.2,2.7,1.2,6.3c0,4.1-0.8,6.1-1.5,6.9c-0.9,1.2-2.7,1.8-5.2,1.8h-3.7v13.9h4c2.4,0.1,4,0.9,4.9,2.4
	c1.1,1.7,1.6,4.3,1.6,7.8c0,4.4-0.6,6.6-1.2,7.6c-0.4,0.8-1.1,1.6-3.3,1.6c-2.3,0-3-0.9-3.4-1.5c-0.5-1-1.2-3-1.3-7.2v-4.1H0v4.5
	C0,70.2,7.2,78,20.8,78c7.1,0,12.4-2.2,15.8-6.6c3.3-4.2,4.9-10,4.9-17.3c0-5.2-0.9-9.4-2.8-12.6c-1.1-1.8-2.5-3.4-4.2-4.6
	c1.6-1.2,3-2.7,4.1-4.4c2.1-3.5,3.1-7.5,2.9-11.5c0-6.6-1.8-11.8-5.4-15.5S27.4,0,20.7,0L20.7,0L20.7,0z M68.3,0
	c-6.9,0-12.2,2.1-15.7,6.3c-3.4,4.1-5.1,9.7-5.1,16.8v31.9c0,6.8,1.8,12.4,5.3,16.5c3.6,4.2,8.8,6.4,15.6,6.4
	c6.6,0,11.8-2.2,15.4-6.4c3.5-4.1,5.3-9.7,5.3-16.5V23.1c0-7-1.7-12.6-5.1-16.7C80.4,2.2,75.2,0,68.3,0L68.3,0L68.3,0z M68.3,63.4
	c-1.2,0-4.3,0-4.3-8.5V23.3c-0.1-2.4,0.3-4.7,1.1-6.9c0.4-0.9,1-1.7,3.2-1.7c2.1,0,2.8,0.9,3.1,1.7c0.8,2.2,1.2,4.6,1.1,6.9v31.6
	C72.6,63.4,69.4,63.4,68.3,63.4L68.3,63.4L68.3,63.4z M127.2,18.1h-12.4v14.2h-12.6v11.8h12.6v14.3h12.4V44.1H140V32.3h-12.8V18.1
	L127.2,18.1z"/>
<path id="Shape_1060_copy" class="st1" d="M125.2,19.9v14.2H138V42h-12.8v14.3h-8.4V42h-12.6v-7.8h12.6V19.9H125.2 M20.7,2
	c6.1,0,10.8,1.6,14,4.9s4.8,8,4.8,14.1c0.1,3.7-0.8,7.3-2.6,10.4c-1.5,2.6-4,4.5-6.9,5.4c2.9,1,5.4,3,7,5.7
	c1.7,2.8,2.5,6.7,2.5,11.5c0,6.9-1.5,12.2-4.5,16.1c-3,3.9-7.8,5.8-14.2,5.8C8.3,76,2,69.1,2,55.4v-2.5h12.3V55
	c0.1,3.7,0.6,6.4,1.5,8.1s2.7,2.6,5.2,2.6s4.2-0.9,5.1-2.8s1.4-4.7,1.4-8.5c0-3.9-0.6-6.9-1.9-8.9S22,42.4,19,42.2h-2v-9.9h1.8
	c3.2-0.1,5.5-0.9,6.8-2.6s1.9-4.4,1.9-8.2c0-3.3-0.5-5.7-1.5-7.3s-2.7-2.4-5.2-2.4c-2.4,0-4.1,0.9-5,2.6s-1.4,4.3-1.5,7.6v2.6H2
	v-3.4C2,15.1,3.6,10.4,6.8,7C10.1,3.7,14.7,2,20.7,2 M68.3,2.1c6.2,0,10.9,1.9,14,5.6c3.1,3.8,4.7,8.9,4.7,15.4v31.9
	c0,6.3-1.6,11.4-4.8,15.2S74.4,76,68.3,76c-6.2,0-10.8-1.9-14-5.7c-3.2-3.8-4.8-8.9-4.8-15.2V23.2c0-6.6,1.6-11.8,4.7-15.5
	C57.3,4,62,2.1,68.3,2.1 M68.3,65.4c4.1,0,6.2-3.5,6.2-10.5V23.3c0.1-2.6-0.3-5.2-1.2-7.7c-0.8-2-2.5-3-5-3c-2.5,0-4.2,1-5.1,2.9
	c-0.9,2.5-1.3,5.1-1.2,7.7v31.6C62,61.9,64.1,65.4,68.3,65.4"/>
</svg>
