<svg id="_3_1" data-name="3_1" xmlns="http://www.w3.org/2000/svg" width="228.06" height="97.06" viewBox="0 0 228.06 97.06">
  <metadata><?xpacket begin="﻿" id="W5M0MpCehiHzreSzNTczkc9d"?>
<x:xmpmeta xmlns:x="adobe:ns:meta/" x:xmptk="Adobe XMP Core 5.6-c138 79.159824, 2016/09/14-01:09:01        ">
   <rdf:RDF xmlns:rdf="http://www.w3.org/1999/02/22-rdf-syntax-ns#">
      <rdf:Description rdf:about=""/>
   </rdf:RDF>
</x:xmpmeta>
                                                                                                    
                                                                                                    
                                                                                                    
                                                                                                    
                                                                                                    
                                                                                                    
                                                                                                    
                                                                                                    
                                                                                                    
                                                                                                    
                                                                                                    
                                                                                                    
                                                                                                    
                                                                                                    
                                                                                                    
                                                                                                    
                                                                                                    
                                                                                                    
                                                                                                    
                                                                                                    
                           
<?xpacket end="w"?></metadata>
<defs>
    <style>
      .cls-1 {
        fill: #2c7457;
      }

      .cls-1, .cls-2, .cls-3 {
        fill-rule: evenodd;
        opacity: 0.5;
      }

      .cls-2 {
        fill: #16d488;
      }

      .cls-3 {
        fill: #226d4f;
      }
    </style>
  </defs>
  <path id="Rectangle_131_copy_5" data-name="Rectangle 131 copy 5" class="cls-1" d="M1317.66,2770.07l-2.66-2.66-2.66,2.66-1.41-1.42,2.66-2.66-2.66-2.65,1.41-1.42,2.66,2.66,2.66-2.66,1.41,1.42-2.66,2.65,2.66,2.66Z" transform="translate(-1131.94 -2761.94)"/>
  <path id="Ellipse_42_copy_2" data-name="Ellipse 42 copy 2" class="cls-2" d="M1356,2821a4,4,0,1,1,4-4A4,4,0,0,1,1356,2821Zm0-6a2,2,0,1,0,2,2A2,2,0,0,0,1356,2815Z" transform="translate(-1131.94 -2761.94)"/>
  <path id="Ellipse_42_copy_5" data-name="Ellipse 42 copy 5" class="cls-2" d="M1153,2772a4,4,0,1,1,4-4A4,4,0,0,1,1153,2772Zm0-6a2,2,0,1,0,2,2A2,2,0,0,0,1153,2766Z" transform="translate(-1131.94 -2761.94)"/>
  <path id="Rectangle_131_copy_7" data-name="Rectangle 131 copy 7" class="cls-1" d="M1138.66,2813.07l-2.66-2.66-2.66,2.66-1.41-1.42,2.66-2.65-2.66-2.66,1.41-1.42,2.66,2.66,2.66-2.66,1.41,1.42-2.66,2.66,2.66,2.65Z" transform="translate(-1131.94 -2761.94)"/>
  <path id="Rounded_Rectangle_10_copy" data-name="Rounded Rectangle 10 copy" class="cls-3" d="M1339,2859h-7a1,1,0,0,1-1-1v-7a1,1,0,0,1,1-1h7a1,1,0,0,1,1,1v7A1,1,0,0,1,1339,2859Zm-1-7h-5v5h5v-5Z" transform="translate(-1131.94 -2761.94)"/>
  <path id="Shape_981_copy_4" data-name="Shape 981 copy 4" class="cls-2" d="M1153.27,2857.22l-8.21-7.93,11.07-2.75Zm-4.3-6.88,3.22,3.11,1.12-4.19Z" transform="translate(-1131.94 -2761.94)"/>
</svg>
