<svg xmlns="http://www.w3.org/2000/svg" width="174" height="110" viewBox="0 0 174 110">
  <metadata><?xpacket begin="﻿" id="W5M0MpCehiHzreSzNTczkc9d"?>
<x:xmpmeta xmlns:x="adobe:ns:meta/" x:xmptk="Adobe XMP Core 5.6-c138 79.159824, 2016/09/14-01:09:01        ">
   <rdf:RDF xmlns:rdf="http://www.w3.org/1999/02/22-rdf-syntax-ns#">
      <rdf:Description rdf:about=""/>
   </rdf:RDF>
</x:xmpmeta>
                                                                                                    
                                                                                                    
                                                                                                    
                                                                                                    
                                                                                                    
                                                                                                    
                                                                                                    
                                                                                                    
                                                                                                    
                                                                                                    
                                                                                                    
                                                                                                    
                                                                                                    
                                                                                                    
                                                                                                    
                                                                                                    
                                                                                                    
                                                                                                    
                                                                                                    
                                                                                                    
                           
<?xpacket end="w"?></metadata>
<defs>
    <style>
      .cls-1 {
        fill: #e1eee9;
        fill-rule: evenodd;
      }
    </style>
  </defs>
  <path id="bg" class="cls-1" d="M149,99.991H99a5,5,0,1,1,0-10h59a5,5,0,0,0,0-10h-9a5,5,0,1,1,0-10h20a5,5,0,0,0,0-10H45a5,5,0,1,1,0-10H149a5,5,0,0,0,0-10H131a5,5,0,1,1,0-10h33a5,5,0,0,0,0-10H80a5,5,0,0,1,0-10h88a5,5,0,1,0,0-10H12a5,5,0,1,0,0,10H60a5,5,0,0,1,0,10H25a5,5,0,0,0,0,10h86a5,5,0,1,1,0,10H5a5,5,0,0,0,0,10H25a5,5,0,1,1,0,10H16a5,5,0,0,0,0,10H129a5,5,0,1,1,0,10H9a5,5,0,0,0,0,10H67a5,5,0,1,1,0,10H35a5,5,0,0,0,0,10H149A5,5,0,0,0,149,99.991Z"/>
</svg>
