<svg id="icon2" xmlns="http://www.w3.org/2000/svg" width="159.156" height="86.063" viewBox="0 0 159.156 86.063">
  <metadata><?xpacket begin="﻿" id="W5M0MpCehiHzreSzNTczkc9d"?>
<x:xmpmeta xmlns:x="adobe:ns:meta/" x:xmptk="Adobe XMP Core 5.6-c138 79.159824, 2016/09/14-01:09:01        ">
   <rdf:RDF xmlns:rdf="http://www.w3.org/1999/02/22-rdf-syntax-ns#">
      <rdf:Description rdf:about=""/>
   </rdf:RDF>
</x:xmpmeta>
                                                                                                    
                                                                                                    
                                                                                                    
                                                                                                    
                                                                                                    
                                                                                                    
                                                                                                    
                                                                                                    
                                                                                                    
                                                                                                    
                                                                                                    
                                                                                                    
                                                                                                    
                                                                                                    
                                                                                                    
                                                                                                    
                                                                                                    
                                                                                                    
                                                                                                    
                                                                                                    
                           
<?xpacket end="w"?></metadata>
<defs>
    <style>
      .cls-1 {
        fill: #2c7457;
      }

      .cls-1, .cls-2, .cls-3 {
        fill-rule: evenodd;
        opacity: 0.5;
      }

      .cls-2 {
        fill: #226d4f;
      }

      .cls-3 {
        fill: #16d488;
      }
    </style>
  </defs>
  <path id="Rectangle_131_copy_7" data-name="Rectangle 131 copy 7" class="cls-1" d="M29.656,97.062L27,94.4l-2.657,2.657-1.414-1.416,2.657-2.655-2.657-2.655,1.414-1.417L27,91.576l2.657-2.657,1.414,1.417L28.414,92.99l2.657,2.655Z" transform="translate(-6.844 -11)"/>
  <path id="Rounded_Rectangle_10_copy_8" data-name="Rounded Rectangle 10 copy 8" class="cls-2" d="M24,19.991H17a1,1,0,0,1-1-1v-7a1,1,0,0,1,1-1h7a1,1,0,0,1,1,1v7A1,1,0,0,1,24,19.991Zm-1-7H18v5h5v-5Z" transform="translate(-6.844 -11)"/>
  <path id="Shape_981_copy_7" data-name="Shape 981 copy 7" class="cls-3" d="M18.261,54.548l-11.406.2,5.876-9.778Zm-7.9-1.823,4.47-.076-2.167-3.756Z" transform="translate(-6.844 -11)"/>
  <path id="Ellipse_42_copy_13" data-name="Ellipse 42 copy 13" class="cls-2" d="M161,42.99a4,4,0,1,1,4-4A4,4,0,0,1,161,42.99Zm0-6a2,2,0,1,0,2,2A2,2,0,0,0,161,36.992Z" transform="translate(-6.844 -11)"/>
  <path id="Rounded_Rectangle_10_copy_11" data-name="Rounded Rectangle 10 copy 11" class="cls-3" d="M165,85.991h-7a1,1,0,0,1-1-1v-7a1,1,0,0,1,1-1h7a1,1,0,0,1,1,1v7A1,1,0,0,1,165,85.991Zm-1-7h-5v5h5v-5Z" transform="translate(-6.844 -11)"/>
</svg>
