<svg id="icon" xmlns="http://www.w3.org/2000/svg" width="80" height="98.031" viewBox="0 0 80 98.031">
  <metadata><?xpacket begin="﻿" id="W5M0MpCehiHzreSzNTczkc9d"?>
<x:xmpmeta xmlns:x="adobe:ns:meta/" x:xmptk="Adobe XMP Core 5.6-c138 79.159824, 2016/09/14-01:09:01        ">
   <rdf:RDF xmlns:rdf="http://www.w3.org/1999/02/22-rdf-syntax-ns#">
      <rdf:Description rdf:about=""/>
   </rdf:RDF>
</x:xmpmeta>
                                                                                                    
                                                                                                    
                                                                                                    
                                                                                                    
                                                                                                    
                                                                                                    
                                                                                                    
                                                                                                    
                                                                                                    
                                                                                                    
                                                                                                    
                                                                                                    
                                                                                                    
                                                                                                    
                                                                                                    
                                                                                                    
                                                                                                    
                                                                                                    
                                                                                                    
                                                                                                    
                           
<?xpacket end="w"?></metadata>
<defs>
    <style>
      .cls-1 {
        fill: #226d4f;
      }

      .cls-1, .cls-2, .cls-3 {
        fill-rule: evenodd;
      }

      .cls-2 {
        fill: #16d488;
      }

      .cls-3 {
        fill: #c1ecdb;
      }
    </style>
  </defs>
  <path class="cls-1" d="M49,5.965h66a2,2,0,0,1,2,2v84a2,2,0,0,1-2,2H49a2,2,0,0,1-2-2v-84A2,2,0,0,1,49,5.965Z" transform="translate(-47 -5.969)"/>
  <path id="Shape_1047_copy" data-name="Shape 1047 copy" class="cls-2" d="M49,7.97h66V91.954H49V7.97h0Z" transform="translate(-47 -5.969)"/>
  <path id="Shape_1047_copy_4" data-name="Shape 1047 copy 4" class="cls-3" d="M53,11.994h58v76H53v-76h0Z" transform="translate(-47 -5.969)"/>
  <path class="cls-1" d="M112.989,104H59a2,2,0,0,1-2-2v-84a2,2,0,0,1,2-2h66a2,2,0,0,1,2,2V89.984a3,3,0,0,1-.879,2.12l-11.01,11.011A3,3,0,0,1,112.989,104ZM61,99.994v-80h62V89.568L112.575,99.994H61Zm60-78V88.74l-9.253,9.252H63v-76h58m4-4H59v84h53.989a1,1,0,0,0,.707-0.291l11.011-11.012A1,1,0,0,0,125,89.984V17.995h0Z" transform="translate(-47 -5.969)"/>
  <path id="Shape_1048_copy" data-name="Shape 1048 copy" class="cls-2" d="M124.707,90.691L113.7,101.7a1,1,0,0,1-.707.291H59v-84h66V89.984A1,1,0,0,1,124.707,90.691Z" transform="translate(-47 -5.969)"/>
  <path id="Shape_1048_copy_2" data-name="Shape 1048 copy 2" class="cls-3" d="M121,21.993V88.74l-9.253,9.252H63v-76h58" transform="translate(-47 -5.969)"/>
  <path id="Rectangle_570_copy_2" data-name="Rectangle 570 copy 2" class="cls-1" d="M75,39h34v2H75V39Zm0,10h34v2H75V49Zm0,10h34v2H75V59Z" transform="translate(-47 -5.969)"/>
  <path id="Shape_1048_copy_3" data-name="Shape 1048 copy 3" class="cls-1" d="M115.111,103.115a3,3,0,0,1-2.122.882l0.011-14,14-.01a3,3,0,0,1-.879,2.12Z" transform="translate(-47 -5.969)"/>
  <path id="Shape_1048_copy_4" data-name="Shape 1048 copy 4" class="cls-2" d="M126.121,92.1l-11.01,11.011a1.3,1.3,0,0,1-.111.091V91.995h11.212C126.18,92.031,126.155,92.071,126.121,92.1Z" transform="translate(-47 -5.969)"/>
</svg>
