<svg xmlns="http://www.w3.org/2000/svg" width="85.406" height="69" viewBox="0 0 85.406 69">
  <metadata><?xpacket begin="﻿" id="W5M0MpCehiHzreSzNTczkc9d"?>
<x:xmpmeta xmlns:x="adobe:ns:meta/" x:xmptk="Adobe XMP Core 5.6-c138 79.159824, 2016/09/14-01:09:01        ">
   <rdf:RDF xmlns:rdf="http://www.w3.org/1999/02/22-rdf-syntax-ns#">
      <rdf:Description rdf:about=""/>
   </rdf:RDF>
</x:xmpmeta>
                                                                                                    
                                                                                                    
                                                                                                    
                                                                                                    
                                                                                                    
                                                                                                    
                                                                                                    
                                                                                                    
                                                                                                    
                                                                                                    
                                                                                                    
                                                                                                    
                                                                                                    
                                                                                                    
                                                                                                    
                                                                                                    
                                                                                                    
                                                                                                    
                                                                                                    
                                                                                                    
                           
<?xpacket end="w"?></metadata>
<defs>
    <style>
      .cls-1, .cls-5 {
        fill: #226d4f;
      }

      .cls-1, .cls-2, .cls-3 {
        fill-rule: evenodd;
      }

      .cls-2, .cls-4 {
        fill: #c1ecdb;
      }

      .cls-3 {
        fill: #16d488;
      }
    </style>
  </defs>
  <path class="cls-1" d="M43,5A12.965,12.965,0,0,0,53.233,0H54V29H32V0h0.767A12.965,12.965,0,0,0,43,5Z" transform="translate(-0.313)"/>
  <path class="cls-2" d="M43,8A14.992,14.992,0,0,0,56.262,0H57V13H29V0h0.738A14.992,14.992,0,0,0,43,8Z" transform="translate(-0.313)"/>
  <path class="cls-1" d="M84.828,20.631L74.212,31.238a3.08,3.08,0,0,1-4.246,0l-0.945-.945V64a5.008,5.008,0,0,1-5,5H21.972a5.008,5.008,0,0,1-5-5V30.3l-0.934.933a3.08,3.08,0,0,1-4.246,0L1.171,20.631a3,3,0,0,1,0-4.241L15.794,1.759A6.05,6.05,0,0,1,20.043,0H32.985V1a9.957,9.957,0,0,0,4.7,8.479,10.421,10.421,0,0,0,10.248.346A9.126,9.126,0,0,0,53,1.054L52.949,0,65.956,0A5.964,5.964,0,0,1,70.2,1.759l14.624,14.63A3,3,0,0,1,84.828,20.631Z" transform="translate(-0.313)"/>
  <path class="cls-3" d="M18.97,25.476V64a3,3,0,0,0,3,3H64.016a3,3,0,0,0,3-3V25.465l4.362,4.359a1,1,0,0,0,1.416,0L83.412,19.217a1,1,0,0,0,0-1.413L68.788,3.172A3.977,3.977,0,0,0,65.956,2H55.012A11.082,11.082,0,0,1,48.8,11.625a12.383,12.383,0,0,1-12.183-.453A11.938,11.938,0,0,1,31.024,2L20.043,2a4.029,4.029,0,0,0-2.833,1.174L2.586,17.8a1,1,0,0,0,0,1.413L13.2,29.823a1.023,1.023,0,0,0,1.415,0Z" transform="translate(-0.313)"/>
  <path class="cls-1" d="M27,24H39v9H27V24Zm5-3h2v3H32V21Zm0-1h2v2H32V20Z" transform="translate(-0.313)"/>
  <rect class="cls-4" x="28.688" y="26" width="8" height="5"/>
  <rect class="cls-5" x="16.688" y="25" width="2" height="27"/>
  <rect class="cls-5" x="66.688" y="25" width="2" height="27"/>
</svg>
