<svg xmlns="http://www.w3.org/2000/svg" width="140" height="90" viewBox="0 0 140 90">
  <metadata><?xpacket begin="﻿" id="W5M0MpCehiHzreSzNTczkc9d"?>
<x:xmpmeta xmlns:x="adobe:ns:meta/" x:xmptk="Adobe XMP Core 5.6-c138 79.159824, 2016/09/14-01:09:01        ">
   <rdf:RDF xmlns:rdf="http://www.w3.org/1999/02/22-rdf-syntax-ns#">
      <rdf:Description rdf:about=""/>
   </rdf:RDF>
</x:xmpmeta>
                                                                                                    
                                                                                                    
                                                                                                    
                                                                                                    
                                                                                                    
                                                                                                    
                                                                                                    
                                                                                                    
                                                                                                    
                                                                                                    
                                                                                                    
                                                                                                    
                                                                                                    
                                                                                                    
                                                                                                    
                                                                                                    
                                                                                                    
                                                                                                    
                                                                                                    
                                                                                                    
                           
<?xpacket end="w"?></metadata>
<defs>
    <style>
      .cls-1 {
        fill: #f0f7f5;
        fill-rule: evenodd;
      }
    </style>
  </defs>
  <path class="cls-1" d="M500,1031H479a5,5,0,0,1,0-10h40a5,5,0,0,0,0-10H465a5,5,0,0,1,0-10h21a5,5,0,0,0,0-10H460a5,5,0,0,1,0-10h66a5,5,0,1,0,0-10H418a5,5,0,1,0,0,10h22a5,5,0,0,1,0,10H426a5,5,0,0,0,0,10h19a5,5,0,0,1,0,10H420a5,5,0,0,0,0,10h39a5,5,0,0,1,0,10H406a5,5,0,0,0,0,10h29a5,5,0,0,1,0,10H421a5,5,0,0,0,0,10H525a5,5,0,0,0,0-10H455a5,5,0,0,1,0-10h45A5,5,0,0,0,500,1031Zm36,0H520a5,5,0,0,0,0,10h16A5,5,0,0,0,536,1031Zm1-35a5,5,0,0,0-5-5H506a5,5,0,0,0,0,10h26A5,5,0,0,0,537,996Z" transform="translate(-401 -971)"/>
</svg>
