<svg xmlns="http://www.w3.org/2000/svg" width="70" height="78.5" viewBox="0 0 70 78.5">
  <metadata><?xpacket begin="﻿" id="W5M0MpCehiHzreSzNTczkc9d"?>
<x:xmpmeta xmlns:x="adobe:ns:meta/" x:xmptk="Adobe XMP Core 5.6-c138 79.159824, 2016/09/14-01:09:01        ">
   <rdf:RDF xmlns:rdf="http://www.w3.org/1999/02/22-rdf-syntax-ns#">
      <rdf:Description rdf:about=""/>
   </rdf:RDF>
</x:xmpmeta>
                                                                                                    
                                                                                                    
                                                                                                    
                                                                                                    
                                                                                                    
                                                                                                    
                                                                                                    
                                                                                                    
                                                                                                    
                                                                                                    
                                                                                                    
                                                                                                    
                                                                                                    
                                                                                                    
                                                                                                    
                                                                                                    
                                                                                                    
                                                                                                    
                                                                                                    
                                                                                                    
                           
<?xpacket end="w"?></metadata>
<defs>
    <style>
      .cls-1, .cls-2 {
        fill: #226d4f;
      }

      .cls-1, .cls-3 {
        fill-rule: evenodd;
      }

      .cls-3, .cls-4 {
        fill: #16d488;
      }

      .cls-5 {
        fill: #c1ecdb;
      }
    </style>
  </defs>
  <path id="Rounded_Rectangle_20" data-name="Rounded Rectangle 20" class="cls-1" d="M479,1191.86a0.993,0.993,0,0,1,1.366.36l12,20.79a1,1,0,0,1-1.732,1l-12-20.79A0.992,0.992,0,0,1,479,1191.86Z" transform="translate(-436 -1136)"/>
  <path id="Rounded_Rectangle_20-2" data-name="Rounded Rectangle 20" class="cls-1" d="M463,1191.86a0.992,0.992,0,0,1,.366,1.36l-12,20.79a1,1,0,0,1-1.732-1l12-20.79A0.993,0.993,0,0,1,463,1191.86Z" transform="translate(-436 -1136)"/>
  <circle class="cls-2" cx="35" cy="42" r="35"/>
  <path id="Rounded_Rectangle_25" data-name="Rounded Rectangle 25" class="cls-1" d="M468,1139h6v6h-6v-6h0Z" transform="translate(-436 -1136)"/>
  <path id="Rounded_Rectangle_26" data-name="Rounded Rectangle 26" class="cls-3" d="M470,1140h2v4h-2v-4h0Z" transform="translate(-436 -1136)"/>
  <rect id="Rounded_Rectangle_23" data-name="Rounded Rectangle 23" class="cls-2" x="29" width="12" height="6" rx="1" ry="1"/>
  <path id="Rounded_Rectangle_24" data-name="Rounded Rectangle 24" class="cls-3" d="M467,1138h8v2h-8v-2h0Z" transform="translate(-436 -1136)"/>
  <circle class="cls-4" cx="35" cy="42" r="33"/>
  <circle class="cls-5" cx="35" cy="42" r="29"/>
  <circle class="cls-2" cx="35" cy="42" r="3"/>
  <path id="Rounded_Rectangle_21" data-name="Rounded Rectangle 21" class="cls-1" d="M491.785,1166a1.006,1.006,0,0,1-.366,1.37l-19.053,11a1,1,0,0,1-1-1.74l19.053-11A1,1,0,0,1,491.785,1166Z" transform="translate(-436 -1136)"/>
  <path id="Rounded_Rectangle_21-2" data-name="Rounded Rectangle 21" class="cls-1" d="M458.876,1171a1,1,0,0,1,1.366-.37l10.392,6a1,1,0,0,1-1,1.74l-10.392-6A1,1,0,0,1,458.876,1171Z" transform="translate(-436 -1136)"/>
  <rect id="Rounded_Rectangle_22" data-name="Rounded Rectangle 22" class="cls-5" x="34" y="41" width="2" height="2" rx="1" ry="1"/>
</svg>
