<svg xmlns="http://www.w3.org/2000/svg" width="140" height="90" viewBox="0 0 140 90">
  <metadata><?xpacket begin="﻿" id="W5M0MpCehiHzreSzNTczkc9d"?>
<x:xmpmeta xmlns:x="adobe:ns:meta/" x:xmptk="Adobe XMP Core 5.6-c138 79.159824, 2016/09/14-01:09:01        ">
   <rdf:RDF xmlns:rdf="http://www.w3.org/1999/02/22-rdf-syntax-ns#">
      <rdf:Description rdf:about=""/>
   </rdf:RDF>
</x:xmpmeta>
                                                                                                    
                                                                                                    
                                                                                                    
                                                                                                    
                                                                                                    
                                                                                                    
                                                                                                    
                                                                                                    
                                                                                                    
                                                                                                    
                                                                                                    
                                                                                                    
                                                                                                    
                                                                                                    
                                                                                                    
                                                                                                    
                                                                                                    
                                                                                                    
                                                                                                    
                                                                                                    
                           
<?xpacket end="w"?></metadata>
<defs>
    <style>
      .cls-1 {
        fill: #f0f7f5;
        fill-rule: evenodd;
      }
    </style>
  </defs>
  <path id="_2_bg" data-name="2_bg" class="cls-1" d="M442,1161h31a5,5,0,0,1,0,10H413a5,5,0,0,0,0,10h74a5,5,0,0,1,0,10H406a5,5,0,0,0,0,10h16a5,5,0,0,1,0,10H406a5,5,0,0,0,0,10H524a5,5,0,0,0,0-10H442a5,5,0,0,1,0-10h74a5,5,0,0,0,0-10h-9a5,5,0,0,1,0-10h29a5,5,0,0,0,0-10H493a5,5,0,0,1,0-10h13a5,5,0,0,0,0-10h-9a5,5,0,0,1,0-10h34a5,5,0,0,0,0-10H407a5,5,0,0,0,0,10h70a5,5,0,0,1,0,10H442A5,5,0,0,0,442,1161Zm-36,0h16a5,5,0,0,0,0-10H406A5,5,0,0,0,406,1161Z" transform="translate(-401 -1131)"/>
</svg>
