<svg id="_3" data-name=" 3" xmlns="http://www.w3.org/2000/svg" width="87" height="66" viewBox="0 0 87 66">
  <defs>
    <style>
      .cls-1 {
        fill: #226d4f;
      }

      .cls-2 {
        fill: #17ce85;
      }

      .cls-3 {
        fill: #c1ecdb;
      }
    </style>
  </defs>
  <title>3</title>
  <path class="cls-1" d="M40,0H22a22,22,0,0,0-9.05,42.05v3.42A3.54,3.54,0,0,0,19,47.95L22.94,44H40A22,22,0,0,0,40,0Z"/>
  <path class="cls-2" d="M24.09,40l-6.52,6.54A1.49,1.49,0,0,1,16.5,47,1.52,1.52,0,0,1,15,45.48h0V40h9.11"/>
  <path class="cls-2" d="M22,2H40A20,20,0,0,1,60,22h0A20,20,0,0,1,40,42H22A20,20,0,0,1,2,22H2A20,20,0,0,1,22,2Z"/>
  <path class="cls-3" d="M22,6H40A16,16,0,0,1,56,22h0A16,16,0,0,1,40,38H22A16,16,0,0,1,6,22H6A16,16,0,0,1,22,6Z"/>
  <path class="cls-1" d="M31.35,13a5.23,5.23,0,0,1,1.77.28,3.76,3.76,0,0,1,1.37.79,3.5,3.5,0,0,1,.88,1.23,4.42,4.42,0,0,1-.55,4.25,4.56,4.56,0,0,1-.81.82l-.83.65a5.84,5.84,0,0,0-.67.6,1.19,1.19,0,0,0-.34.66L31.91,24H30l-.19-1.87a1.56,1.56,0,0,1,.15-.95,2.66,2.66,0,0,1,.58-.75,7.12,7.12,0,0,1,.81-.66,7.14,7.14,0,0,0,.84-.69,3.62,3.62,0,0,0,.65-.84,2.22,2.22,0,0,0,.26-1.11,1.7,1.7,0,0,0-.57-1.31,1.75,1.75,0,0,0-.64-.36,2.36,2.36,0,0,0-.81-.13,3.36,3.36,0,0,0-1.08.15,3.52,3.52,0,0,0-.75.32l-.52.32a.68.68,0,0,1-.38.15.61.61,0,0,1-.58-.35l-.72-1.19a6.89,6.89,0,0,1,.83-.65,5.52,5.52,0,0,1,1-.54A5.64,5.64,0,0,1,30,13.13,6.89,6.89,0,0,1,31.35,13m-.48,13.53a1.63,1.63,0,0,1,.66.14,1.65,1.65,0,0,1,.54.37,1.6,1.6,0,0,1,.36.55,1.79,1.79,0,0,1,0,1.36,1.7,1.7,0,0,1-.36.55,1.79,1.79,0,0,1-.54.36,1.63,1.63,0,0,1-.66.13,1.67,1.67,0,0,1-.67-.13,1.69,1.69,0,0,1-.54-.36,1.66,1.66,0,0,1-.35-.55,1.86,1.86,0,0,1,0-1.36,1.65,1.65,0,0,1,.89-.92,1.67,1.67,0,0,1,.67-.14M31.35,11a7.84,7.84,0,0,0-3.22.65,8.9,8.9,0,0,0-1.29.72,10,10,0,0,0-1,.82l-1.24,1.13.88,1.44.7,1.15a2.56,2.56,0,0,0,2.25,1.32,2.52,2.52,0,0,0,1.45-.48l.4-.25a2.05,2.05,0,0,1,.38-.15,1.28,1.28,0,0,1,.49-.06h0a1.84,1.84,0,0,1-.24.27,5.13,5.13,0,0,1-.62.51,10.16,10.16,0,0,0-1,.82,4.93,4.93,0,0,0-1,1.27,3.64,3.64,0,0,0-.37,2.17l.18,1.83.15,1.5a3.66,3.66,0,0,0-.73,1.16,4,4,0,0,0,0,2.9,3.7,3.7,0,0,0,.77,1.19,3.38,3.38,0,0,0,1.17.79,3.56,3.56,0,0,0,2.82,0,3.67,3.67,0,0,0,1.93-2,3.87,3.87,0,0,0,0-2.95,3.57,3.57,0,0,0-.62-1l.23-1.52L34,22.88l.31-.26.79-.62,0,0a6.2,6.2,0,0,0,2.43-5,6.14,6.14,0,0,0-.48-2.44,5.47,5.47,0,0,0-1.38-1.93,5.82,5.82,0,0,0-2-1.18A7.34,7.34,0,0,0,31.35,11h0Z"/>
  <path class="cls-1" d="M87,42A20,20,0,0,0,67,22H51a20,20,0,0,0,0,40H67c.34,0,.67,0,1-.05l3,3a3.54,3.54,0,0,0,6.06-2.48v-3.2A20,20,0,0,0,87,42Z"/>
  <path class="cls-2" d="M65.91,57l6.52,6.54A1.49,1.49,0,0,0,73.5,64,1.52,1.52,0,0,0,75,62.48h0V57H65.91"/>
  <path class="cls-2" d="M51,24H67A18,18,0,0,1,85,42h0A18,18,0,0,1,67,60H51A18,18,0,0,1,33,42h0A18,18,0,0,1,51,24Z"/>
  <path class="cls-3" d="M51.08,28H66.92A14,14,0,0,1,81,42h0A14,14,0,0,1,66.92,56H51.08A14,14,0,0,1,37,42h0A14,14,0,0,1,51.08,28Z"/>
  <path class="cls-1" d="M59.25,32.91a1.31,1.31,0,0,1,1.26,1.35v5.29q0,1.06-.1,2.07t-.25,2.16H58.33q-.15-1.14-.25-2.16T58,39.55V34.26a1.31,1.31,0,0,1,1.26-1.35h0m0,13.45a1.57,1.57,0,0,1,.64.14,1.76,1.76,0,0,1,.53.38,1.7,1.7,0,0,1,.35.55,1.86,1.86,0,0,1,.13.69,1.78,1.78,0,0,1-.48,1.24,1.55,1.55,0,0,1-.53.36,1.57,1.57,0,0,1-.64.14,1.61,1.61,0,0,1-.65-.14,1.56,1.56,0,0,1-.53-.36,1.73,1.73,0,0,1-.35-.55,1.88,1.88,0,0,1-.12-.69,1.92,1.92,0,0,1,.13-.69,1.62,1.62,0,0,1,.35-.55,1.77,1.77,0,0,1,.53-.38,1.61,1.61,0,0,1,.65-.14m0-15.47a3.27,3.27,0,0,0-3.16,3.37v5.29c0,.77,0,1.54.11,2.28s.15,1.45.26,2.23l.19,1.44a3.56,3.56,0,0,0-.72,1.17,4,4,0,0,0-.27,1.45,4,4,0,0,0,.27,1.47,3.61,3.61,0,0,0,.77,1.21,3.47,3.47,0,0,0,1.13.79,3.37,3.37,0,0,0,2.74,0,3.51,3.51,0,0,0,1.13-.79,3.59,3.59,0,0,0,.77-1.19,4,4,0,0,0,0-3,3.77,3.77,0,0,0-.64-1.07l.2-1.51c.11-.78.19-1.53.26-2.23s.11-1.51.11-2.28V34.26a3.27,3.27,0,0,0-3.16-3.37h0Z"/>
</svg>
