<svg xmlns="http://www.w3.org/2000/svg" width="138" height="90" viewBox="0 0 138 90">
  <metadata><?xpacket begin="﻿" id="W5M0MpCehiHzreSzNTczkc9d"?>
<x:xmpmeta xmlns:x="adobe:ns:meta/" x:xmptk="Adobe XMP Core 5.6-c138 79.159824, 2016/09/14-01:09:01        ">
   <rdf:RDF xmlns:rdf="http://www.w3.org/1999/02/22-rdf-syntax-ns#">
      <rdf:Description rdf:about=""/>
   </rdf:RDF>
</x:xmpmeta>
                                                                                                    
                                                                                                    
                                                                                                    
                                                                                                    
                                                                                                    
                                                                                                    
                                                                                                    
                                                                                                    
                                                                                                    
                                                                                                    
                                                                                                    
                                                                                                    
                                                                                                    
                                                                                                    
                                                                                                    
                                                                                                    
                                                                                                    
                                                                                                    
                                                                                                    
                                                                                                    
                           
<?xpacket end="w"?></metadata>
<defs>
    <style>
      .cls-1 {
        fill: #f0f7f5;
        fill-rule: evenodd;
      }
    </style>
  </defs>
  <path id="_3_bg" data-name="3_bg" class="cls-1" d="M535,1321h-5a5,5,0,0,0,0,10h3a5,5,0,0,1,0,10H478a5,5,0,0,0,0,10h51a5,5,0,0,1,0,10H493a5,5,0,0,0,0,10h6a5,5,0,0,1,0,10H411a5,5,0,0,1,0-10h62a5,5,0,0,0,0-10H429a5,5,0,0,1,0-10h29a5,5,0,0,0,0-10H443a5,5,0,0,1,0-10h19a5,5,0,0,0,0-10H419a5,5,0,0,1,0-10h59a5,5,0,0,0,0-10H414a5,5,0,0,1,0-10H528a5,5,0,0,1,0,10H498a5,5,0,0,0,0,10h37A5,5,0,0,1,535,1321Zm-112,20H407a5,5,0,0,1,0-10h16A5,5,0,0,1,423,1341Zm110,40H519a5,5,0,0,1,0-10h14A5,5,0,0,1,533,1381Z" transform="translate(-402 -1291)"/>
</svg>
