<svg id="_1" data-name="1" xmlns="http://www.w3.org/2000/svg" width="68" height="66" viewBox="0 0 68 66">
  <metadata><?xpacket begin="﻿" id="W5M0MpCehiHzreSzNTczkc9d"?>
<x:xmpmeta xmlns:x="adobe:ns:meta/" x:xmptk="Adobe XMP Core 5.6-c138 79.159824, 2016/09/14-01:09:01        ">
   <rdf:RDF xmlns:rdf="http://www.w3.org/1999/02/22-rdf-syntax-ns#">
      <rdf:Description rdf:about=""/>
   </rdf:RDF>
</x:xmpmeta>
                                                                                                    
                                                                                                    
                                                                                                    
                                                                                                    
                                                                                                    
                                                                                                    
                                                                                                    
                                                                                                    
                                                                                                    
                                                                                                    
                                                                                                    
                                                                                                    
                                                                                                    
                                                                                                    
                                                                                                    
                                                                                                    
                                                                                                    
                                                                                                    
                                                                                                    
                                                                                                    
                           
<?xpacket end="w"?></metadata>
<defs>
    <style>
      .cls-1 {
        fill: #226d4f;
      }

      .cls-1, .cls-2, .cls-3 {
        fill-rule: evenodd;
      }

      .cls-2 {
        fill: #16d488;
      }

      .cls-3 {
        fill: #c1ecdb;
      }
    </style>
  </defs>
  <path id="Shape_1055_copy_3" data-name="Shape 1055 copy 3" class="cls-1" d="M499,1288v23H482a8,8,0,0,1-8-8v-15h0v-22a2,2,0,0,1,2-2h21a2,2,0,0,1,2,2v22h0Z" transform="translate(-474 -1245)"/>
  <path id="Shape_1055_copy_6" data-name="Shape 1055 copy 6" class="cls-2" d="M476,1266h49v43H482a6,6,0,0,1-6-6v-37h0Z" transform="translate(-474 -1245)"/>
  <path id="Shape_1055_copy_7" data-name="Shape 1055 copy 7" class="cls-3" d="M480,1270h47v35H482a2,2,0,0,1-2-2v-33h0Z" transform="translate(-474 -1245)"/>
  <path class="cls-1" d="M542,1303a8,8,0,0,1-8,8H482v-2a6,6,0,0,0,6-6v-56a2,2,0,0,1,2-2h50a2,2,0,0,1,2,2v13h0v43Z" transform="translate(-474 -1245)"/>
  <path class="cls-2" d="M534,1309H487.279a7.983,7.983,0,0,0,2.721-6v-56h50v56A6,6,0,0,1,534,1309Z" transform="translate(-474 -1245)"/>
  <path class="cls-3" d="M535.968,1251v52a2.008,2.008,0,0,1-2.009,2H493.574a11.964,11.964,0,0,0,.17-2v-52h42.224" transform="translate(-474 -1245)"/>
  <path id="Rounded_Rectangle_30" data-name="Rounded Rectangle 30" class="cls-1" d="M513,1268H500a2,2,0,0,1-2-2v-8a2,2,0,0,1,2-2h13a2,2,0,0,1,2,2v8A2,2,0,0,1,513,1268Zm0-10H500v8h13v-8Z" transform="translate(-474 -1245)"/>
  <path id="Rounded_Rectangle_30_copy" data-name="Rounded Rectangle 30 copy" class="cls-2" d="M513,1258H500v8h13v-8Z" transform="translate(-474 -1245)"/>
  <path id="Rounded_Rectangle_31" data-name="Rounded Rectangle 31" class="cls-1" d="M521,1257h10a1,1,0,0,1,0,2H521A1,1,0,0,1,521,1257Zm0,8h8a1,1,0,0,1,0,2h-8A1,1,0,0,1,521,1265Z" transform="translate(-474 -1245)"/>
  <path id="Rounded_Rectangle_31_copy" data-name="Rounded Rectangle 31 copy" class="cls-1" d="M499,1273h32a1,1,0,0,1,0,2H499A1,1,0,0,1,499,1273Zm0,9h25a1,1,0,0,1,0,2H499A1,1,0,0,1,499,1282Zm0,9h32a1,1,0,0,1,0,2H499A1,1,0,0,1,499,1291Z" transform="translate(-474 -1245)"/>
</svg>
