<svg xmlns="http://www.w3.org/2000/svg" width="134" height="90" viewBox="0 0 134 90">
  <metadata><?xpacket begin="﻿" id="W5M0MpCehiHzreSzNTczkc9d"?>
<x:xmpmeta xmlns:x="adobe:ns:meta/" x:xmptk="Adobe XMP Core 5.6-c138 79.159824, 2016/09/14-01:09:01        ">
   <rdf:RDF xmlns:rdf="http://www.w3.org/1999/02/22-rdf-syntax-ns#">
      <rdf:Description rdf:about=""/>
   </rdf:RDF>
</x:xmpmeta>
                                                                                                    
                                                                                                    
                                                                                                    
                                                                                                    
                                                                                                    
                                                                                                    
                                                                                                    
                                                                                                    
                                                                                                    
                                                                                                    
                                                                                                    
                                                                                                    
                                                                                                    
                                                                                                    
                                                                                                    
                                                                                                    
                                                                                                    
                                                                                                    
                                                                                                    
                                                                                                    
                           
<?xpacket end="w"?></metadata>
<defs>
    <style>
      .cls-1 {
        fill: #f0f7f5;
        fill-rule: evenodd;
      }
    </style>
  </defs>
  <path id="_1_bg" data-name="1_bg" class="cls-1" d="M571,1261H480a5,5,0,0,0,0,10h80a5,5,0,0,1,0,10H526a5,5,0,0,0,0,10h44a5,5,0,0,1,0,10h-6a5,5,0,0,0,0,10h6a5,5,0,0,1,0,10H454a5,5,0,0,1,0-10h90a5,5,0,0,0,0-10H457a5,5,0,0,1,0-10h49a5,5,0,0,0,0-10H451a5,5,0,1,1,0-10h9a5,5,0,0,0,0-10H447a5,5,0,0,1,0-10h98a5,5,0,0,0,0-10H460a5,5,0,0,1,0-10H566a5,5,0,0,1,0,10h-1a5,5,0,0,0,0,10h6A5,5,0,0,1,571,1261Z" transform="translate(-442 -1231)"/>
</svg>
