<?xml version="1.0" encoding="utf-8"?>
<!-- Generator: Adobe Illustrator 21.1.0, SVG Export Plug-In . SVG Version: 6.00 Build 0)  -->
<svg version="1.1" id="_2" xmlns="http://www.w3.org/2000/svg" xmlns:xlink="http://www.w3.org/1999/xlink" x="0px" y="0px"
	 viewBox="0 0 63.9 71" style="enable-background:new 0 0 63.9 71;" xml:space="preserve">
<style type="text/css">
	.st0{fill:#226D4F;}
	.st1{fill:#16D488;}
	.st2{fill:#C1ECDB;}
</style>
<path class="st0" d="M54,56.7V63c4,0,8.1-1.2,8.9-9.2c0-0.4-0.3-0.7-0.7-0.8c-0.3,0-0.5,0.1-0.7,0.3l-1.1,2c-1.3,2.1-4,2.8-6.1,1.5
	C54.2,56.8,54.1,56.8,54,56.7L54,56.7z M54,64h-1v-9.2l1.6,1.2c0.8,0.6,1.8,0.8,2.7,0.6c0.9-0.2,1.8-0.8,2.2-1.6l1.1-2
	c0.4-0.7,1.2-1,2-0.8c0.8,0.2,1.3,1,1.2,1.8C63,62.9,57.8,64,54,64L54,64z M55,58.3V62c3-0.2,5.8-1.4,6.7-6.8l-0.4,0.7
	c-0.8,1.3-2.1,2.3-3.6,2.6C56.8,58.6,55.9,58.5,55,58.3L55,58.3z M54,64h-1v-9.2l1.6,1.2c0.8,0.6,1.8,0.8,2.7,0.6
	c0.9-0.2,1.8-0.8,2.2-1.6l1.1-2c0.4-0.7,1.2-1,2-0.8c0.8,0.2,1.3,1,1.2,1.8C63,62.9,57.8,64,54,64L54,64z"/>
<path id="Shape_1074_copy" class="st1" d="M55,58.3V62c3-0.2,5.8-1.4,6.7-6.8l-0.4,0.7c-0.8,1.3-2.1,2.3-3.6,2.6
	C56.8,58.6,55.9,58.5,55,58.3z"/>
<path class="st0" d="M45.2,71c-3.7,0-7.1-1.9-9.1-5l-0.2-0.3l-0.1,0.4C34.3,70,30,72,26.1,70.5c-1.6-0.6-3-1.7-3.9-3.2l-0.2-0.3
	l-0.2,0.3c-2.1,3.5-6.7,4.7-10.3,2.6C9.4,68.6,8,66.2,8,63.5V39.5c0-4.1,3.4-7.5,7.5-7.5h13.2c10.9,0,17.6,6.5,21.3,12
	c4.4,6.4,6,13.4,6,16.3C56,66.2,51.1,71,45.2,71z"/>
<g>
	<path class="st1" d="M28.7,34H15v0c-2.8,0.2-5,2.6-5,5.4v24.1c0,1.9,1,3.7,2.7,4.7c2.6,1.6,6,0.7,7.5-1.9L21,65V50h2v14.7l1,1.6
		c0.6,1.1,1.6,1.9,2.8,2.3c2.9,1,6-0.4,7.1-3.3L34,65v-8h2v5.2l1.8,2.8c1.6,2.5,4.4,4.1,7.4,4.1c4.8,0,8.8-3.9,8.8-8.8
		C54,54.9,47.4,34,28.7,34z"/>
</g>
<path class="st0" d="M18,1h8c7.7,0,14,6.3,14,14v4c0,9.9-8.1,18-18,18l0,0c-9.9,0-18-8.1-18-18v-4C4,7.3,10.3,1,18,1z"/>
<path id="Shape_1072_copy_2" class="st0" d="M38,11V1.1l-8.9,0.7l8.3,9.2H38z M37,2.2l-5.8,0.5L37,9V2.2 M39,0v12h-2L27,1L39,0L39,0
	z M39,0v12h-2L27,1L39,0L39,0z"/>
<path class="st0" d="M6,11V1.1l8.9,0.7L6.6,11H6z M7,2.2l5.8,0.5L7,9V2.2 M5,0v12h2L17,1L5,0L5,0z M5,0v12h2L17,1L5,0L5,0z"/>
<path id="Shape_1070_copy" class="st1" d="M18,3h8c6.6,0,12,5.4,12,12v4c0,8.8-7.2,16-16,16l0,0c-8.8,0-16-7.2-16-16v-4
	C6,8.4,11.4,3,18,3z"/>
<path id="Shape_1072_copy" class="st1" d="M8,1l5.8,0.5L8,7.9V1"/>
<path id="Shape_1072_copy_2-2" class="st1" d="M36,1.1l-5.8,0.5L36,8V1.1"/>
<path class="st2" d="M16,13c-3.3,0-6,2.7-6,6s2.7,6,6,6c3.3,0,3-2.7,3-6S19.3,13,16,13z"/>
<path id="Ellipse_48_copy" class="st0" d="M22,29c0,0-3-1.9-3-2.7c1.6,0.8,3.6,0.2,4.5-1.3c0.8,0,1.4,0.6,1.5,1.3
	C25,27.1,22,29,22,29z"/>
<path class="st0" d="M26,1h-8C10.3,1,4,7.3,4,15v4c0,9.9,8.1,18,18,18c9.9,0,18-8.1,18-18v-4C40,7.3,33.7,1,26,1z M37.8,19
	c0,8.8-7.2,16-16,16s-16-7.2-16-16v-4c0-6.6,5.4-12,12-12h8c6.6,0,12,5.4,12,12V19z"/>
<path id="Rounded_Rectangle_34" class="st0" d="M4,0h2c2.2,0,4,1.8,4,4v8c0,2.2-1.8,4-4,4H4c-2.2,0-4-1.8-4-4V4C0,1.8,1.8,0,4,0z"/>
<path id="Rounded_Rectangle_34_copy" class="st1" d="M4,2h2c1.1,0,2,0.9,2,2v8c0,1.1-0.9,2-2,2H4c-1.1,0-2-0.9-2-2V4
	C2,2.9,2.9,2,4,2z"/>
<path id="Rounded_Rectangle_34_copy_2" class="st0" d="M38,0h2c2.2,0,4,1.8,4,4v8c0,2.2-1.8,4-4,4h-2c-2.2,0-4-1.8-4-4V4
	C34,1.8,35.8,0,38,0z"/>
<path id="Rounded_Rectangle_34_copy_2-2" class="st1" d="M38,2h2c1.1,0,2,0.9,2,2v8c0,1.1-0.9,2-2,2h-2c-1.1,0-2-0.9-2-2V4
	C36,2.9,36.9,2,38,2z"/>
<circle class="st0" cx="15.5" cy="19.5" r="1.5"/>
<circle id="Ellipse_47_copy" class="st0" cx="28.5" cy="19.5" r="1.5"/>
</svg>
