<?xml version="1.0" encoding="utf-8"?>
<!-- Generator: Adobe Illustrator 21.1.0, SVG Export Plug-In . SVG Version: 6.00 Build 0)  -->
<svg version="1.1" id="_3" xmlns="http://www.w3.org/2000/svg" xmlns:xlink="http://www.w3.org/1999/xlink" x="0px" y="0px"
	 viewBox="0 0 60 71" style="enable-background:new 0 0 60 71;" xml:space="preserve">
<style type="text/css">
	.st0{fill:#226D4F;stroke:#226D4F;stroke-miterlimit:10;}
	.st1{fill:#16D488;}
</style>
<path class="st0" d="M23,56h29v13c0,1.1-0.9,2-2,2H25c-1.1,0-2-0.9-2-2V56L23,56z M54,22c-2.8,0-5,2.2-5,5v4l0,0v-6c0-2.8-2.2-5-5-5
	c0,0,0,0,0,0l0,0c-2.8,0-5,2.2-5,5c0,0,0,0,0,0v6l0,0v-8c0-2.8-2.2-5-5-5l0,0c-2.8,0-5,2.2-5,5v8l0,0V6c0-2.8-2.2-5-5-5c0,0,0,0,0,0
	l0,0c-2.8,0-5,2.2-5,5c0,0,0,0,0,0v28.8c0,1-0.8,1.8-1.8,1.8c-0.5,0-0.9-0.2-1.3-0.5l-4.9-4.9c-2.3-2.3-6-2.3-8.3,0c0,0,0,0,0,0l0,0
	c-2.3,2.3-2.3,6,0,8.4c0,0,0,0,0,0l15.6,15.6c3.3,2.9,7.4,4.7,11.8,4.9H50c5,0,9-4,9-9c0,0,0,0,0,0V27C59,24.2,56.8,22,54,22
	C54,22,54,22,54,22L54,22L54,22z M6.9,30.4c-1.3,0-2.6,0.5-3.5,1.4c-1.9,1.9-1.9,5,0,6.9L19,54.4c3.1,2.7,7,4.4,11.1,4.6H50
	c4.4,0,8-3.6,8-8V27c0.1-2.2-1.6-4.1-3.8-4.2c-2.2-0.1-4.1,1.6-4.2,3.8c0,0.1,0,0.3,0,0.4v4h-2v-6c0.1-2.2-1.6-4.1-3.8-4.2
	c-2.2-0.1-4.1,1.6-4.2,3.8c0,0.1,0,0.3,0,0.4v6h-2v-8c0.1-2.2-1.6-4.1-3.8-4.2c-2.2-0.1-4.1,1.6-4.2,3.8c0,0.1,0,0.3,0,0.4v8h-2V6
	c0.1-2.2-1.6-4.1-3.8-4.2C22,1.7,20.2,3.4,20,5.6c0,0.1,0,0.3,0,0.4v28.8c0,1.6-1.3,2.8-2.8,2.8c-0.7,0-1.5-0.3-2-0.8l-4.9-4.9
	C9.5,30.9,8.2,30.4,6.9,30.4z M54,22c-2.8,0-5,2.2-5,5v4l0,0v-6c0-2.8-2.2-5-5-5c0,0,0,0,0,0l0,0c-2.8,0-5,2.2-5,5c0,0,0,0,0,0v6
	l0,0v-8c0-2.8-2.2-5-5-5l0,0c-2.8,0-5,2.2-5,5v8l0,0V6c0-2.8-2.2-5-5-5c0,0,0,0,0,0l0,0c-2.8,0-5,2.2-5,5c0,0,0,0,0,0v28.8
	c0,1-0.8,1.8-1.8,1.8c-0.5,0-0.9-0.2-1.3-0.5l-4.9-4.9c-2.3-2.3-6-2.3-8.3,0c0,0,0,0,0,0l0,0c-2.3,2.3-2.3,6,0,8.4c0,0,0,0,0,0
	l15.6,15.6c3.3,2.9,7.4,4.7,11.8,4.9H50c5,0,9-4,9-9c0,0,0,0,0,0V27C59,24.2,56.8,22,54,22C54,22,54,22,54,22L54,22L54,22z"/>
<path id="Rectangle_182_copy" class="st1" d="M6.9,30.4c-1.3,0-2.6,0.5-3.5,1.4c-1.9,1.9-1.9,5,0,6.9L19,54.4
	c3.1,2.7,7,4.4,11.1,4.6H50c4.4,0,8-3.6,8-8V27c0.1-2.2-1.6-4.1-3.8-4.2c-2.2-0.1-4.1,1.6-4.2,3.8c0,0.1,0,0.3,0,0.4v4h-2v-6
	c0.1-2.2-1.6-4.1-3.8-4.2c-2.2-0.1-4.1,1.6-4.2,3.8c0,0.1,0,0.3,0,0.4v6h-2v-8c0.1-2.2-1.6-4.1-3.8-4.2c-2.2-0.1-4.1,1.6-4.2,3.8
	c0,0.1,0,0.3,0,0.4v8h-2V6c0.1-2.2-1.6-4.1-3.8-4.2c-2.2-0.1-4.1,1.6-4.2,3.8c0,0.1,0,0.3,0,0.4v28.8c0,1.6-1.3,2.8-2.8,2.8
	c-0.7,0-1.5-0.3-2-0.8l-4.9-4.9C9.5,30.9,8.2,30.4,6.9,30.4z M24.1,56.5h27v13.4h-27V56.5z M6.9,30.4c-1.3,0-2.6,0.5-3.5,1.4
	c-1.9,1.9-1.9,5,0,6.9L19,54.4c3.1,2.7,7,4.4,11.1,4.6H50c4.4,0,8-3.6,8-8V27c0.1-2.2-1.6-4.1-3.8-4.2c-2.2-0.1-4.1,1.6-4.2,3.8
	c0,0.1,0,0.3,0,0.4v4h-2v-6c0.1-2.2-1.6-4.1-3.8-4.2c-2.2-0.1-4.1,1.6-4.2,3.8c0,0.1,0,0.3,0,0.4v6h-2v-8c0.1-2.2-1.6-4.1-3.8-4.2
	c-2.2-0.1-4.1,1.6-4.2,3.8c0,0.1,0,0.3,0,0.4v8h-2V6c0.1-2.2-1.6-4.1-3.8-4.2C22,1.7,20.2,3.4,20,5.6c0,0.1,0,0.3,0,0.4v28.8
	c0,1.6-1.3,2.8-2.8,2.8c-0.7,0-1.5-0.3-2-0.8l-4.9-4.9C9.4,30.9,8.2,30.4,6.9,30.4z"/>
</svg>
