<svg xmlns="http://www.w3.org/2000/svg" width="134" height="90" viewBox="0 0 134 90">
  <metadata><?xpacket begin="﻿" id="W5M0MpCehiHzreSzNTczkc9d"?>
<x:xmpmeta xmlns:x="adobe:ns:meta/" x:xmptk="Adobe XMP Core 5.6-c138 79.159824, 2016/09/14-01:09:01        ">
   <rdf:RDF xmlns:rdf="http://www.w3.org/1999/02/22-rdf-syntax-ns#">
      <rdf:Description rdf:about=""/>
   </rdf:RDF>
</x:xmpmeta>
                                                                                                    
                                                                                                    
                                                                                                    
                                                                                                    
                                                                                                    
                                                                                                    
                                                                                                    
                                                                                                    
                                                                                                    
                                                                                                    
                                                                                                    
                                                                                                    
                                                                                                    
                                                                                                    
                                                                                                    
                                                                                                    
                                                                                                    
                                                                                                    
                                                                                                    
                                                                                                    
                           
<?xpacket end="w"?></metadata>
<defs>
    <style>
      .cls-1 {
        fill: #f0f7f5;
        fill-rule: evenodd;
      }
    </style>
  </defs>
  <path id="_3_bg" data-name="3_bg" class="cls-1" d="M1151,1261h-51a5,5,0,0,0,0,10h40a5,5,0,0,1,0,10h-34a5,5,0,0,0,0,10h11a5,5,0,0,1,0,10h-36a5,5,0,0,0,0,10h69a5,5,0,0,1,0,10H1034a5,5,0,0,1,0-10h27a5,5,0,0,0,0-10h-24a5,5,0,0,1,0-10h49a5,5,0,0,0,0-10h-45a5,5,0,0,1,0-10h39a5,5,0,0,0,0-10h-53a5,5,0,0,1,0-10h69a5,5,0,0,0,0-10h-62a5,5,0,0,1,0-10h112a5,5,0,0,1,0,10h-30a5,5,0,0,0,0,10h35A5,5,0,0,1,1151,1261Zm1,35a5,5,0,0,1-5,5h-10a5,5,0,0,1,0-10h10A5,5,0,0,1,1152,1296Z" transform="translate(-1022 -1231)"/>
</svg>
