<svg id="bitrix" xmlns="http://www.w3.org/2000/svg" width="90" height="90" viewBox="0 0 90 90">
  <metadata><?xpacket begin="﻿" id="W5M0MpCehiHzreSzNTczkc9d"?>
<x:xmpmeta xmlns:x="adobe:ns:meta/" x:xmptk="Adobe XMP Core 5.6-c138 79.159824, 2016/09/14-01:09:01        ">
   <rdf:RDF xmlns:rdf="http://www.w3.org/1999/02/22-rdf-syntax-ns#">
      <rdf:Description rdf:about=""/>
   </rdf:RDF>
</x:xmpmeta>
                                                                                                    
                                                                                                    
                                                                                                    
                                                                                                    
                                                                                                    
                                                                                                    
                                                                                                    
                                                                                                    
                                                                                                    
                                                                                                    
                                                                                                    
                                                                                                    
                                                                                                    
                                                                                                    
                                                                                                    
                                                                                                    
                                                                                                    
                                                                                                    
                                                                                                    
                                                                                                    
                           
<?xpacket end="w"?></metadata>
<defs>
    <style>
      .cls-1 {
        fill: #e8efec;
      }

      .cls-1, .cls-2 {
        fill-rule: evenodd;
      }

      .cls-2 {
        fill: #e01b38;
      }
    </style>
  </defs>
  <path class="cls-1" d="M477,11873a44.762,44.762,0,0,0-9.75,1.1v43.9a9.776,9.776,0,1,0,10.427-9.7v-7.9a17.606,17.606,0,1,1-18.248,17.6v-41.5c-1.113.5-2.2,1-3.259,1.6v39.9a20.856,20.856,0,1,0,21.507-20.8v-7.9a28.7,28.7,0,1,1-29.33,28.7v-34.7A44.992,44.992,0,1,0,477,11873Z" transform="translate(-432 -11873)"/>
  <path id="Shape_96_copy" data-name="Shape 96 copy" class="cls-2" d="M477,11873a44.762,44.762,0,0,0-9.75,1.1v43.9a9.776,9.776,0,1,0,10.427-9.7v-7.9a17.606,17.606,0,1,1-18.248,17.6v-41.5c-1.113.5-2.2,1-3.259,1.6v39.9a20.856,20.856,0,1,0,21.507-20.8v-7.9a28.7,28.7,0,1,1-29.33,28.7v-34.7A44.992,44.992,0,1,0,477,11873Z" transform="translate(-432 -11873)"/>
</svg>
