<svg id="_1" data-name="1" xmlns="http://www.w3.org/2000/svg" width="76" height="67" viewBox="0 0 76 67">
  <metadata><?xpacket begin="﻿" id="W5M0MpCehiHzreSzNTczkc9d"?>
<x:xmpmeta xmlns:x="adobe:ns:meta/" x:xmptk="Adobe XMP Core 5.6-c138 79.159824, 2016/09/14-01:09:01        ">
   <rdf:RDF xmlns:rdf="http://www.w3.org/1999/02/22-rdf-syntax-ns#">
      <rdf:Description rdf:about=""/>
   </rdf:RDF>
</x:xmpmeta>
                                                                                                    
                                                                                                    
                                                                                                    
                                                                                                    
                                                                                                    
                                                                                                    
                                                                                                    
                                                                                                    
                                                                                                    
                                                                                                    
                                                                                                    
                                                                                                    
                                                                                                    
                                                                                                    
                                                                                                    
                                                                                                    
                                                                                                    
                                                                                                    
                                                                                                    
                                                                                                    
                           
<?xpacket end="w"?></metadata>
<defs>
    <style>
      .cls-1, .cls-4 {
        fill: #226d4f;
      }

      .cls-2, .cls-5 {
        fill: #16d488;
      }

      .cls-3 {
        fill: #c1ecdb;
      }

      .cls-3, .cls-4, .cls-5 {
        fill-rule: evenodd;
      }
    </style>
  </defs>
  <rect id="Shape_990_copy_4" data-name="Shape 990 copy 4" class="cls-1" y="5" width="76" height="62" rx="4" ry="4"/>
  <rect id="Shape_990_copy_5" data-name="Shape 990 copy 5" class="cls-2" x="2" y="7" width="72" height="58" rx="2" ry="2"/>
  <path id="Shape_990_copy_6" data-name="Shape 990 copy 6" class="cls-3" d="M277,3494h64v50H277v-50h0Z" transform="translate(-271 -3483)"/>
  <path id="Rectangle_182_copy_2" data-name="Rectangle 182 copy 2" class="cls-4" d="M288,3483h6a2,2,0,0,1,2,2v10a2,2,0,0,1-2,2h-6a2,2,0,0,1-2-2v-10A2,2,0,0,1,288,3483Zm36,0h6a2,2,0,0,1,2,2v11a2,2,0,0,1-2,2h-6a2,2,0,0,1-2-2v-11A2,2,0,0,1,324,3483Z" transform="translate(-271 -3483)"/>
  <path id="Ellipse_15_copy_3" data-name="Ellipse 15 copy 3" class="cls-4" d="M294,3516h-6a2,2,0,0,1-2-2v-6a2,2,0,0,1,2-2h6a2,2,0,0,1,2,2v6A2,2,0,0,1,294,3516Zm36,0h-6a2,2,0,0,1-2-2v-6a2,2,0,0,1,2-2h6a2,2,0,0,1,2,2v6A2,2,0,0,1,330,3516Zm-18,0h-6a2,2,0,0,1-2-2v-6a2,2,0,0,1,2-2h6a2,2,0,0,1,2,2v6A2,2,0,0,1,312,3516Zm-18,17h-6a2,2,0,0,1-2-2v-6a2,2,0,0,1,2-2h6a2,2,0,0,1,2,2v6A2,2,0,0,1,294,3533Zm18,0h-6a2,2,0,0,1-2-2v-6a2,2,0,0,1,2-2h6a2,2,0,0,1,2,2v6A2,2,0,0,1,312,3533Z" transform="translate(-271 -3483)"/>
  <path id="Rectangle_537_copy_3" data-name="Rectangle 537 copy 3" class="cls-5" d="M288,3508h6v6h-6v-6Zm36,0h6v6h-6v-6Zm-18,0h6v6h-6v-6Zm-18,17h6v6h-6v-6Zm18,0h6v6h-6v-6Z" transform="translate(-271 -3483)"/>
  <path id="Rectangle_182_copy_2-2" data-name="Rectangle 182 copy 2" class="cls-5" d="M288,3485h6v10h-6v-10h0Zm36,0h6v11h-6v-11h0Z" transform="translate(-271 -3483)"/>
</svg>
