<svg xmlns="http://www.w3.org/2000/svg" width="140" height="90" viewBox="0 0 140 90">
  <metadata><?xpacket begin="﻿" id="W5M0MpCehiHzreSzNTczkc9d"?>
<x:xmpmeta xmlns:x="adobe:ns:meta/" x:xmptk="Adobe XMP Core 5.6-c138 79.159824, 2016/09/14-01:09:01        ">
   <rdf:RDF xmlns:rdf="http://www.w3.org/1999/02/22-rdf-syntax-ns#">
      <rdf:Description rdf:about=""/>
   </rdf:RDF>
</x:xmpmeta>
                                                                                                    
                                                                                                    
                                                                                                    
                                                                                                    
                                                                                                    
                                                                                                    
                                                                                                    
                                                                                                    
                                                                                                    
                                                                                                    
                                                                                                    
                                                                                                    
                                                                                                    
                                                                                                    
                                                                                                    
                                                                                                    
                                                                                                    
                                                                                                    
                                                                                                    
                                                                                                    
                           
<?xpacket end="w"?></metadata>
<defs>
    <style>
      .cls-1 {
        fill: #f0f7f5;
        fill-rule: evenodd;
      }
    </style>
  </defs>
  <path id="_1_bg" data-name="1_bg" class="cls-1" d="M273,3534h28a5,5,0,0,0,0-10H244a5,5,0,0,1,0-10h8a5,5,0,0,0,0-10h-3a5,5,0,0,1,0-10h63a5,5,0,0,0,0-10H249a5,5,0,0,1,0-10H364a5,5,0,0,1,0,10H342a5,5,0,0,0,0,10h24a5,5,0,0,1,0,10H272a5,5,0,0,0,0,10H374a5,5,0,0,1,0,10H321a5,5,0,0,0,0,10h53a5,5,0,0,1,0,10h-9a5,5,0,0,0,0,10h9a5,5,0,0,1,0,10H251a5,5,0,0,1,0-10h39a5,5,0,0,0,0-10H273A5,5,0,0,1,273,3534Zm37,10h35a5,5,0,0,1,0,10H310A5,5,0,0,1,310,3544Zm-71-5a5,5,0,0,1,5-5h9a5,5,0,0,1,0,10h-9A5,5,0,0,1,239,3539Z" transform="translate(-239 -3474)"/>
</svg>
