<svg id="_2" data-name="2" xmlns="http://www.w3.org/2000/svg" width="80" height="60" viewBox="0 0 80 60">
  <metadata><?xpacket begin="﻿" id="W5M0MpCehiHzreSzNTczkc9d"?>
<x:xmpmeta xmlns:x="adobe:ns:meta/" x:xmptk="Adobe XMP Core 5.6-c138 79.159824, 2016/09/14-01:09:01        ">
   <rdf:RDF xmlns:rdf="http://www.w3.org/1999/02/22-rdf-syntax-ns#">
      <rdf:Description rdf:about=""/>
   </rdf:RDF>
</x:xmpmeta>
                                                                                                    
                                                                                                    
                                                                                                    
                                                                                                    
                                                                                                    
                                                                                                    
                                                                                                    
                                                                                                    
                                                                                                    
                                                                                                    
                                                                                                    
                                                                                                    
                                                                                                    
                                                                                                    
                                                                                                    
                                                                                                    
                                                                                                    
                                                                                                    
                                                                                                    
                                                                                                    
                           
<?xpacket end="w"?></metadata>
<defs>
    <style>
      .cls-1, .cls-4 {
        fill: #226d4f;
      }

      .cls-2 {
        fill: #16d488;
      }

      .cls-3 {
        fill: #c1ecdb;
      }

      .cls-3, .cls-4 {
        fill-rule: evenodd;
      }
    </style>
  </defs>
  <rect id="Shape_990_copy_7" data-name="Shape 990 copy 7" class="cls-1" width="80" height="60" rx="4" ry="4"/>
  <rect id="Shape_990_copy_7-2" data-name="Shape 990 copy 7" class="cls-2" x="2" y="2" width="76" height="56" rx="2" ry="2"/>
  <path id="Shape_990_copy_7-3" data-name="Shape 990 copy 7" class="cls-3" d="M600,3495h68v48H600v-48h0Z" transform="translate(-594 -3489)"/>
  <path class="cls-4" d="M633,3532h-2a11,11,0,0,0-22,0h-2a13,13,0,0,1,8.705-12.26,8,8,0,1,1,8.59,0A13,13,0,0,1,633,3532Z" transform="translate(-594 -3489)"/>
  <rect id="Rounded_Rectangle_33" data-name="Rounded Rectangle 33" class="cls-2" x="20" y="18" width="12" height="12" rx="6" ry="6"/>
  <path id="Rounded_Rectangle_32" data-name="Rounded Rectangle 32" class="cls-4" d="M641,3510h19a1,1,0,0,1,0,2H641A1,1,0,0,1,641,3510Zm0,7h15a1,1,0,0,1,0,2H641A1,1,0,0,1,641,3517Zm0,7h17a1,1,0,0,1,0,2H641A1,1,0,0,1,641,3524Z" transform="translate(-594 -3489)"/>
</svg>
