<svg xmlns="http://www.w3.org/2000/svg" width="140" height="90" viewBox="0 0 140 90">
  <metadata><?xpacket begin="﻿" id="W5M0MpCehiHzreSzNTczkc9d"?>
<x:xmpmeta xmlns:x="adobe:ns:meta/" x:xmptk="Adobe XMP Core 5.6-c138 79.159824, 2016/09/14-01:09:01        ">
   <rdf:RDF xmlns:rdf="http://www.w3.org/1999/02/22-rdf-syntax-ns#">
      <rdf:Description rdf:about=""/>
   </rdf:RDF>
</x:xmpmeta>
                                                                                                    
                                                                                                    
                                                                                                    
                                                                                                    
                                                                                                    
                                                                                                    
                                                                                                    
                                                                                                    
                                                                                                    
                                                                                                    
                                                                                                    
                                                                                                    
                                                                                                    
                                                                                                    
                                                                                                    
                                                                                                    
                                                                                                    
                                                                                                    
                                                                                                    
                                                                                                    
                           
<?xpacket end="w"?></metadata>
<defs>
    <style>
      .cls-1 {
        fill: #f0f7f5;
        fill-rule: evenodd;
      }
    </style>
  </defs>
  <path id="_2_bg" data-name="2_bg" class="cls-1" d="M583,3534h41a5,5,0,0,0,0-10H571a5,5,0,0,1,0-10h99a5,5,0,0,0,0-10H584a5,5,0,0,1,0-10h13a5,5,0,0,0,0-10H573a5,5,0,0,1,0-10h89a5,5,0,0,1,0,10H617a5,5,0,0,0,0,10h77a5,5,0,0,1,0,10h-4a5,5,0,0,0,0,10h11a5,5,0,0,1,0,10H644a5,5,0,0,0,0,10h50a5,5,0,0,1,0,10H682a5,5,0,0,0,0,10h17a5,5,0,0,1,0,10H576a5,5,0,0,1,0-10h86a5,5,0,0,0,0-10H583A5,5,0,0,1,583,3534Zm94-55a5,5,0,0,1,5-5h11a5,5,0,0,1,0,10H682A5,5,0,0,1,677,3479Z" transform="translate(-566 -3474)"/>
</svg>
