<svg id="_3" data-name="3" xmlns="http://www.w3.org/2000/svg" width="74" height="74.09" viewBox="0 0 74 74.09">
  <metadata><?xpacket begin="﻿" id="W5M0MpCehiHzreSzNTczkc9d"?>
<x:xmpmeta xmlns:x="adobe:ns:meta/" x:xmptk="Adobe XMP Core 5.6-c138 79.159824, 2016/09/14-01:09:01        ">
   <rdf:RDF xmlns:rdf="http://www.w3.org/1999/02/22-rdf-syntax-ns#">
      <rdf:Description rdf:about=""/>
   </rdf:RDF>
</x:xmpmeta>
                                                                                                    
                                                                                                    
                                                                                                    
                                                                                                    
                                                                                                    
                                                                                                    
                                                                                                    
                                                                                                    
                                                                                                    
                                                                                                    
                                                                                                    
                                                                                                    
                                                                                                    
                                                                                                    
                                                                                                    
                                                                                                    
                                                                                                    
                                                                                                    
                                                                                                    
                                                                                                    
                           
<?xpacket end="w"?></metadata>
<defs>
    <style>
      .cls-1 {
        fill: #226d4f;
      }

      .cls-1, .cls-2, .cls-3 {
        fill-rule: evenodd;
      }

      .cls-2 {
        fill: #16d488;
      }

      .cls-3 {
        fill: #c1ecdb;
      }
    </style>
  </defs>
  <path id="Shape_1063_copy_4" data-name="Shape 1063 copy 4" class="cls-1" d="M971,3549.91H933.987a5.982,5.982,0,0,1-5.991-5.97V3516h17.973v16.01H971v17.9Z" transform="translate(-928 -3481.91)"/>
  <path id="Shape_1063_copy_3" data-name="Shape 1063 copy 3" class="cls-2" d="M971,3547.92H933.987a3.986,3.986,0,0,1-3.994-3.98V3516h13.979v17.99H971v13.93Z" transform="translate(-928 -3481.91)"/>
  <path class="cls-3" d="M967,3543.93H933.936V3516H939.9v21.96H967v5.97Z" transform="translate(-928 -3481.91)"/>
  <path id="Shape_1063_copy_2" data-name="Shape 1063 copy 2" class="cls-1" d="M996.013,3549.66H973.052v2.36a3.907,3.907,0,0,1-1.251,2.89,4.032,4.032,0,0,1-2.756,1.09,3.976,3.976,0,0,1-2.724-1.09l-12.064-11.31a3.976,3.976,0,0,1,0-5.8l12.064-11.31a4,4,0,0,1,6.731,2.9v2.36h10.979V3505.9H959v-17.91h37.013a5.985,5.985,0,0,1,5.987,5.97v49.73A5.985,5.985,0,0,1,996.013,3549.66Z" transform="translate(-928 -3481.91)"/>
  <path id="Shape_1063_copy_2-2" data-name="Shape 1063 copy 2" class="cls-2" d="M996.013,3547.67H971.055v4.35a2,2,0,0,1-3.365,1.45l-12.064-11.32a1.987,1.987,0,0,1,0-2.9l12.064-11.31a1.938,1.938,0,0,1,1.355-.54,1.986,1.986,0,0,1,2.01,1.99v4.35h14.973v-29.83H959v-13.93h37.013a3.989,3.989,0,0,1,4,3.98v49.73A3.989,3.989,0,0,1,996.013,3547.67Z" transform="translate(-928 -3481.91)"/>
  <path id="Shape_1064_copy" data-name="Shape 1064 copy" class="cls-3" d="M971.227,3543.69H967.25v3.72l-7.122-6.7,7.122-6.71v3.72H990.1v-37.77H963v-5.97h33.064v49.71H971.227Z" transform="translate(-928 -3481.91)"/>
  <path class="cls-1" d="M963.679,3511.41a3.99,3.99,0,0,1-6.731-2.89v-2.36H945.969V3516H928v-21.78a5.989,5.989,0,0,1,5.991-5.97h22.961v-2.36a3.913,3.913,0,0,1,1.251-2.9,4.032,4.032,0,0,1,2.756-1.09,3.978,3.978,0,0,1,2.724,1.09l12.063,11.31a3.974,3.974,0,0,1,0,5.8Z" transform="translate(-928 -3481.91)"/>
  <path id="Shape_1063_copy" data-name="Shape 1063 copy" class="cls-2" d="M962.31,3509.96a1.95,1.95,0,0,1-1.355.55,1.993,1.993,0,0,1-2.01-1.99v-4.35H943.972V3516H929.993v-21.78a3.986,3.986,0,0,1,3.994-3.98h24.958v-4.35a2,2,0,0,1,2.01-2,1.95,1.95,0,0,1,1.355.55l12.064,11.31a1.987,1.987,0,0,1,0,2.9Z" transform="translate(-928 -3481.91)"/>
  <path id="Shape_1064_copy_2" data-name="Shape 1064 copy 2" class="cls-3" d="M962.75,3500.18H939.9V3516h-5.965v-21.79H962.75v-3.72l7.122,6.71-7.122,6.7v-3.72Z" transform="translate(-928 -3481.91)"/>
</svg>
