<svg xmlns="http://www.w3.org/2000/svg" width="140" height="90" viewBox="0 0 140 90">
  <metadata><?xpacket begin="﻿" id="W5M0MpCehiHzreSzNTczkc9d"?>
<x:xmpmeta xmlns:x="adobe:ns:meta/" x:xmptk="Adobe XMP Core 5.6-c138 79.159824, 2016/09/14-01:09:01        ">
   <rdf:RDF xmlns:rdf="http://www.w3.org/1999/02/22-rdf-syntax-ns#">
      <rdf:Description rdf:about=""/>
   </rdf:RDF>
</x:xmpmeta>
                                                                                                    
                                                                                                    
                                                                                                    
                                                                                                    
                                                                                                    
                                                                                                    
                                                                                                    
                                                                                                    
                                                                                                    
                                                                                                    
                                                                                                    
                                                                                                    
                                                                                                    
                                                                                                    
                                                                                                    
                                                                                                    
                                                                                                    
                                                                                                    
                                                                                                    
                                                                                                    
                           
<?xpacket end="w"?></metadata>
<defs>
    <style>
      .cls-1 {
        fill: #f0f7f5;
        fill-rule: evenodd;
      }
    </style>
  </defs>
  <path id="_3_bg" data-name="3_bg" class="cls-1" d="M938,3534h6a5,5,0,0,0,0-10H914a5,5,0,0,1,0-10h57a5,5,0,0,0,0-10H953a5,5,0,0,1,0-10h13a5,5,0,0,0,0-10H903a5,5,0,0,1,0-10h119a5,5,0,0,1,0,10H986a5,5,0,0,0,0,10h14a5,5,0,0,1,0,10h-9a5,5,0,0,0,0,10h27a5,5,0,0,1,0,10H964a5,5,0,0,0,0,10h64a5,5,0,0,1,0,10H993a5,5,0,0,0,0,10h34a5,5,0,0,1,0,10H957a5,5,0,0,1,0-10h16a5,5,0,0,0,0-10H938A5,5,0,0,1,938,3534Zm-37,20h36a5,5,0,0,1,0,10H901A5,5,0,0,1,901,3554Zm114-55a5,5,0,0,1,5-5h8a5,5,0,0,1,0,10h-8A5,5,0,0,1,1015,3499Zm-115,0a5,5,0,0,1,5-5h28a5,5,0,0,1,0,10H905A5,5,0,0,1,900,3499Zm-7,40a5,5,0,0,1,5-5h20a5,5,0,0,1,0,10H898A5,5,0,0,1,893,3539Z" transform="translate(-893 -3474)"/>
</svg>
