<?xml version="1.0" encoding="utf-8"?>
<!-- Generator: Adobe Illustrator 21.1.0, SVG Export Plug-In . SVG Version: 6.00 Build 0)  -->
<svg version="1.1" id="_4" xmlns="http://www.w3.org/2000/svg" xmlns:xlink="http://www.w3.org/1999/xlink" x="0px" y="0px"
	 viewBox="0 0 56 70" width="56" height="70" style="enable-background:new 0 0 56 70;" xml:space="preserve">
<style type="text/css">
	.st0{fill:#226D4F;}
	.st1{fill:#16D488;}
	.st2{fill:#C1ECDB;}
</style>
<path class="st0" d="M3,69c-1.1,0-2-0.9-2-2V3c0-1.1,0.9-2,2-2h40.2c0.5,0,1,0.2,1.4,0.6l9.8,9.8c0.4,0.4,0.6,0.9,0.6,1.4V67
	c0,1.1-0.9,2-2,2H3z M3,2h40.2c0.3,0,0.5,0.1,0.7,0.3l0.9,0.9l8,8l0.9,0.9c0.2,0.2,0.3,0.4,0.3,0.7V67c0,0.6-0.4,1-1,1H3
	c-0.6,0-1-0.4-1-1V3C2,2.4,2.4,2,3,2 M3,0L3,0C1.3,0,0,1.3,0,3v64c0,1.7,1.3,3,3,3h50c1.7,0,3-1.3,3-3V12.8c0-0.8-0.3-1.6-0.9-2.1
	l-0.9-0.9l-8-8l-0.9-0.9C44.8,0.3,44,0,43.2,0L3,0L3,0z M3,69c-1.1,0-2-0.9-2-2V3c0-1.1,0.9-2,2-2h40.2c0.5,0,1,0.2,1.4,0.6l9.8,9.8
	c0.4,0.4,0.6,0.9,0.6,1.4V67c0,1.1-0.9,2-2,2H3z"/>
<path id="Shape_990_copy" class="st1" d="M3,2h40.2c0.3,0,0.5,0.1,0.7,0.3l0.9,0.9l8,8l0.9,0.9c0.2,0.2,0.3,0.4,0.3,0.7V67
	c0,0.6-0.4,1-1,1H3c-0.6,0-1-0.4-1-1V3C2,2.4,2.4,2,3,2"/>
<path id="Rectangle_52_copy" class="st2" d="M50,64H6V6h38l6,6V64z"/>
<path id="Shape_990_copy_2" class="st0" d="M56,14H46c-2.2,0-4-1.8-4-4V0h1.2c0.8,0,1.6,0.3,2.1,0.9l0.9,0.9l8,8l0.9,0.9
	c0.6,0.6,0.9,1.3,0.9,2.1V14z"/>
<path id="Shape_990_copy_3" class="st1" d="M44.8,3.2l8,8l0.8,0.8H46c-1.1,0-2-0.9-2-2V2.3L44.8,3.2z"/>
<path id="Shape_1066_copy_1_" class="st1" d="M28.6,57.7l0.9,1.8l3.8-7.1l-2.8-1.7l-3.8,7.1L28.6,57.7z M37.9,52.8l3.8,7.1l0.9-1.8
	l2,0.1l-3.8-7.1L37.9,52.8z"/>
<path id="Shape_1066_copy" class="st1" d="M30,58.2l0.9,1.8l3.8-7.1l-2.8-1.7L28,58.4L30,58.2z M39.3,52.6l3.8,7.1l0.9-1.8l2,0.1
	l-3.8-7.1L39.3,52.6z"/>
<path class="st0" d="M26.1,57.9C26.1,57.9,26.1,57.9,26.1,57.9c0,0.1,0,0.1,0.1,0.1l0,0l2.9-0.2l1.3,2.6c0,0,0,0.1,0.1,0.1
	c0,0,0.1,0,0.1-0.1l5-9.1l-4.5-2.6L26.1,57.9z M30.5,61.4c-0.4,0-0.8-0.2-1-0.6l-1-2.1L25.7,59l-0.4-0.6c-0.2-0.3-0.2-0.7,0-1
	l5.5-9.9L37,51l-5.8,10.4L30.5,61.4z M29.7,59.9C29.7,60,29.7,60,29.7,59.9L29.7,59.9z M29.7,56.8l0.8,1.7l3.7-6.8l-2.7-1.6
	l-3.7,6.8L29.7,56.8z M41,48.8l-4.5,2.6l5,9.1c0,0,0,0.1,0.1,0.1c0,0,0.1,0,0.1-0.1l1.3-2.6l2.9,0.2l0,0c0,0,0.1,0,0.1-0.1
	c0,0,0-0.1,0-0.1L41,48.8z M41.6,61.4c-0.4,0-0.8-0.2-1-0.6L35.2,51l6.2-3.6l5.8,10.4l-0.3,0.6c-0.2,0.3-0.6,0.5-0.9,0.5l-0.2,0
	l-2.2-0.1l-1.3,2.6L41.6,61.4L41.6,61.4L41.6,61.4z M37.8,51.7l3.7,6.8l0.8-1.7l1.9,0.1l-3.7-6.8L37.8,51.7z M41.7,61.5
	c-0.4,0-0.8-0.2-1-0.6l-5.5-9.9l6.2-3.6l5.8,10.4l-0.3,0.6c-0.2,0.3-0.6,0.5-0.9,0.5l-0.2,0l-2.2-0.1l-1.3,2.6L41.7,61.5L41.7,61.5
	L41.7,61.5z M30.5,61.5c-0.4,0-0.8-0.2-1-0.6l-1-2.1l-2.9,0.2l-0.4-0.6c-0.2-0.3-0.2-0.7,0-1l5.5-9.9l6.2,3.6l-5.8,10.4L30.5,61.5z"
	/>
<path class="st0" d="M36.1,52.3c0.6,0,1.1,0.1,1.6,0.3l1.6,0.6l0.8-1.4c0.6-1,1.5-1.7,2.6-2.1l1.5-0.5l-0.3-1.5
	c-0.2-1.1,0-2.3,0.6-3.2l0.8-1.3l-1.2-1c-0.9-0.7-1.5-1.7-1.7-2.8l-0.3-1.5h-1.6c-1.1,0-2.2-0.4-3.1-1.1l-1.3-1l-1.3,1
	c-0.9,0.7-2,1.1-3.1,1.1h-1.6l-0.3,1.5c-0.2,1.1-0.8,2.1-1.7,2.8l-1.2,1l0.8,1.3c0.6,1,0.8,2.1,0.6,3.2l-0.3,1.5l1.5,0.5
	c1.1,0.4,2,1.1,2.5,2.1l0.8,1.4l1.6-0.5C35,52.4,35.6,52.3,36.1,52.3z M39.8,54.4l-2.3-0.8c-0.8-0.3-1.8-0.3-2.6,0l-2.4,0.8
	l-1.2-2.1c-0.5-0.8-1.2-1.3-2-1.6l-2.3-0.8l0.4-2.3c0.2-0.9,0-1.8-0.4-2.5L25.7,43l1.9-1.5c0.7-0.6,1.2-1.3,1.3-2.2l0.4-2.4h2.5
	c0.9,0,1.8-0.3,2.5-0.9l1.9-1.5l1.9,1.5c0.7,0.6,1.6,0.9,2.4,0.9H43l0.4,2.4c0.2,0.9,0.6,1.6,1.3,2.2l1.9,1.5L45.4,45
	c-0.5,0.8-0.6,1.6-0.5,2.5l0.4,2.4L43,50.7c-0.8,0.3-1.5,0.9-2,1.6L39.8,54.4z M36.1,51.3c0.7,0,1.3,0.1,2,0.3l0.8,0.3l0.4-0.6
	c0.7-1.2,1.8-2.1,3.1-2.5l0.7-0.2l-0.1-0.6c-0.2-1.4,0-2.8,0.7-3.9l0.3-0.5L43.4,43c-1.1-0.9-1.8-2.1-2-3.4l-0.1-0.7h-0.8
	c-1.4,0-2.7-0.5-3.7-1.3l-0.6-0.5l-0.6,0.5c-1.1,0.9-2.4,1.3-3.7,1.3H31l-0.1,0.7c-0.2,1.4-1,2.6-2,3.4l-0.5,0.4l0.3,0.5
	c0.7,1.2,0.9,2.6,0.7,3.9l-0.1,0.6l0.7,0.2c1.3,0.5,2.4,1.3,3.1,2.5l0.4,0.7l0.8-0.3C34.8,51.4,35.5,51.3,36.1,51.3z M39.8,54.5
	l-2.3-0.8c-0.8-0.3-1.8-0.3-2.6,0l-2.4,0.8l-1.2-2.1c-0.5-0.8-1.2-1.3-2-1.6l-2.3-0.8l0.4-2.3c0.2-0.9,0-1.8-0.4-2.5L25.7,43
	l1.9-1.5c0.7-0.6,1.2-1.3,1.3-2.2l0.4-2.4h2.5c0.9,0,1.8-0.3,2.5-0.9l1.9-1.5l1.9,1.5c0.7,0.6,1.6,0.9,2.4,0.9H43l0.4,2.4
	c0.2,0.9,0.6,1.6,1.3,2.2l1.9,1.5l-1.2,2.1c-0.5,0.8-0.6,1.6-0.5,2.5l0.4,2.4L43,50.8c-0.8,0.3-1.5,0.9-2,1.6L39.8,54.5z"/>
<path id="Shape_1067_copy" class="st1" d="M36.1,51.3c0.7,0,1.3,0.1,2,0.3l0.8,0.3l0.4-0.6c0.7-1.2,1.8-2.1,3.1-2.5l0.7-0.2
	l-0.1-0.6c-0.2-1.4,0-2.8,0.7-3.9l0.3-0.5L43.4,43c-1.1-0.9-1.8-2.1-2-3.4l-0.1-0.7h-0.8c-1.4,0-2.7-0.5-3.7-1.3l-0.6-0.5l-0.6,0.5
	c-1.1,0.9-2.4,1.3-3.7,1.3H31l-0.1,0.7c-0.2,1.4-1,2.6-2,3.4l-0.5,0.4l0.3,0.5c0.7,1.2,0.9,2.6,0.7,3.9l-0.1,0.6l0.7,0.2
	c1.3,0.5,2.4,1.3,3.1,2.5l0.4,0.7l0.8-0.3C34.8,51.4,35.5,51.3,36.1,51.3z"/>
</svg>
