<svg xmlns="http://www.w3.org/2000/svg" width="140" height="90" viewBox="0 0 140 90">
  <metadata><?xpacket begin="﻿" id="W5M0MpCehiHzreSzNTczkc9d"?>
<x:xmpmeta xmlns:x="adobe:ns:meta/" x:xmptk="Adobe XMP Core 5.6-c138 79.159824, 2016/09/14-01:09:01        ">
   <rdf:RDF xmlns:rdf="http://www.w3.org/1999/02/22-rdf-syntax-ns#">
      <rdf:Description rdf:about=""/>
   </rdf:RDF>
</x:xmpmeta>
                                                                                                    
                                                                                                    
                                                                                                    
                                                                                                    
                                                                                                    
                                                                                                    
                                                                                                    
                                                                                                    
                                                                                                    
                                                                                                    
                                                                                                    
                                                                                                    
                                                                                                    
                                                                                                    
                                                                                                    
                                                                                                    
                                                                                                    
                                                                                                    
                                                                                                    
                                                                                                    
                           
<?xpacket end="w"?></metadata>
<defs>
    <style>
      .cls-1 {
        fill: #f0f7f5;
        fill-rule: evenodd;
      }
    </style>
  </defs>
  <path id="_4_bg" data-name="4_bg" class="cls-1" d="M1236,3534h49a5,5,0,0,0,0-10h-47a5,5,0,0,1,0-10h8a5,5,0,0,0,0-10h-21a5,5,0,0,1,0-10h43a5,5,0,0,0,0-10h-38a5,5,0,0,1,0-10h123a5,5,0,0,1,0,10h-65a5,5,0,0,0,0,10h67a5,5,0,0,1,0,10h-89a5,5,0,0,0,0,10h65a5,5,0,0,1,0,10h-26a5,5,0,0,0,0,10h10a5,5,0,0,1,0,10h-50a5,5,0,0,0,0,10h25a5,5,0,0,1,0,10h-58a5,5,0,0,1,0-10h13a5,5,0,0,0,0-10h-9A5,5,0,0,1,1236,3534Zm69,25a5,5,0,0,1,5-5h45a5,5,0,0,1,0,10h-45A5,5,0,0,1,1305,3559Zm30-25h13a5,5,0,0,1,0,10h-13A5,5,0,0,1,1335,3534Z" transform="translate(-1220 -3474)"/>
</svg>
