<svg id="_1" data-name="1" xmlns="http://www.w3.org/2000/svg" width="96" height="63" viewBox="0 0 96 63">
  <metadata><?xpacket begin="﻿" id="W5M0MpCehiHzreSzNTczkc9d"?>
<x:xmpmeta xmlns:x="adobe:ns:meta/" x:xmptk="Adobe XMP Core 5.6-c138 79.159824, 2016/09/14-01:09:01        ">
   <rdf:RDF xmlns:rdf="http://www.w3.org/1999/02/22-rdf-syntax-ns#">
      <rdf:Description rdf:about=""/>
   </rdf:RDF>
</x:xmpmeta>
                                                                                                    
                                                                                                    
                                                                                                    
                                                                                                    
                                                                                                    
                                                                                                    
                                                                                                    
                                                                                                    
                                                                                                    
                                                                                                    
                                                                                                    
                                                                                                    
                                                                                                    
                                                                                                    
                                                                                                    
                                                                                                    
                                                                                                    
                                                                                                    
                                                                                                    
                                                                                                    
                           
<?xpacket end="w"?></metadata>
<defs>
    <style>
      .cls-1, .cls-2 {
        fill: #226d4f;
      }

      .cls-1, .cls-4, .cls-5 {
        fill-rule: evenodd;
      }

      .cls-3, .cls-4 {
        fill: #16d488;
      }

      .cls-5 {
        fill: #c1ecdb;
      }
    </style>
  </defs>
  <path id="Rounded_Rectangle_16" data-name="Rounded Rectangle 16" class="cls-1" d="M305,3720v-4a2,2,0,0,1,2-2h4a2,2,0,0,1,2,2v4h-8Z" transform="translate(-261 -3704)"/>
  <rect class="cls-2" x="47" width="2" height="10"/>
  <rect class="cls-3" x="46" y="12" width="4" height="2"/>
  <path class="cls-1" d="M348.2,3726.57a22.933,22.933,0,0,0-16.1-6.59H285.9a22.933,22.933,0,0,0-16.1,6.59,22.134,22.134,0,0,0-6.8,15.93c0,12.62,9.6,22.51,21.85,22.51a24.667,24.667,0,0,0,14.276-5.15h19.749a24.662,24.662,0,0,0,14.275,5.15c12.252,0,21.85-9.89,21.85-22.51A22.134,22.134,0,0,0,348.2,3726.57Zm1.4-1.41a24.924,24.924,0,0,0-17.5-7.16H285.9a24.924,24.924,0,0,0-17.5,7.16,24.073,24.073,0,0,0-7.4,17.34c0,13.73,10.476,24.49,23.85,24.49a26.486,26.486,0,0,0,14.945-5.15h18.411a26.48,26.48,0,0,0,14.944,5.15c13.374,0,23.85-10.76,23.85-24.49A24.073,24.073,0,0,0,349.6,3725.16Zm-63.7-1.21h46.2c10.242,0,18.9,8.34,18.9,18.55,0,10.33-7.608,18.54-17.85,18.54a20.781,20.781,0,0,1-12.3-4.7,2.106,2.106,0,0,0-1.345-.45h-21a2.106,2.106,0,0,0-1.345.45,20.781,20.781,0,0,1-12.3,4.7c-10.242,0-17.85-8.21-17.85-18.54C267,3732.29,275.658,3723.95,285.9,3723.95Z" transform="translate(-261 -3704)"/>
  <path id="Shape_1005_copy" data-name="Shape 1005 copy" class="cls-4" d="M333.15,3765.01a24.662,24.662,0,0,1-14.275-5.15l-19.749-.01a24.611,24.611,0,0,1-14.276,5.16c-12.252,0-21.85-9.89-21.85-22.51a22.134,22.134,0,0,1,6.8-15.93,22.966,22.966,0,0,1,16.1-6.58h46.2a22.966,22.966,0,0,1,16.1,6.58,22.134,22.134,0,0,1,6.8,15.93C355,3755.12,345.4,3765.01,333.15,3765.01Z" transform="translate(-261 -3704)"/>
  <path id="Shape_1005_copy_2" data-name="Shape 1005 copy 2" class="cls-5" d="M285.9,3724.01h46.2c10.242,0,18.9,8.32,18.9,18.5,0,10.3-7.608,18.5-17.85,18.5a20.836,20.836,0,0,1-12.3-4.69,2.106,2.106,0,0,0-1.345-.45h-21a2.106,2.106,0,0,0-1.345.45,20.836,20.836,0,0,1-12.3,4.69c-10.242,0-17.85-8.2-17.85-18.5C267,3732.33,275.658,3724.01,285.9,3724.01Z" transform="translate(-261 -3704)"/>
  <path id="Rounded_Rectangle_15" data-name="Rounded Rectangle 15" class="cls-1" d="M285,3735a1,1,0,0,1,1,1v12a1,1,0,0,1-2,0v-12A1,1,0,0,1,285,3735Zm-6,6h12a1,1,0,0,1,0,2H279A1,1,0,0,1,279,3741Z" transform="translate(-261 -3704)"/>
  <path id="Rounded_Rectangle_15_copy" data-name="Rounded Rectangle 15 copy" class="cls-1" d="M301,3750h5a1,1,0,0,1,0,2h-5A1,1,0,0,1,301,3750Zm11,0h5a1,1,0,0,1,0,2h-5A1,1,0,0,1,312,3750Z" transform="translate(-261 -3704)"/>
  <path id="Ellipse_49_copy_2" data-name="Ellipse 49 copy 2" class="cls-1" d="M327,3739a3,3,0,1,1-3,3A3,3,0,0,1,327,3739Zm0,2a1,1,0,1,1-1,1A1,1,0,0,1,327,3741Zm12-2a3,3,0,1,1-3,3A3,3,0,0,1,339,3739Zm0,2a1,1,0,1,1-1,1A1,1,0,0,1,339,3741Zm-6,4a3,3,0,1,1-3,3A3,3,0,0,1,333,3745Zm0,2a1,1,0,1,1-1,1A1,1,0,0,1,333,3747Zm0-14a3,3,0,1,1-3,3A3,3,0,0,1,333,3733Zm0,2a1,1,0,1,1-1,1A1,1,0,0,1,333,3735Z" transform="translate(-261 -3704)"/>
</svg>
