<svg xmlns="http://www.w3.org/2000/svg" width="170" height="110" viewBox="0 0 170 110">
  <metadata><?xpacket begin="﻿" id="W5M0MpCehiHzreSzNTczkc9d"?>
<x:xmpmeta xmlns:x="adobe:ns:meta/" x:xmptk="Adobe XMP Core 5.6-c138 79.159824, 2016/09/14-01:09:01        ">
   <rdf:RDF xmlns:rdf="http://www.w3.org/1999/02/22-rdf-syntax-ns#">
      <rdf:Description rdf:about=""/>
   </rdf:RDF>
</x:xmpmeta>
                                                                                                    
                                                                                                    
                                                                                                    
                                                                                                    
                                                                                                    
                                                                                                    
                                                                                                    
                                                                                                    
                                                                                                    
                                                                                                    
                                                                                                    
                                                                                                    
                                                                                                    
                                                                                                    
                                                                                                    
                                                                                                    
                                                                                                    
                                                                                                    
                                                                                                    
                                                                                                    
                           
<?xpacket end="w"?></metadata>
<defs>
    <style>
      .cls-1 {
        fill: #f0f7f5;
        fill-rule: evenodd;
      }
    </style>
  </defs>
  <path id="_1_bg" data-name="1_bg" class="cls-1" d="M380,3697H339a5,5,0,0,0,0,10h38a5,5,0,0,1,0,10H258a5,5,0,0,0,0,10H375a5,5,0,0,1,0,10H334a5,5,0,0,0,0,10h29a5,5,0,0,1,0,10H290a5,5,0,0,0,0,10h88a5,5,0,0,1,0,10H339a5,5,0,0,0,0,10h38a5,5,0,0,1,0,10H243a5,5,0,0,1,0-10h76a5,5,0,0,0,0-10H233a5,5,0,0,1,0-10h37a5,5,0,0,0,0-10H245a5,5,0,0,1,0-10h59a5,5,0,0,0,0-10H220a5,5,0,0,1,0-10h18a5,5,0,0,0,0-10H228a5,5,0,0,1,0-10h89a5,5,0,0,0,0-10H244a5,5,0,0,1,0-10H380A5,5,0,0,1,380,3697Z" transform="translate(-215 -3687)"/>
</svg>
