<svg id="_2" data-name="2" xmlns="http://www.w3.org/2000/svg" width="80" height="75" viewBox="0 0 80 75">
  <metadata><?xpacket begin="﻿" id="W5M0MpCehiHzreSzNTczkc9d"?>
<x:xmpmeta xmlns:x="adobe:ns:meta/" x:xmptk="Adobe XMP Core 5.6-c138 79.159824, 2016/09/14-01:09:01        ">
   <rdf:RDF xmlns:rdf="http://www.w3.org/1999/02/22-rdf-syntax-ns#">
      <rdf:Description rdf:about=""/>
   </rdf:RDF>
</x:xmpmeta>
                                                                                                    
                                                                                                    
                                                                                                    
                                                                                                    
                                                                                                    
                                                                                                    
                                                                                                    
                                                                                                    
                                                                                                    
                                                                                                    
                                                                                                    
                                                                                                    
                                                                                                    
                                                                                                    
                                                                                                    
                                                                                                    
                                                                                                    
                                                                                                    
                                                                                                    
                                                                                                    
                           
<?xpacket end="w"?></metadata>
<defs>
    <style>
      .cls-1 {
        fill: #226d4f;
      }

      .cls-1, .cls-2, .cls-3 {
        fill-rule: evenodd;
      }

      .cls-2 {
        fill: #16d488;
      }

      .cls-3 {
        fill: #c1ecdb;
      }
    </style>
  </defs>
  <path class="cls-1" d="M674,3711h-3v48.01a10,10,0,0,1-10,10H609a10,10,0,0,1-10-10V3711h-3a1,1,0,0,1,0-2h78A1,1,0,0,1,674,3711Z" transform="translate(-595 -3709)"/>
  <path class="cls-1" d="M618.508,3783.9h0a1.068,1.068,0,0,1-.418-1.41l9.056-17.96a0.973,0.973,0,0,1,1.348-.43h0a1.068,1.068,0,0,1,.419,1.41l-9.056,17.95A0.978,0.978,0,0,1,618.508,3783.9Zm31.6-.44-9.056-17.95a1.068,1.068,0,0,1,.418-1.41h0a0.974,0.974,0,0,1,1.349.43l9.056,17.96a1.068,1.068,0,0,1-.418,1.41h0A0.978,0.978,0,0,1,650.111,3783.46Z" transform="translate(-595 -3709)"/>
  <path id="Shape_1013_copy" data-name="Shape 1013 copy" class="cls-2" d="M601,3710.99h68v48a8,8,0,0,1-8,8H609a8,8,0,0,1-8-8v-48h0Z" transform="translate(-595 -3709)"/>
  <path id="Shape_1013_copy_2" data-name="Shape 1013 copy 2" class="cls-3" d="M605,3714.99h60v44a4,4,0,0,1-4,4H609a4,4,0,0,1-4-4v-44h0Z" transform="translate(-595 -3709)"/>
  <path id="Rounded_Rectangle_17_copy_2" data-name="Rounded Rectangle 17 copy 2" class="cls-1" d="M634,3721a1,1,0,0,1,1,1v34a1,1,0,0,1-2,0v-34A1,1,0,0,1,634,3721Zm-13,16a1,1,0,0,1,1,1v18a1,1,0,0,1-2,0v-18A1,1,0,0,1,621,3737Zm26-6a1,1,0,0,1,1,1v24a1,1,0,0,1-2,0v-24A1,1,0,0,1,647,3731Z" transform="translate(-595 -3709)"/>
</svg>
