<svg id="_2_1" data-name="2_1" xmlns="http://www.w3.org/2000/svg" width="155.062" height="73" viewBox="0 0 155.062 73">
  <metadata><?xpacket begin="﻿" id="W5M0MpCehiHzreSzNTczkc9d"?>
<x:xmpmeta xmlns:x="adobe:ns:meta/" x:xmptk="Adobe XMP Core 5.6-c138 79.159824, 2016/09/14-01:09:01        ">
   <rdf:RDF xmlns:rdf="http://www.w3.org/1999/02/22-rdf-syntax-ns#">
      <rdf:Description rdf:about=""/>
   </rdf:RDF>
</x:xmpmeta>
                                                                                                    
                                                                                                    
                                                                                                    
                                                                                                    
                                                                                                    
                                                                                                    
                                                                                                    
                                                                                                    
                                                                                                    
                                                                                                    
                                                                                                    
                                                                                                    
                                                                                                    
                                                                                                    
                                                                                                    
                                                                                                    
                                                                                                    
                                                                                                    
                                                                                                    
                                                                                                    
                           
<?xpacket end="w"?></metadata>
<defs>
    <style>
      .cls-1 {
        fill: #16d488;
      }

      .cls-1, .cls-2 {
        fill-rule: evenodd;
        opacity: 0.5;
      }

      .cls-2 {
        fill: #226d4f;
      }
    </style>
  </defs>
  <path id="Rectangle_131_copy_3" data-name="Rectangle 131 copy 3" class="cls-1" d="M558.657,3736.07L556,3733.41l-2.657,2.66-1.414-1.42,2.656-2.65-2.656-2.66,1.414-1.41,2.657,2.65,2.657-2.65,1.414,1.41-2.657,2.66,2.657,2.65Z" transform="translate(-551.938 -3697)"/>
  <path id="Rectangle_175_copy_2" data-name="Rectangle 175 copy 2" class="cls-1" d="M706,3752h-3v3a1,1,0,0,1-2,0v-3h-3a1,1,0,0,1,0-2h3v-3a1,1,0,0,1,2,0v3h3A1,1,0,0,1,706,3752Z" transform="translate(-551.938 -3697)"/>
  <path id="Rectangle_175_copy_3" data-name="Rectangle 175 copy 3" class="cls-2" d="M580,3766h-3v3a1,1,0,0,1-2,0v-3h-3a1,1,0,0,1,0-2h3v-3a1,1,0,0,1,2,0v3h3A1,1,0,0,1,580,3766Z" transform="translate(-551.938 -3697)"/>
  <path id="Ellipse_42_copy_3" data-name="Ellipse 42 copy 3" class="cls-2" d="M691,3705a4,4,0,1,1,4-4A4,4,0,0,1,691,3705Zm0-6a2,2,0,1,0,2,2A2,2,0,0,0,691,3699Z" transform="translate(-551.938 -3697)"/>
  <path id="Rounded_Rectangle_10_copy_5" data-name="Rounded Rectangle 10 copy 5" class="cls-2" d="M577,3707h-7a1,1,0,0,1-1-1v-7a1,1,0,0,1,1-1h7a1,1,0,0,1,1,1v7A1,1,0,0,1,577,3707Zm-1-7h-5v5h5v-5Z" transform="translate(-551.938 -3697)"/>
</svg>
