<svg xmlns="http://www.w3.org/2000/svg" width="170" height="110" viewBox="0 0 170 110">
  <metadata><?xpacket begin="﻿" id="W5M0MpCehiHzreSzNTczkc9d"?>
<x:xmpmeta xmlns:x="adobe:ns:meta/" x:xmptk="Adobe XMP Core 5.6-c138 79.159824, 2016/09/14-01:09:01        ">
   <rdf:RDF xmlns:rdf="http://www.w3.org/1999/02/22-rdf-syntax-ns#">
      <rdf:Description rdf:about=""/>
   </rdf:RDF>
</x:xmpmeta>
                                                                                                    
                                                                                                    
                                                                                                    
                                                                                                    
                                                                                                    
                                                                                                    
                                                                                                    
                                                                                                    
                                                                                                    
                                                                                                    
                                                                                                    
                                                                                                    
                                                                                                    
                                                                                                    
                                                                                                    
                                                                                                    
                                                                                                    
                                                                                                    
                                                                                                    
                                                                                                    
                           
<?xpacket end="w"?></metadata>
<defs>
    <style>
      .cls-1 {
        fill: #f0f7f5;
        fill-rule: evenodd;
      }
    </style>
  </defs>
  <path id="_2_bg" data-name="2_bg" class="cls-1" d="M581,3712a5,5,0,0,1-5,5H556a5,5,0,0,1,0-10h20A5,5,0,0,1,581,3712Zm-5,15h44a5,5,0,0,0,0-10H596a5,5,0,0,1-.044-10H604a5,5,0,0,0,0-10H579a5,5,0,0,1,0-10H693a5,5,0,0,1,0,10H654a5,5,0,0,0,0,10h42.044a5,5,0,0,1-.044,10H660a5,5,0,0,0,0,10h56a5,5,0,0,1,0,10H694a5,5,0,0,0,0,10h20a5,5,0,0,1,0,10H608a5,5,0,0,0,0,10H711a5,5,0,0,1,0,10H658a5,5,0,0,0,0,10h13a5,5,0,0,1,0,10H596a5,5,0,0,1,0-10h42a5,5,0,0,0,0-10H571a5,5,0,0,1,0-10h17a5,5,0,0,0,0-10H565a5,5,0,0,1,0-10h74a5,5,0,0,0,0-10H576A5,5,0,0,1,576,3727Z" transform="translate(-551 -3687)"/>
</svg>
