<?xml version="1.0" encoding="utf-8"?>
<!-- Generator: Adobe Illustrator 21.1.0, SVG Export Plug-In . SVG Version: 6.00 Build 0)  -->
<svg version="1.1" id="_3" xmlns="http://www.w3.org/2000/svg" xmlns:xlink="http://www.w3.org/1999/xlink" x="0px" y="0px"
	 viewBox="0 0 98.9 87.9" width="98.9" height="87.9" style="enable-background:new 0 0 98.9 87.9;" xml:space="preserve">
<style type="text/css">
	.st0{fill:#226D4F;}
	.st1{fill:#16D488;}
	.st2{fill:#C1ECDB;}
</style>
<path id="Shape_1009_copy_6" class="st0" d="M63,33.9c-2.8,0-5,2.2-5,5v0v21v0c0,2.8,2.2,5,5,5s5-2.2,5-5v-21
	C68,36.2,65.8,33.9,63,33.9C63,33.9,63,33.9,63,33.9L63,33.9z"/>
<path id="Shape_1009_copy_5" class="st0" d="M5,33.9c-2.8,0-5,2.2-5,5v0v21v0c0,2.8,2.2,5,5,5s5-2.2,5-5v-21
	C10,36.2,7.8,33.9,5,33.9C5,33.9,5,33.9,5,33.9L5,33.9z"/>
<path id="Shape_1009_copy_11" class="st0" d="M51.1,71.9H47v0.1h0v11c0,2.8-2.2,5-5,5s-5-2.2-5-5v0V71.9h-6v11.1c0,2.8-2.2,5-5,5
	s-5-2.2-5-5v0v-11h0v-0.1h-4.1c-2.7,0-4.9-2.2-4.9-4.9V34.9h44V67C56,69.7,53.8,71.9,51.1,71.9z M12,32.3c0-1.5,0.2-2.9,0.5-4.3
	c1.5-5.5,5.3-10.1,10.4-12.6l-3.4-6.2c-0.2-0.4-0.1-0.9,0.3-1.1c0,0,0,0,0,0C20,8,20.2,7.9,20.3,7.9c0.3,0,0.6,0.2,0.7,0.4l3.4,6.3
	c6.1-2.6,13.1-2.6,19.2,0L47,8.3c0.1-0.3,0.4-0.4,0.7-0.4c0.1,0,0.3,0,0.4,0.1c0.4,0.2,0.5,0.7,0.3,1.1c0,0,0,0,0,0L45,15.3
	c5.4,2.6,9.3,7.5,10.7,13.3c0.1,0.6,0.2,1.3,0.3,2v2.4H12C12,32.7,12,32.5,12,32.3z"/>
<path id="Shape_1009_copy_9" class="st1" d="M63,35.9c1.6,0,3,1.3,3,3v21c0,1.7-1.3,3-3,3s-3-1.3-3-3v-21C60,37.3,61.3,35.9,63,35.9
	 M63,35.9c1.6,0,3,1.3,3,3v21c0,1.7-1.3,3-3,3s-3-1.3-3-3v-21C60,37.3,61.3,35.9,63,35.9"/>
<path id="Shape_1009_copy_8" class="st1" d="M5,35.9c1.6,0,3,1.3,3,3v21c0,1.7-1.3,3-3,3s-3-1.3-3-3v-21C2,37.3,3.4,35.9,5,35.9
	 M5,35.9c1.6,0,3,1.3,3,3v21c0,1.7-1.3,3-3,3s-3-1.3-3-3v-21C2,37.3,3.4,35.9,5,35.9"/>
<path id="Shape_1009_copy_11-2" class="st1" d="M51.1,69.9h-6.1v0H45v13c0,1.7-1.3,3-3,3s-3-1.3-3-3l0,0v-13h0.3v0H28.7v0H29v13
	c0,1.7-1.3,3-3,3s-3-1.3-3-3l0,0v-13h-0.1v0h-6.1c-1.6,0-2.9-1.3-2.9-2.9V36.9h40V67C54,68.6,52.7,69.9,51.1,69.9z"/>
<path id="Shape_1009_copy_7" class="st1" d="M34,14.9c3,0,6,0.6,8.8,1.7l0.7,0.3l0.6,0.3c4.8,2.2,8.4,6.6,9.6,11.7
	c0.1,0.5,0.2,1.1,0.3,1.6v0.3H14c0.1-0.8,0.2-1.7,0.4-2.5c1.4-4.9,4.8-8.9,9.4-11.1l0.7-0.3l0.7-0.3C28,15.5,31,14.9,34,14.9"/>
<path class="st2" d="M19,40.9h30c0.6,0,1,0.4,1,1v23c0,0.6-0.4,1-1,1H19c-0.6,0-1-0.4-1-1v-23C18,41.4,18.4,40.9,19,40.9z"/>
<path id="Shape_1009_copy_2" class="st0" d="M44.2,27.4c2.3,0,4.1-1.8,4.1-4.1c0-2.3-1.8-4.1-4.1-4.1s-4.1,1.8-4.1,4.1
	S41.9,27.4,44.2,27.4L44.2,27.4 M23.8,27.4c2.3,0,4.1-1.8,4.1-4.1c0-2.3-1.8-4.1-4.1-4.1s-4.1,1.8-4.1,4.1S21.6,27.4,23.8,27.4
	L23.8,27.4 M44.2,25.4c-1.2,0-2.1-0.9-2.1-2.1c0-1.2,0.9-2.1,2.1-2.1s2.1,0.9,2.1,2.1C46.3,24.5,45.3,25.4,44.2,25.4L44.2,25.4
	L44.2,25.4z M23.8,25.4c-1.2,0-2.1-0.9-2.1-2.1c0-1.2,0.9-2.1,2.1-2.1s2.1,0.9,2.1,2.1C25.9,24.5,25,25.4,23.8,25.4L23.8,25.4
	L23.8,25.4z"/>
<path class="st0" d="M98.3,21.8c-0.3-0.2-0.6-0.4-0.8-0.7c-3.4-3.2-3.6-8.5-0.4-11.9c-0.3-0.2-0.6-0.3-0.9-0.4
	c0.1-0.2,0.2-0.3,0.4-0.4c-1-0.6-2.1-0.9-3.3-0.9v0c-1.2,0.1-2.4,0.4-3.5,0.9C88.9,8.8,88,9,87.1,9.1c-1-0.1-2-0.3-2.9-0.7
	c-1-0.4-2-0.7-3.1-0.8c-3,0-5.9,2.7-5.9,7.9c0,6.3,4.7,13,6.7,13c0.5-0.1,1-0.2,1.5-0.4c1.3-0.5,2.8-0.9,4.2-0.9
	c1.3,0,2.5,0.3,3.7,0.8c0.6,0.3,1.3,0.5,2,0.5c1.3,0,3.3-2.7,4.7-5.7c0,0-0.1-0.1-0.1-0.1C98,22.4,98.2,22.1,98.3,21.8z"/>
<path class="st0" d="M92.7,0c-1.8,0.1-3.5,1.1-4.6,2.5c-1,1.1-1.5,2.6-1.3,4.1c0.1,0,0.3,0,0.4,0c1.6-0.1,3-0.8,4-2.1
	C92.3,3.4,92.9,1.7,92.7,0L92.7,0z M82.6,28.1c-2.6,0-6.8-6.6-6.8-12.2c0-5.1,3.1-7.8,6.1-7.8c1,0.1,2.1,0.3,3,0.7
	c0.7,0.3,1.4,0.5,2.1,0.5c0.7-0.1,1.3-0.2,1.9-0.5C90,8.3,91.2,8,92.3,8c1.6-0.1,3.2,0.6,4.4,1.7c-3.2,2.5-3.7,7.2-1.1,10.3
	c0.6,0.7,1.3,1.3,2.1,1.8C96.7,24,94.5,28,92.3,28c-0.7,0-1.4-0.2-2-0.5c-0.9-0.4-1.9-0.6-2.8-0.6c-1.1,0.1-2.2,0.3-3.3,0.8
	C83.7,27.8,83.1,28,82.6,28.1z M92.3,8.9c1,0,2,0.2,2.8,0.8c-3.1,3.4-2.9,8.6,0.4,11.7c0.3,0.2,0.5,0.5,0.8,0.7
	c-1.2,2.5-2.9,4.9-4,4.9c-0.6,0-1.2-0.2-1.7-0.4c-1-0.4-2.1-0.7-3.2-0.7c-1.2,0.1-2.5,0.3-3.6,0.8c-0.4,0.2-0.8,0.3-1.3,0.4
	c-1.8,0-5.8-5.7-5.8-11.2c0-4.5,2.6-6.8,5.1-6.8c0.9,0.1,1.8,0.3,2.7,0.7c0.8,0.4,1.6,0.6,2.5,0.6c0.8-0.1,1.6-0.3,2.3-0.6
	C90.3,9.3,91.3,9,92.3,8.9 M92.3,7c-2.4,0-4.3,1.4-5.3,1.4c-1.2,0-2.9-1.3-5.1-1.3c-3.4,0-7.1,3-7.1,8.8c0,5.9,4.3,13.2,7.8,13.2
	c1.2,0,3-1.2,4.9-1.2c1.8,0,3.2,1.1,4.9,1.1c3.8,0,6.5-7.7,6.5-7.7c-2.4-1-3.9-3.3-4-5.9c0-2.3,1.2-4.4,3.2-5.5
	C96.8,8,94.6,6.9,92.3,7L92.3,7L92.3,7z"/>
<path id="Shape_1011_copy" class="st1" d="M92.3,8.9c1,0,2,0.2,2.8,0.8c-3.1,3.4-2.9,8.6,0.4,11.7c0.3,0.2,0.5,0.5,0.8,0.7
	c-1.2,2.5-2.9,4.9-4,4.9c-0.6,0-1.2-0.2-1.7-0.4c-1-0.4-2.1-0.7-3.2-0.7c-1.2,0.1-2.5,0.3-3.6,0.8c-0.4,0.2-0.8,0.3-1.3,0.4
	c-1.8,0-5.8-5.7-5.8-11.2c0-4.5,2.6-6.8,5.1-6.8c0.9,0.1,1.8,0.3,2.7,0.7c0.8,0.4,1.6,0.6,2.5,0.6c0.8-0.1,1.6-0.3,2.3-0.6
	C90.3,9.3,91.3,9,92.3,8.9"/>
</svg>
