<svg id="_3_1" data-name="3_1" xmlns="http://www.w3.org/2000/svg" width="163" height="90.81" viewBox="0 0 163 90.81">
  <metadata><?xpacket begin="﻿" id="W5M0MpCehiHzreSzNTczkc9d"?>
<x:xmpmeta xmlns:x="adobe:ns:meta/" x:xmptk="Adobe XMP Core 5.6-c138 79.159824, 2016/09/14-01:09:01        ">
   <rdf:RDF xmlns:rdf="http://www.w3.org/1999/02/22-rdf-syntax-ns#">
      <rdf:Description rdf:about=""/>
   </rdf:RDF>
</x:xmpmeta>
                                                                                                    
                                                                                                    
                                                                                                    
                                                                                                    
                                                                                                    
                                                                                                    
                                                                                                    
                                                                                                    
                                                                                                    
                                                                                                    
                                                                                                    
                                                                                                    
                                                                                                    
                                                                                                    
                                                                                                    
                                                                                                    
                                                                                                    
                                                                                                    
                                                                                                    
                                                                                                    
                           
<?xpacket end="w"?></metadata>
<defs>
    <style>
      .cls-1 {
        fill: #2c7457;
      }

      .cls-1, .cls-2, .cls-3 {
        fill-rule: evenodd;
        opacity: 0.5;
      }

      .cls-2 {
        fill: #16d488;
      }

      .cls-3 {
        fill: #226d4f;
      }
    </style>
  </defs>
  <path id="Rectangle_131_copy_4" data-name="Rectangle 131 copy 4" class="cls-1" d="M910.657,3707.07L908,3704.41l-2.657,2.66-1.414-1.42,2.657-2.65-2.657-2.66,1.414-1.41,2.657,2.65,2.657-2.65,1.414,1.41-2.657,2.66,2.657,2.65Z" transform="translate(-887 -3698.94)"/>
  <path id="Rectangle_175_copy_4" data-name="Rectangle 175 copy 4" class="cls-2" d="M896,3745h-3v3a1,1,0,0,1-2,0v-3h-3a1,1,0,0,1,0-2h3v-3a1,1,0,0,1,2,0v3h3A1,1,0,0,1,896,3745Z" transform="translate(-887 -3698.94)"/>
  <path id="Rounded_Rectangle_10_copy_3" data-name="Rounded Rectangle 10 copy 3" class="cls-3" d="M1022,3779h-7a1,1,0,0,1-1-1v-7a1,1,0,0,1,1-1h7a1,1,0,0,1,1,1v7A1,1,0,0,1,1022,3779Zm-1-7h-5v5h5v-5Z" transform="translate(-887 -3698.94)"/>
  <path id="Ellipse_42_copy_4" data-name="Ellipse 42 copy 4" class="cls-2" d="M1046,3750a4,4,0,1,1,4-4A4,4,0,0,1,1046,3750Zm0-6a2,2,0,1,0,2,2A2,2,0,0,0,1046,3744Z" transform="translate(-887 -3698.94)"/>
  <path id="Shape_981_copy_2" data-name="Shape 981 copy 2" class="cls-1" d="M926.261,3789.55l-11.4.2,5.876-9.77Zm-7.9-1.82,4.471-.08-2.168-3.75Z" transform="translate(-887 -3698.94)"/>
</svg>
