<svg xmlns="http://www.w3.org/2000/svg" width="170" height="110" viewBox="0 0 170 110">
  <metadata><?xpacket begin="﻿" id="W5M0MpCehiHzreSzNTczkc9d"?>
<x:xmpmeta xmlns:x="adobe:ns:meta/" x:xmptk="Adobe XMP Core 5.6-c138 79.159824, 2016/09/14-01:09:01        ">
   <rdf:RDF xmlns:rdf="http://www.w3.org/1999/02/22-rdf-syntax-ns#">
      <rdf:Description rdf:about=""/>
   </rdf:RDF>
</x:xmpmeta>
                                                                                                    
                                                                                                    
                                                                                                    
                                                                                                    
                                                                                                    
                                                                                                    
                                                                                                    
                                                                                                    
                                                                                                    
                                                                                                    
                                                                                                    
                                                                                                    
                                                                                                    
                                                                                                    
                                                                                                    
                                                                                                    
                                                                                                    
                                                                                                    
                                                                                                    
                                                                                                    
                           
<?xpacket end="w"?></metadata>
<defs>
    <style>
      .cls-1 {
        fill: #f0f7f5;
        fill-rule: evenodd;
      }
    </style>
  </defs>
  <path id="_3_bg" data-name="3_bg" class="cls-1" d="M886,3697h42a5,5,0,0,1,0,10H884a5,5,0,0,0,0,10h119a5,5,0,0,1,0,10H897a5,5,0,0,0,0,10h62a5,5,0,0,1,0,10H901a5,5,0,0,0,0,10h29a5,5,0,0,1,0,10H896a5,5,0,0,0-.022,10H918a5,5,0,0,1,0,10H896a5,5,0,0,0,0,10h130a5,5,0,0,0,0-10h-10a5,5,0,0,1,0-10h8.02a5,5,0,0,0-.02-10H998a5,5,0,0,1,0-10h46a5,5,0,0,0,0-10h-27a5,5,0,0,1,0-10h25a5,5,0,0,0,0-10h-19a5,5,0,0,1,0-10h16a5,5,0,0,0,0-10h-29a5,5,0,0,1,0-10h19a5,5,0,0,0,0-10H886A5,5,0,0,0,886,3697Z" transform="translate(-879 -3687)"/>
</svg>
