<?xml version="1.0" encoding="utf-8"?>
<!-- Generator: Adobe Illustrator 21.1.0, SVG Export Plug-In . SVG Version: 6.00 Build 0)  -->
<svg version="1.1" id="_4" xmlns="http://www.w3.org/2000/svg" xmlns:xlink="http://www.w3.org/1999/xlink" x="0px" y="0px"
	 viewBox="0 0 72 84" width="72" height="84" style="enable-background:new 0 0 72 84;" xml:space="preserve">
<style type="text/css">
	.st0{fill:#226D4F;}
	.st1{fill:#16D488;}
	.st2{fill:#C1ECDB;}
</style>
<g>
	<path class="st0" d="M60.3,34.9V21.3L47.7,14L35,21.3v13.6l-10.7,6.1l-11.7-6.8L0,41.6v14.7l11.7,6.8v13.5L24.3,84L36,77.2L47.7,84
		l12.7-7.4V63.1L72,56.3h0V41.6L60.3,34.9z M37,22.5l10.7-6.2l10.7,6.2v12.4L47.7,41L37,34.9V22.5z M2,55.2V42.8l10.7-6.2l10.7,6.2
		v12.4l-10.7,6.2L2,55.2z M35,75.5l-10.7,6.2l-10.7-6.2V63.1l10.7-6.2L35,63.1V75.5z M25.3,55.1l0.1-12.4l10.7-6.2l10.6,6.2l0,12.4
		L36,61.4L25.3,55.1z M58.3,75.5l-10.7,6.2L37,75.5V63.1l10.7-6.2l10.7,6.2V75.5z M70,55.2l-10.7,6.2l-10.7-6.2l0-12.4l10.7-6.2
		L70,42.8V55.2z"/>
	<path class="st0" d="M27,22V7.3L14.3,0L1.7,7.3V22l12.7,7.4L27,22z M3.7,8.5l10.7-6.2L25,8.5v12.4l-10.7,6.2L3.7,20.9V8.5z"/>
	<path class="st1" d="M46.7,42.8l-10.6-6.2l-10.7,6.2l-0.1,12.4L36,61.4l10.7-6.1L46.7,42.8z M42.7,52.2L36,56.1l-6.7-3.9l0-7.7
		l6.7-3.8h0l6.7,3.9L42.7,52.2z"/>
	<path class="st1" d="M37,63.1v12.4l10.7,6.2l10.7-6.2V63.1l-10.7-6.2L37,63.1z M54.3,72.3l-6.7,3.8L41,72.3v-7.7l6.7-3.8l6.7,3.8
		V72.3z"/>
	<path class="st1" d="M58.3,34.9V22.5l-10.7-6.2L37,22.5v12.4L47.7,41L58.3,34.9z M41,32.1v-7.7l6.7-3.8l6.7,3.8v7.7L47.7,36
		L41,32.1z"/>
	<path class="st1" d="M13.7,63.1v12.4l10.7,6.2L35,75.5V63.1l-10.7-6.2L13.7,63.1z M31,72.3l-6.7,3.8l-6.7-3.8v-7.7l6.7-3.8l6.7,3.8
		V72.3z"/>
	<path class="st1" d="M48.7,42.8l0,12.4l10.7,6.2L70,55.2V42.8l-10.7-6.2L48.7,42.8z M66,52.2l-6.7,3.8l-6.7-3.8v-7.7l6.7-3.8
		l6.7,3.8V52.2z"/>
	<path class="st1" d="M23.3,42.8l-10.7-6.2L2,42.8v12.4l10.7,6.2l10.7-6.2V42.8z M19.3,52.2l-6.7,3.8L6,52.2v-7.7l6.7-3.8l6.7,3.8
		V52.2z"/>
	<path class="st1" d="M25,20.9V8.5L14.3,2.3L3.7,8.5v12.4l10.7,6.2L25,20.9z M7.7,18.1v-7.7l6.7-3.8l6.7,3.8v7.7L14.3,22L7.7,18.1z"
		/>
	<polygon class="st2" points="52.7,44.6 52.7,52.2 59.3,56.1 66,52.2 66,44.6 59.3,40.7 	"/>
	<polygon class="st2" points="41,64.7 41,72.3 47.7,76.2 54.3,72.3 54.3,64.7 47.7,60.8 	"/>
	<polygon class="st2" points="17.7,64.7 17.7,72.3 24.3,76.2 31,72.3 31,64.7 24.3,60.8 	"/>
	<polygon class="st2" points="36.1,40.7 29.4,44.5 29.4,52.2 36,56.1 42.7,52.2 42.7,44.6 36.1,40.7 	"/>
	<polygon class="st2" points="6,44.6 6,52.2 12.7,56.1 19.3,52.2 19.3,44.6 12.7,40.7 	"/>
	<polygon class="st2" points="54.3,24.5 47.7,20.6 41,24.5 41,32.1 47.7,36 54.3,32.1 	"/>
	<polygon class="st2" points="21,10.5 14.3,6.6 7.7,10.5 7.7,18.1 14.3,22 21,18.1 	"/>
</g>
</svg>
