<svg xmlns="http://www.w3.org/2000/svg" width="170" height="110" viewBox="0 0 170 110">
  <metadata><?xpacket begin="﻿" id="W5M0MpCehiHzreSzNTczkc9d"?>
<x:xmpmeta xmlns:x="adobe:ns:meta/" x:xmptk="Adobe XMP Core 5.6-c138 79.159824, 2016/09/14-01:09:01        ">
   <rdf:RDF xmlns:rdf="http://www.w3.org/1999/02/22-rdf-syntax-ns#">
      <rdf:Description rdf:about=""/>
   </rdf:RDF>
</x:xmpmeta>
                                                                                                    
                                                                                                    
                                                                                                    
                                                                                                    
                                                                                                    
                                                                                                    
                                                                                                    
                                                                                                    
                                                                                                    
                                                                                                    
                                                                                                    
                                                                                                    
                                                                                                    
                                                                                                    
                                                                                                    
                                                                                                    
                                                                                                    
                                                                                                    
                                                                                                    
                                                                                                    
                           
<?xpacket end="w"?></metadata>
<defs>
    <style>
      .cls-1 {
        fill: #f0f7f5;
        fill-rule: evenodd;
      }
    </style>
  </defs>
  <path id="_4_bg" data-name="4_bg" class="cls-1" d="M1349,3687H1222a5,5,0,0,0-5,5h0a5,5,0,0,0,5,5h94a5,5,0,0,1,0,10h-72.02a5,5,0,0,0,.02,10h78a5,5,0,0,1,0,10h-78a5,5,0,0,0,0,10h74a5,5,0,0,1,0,10H1209a5,5,0,0,0,0,10h16a5,5,0,0,1,0,10h-6a5,5,0,0,0,0,10h30a5,5,0,0,1,0,10h-13a5,5,0,0,0,0,10h125a5,5,0,0,0,0-10h-52a5,5,0,0,1,0-10h24a5,5,0,0,0,0-10h-88a5,5,0,0,1,0-10h115a5,5,0,0,0,0-10h-22a5,5,0,0,1,0-10h31a5,5,0,0,0,0-10h-27a5,5,0,0,1,0-10h9a5,5,0,0,0,.02-10H1336a5,5,0,0,1,0-10h13a5,5,0,0,0,5-5h0A5,5,0,0,0,1349,3687Zm-140,40h15a5,5,0,0,1,0,10h-15A5,5,0,0,1,1209,3727Z" transform="translate(-1204 -3687)"/>
</svg>
