<svg id="_1" data-name="1" xmlns="http://www.w3.org/2000/svg" width="70" height="79" viewBox="0 0 70 79">
  <metadata><?xpacket begin="﻿" id="W5M0MpCehiHzreSzNTczkc9d"?>
<x:xmpmeta xmlns:x="adobe:ns:meta/" x:xmptk="Adobe XMP Core 5.6-c138 79.159824, 2016/09/14-01:09:01        ">
   <rdf:RDF xmlns:rdf="http://www.w3.org/1999/02/22-rdf-syntax-ns#">
      <rdf:Description rdf:about=""/>
   </rdf:RDF>
</x:xmpmeta>
                                                                                                    
                                                                                                    
                                                                                                    
                                                                                                    
                                                                                                    
                                                                                                    
                                                                                                    
                                                                                                    
                                                                                                    
                                                                                                    
                                                                                                    
                                                                                                    
                                                                                                    
                                                                                                    
                                                                                                    
                                                                                                    
                                                                                                    
                                                                                                    
                                                                                                    
                                                                                                    
                           
<?xpacket end="w"?></metadata>
<defs>
    <style>
      .cls-1, .cls-4 {
        fill: #226d4f;
      }

      .cls-2, .cls-5 {
        fill: #16d488;
      }

      .cls-3 {
        fill: #c1ecdb;
      }

      .cls-4, .cls-5 {
        fill-rule: evenodd;
      }
    </style>
  </defs>
  <circle class="cls-1" cx="35" cy="44" r="35"/>
  <circle class="cls-2" cx="35" cy="44" r="33"/>
  <circle class="cls-3" cx="35" cy="44" r="29"/>
  <circle class="cls-1" cx="35" cy="19" r="2"/>
  <circle id="Ellipse_587_copy_11" data-name="Ellipse 587 copy 11" class="cls-1" cx="47.5" cy="65.645" r="2"/>
  <circle id="Ellipse_587_copy_10" data-name="Ellipse 587 copy 10" class="cls-1" cx="35" cy="69" r="2"/>
  <circle id="Ellipse_587_copy_9" data-name="Ellipse 587 copy 9" class="cls-1" cx="22.5" cy="65.66" r="2"/>
  <circle id="Ellipse_587_copy_8" data-name="Ellipse 587 copy 8" class="cls-1" cx="56.656" cy="56.5" r="2"/>
  <circle id="Ellipse_587_copy_7" data-name="Ellipse 587 copy 7" class="cls-1" cx="13.36" cy="56.5" r="2.016"/>
  <circle id="Ellipse_587_copy_6" data-name="Ellipse 587 copy 6" class="cls-1" cx="60" cy="44" r="2"/>
  <circle id="Ellipse_587_copy" data-name="Ellipse 587 copy" class="cls-1" cx="10" cy="44" r="2"/>
  <circle id="Ellipse_587_copy_2" data-name="Ellipse 587 copy 2" class="cls-1" cx="56.64" cy="31.5" r="2.016"/>
  <circle id="Ellipse_587_copy_3" data-name="Ellipse 587 copy 3" class="cls-1" cx="13.344" cy="31.5" r="2"/>
  <circle id="Ellipse_587_copy_4" data-name="Ellipse 587 copy 4" class="cls-1" cx="47.5" cy="22.34" r="2"/>
  <circle id="Ellipse_587_copy_5" data-name="Ellipse 587 copy 5" class="cls-1" cx="22.5" cy="22.36" r="2"/>
  <circle class="cls-1" cx="35" cy="44" r="4"/>
  <rect class="cls-1" x="34" y="25" width="2" height="18" rx="1" ry="1"/>
  <circle id="Shape_14_copy" data-name="Shape 14 copy" class="cls-2" cx="35" cy="44" r="2"/>
  <path id="Rounded_Rectangle_25" data-name="Rounded Rectangle 25" class="cls-4" d="M359,3120h6v8h-6v-8h0Z" transform="translate(-327 -3117)"/>
  <path id="Rounded_Rectangle_26" data-name="Rounded Rectangle 26" class="cls-5" d="M361,3121h2v6h-2v-6h0Z" transform="translate(-327 -3117)"/>
  <rect id="Rounded_Rectangle_23" data-name="Rounded Rectangle 23" class="cls-1" x="29" width="12" height="6" rx="1" ry="1"/>
  <path id="Rounded_Rectangle_24" data-name="Rounded Rectangle 24" class="cls-5" d="M358,3119h8v2h-8v-2h0Z" transform="translate(-327 -3117)"/>
  <path id="Rounded_Rectangle_25_copy" data-name="Rounded Rectangle 25 copy" class="cls-4" d="M388.87,3129.89l4.243,4.24h0l-5.657,5.66h0l-4.243-4.25h0l5.657-5.65h0Z" transform="translate(-327 -3117)"/>
  <path id="Rounded_Rectangle_26_copy" data-name="Rounded Rectangle 26 copy" class="cls-5" d="M389.577,3132.01l1.414,1.41h0l-4.242,4.24h0l-1.414-1.41h0l4.242-4.24h0Z" transform="translate(-327 -3117)"/>
  <path id="Rounded_Rectangle_23_copy" data-name="Rounded Rectangle 23 copy" class="cls-4" d="M389.577,3126.35l7.072,7.07a1.007,1.007,0,0,1,0,1.42l-2.828,2.82a0.983,0.983,0,0,1-1.414,0l-7.071-7.07a0.994,0.994,0,0,1,0-1.41l2.828-2.83A1,1,0,0,1,389.577,3126.35Z" transform="translate(-327 -3117)"/>
  <path id="Rounded_Rectangle_24_copy" data-name="Rounded Rectangle 24 copy" class="cls-5" d="M388.87,3128.47l5.657,5.66h0l-1.414,1.41h0l-5.657-5.65h0l1.414-1.42h0Z" transform="translate(-327 -3117)"/>
</svg>
