<svg id="_1_1" data-name="1_1" xmlns="http://www.w3.org/2000/svg" width="134.25" height="88.44" viewBox="0 0 134.25 88.44">
  <metadata><?xpacket begin="﻿" id="W5M0MpCehiHzreSzNTczkc9d"?>
<x:xmpmeta xmlns:x="adobe:ns:meta/" x:xmptk="Adobe XMP Core 5.6-c138 79.159824, 2016/09/14-01:09:01        ">
   <rdf:RDF xmlns:rdf="http://www.w3.org/1999/02/22-rdf-syntax-ns#">
      <rdf:Description rdf:about=""/>
   </rdf:RDF>
</x:xmpmeta>
                                                                                                    
                                                                                                    
                                                                                                    
                                                                                                    
                                                                                                    
                                                                                                    
                                                                                                    
                                                                                                    
                                                                                                    
                                                                                                    
                                                                                                    
                                                                                                    
                                                                                                    
                                                                                                    
                                                                                                    
                                                                                                    
                                                                                                    
                                                                                                    
                                                                                                    
                                                                                                    
                           
<?xpacket end="w"?></metadata>
<defs>
    <style>
      .cls-1 {
        fill: #2c7457;
      }

      .cls-1, .cls-2, .cls-3 {
        fill-rule: evenodd;
        opacity: 0.5;
      }

      .cls-2 {
        fill: #226d4f;
      }

      .cls-3 {
        fill: #16d488;
      }
    </style>
  </defs>
  <path id="Rectangle_131_copy_7" data-name="Rectangle 131 copy 7" class="cls-1" d="M412.656,3204.07L410,3201.41l-2.657,2.66-1.414-1.42,2.656-2.65-2.656-2.66,1.414-1.42,2.657,2.66,2.656-2.66,1.415,1.42-2.657,2.66,2.657,2.65Z" transform="translate(-299 -3117.56)"/>
  <path id="Rectangle_175_copy_7" data-name="Rectangle 175 copy 7" class="cls-2" d="M317,3128h-3v3a1,1,0,0,1-2,0v-3h-3a1,1,0,0,1,0-2h3v-3a1,1,0,0,1,2,0v3h3A1,1,0,0,1,317,3128Z" transform="translate(-299 -3117.56)"/>
  <path id="Rounded_Rectangle_10_copy_8" data-name="Rounded Rectangle 10 copy 8" class="cls-2" d="M319,3206h-7a1,1,0,0,1-1-1v-7a1,1,0,0,1,1-1h7a1,1,0,0,1,1,1v7A1,1,0,0,1,319,3206Zm-1-7h-5v5h5v-5Z" transform="translate(-299 -3117.56)"/>
  <path id="Shape_981_copy_7" data-name="Shape 981 copy 7" class="cls-3" d="M433.261,3165.55l-11.405.2,5.876-9.77Zm-7.9-1.82,4.471-.08-2.168-3.75Z" transform="translate(-299 -3117.56)"/>
  <path id="Ellipse_42_copy_11" data-name="Ellipse 42 copy 11" class="cls-3" d="M303,3167a4,4,0,1,1,4-4A4,4,0,0,1,303,3167Zm0-6a2,2,0,1,0,2,2A2,2,0,0,0,303,3161Z" transform="translate(-299 -3117.56)"/>
  <path id="Rounded_Rectangle_10_copy_11" data-name="Rounded Rectangle 10 copy 11" class="cls-2" d="M415.794,3129.15l-4.95-4.94a1.008,1.008,0,0,1,0-1.42l4.951-4.95a1,1,0,0,1,1.413,0l4.95,4.95a1,1,0,0,1,0,1.41l-4.951,4.95A0.983,0.983,0,0,1,415.794,3129.15Zm4.243-5.65-3.536-3.54-3.535,3.54,3.535,3.53Z" transform="translate(-299 -3117.56)"/>
</svg>
