<svg xmlns="http://www.w3.org/2000/svg" width="170" height="110" viewBox="0 0 170 110">
  <metadata><?xpacket begin="﻿" id="W5M0MpCehiHzreSzNTczkc9d"?>
<x:xmpmeta xmlns:x="adobe:ns:meta/" x:xmptk="Adobe XMP Core 5.6-c138 79.159824, 2016/09/14-01:09:01        ">
   <rdf:RDF xmlns:rdf="http://www.w3.org/1999/02/22-rdf-syntax-ns#">
      <rdf:Description rdf:about=""/>
   </rdf:RDF>
</x:xmpmeta>
                                                                                                    
                                                                                                    
                                                                                                    
                                                                                                    
                                                                                                    
                                                                                                    
                                                                                                    
                                                                                                    
                                                                                                    
                                                                                                    
                                                                                                    
                                                                                                    
                                                                                                    
                                                                                                    
                                                                                                    
                                                                                                    
                                                                                                    
                                                                                                    
                                                                                                    
                                                                                                    
                           
<?xpacket end="w"?></metadata>
<defs>
    <style>
      .cls-1 {
        fill: #f0f7f5;
        fill-rule: evenodd;
      }
    </style>
  </defs>
  <path id="_1_bg" data-name="1_bg" class="cls-1" d="M442,3206H400a5,5,0,0,1,0-10h31a5,5,0,0,0,0-10H319a5,5,0,0,1,0-10H442a5,5,0,0,0,0-10H388a5,5,0,0,1,0-10h34a5,5,0,0,0,0-10H334a5,5,0,0,1,0-10H437a5,5,0,0,0,0-10H423a5,5,0,0,1,0-10h8a5,5,0,0,0,0-10H287a5,5,0,0,0,0,10H403a5,5,0,0,1,0,10H287a5,5,0,0,0,0,10h27a5,5,0,0,1,0,10H299a5,5,0,0,0,0,10h69a5,5,0,0,1,0,10H292a5,5,0,0,0,0,10h7a5,5,0,0,1,0,10H282a5,5,0,0,0,0,10h98a5,5,0,0,1,0,10H288a5,5,0,0,0,0,10H442A5,5,0,0,0,442,3206Z" transform="translate(-277 -3106)"/>
</svg>
