<svg id="_2" data-name="2" xmlns="http://www.w3.org/2000/svg" width="82" height="56" viewBox="0 0 82 56">
  <metadata><?xpacket begin="﻿" id="W5M0MpCehiHzreSzNTczkc9d"?>
<x:xmpmeta xmlns:x="adobe:ns:meta/" x:xmptk="Adobe XMP Core 5.6-c138 79.159824, 2016/09/14-01:09:01        ">
   <rdf:RDF xmlns:rdf="http://www.w3.org/1999/02/22-rdf-syntax-ns#">
      <rdf:Description rdf:about=""/>
   </rdf:RDF>
</x:xmpmeta>
                                                                                                    
                                                                                                    
                                                                                                    
                                                                                                    
                                                                                                    
                                                                                                    
                                                                                                    
                                                                                                    
                                                                                                    
                                                                                                    
                                                                                                    
                                                                                                    
                                                                                                    
                                                                                                    
                                                                                                    
                                                                                                    
                                                                                                    
                                                                                                    
                                                                                                    
                                                                                                    
                           
<?xpacket end="w"?></metadata>
<defs>
    <style>
      .cls-1, .cls-4 {
        fill: #226d4f;
      }

      .cls-1, .cls-2, .cls-3 {
        fill-rule: evenodd;
      }

      .cls-2, .cls-5 {
        fill: #1ad58a;
      }

      .cls-3 {
        fill: #c1ecdb;
      }
    </style>
  </defs>
  <path id="Rounded_Rectangle_18_copy_3" data-name="Rounded Rectangle 18 copy 3" class="cls-1" d="M762,3131.99h74a4,4,0,0,1,4,4v48a4,4,0,0,1-4,4H762a4,4,0,0,1-4-4v-48A4,4,0,0,1,762,3131.99Z" transform="translate(-758 -3132)"/>
  <path id="Rounded_Rectangle_18_copy_4" data-name="Rounded Rectangle 18 copy 4" class="cls-2" d="M762,3133.99h74a2,2,0,0,1,2,2v48a2,2,0,0,1-2,2H762a2,2,0,0,1-2-2v-48A2,2,0,0,1,762,3133.99Z" transform="translate(-758 -3132)"/>
  <path id="Rounded_Rectangle_18_copy_5" data-name="Rounded Rectangle 18 copy 5" class="cls-3" d="M764,3137.99h70v44H764v-44h0Z" transform="translate(-758 -3132)"/>
  <rect class="cls-4" x="1" y="13" width="80" height="6"/>
  <path id="Rounded_Rectangle_27_copy_4" data-name="Rounded Rectangle 27 copy 4" class="cls-1" d="M771,3170h4a1,1,0,0,1,0,2h-4A1,1,0,0,1,771,3170Zm9,0h4a1,1,0,0,1,0,2h-4A1,1,0,0,1,780,3170Zm9,0h4a1,1,0,0,1,0,2h-4A1,1,0,0,1,789,3170Zm9,0h4a1,1,0,0,1,0,2h-4A1,1,0,0,1,798,3170Z" transform="translate(-758 -3132)"/>
  <path id="Rectangle_577_copy_7" data-name="Rectangle 577 copy 7" class="cls-1" d="M815,3166h11a2,2,0,0,1,2,2v6a2,2,0,0,1-2,2H815a2,2,0,0,1-2-2v-6A2,2,0,0,1,815,3166Zm0,2h11v6H815v-6Z" transform="translate(-758 -3132)"/>
  <rect id="Rectangle_577_copy_8" data-name="Rectangle 577 copy 8" class="cls-5" x="57" y="36" width="11" height="6"/>
</svg>
