<svg xmlns="http://www.w3.org/2000/svg" width="170" height="110" viewBox="0 0 170 110">
  <metadata><?xpacket begin="﻿" id="W5M0MpCehiHzreSzNTczkc9d"?>
<x:xmpmeta xmlns:x="adobe:ns:meta/" x:xmptk="Adobe XMP Core 5.6-c138 79.159824, 2016/09/14-01:09:01        ">
   <rdf:RDF xmlns:rdf="http://www.w3.org/1999/02/22-rdf-syntax-ns#">
      <rdf:Description rdf:about=""/>
   </rdf:RDF>
</x:xmpmeta>
                                                                                                    
                                                                                                    
                                                                                                    
                                                                                                    
                                                                                                    
                                                                                                    
                                                                                                    
                                                                                                    
                                                                                                    
                                                                                                    
                                                                                                    
                                                                                                    
                                                                                                    
                                                                                                    
                                                                                                    
                                                                                                    
                                                                                                    
                                                                                                    
                                                                                                    
                                                                                                    
                           
<?xpacket end="w"?></metadata>
<defs>
    <style>
      .cls-1 {
        fill: #f0f7f5;
        fill-rule: evenodd;
      }
    </style>
  </defs>
  <path id="_2_bg" data-name="2_bg" class="cls-1" d="M879,3206H789a5,5,0,0,1,0-10h89a5,5,0,0,0,0-10H866a5,5,0,0,1,0-10h13a5,5,0,0,0,0-10H825a5,5,0,0,1,0-10h34a5,5,0,0,0,0-10H771a5,5,0,0,1,0-10H874a5,5,0,0,0,0-10H780a5,5,0,0,1,0-10h98a5,5,0,0,0,0-10H724a5,5,0,0,0,0,10h36a5,5,0,0,1,0,10H734a5,5,0,0,0,0,10h17a5,5,0,0,1,0,10h-5a5,5,0,0,0,0,10h59a5,5,0,0,1,0,10H719a5,5,0,0,0,0,10H846a5,5,0,0,1,0,10H763a5,5,0,0,0,0,10h6a5,5,0,0,1,0,10H725a5,5,0,0,0,0,10H879A5,5,0,0,0,879,3206Zm-150-20h14a5,5,0,0,1,0,10H729A5,5,0,0,1,729,3186Z" transform="translate(-714 -3106)"/>
</svg>
