<svg id="_3" data-name="3" xmlns="http://www.w3.org/2000/svg" width="80" height="80" viewBox="0 0 80 80">
  <metadata><?xpacket begin="﻿" id="W5M0MpCehiHzreSzNTczkc9d"?>
<x:xmpmeta xmlns:x="adobe:ns:meta/" x:xmptk="Adobe XMP Core 5.6-c138 79.159824, 2016/09/14-01:09:01        ">
   <rdf:RDF xmlns:rdf="http://www.w3.org/1999/02/22-rdf-syntax-ns#">
      <rdf:Description rdf:about=""/>
   </rdf:RDF>
</x:xmpmeta>
                                                                                                    
                                                                                                    
                                                                                                    
                                                                                                    
                                                                                                    
                                                                                                    
                                                                                                    
                                                                                                    
                                                                                                    
                                                                                                    
                                                                                                    
                                                                                                    
                                                                                                    
                                                                                                    
                                                                                                    
                                                                                                    
                                                                                                    
                                                                                                    
                                                                                                    
                                                                                                    
                           
<?xpacket end="w"?></metadata>
<defs>
    <style>
      .cls-1 {
        fill: #226d4f;
      }

      .cls-1, .cls-2, .cls-3 {
        fill-rule: evenodd;
      }

      .cls-2 {
        fill: #1ad58a;
      }

      .cls-3 {
        fill: #c1ecdb;
      }
    </style>
  </defs>
  <path id="Rounded_Rectangle_18_copy_6" data-name="Rounded Rectangle 18 copy 6" class="cls-1" d="M1205,3127.99h58a4,4,0,0,1,4,4v58a4,4,0,0,1-4,4h-58a4,4,0,0,1-4-4v-58A4,4,0,0,1,1205,3127.99Z" transform="translate(-1194 -3121)"/>
  <path id="Rounded_Rectangle_27_copy_2" data-name="Rounded Rectangle 27 copy 2" class="cls-1" d="M1212,3121a1,1,0,0,1,1,1v8a1,1,0,0,1-2,0v-8A1,1,0,0,1,1212,3121Zm22,0a1,1,0,0,1,1,1v8a1,1,0,0,1-2,0v-8A1,1,0,0,1,1234,3121Zm22,0a1,1,0,0,1,1,1v8a1,1,0,0,1-2,0v-8A1,1,0,0,1,1256,3121Z" transform="translate(-1194 -3121)"/>
  <path id="Rounded_Rectangle_27_copy_3" data-name="Rounded Rectangle 27 copy 3" class="cls-1" d="M1212,3191a1,1,0,0,1,1,1v8a1,1,0,0,1-2,0v-8A1,1,0,0,1,1212,3191Zm22,0a1,1,0,0,1,1,1v8a1,1,0,0,1-2,0v-8A1,1,0,0,1,1234,3191Zm22,0a1,1,0,0,1,1,1v8a1,1,0,0,1-2,0v-8A1,1,0,0,1,1256,3191Z" transform="translate(-1194 -3121)"/>
  <path id="Rounded_Rectangle_27_copy_5" data-name="Rounded Rectangle 27 copy 5" class="cls-1" d="M1265,3138h8a1,1,0,0,1,0,2h-8A1,1,0,0,1,1265,3138Zm0,22h8a1,1,0,0,1,0,2h-8A1,1,0,0,1,1265,3160Zm0,22h8a1,1,0,0,1,0,2h-8A1,1,0,0,1,1265,3182Z" transform="translate(-1194 -3121)"/>
  <path id="Rounded_Rectangle_27_copy_5-2" data-name="Rounded Rectangle 27 copy 5" class="cls-1" d="M1195,3138h8a1,1,0,0,1,0,2h-8A1,1,0,0,1,1195,3138Zm0,22h8a1,1,0,0,1,0,2h-8A1,1,0,0,1,1195,3160Zm0,22h8a1,1,0,0,1,0,2h-8A1,1,0,0,1,1195,3182Z" transform="translate(-1194 -3121)"/>
  <path id="Rounded_Rectangle_18_copy_6-2" data-name="Rounded Rectangle 18 copy 6" class="cls-2" d="M1205,3129.99h58a2.006,2.006,0,0,1,2,2v58a2,2,0,0,1-2,2h-58a2,2,0,0,1-2-2v-58A2.006,2.006,0,0,1,1205,3129.99Z" transform="translate(-1194 -3121)"/>
  <path id="Rounded_Rectangle_18_copy_6-3" data-name="Rounded Rectangle 18 copy 6" class="cls-3" d="M1207,3133.99h54v54h-54v-54h0Z" transform="translate(-1194 -3121)"/>
  <path id="Rectangle_577_copy_4" data-name="Rectangle 577 copy 4" class="cls-1" d="M1226,3151h16a2,2,0,0,1,2,2v16a2.006,2.006,0,0,1-2,2h-16a2.006,2.006,0,0,1-2-2v-16A2,2,0,0,1,1226,3151Zm0,2h16v16h-16v-16Z" transform="translate(-1194 -3121)"/>
</svg>
