<svg id="_3_1" data-name="3_1" xmlns="http://www.w3.org/2000/svg" width="152.06" height="90.78" viewBox="0 0 152.06 90.78">
  <metadata><?xpacket begin="﻿" id="W5M0MpCehiHzreSzNTczkc9d"?>
<x:xmpmeta xmlns:x="adobe:ns:meta/" x:xmptk="Adobe XMP Core 5.6-c138 79.159824, 2016/09/14-01:09:01        ">
   <rdf:RDF xmlns:rdf="http://www.w3.org/1999/02/22-rdf-syntax-ns#">
      <rdf:Description rdf:about=""/>
   </rdf:RDF>
</x:xmpmeta>
                                                                                                    
                                                                                                    
                                                                                                    
                                                                                                    
                                                                                                    
                                                                                                    
                                                                                                    
                                                                                                    
                                                                                                    
                                                                                                    
                                                                                                    
                                                                                                    
                                                                                                    
                                                                                                    
                                                                                                    
                                                                                                    
                                                                                                    
                                                                                                    
                                                                                                    
                                                                                                    
                           
<?xpacket end="w"?></metadata>
<defs>
    <style>
      .cls-1 {
        fill: #2c7457;
      }

      .cls-1, .cls-2, .cls-3 {
        fill-rule: evenodd;
        opacity: 0.5;
      }

      .cls-2 {
        fill: #16d488;
      }

      .cls-3 {
        fill: #226d4f;
      }
    </style>
  </defs>
  <path id="Rectangle_131_copy_9" data-name="Rectangle 131 copy 9" class="cls-1" d="M1308.66,3164.07l-2.66-2.66-2.66,2.66-1.41-1.42,2.66-2.65-2.66-2.66,1.41-1.42,2.66,2.66,2.66-2.66,1.41,1.42-2.66,2.66,2.66,2.65Z" transform="translate(-1158 -3115.97)"/>
  <path id="Rectangle_175_copy_10" data-name="Rectangle 175 copy 10" class="cls-2" d="M1167,3165h-3v3a1,1,0,0,1-2,0v-3h-3a1,1,0,0,1,0-2h3v-3a1,1,0,0,1,2,0v3h3A1,1,0,0,1,1167,3165Z" transform="translate(-1158 -3115.97)"/>
  <path id="Rounded_Rectangle_10_copy_10" data-name="Rounded Rectangle 10 copy 10" class="cls-3" d="M1174,3128h-7a1,1,0,0,1-1-1v-7a1,1,0,0,1,1-1h7a1,1,0,0,1,1,1v7A1,1,0,0,1,1174,3128Zm-1-7h-5v5h5v-5Z" transform="translate(-1158 -3115.97)"/>
  <path id="Shape_981_copy_9" data-name="Shape 981 copy 9" class="cls-2" d="M1301.26,3125.55l-11.4.2,5.87-9.77Zm-7.9-1.82,4.47-.08-2.17-3.75Z" transform="translate(-1158 -3115.97)"/>
  <path id="Ellipse_42_copy_13" data-name="Ellipse 42 copy 13" class="cls-2" d="M1301,3199a4,4,0,1,1,4-4A4,4,0,0,1,1301,3199Zm0-6a2,2,0,1,0,2,2A2,2,0,0,0,1301,3193Z" transform="translate(-1158 -3115.97)"/>
  <path id="Shape_981_copy_10" data-name="Shape 981 copy 10" class="cls-3" d="M1183.26,3206.55l-11.4.2,5.87-9.77Zm-7.9-1.82,4.47-.08-2.17-3.75Z" transform="translate(-1158 -3115.97)"/>
</svg>
