<svg xmlns="http://www.w3.org/2000/svg" width="170" height="110" viewBox="0 0 170 110">
  <metadata><?xpacket begin="﻿" id="W5M0MpCehiHzreSzNTczkc9d"?>
<x:xmpmeta xmlns:x="adobe:ns:meta/" x:xmptk="Adobe XMP Core 5.6-c138 79.159824, 2016/09/14-01:09:01        ">
   <rdf:RDF xmlns:rdf="http://www.w3.org/1999/02/22-rdf-syntax-ns#">
      <rdf:Description rdf:about=""/>
   </rdf:RDF>
</x:xmpmeta>
                                                                                                    
                                                                                                    
                                                                                                    
                                                                                                    
                                                                                                    
                                                                                                    
                                                                                                    
                                                                                                    
                                                                                                    
                                                                                                    
                                                                                                    
                                                                                                    
                                                                                                    
                                                                                                    
                                                                                                    
                                                                                                    
                                                                                                    
                                                                                                    
                                                                                                    
                                                                                                    
                           
<?xpacket end="w"?></metadata>
<defs>
    <style>
      .cls-1 {
        fill: #f0f7f5;
        fill-rule: evenodd;
      }
    </style>
  </defs>
  <path id="_3_bg" data-name="3_bg" class="cls-1" d="M1274,3206h-22a5,5,0,0,1,0-10h51a5,5,0,0,0,0-10h-2a5,5,0,0,1,0-10h13a5,5,0,0,0,0-10h-54a5,5,0,0,1,0-10h34a5,5,0,0,0,0-10h-88a5,5,0,0,1,0-10h103a5,5,0,0,0,0-10h-44a5,5,0,0,1,0-10h8a5,5,0,0,0,0-10H1159a5,5,0,0,0,0,10h86a5,5,0,0,1,0,10h-86a5,5,0,0,0,0,10h27a5,5,0,0,1,0,10h-15a5,5,0,0,0,0,10h69a5,5,0,0,1,0,10h-76a5,5,0,0,0,0,10h117a5,5,0,0,1,0,10H1154a5,5,0,0,0,0,10h78a5,5,0,0,1,0,10h-72a5,5,0,0,0,0,10h114A5,5,0,0,0,1274,3206Zm19-100h14a5,5,0,0,1,0,10h-14A5,5,0,0,1,1293,3106Zm2,100h14a5,5,0,0,1,0,10h-14A5,5,0,0,1,1295,3206Z" transform="translate(-1149 -3106)"/>
</svg>
