<svg id="_4" data-name="4" xmlns="http://www.w3.org/2000/svg" width="62" height="88" viewBox="0 0 62 88">
  <metadata><?xpacket begin="﻿" id="W5M0MpCehiHzreSzNTczkc9d"?>
<x:xmpmeta xmlns:x="adobe:ns:meta/" x:xmptk="Adobe XMP Core 5.6-c138 79.159824, 2016/09/14-01:09:01        ">
   <rdf:RDF xmlns:rdf="http://www.w3.org/1999/02/22-rdf-syntax-ns#">
      <rdf:Description rdf:about=""/>
   </rdf:RDF>
</x:xmpmeta>
                                                                                                    
                                                                                                    
                                                                                                    
                                                                                                    
                                                                                                    
                                                                                                    
                                                                                                    
                                                                                                    
                                                                                                    
                                                                                                    
                                                                                                    
                                                                                                    
                                                                                                    
                                                                                                    
                                                                                                    
                                                                                                    
                                                                                                    
                                                                                                    
                                                                                                    
                                                                                                    
                           
<?xpacket end="w"?></metadata>
<defs>
    <style>
      .cls-1 {
        fill: #226d4f;
      }

      .cls-1, .cls-3 {
        fill-rule: evenodd;
      }

      .cls-2 {
        fill: #16d488;
      }

      .cls-3 {
        fill: #c1ecdb;
      }
    </style>
  </defs>
  <path class="cls-1" d="M394,3551a31,31,0,1,1-40-29.67V3500h0a2,2,0,0,1-2-2v-2a2,2,0,0,1,2-2h18a2,2,0,0,1,2,2v2a2,2,0,0,1-2,2h0v21.33A31.014,31.014,0,0,1,394,3551Z" transform="translate(-332 -3494)"/>
  <rect id="Rounded_Rectangle_28" data-name="Rounded Rectangle 28" class="cls-2" x="22" y="2" width="18" height="2" rx="1" ry="1"/>
  <rect class="cls-2" x="24" y="6" width="14" height="33"/>
  <circle class="cls-2" cx="31" cy="57" r="29"/>
  <path id="Ellipse_592_copy" data-name="Ellipse 592 copy" class="cls-3" d="M349.462,3530h27.076A25,25,0,1,1,349.462,3530Z" transform="translate(-332 -3494)"/>
  <path id="Ellipse_590_copy_2" data-name="Ellipse 590 copy 2" class="cls-1" d="M369,3562a3,3,0,1,1-3,3A3,3,0,0,1,369,3562Zm0,2a1,1,0,1,1-1,1A1,1,0,0,1,369,3564Zm-6.5-12a1.5,1.5,0,1,1-1.5,1.5A1.5,1.5,0,0,1,362.5,3552Zm7-11a1.5,1.5,0,1,1-1.5,1.5A1.5,1.5,0,0,1,369.5,3541Z" transform="translate(-332 -3494)"/>
</svg>
