<svg id="_4_1" data-name="4_1" xmlns="http://www.w3.org/2000/svg" width="134.25" height="89.06" viewBox="0 0 134.25 89.06">
  <metadata><?xpacket begin="﻿" id="W5M0MpCehiHzreSzNTczkc9d"?>
<x:xmpmeta xmlns:x="adobe:ns:meta/" x:xmptk="Adobe XMP Core 5.6-c138 79.159824, 2016/09/14-01:09:01        ">
   <rdf:RDF xmlns:rdf="http://www.w3.org/1999/02/22-rdf-syntax-ns#">
      <rdf:Description rdf:about=""/>
   </rdf:RDF>
</x:xmpmeta>
                                                                                                    
                                                                                                    
                                                                                                    
                                                                                                    
                                                                                                    
                                                                                                    
                                                                                                    
                                                                                                    
                                                                                                    
                                                                                                    
                                                                                                    
                                                                                                    
                                                                                                    
                                                                                                    
                                                                                                    
                                                                                                    
                                                                                                    
                                                                                                    
                                                                                                    
                                                                                                    
                           
<?xpacket end="w"?></metadata>
<defs>
    <style>
      .cls-1 {
        fill: #2c7457;
      }

      .cls-1, .cls-2, .cls-3 {
        fill-rule: evenodd;
        opacity: 0.5;
      }

      .cls-2 {
        fill: #226d4f;
      }

      .cls-3 {
        fill: #16d488;
      }
    </style>
  </defs>
  <path id="Rectangle_131_copy_10" data-name="Rectangle 131 copy 10" class="cls-1" d="M420.656,3584.07L418,3581.41l-2.657,2.66-1.414-1.42,2.656-2.65-2.656-2.66,1.414-1.42,2.657,2.66,2.656-2.66,1.415,1.42-2.657,2.66,2.657,2.65Z" transform="translate(-299 -3495)"/>
  <path id="Rectangle_175_copy_11" data-name="Rectangle 175 copy 11" class="cls-2" d="M322,3501h-3v3a1,1,0,0,1-2,0v-3h-3a1,1,0,0,1,0-2h3v-3a1,1,0,0,1,2,0v3h3A1,1,0,0,1,322,3501Z" transform="translate(-299 -3495)"/>
  <path id="Rounded_Rectangle_10_copy_12" data-name="Rounded Rectangle 10 copy 12" class="cls-2" d="M319,3584h-7a1,1,0,0,1-1-1v-7a1,1,0,0,1,1-1h7a1,1,0,0,1,1,1v7A1,1,0,0,1,319,3584Zm-1-7h-5v5h5v-5Z" transform="translate(-299 -3495)"/>
  <path id="Shape_981_copy_11" data-name="Shape 981 copy 11" class="cls-3" d="M433.261,3543.55l-11.405.2,5.876-9.77Zm-7.9-1.82,4.471-.08-2.168-3.75Z" transform="translate(-299 -3495)"/>
  <path id="Ellipse_42_copy_14" data-name="Ellipse 42 copy 14" class="cls-3" d="M303,3545a4,4,0,1,1,4-4A4,4,0,0,1,303,3545Zm0-6a2,2,0,1,0,2,2A2,2,0,0,0,303,3539Z" transform="translate(-299 -3495)"/>
  <path id="Rounded_Rectangle_10_copy_15" data-name="Rounded Rectangle 10 copy 15" class="cls-2" d="M415.794,3507.15l-4.95-4.95a1,1,0,0,1,0-1.41l4.951-4.95a1,1,0,0,1,1.413,0l4.95,4.95a1,1,0,0,1,0,1.41l-4.951,4.95A1,1,0,0,1,415.794,3507.15Zm4.243-5.65-3.536-3.54-3.535,3.54,3.535,3.53Z" transform="translate(-299 -3495)"/>
</svg>
