<svg xmlns="http://www.w3.org/2000/svg" width="169" height="110" viewBox="0 0 169 110">
  <metadata><?xpacket begin="﻿" id="W5M0MpCehiHzreSzNTczkc9d"?>
<x:xmpmeta xmlns:x="adobe:ns:meta/" x:xmptk="Adobe XMP Core 5.6-c138 79.159824, 2016/09/14-01:09:01        ">
   <rdf:RDF xmlns:rdf="http://www.w3.org/1999/02/22-rdf-syntax-ns#">
      <rdf:Description rdf:about=""/>
   </rdf:RDF>
</x:xmpmeta>
                                                                                                    
                                                                                                    
                                                                                                    
                                                                                                    
                                                                                                    
                                                                                                    
                                                                                                    
                                                                                                    
                                                                                                    
                                                                                                    
                                                                                                    
                                                                                                    
                                                                                                    
                                                                                                    
                                                                                                    
                                                                                                    
                                                                                                    
                                                                                                    
                                                                                                    
                                                                                                    
                           
<?xpacket end="w"?></metadata>
<defs>
    <style>
      .cls-1 {
        fill: #f0f7f5;
        fill-rule: evenodd;
      }
    </style>
  </defs>
  <path id="_4_bg" data-name="4_bg" class="cls-1" d="M293,3554h43a5,5,0,0,1,0,10H324a5,5,0,0,0,0,10h21a5,5,0,0,1,0,10H293a5,5,0,0,0,0,10H427a5,5,0,0,0,0-10H365a5,5,0,0,1,0-10h58a5,5,0,0,0,0-10H356a5,5,0,0,1,0-10h47a5,5,0,1,0,0-10H317a5,5,0,0,1,0-10H426a5,5,0,0,0,0-10H371a5,5,0,0,1,0-10h67a5,5,0,0,0,0-10H342a5,5,0,0,1,0-10h96a5,5,0,0,0,0-10H284a5,5,0,0,0,0,10h38a5,5,0,0,1,0,10H308a5,5,0,0,0,0,10h43a5,5,0,0,1,0,10H293a5,5,0,0,0,0,10h4a5,5,0,0,1,0,10h-4A5,5,0,1,0,293,3554Zm150-10H423a5,5,0,0,0,0,10h20A5,5,0,0,0,443,3544Z" transform="translate(-279 -3484)"/>
</svg>
