<svg id="_5" data-name="5" xmlns="http://www.w3.org/2000/svg" width="76" height="62" viewBox="0 0 76 62">
  <metadata><?xpacket begin="﻿" id="W5M0MpCehiHzreSzNTczkc9d"?>
<x:xmpmeta xmlns:x="adobe:ns:meta/" x:xmptk="Adobe XMP Core 5.6-c138 79.159824, 2016/09/14-01:09:01        ">
   <rdf:RDF xmlns:rdf="http://www.w3.org/1999/02/22-rdf-syntax-ns#">
      <rdf:Description rdf:about=""/>
   </rdf:RDF>
</x:xmpmeta>
                                                                                                    
                                                                                                    
                                                                                                    
                                                                                                    
                                                                                                    
                                                                                                    
                                                                                                    
                                                                                                    
                                                                                                    
                                                                                                    
                                                                                                    
                                                                                                    
                                                                                                    
                                                                                                    
                                                                                                    
                                                                                                    
                                                                                                    
                                                                                                    
                                                                                                    
                                                                                                    
                           
<?xpacket end="w"?></metadata>
<defs>
    <style>
      .cls-1, .cls-4 {
        fill: #226d4f;
      }

      .cls-2 {
        fill: #16d488;
      }

      .cls-2, .cls-3, .cls-4 {
        fill-rule: evenodd;
      }

      .cls-3 {
        fill: #c1ecdb;
      }
    </style>
  </defs>
  <rect id="Shape_22_copy_7" data-name="Shape 22 copy 7" class="cls-1" width="76" height="62" rx="4" ry="4"/>
  <path id="Rounded_Rectangle_2_copy_7" data-name="Rounded Rectangle 2 copy 7" class="cls-2" d="M764,3511h72v58H764v-58h0Z" transform="translate(-762 -3509)"/>
  <path id="Rectangle_52_copy_7" data-name="Rectangle 52 copy 7" class="cls-3" d="M768,3521h64v44H768v-44h0Z" transform="translate(-762 -3509)"/>
  <path id="Rounded_Rectangle_29_copy_3" data-name="Rounded Rectangle 29 copy 3" class="cls-4" d="M789.7,3532.66L778.877,3543l2.165,2.07,8.659,8.27a0.945,0.945,0,0,1,0,1.38,1.056,1.056,0,0,1-1.443,0l-8.659-8.28-2.165-2.06-1.443-1.38,1.443-1.38,10.824-10.34a1.056,1.056,0,0,1,1.443,0A0.945,0.945,0,0,1,789.7,3532.66Zm20.567,0L821.116,3543l-2.169,2.07-8.679,8.27a0.945,0.945,0,0,0,0,1.38,1.061,1.061,0,0,0,1.447,0l8.678-8.28,2.17-2.06,1.446-1.38-1.446-1.38-10.848-10.34a1.061,1.061,0,0,0-1.447,0A0.945,0.945,0,0,0,810.268,3532.66Z" transform="translate(-762 -3509)"/>
  <path id="Rounded_Rectangle_29" data-name="Rounded Rectangle 29" class="cls-4" d="M805,3534.34a0.994,0.994,0,0,1,.366,1.36l-9,15.59a1,1,0,1,1-1.732-1l9-15.59A1,1,0,0,1,805,3534.34Z" transform="translate(-762 -3509)"/>
  <path id="Rectangle_576_copy" data-name="Rectangle 576 copy" class="cls-4" d="M763,3517v-2h54v-4h2v4h18v2H763Z" transform="translate(-762 -3509)"/>
</svg>
