<svg id="_5_1" data-name="5_1" xmlns="http://www.w3.org/2000/svg" width="159.125" height="83" viewBox="0 0 159.125 83">
  <metadata><?xpacket begin="﻿" id="W5M0MpCehiHzreSzNTczkc9d"?>
<x:xmpmeta xmlns:x="adobe:ns:meta/" x:xmptk="Adobe XMP Core 5.6-c138 79.159824, 2016/09/14-01:09:01        ">
   <rdf:RDF xmlns:rdf="http://www.w3.org/1999/02/22-rdf-syntax-ns#">
      <rdf:Description rdf:about=""/>
   </rdf:RDF>
</x:xmpmeta>
                                                                                                    
                                                                                                    
                                                                                                    
                                                                                                    
                                                                                                    
                                                                                                    
                                                                                                    
                                                                                                    
                                                                                                    
                                                                                                    
                                                                                                    
                                                                                                    
                                                                                                    
                                                                                                    
                                                                                                    
                                                                                                    
                                                                                                    
                                                                                                    
                                                                                                    
                                                                                                    
                           
<?xpacket end="w"?></metadata>
<defs>
    <style>
      .cls-1 {
        fill: #2c7457;
      }

      .cls-1, .cls-2, .cls-3, .cls-4 {
        fill-rule: evenodd;
        opacity: 0.5;
      }

      .cls-2 {
        fill: #16d488;
      }

      .cls-3 {
        fill: #226d4f;
      }

      .cls-4 {
        fill: #1ad58a;
      }
    </style>
  </defs>
  <path id="Rectangle_131_copy_11" data-name="Rectangle 131 copy 11" class="cls-1" d="M728.656,3544.07L726,3541.41l-2.657,2.66-1.414-1.42,2.656-2.65-2.656-2.66,1.414-1.42,2.657,2.66,2.656-2.66,1.415,1.42-2.657,2.66,2.657,2.65Z" transform="translate(-721.938 -3495)"/>
  <path id="Rectangle_175_copy_12" data-name="Rectangle 175 copy 12" class="cls-2" d="M745,3501h-3v3a1,1,0,0,1-2,0v-3h-3a1,1,0,0,1,0-2h3v-3a1,1,0,0,1,2,0v3h3A1,1,0,0,1,745,3501Z" transform="translate(-721.938 -3495)"/>
  <path id="Rounded_Rectangle_10_copy_13" data-name="Rounded Rectangle 10 copy 13" class="cls-3" d="M871,3516h-7a1,1,0,0,1-1-1v-7a1,1,0,0,1,1-1h7a1,1,0,0,1,1,1v7A1,1,0,0,1,871,3516Zm-1-7h-5v5h5v-5Z" transform="translate(-721.938 -3495)"/>
  <path id="Shape_981_copy_12" data-name="Shape 981 copy 12" class="cls-2" d="M750.261,3577.55l-11.4.2,5.876-9.77Zm-7.9-1.82,4.471-.08-2.168-3.75Z" transform="translate(-721.938 -3495)"/>
  <path id="Ellipse_42_copy_15" data-name="Ellipse 42 copy 15" class="cls-3" d="M865,3578a4,4,0,1,1,4-4A4,4,0,0,1,865,3578Zm0-6a2,2,0,1,0,2,2A2,2,0,0,0,865,3572Z" transform="translate(-721.938 -3495)"/>
  <path id="Rectangle_131_copy_13" data-name="Rectangle 131 copy 13" class="cls-4" d="M879.656,3550.07L877,3547.41l-2.657,2.66-1.414-1.42,2.656-2.65-2.656-2.66,1.414-1.42,2.657,2.66,2.656-2.66,1.415,1.42-2.657,2.66,2.657,2.65Z" transform="translate(-721.938 -3495)"/>
</svg>
