<svg xmlns="http://www.w3.org/2000/svg" width="170" height="110" viewBox="0 0 170 110">
  <metadata><?xpacket begin="﻿" id="W5M0MpCehiHzreSzNTczkc9d"?>
<x:xmpmeta xmlns:x="adobe:ns:meta/" x:xmptk="Adobe XMP Core 5.6-c138 79.159824, 2016/09/14-01:09:01        ">
   <rdf:RDF xmlns:rdf="http://www.w3.org/1999/02/22-rdf-syntax-ns#">
      <rdf:Description rdf:about=""/>
   </rdf:RDF>
</x:xmpmeta>
                                                                                                    
                                                                                                    
                                                                                                    
                                                                                                    
                                                                                                    
                                                                                                    
                                                                                                    
                                                                                                    
                                                                                                    
                                                                                                    
                                                                                                    
                                                                                                    
                                                                                                    
                                                                                                    
                                                                                                    
                                                                                                    
                                                                                                    
                                                                                                    
                                                                                                    
                                                                                                    
                           
<?xpacket end="w"?></metadata>
<defs>
    <style>
      .cls-1 {
        fill: #f0f7f5;
        fill-rule: evenodd;
      }
    </style>
  </defs>
  <path id="_5_bg" data-name="5_bg" class="cls-1" d="M878,3494H756a5,5,0,0,0,0,10H867a5,5,0,0,1,0,10H775a5,5,0,0,0,0,10H878a5,5,0,0,1,0,10H824a5,5,0,0,0,0,10h54a5,5,0,0,1,0,10h-8a5,5,0,0,0,0,10h3a5,5,0,0,1,0,10H859a5,5,0,0,0,0,10h8a5,5,0,0,1,0,10H753a5,5,0,0,1,0-10h86a5,5,0,0,0,0-10H733a5,5,0,0,1,0-10H850a5,5,0,0,0,0-10H735a5,5,0,0,1,0-10h69a5,5,0,0,0,0-10H728a5,5,0,0,1,0-10h27a5,5,0,0,0,0-10H718a5,5,0,0,1,0-10h18a5,5,0,0,0,0-10H724a5,5,0,0,1,0-10H878A5,5,0,0,1,878,3494Zm-160,90h14a5,5,0,0,1,0,10H718A5,5,0,0,1,718,3584Z" transform="translate(-713 -3484)"/>
</svg>
