<?xml version="1.0" encoding="utf-8"?>
<!-- Generator: Adobe Illustrator 21.1.0, SVG Export Plug-In . SVG Version: 6.00 Build 0)  -->
<svg version="1.1" id="_6" xmlns="http://www.w3.org/2000/svg" xmlns:xlink="http://www.w3.org/1999/xlink" x="0px" y="0px"
	 viewBox="0 0 79 60" style="enable-background:new 0 0 79 60;" xml:space="preserve">
<style type="text/css">
	.st0{fill:#226D4F;}
	.st1{fill:#16D488;}
	.st2{fill:#C1ECDB;}
</style>
<path class="st0" d="M1,3c0-1.1,0.9-2,2-2h73c1.1,0,2,0.9,2,2v44.2c0,0.5-0.2,1-0.6,1.4l-9.8,9.8c-0.4,0.4-0.9,0.6-1.4,0.6H3
	c-1.1,0-2-0.9-2-2V3z M77,3v44.2c0,0.3-0.1,0.5-0.3,0.7l-0.9,0.9l-8,8l-0.9,0.9c-0.2,0.2-0.4,0.3-0.7,0.3H3c-0.6,0-1-0.4-1-1V3
	c0-0.6,0.4-1,1-1h73C76.6,2,77,2.4,77,3 M79,3L79,3c0-1.7-1.3-3-3-3H3C1.3,0,0,1.3,0,3v54c0,1.7,1.3,3,3,3h63.2
	c0.8,0,1.6-0.3,2.1-0.9l0.9-0.9l8-8l0.9-0.9c0.6-0.6,0.9-1.3,0.9-2.1V3L79,3L79,3z M79,3L79,3c0-1.7-1.3-3-3-3H3C1.3,0,0,1.3,0,3v54
	c0,1.7,1.3,3,3,3h63.2c0.8,0,1.6-0.3,2.1-0.9l0.9-0.9l8-8l0.9-0.9c0.6-0.6,0.9-1.3,0.9-2.1V3L79,3L79,3z"/>
<path id="Shape_990_copy" class="st1" d="M77,3v44.2c0,0.3-0.1,0.5-0.3,0.7l-0.9,0.9l-8,8l-0.9,0.9c-0.2,0.2-0.4,0.3-0.7,0.3H3
	c-0.6,0-1-0.4-1-1V3c0-0.6,0.4-1,1-1h73C76.6,2,77,2.4,77,3"/>
<path id="Rectangle_52_copy" class="st2" d="M6,54V6h67v42l-6,6H6z"/>
<path class="st0" d="M48,29.4h10v12.4c0,0.7-0.5,1.3-1.2,1.3c-0.3,0-0.7-0.1-0.9-0.4l-2.9-3l-2.9,3c-0.5,0.5-1.3,0.5-1.8,0
	c-0.2-0.2-0.4-0.6-0.4-0.9V29.4z M56.8,44.2c-0.6,0-1.2-0.2-1.6-0.7L53,41.3l-2.2,2.2c-0.6,0.7-1.6,0.9-2.4,0.5
	c-0.8-0.4-1.4-1.2-1.4-2.1V28.4h12v13.4c0,0.9-0.5,1.8-1.4,2.1C57.3,44.1,57,44.2,56.8,44.2z M53,38.3l3.6,3.7
	c0.1,0.1,0.2,0.1,0.3,0.1c0.1,0,0.2-0.1,0.2-0.2V30.5h-8v11.4c0,0.1,0.1,0.2,0.2,0.2c0.1,0,0.2,0,0.3-0.1L53,38.3z"/>
<path id="Shape_1058_copy" class="st1" d="M53,38.4l3.6,3.7c0.1,0.1,0.2,0.1,0.3,0.1c0.1,0,0.2-0.1,0.2-0.2V30.5h-8v11.4
	c0,0.1,0.1,0.2,0.2,0.2c0.1,0,0.2,0,0.3-0.1L53,38.4z"/>
<path id="Shape_990_copy_2" class="st0" d="M65,60L65,60V50c0-2.2,1.8-4,4-4h10v1.2c0,0.8-0.3,1.6-0.9,2.1l-0.9,0.9l-8,8l-0.9,0.9
	C67.8,59.7,67,60,66.2,60L65,60L65,60z"/>
<path id="Shape_990_copy_3" class="st1" d="M75.8,48.8l-8,8L67,57.7V50c0-1.1,0.9-2,2-2c0,0,0,0,0,0h7.7L75.8,48.8z"/>
<circle class="st0" cx="53" cy="26" r="11"/>
<circle class="st1" cx="53" cy="26" r="9"/>
<path id="Rounded_Rectangle_29_copy_2" class="st0" d="M15,19h22c0.6,0,1,0.4,1,1s-0.4,1-1,1H15c-0.6,0-1-0.4-1-1S14.4,19,15,19z
	 M15,27h21c0.6,0,1,0.4,1,1s-0.4,1-1,1H15c-0.6,0-1-0.4-1-1S14.4,27,15,27z M15,35h25c0.6,0,1,0.4,1,1s-0.4,1-1,1H15
	c-0.6,0-1-0.4-1-1S14.4,35,15,35z"/>
</svg>
