<svg xmlns="http://www.w3.org/2000/svg" width="165" height="110" viewBox="0 0 165 110">
  <metadata><?xpacket begin="﻿" id="W5M0MpCehiHzreSzNTczkc9d"?>
<x:xmpmeta xmlns:x="adobe:ns:meta/" x:xmptk="Adobe XMP Core 5.6-c138 79.159824, 2016/09/14-01:09:01        ">
   <rdf:RDF xmlns:rdf="http://www.w3.org/1999/02/22-rdf-syntax-ns#">
      <rdf:Description rdf:about=""/>
   </rdf:RDF>
</x:xmpmeta>
                                                                                                    
                                                                                                    
                                                                                                    
                                                                                                    
                                                                                                    
                                                                                                    
                                                                                                    
                                                                                                    
                                                                                                    
                                                                                                    
                                                                                                    
                                                                                                    
                                                                                                    
                                                                                                    
                                                                                                    
                                                                                                    
                                                                                                    
                                                                                                    
                                                                                                    
                                                                                                    
                           
<?xpacket end="w"?></metadata>
<defs>
    <style>
      .cls-1 {
        fill: #f0f7f5;
        fill-rule: evenodd;
      }
    </style>
  </defs>
  <path id="_6_bg" data-name="6_bg" class="cls-1" d="M1311,3534h-8a5,5,0,0,1,0-10h8A5,5,0,0,1,1311,3534Zm-118-30h116a5,5,0,0,1,0,10h-57a5,5,0,0,0,0,10h31a5,5,0,0,1,0,10h-55a5,5,0,0,0,0,10h76a5,5,0,1,1,0,10h-97a5,5,0,0,0,0,10h107a5,5,0,0,1,0,10h-78a5,5,0,0,0,0,10h22a5,5,0,0,1,0,10h-84a5,5,0,0,1,0-10h42a5,5,0,0,0,0-10h-51a5,5,0,0,1,0-10h22a5,5,0,0,0,0-10h-3a5,5,0,1,1,0-10h24a5,5,0,0,0,0-10h-14a5,5,0,0,1,0-10h38a5,5,0,0,0,0-10h-73a5,5,0,0,1,0-10h14a5,5,0,0,0,0-10h-8a5,5,0,0,1,0-10h144a5,5,0,0,1,0,10H1193A5,5,0,0,0,1193,3504Z" transform="translate(-1154 -3484)"/>
</svg>
