<svg xmlns="http://www.w3.org/2000/svg" width="300" height="180" viewBox="0 0 300 180">
  <metadata><?xpacket begin="﻿" id="W5M0MpCehiHzreSzNTczkc9d"?>
<x:xmpmeta xmlns:x="adobe:ns:meta/" x:xmptk="Adobe XMP Core 5.6-c138 79.159824, 2016/09/14-01:09:01        ">
   <rdf:RDF xmlns:rdf="http://www.w3.org/1999/02/22-rdf-syntax-ns#">
      <rdf:Description rdf:about=""/>
   </rdf:RDF>
</x:xmpmeta>
                                                                                                    
                                                                                                    
                                                                                                    
                                                                                                    
                                                                                                    
                                                                                                    
                                                                                                    
                                                                                                    
                                                                                                    
                                                                                                    
                                                                                                    
                                                                                                    
                                                                                                    
                                                                                                    
                                                                                                    
                                                                                                    
                                                                                                    
                                                                                                    
                                                                                                    
                                                                                                    
                           
<?xpacket end="w"?></metadata>
<defs>
    <style>
      .cls-1 {
        fill: #e0eee9;
        fill-rule: evenodd;
      }
    </style>
  </defs>
  <path id="bg" class="cls-1" d="M30,99.995H72a10,10,0,0,1,0,20H24a10,10,0,1,0,0,19.994H193a10,10,0,0,1,0,20H179a10,10,0,1,0,0,20H287.835a10,10,0,1,0,0-20H233a10,10,0,0,1,0-20h24.834a10,10,0,1,0,0-19.994H112a10,10,0,0,1,0-20l152.885,0a10,10,0,1,0-.051-20H196a10,10,0,0,1,0-20h93.834a10,10,0,1,0,0-20H221a10,10,0,0,1,0-20h39a10,10,0,1,0,0-20H28a10,10,0,1,0,0,20H181.006a10,10,0,0,1-.006,20H10a10,10,0,1,0,0,20H156a10,10,0,0,1,0,20H30A10,10,0,1,0,30,99.995Zm109,60H118a10,10,0,1,0,0,20h21A10,10,0,1,0,139,160Zm-61,0H27a10,10,0,1,0,0,20H78A10,10,0,1,0,78,160Z"/>
</svg>
