<svg id="icon2" xmlns="http://www.w3.org/2000/svg" width="219" height="147.969" viewBox="0 0 219 147.969">
  <metadata><?xpacket begin="﻿" id="W5M0MpCehiHzreSzNTczkc9d"?>
<x:xmpmeta xmlns:x="adobe:ns:meta/" x:xmptk="Adobe XMP Core 5.6-c138 79.159824, 2016/09/14-01:09:01        ">
   <rdf:RDF xmlns:rdf="http://www.w3.org/1999/02/22-rdf-syntax-ns#">
      <rdf:Description rdf:about=""/>
   </rdf:RDF>
</x:xmpmeta>
                                                                                                    
                                                                                                    
                                                                                                    
                                                                                                    
                                                                                                    
                                                                                                    
                                                                                                    
                                                                                                    
                                                                                                    
                                                                                                    
                                                                                                    
                                                                                                    
                                                                                                    
                                                                                                    
                                                                                                    
                                                                                                    
                                                                                                    
                                                                                                    
                                                                                                    
                                                                                                    
                           
<?xpacket end="w"?></metadata>
<defs>
    <style>
      .cls-1 {
        fill: #226d4f;
      }

      .cls-1, .cls-2 {
        fill-rule: evenodd;
        opacity: 0.5;
      }

      .cls-2 {
        fill: #16d488;
      }
    </style>
  </defs>
  <path id="Rectangle_175_copy_22" data-name="Rectangle 175 copy 22" class="cls-1" d="M69,139.986H66v3a1,1,0,0,1-2,0v-3H61a1,1,0,1,1,0-2h3v-3a1,1,0,1,1,2,0v3h3A1,1,0,1,1,69,139.986Z" transform="translate(-43 -3.031)"/>
  <path id="Ellipse_40_copy_3" data-name="Ellipse 40 copy 3" class="cls-1" d="M67,30.989a6,6,0,1,0-6-6A6,6,0,0,0,67,30.989Zm0-10a4,4,0,1,1-4,4A4,4,0,0,1,67,20.988Z" transform="translate(-43 -3.031)"/>
  <path id="Rounded_Rectangle_10_copy_14" data-name="Rounded Rectangle 10 copy 14" class="cls-1" d="M261,89.988h-7a1,1,0,0,1-1-1v-7a1,1,0,0,1,1-1h7a1,1,0,0,1,1,1v7A1,1,0,0,1,261,89.988Zm-1-7h-5v5h5v-5Z" transform="translate(-43 -3.031)"/>
  <path id="Rectangle_133_copy_4" data-name="Rectangle 133 copy 4" class="cls-2" d="M135.8,7.6l-2.6,1.5-1.732,1-1-1.731-1.5-2.6-4.33,2.5-1-1.733,4.33-2.5,1.732-1,2.5,4.331,2.6-1.5,1.732-1,2.5,4.327,4.33-2.5,1,1.733-4.33,2.5-1.732,1Z" transform="translate(-43 -3.031)"/>
  <path id="Shape_988_copy_5" data-name="Shape 988 copy 5" class="cls-2" d="M236.333,16.753a0.489,0.489,0,0,1,.462.316l1.836,4.843,4.84,1.839a0.491,0.491,0,0,1,0,.919l-4.84,1.836L236.8,31.348a0.494,0.494,0,0,1-.924,0l-1.836-4.841L229.2,24.67a0.491,0.491,0,0,1,0-.919l4.84-1.839,1.836-4.843a0.489,0.489,0,0,1,.462-0.316m0-2.027a2.5,2.5,0,0,0-2.359,1.628l-1.512,3.985-3.987,1.512a2.521,2.521,0,0,0,0,4.716l3.986,1.514,1.512,3.986a2.523,2.523,0,0,0,4.718,0l1.512-3.986,3.987-1.514a2.522,2.522,0,0,0,0-4.716L240.2,20.339l-1.512-3.985a2.5,2.5,0,0,0-2.359-1.628h0Z" transform="translate(-43 -3.031)"/>
  <path id="Rectangle_175_copy_21" data-name="Rectangle 175 copy 21" class="cls-2" d="M52,91.985H49v3a1,1,0,0,1-2,0v-3H44a1,1,0,1,1,0-2h3v-3a1,1,0,0,1,2,0v3h3A1,1,0,1,1,52,91.985Z" transform="translate(-43 -3.031)"/>
  <path id="Rectangle_175_copy_23" data-name="Rectangle 175 copy 23" class="cls-2" d="M254,146.988h-3v3a1,1,0,1,1-2,0v-3h-3a1,1,0,0,1,0-2h3v-3a1,1,0,1,1,2,0v3h3A1,1,0,0,1,254,146.988Z" transform="translate(-43 -3.031)"/>
</svg>
