<?xml version="1.0" encoding="utf-8"?>
<!-- Generator: Adobe Illustrator 21.1.0, SVG Export Plug-In . SVG Version: 6.00 Build 0)  -->
<svg version="1.1" id="icon" xmlns="http://www.w3.org/2000/svg" xmlns:xlink="http://www.w3.org/1999/xlink" x="0px" y="0px"
	 viewBox="0 0 123 112" style="enable-background:new 0 0 123 112;" xml:space="preserve">
<style type="text/css">
	.st0{fill:#226D4F;}
	.st1{fill:#16D488;}
	.st2{fill:#C1ECDB;}
</style>
<path id="Rounded_Rectangle_3" class="st0" d="M91,109H23c-2.2,0-4-1.8-4-4v-9.9c0-21,17-38,38-38s38,17,38,38v9.9
	C95,107.2,93.2,109,91,109z"/>
<path id="Shape_1028_copy_6" class="st1" d="M93,103v2c0,1.1-0.9,2-2,2h-9v-4h-2v6H34v-6h-2v4h-9c-1.1,0-2-0.9-2-2v-4l0,0v-2l0,0v-1
	l0,0v-3c0-19.9,16.1-36,36-36s36,16.1,36,36v2l0,0V103L93,103z"/>
<circle class="st0" cx="57" cy="63" r="14"/>
<circle id="Ellipse_670_copy" class="st2" cx="57" cy="63" r="12"/>
<path id="Shape_1028_copy_2" class="st0" d="M82,88v19h-2V88H82z"/>
<path id="Shape_1028_copy_5" class="st0" d="M34,88v19h-2V88H34z"/>
<path id="Shape_1022_copy_3" class="st0" d="M85,44h-4c-2.2,0-4-1.8-4-4v-5c0-2.2,1.8-4,4-4h4c2.2,0,4,1.8,4,4v5
	C89,42.2,87.2,44,85,44z M33,44h-4c-2.2,0-4-1.8-4-4v-5c0-2.2,1.8-4,4-4h4c2.2,0,4,1.8,4,4v5C37,42.2,35.2,44,33,44z"/>
<path id="Shape_1022_copy_4" class="st2" d="M29,33c-1.1,0-2,0.9-2,2v5c0,1.1,0.9,2,2,2h4c1.1,0,2-0.9,2-2v-5c0-1.1-0.9-2-2-2H29z
	 M81,33c-1.1,0-2,0.9-2,2v5c0,1.1,0.9,2,2,2h4c1.1,0,2-0.9,2-2v-5c0-1.1-0.9-2-2-2H81z"/>
<path class="st0" d="M57,71c-15.5,0-28-12.5-28-28V28C29,12.5,41.5,0,57,0s28,12.5,28,28v15C85,58.5,72.5,71,57,71z"/>
<path id="Shape_1022_copy" class="st2" d="M57,2L57,2c14.4,0,26,11.6,26,26v15c0,14.4-11.6,26-26,26l0,0c-14.4,0-26-11.6-26-26V28
	C31,13.6,42.6,2,57,2z"/>
<path class="st0" d="M56.9,58c-3,0-5.9-1.2-8-3.4l1.5-1.5c3.4,3.6,9.1,3.8,12.7,0.4c0.1-0.1,0.3-0.3,0.4-0.4l1.5,1.5
	C62.8,56.8,59.9,58,56.9,58z"/>
<path id="Shape_1022_copy_2" class="st0" d="M47,37c-1.1,0-2,0.9-2,2s0.9,2,2,2s2-0.9,2-2S48.1,37,47,37z M67.3,37c-1.1,0-2,0.9-2,2
	s0.9,2,2,2s2-0.9,2-2S68.4,37,67.3,37z"/>
<path id="Rounded_Rectangle_7" class="st0" d="M52,45H41c-2.2,0-4-1.8-4-4v-4c0-2.2,1.8-4,4-4h11c2.2,0,4,1.8,4,4v4
	C56,43.2,54.2,45,52,45z M54,37c0-1.1-0.9-2-2-2H41c-1.1,0-2,0.9-2,2v4c0,1.1,0.9,2,2,2h11c1.1,0,2-0.9,2-2V37z M73,45H62
	c-2.2,0-4-1.8-4-4v-4c0-2.2,1.8-4,4-4h11c2.2,0,4,1.8,4,4v4C77,43.2,75.2,45,73,45z M75,37c0-1.1-0.9-2-2-2H62c-1.1,0-2,0.9-2,2v4
	c0,1.1,0.9,2,2,2h11c1.1,0,2-0.9,2-2V37z M55,35h4c0.6,0,1,0.4,1,1s-0.4,1-1,1h-4c-0.6,0-1-0.4-1-1S54.4,35,55,35z"/>
<path id="Rounded_Rectangle_8_copy_2" class="st0" d="M30,33h-0.5C28,25.2,30,17.2,34.8,11H35c1.7,0,3,1.3,3,3v11
	C38,29.4,34.4,33,30,33z"/>
<path id="Rounded_Rectangle_9_copy_2" class="st1" d="M36,25c0,2.9-2,5.3-4.8,5.9c-0.8-6.4,1-12.9,4.8-18.2V25z"/>
<path id="Rounded_Rectangle_8_copy_3" class="st0" d="M84,33h0.5c1.5-7.8-0.5-15.8-5.3-22H79c-1.7,0-3,1.3-3,3v11
	C76,29.4,79.6,33,84,33z"/>
<path id="Rounded_Rectangle_9_copy_3" class="st1" d="M78,25c0,2.9,2,5.3,4.8,5.9c0.8-6.4-1-12.9-4.8-18.2V25z"/>
<path class="st0" d="M30.3,21l0.4-1.3C34.3,8.6,44.6,1,56.3,1h28.6c0.9,0,1.7,0.4,2.2,1c0.6,0.7,0.8,1.5,0.7,2.4
	C86.7,13.9,78.7,21,69.1,21H30.3z M84.9,2c1.1,0,2,0.9,2,2c0,0.1,0,0.2,0,0.3c-1.1,9-8.7,15.7-17.7,15.7H31.7
	C35.1,9.3,45.1,2,56.3,2H84.9 M84.9,0H56.3C44.2,0,33.5,7.8,29.8,19.4L29,22h40.2c10,0,18.5-7.5,19.7-17.5c0.1-1.2-0.2-2.3-1-3.2
	C87.1,0.5,86,0,84.9,0L84.9,0z M84.9,0H56.3C44.2,0,33.5,7.8,29.8,19.4L29,22h40.2c10,0,18.5-7.5,19.7-17.5c0.1-1.2-0.2-2.3-1-3.2
	C87.1,0.5,86,0,84.9,0L84.9,0z"/>
<path id="Shape_1075_copy" class="st1" d="M84.9,2c1.1,0,2,0.9,2,2c0,0.1,0,0.2,0,0.3c-1.1,9-8.7,15.7-17.7,15.7H31.7
	C35.1,9.3,45.1,2,56.3,2H84.9"/>
<path class="st0" d="M38,81h38c3.3,0,6,2.7,6,6v21c0,2.2-1.8,4-4,4H36c-2.2,0-4-1.8-4-4V87C32,83.7,34.7,81,38,81z"/>
<path id="Rounded_Rectangle_8" class="st0" d="M1,107h89c0.6,0,1,0.4,1,1l0,0c0,0.6-0.4,1-1,1H1c-0.6,0-1-0.4-1-1l0,0
	C0,107.4,0.4,107,1,107z"/>
<path id="Rounded_Rectangle_8_copy" class="st0" d="M94,107h28c0.6,0,1,0.4,1,1l0,0c0,0.6-0.4,1-1,1H94c-0.6,0-1-0.4-1-1l0,0
	C93,107.4,93.4,107,94,107z"/>
<path id="Rectangle_603_copy" class="st2" d="M38,83h38c2.2,0,4,1.8,4,4v21c0,1.1-0.9,2-2,2H36c-1.1,0-2-0.9-2-2V87
	C34,84.8,35.8,83,38,83z"/>
<path class="st0" d="M100,94h18v14c0,2.2-1.8,4-4,4h-10c-2.2,0-4-1.8-4-4V94L100,94z"/>
<path class="st0" d="M118,106v-2c1.7,0,3-1.3,3-3s-1.3-3-3-3v-2c2.8,0,5,2.2,5,5S120.8,106,118,106z"/>
<path class="st1" d="M102,96h14v12c0,1.1-0.9,2-2,2h-10c-1.1,0-2-0.9-2-2V96L102,96z"/>
</svg>
