<svg xmlns="http://www.w3.org/2000/svg" width="283" height="123" viewBox="0 0 283 123">
  <metadata><?xpacket begin="﻿" id="W5M0MpCehiHzreSzNTczkc9d"?>
<x:xmpmeta xmlns:x="adobe:ns:meta/" x:xmptk="Adobe XMP Core 5.6-c138 79.159824, 2016/09/14-01:09:01        ">
   <rdf:RDF xmlns:rdf="http://www.w3.org/1999/02/22-rdf-syntax-ns#">
      <rdf:Description rdf:about=""/>
   </rdf:RDF>
</x:xmpmeta>
                                                                                                    
                                                                                                    
                                                                                                    
                                                                                                    
                                                                                                    
                                                                                                    
                                                                                                    
                                                                                                    
                                                                                                    
                                                                                                    
                                                                                                    
                                                                                                    
                                                                                                    
                                                                                                    
                                                                                                    
                                                                                                    
                                                                                                    
                                                                                                    
                                                                                                    
                                                                                                    
                           
<?xpacket end="w"?></metadata>
<defs>
    <style>
      .cls-1, .cls-2 {
        fill: #16d488;
      }

      .cls-2, .cls-3, .cls-4 {
        fill-rule: evenodd;
      }

      .cls-3 {
        fill: #226d4f;
      }

      .cls-4 {
        fill: #377e62;
      }
    </style>
  </defs>
  <rect class="cls-1" x="105" y="63" width="5" height="5"/>
  <path class="cls-2" d="M273.8,49.615l-2.6,1.5-1.732,1-1-1.731-1.5-2.6-4.33,2.5-1-1.732,4.33-2.5,1.732-1,2.5,4.33,2.6-1.5,1.732-1,2.5,4.33,4.33-2.5,1,1.732-4.33,2.5-1.732,1Z"/>
  <path class="cls-3" d="M15.657,17.07L9,10.413,2.343,17.07,0.929,15.656,7.586,9,0.929,2.342,2.343,0.928,9,7.585l6.657-6.657,1.414,1.414L10.414,9l6.657,6.657Z"/>
  <path class="cls-2" d="M221.657,70.07L219,67.413l-2.657,2.657-1.414-1.414L217.586,66l-2.657-2.657,1.414-1.415L219,64.585l2.657-2.657,1.414,1.415L220.414,66l2.657,2.657Z"/>
  <path class="cls-2" d="M149.334,105.766a0.487,0.487,0,0,1,.462.318l1.835,4.84,4.841,1.836a0.494,0.494,0,0,1,0,.924l-4.841,1.836-1.835,4.84a0.494,0.494,0,0,1-.924,0l-1.836-4.84-4.84-1.836a0.494,0.494,0,0,1,0-.924l4.84-1.836,1.836-4.84a0.486,0.486,0,0,1,.462-0.318m0-2.03a2.5,2.5,0,0,0-2.359,1.629l-1.512,3.986-3.987,1.512a2.523,2.523,0,0,0,0,4.718l3.987,1.512,1.512,3.987a2.523,2.523,0,0,0,4.718,0l1.512-3.987,3.986-1.512a2.523,2.523,0,0,0,0-4.718l-3.986-1.512-1.512-3.986a2.5,2.5,0,0,0-2.359-1.629h0Z"/>
  <path class="cls-3" d="M167,51a6,6,0,1,1,6-6A6,6,0,0,1,167,51Zm0-10a4,4,0,1,0,4,4A4,4,0,0,0,167,41Z"/>
  <path class="cls-2" d="M92.261,33.556l-11.406.2,5.876-9.778Zm-7.9-1.822,4.47-.079L86.662,27.9Z"/>
  <path class="cls-3" d="M270.055,110.755L256.9,97.6l17.972-4.816Zm-9.241-12.107,8.192,8.191,3-11.189Z"/>
  <path class="cls-4" d="M27,84a4,4,0,1,1,4-4A4,4,0,0,1,27,84Zm0-6a2,2,0,1,0,2,2A2,2,0,0,0,27,78Z"/>
</svg>
