<svg xmlns="http://www.w3.org/2000/svg" width="291" height="308" viewBox="0 0 291 308">
  <metadata><?xpacket begin="﻿" id="W5M0MpCehiHzreSzNTczkc9d"?>
<x:xmpmeta xmlns:x="adobe:ns:meta/" x:xmptk="Adobe XMP Core 5.6-c138 79.159824, 2016/09/14-01:09:01        ">
   <rdf:RDF xmlns:rdf="http://www.w3.org/1999/02/22-rdf-syntax-ns#">
      <rdf:Description rdf:about=""/>
   </rdf:RDF>
</x:xmpmeta>
                                                                                                    
                                                                                                    
                                                                                                    
                                                                                                    
                                                                                                    
                                                                                                    
                                                                                                    
                                                                                                    
                                                                                                    
                                                                                                    
                                                                                                    
                                                                                                    
                                                                                                    
                                                                                                    
                                                                                                    
                                                                                                    
                                                                                                    
                                                                                                    
                                                                                                    
                                                                                                    
                           
<?xpacket end="w"?></metadata>
<defs>
    <style>
      .cls-1, .cls-5 {
        fill: #226d4f;
      }

      .cls-1, .cls-2, .cls-3, .cls-4 {
        fill-rule: evenodd;
      }

      .cls-2, .cls-7 {
        fill: #16d488;
      }

      .cls-3, .cls-6 {
        fill: #c1ecdb;
      }

      .cls-4 {
        fill: #217453;
      }
    </style>
  </defs>
  <path id="Rounded_Rectangle_18" data-name="Rounded Rectangle 18" class="cls-1" d="M69,232h72v64H69V232h0Z"/>
  <path id="Rounded_Rectangle_18-2" data-name="Rounded Rectangle 18" class="cls-2" d="M71,232h68v64H71V232h0Z"/>
  <path id="Rounded_Rectangle_18-3" data-name="Rounded Rectangle 18" class="cls-3" d="M75,232h60v64H75V232h0Z"/>
  <path class="cls-4" d="M155,289v14.662a3.015,3.015,0,0,1-3.008,3.016,2.961,2.961,0,0,1-2.151-.922l-4.656-4.848-6.1,5.8a2.989,2.989,0,0,1-4.185-.062L129,300.707l-5.872,5.953a2.989,2.989,0,0,1-4.266,0l-5.577-5.678-5.623,6.043a3,3,0,0,1-2.191.956,2.97,2.97,0,0,1-2.126-.888l-5.854-5.911-5.878,5.928a2.977,2.977,0,0,1-2.125.887,3.01,3.01,0,0,1-2.149-.912l-5.909-6.1-5.9,5.794a2.99,2.99,0,0,1-4.2,0L65.381,300.9l-5.27,5.244a2.966,2.966,0,0,1-2.1.874A3.015,3.015,0,0,1,55,304V267h6.355c0.049,0,.1,0,0.145,0h88c0.077,0,.151,0,0.227,0H155v22h0Z"/>
  <path class="cls-2" d="M153,288h0v15.521a1,1,0,0,1-1.718.7l-5.347-5.553a0.994,0.994,0,0,0-1.4-.032l-6.826,6.47a1,1,0,0,1-1.392-.02l-6.606-6.642a0.994,0.994,0,0,0-1.414,0l-6.584,6.659a1,1,0,0,1-1.419,0l-6.312-6.411a1,1,0,0,0-1.438.02l-6.337,6.794a1,1,0,0,1-1.436.023L98.2,298.917a1,1,0,0,0-1.414,0l-6.59,6.63a1,1,0,0,1-1.421-.008l-6.611-6.805a1,1,0,0,0-1.412-.017L74.136,305.2a0.994,0.994,0,0,1-1.4,0l-6.663-6.557a1,1,0,0,0-1.4,0l-5.974,5.93a1,1,0,0,1-1.7-.718V271.491s0,0,0,0V269h2.8c0.524-.039,1.1-0.042,1.7-0.042h88a13.343,13.343,0,0,1,2.508.042H153v19Z"/>
  <circle class="cls-5" cx="73" cy="283" r="11"/>
  <circle class="cls-6" cx="73" cy="283" r="9"/>
  <circle class="cls-5" cx="70" cy="280" r="2"/>
  <circle class="cls-5" cx="76" cy="286" r="2"/>
  <circle class="cls-5" cx="76" cy="280" r="2"/>
  <circle class="cls-5" cx="70" cy="286" r="2"/>
  <path class="cls-1" d="M276.753,185.163L178.8,241.579a92.3,92.3,0,0,1-46.68,12.312H78.07C0,253.891,0,176.2,0,176.2V72.323H0V69s0,0,0,0V27a27,27,0,1,1,54,0v9.934c0.012,0.334.049,0.663,0.049,1V86.107A27.042,27.042,0,0,1,105.1,89.029a27.034,27.034,0,0,1,51.046-2.9L156.018,55.36c0-.121-0.018-0.239-0.018-0.36V27a27,27,0,1,1,54,0V161l39.2-22.219c13.13-7.565,30.386-3.21,37.708,10.04A26.909,26.909,0,0,1,276.753,185.163Z"/>
  <rect id="Rounded_Rectangle_26" data-name="Rounded Rectangle 26" class="cls-7" x="54" y="71" width="50" height="96" rx="25" ry="25"/>
  <rect id="Rounded_Rectangle_26-2" data-name="Rounded Rectangle 26" class="cls-7" x="106" y="71" width="50" height="96" rx="25" ry="25"/>
  <path class="cls-2" d="M287.238,168.772a24.788,24.788,0,0,1-11.592,14.9l-97.915,56.307a91.576,91.576,0,0,1-10.07,4.994,78.822,78.822,0,0,1-25.637,6.572A89.3,89.3,0,0,1,133,252H78C2,252,2,176,2,176V27a25,25,0,0,1,50,0V140c0,16.017,10.984,29,27,29,11.421,0,21.271-8.619,26-18.214C109.728,160.38,119.579,169,131,169c16.016,0,27-12.983,27-29V103h0V72h0V43c0-.675.048-1.338,0.1-2-0.053-.661-0.1-2.325-0.1-3V27a25,25,0,0,1,50,0V38c0,0.675-.049,2.338-0.1,3,0.052,0.661.1,1.324,0.1,2l0.108,118.54v3.454l3-1.725,39-22.435A25.887,25.887,0,0,1,263,137.4a25.065,25.065,0,0,1,22.053,12.687A24.66,24.66,0,0,1,287.238,168.772Z"/>
  <path class="cls-3" d="M283.526,166.936a20.77,20.77,0,0,1-9.722,12.472l-97.79,56.21a83.145,83.145,0,0,1-15.338,6.821,81.343,81.343,0,0,1-23.786,4.436c-0.484.025-.968,0.051-1.451,0.068-0.156,0-.315.006-0.472,0.011-0.656.019-1.312,0.041-1.968,0.045v-0.016c-0.335,0-.661.016-1,0.016H78C6,247,6,175.118,6,175.118V27a21,21,0,1,1,42,0V138.179h0v2.377c0,17.108,14.017,31.648,31.152,31.566a30.961,30.961,0,0,0,25.838-14.118,30.979,30.979,0,0,0,25.879,14.118C147.992,172.194,162,157.655,162,140.56V27a21,21,0,0,1,42,0V166.416A3,3,0,0,0,208.508,169l43.771-25.429a21.845,21.845,0,0,1,10.881-2.895A21.036,21.036,0,0,1,281.69,151.3,20.653,20.653,0,0,1,283.526,166.936Z"/>
  <path class="cls-1" d="M208,164.478A55.991,55.991,0,0,1,195.348,166c-1.123,0-4.263-.038-5.416-0.122a1.009,1.009,0,1,1,.161-2.012c1.071,0.085,4.154.136,5.255,0.136A54.254,54.254,0,0,0,208,162.418v2.06Z"/>
</svg>
