<svg xmlns="http://www.w3.org/2000/svg" width="50" height="28" viewBox="0 0 50 28">
  <metadata><?xpacket begin="﻿" id="W5M0MpCehiHzreSzNTczkc9d"?>
<x:xmpmeta xmlns:x="adobe:ns:meta/" x:xmptk="Adobe XMP Core 5.6-c138 79.159824, 2016/09/14-01:09:01        ">
   <rdf:RDF xmlns:rdf="http://www.w3.org/1999/02/22-rdf-syntax-ns#">
      <rdf:Description rdf:about=""/>
   </rdf:RDF>
</x:xmpmeta>
                                                                                                    
                                                                                                    
                                                                                                    
                                                                                                    
                                                                                                    
                                                                                                    
                                                                                                    
                                                                                                    
                                                                                                    
                                                                                                    
                                                                                                    
                                                                                                    
                                                                                                    
                                                                                                    
                                                                                                    
                                                                                                    
                                                                                                    
                                                                                                    
                                                                                                    
                                                                                                    
                           
<?xpacket end="w"?></metadata>
<defs>
    <style>
      .cls-1 {
        fill: #fff;
        fill-rule: evenodd;
      }
    </style>
  </defs>
  <path id="slider_1" class="cls-1" d="M214,1084H190a2,2,0,0,1-2-2v-3c2.242-6.88,14-7,14-7s11.758,0.12,14,7v3A2,2,0,0,1,214,1084Zm-12-28a7,7,0,1,1-7,7A7,7,0,0,1,202,1056Zm-15.061,0a5,5,0,1,1-4.975,5A4.989,4.989,0,0,1,186.939,1056ZM196,1070.79c-2.672-3.3-9.059-3.36-9.059-3.36s-8.357.08-9.951,5v2.14a1.426,1.426,0,0,0,1.422,1.43h8.822C189.286,1073.05,192.881,1071.56,196,1070.79ZM217.06,1056a5,5,0,1,0,4.976,5A4.988,4.988,0,0,0,217.06,1056ZM208,1070.79c2.672-3.3,9.058-3.36,9.058-3.36s8.358,0.08,9.952,5v2.14a1.426,1.426,0,0,1-1.422,1.43h-8.822C214.713,1073.05,211.119,1071.56,208,1070.79Z" transform="translate(-177 -1056)"/>
</svg>
