<svg xmlns="http://www.w3.org/2000/svg" width="47" height="36" viewBox="0 0 47 36">
  <metadata><?xpacket begin="﻿" id="W5M0MpCehiHzreSzNTczkc9d"?>
<x:xmpmeta xmlns:x="adobe:ns:meta/" x:xmptk="Adobe XMP Core 5.6-c138 79.159824, 2016/09/14-01:09:01        ">
   <rdf:RDF xmlns:rdf="http://www.w3.org/1999/02/22-rdf-syntax-ns#">
      <rdf:Description rdf:about=""/>
   </rdf:RDF>
</x:xmpmeta>
                                                                                                    
                                                                                                    
                                                                                                    
                                                                                                    
                                                                                                    
                                                                                                    
                                                                                                    
                                                                                                    
                                                                                                    
                                                                                                    
                                                                                                    
                                                                                                    
                                                                                                    
                                                                                                    
                                                                                                    
                                                                                                    
                                                                                                    
                                                                                                    
                                                                                                    
                                                                                                    
                           
<?xpacket end="w"?></metadata>
<defs>
    <style>
      .cls-1 {
        fill: #fff;
        fill-rule: evenodd;
      }
    </style>
  </defs>
  <path id="slider_5" class="cls-1" d="M1410,1087h-24a11,11,0,0,1-6.62-19.77c0.04-.03.08-0.06,0.13-0.1,0.33-.24.67-0.46,1.02-0.67a0.218,0.218,0,0,0,.08-0.05,13.25,13.25,0,0,1,1.2-.58,0.487,0.487,0,0,0,.11-0.04c0.35-.14.71-0.26,1.09-0.37,0.11-.03.23-0.06,0.35-0.09,0.31-.08.63-0.14,0.94-0.19,0.13-.02.25-0.04,0.38-0.05a9.542,9.542,0,0,1,1.32-.09c0.12,0,.24.01,0.36,0.02v-0.01a10.94,10.94,0,0,1,6.22,2.19,12.353,12.353,0,0,0,1.07-1.69,12.855,12.855,0,0,0-6.18-2.42,13.986,13.986,0,0,1,25.45,6.4A9,9,0,0,1,1410,1087Zm9.33-14.81a11.04,11.04,0,0,0-4.61-4.11A15.989,15.989,0,0,0,1399,1055c-0.33,0-.65.03-0.97,0.05a11.977,11.977,0,0,1,20.95,7.57A5.453,5.453,0,0,1,1419.33,1072.19Z" transform="translate(-1375 -1051)"/>
</svg>
