<svg xmlns="http://www.w3.org/2000/svg" width="34" height="48" viewBox="0 0 34 48">
  <metadata><?xpacket begin="﻿" id="W5M0MpCehiHzreSzNTczkc9d"?>
<x:xmpmeta xmlns:x="adobe:ns:meta/" x:xmptk="Adobe XMP Core 5.6-c138 79.159824, 2016/09/14-01:09:01        ">
   <rdf:RDF xmlns:rdf="http://www.w3.org/1999/02/22-rdf-syntax-ns#">
      <rdf:Description rdf:about=""/>
   </rdf:RDF>
</x:xmpmeta>
                                                                                                    
                                                                                                    
                                                                                                    
                                                                                                    
                                                                                                    
                                                                                                    
                                                                                                    
                                                                                                    
                                                                                                    
                                                                                                    
                                                                                                    
                                                                                                    
                                                                                                    
                                                                                                    
                                                                                                    
                                                                                                    
                                                                                                    
                                                                                                    
                                                                                                    
                                                                                                    
                           
<?xpacket end="w"?></metadata>
<defs>
    <style>
      .cls-1 {
        fill: #fff;
        fill-rule: evenodd;
      }
    </style>
  </defs>
  <path id="slider_2" class="cls-1" d="M512,1095H490a6,6,0,0,1-6-6v-32a6,6,0,0,1,6-6v3a5,5,0,0,0,5,5h12a5,5,0,0,0,5-5v-3a6,6,0,0,1,6,6v32A6,6,0,0,1,512,1095Zm-5-38H495a3,3,0,0,1-3-3v-2a3,3,0,0,1,3-3h2.05a2.5,2.5,0,0,1,2.45-2h3a2.5,2.5,0,0,1,2.45,2H507a3,3,0,0,1,3,3v2A3,3,0,0,1,507,1057Z" transform="translate(-484 -1047)"/>
</svg>
