<svg xmlns="http://www.w3.org/2000/svg" width="48" height="40" viewBox="0 0 48 40">
  <metadata><?xpacket begin="﻿" id="W5M0MpCehiHzreSzNTczkc9d"?>
<x:xmpmeta xmlns:x="adobe:ns:meta/" x:xmptk="Adobe XMP Core 5.6-c138 79.159824, 2016/09/14-01:09:01        ">
   <rdf:RDF xmlns:rdf="http://www.w3.org/1999/02/22-rdf-syntax-ns#">
      <rdf:Description rdf:about=""/>
   </rdf:RDF>
</x:xmpmeta>
                                                                                                    
                                                                                                    
                                                                                                    
                                                                                                    
                                                                                                    
                                                                                                    
                                                                                                    
                                                                                                    
                                                                                                    
                                                                                                    
                                                                                                    
                                                                                                    
                                                                                                    
                                                                                                    
                                                                                                    
                                                                                                    
                                                                                                    
                                                                                                    
                                                                                                    
                                                                                                    
                           
<?xpacket end="w"?></metadata>
<defs>
    <style>
      .cls-1 {
        fill: #fff;
        fill-rule: evenodd;
      }
    </style>
  </defs>
  <path id="slider_4" class="cls-1" d="M1093,1080a20.914,20.914,0,0,1-8.01-1.58,35.177,35.177,0,0,1-4.45,3.25,0.991,0.991,0,0,1-1.37-1.31c0.55-1.27,1.21-2.79,1.8-4.22A14,14,0,0,1,1075,1065c0-8.29,8.06-15,18-15s18,6.71,18,15S1102.94,1080,1093,1080Zm24.03,4.29c0.59,1.45,1.25,2.97,1.8,4.25a1,1,0,0,1-1.37,1.32,35.41,35.41,0,0,1-4.45-3.28,20.736,20.736,0,0,1-8.01,1.6,19.25,19.25,0,0,1-14.52-6.2,23.353,23.353,0,0,0,2.52.15c11.03,0,20-7.66,20-17.07a14.862,14.862,0,0,0-1.28-5.96c6.61,2.23,11.28,7.65,11.28,13.99A14.093,14.093,0,0,1,1117.03,1084.29Z" transform="translate(-1075 -1050)"/>
</svg>
