<svg id="_1" data-name="1" xmlns="http://www.w3.org/2000/svg" width="78" height="66" viewBox="0 0 78 66">
  <metadata><?xpacket begin="﻿" id="W5M0MpCehiHzreSzNTczkc9d"?>
<x:xmpmeta xmlns:x="adobe:ns:meta/" x:xmptk="Adobe XMP Core 5.6-c138 79.159824, 2016/09/14-01:09:01        ">
   <rdf:RDF xmlns:rdf="http://www.w3.org/1999/02/22-rdf-syntax-ns#">
      <rdf:Description rdf:about=""/>
   </rdf:RDF>
</x:xmpmeta>
                                                                                                    
                                                                                                    
                                                                                                    
                                                                                                    
                                                                                                    
                                                                                                    
                                                                                                    
                                                                                                    
                                                                                                    
                                                                                                    
                                                                                                    
                                                                                                    
                                                                                                    
                                                                                                    
                                                                                                    
                                                                                                    
                                                                                                    
                                                                                                    
                                                                                                    
                                                                                                    
                           
<?xpacket end="w"?></metadata>
<defs>
    <style>
      .cls-1, .cls-4 {
        fill: #226d4f;
      }

      .cls-1, .cls-2 {
        fill-rule: evenodd;
      }

      .cls-2 {
        fill: #16d488;
      }

      .cls-3 {
        fill: #c1ecdb;
      }
    </style>
  </defs>
  <path class="cls-1" d="M396,3839H367v6h11a2,2,0,0,1,2,2v2a2,2,0,0,1-2,2H348a2,2,0,0,1-2-2v-2a2,2,0,0,1,2-2h11v-6H330a6,6,0,0,1-6-6v-42a6,6,0,0,1,6-6h66a6,6,0,0,1,6,6v42A6,6,0,0,1,396,3839Z" transform="translate(-324 -3785)"/>
  <path class="cls-2" d="M330,3786.99h66a4.005,4.005,0,0,1,4,4V3833a3.99,3.99,0,0,1-4,3.99H330a3.991,3.991,0,0,1-4-3.99v-42.01A4.006,4.006,0,0,1,330,3786.99Z" transform="translate(-324 -3785)"/>
  <path class="cls-2" d="M377,3849H349a1,1,0,0,1,0-2h12v-10.01h4V3847h12A1,1,0,0,1,377,3849Z" transform="translate(-324 -3785)"/>
  <path class="cls-1" d="M358,3837h9v2h-9v-2Zm1,8h8v2h-8v-2Z" transform="translate(-324 -3785)"/>
  <rect class="cls-3" x="6" y="6" width="66" height="39" rx="2" ry="2"/>
  <circle class="cls-4" cx="69.5" cy="48.5" r="1.5"/>
  <path class="cls-1" d="M370.288,3823.86a1.979,1.979,0,0,1-.991-0.27l-6.362-3.72-6.362,3.72a1.951,1.951,0,0,1-2.147-.12,1.99,1.99,0,0,1-.772-2.03l1.533-7.27-5.464-4.97a1.987,1.987,0,0,1-.556-2.1,1.953,1.953,0,0,1,1.671-1.37l7.309-.77,2.985-6.79a1.962,1.962,0,0,1,3.607,0l2.985,6.79,7.307,0.77a1.956,1.956,0,0,1,1.674,1.37,1.993,1.993,0,0,1-.557,2.1l-5.464,4.97,1.531,7.27a1.982,1.982,0,0,1-.771,2.03A1.924,1.924,0,0,1,370.288,3823.86Zm-7.357-24.89-3.445,7.85-8.442.9,6.311,5.74-1.769,8.4,7.349-4.3,7.35,4.3-1.77-8.4,6.312-5.74-8.443-.9-3.449-7.84C362.933,3798.97,362.931,3798.97,362.931,3798.97Z" transform="translate(-324 -3785)"/>
  <path id="Shape_1061_copy" data-name="Shape 1061 copy" class="cls-2" d="M362.931,3798.97l-3.445,7.85-8.442.9,6.311,5.74-1.769,8.4,7.349-4.3,7.35,4.3-1.77-8.4,6.312-5.74-8.443-.9-3.449-7.84C362.933,3798.97,362.931,3798.97,362.931,3798.97Z" transform="translate(-324 -3785)"/>
</svg>
