<svg id="_1_1" data-name="1_1" xmlns="http://www.w3.org/2000/svg" width="144.062" height="94.81" viewBox="0 0 144.062 94.81">
  <metadata><?xpacket begin="﻿" id="W5M0MpCehiHzreSzNTczkc9d"?>
<x:xmpmeta xmlns:x="adobe:ns:meta/" x:xmptk="Adobe XMP Core 5.6-c138 79.159824, 2016/09/14-01:09:01        ">
   <rdf:RDF xmlns:rdf="http://www.w3.org/1999/02/22-rdf-syntax-ns#">
      <rdf:Description rdf:about=""/>
   </rdf:RDF>
</x:xmpmeta>
                                                                                                    
                                                                                                    
                                                                                                    
                                                                                                    
                                                                                                    
                                                                                                    
                                                                                                    
                                                                                                    
                                                                                                    
                                                                                                    
                                                                                                    
                                                                                                    
                                                                                                    
                                                                                                    
                                                                                                    
                                                                                                    
                                                                                                    
                                                                                                    
                                                                                                    
                                                                                                    
                           
<?xpacket end="w"?></metadata>
<defs>
    <style>
      .cls-1 {
        fill: #2c7457;
      }

      .cls-1, .cls-2, .cls-3 {
        fill-rule: evenodd;
        opacity: 0.5;
      }

      .cls-2 {
        fill: #16d488;
      }

      .cls-3 {
        fill: #226d4f;
      }
    </style>
  </defs>
  <path id="Rectangle_131_copy_12" data-name="Rectangle 131 copy 12" class="cls-1" d="M301.656,3817.06L299,3814.4l-2.657,2.66-1.414-1.42,2.657-2.65-2.657-2.66,1.414-1.41,2.657,2.65,2.657-2.65,1.414,1.41-2.656,2.66,2.656,2.65Z" transform="translate(-294.938 -3765.19)"/>
  <path id="Rectangle_175_copy_12" data-name="Rectangle 175 copy 12" class="cls-2" d="M438,3813.98h-3v3.01a1,1,0,0,1-2,0v-3.01h-3a1,1,0,1,1,0-1.99h3v-3a1,1,0,0,1,2,0v3h3A1,1,0,1,1,438,3813.98Z" transform="translate(-294.938 -3765.19)"/>
  <path id="Rectangle_175_copy_14" data-name="Rectangle 175 copy 14" class="cls-2" d="M312,3773.99h-3v3a1,1,0,0,1-2,0v-3h-3a1,1,0,0,1,0-2h3v-3a1,1,0,0,1,2,0v3h3A1,1,0,0,1,312,3773.99Z" transform="translate(-294.938 -3765.19)"/>
  <path id="Rounded_Rectangle_10_copy_11" data-name="Rounded Rectangle 10 copy 11" class="cls-2" d="M314,3859.99h-7a1,1,0,0,1-1-1v-7a1,1,0,0,1,1-1h7a1,1,0,0,1,1,1v7A1,1,0,0,1,314,3859.99Zm-1-7h-5v5h5v-5Z" transform="translate(-294.938 -3765.19)"/>
  <path id="Ellipse_42_copy_13" data-name="Ellipse 42 copy 13" class="cls-3" d="M430,3858.99a4,4,0,1,1,4-4A4,4,0,0,1,430,3858.99Zm0-6a2,2,0,1,0,2,2A2,2,0,0,0,430,3852.99Z" transform="translate(-294.938 -3765.19)"/>
  <path id="Shape_981_copy_8" data-name="Shape 981 copy 8" class="cls-3" d="M422.851,3775.86l-11.069-2.76,8.207-7.92Zm-7.162-3.8,4.339,1.08-1.122-4.19Z" transform="translate(-294.938 -3765.19)"/>
</svg>
