<svg xmlns="http://www.w3.org/2000/svg" width="170" height="110" viewBox="0 0 170 110">
  <metadata><?xpacket begin="﻿" id="W5M0MpCehiHzreSzNTczkc9d"?>
<x:xmpmeta xmlns:x="adobe:ns:meta/" x:xmptk="Adobe XMP Core 5.6-c138 79.159824, 2016/09/14-01:09:01        ">
   <rdf:RDF xmlns:rdf="http://www.w3.org/1999/02/22-rdf-syntax-ns#">
      <rdf:Description rdf:about=""/>
   </rdf:RDF>
</x:xmpmeta>
                                                                                                    
                                                                                                    
                                                                                                    
                                                                                                    
                                                                                                    
                                                                                                    
                                                                                                    
                                                                                                    
                                                                                                    
                                                                                                    
                                                                                                    
                                                                                                    
                                                                                                    
                                                                                                    
                                                                                                    
                                                                                                    
                                                                                                    
                                                                                                    
                                                                                                    
                                                                                                    
                           
<?xpacket end="w"?></metadata>
<defs>
    <style>
      .cls-1 {
        fill: #f0f7f5;
        fill-rule: evenodd;
      }
    </style>
  </defs>
  <path id="_1_bg" data-name="1_bg" class="cls-1" d="M326,3817.99H443a5,5,0,0,1,0,10H370a5,5,0,0,0,0,10h68a5,5,0,0,1,0,10H409.478s0,0,0,.01H407a5,5,0,0,0,0,10h0c0.016,0,.03-0.01.046-0.01H433a5,5,0,0,1,0,10H298a5,5,0,0,1,0-10h36a5,5,0,0,0,0-10H283a5,5,0,0,1,0-10h67a5,5,0,0,0,0-10H293a5,5,0,0,1,0-10h13a5,5,0,0,0,0-10H283a5,5,0,0,1,0-10h67a5,5,0,0,0,0-10H303a5,5,0,0,1,0-10h98a5,5,0,0,0,0-10H283a5,5,0,0,1,0-10H443a5,5,0,0,1,0,10H423a5,5,0,0,0,0,10h19a5,5,0,0,1,0,10H370a5,5,0,0,0,0,10h23a5,5,0,0,1,0,10H326A5,5,0,0,0,326,3817.99ZM387,3848h-3.482c0-.01,0-0.01,0-0.01H354a5,5,0,0,0,0,10h22.954c0.016,0,.03.01,0.046,0.01h10A5,5,0,0,0,387,3848Zm61-45.01a5,5,0,0,1-5,5.01H413a5,5,0,1,1,0-10h30A4.993,4.993,0,0,1,448,3802.99Z" transform="translate(-278 -3758)"/>
</svg>
