<svg id="_2" data-name="2" xmlns="http://www.w3.org/2000/svg" width="70.406" height="70.406" viewBox="0 0 70.406 70.406">
  <metadata><?xpacket begin="﻿" id="W5M0MpCehiHzreSzNTczkc9d"?>
<x:xmpmeta xmlns:x="adobe:ns:meta/" x:xmptk="Adobe XMP Core 5.6-c138 79.159824, 2016/09/14-01:09:01        ">
   <rdf:RDF xmlns:rdf="http://www.w3.org/1999/02/22-rdf-syntax-ns#">
      <rdf:Description rdf:about=""/>
   </rdf:RDF>
</x:xmpmeta>
                                                                                                    
                                                                                                    
                                                                                                    
                                                                                                    
                                                                                                    
                                                                                                    
                                                                                                    
                                                                                                    
                                                                                                    
                                                                                                    
                                                                                                    
                                                                                                    
                                                                                                    
                                                                                                    
                                                                                                    
                                                                                                    
                                                                                                    
                                                                                                    
                                                                                                    
                                                                                                    
                           
<?xpacket end="w"?></metadata>
<defs>
    <style>
      .cls-1 {
        fill: #226d4f;
      }

      .cls-1, .cls-2, .cls-3 {
        fill-rule: evenodd;
      }

      .cls-2 {
        fill: #c1ecdb;
      }

      .cls-3 {
        fill: #16d488;
      }
    </style>
  </defs>
  <path class="cls-1" d="M89.707,66.946L93.95,62.7l12.435,12.436-4.243,4.244Z" transform="translate(-49 -22)"/>
  <path id="Rectangle_593_copy" data-name="Rectangle 593 copy" class="cls-2" d="M91.121,65.531l1.414-1.414L104.97,76.553l-1.414,1.413Z" transform="translate(-49 -22)"/>
  <path class="cls-1" d="M57.18,30.177a28,28,0,1,1,0,39.6A28,28,0,0,1,57.18,30.177Zm6.365,6.365a19,19,0,1,1,0,26.869A19,19,0,0,1,63.545,36.542Z" transform="translate(-49 -22)"/>
  <path class="cls-3" d="M58.594,31.591a26,26,0,1,1,0,36.77A26,26,0,0,1,58.594,31.591Zm3.536,3.535a21,21,0,1,1,0,29.7A21,21,0,0,1,62.131,35.126Z" transform="translate(-49 -22)"/>
  <path id="Shape_1013_copy_6" data-name="Shape 1013 copy 6" class="cls-1" d="M109.73,91.232L99.01,80.514a4,4,0,0,1,0-5.657l2.833-2.836a4,4,0,0,1,5.657,0l10.72,10.721a4,4,0,0,1,0,5.656l-2.834,2.833A4,4,0,0,1,109.73,91.232Z" transform="translate(-49 -22)"/>
  <path id="Shape_1013_copy_6-2" data-name="Shape 1013 copy 6" class="cls-3" d="M111.171,89.828L100.438,79.094a2,2,0,0,1,0-2.828l2.828-2.828a2,2,0,0,1,2.828,0L116.827,84.17a2,2,0,0,1,0,2.83L114,89.828A2,2,0,0,1,111.171,89.828Z" transform="translate(-49 -22)"/>
  <path id="Rounded_Rectangle_8_copy" data-name="Rounded Rectangle 8 copy" class="cls-2" d="M104.464,75.462a1,1,0,0,1,1.415,0l5.656,5.656a1,1,0,1,1-1.414,1.415l-5.657-5.658A1,1,0,0,1,104.464,75.462Z" transform="translate(-49 -22)"/>
</svg>
