<svg xmlns="http://www.w3.org/2000/svg" width="170" height="110" viewBox="0 0 170 110">
  <metadata><?xpacket begin="﻿" id="W5M0MpCehiHzreSzNTczkc9d"?>
<x:xmpmeta xmlns:x="adobe:ns:meta/" x:xmptk="Adobe XMP Core 5.6-c138 79.159824, 2016/09/14-01:09:01        ">
   <rdf:RDF xmlns:rdf="http://www.w3.org/1999/02/22-rdf-syntax-ns#">
      <rdf:Description rdf:about=""/>
   </rdf:RDF>
</x:xmpmeta>
                                                                                                    
                                                                                                    
                                                                                                    
                                                                                                    
                                                                                                    
                                                                                                    
                                                                                                    
                                                                                                    
                                                                                                    
                                                                                                    
                                                                                                    
                                                                                                    
                                                                                                    
                                                                                                    
                                                                                                    
                                                                                                    
                                                                                                    
                                                                                                    
                                                                                                    
                                                                                                    
                           
<?xpacket end="w"?></metadata>
<defs>
    <style>
      .cls-1 {
        fill: #f0f7f5;
        fill-rule: evenodd;
      }
    </style>
  </defs>
  <path id="_2_bg" data-name="2_bg" class="cls-1" d="M145,50a5,5,0,0,1,0-10h20a5,5,0,0,1,0,10H145ZM165,30H88a5,5,0,1,0,0,10h37a5,5,0,0,1,0,10H72a5,5,0,1,0,0,10h73a5,5,0,1,1,0,10h2.042c-0.014,0-.028,0-0.042,0H129a5,5,0,0,0,0,10h12.239l0,0H160a5,5,0,0,1,0,10H124a5,5,0,1,0,0,10h26a5,5,0,0,1,0,10H65a5,5,0,0,1,0-10h39a5,5,0,1,0,0-10H10a5,5,0,0,1,0-10h8a5,5,0,0,0,0-10H5A5,5,0,1,1,5,60H52a5,5,0,1,0,0-10H35a5,5,0,0,1,0-10H68a5,5,0,1,0,0-10H59a5,5,0,1,1,0-10l48,0a5,5,0,0,0,0-10H5A5,5,0,1,1,5,0H145a5,5,0,1,1,0,10H127a5,5,0,0,0,0,10l38,0A5,5,0,1,1,165,30ZM38,80h63.764l0,0H109a5,5,0,0,0,0-10H95c-0.014,0-.028,0-0.042,0H38A5,5,0,0,0,38,80ZM13,100H45a5,5,0,1,1,0,10H13A5,5,0,1,1,13,100Zm4-70a5,5,0,0,1,0-10H39a5,5,0,0,1,0,10H17Z"/>
</svg>
