<svg id="_3" data-name="3" xmlns="http://www.w3.org/2000/svg" width="88" height="68" viewBox="0 0 88 68">
  <metadata><?xpacket begin="﻿" id="W5M0MpCehiHzreSzNTczkc9d"?>
<x:xmpmeta xmlns:x="adobe:ns:meta/" x:xmptk="Adobe XMP Core 5.6-c138 79.159824, 2016/09/14-01:09:01        ">
   <rdf:RDF xmlns:rdf="http://www.w3.org/1999/02/22-rdf-syntax-ns#">
      <rdf:Description rdf:about=""/>
   </rdf:RDF>
</x:xmpmeta>
                                                                                                    
                                                                                                    
                                                                                                    
                                                                                                    
                                                                                                    
                                                                                                    
                                                                                                    
                                                                                                    
                                                                                                    
                                                                                                    
                                                                                                    
                                                                                                    
                                                                                                    
                                                                                                    
                                                                                                    
                                                                                                    
                                                                                                    
                                                                                                    
                                                                                                    
                                                                                                    
                           
<?xpacket end="w"?></metadata>
<defs>
    <style>
      .cls-1, .cls-2 {
        fill: #226d4f;
      }

      .cls-1, .cls-4, .cls-5 {
        fill-rule: evenodd;
      }

      .cls-3, .cls-5 {
        fill: #16d488;
      }

      .cls-4 {
        fill: #c1ecdb;
      }
    </style>
  </defs>
  <path id="Rounded_Rectangle_7_copy_3" data-name="Rounded Rectangle 7 copy 3" class="cls-1" d="M81,71v7h7a1,1,0,0,1,0,2H72a1,1,0,0,1,0-2h7V71h2Z" transform="translate(-44 -22)"/>
  <rect id="Rounded_Rectangle_7_copy_4" data-name="Rounded Rectangle 7 copy 4" class="cls-2" width="72" height="49" rx="4" ry="4"/>
  <rect id="Rectangle_20_copy_3" data-name="Rectangle 20 copy 3" class="cls-3" x="2" y="2" width="68" height="45" rx="2" ry="2"/>
  <path id="Rectangle_42_copy_3" data-name="Rectangle 42 copy 3" class="cls-4" d="M50,28h60V65H50V28h0Z" transform="translate(-44 -22)"/>
  <rect id="Shape_22_copy_5" data-name="Shape 22 copy 5" class="cls-2" x="56" y="36" width="32" height="12" rx="2" ry="2"/>
  <path id="Rounded_Rectangle_2_copy_5" data-name="Rounded Rectangle 2 copy 5" class="cls-5" d="M102,59.995h28v8H102v-8h0Z" transform="translate(-44 -22)"/>
  <path id="Ellipse_584_copy_2" data-name="Ellipse 584 copy 2" class="cls-1" d="M107,60.994a3,3,0,1,1-3,3A3,3,0,0,1,107,60.994ZM107,63a1,1,0,1,1-1,1A1,1,0,0,1,107,63Z" transform="translate(-44 -22)"/>
  <rect id="Rounded_Rectangle_4" data-name="Rounded Rectangle 4" class="cls-2" x="70" y="41" width="14" height="2" rx="1" ry="1"/>
  <path id="Shape_22_copy_6" data-name="Shape 22 copy 6" class="cls-1" d="M102,67.995h28a2,2,0,0,1,2,2v8a2,2,0,0,1-2,2H102a2,2,0,0,1-2-2V70A2,2,0,0,1,102,67.995Z" transform="translate(-44 -22)"/>
  <path id="Rounded_Rectangle_2_copy_6" data-name="Rounded Rectangle 2 copy 6" class="cls-5" d="M102,70h28v8H102V70h0Z" transform="translate(-44 -22)"/>
  <path id="Ellipse_584_copy_3" data-name="Ellipse 584 copy 3" class="cls-1" d="M107,71a3,3,0,1,1-3,3A3,3,0,0,1,107,71Zm0,2a1,1,0,1,1-1,1A1,1,0,0,1,107,73Z" transform="translate(-44 -22)"/>
  <rect id="Rounded_Rectangle_4_copy" data-name="Rounded Rectangle 4 copy" class="cls-2" x="70" y="51" width="14" height="2" rx="1" ry="1"/>
  <rect id="Shape_22_copy_7" data-name="Shape 22 copy 7" class="cls-2" x="56" y="56" width="32" height="12" rx="2" ry="2"/>
  <path id="Rounded_Rectangle_2_copy_7" data-name="Rounded Rectangle 2 copy 7" class="cls-5" d="M102,80h28v8H102V80h0Z" transform="translate(-44 -22)"/>
  <path id="Ellipse_584_copy_4" data-name="Ellipse 584 copy 4" class="cls-1" d="M107,81a3,3,0,1,1-3,3A3,3,0,0,1,107,81Zm0,2a1,1,0,1,1-1,1A1,1,0,0,1,107,83Z" transform="translate(-44 -22)"/>
  <rect id="Rounded_Rectangle_4_copy_2" data-name="Rounded Rectangle 4 copy 2" class="cls-2" x="70" y="61" width="14" height="2" rx="1" ry="1"/>
</svg>
