<svg id="_3_1" data-name="3_1" xmlns="http://www.w3.org/2000/svg" width="138.063" height="89" viewBox="0 0 138.063 89">
  <metadata><?xpacket begin="﻿" id="W5M0MpCehiHzreSzNTczkc9d"?>
<x:xmpmeta xmlns:x="adobe:ns:meta/" x:xmptk="Adobe XMP Core 5.6-c138 79.159824, 2016/09/14-01:09:01        ">
   <rdf:RDF xmlns:rdf="http://www.w3.org/1999/02/22-rdf-syntax-ns#">
      <rdf:Description rdf:about=""/>
   </rdf:RDF>
</x:xmpmeta>
                                                                                                    
                                                                                                    
                                                                                                    
                                                                                                    
                                                                                                    
                                                                                                    
                                                                                                    
                                                                                                    
                                                                                                    
                                                                                                    
                                                                                                    
                                                                                                    
                                                                                                    
                                                                                                    
                                                                                                    
                                                                                                    
                                                                                                    
                                                                                                    
                                                                                                    
                                                                                                    
                           
<?xpacket end="w"?></metadata>
<defs>
    <style>
      .cls-1 {
        fill: #16d488;
      }

      .cls-1, .cls-2 {
        fill-rule: evenodd;
        opacity: 0.5;
      }

      .cls-2 {
        fill: #226d4f;
      }
    </style>
  </defs>
  <path id="Rounded_Rectangle_10_copy_15" data-name="Rounded Rectangle 10 copy 15" class="cls-1" d="M152,95.985h-7a1,1,0,0,1-1-1v-7a1,1,0,0,1,1-1h7a1,1,0,0,1,1,1v7A1,1,0,0,1,152,95.985Zm-1-7h-5v5h5v-5Z" transform="translate(-17 -7)"/>
  <path id="Ellipse_42_copy_14" data-name="Ellipse 42 copy 14" class="cls-1" d="M33,85.986a4,4,0,1,1,4-4A4,4,0,0,1,33,85.986Zm0-6a2,2,0,1,0,2,2A2,2,0,0,0,33,79.985Z" transform="translate(-17 -7)"/>
  <path id="Ellipse_42_copy_16" data-name="Ellipse 42 copy 16" class="cls-2" d="M147,24.988a4,4,0,1,1,4-4A4,4,0,0,1,147,24.988Zm0-6a2,2,0,1,0,2,2A2,2,0,0,0,147,18.987Z" transform="translate(-17 -7)"/>
  <path id="Rectangle_131_copy_17" data-name="Rectangle 131 copy 17" class="cls-1" d="M153.656,59.058L151,56.4l-2.656,2.655-1.415-1.415,2.657-2.655-2.657-2.656,1.415-1.417L151,53.57l2.657-2.657,1.414,1.417-2.656,2.656,2.656,2.655Z" transform="translate(-17 -7)"/>
  <path id="Rectangle_175_copy_20" data-name="Rectangle 175 copy 20" class="cls-2" d="M30,12.986H27v3a1,1,0,1,1-2,0v-3H22a1,1,0,1,1,0-2h3v-3a1,1,0,1,1,2,0v3h3A1,1,0,1,1,30,12.986Z" transform="translate(-17 -7)"/>
  <path id="Rounded_Rectangle_10_copy_14" data-name="Rounded Rectangle 10 copy 14" class="cls-2" d="M25,53.991H18a1,1,0,0,1-1-1v-7a1,1,0,0,1,1-1h7a1,1,0,0,1,1,1v7A1,1,0,0,1,25,53.991Zm-1-7H19v5h5v-5Z" transform="translate(-17 -7)"/>
</svg>
