<svg xmlns="http://www.w3.org/2000/svg" width="170" height="110" viewBox="0 0 170 110">
  <metadata><?xpacket begin="﻿" id="W5M0MpCehiHzreSzNTczkc9d"?>
<x:xmpmeta xmlns:x="adobe:ns:meta/" x:xmptk="Adobe XMP Core 5.6-c138 79.159824, 2016/09/14-01:09:01        ">
   <rdf:RDF xmlns:rdf="http://www.w3.org/1999/02/22-rdf-syntax-ns#">
      <rdf:Description rdf:about=""/>
   </rdf:RDF>
</x:xmpmeta>
                                                                                                    
                                                                                                    
                                                                                                    
                                                                                                    
                                                                                                    
                                                                                                    
                                                                                                    
                                                                                                    
                                                                                                    
                                                                                                    
                                                                                                    
                                                                                                    
                                                                                                    
                                                                                                    
                                                                                                    
                                                                                                    
                                                                                                    
                                                                                                    
                                                                                                    
                                                                                                    
                           
<?xpacket end="w"?></metadata>
<defs>
    <style>
      .cls-1 {
        fill: #f0f7f5;
        fill-rule: evenodd;
      }
    </style>
  </defs>
  <path id="_3_bg" data-name="3_bg" class="cls-1" d="M5,10H27a5,5,0,0,1,0,10l-8,0a5,5,0,1,0,0,10H78a5,5,0,1,1,0,10H35a5,5,0,0,0,0,10H72a5,5,0,1,1,0,10H5A5,5,0,1,0,5,70H78a5,5,0,0,1,0,10H70a5,5,0,0,0,0,10H94a5,5,0,1,1,0,10H15a5,5,0,0,0,0,10H120a5,5,0,0,0,0-10h-6a5,5,0,1,1,0-10h46a5,5,0,0,0,0-10H98a5,5,0,0,1,0-10h61a5,5,0,1,0,0-10H92a5,5,0,1,1,0-10h67a5,5,0,0,0,0-10H98a5,5,0,1,1,0-10h47a5,5,0,1,0,0-10L47,20a5,5,0,0,1,0-10h58a5,5,0,1,0,0-10H5A5,5,0,1,0,5,10Zm160,0H125a5,5,0,1,1,0-10h40A5,5,0,1,1,165,10ZM50,90H18a5,5,0,1,1,0-10H50A5,5,0,1,1,50,90Zm112,20H140a5,5,0,0,1,0-10h22A5,5,0,0,1,162,110ZM5,40H15a5,5,0,0,1,0,10H5A5,5,0,0,1,5,40Z"/>
</svg>
