<svg xmlns="http://www.w3.org/2000/svg" width="400" height="130" viewBox="0 0 400 130">
  <metadata><?xpacket begin="﻿" id="W5M0MpCehiHzreSzNTczkc9d"?>
<x:xmpmeta xmlns:x="adobe:ns:meta/" x:xmptk="Adobe XMP Core 5.6-c138 79.159824, 2016/09/14-01:09:01        ">
   <rdf:RDF xmlns:rdf="http://www.w3.org/1999/02/22-rdf-syntax-ns#">
      <rdf:Description rdf:about=""/>
   </rdf:RDF>
</x:xmpmeta>
                                                                                                    
                                                                                                    
                                                                                                    
                                                                                                    
                                                                                                    
                                                                                                    
                                                                                                    
                                                                                                    
                                                                                                    
                                                                                                    
                                                                                                    
                                                                                                    
                                                                                                    
                                                                                                    
                                                                                                    
                                                                                                    
                                                                                                    
                                                                                                    
                                                                                                    
                                                                                                    
                           
<?xpacket end="w"?></metadata>
<defs>
    <style>
      .cls-1 {
        fill: #e1eee9;
        fill-rule: evenodd;
      }
    </style>
  </defs>
  <path id="bg" class="cls-1" d="M317,50a5,5,0,0,1,0-10h60a5,5,0,0,1,0,10H317Zm75,40.006L274,90a5,5,0,1,0,0,10h55a5,5,0,0,1,0,10l-127,0c-0.054,0-.107-0.006-0.161-0.007H148a5,5,0,0,0,0,10h72a5,5,0,1,1,0,10H29a5,5,0,1,1,0-10h76a5,5,0,0,0,0-10H60a5,5,0,1,1,0-10h71a5,5,0,1,0,0-10L8,90A5,5,0,1,1,8,80h93a4.9,4.9,0,0,0,4-5,5,5,0,0,0-5-5H24.945A5,5,0,0,1,25,60l7,0a5,5,0,0,0,0-10H11.809A5,5,0,0,1,12,40H195a5,5,0,1,0,0-10H126a5,5,0,1,1,0-10L150.054,20A5,5,0,0,0,150,10L85,10a5,5,0,0,0,0,10l21,0a5,5,0,1,1,0,10H5A5,5,0,1,1,5,20l60,0a5,5,0,0,0,0-10H14.915A5,5,0,0,1,15,0H198a5,5,0,1,1,0,10H170a5,5,0,0,0-.054,10H271.054A5,5,0,0,0,271,10H218a5,5,0,1,1,0-10H389a5,5,0,1,1,0,10H291a5,5,0,0,0-.053,10L377,20.008a5,5,0,1,1,0,10H215a5,5,0,1,0,0,10h82a5,5,0,0,1,0,10H259a5,5,0,1,0,0,10H395a5,5,0,0,1,.076,10H301a5,5,0,0,0,0,10l91,0A5,5,0,0,1,392,90.007ZM151,100h62c0.048,0,.095.006,0.143,0.006L254,100a5,5,0,1,0,0-10H212c-0.033,0-.064.006-0.1,0.006H165.1c-0.032,0-.064-0.006-0.1-0.006H151A5,5,0,1,0,151,100Zm88-49.992H80.189C80.126,50.006,80.064,50,80,50H52a5,5,0,1,0,0,10l100,0a5,5,0,1,1,0,10H123a5,5,0,1,0,0,10l81,0.007a5,5,0,0,0,0-10H172a5,5,0,1,1,0-10h67A5,5,0,1,0,239,50.007ZM281,70l-57,0a5,5,0,0,0,0,10l57,0A5,5,0,0,0,281,70ZM5,100H40a5,5,0,1,1,0,10H5A5,5,0,1,1,5,100Zm235,20H375a5,5,0,1,1,0,10H240A5,5,0,1,1,240,120Zm104-15a5,5,0,0,1,5-5h36a5,5,0,1,1,0,10H349A5,5,0,0,1,344,105Z"/>
</svg>
