<svg id="icon" xmlns="http://www.w3.org/2000/svg" width="308" height="91" viewBox="0 0 308 91">
  <metadata><?xpacket begin="﻿" id="W5M0MpCehiHzreSzNTczkc9d"?>
<x:xmpmeta xmlns:x="adobe:ns:meta/" x:xmptk="Adobe XMP Core 5.6-c138 79.159824, 2016/09/14-01:09:01        ">
   <rdf:RDF xmlns:rdf="http://www.w3.org/1999/02/22-rdf-syntax-ns#">
      <rdf:Description rdf:about=""/>
   </rdf:RDF>
</x:xmpmeta>
                                                                                                    
                                                                                                    
                                                                                                    
                                                                                                    
                                                                                                    
                                                                                                    
                                                                                                    
                                                                                                    
                                                                                                    
                                                                                                    
                                                                                                    
                                                                                                    
                                                                                                    
                                                                                                    
                                                                                                    
                                                                                                    
                                                                                                    
                                                                                                    
                                                                                                    
                                                                                                    
                           
<?xpacket end="w"?></metadata>
<defs>
    <style>
      .cls-1, .cls-4 {
        fill: #226d4f;
      }

      .cls-1, .cls-2, .cls-3 {
        fill-rule: evenodd;
      }

      .cls-2 {
        fill: #16d488;
      }

      .cls-3 {
        fill: #c1ecdb;
      }
    </style>
  </defs>
  <path class="cls-1" d="M125,75V85a6,6,0,0,1-6,6H55a6,6,0,0,1-6-6V75a6,6,0,0,1,6-6h64A6,6,0,0,1,125,75Z" transform="translate(-49 -29)"/>
  <path id="Rounded_Rectangle_2" data-name="Rounded Rectangle 2" class="cls-2" d="M123,75V85a4,4,0,0,1-4,4H55a4,4,0,0,1-4-4V75a4,4,0,0,1,4-4h64A4,4,0,0,1,123,75Z" transform="translate(-49 -29)"/>
  <path class="cls-3" d="M119,77v6a2,2,0,0,1-2,2H57a2,2,0,0,1-2-2V77a2,2,0,0,1,2-2h60A2,2,0,0,1,119,77Z" transform="translate(-49 -29)"/>
  <path class="cls-1" d="M62,77a3,3,0,1,1-3,3A3,3,0,0,1,62,77Zm0,2a1,1,0,1,1-1,1A1,1,0,0,1,62,79Z" transform="translate(-49 -29)"/>
  <path id="Shape_22_copy_4" data-name="Shape 22 copy 4" class="cls-1" d="M125,55V65a6,6,0,0,1-6,6H55a6,6,0,0,1-6-6V55a6,6,0,0,1,6-6h64A6,6,0,0,1,125,55Z" transform="translate(-49 -29)"/>
  <path id="Rounded_Rectangle_2_copy_4" data-name="Rounded Rectangle 2 copy 4" class="cls-2" d="M123,55V65a4,4,0,0,1-4,4H55a4,4,0,0,1-4-4V55a4,4,0,0,1,4-4h64A4,4,0,0,1,123,55Z" transform="translate(-49 -29)"/>
  <path id="Rectangle_52_copy_4" data-name="Rectangle 52 copy 4" class="cls-3" d="M119,57v6a2,2,0,0,1-2,2H57a2,2,0,0,1-2-2V57a2,2,0,0,1,2-2h60A2,2,0,0,1,119,57Z" transform="translate(-49 -29)"/>
  <path id="Shape_22_copy_5" data-name="Shape 22 copy 5" class="cls-1" d="M125,35V45a6,6,0,0,1-6,6H55a6,6,0,0,1-6-6V35a6,6,0,0,1,6-6h64A6,6,0,0,1,125,35Z" transform="translate(-49 -29)"/>
  <path id="Rounded_Rectangle_2_copy_5" data-name="Rounded Rectangle 2 copy 5" class="cls-2" d="M123,35V45a4,4,0,0,1-4,4H55a4,4,0,0,1-4-4V35a4,4,0,0,1,4-4h64A4,4,0,0,1,123,35Z" transform="translate(-49 -29)"/>
  <path id="Rectangle_52_copy_5" data-name="Rectangle 52 copy 5" class="cls-3" d="M119,37v6a2,2,0,0,1-2,2H57a2,2,0,0,1-2-2V37a2,2,0,0,1,2-2h60A2,2,0,0,1,119,37Z" transform="translate(-49 -29)"/>
  <path id="Ellipse_584_copy_2" data-name="Ellipse 584 copy 2" class="cls-1" d="M62,37a3,3,0,1,1-3,3A3,3,0,0,1,62,37Zm0,2a1,1,0,1,1-1,1A1,1,0,0,1,62,39Z" transform="translate(-49 -29)"/>
  <rect id="Rounded_Rectangle_4" data-name="Rounded Rectangle 4" class="cls-4" x="32" y="10" width="34" height="2" rx="1" ry="1"/>
  <rect id="Rounded_Rectangle_4_copy" data-name="Rounded Rectangle 4 copy" class="cls-4" x="32" y="30" width="34" height="2" rx="1" ry="1"/>
  <rect id="Rounded_Rectangle_4_copy_2" data-name="Rounded Rectangle 4 copy 2" class="cls-4" x="32" y="50" width="34" height="2" rx="1" ry="1"/>
  <path id="Shape_22_copy" data-name="Shape 22 copy" class="cls-1" d="M233,75V85a6,6,0,0,1-6,6H163a6,6,0,0,1-6-6V75a6,6,0,0,1,6-6h64A6,6,0,0,1,233,75Z" transform="translate(-49 -29)"/>
  <path id="Rounded_Rectangle_2_copy" data-name="Rounded Rectangle 2 copy" class="cls-2" d="M231,75V85a4,4,0,0,1-4,4H163a4,4,0,0,1-4-4V75a4,4,0,0,1,4-4h64A4,4,0,0,1,231,75Z" transform="translate(-49 -29)"/>
  <path id="Rectangle_52_copy" data-name="Rectangle 52 copy" class="cls-3" d="M227,77v6a2,2,0,0,1-2,2H165a2,2,0,0,1-2-2V77a2,2,0,0,1,2-2h60A2,2,0,0,1,227,77Z" transform="translate(-49 -29)"/>
  <path id="Ellipse_584_copy_3" data-name="Ellipse 584 copy 3" class="cls-1" d="M170,77a3,3,0,1,1-3,3A3,3,0,0,1,170,77Zm0,2a1,1,0,1,1-1,1A1,1,0,0,1,170,79Z" transform="translate(-49 -29)"/>
  <path id="Shape_22_copy_6" data-name="Shape 22 copy 6" class="cls-1" d="M233,55V65a6,6,0,0,1-6,6H163a6,6,0,0,1-6-6V55a6,6,0,0,1,6-6h64A6,6,0,0,1,233,55Z" transform="translate(-49 -29)"/>
  <path id="Rounded_Rectangle_2_copy_6" data-name="Rounded Rectangle 2 copy 6" class="cls-2" d="M231,55V65a4,4,0,0,1-4,4H163a4,4,0,0,1-4-4V55a4,4,0,0,1,4-4h64A4,4,0,0,1,231,55Z" transform="translate(-49 -29)"/>
  <path id="Rectangle_52_copy_6" data-name="Rectangle 52 copy 6" class="cls-3" d="M227,57v6a2,2,0,0,1-2,2H165a2,2,0,0,1-2-2V57a2,2,0,0,1,2-2h60A2,2,0,0,1,227,57Z" transform="translate(-49 -29)"/>
  <path id="Shape_22_copy_6-2" data-name="Shape 22 copy 6" class="cls-1" d="M233,35V45a6,6,0,0,1-6,6H163a6,6,0,0,1-6-6V35a6,6,0,0,1,6-6h64A6,6,0,0,1,233,35Z" transform="translate(-49 -29)"/>
  <path id="Rounded_Rectangle_2_copy_6-2" data-name="Rounded Rectangle 2 copy 6" class="cls-2" d="M231,35V45a4,4,0,0,1-4,4H163a4,4,0,0,1-4-4V35a4,4,0,0,1,4-4h64A4,4,0,0,1,231,35Z" transform="translate(-49 -29)"/>
  <path id="Rectangle_52_copy_6-2" data-name="Rectangle 52 copy 6" class="cls-3" d="M227,37v6a2,2,0,0,1-2,2H165a2,2,0,0,1-2-2V37a2,2,0,0,1,2-2h60A2,2,0,0,1,227,37Z" transform="translate(-49 -29)"/>
  <path id="Ellipse_584_copy_3-2" data-name="Ellipse 584 copy 3" class="cls-1" d="M170,37a3,3,0,1,1-3,3A3,3,0,0,1,170,37Zm0,2a1,1,0,1,1-1,1A1,1,0,0,1,170,39Z" transform="translate(-49 -29)"/>
  <rect id="Rounded_Rectangle_4_copy_3" data-name="Rounded Rectangle 4 copy 3" class="cls-4" x="140" y="10" width="34" height="2" rx="1" ry="1"/>
  <rect id="Rounded_Rectangle_4_copy_3-2" data-name="Rounded Rectangle 4 copy 3" class="cls-4" x="140" y="30" width="34" height="2" rx="1" ry="1"/>
  <rect id="Rounded_Rectangle_4_copy_3-3" data-name="Rounded Rectangle 4 copy 3" class="cls-4" x="140" y="50" width="34" height="2" rx="1" ry="1"/>
  <path id="Rectangle_602_copy_9" data-name="Rectangle 602 copy 9" class="cls-1" d="M194,109h2v4h-2v-4Zm0-8h2v4h-2v-4Zm0-8h2v4h-2V93Z" transform="translate(-49 -29)"/>
  <path id="Rectangle_602_copy_8" data-name="Rectangle 602 copy 8" class="cls-1" d="M108,118v2h-4v-2h4Zm-8,0v2H96v-2h4Zm-8.357-.056-0.178,2.03a5.981,5.981,0,0,1-4.233-2.382l1.589-1.238A3.992,3.992,0,0,0,91.643,117.939ZM88,100.994v4H86v-4h2Zm0,8,0,3.977H86l0-3.977h2Zm0-16v4H86V93h2Zm24,25h4v2h-4v-2Zm8,0h4v2h-4v-2Zm8,0h4v2h-4v-2Zm8,0h4v2h-4v-2Zm8,0h4v2h-4v-2Zm8,0h4v2h-4v-2Zm8,0h4v2h-4v-2Zm8,0h4v2h-4v-2Zm8,0h4v2h-4v-2Zm8,0h4v2h-4v-2Zm8,0h4v2h-4v-2Zm8,0h4v2h-4v-2Zm8,0h4v2h-4v-2Zm8,0h4v2h-4v-2Zm8,0h4v2h-4v-2Zm8,0h4v2h-4v-2Zm8,0h4v2h-4v-2Zm8,0h4v2h-4v-2Zm8,0h4v2h-4v-2Zm8,0h4v2h-4v-2Zm8,0h4v2h-4v-2Zm16,0v2h4v-2h-4Zm8,0v2h4v-2h-4Zm8.357-.056,0.178,2.03a5.98,5.98,0,0,0,4.233-2.382l-1.59-1.238A3.991,3.991,0,0,1,304.357,117.939ZM308,108.994l0,3.977h2l0-3.977h-2ZM280,118h4v2h-4v-2Z" transform="translate(-49 -29)"/>
  <path id="Rectangle_44_copy" data-name="Rectangle 44 copy" class="cls-1" d="M351,90.992H316v8h12a2,2,0,0,1,2,2v3a2,2,0,0,1-2,2H294a2,2,0,0,1-2-2v-3a2,2,0,0,1,2-2h12v-8H271a6,6,0,0,1-6-6v-50a6,6,0,0,1,6-6h80a6,6,0,0,1,6,6v50A6,6,0,0,1,351,90.992Z" transform="translate(-49 -29)"/>
  <path id="Rectangle_20_copy" data-name="Rectangle 20 copy" class="cls-2" d="M271,30.991h80a4,4,0,0,1,4,4v50a4,4,0,0,1-4,4H271a4,4,0,0,1-4-4v-50A4,4,0,0,1,271,30.991Z" transform="translate(-49 -29)"/>
  <path id="Rectangle_20_copy-2" data-name="Rectangle 20 copy" class="cls-2" d="M328,104H294v-1.006h0V101h0.979c0.007,0,.014-0.007.021-0.007h13v-12h6v12h13c0.007,0,.014.007,0.021,0.007H328v3Z" transform="translate(-49 -29)"/>
  <path id="Rectangle_46_copy" data-name="Rectangle 46 copy" class="cls-1" d="M306,89h11v2H306V89Zm1,10h10v2H307V99Z" transform="translate(-49 -29)"/>
  <path id="Rectangle_42_copy" data-name="Rectangle 42 copy" class="cls-3" d="M273,34.991h76a2,2,0,0,1,2,2v43a2,2,0,0,1-2,2H273a2,2,0,0,1-2-2v-43A2,2,0,0,1,273,34.991Z" transform="translate(-49 -29)"/>
  <circle id="Ellipse_3_copy" data-name="Ellipse 3 copy" class="cls-4" cx="299.5" cy="56.5" r="1.5"/>
  <path id="Ellipse_584_copy" data-name="Ellipse 584 copy" class="cls-1" d="M62,57a3,3,0,1,1-3,3A3,3,0,0,1,62,57Zm0,2a1,1,0,1,1-1,1A1,1,0,0,1,62,59Z" transform="translate(-49 -29)"/>
  <path id="Ellipse_584_copy_4" data-name="Ellipse 584 copy 4" class="cls-1" d="M170,57a3,3,0,1,1-3,3A3,3,0,0,1,170,57Zm0,2a1,1,0,1,1-1,1A1,1,0,0,1,170,59Z" transform="translate(-49 -29)"/>
</svg>
