<svg id="icon2" xmlns="http://www.w3.org/2000/svg" width="387.063" height="111.157" viewBox="0 0 387.063 111.157">
  <metadata><?xpacket begin="﻿" id="W5M0MpCehiHzreSzNTczkc9d"?>
<x:xmpmeta xmlns:x="adobe:ns:meta/" x:xmptk="Adobe XMP Core 5.6-c138 79.159824, 2016/09/14-01:09:01        ">
   <rdf:RDF xmlns:rdf="http://www.w3.org/1999/02/22-rdf-syntax-ns#">
      <rdf:Description rdf:about=""/>
   </rdf:RDF>
</x:xmpmeta>
                                                                                                    
                                                                                                    
                                                                                                    
                                                                                                    
                                                                                                    
                                                                                                    
                                                                                                    
                                                                                                    
                                                                                                    
                                                                                                    
                                                                                                    
                                                                                                    
                                                                                                    
                                                                                                    
                                                                                                    
                                                                                                    
                                                                                                    
                                                                                                    
                                                                                                    
                                                                                                    
                           
<?xpacket end="w"?></metadata>
<defs>
    <style>
      .cls-1 {
        fill: #2c7457;
      }

      .cls-1, .cls-2, .cls-3 {
        fill-rule: evenodd;
        opacity: 0.5;
      }

      .cls-2 {
        fill: #16d488;
      }

      .cls-3 {
        fill: #226d4f;
      }
    </style>
  </defs>
  <path id="Rectangle_131_copy_14" data-name="Rectangle 131 copy 14" class="cls-1" d="M78.656,15.054L76,12.4l-2.657,2.654-1.414-1.412,2.657-2.657L71.928,8.327l1.414-1.412L76,9.57l2.657-2.654L80.07,8.327l-2.657,2.658,2.657,2.657Z" transform="translate(-1 -6.906)"/>
  <path id="Rectangle_131_copy_15" data-name="Rectangle 131 copy 15" class="cls-1" d="M376.656,21.056L374,18.4l-2.657,2.656-1.414-1.414,2.657-2.656-2.657-2.658,1.414-1.413L374,15.57l2.657-2.656,1.414,1.413-2.657,2.658,2.657,2.656Z" transform="translate(-1 -6.906)"/>
  <path id="Rectangle_131_copy_16" data-name="Rectangle 131 copy 16" class="cls-1" d="M134.656,111.056L132,108.4l-2.657,2.656-1.414-1.414,2.657-2.657-2.657-2.658,1.414-1.413L132,105.571l2.657-2.657,1.414,1.413-2.657,2.658,2.657,2.657Z" transform="translate(-1 -6.906)"/>
  <path id="Rounded_Rectangle_10_copy_13" data-name="Rounded Rectangle 10 copy 13" class="cls-2" d="M319,17.985h-7a1,1,0,0,1-1-1v-7a1,1,0,0,1,1-1h7a1,1,0,0,1,1,1v7A1,1,0,0,1,319,17.985Zm-1-7h-5v5h5v-5Z" transform="translate(-1 -6.906)"/>
  <path id="Rectangle_131_copy_18" data-name="Rectangle 131 copy 18" class="cls-2" d="M46.656,118.056L44,115.4l-2.657,2.656-1.414-1.416,2.657-2.653-2.657-2.659,1.414-1.417L44,112.568l2.657-2.657,1.414,1.417-2.657,2.659,2.657,2.653Z" transform="translate(-1 -6.906)"/>
  <path id="Rectangle_131_copy_20" data-name="Rectangle 131 copy 20" class="cls-2" d="M151.656,19.055L149,16.4l-2.657,2.656-1.414-1.414,2.657-2.654-2.657-2.658,1.414-1.418L149,13.568l2.657-2.658,1.414,1.418-2.657,2.658,2.657,2.654Z" transform="translate(-1 -6.906)"/>
  <path id="Rectangle_131_copy_19" data-name="Rectangle 131 copy 19" class="cls-2" d="M386.656,73.056L384,70.4l-2.656,2.656-1.415-1.414,2.657-2.654-2.657-2.66,1.415-1.415L384,67.57l2.657-2.658,1.414,1.415-2.656,2.66,2.656,2.654Z" transform="translate(-1 -6.906)"/>
  <path id="Ellipse_42_copy_17" data-name="Ellipse 42 copy 17" class="cls-2" d="M22,27.985a4,4,0,1,1,4-4A4,4,0,0,1,22,27.985Zm0-6a2,2,0,1,0,2,2A2,2,0,0,0,22,21.985Z" transform="translate(-1 -6.906)"/>
  <path id="Ellipse_42_copy_18" data-name="Ellipse 42 copy 18" class="cls-2" d="M252,107.985a4,4,0,1,1,4-4A4,4,0,0,1,252,107.985Zm0-6a2,2,0,1,0,2,2A2,2,0,0,0,252,101.985Z" transform="translate(-1 -6.906)"/>
  <path id="Rounded_Rectangle_10_copy_16" data-name="Rounded Rectangle 10 copy 16" class="cls-3" d="M9,72.989H2a1,1,0,0,1-1-1v-7a1,1,0,0,1,1-1H9a1,1,0,0,1,1,1v7A1,1,0,0,1,9,72.989Zm-1-7H3v5H8v-5Z" transform="translate(-1 -6.906)"/>
  <path id="Rounded_Rectangle_10_copy_17" data-name="Rounded Rectangle 10 copy 17" class="cls-3" d="M250,21.989h-7a1,1,0,0,1-1-1v-7a1,1,0,0,1,1-1h7a1,1,0,0,1,1,1v7A1,1,0,0,1,250,21.989Zm-1-7h-5v5h5v-5Z" transform="translate(-1 -6.906)"/>
</svg>
