<svg xmlns="http://www.w3.org/2000/svg" width="360" height="180" viewBox="0 0 360 180">
  <metadata><?xpacket begin="﻿" id="W5M0MpCehiHzreSzNTczkc9d"?>
<x:xmpmeta xmlns:x="adobe:ns:meta/" x:xmptk="Adobe XMP Core 5.6-c138 79.159824, 2016/09/14-01:09:01        ">
   <rdf:RDF xmlns:rdf="http://www.w3.org/1999/02/22-rdf-syntax-ns#">
      <rdf:Description rdf:about=""/>
   </rdf:RDF>
</x:xmpmeta>
                                                                                                    
                                                                                                    
                                                                                                    
                                                                                                    
                                                                                                    
                                                                                                    
                                                                                                    
                                                                                                    
                                                                                                    
                                                                                                    
                                                                                                    
                                                                                                    
                                                                                                    
                                                                                                    
                                                                                                    
                                                                                                    
                                                                                                    
                                                                                                    
                                                                                                    
                                                                                                    
                           
<?xpacket end="w"?></metadata>
<defs>
    <style>
      .cls-1 {
        fill: #f0f7f5;
        fill-rule: evenodd;
      }
    </style>
  </defs>
  <path id="bg" class="cls-1" d="M969,915H946a10,10,0,1,0,0,20h16a10,10,0,1,1,0,20H735a10,10,0,1,0,0,20H932a10,10,0,1,1,0,20H850c-0.018,0-.035,0-0.053,0H805.052L805,995H646.165a10,10,0,1,1,0-20H695a10,10,0,0,0,0-20H641.165a10,10,0,1,1,0-20H907a10,10,0,1,0,0-20H629.165a10,10,0,1,1,0-20H779a10,10,0,0,0,0-20H668.165a10,10,0,1,1,0-20H838a10,10,0,1,0,0-20H768.165a10,10,0,1,1,0-20H942a10,10,0,1,1,0,20H878a10,10,0,1,0,0,20h49a10,10,0,1,1,0,20H819a10,10,0,0,0,0,20H969A10,10,0,0,1,969,915ZM728,835H649a10,10,0,1,1,0-20h79A10,10,0,1,1,728,835Z" transform="translate(-619 -815)"/>
</svg>
