<svg id="icon2" xmlns="http://www.w3.org/2000/svg" width="232.25" height="168" viewBox="0 0 232.25 168">
  <metadata><?xpacket begin="﻿" id="W5M0MpCehiHzreSzNTczkc9d"?>
<x:xmpmeta xmlns:x="adobe:ns:meta/" x:xmptk="Adobe XMP Core 5.6-c138 79.159824, 2016/09/14-01:09:01        ">
   <rdf:RDF xmlns:rdf="http://www.w3.org/1999/02/22-rdf-syntax-ns#">
      <rdf:Description rdf:about=""/>
   </rdf:RDF>
</x:xmpmeta>
                                                                                                    
                                                                                                    
                                                                                                    
                                                                                                    
                                                                                                    
                                                                                                    
                                                                                                    
                                                                                                    
                                                                                                    
                                                                                                    
                                                                                                    
                                                                                                    
                                                                                                    
                                                                                                    
                                                                                                    
                                                                                                    
                                                                                                    
                                                                                                    
                                                                                                    
                                                                                                    
                           
<?xpacket end="w"?></metadata>
<defs>
    <style>
      .cls-1 {
        fill: #2c7457;
      }

      .cls-1, .cls-2, .cls-3 {
        fill-rule: evenodd;
        opacity: 0.5;
      }

      .cls-2 {
        fill: #16d488;
      }

      .cls-3 {
        fill: #226d4f;
      }
    </style>
  </defs>
  <path id="Rectangle_131_copy_15" data-name="Rectangle 131 copy 15" class="cls-1" d="M904.656,949.068L902,946.411l-2.657,2.657-1.414-1.415L900.585,945l-2.656-2.657,1.414-1.415L902,943.583l2.656-2.658,1.415,1.415L903.414,945l2.657,2.656Z" transform="translate(-687 -819)"/>
  <path id="Rectangle_175_copy_14" data-name="Rectangle 175 copy 14" class="cls-2" d="M891,825h-3v3a1,1,0,1,1-2,0v-3h-3a1,1,0,1,1,0-2h3v-3a1,1,0,1,1,2,0v3h3A1,1,0,1,1,891,825Z" transform="translate(-687 -819)"/>
  <path id="Rectangle_175_copy_15" data-name="Rectangle 175 copy 15" class="cls-3" d="M728,983h-3v3a1,1,0,0,1-2,0v-3h-3a1,1,0,1,1,0-2h3v-3a1,1,0,0,1,2,0v3h3A1,1,0,1,1,728,983Z" transform="translate(-687 -819)"/>
  <path id="Rounded_Rectangle_10_copy_12" data-name="Rounded Rectangle 10 copy 12" class="cls-2" d="M695,926h-7a1,1,0,0,1-1-1v-7a1,1,0,0,1,1-1h7a1,1,0,0,1,1,1v7A1,1,0,0,1,695,926Zm-1-7h-5v5h5v-5Z" transform="translate(-687 -819)"/>
  <path id="Shape_981_copy_10" data-name="Shape 981 copy 10" class="cls-1" d="M919.261,890.554l-11.4.2,5.876-9.778Zm-7.9-1.822,4.471-.079-2.168-3.754Z" transform="translate(-687 -819)"/>
  <path id="Ellipse_42_copy_14" data-name="Ellipse 42 copy 14" class="cls-3" d="M711,873a4,4,0,1,1,4-4A4,4,0,0,1,711,873Zm0-6a2,2,0,1,0,2,2A2,2,0,0,0,711,867Z" transform="translate(-687 -819)"/>
</svg>
