<?xml version="1.0" encoding="utf-8"?>
<!-- Generator: Adobe Illustrator 17.0.0, SVG Export Plug-In . SVG Version: 6.00 Build 0)  -->
<!DOCTYPE svg PUBLIC "-//W3C//DTD SVG 1.1//EN" "http://www.w3.org/Graphics/SVG/1.1/DTD/svg11.dtd">
<svg version="1.1" xmlns="http://www.w3.org/2000/svg" xmlns:xlink="http://www.w3.org/1999/xlink" x="0px" y="0px" width="960px"
	 height="560px" viewBox="0 0 960 560" enable-background="new 0 0 960 560" xml:space="preserve">
<g id="Layer_1">
</g>
<g id="Layer_2">
</g>
<g id="Layer_3">
</g>
<g id="Layer_4">
</g>
<g id="Layer_5">
	<g display="none">
		<path display="inline" stroke="#999999" stroke-miterlimit="10" d="M477.749,280h-77.672c-2.015,0-3.664-1.649-3.664-3.664
			v-30.672c0-2.015,1.649-3.664,3.664-3.664h77.672c2.015,0,3.664,1.649,3.664,3.664v30.672
			C481.413,278.351,479.764,280,477.749,280z"/>
		<g display="inline">
			<path fill="#AFAFAF" d="M408.373,256v-5.417h-1.949v-1.25h5.317v1.25h-1.939V256H408.373z"/>
			<path fill="#AFAFAF" d="M411.583,253.582c0-1.37,0.96-2.529,2.549-2.529c1.6,0,2.559,1.159,2.559,2.529
				c0,1.379-0.959,2.539-2.559,2.539C412.542,256.12,411.583,254.96,411.583,253.582z M415.371,253.582
				c0-0.75-0.449-1.399-1.239-1.399c-0.789,0-1.229,0.649-1.229,1.399c0,0.759,0.44,1.409,1.229,1.409
				C414.921,254.991,415.371,254.341,415.371,253.582z"/>
			<path fill="#AFAFAF" d="M417.783,257.239l0.57-0.919c0.39,0.43,0.899,0.6,1.509,0.6s1.329-0.27,1.329-1.219v-0.49
				c-0.38,0.479-0.899,0.76-1.489,0.76c-1.209,0-2.129-0.85-2.129-2.459c0-1.579,0.91-2.458,2.129-2.458c0.58,0,1.1,0.25,1.489,0.74
				v-0.62h1.279v4.498c0,1.839-1.419,2.289-2.608,2.289C419.033,257.959,418.393,257.769,417.783,257.239z M421.191,254.291v-1.559
				c-0.21-0.32-0.669-0.55-1.089-0.55c-0.72,0-1.22,0.5-1.22,1.329s0.5,1.33,1.22,1.33
				C420.522,254.841,420.981,254.601,421.191,254.291z"/>
			<path fill="#AFAFAF" d="M423.672,253.582c0-1.399,1.03-2.529,2.499-2.529c1.439,0,2.419,1.08,2.419,2.659v0.28h-3.588
				c0.08,0.609,0.569,1.119,1.389,1.119c0.41,0,0.979-0.18,1.289-0.479l0.561,0.819c-0.48,0.44-1.239,0.67-1.989,0.67
				C424.783,256.12,423.672,255.13,423.672,253.582z M426.171,252.062c-0.789,0-1.129,0.59-1.189,1.069h2.379
				C427.331,252.672,427.011,252.062,426.171,252.062z"/>
			<path fill="#AFAFAF" d="M430.013,254.801v-2.519h-0.8v-1.109h0.8v-1.319h1.279v1.319h0.979v1.109h-0.979v2.179
				c0,0.3,0.159,0.53,0.439,0.53c0.189,0,0.37-0.07,0.439-0.14l0.271,0.959c-0.19,0.17-0.53,0.31-1.06,0.31
				C430.493,256.12,430.013,255.66,430.013,254.801z"/>
			<path fill="#AFAFAF" d="M436.661,256v-2.938c0-0.669-0.35-0.879-0.899-0.879c-0.489,0-0.879,0.28-1.099,0.57V256h-1.27v-6.667
				h1.27v2.469c0.31-0.37,0.909-0.75,1.698-0.75c1.06,0,1.569,0.58,1.569,1.519V256H436.661z"/>
			<path fill="#AFAFAF" d="M439.133,253.582c0-1.399,1.029-2.529,2.498-2.529c1.439,0,2.419,1.08,2.419,2.659v0.28h-3.588
				c0.08,0.609,0.569,1.119,1.389,1.119c0.41,0,0.979-0.18,1.289-0.479l0.561,0.819c-0.48,0.44-1.239,0.67-1.989,0.67
				C440.243,256.12,439.133,255.13,439.133,253.582z M441.631,252.062c-0.789,0-1.129,0.59-1.189,1.069h2.379
				C442.791,252.672,442.471,252.062,441.631,252.062z"/>
			<path fill="#AFAFAF" d="M445.223,256v-4.827h1.27v0.66c0.34-0.43,0.939-0.78,1.539-0.78v1.239c-0.09-0.02-0.21-0.03-0.351-0.03
				c-0.419,0-0.979,0.24-1.188,0.549V256H445.223z"/>
			<path fill="#AFAFAF" d="M456.12,256l-1.02-3.288l-1.02,3.288h-1.359l-1.469-4.827h1.319l0.899,3.248l1.06-3.248h1.129l1.06,3.248
				l0.899-3.248h1.319L457.469,256H456.12z"/>
			<path fill="#AFAFAF" d="M459.693,249.894c0-0.42,0.35-0.75,0.76-0.75c0.419,0,0.759,0.33,0.759,0.75
				c0,0.419-0.34,0.759-0.759,0.759C460.042,250.653,459.693,250.313,459.693,249.894z M459.823,256v-4.827h1.27V256H459.823z"/>
			<path fill="#AFAFAF" d="M462.852,254.801v-2.519h-0.8v-1.109h0.8v-1.319h1.279v1.319h0.979v1.109h-0.979v2.179
				c0,0.3,0.159,0.53,0.439,0.53c0.189,0,0.37-0.07,0.439-0.14l0.271,0.959c-0.19,0.17-0.53,0.31-1.06,0.31
				C463.332,256.12,462.852,255.66,462.852,254.801z"/>
			<path fill="#AFAFAF" d="M469.5,256v-2.938c0-0.669-0.35-0.879-0.899-0.879c-0.489,0-0.879,0.28-1.099,0.57V256h-1.27v-6.667h1.27
				v2.469c0.31-0.37,0.909-0.75,1.698-0.75c1.06,0,1.569,0.58,1.569,1.519V256H469.5z"/>
		</g>
		<g display="inline">
			<polygon fill-rule="evenodd" clip-rule="evenodd" fill="#01AC6A" points="454.743,260.213 451.292,260.213 448.448,267.436 
				445.738,260.29 442.278,260.29 440.004,273.711 443.485,273.711 444.632,265.985 446.829,271.546 447.661,273.723 
				449.049,273.723 452.288,265.907 453.274,273.723 456.755,273.723 			"/>
			<path fill-rule="evenodd" clip-rule="evenodd" fill="#01AC6A" d="M436.722,260.244c-1.139,0-2.062,0.878-2.062,1.96v4.699v-0.073
				v4.882c0,1.082,0.923,1.959,2.062,1.959c1.138,0,2.062-0.877,2.062-1.959v-4.882v0.073v-4.699
				C438.784,261.122,437.861,260.244,436.722,260.244z"/>
			<polygon fill-rule="evenodd" clip-rule="evenodd" fill="#01AC6A" points="466.363,260.281 466.365,260.277 462.561,260.279 
				462.56,260.279 462.56,260.279 457.409,273.7 461.091,273.7 462.008,271.366 466.826,271.366 467.691,273.7 471.413,273.7 			"/>
			<polygon fill-rule="evenodd" clip-rule="evenodd" fill="#01AC6A" points="415.368,260.314 415.37,260.308 411.564,260.311 
				406.413,273.732 406.413,273.732 406.413,273.732 410.095,273.732 410.096,273.731 410.095,273.732 411.012,271.398 
				415.83,271.398 416.695,273.732 420.417,273.732 			"/>
			<path fill-rule="evenodd" clip-rule="evenodd" fill="#01AC6A" d="M431.306,266.248h-0.007h-4.519v2.527h2.737
				c-0.095,0.632-0.306,1.109-0.631,1.435c-0.498,0.479-1.169,0.728-2.011,0.728c-0.957,0-1.704-0.307-2.277-0.9
				c-0.766-0.803-1.149-1.819-1.149-3.024c0-0.575,0.115-1.148,0.326-1.685c0.554-1.473,1.568-2.219,3.005-2.219
				c0.708,0,1.302,0.21,1.819,0.613c0.364,0.306,0.67,0.746,0.938,1.321l3.139-1.284c-0.535-1.071-1.167-1.874-1.914-2.43
				c-1.052-0.765-2.316-1.149-3.828-1.149c-2.259,0-4.001,0.728-5.265,2.163c-1.109,1.264-1.664,2.814-1.664,4.671
				c0,1.685,0.478,3.12,1.416,4.327c1.263,1.588,3.043,2.393,5.398,2.393c0.59,0,1.149-0.058,1.676-0.176l0.001-0.001
				c0.752-0.167,1.437-0.453,2.056-0.858c1.091-0.709,1.876-1.742,2.355-3.063c0.307-0.882,0.459-2.01,0.459-3.389L431.306,266.248z
				"/>
		</g>
	</g>
	<g display="none">
		<path display="inline" stroke="#999999" stroke-miterlimit="10" d="M575.749,279h-77.672c-2.015,0-3.664-1.649-3.664-3.664
			v-30.672c0-2.015,1.649-3.664,3.664-3.664h77.672c2.015,0,3.664,1.649,3.664,3.664v30.672
			C579.413,277.351,577.764,279,575.749,279z"/>
		<g display="inline">
			<path fill="#FFFFFF" d="M506.373,255v-5.417h-1.949v-1.25h5.317v1.25h-1.939V255H506.373z"/>
			<path fill="#FFFFFF" d="M509.583,252.582c0-1.37,0.96-2.529,2.549-2.529c1.6,0,2.559,1.159,2.559,2.529
				c0,1.379-0.959,2.539-2.559,2.539C510.543,255.12,509.583,253.96,509.583,252.582z M513.371,252.582
				c0-0.75-0.449-1.399-1.239-1.399c-0.789,0-1.229,0.649-1.229,1.399c0,0.759,0.44,1.409,1.229,1.409
				C512.922,253.991,513.371,253.341,513.371,252.582z"/>
			<path fill="#FFFFFF" d="M515.783,256.239l0.57-0.919c0.39,0.43,0.899,0.6,1.509,0.6s1.329-0.27,1.329-1.219v-0.49
				c-0.38,0.479-0.899,0.76-1.489,0.76c-1.209,0-2.129-0.85-2.129-2.459c0-1.579,0.91-2.458,2.129-2.458c0.58,0,1.1,0.25,1.489,0.74
				v-0.62h1.279v4.498c0,1.839-1.419,2.289-2.608,2.289C517.033,256.959,516.394,256.769,515.783,256.239z M519.191,253.291v-1.559
				c-0.21-0.32-0.669-0.55-1.089-0.55c-0.72,0-1.22,0.5-1.22,1.329s0.5,1.33,1.22,1.33
				C518.522,253.841,518.981,253.601,519.191,253.291z"/>
			<path fill="#FFFFFF" d="M521.673,252.582c0-1.399,1.03-2.529,2.499-2.529c1.439,0,2.419,1.08,2.419,2.659v0.28h-3.588
				c0.08,0.609,0.569,1.119,1.389,1.119c0.41,0,0.979-0.18,1.289-0.479l0.561,0.819c-0.48,0.44-1.239,0.67-1.989,0.67
				C522.783,255.12,521.673,254.13,521.673,252.582z M524.172,251.062c-0.789,0-1.129,0.59-1.189,1.069h2.379
				C525.331,251.672,525.012,251.062,524.172,251.062z"/>
			<path fill="#FFFFFF" d="M528.014,253.801v-2.519h-0.8v-1.109h0.8v-1.319h1.279v1.319h0.979v1.109h-0.979v2.179
				c0,0.3,0.159,0.53,0.439,0.53c0.189,0,0.37-0.07,0.439-0.14l0.271,0.959c-0.19,0.17-0.53,0.31-1.06,0.31
				C528.493,255.12,528.014,254.66,528.014,253.801z"/>
			<path fill="#FFFFFF" d="M534.661,255v-2.938c0-0.669-0.35-0.879-0.899-0.879c-0.489,0-0.879,0.28-1.099,0.57V255h-1.27v-6.667
				h1.27v2.469c0.31-0.37,0.909-0.75,1.698-0.75c1.06,0,1.569,0.58,1.569,1.519V255H534.661z"/>
			<path fill="#FFFFFF" d="M537.134,252.582c0-1.399,1.029-2.529,2.498-2.529c1.439,0,2.419,1.08,2.419,2.659v0.28h-3.588
				c0.08,0.609,0.569,1.119,1.389,1.119c0.41,0,0.979-0.18,1.289-0.479l0.561,0.819c-0.48,0.44-1.239,0.67-1.989,0.67
				C538.243,255.12,537.134,254.13,537.134,252.582z M539.632,251.062c-0.789,0-1.129,0.59-1.189,1.069h2.379
				C540.791,251.672,540.472,251.062,539.632,251.062z"/>
			<path fill="#FFFFFF" d="M543.224,255v-4.827h1.27v0.66c0.34-0.43,0.939-0.78,1.539-0.78v1.239c-0.09-0.02-0.21-0.03-0.351-0.03
				c-0.419,0-0.979,0.24-1.188,0.549V255H543.224z"/>
			<path fill="#FFFFFF" d="M554.12,255l-1.02-3.288l-1.02,3.288h-1.359l-1.469-4.827h1.319l0.899,3.248l1.06-3.248h1.129l1.06,3.248
				l0.899-3.248h1.319L555.47,255H554.12z"/>
			<path fill="#FFFFFF" d="M557.693,248.894c0-0.42,0.35-0.75,0.76-0.75c0.419,0,0.759,0.33,0.759,0.75
				c0,0.419-0.34,0.759-0.759,0.759C558.043,249.653,557.693,249.313,557.693,248.894z M557.823,255v-4.827h1.27V255H557.823z"/>
			<path fill="#FFFFFF" d="M560.853,253.801v-2.519h-0.8v-1.109h0.8v-1.319h1.279v1.319h0.979v1.109h-0.979v2.179
				c0,0.3,0.159,0.53,0.439,0.53c0.189,0,0.37-0.07,0.439-0.14l0.271,0.959c-0.19,0.17-0.53,0.31-1.06,0.31
				C561.332,255.12,560.853,254.66,560.853,253.801z"/>
			<path fill="#FFFFFF" d="M567.5,255v-2.938c0-0.669-0.35-0.879-0.899-0.879c-0.489,0-0.879,0.28-1.099,0.57V255h-1.27v-6.667h1.27
				v2.469c0.31-0.37,0.909-0.75,1.698-0.75c1.06,0,1.569,0.58,1.569,1.519V255H567.5z"/>
		</g>
		<g display="inline">
			<polygon fill-rule="evenodd" clip-rule="evenodd" fill="#FFFFFF" points="552.743,259.213 549.292,259.213 546.448,266.436 
				543.738,259.29 540.278,259.29 538.004,272.711 541.485,272.711 542.632,264.985 544.829,270.546 545.661,272.723 
				547.049,272.723 550.288,264.907 551.274,272.723 554.755,272.723 			"/>
			<path fill-rule="evenodd" clip-rule="evenodd" fill="#FFFFFF" d="M534.722,259.244c-1.139,0-2.062,0.878-2.062,1.96v4.699v-0.073
				v4.882c0,1.082,0.923,1.959,2.062,1.959c1.138,0,2.062-0.877,2.062-1.959v-4.882v0.073v-4.699
				C536.784,260.122,535.861,259.244,534.722,259.244z"/>
			<polygon fill-rule="evenodd" clip-rule="evenodd" fill="#FFFFFF" points="564.363,259.281 564.365,259.277 560.561,259.279 
				560.56,259.279 560.56,259.279 555.409,272.7 559.091,272.7 560.008,270.366 564.826,270.366 565.691,272.7 569.413,272.7 			"/>
			<polygon fill-rule="evenodd" clip-rule="evenodd" fill="#FFFFFF" points="513.368,259.314 513.37,259.308 509.564,259.311 
				504.413,272.732 504.413,272.732 504.413,272.732 508.095,272.732 508.096,272.731 508.095,272.732 509.012,270.398 
				513.83,270.398 514.695,272.732 518.417,272.732 			"/>
			<path fill-rule="evenodd" clip-rule="evenodd" fill="#FFFFFF" d="M529.306,265.248h-0.007h-4.519v2.527h2.737
				c-0.095,0.632-0.306,1.109-0.631,1.435c-0.498,0.479-1.169,0.728-2.011,0.728c-0.957,0-1.704-0.307-2.277-0.9
				c-0.766-0.803-1.149-1.819-1.149-3.024c0-0.575,0.115-1.148,0.326-1.685c0.554-1.473,1.568-2.219,3.005-2.219
				c0.708,0,1.303,0.21,1.819,0.613c0.364,0.306,0.67,0.746,0.938,1.321l3.138-1.284c-0.535-1.071-1.167-1.874-1.914-2.43
				c-1.052-0.765-2.316-1.149-3.828-1.149c-2.259,0-4.001,0.728-5.265,2.163c-1.109,1.264-1.664,2.814-1.664,4.671
				c0,1.685,0.478,3.12,1.416,4.327c1.263,1.588,3.043,2.393,5.398,2.393c0.59,0,1.149-0.058,1.676-0.176l0.001-0.001
				c0.752-0.167,1.437-0.453,2.056-0.858c1.091-0.709,1.876-1.742,2.355-3.063c0.307-0.882,0.459-2.01,0.459-3.389L529.306,265.248z
				"/>
		</g>
	</g>
	<g display="none">
		<path display="inline" d="M673.749,279h-77.672c-2.015,0-3.664-1.649-3.664-3.664v-30.672c0-2.015,1.649-3.664,3.664-3.664h77.672
			c2.015,0,3.664,1.649,3.664,3.664v30.672C677.413,277.351,675.764,279,673.749,279z"/>
		<g display="inline">
			<path fill="#FFFFFF" d="M604.373,255v-5.417h-1.949v-1.25h5.317v1.25h-1.939V255H604.373z"/>
			<path fill="#FFFFFF" d="M607.583,252.582c0-1.37,0.96-2.529,2.549-2.529c1.6,0,2.559,1.159,2.559,2.529
				c0,1.379-0.959,2.539-2.559,2.539C608.543,255.12,607.583,253.96,607.583,252.582z M611.371,252.582
				c0-0.75-0.449-1.399-1.239-1.399c-0.789,0-1.229,0.649-1.229,1.399c0,0.759,0.44,1.409,1.229,1.409
				C610.922,253.991,611.371,253.341,611.371,252.582z"/>
			<path fill="#FFFFFF" d="M613.783,256.239l0.57-0.919c0.39,0.43,0.899,0.6,1.509,0.6s1.329-0.27,1.329-1.219v-0.49
				c-0.38,0.479-0.899,0.76-1.489,0.76c-1.209,0-2.129-0.85-2.129-2.459c0-1.579,0.91-2.458,2.129-2.458c0.58,0,1.1,0.25,1.489,0.74
				v-0.62h1.279v4.498c0,1.839-1.419,2.289-2.608,2.289C615.033,256.959,614.394,256.769,613.783,256.239z M617.191,253.291v-1.559
				c-0.21-0.32-0.669-0.55-1.089-0.55c-0.72,0-1.22,0.5-1.22,1.329s0.5,1.33,1.22,1.33
				C616.522,253.841,616.981,253.601,617.191,253.291z"/>
			<path fill="#FFFFFF" d="M619.673,252.582c0-1.399,1.03-2.529,2.499-2.529c1.439,0,2.419,1.08,2.419,2.659v0.28h-3.588
				c0.08,0.609,0.569,1.119,1.389,1.119c0.41,0,0.979-0.18,1.289-0.479l0.561,0.819c-0.48,0.44-1.239,0.67-1.989,0.67
				C620.783,255.12,619.673,254.13,619.673,252.582z M622.172,251.062c-0.789,0-1.129,0.59-1.189,1.069h2.379
				C623.331,251.672,623.012,251.062,622.172,251.062z"/>
			<path fill="#FFFFFF" d="M626.014,253.801v-2.519h-0.8v-1.109h0.8v-1.319h1.279v1.319h0.979v1.109h-0.979v2.179
				c0,0.3,0.159,0.53,0.439,0.53c0.189,0,0.37-0.07,0.439-0.14l0.271,0.959c-0.19,0.17-0.53,0.31-1.06,0.31
				C626.493,255.12,626.014,254.66,626.014,253.801z"/>
			<path fill="#FFFFFF" d="M632.661,255v-2.938c0-0.669-0.35-0.879-0.899-0.879c-0.489,0-0.879,0.28-1.099,0.57V255h-1.27v-6.667
				h1.27v2.469c0.31-0.37,0.909-0.75,1.698-0.75c1.06,0,1.569,0.58,1.569,1.519V255H632.661z"/>
			<path fill="#FFFFFF" d="M635.134,252.582c0-1.399,1.029-2.529,2.498-2.529c1.439,0,2.419,1.08,2.419,2.659v0.28h-3.588
				c0.08,0.609,0.569,1.119,1.389,1.119c0.41,0,0.979-0.18,1.289-0.479l0.561,0.819c-0.48,0.44-1.239,0.67-1.989,0.67
				C636.243,255.12,635.134,254.13,635.134,252.582z M637.632,251.062c-0.789,0-1.129,0.59-1.189,1.069h2.379
				C638.791,251.672,638.472,251.062,637.632,251.062z"/>
			<path fill="#FFFFFF" d="M641.224,255v-4.827h1.27v0.66c0.34-0.43,0.939-0.78,1.539-0.78v1.239c-0.09-0.02-0.21-0.03-0.351-0.03
				c-0.419,0-0.979,0.24-1.188,0.549V255H641.224z"/>
			<path fill="#FFFFFF" d="M652.12,255l-1.02-3.288l-1.02,3.288h-1.359l-1.469-4.827h1.319l0.899,3.248l1.06-3.248h1.129l1.06,3.248
				l0.899-3.248h1.319L653.47,255H652.12z"/>
			<path fill="#FFFFFF" d="M655.693,248.894c0-0.42,0.35-0.75,0.76-0.75c0.419,0,0.759,0.33,0.759,0.75
				c0,0.419-0.34,0.759-0.759,0.759C656.043,249.653,655.693,249.313,655.693,248.894z M655.823,255v-4.827h1.27V255H655.823z"/>
			<path fill="#FFFFFF" d="M658.853,253.801v-2.519h-0.8v-1.109h0.8v-1.319h1.279v1.319h0.979v1.109h-0.979v2.179
				c0,0.3,0.159,0.53,0.439,0.53c0.189,0,0.37-0.07,0.439-0.14l0.271,0.959c-0.19,0.17-0.53,0.31-1.06,0.31
				C659.332,255.12,658.853,254.66,658.853,253.801z"/>
			<path fill="#FFFFFF" d="M665.5,255v-2.938c0-0.669-0.35-0.879-0.899-0.879c-0.489,0-0.879,0.28-1.099,0.57V255h-1.27v-6.667h1.27
				v2.469c0.31-0.37,0.909-0.75,1.698-0.75c1.06,0,1.569,0.58,1.569,1.519V255H665.5z"/>
		</g>
		<g display="inline">
			<polygon fill-rule="evenodd" clip-rule="evenodd" fill="#FFFFFF" points="650.743,259.213 647.292,259.213 644.448,266.436 
				641.738,259.29 638.278,259.29 636.004,272.711 639.485,272.711 640.632,264.985 642.829,270.546 643.661,272.723 
				645.049,272.723 648.288,264.907 649.274,272.723 652.755,272.723 			"/>
			<path fill-rule="evenodd" clip-rule="evenodd" fill="#FFFFFF" d="M632.722,259.244c-1.139,0-2.062,0.878-2.062,1.96v4.699v-0.073
				v4.882c0,1.082,0.923,1.959,2.062,1.959c1.138,0,2.062-0.877,2.062-1.959v-4.882v0.073v-4.699
				C634.784,260.122,633.861,259.244,632.722,259.244z"/>
			<polygon fill-rule="evenodd" clip-rule="evenodd" fill="#FFFFFF" points="662.363,259.281 662.365,259.277 658.561,259.279 
				658.56,259.279 658.56,259.279 653.409,272.7 657.091,272.7 658.008,270.366 662.826,270.366 663.691,272.7 667.413,272.7 			"/>
			<polygon fill-rule="evenodd" clip-rule="evenodd" fill="#FFFFFF" points="611.368,259.314 611.37,259.308 607.564,259.311 
				602.413,272.732 602.413,272.732 602.413,272.732 606.095,272.732 606.096,272.731 606.095,272.732 607.012,270.398 
				611.83,270.398 612.695,272.732 616.417,272.732 			"/>
			<path fill-rule="evenodd" clip-rule="evenodd" fill="#FFFFFF" d="M627.306,265.248h-0.007h-4.519v2.527h2.737
				c-0.095,0.632-0.306,1.109-0.631,1.435c-0.498,0.479-1.169,0.728-2.011,0.728c-0.957,0-1.704-0.307-2.277-0.9
				c-0.766-0.803-1.149-1.819-1.149-3.024c0-0.575,0.115-1.148,0.326-1.685c0.554-1.473,1.568-2.219,3.005-2.219
				c0.708,0,1.303,0.21,1.819,0.613c0.364,0.306,0.67,0.746,0.938,1.321l3.138-1.284c-0.535-1.071-1.167-1.874-1.914-2.43
				c-1.052-0.765-2.316-1.149-3.828-1.149c-2.259,0-4.001,0.728-5.265,2.163c-1.109,1.264-1.664,2.814-1.664,4.671
				c0,1.685,0.478,3.12,1.416,4.327c1.263,1.588,3.043,2.393,5.398,2.393c0.59,0,1.149-0.058,1.676-0.176l0.001-0.001
				c0.752-0.167,1.437-0.453,2.056-0.858c1.091-0.709,1.876-1.742,2.355-3.063c0.307-0.882,0.459-2.01,0.459-3.389L627.306,265.248z
				"/>
		</g>
	</g>
	<g display="none">
		<path display="inline" stroke="#999999" stroke-miterlimit="10" d="M379.749,280h-77.672c-2.015,0-3.664-1.649-3.664-3.664
			v-30.672c0-2.015,1.649-3.664,3.664-3.664h77.672c2.015,0,3.664,1.649,3.664,3.664v30.672
			C383.413,278.351,381.764,280,379.749,280z"/>
		<g display="inline">
			<path fill="#999999" d="M310.373,256v-5.417h-1.949v-1.25h5.317v1.25h-1.939V256H310.373z"/>
			<path fill="#999999" d="M313.583,253.582c0-1.37,0.96-2.529,2.549-2.529c1.6,0,2.559,1.159,2.559,2.529
				c0,1.379-0.959,2.539-2.559,2.539C314.542,256.12,313.583,254.96,313.583,253.582z M317.371,253.582
				c0-0.75-0.449-1.399-1.239-1.399c-0.789,0-1.229,0.649-1.229,1.399c0,0.759,0.44,1.409,1.229,1.409
				C316.921,254.991,317.371,254.341,317.371,253.582z"/>
			<path fill="#999999" d="M319.783,257.239l0.57-0.919c0.39,0.43,0.899,0.6,1.509,0.6s1.329-0.27,1.329-1.219v-0.49
				c-0.38,0.479-0.899,0.76-1.489,0.76c-1.209,0-2.129-0.85-2.129-2.459c0-1.579,0.91-2.458,2.129-2.458c0.58,0,1.1,0.25,1.489,0.74
				v-0.62h1.279v4.498c0,1.839-1.419,2.289-2.608,2.289C321.033,257.959,320.393,257.769,319.783,257.239z M323.191,254.291v-1.559
				c-0.21-0.32-0.669-0.55-1.089-0.55c-0.72,0-1.22,0.5-1.22,1.329s0.5,1.33,1.22,1.33
				C322.522,254.841,322.981,254.601,323.191,254.291z"/>
			<path fill="#999999" d="M325.672,253.582c0-1.399,1.03-2.529,2.499-2.529c1.439,0,2.419,1.08,2.419,2.659v0.28h-3.588
				c0.08,0.609,0.569,1.119,1.389,1.119c0.41,0,0.979-0.18,1.289-0.479l0.561,0.819c-0.48,0.44-1.239,0.67-1.989,0.67
				C326.783,256.12,325.672,255.13,325.672,253.582z M328.171,252.062c-0.789,0-1.129,0.59-1.189,1.069h2.379
				C329.331,252.672,329.011,252.062,328.171,252.062z"/>
			<path fill="#999999" d="M332.013,254.801v-2.519h-0.8v-1.109h0.8v-1.319h1.279v1.319h0.979v1.109h-0.979v2.179
				c0,0.3,0.159,0.53,0.439,0.53c0.189,0,0.37-0.07,0.439-0.14l0.271,0.959c-0.19,0.17-0.53,0.31-1.06,0.31
				C332.493,256.12,332.013,255.66,332.013,254.801z"/>
			<path fill="#999999" d="M338.661,256v-2.938c0-0.669-0.35-0.879-0.899-0.879c-0.489,0-0.879,0.28-1.099,0.57V256h-1.27v-6.667
				h1.27v2.469c0.31-0.37,0.909-0.75,1.698-0.75c1.06,0,1.569,0.58,1.569,1.519V256H338.661z"/>
			<path fill="#999999" d="M341.133,253.582c0-1.399,1.029-2.529,2.498-2.529c1.439,0,2.419,1.08,2.419,2.659v0.28h-3.588
				c0.08,0.609,0.569,1.119,1.389,1.119c0.41,0,0.979-0.18,1.289-0.479l0.561,0.819c-0.48,0.44-1.239,0.67-1.989,0.67
				C342.243,256.12,341.133,255.13,341.133,253.582z M343.631,252.062c-0.789,0-1.129,0.59-1.189,1.069h2.379
				C344.791,252.672,344.471,252.062,343.631,252.062z"/>
			<path fill="#999999" d="M347.223,256v-4.827h1.27v0.66c0.34-0.43,0.939-0.78,1.539-0.78v1.239c-0.09-0.02-0.21-0.03-0.351-0.03
				c-0.419,0-0.979,0.24-1.188,0.549V256H347.223z"/>
			<path fill="#999999" d="M358.12,256l-1.02-3.288l-1.02,3.288h-1.359l-1.469-4.827h1.319l0.899,3.248l1.06-3.248h1.129l1.06,3.248
				l0.899-3.248h1.319L359.469,256H358.12z"/>
			<path fill="#999999" d="M361.693,249.894c0-0.42,0.35-0.75,0.76-0.75c0.419,0,0.759,0.33,0.759,0.75
				c0,0.419-0.34,0.759-0.759,0.759C362.042,250.653,361.693,250.313,361.693,249.894z M361.823,256v-4.827h1.27V256H361.823z"/>
			<path fill="#999999" d="M364.852,254.801v-2.519h-0.8v-1.109h0.8v-1.319h1.279v1.319h0.979v1.109h-0.979v2.179
				c0,0.3,0.159,0.53,0.439,0.53c0.189,0,0.37-0.07,0.439-0.14l0.271,0.959c-0.19,0.17-0.53,0.31-1.06,0.31
				C365.332,256.12,364.852,255.66,364.852,254.801z"/>
			<path fill="#999999" d="M371.5,256v-2.938c0-0.669-0.35-0.879-0.899-0.879c-0.489,0-0.879,0.28-1.099,0.57V256h-1.27v-6.667h1.27
				v2.469c0.31-0.37,0.909-0.75,1.698-0.75c1.06,0,1.569,0.58,1.569,1.519V256H371.5z"/>
		</g>
		<g display="inline">
			<polygon fill-rule="evenodd" clip-rule="evenodd" fill="#999999" points="356.743,260.213 353.292,260.213 350.448,267.436 
				347.738,260.29 344.278,260.29 342.004,273.711 345.485,273.711 346.632,265.985 348.829,271.546 349.661,273.723 
				351.049,273.723 354.288,265.907 355.274,273.723 358.755,273.723 			"/>
			<path fill-rule="evenodd" clip-rule="evenodd" fill="#999999" d="M338.722,260.244c-1.139,0-2.062,0.878-2.062,1.96v4.699v-0.073
				v4.882c0,1.082,0.923,1.959,2.062,1.959c1.138,0,2.062-0.877,2.062-1.959v-4.882v0.073v-4.699
				C340.784,261.122,339.861,260.244,338.722,260.244z"/>
			<polygon fill-rule="evenodd" clip-rule="evenodd" fill="#999999" points="368.363,260.281 368.365,260.277 364.561,260.279 
				364.56,260.279 364.56,260.279 359.409,273.7 363.091,273.7 364.008,271.366 368.826,271.366 369.691,273.7 373.413,273.7 			"/>
			<polygon fill-rule="evenodd" clip-rule="evenodd" fill="#999999" points="317.368,260.314 317.37,260.308 313.564,260.311 
				308.413,273.732 308.413,273.732 308.413,273.732 312.095,273.732 312.096,273.731 312.095,273.732 313.012,271.398 
				317.83,271.398 318.695,273.732 322.417,273.732 			"/>
			<path fill-rule="evenodd" clip-rule="evenodd" fill="#999999" d="M333.306,266.248h-0.007h-4.519v2.527h2.737
				c-0.095,0.632-0.306,1.109-0.631,1.435c-0.498,0.479-1.169,0.728-2.011,0.728c-0.957,0-1.704-0.307-2.277-0.9
				c-0.766-0.803-1.149-1.819-1.149-3.024c0-0.575,0.115-1.148,0.326-1.685c0.554-1.473,1.568-2.219,3.005-2.219
				c0.708,0,1.302,0.21,1.819,0.613c0.364,0.306,0.67,0.746,0.938,1.321l3.139-1.284c-0.535-1.071-1.167-1.874-1.914-2.43
				c-1.052-0.765-2.316-1.149-3.828-1.149c-2.259,0-4.001,0.728-5.265,2.163c-1.109,1.264-1.664,2.814-1.664,4.671
				c0,1.685,0.478,3.12,1.416,4.327c1.263,1.588,3.043,2.393,5.398,2.393c0.59,0,1.149-0.058,1.676-0.176l0.001-0.001
				c0.752-0.167,1.437-0.453,2.056-0.858c1.091-0.709,1.876-1.742,2.355-3.063c0.307-0.882,0.459-2.01,0.459-3.389L333.306,266.248z
				"/>
		</g>
	</g>
	<g display="none">
		<path display="inline" fill="none" stroke="#999999" stroke-miterlimit="10" d="M477.749,332h-77.672
			c-2.015,0-3.664-1.649-3.664-3.664v-30.672c0-2.015,1.649-3.664,3.664-3.664h77.672c2.015,0,3.664,1.649,3.664,3.664v30.672
			C481.413,330.351,479.764,332,477.749,332z"/>
		<g display="inline">
			<path fill="#AFAFAF" d="M408.373,308v-5.417h-1.949v-1.249h5.317v1.249h-1.939V308H408.373z"/>
			<path fill="#AFAFAF" d="M411.583,305.582c0-1.37,0.96-2.529,2.549-2.529c1.6,0,2.559,1.159,2.559,2.529
				c0,1.379-0.959,2.538-2.559,2.538C412.542,308.12,411.583,306.961,411.583,305.582z M415.371,305.582c0-0.75-0.449-1.4-1.239-1.4
				c-0.789,0-1.229,0.65-1.229,1.4c0,0.759,0.44,1.408,1.229,1.408C414.921,306.99,415.371,306.341,415.371,305.582z"/>
			<path fill="#AFAFAF" d="M417.783,309.239l0.57-0.919c0.39,0.43,0.899,0.6,1.509,0.6s1.329-0.271,1.329-1.22v-0.489
				c-0.38,0.479-0.899,0.76-1.489,0.76c-1.209,0-2.129-0.85-2.129-2.459c0-1.58,0.91-2.459,2.129-2.459c0.58,0,1.1,0.25,1.489,0.74
				v-0.62h1.279v4.497c0,1.84-1.419,2.289-2.608,2.289C419.033,309.959,418.393,309.77,417.783,309.239z M421.191,306.291v-1.559
				c-0.21-0.32-0.669-0.551-1.089-0.551c-0.72,0-1.22,0.5-1.22,1.33c0,0.829,0.5,1.329,1.22,1.329
				C420.522,306.841,420.981,306.601,421.191,306.291z"/>
			<path fill="#AFAFAF" d="M423.672,305.582c0-1.4,1.03-2.529,2.499-2.529c1.439,0,2.419,1.08,2.419,2.658v0.28h-3.588
				c0.08,0.609,0.569,1.119,1.389,1.119c0.41,0,0.979-0.18,1.289-0.479l0.561,0.819c-0.48,0.44-1.239,0.67-1.989,0.67
				C424.783,308.12,423.672,307.131,423.672,305.582z M426.171,304.062c-0.789,0-1.129,0.59-1.189,1.068h2.379
				C427.331,304.672,427.011,304.062,426.171,304.062z"/>
			<path fill="#AFAFAF" d="M430.013,306.801v-2.519h-0.8v-1.109h0.8v-1.319h1.279v1.319h0.979v1.109h-0.979v2.179
				c0,0.3,0.159,0.529,0.439,0.529c0.189,0,0.37-0.07,0.439-0.14l0.271,0.96c-0.19,0.17-0.53,0.31-1.06,0.31
				C430.493,308.12,430.013,307.66,430.013,306.801z"/>
			<path fill="#AFAFAF" d="M436.661,308v-2.938c0-0.669-0.35-0.88-0.899-0.88c-0.489,0-0.879,0.28-1.099,0.57V308h-1.27v-6.666h1.27
				v2.469c0.31-0.37,0.909-0.75,1.698-0.75c1.06,0,1.569,0.58,1.569,1.52V308H436.661z"/>
			<path fill="#AFAFAF" d="M439.133,305.582c0-1.4,1.029-2.529,2.498-2.529c1.439,0,2.419,1.08,2.419,2.658v0.28h-3.588
				c0.08,0.609,0.569,1.119,1.389,1.119c0.41,0,0.979-0.18,1.289-0.479l0.561,0.819c-0.48,0.44-1.239,0.67-1.989,0.67
				C440.243,308.12,439.133,307.131,439.133,305.582z M441.631,304.062c-0.789,0-1.129,0.59-1.189,1.068h2.379
				C442.791,304.672,442.471,304.062,441.631,304.062z"/>
			<path fill="#AFAFAF" d="M445.223,308v-4.827h1.27v0.659c0.34-0.43,0.939-0.779,1.539-0.779v1.239
				c-0.09-0.021-0.21-0.03-0.351-0.03c-0.419,0-0.979,0.24-1.188,0.55V308H445.223z"/>
			<path fill="#AFAFAF" d="M456.12,308l-1.02-3.288l-1.02,3.288h-1.359l-1.469-4.827h1.319l0.899,3.248l1.06-3.248h1.129l1.06,3.248
				l0.899-3.248h1.319L457.469,308H456.12z"/>
			<path fill="#AFAFAF" d="M459.693,301.894c0-0.42,0.35-0.75,0.76-0.75c0.419,0,0.759,0.33,0.759,0.75
				c0,0.419-0.34,0.759-0.759,0.759C460.042,302.652,459.693,302.312,459.693,301.894z M459.823,308v-4.827h1.27V308H459.823z"/>
			<path fill="#AFAFAF" d="M462.852,306.801v-2.519h-0.8v-1.109h0.8v-1.319h1.279v1.319h0.979v1.109h-0.979v2.179
				c0,0.3,0.159,0.529,0.439,0.529c0.189,0,0.37-0.07,0.439-0.14l0.271,0.96c-0.19,0.17-0.53,0.31-1.06,0.31
				C463.332,308.12,462.852,307.66,462.852,306.801z"/>
			<path fill="#AFAFAF" d="M469.5,308v-2.938c0-0.669-0.35-0.88-0.899-0.88c-0.489,0-0.879,0.28-1.099,0.57V308h-1.27v-6.666h1.27
				v2.469c0.31-0.37,0.909-0.75,1.698-0.75c1.06,0,1.569,0.58,1.569,1.52V308H469.5z"/>
		</g>
		<g display="inline">
			<polygon fill-rule="evenodd" clip-rule="evenodd" fill="#01AC6A" points="454.743,312.213 451.292,312.213 448.448,319.436 
				445.738,312.29 442.278,312.29 440.004,325.711 443.485,325.711 444.632,317.985 446.829,323.546 447.661,325.723 
				449.049,325.723 452.288,317.907 453.274,325.723 456.755,325.723 			"/>
			<path fill-rule="evenodd" clip-rule="evenodd" fill="#01AC6A" d="M436.722,312.244c-1.139,0-2.062,0.878-2.062,1.96v4.699v-0.073
				v4.882c0,1.082,0.923,1.959,2.062,1.959c1.138,0,2.062-0.877,2.062-1.959v-4.882v0.073v-4.699
				C438.784,313.122,437.861,312.244,436.722,312.244z"/>
			<polygon fill-rule="evenodd" clip-rule="evenodd" fill="#01AC6A" points="466.363,312.281 466.365,312.277 462.561,312.279 
				462.56,312.279 462.56,312.279 457.409,325.7 461.091,325.7 462.008,323.366 466.826,323.366 467.691,325.7 471.413,325.7 			"/>
			<polygon fill-rule="evenodd" clip-rule="evenodd" fill="#01AC6A" points="415.368,312.314 415.37,312.308 411.564,312.311 
				406.413,325.732 406.413,325.732 406.413,325.732 410.095,325.732 410.096,325.731 410.095,325.732 411.012,323.398 
				415.83,323.398 416.695,325.732 420.417,325.732 			"/>
			<path fill-rule="evenodd" clip-rule="evenodd" fill="#01AC6A" d="M431.306,318.248h-0.007h-4.519v2.527h2.737
				c-0.095,0.632-0.306,1.109-0.631,1.435c-0.498,0.479-1.169,0.728-2.011,0.728c-0.957,0-1.704-0.307-2.277-0.9
				c-0.766-0.803-1.149-1.819-1.149-3.024c0-0.575,0.115-1.148,0.326-1.685c0.554-1.473,1.568-2.219,3.005-2.219
				c0.708,0,1.302,0.21,1.819,0.613c0.364,0.306,0.67,0.746,0.938,1.321l3.139-1.284c-0.535-1.071-1.167-1.874-1.914-2.43
				c-1.052-0.765-2.316-1.149-3.828-1.149c-2.259,0-4.001,0.728-5.265,2.163c-1.109,1.264-1.664,2.814-1.664,4.671
				c0,1.685,0.478,3.12,1.416,4.327c1.263,1.588,3.043,2.393,5.398,2.393c0.59,0,1.149-0.058,1.676-0.176l0.001-0.001
				c0.752-0.167,1.437-0.453,2.056-0.858c1.091-0.709,1.876-1.742,2.355-3.063c0.307-0.882,0.459-2.01,0.459-3.389L431.306,318.248z
				"/>
		</g>
	</g>
	<g display="none">
		<path display="inline" fill="none" stroke="#999999" stroke-miterlimit="10" d="M575.749,331h-77.672
			c-2.015,0-3.664-1.649-3.664-3.664v-30.672c0-2.015,1.649-3.664,3.664-3.664h77.672c2.015,0,3.664,1.649,3.664,3.664v30.672
			C579.413,329.351,577.764,331,575.749,331z"/>
		<g display="inline">
			<path fill="#1E0F00" d="M506.373,307v-5.417h-1.949v-1.249h5.317v1.249h-1.939V307H506.373z"/>
			<path fill="#1E0F00" d="M509.583,304.582c0-1.37,0.96-2.529,2.549-2.529c1.6,0,2.559,1.159,2.559,2.529
				c0,1.379-0.959,2.538-2.559,2.538C510.543,307.12,509.583,305.961,509.583,304.582z M513.371,304.582c0-0.75-0.449-1.4-1.239-1.4
				c-0.789,0-1.229,0.65-1.229,1.4c0,0.759,0.44,1.408,1.229,1.408C512.922,305.99,513.371,305.341,513.371,304.582z"/>
			<path fill="#1E0F00" d="M515.783,308.239l0.57-0.919c0.39,0.43,0.899,0.6,1.509,0.6s1.329-0.271,1.329-1.22v-0.489
				c-0.38,0.479-0.899,0.76-1.489,0.76c-1.209,0-2.129-0.85-2.129-2.459c0-1.58,0.91-2.459,2.129-2.459c0.58,0,1.1,0.25,1.489,0.74
				v-0.62h1.279v4.497c0,1.84-1.419,2.289-2.608,2.289C517.033,308.959,516.394,308.77,515.783,308.239z M519.191,305.291v-1.559
				c-0.21-0.32-0.669-0.551-1.089-0.551c-0.72,0-1.22,0.5-1.22,1.33c0,0.829,0.5,1.329,1.22,1.329
				C518.522,305.841,518.981,305.601,519.191,305.291z"/>
			<path fill="#1E0F00" d="M521.673,304.582c0-1.4,1.03-2.529,2.499-2.529c1.439,0,2.419,1.08,2.419,2.658v0.28h-3.588
				c0.08,0.609,0.569,1.119,1.389,1.119c0.41,0,0.979-0.18,1.289-0.479l0.561,0.819c-0.48,0.44-1.239,0.67-1.989,0.67
				C522.783,307.12,521.673,306.131,521.673,304.582z M524.172,303.062c-0.789,0-1.129,0.59-1.189,1.068h2.379
				C525.331,303.672,525.012,303.062,524.172,303.062z"/>
			<path fill="#1E0F00" d="M528.014,305.801v-2.519h-0.8v-1.109h0.8v-1.319h1.279v1.319h0.979v1.109h-0.979v2.179
				c0,0.3,0.159,0.529,0.439,0.529c0.189,0,0.37-0.07,0.439-0.14l0.271,0.96c-0.19,0.17-0.53,0.31-1.06,0.31
				C528.493,307.12,528.014,306.66,528.014,305.801z"/>
			<path fill="#1E0F00" d="M534.661,307v-2.938c0-0.669-0.35-0.88-0.899-0.88c-0.489,0-0.879,0.28-1.099,0.57V307h-1.27v-6.666h1.27
				v2.469c0.31-0.37,0.909-0.75,1.698-0.75c1.06,0,1.569,0.58,1.569,1.52V307H534.661z"/>
			<path fill="#1E0F00" d="M537.134,304.582c0-1.4,1.029-2.529,2.498-2.529c1.439,0,2.419,1.08,2.419,2.658v0.28h-3.588
				c0.08,0.609,0.569,1.119,1.389,1.119c0.41,0,0.979-0.18,1.289-0.479l0.561,0.819c-0.48,0.44-1.239,0.67-1.989,0.67
				C538.243,307.12,537.134,306.131,537.134,304.582z M539.632,303.062c-0.789,0-1.129,0.59-1.189,1.068h2.379
				C540.791,303.672,540.472,303.062,539.632,303.062z"/>
			<path fill="#1E0F00" d="M543.224,307v-4.827h1.27v0.659c0.34-0.43,0.939-0.779,1.539-0.779v1.239
				c-0.09-0.021-0.21-0.03-0.351-0.03c-0.419,0-0.979,0.24-1.188,0.55V307H543.224z"/>
			<path fill="#1E0F00" d="M554.12,307l-1.02-3.288l-1.02,3.288h-1.359l-1.469-4.827h1.319l0.899,3.248l1.06-3.248h1.129l1.06,3.248
				l0.899-3.248h1.319L555.47,307H554.12z"/>
			<path fill="#1E0F00" d="M557.693,300.894c0-0.42,0.35-0.75,0.76-0.75c0.419,0,0.759,0.33,0.759,0.75
				c0,0.419-0.34,0.759-0.759,0.759C558.043,301.652,557.693,301.312,557.693,300.894z M557.823,307v-4.827h1.27V307H557.823z"/>
			<path fill="#1E0F00" d="M560.853,305.801v-2.519h-0.8v-1.109h0.8v-1.319h1.279v1.319h0.979v1.109h-0.979v2.179
				c0,0.3,0.159,0.529,0.439,0.529c0.189,0,0.37-0.07,0.439-0.14l0.271,0.96c-0.19,0.17-0.53,0.31-1.06,0.31
				C561.332,307.12,560.853,306.66,560.853,305.801z"/>
			<path fill="#1E0F00" d="M567.5,307v-2.938c0-0.669-0.35-0.88-0.899-0.88c-0.489,0-0.879,0.28-1.099,0.57V307h-1.27v-6.666h1.27
				v2.469c0.31-0.37,0.909-0.75,1.698-0.75c1.06,0,1.569,0.58,1.569,1.52V307H567.5z"/>
		</g>
		<g display="inline">
			<polygon fill-rule="evenodd" clip-rule="evenodd" fill="#1E0F00" points="552.743,311.213 549.292,311.213 546.448,318.436 
				543.738,311.29 540.278,311.29 538.004,324.711 541.485,324.711 542.632,316.985 544.829,322.546 545.661,324.723 
				547.049,324.723 550.288,316.907 551.274,324.723 554.755,324.723 			"/>
			<path fill-rule="evenodd" clip-rule="evenodd" fill="#1E0F00" d="M534.722,311.244c-1.139,0-2.062,0.878-2.062,1.96v4.699v-0.073
				v4.882c0,1.082,0.923,1.959,2.062,1.959c1.138,0,2.062-0.877,2.062-1.959v-4.882v0.073v-4.699
				C536.784,312.122,535.861,311.244,534.722,311.244z"/>
			<polygon fill-rule="evenodd" clip-rule="evenodd" fill="#1E0F00" points="564.363,311.281 564.365,311.277 560.561,311.279 
				560.56,311.279 560.56,311.279 555.409,324.7 559.091,324.7 560.008,322.366 564.826,322.366 565.691,324.7 569.413,324.7 			"/>
			<polygon fill-rule="evenodd" clip-rule="evenodd" fill="#1E0F00" points="513.368,311.314 513.37,311.308 509.564,311.311 
				504.413,324.732 504.413,324.732 504.413,324.732 508.095,324.732 508.096,324.731 508.095,324.732 509.012,322.398 
				513.83,322.398 514.695,324.732 518.417,324.732 			"/>
			<path fill-rule="evenodd" clip-rule="evenodd" fill="#1E0F00" d="M529.306,317.248h-0.007h-4.519v2.527h2.737
				c-0.095,0.632-0.306,1.109-0.631,1.435c-0.498,0.479-1.169,0.728-2.011,0.728c-0.957,0-1.704-0.307-2.277-0.9
				c-0.766-0.803-1.149-1.819-1.149-3.024c0-0.575,0.115-1.148,0.326-1.685c0.554-1.473,1.568-2.219,3.005-2.219
				c0.708,0,1.303,0.21,1.819,0.613c0.364,0.306,0.67,0.746,0.938,1.321l3.138-1.284c-0.535-1.071-1.167-1.874-1.914-2.43
				c-1.052-0.765-2.316-1.149-3.828-1.149c-2.259,0-4.001,0.728-5.265,2.163c-1.109,1.264-1.664,2.814-1.664,4.671
				c0,1.685,0.478,3.12,1.416,4.327c1.263,1.588,3.043,2.393,5.398,2.393c0.59,0,1.149-0.058,1.676-0.176l0.001-0.001
				c0.752-0.167,1.437-0.453,2.056-0.858c1.091-0.709,1.876-1.742,2.355-3.063c0.307-0.882,0.459-2.01,0.459-3.389L529.306,317.248z
				"/>
		</g>
	</g>
	<g display="none">
		<path display="inline" fill="none" d="M673.749,331h-77.672c-2.015,0-3.664-1.649-3.664-3.664v-30.672
			c0-2.015,1.649-3.664,3.664-3.664h77.672c2.015,0,3.664,1.649,3.664,3.664v30.672C677.413,329.351,675.764,331,673.749,331z"/>
		<g display="inline">
			<path fill="#1E0F00" d="M604.373,307v-5.417h-1.949v-1.249h5.317v1.249h-1.939V307H604.373z"/>
			<path fill="#1E0F00" d="M607.583,304.582c0-1.37,0.96-2.529,2.549-2.529c1.6,0,2.559,1.159,2.559,2.529
				c0,1.379-0.959,2.538-2.559,2.538C608.543,307.12,607.583,305.961,607.583,304.582z M611.371,304.582c0-0.75-0.449-1.4-1.239-1.4
				c-0.789,0-1.229,0.65-1.229,1.4c0,0.759,0.44,1.408,1.229,1.408C610.922,305.99,611.371,305.341,611.371,304.582z"/>
			<path fill="#1E0F00" d="M613.783,308.239l0.57-0.919c0.39,0.43,0.899,0.6,1.509,0.6s1.329-0.271,1.329-1.22v-0.489
				c-0.38,0.479-0.899,0.76-1.489,0.76c-1.209,0-2.129-0.85-2.129-2.459c0-1.58,0.91-2.459,2.129-2.459c0.58,0,1.1,0.25,1.489,0.74
				v-0.62h1.279v4.497c0,1.84-1.419,2.289-2.608,2.289C615.033,308.959,614.394,308.77,613.783,308.239z M617.191,305.291v-1.559
				c-0.21-0.32-0.669-0.551-1.089-0.551c-0.72,0-1.22,0.5-1.22,1.33c0,0.829,0.5,1.329,1.22,1.329
				C616.522,305.841,616.981,305.601,617.191,305.291z"/>
			<path fill="#1E0F00" d="M619.673,304.582c0-1.4,1.03-2.529,2.499-2.529c1.439,0,2.419,1.08,2.419,2.658v0.28h-3.588
				c0.08,0.609,0.569,1.119,1.389,1.119c0.41,0,0.979-0.18,1.289-0.479l0.561,0.819c-0.48,0.44-1.239,0.67-1.989,0.67
				C620.783,307.12,619.673,306.131,619.673,304.582z M622.172,303.062c-0.789,0-1.129,0.59-1.189,1.068h2.379
				C623.331,303.672,623.012,303.062,622.172,303.062z"/>
			<path fill="#1E0F00" d="M626.014,305.801v-2.519h-0.8v-1.109h0.8v-1.319h1.279v1.319h0.979v1.109h-0.979v2.179
				c0,0.3,0.159,0.529,0.439,0.529c0.189,0,0.37-0.07,0.439-0.14l0.271,0.96c-0.19,0.17-0.53,0.31-1.06,0.31
				C626.493,307.12,626.014,306.66,626.014,305.801z"/>
			<path fill="#1E0F00" d="M632.661,307v-2.938c0-0.669-0.35-0.88-0.899-0.88c-0.489,0-0.879,0.28-1.099,0.57V307h-1.27v-6.666h1.27
				v2.469c0.31-0.37,0.909-0.75,1.698-0.75c1.06,0,1.569,0.58,1.569,1.52V307H632.661z"/>
			<path fill="#1E0F00" d="M635.134,304.582c0-1.4,1.029-2.529,2.498-2.529c1.439,0,2.419,1.08,2.419,2.658v0.28h-3.588
				c0.08,0.609,0.569,1.119,1.389,1.119c0.41,0,0.979-0.18,1.289-0.479l0.561,0.819c-0.48,0.44-1.239,0.67-1.989,0.67
				C636.243,307.12,635.134,306.131,635.134,304.582z M637.632,303.062c-0.789,0-1.129,0.59-1.189,1.068h2.379
				C638.791,303.672,638.472,303.062,637.632,303.062z"/>
			<path fill="#1E0F00" d="M641.224,307v-4.827h1.27v0.659c0.34-0.43,0.939-0.779,1.539-0.779v1.239
				c-0.09-0.021-0.21-0.03-0.351-0.03c-0.419,0-0.979,0.24-1.188,0.55V307H641.224z"/>
			<path fill="#1E0F00" d="M652.12,307l-1.02-3.288l-1.02,3.288h-1.359l-1.469-4.827h1.319l0.899,3.248l1.06-3.248h1.129l1.06,3.248
				l0.899-3.248h1.319L653.47,307H652.12z"/>
			<path fill="#1E0F00" d="M655.693,300.894c0-0.42,0.35-0.75,0.76-0.75c0.419,0,0.759,0.33,0.759,0.75
				c0,0.419-0.34,0.759-0.759,0.759C656.043,301.652,655.693,301.312,655.693,300.894z M655.823,307v-4.827h1.27V307H655.823z"/>
			<path fill="#1E0F00" d="M658.853,305.801v-2.519h-0.8v-1.109h0.8v-1.319h1.279v1.319h0.979v1.109h-0.979v2.179
				c0,0.3,0.159,0.529,0.439,0.529c0.189,0,0.37-0.07,0.439-0.14l0.271,0.96c-0.19,0.17-0.53,0.31-1.06,0.31
				C659.332,307.12,658.853,306.66,658.853,305.801z"/>
			<path fill="#1E0F00" d="M665.5,307v-2.938c0-0.669-0.35-0.88-0.899-0.88c-0.489,0-0.879,0.28-1.099,0.57V307h-1.27v-6.666h1.27
				v2.469c0.31-0.37,0.909-0.75,1.698-0.75c1.06,0,1.569,0.58,1.569,1.52V307H665.5z"/>
		</g>
		<g display="inline">
			<polygon fill-rule="evenodd" clip-rule="evenodd" fill="#1E0F00" points="650.743,311.213 647.292,311.213 644.448,318.436 
				641.738,311.29 638.278,311.29 636.004,324.711 639.485,324.711 640.632,316.985 642.829,322.546 643.661,324.723 
				645.049,324.723 648.288,316.907 649.274,324.723 652.755,324.723 			"/>
			<path fill-rule="evenodd" clip-rule="evenodd" fill="#1E0F00" d="M632.722,311.244c-1.139,0-2.062,0.878-2.062,1.96v4.699v-0.073
				v4.882c0,1.082,0.923,1.959,2.062,1.959c1.138,0,2.062-0.877,2.062-1.959v-4.882v0.073v-4.699
				C634.784,312.122,633.861,311.244,632.722,311.244z"/>
			<polygon fill-rule="evenodd" clip-rule="evenodd" fill="#1E0F00" points="662.363,311.281 662.365,311.277 658.561,311.279 
				658.56,311.279 658.56,311.279 653.409,324.7 657.091,324.7 658.008,322.366 662.826,322.366 663.691,324.7 667.413,324.7 			"/>
			<polygon fill-rule="evenodd" clip-rule="evenodd" fill="#1E0F00" points="611.368,311.314 611.37,311.308 607.564,311.311 
				602.413,324.732 602.413,324.732 602.413,324.732 606.095,324.732 606.096,324.731 606.095,324.732 607.012,322.398 
				611.83,322.398 612.695,324.732 616.417,324.732 			"/>
			<path fill-rule="evenodd" clip-rule="evenodd" fill="#1E0F00" d="M627.306,317.248h-0.007h-4.519v2.527h2.737
				c-0.095,0.632-0.306,1.109-0.631,1.435c-0.498,0.479-1.169,0.728-2.011,0.728c-0.957,0-1.704-0.307-2.277-0.9
				c-0.766-0.803-1.149-1.819-1.149-3.024c0-0.575,0.115-1.148,0.326-1.685c0.554-1.473,1.568-2.219,3.005-2.219
				c0.708,0,1.303,0.21,1.819,0.613c0.364,0.306,0.67,0.746,0.938,1.321l3.138-1.284c-0.535-1.071-1.167-1.874-1.914-2.43
				c-1.052-0.765-2.316-1.149-3.828-1.149c-2.259,0-4.001,0.728-5.265,2.163c-1.109,1.264-1.664,2.814-1.664,4.671
				c0,1.685,0.478,3.12,1.416,4.327c1.263,1.588,3.043,2.393,5.398,2.393c0.59,0,1.149-0.058,1.676-0.176l0.001-0.001
				c0.752-0.167,1.437-0.453,2.056-0.858c1.091-0.709,1.876-1.742,2.355-3.063c0.307-0.882,0.459-2.01,0.459-3.389L627.306,317.248z
				"/>
		</g>
	</g>
	<g>
		<path fill="none" stroke="#999999" stroke-miterlimit="10" d="M379.749,332h-77.672c-2.015,0-3.664-1.649-3.664-3.664v-30.672
			c0-2.015,1.649-3.664,3.664-3.664h77.672c2.015,0,3.664,1.649,3.664,3.664v30.672C383.413,330.351,381.764,332,379.749,332z"/>
		<g>
			<path fill="#999999" d="M310.373,308v-5.417h-1.949v-1.249h5.317v1.249h-1.939V308H310.373z"/>
			<path fill="#999999" d="M313.583,305.582c0-1.37,0.96-2.529,2.549-2.529c1.6,0,2.559,1.159,2.559,2.529
				c0,1.379-0.959,2.538-2.559,2.538C314.542,308.12,313.583,306.961,313.583,305.582z M317.371,305.582c0-0.75-0.449-1.4-1.239-1.4
				c-0.789,0-1.229,0.65-1.229,1.4c0,0.759,0.44,1.408,1.229,1.408C316.921,306.99,317.371,306.341,317.371,305.582z"/>
			<path fill="#999999" d="M319.783,309.239l0.57-0.919c0.39,0.43,0.899,0.6,1.509,0.6s1.329-0.271,1.329-1.22v-0.489
				c-0.38,0.479-0.899,0.76-1.489,0.76c-1.209,0-2.129-0.85-2.129-2.459c0-1.58,0.91-2.459,2.129-2.459c0.58,0,1.1,0.25,1.489,0.74
				v-0.62h1.279v4.497c0,1.84-1.419,2.289-2.608,2.289C321.033,309.959,320.393,309.77,319.783,309.239z M323.191,306.291v-1.559
				c-0.21-0.32-0.669-0.551-1.089-0.551c-0.72,0-1.22,0.5-1.22,1.33c0,0.829,0.5,1.329,1.22,1.329
				C322.522,306.841,322.981,306.601,323.191,306.291z"/>
			<path fill="#999999" d="M325.672,305.582c0-1.4,1.03-2.529,2.499-2.529c1.439,0,2.419,1.08,2.419,2.658v0.28h-3.588
				c0.08,0.609,0.569,1.119,1.389,1.119c0.41,0,0.979-0.18,1.289-0.479l0.561,0.819c-0.48,0.44-1.239,0.67-1.989,0.67
				C326.783,308.12,325.672,307.131,325.672,305.582z M328.171,304.062c-0.789,0-1.129,0.59-1.189,1.068h2.379
				C329.331,304.672,329.011,304.062,328.171,304.062z"/>
			<path fill="#999999" d="M332.013,306.801v-2.519h-0.8v-1.109h0.8v-1.319h1.279v1.319h0.979v1.109h-0.979v2.179
				c0,0.3,0.159,0.529,0.439,0.529c0.189,0,0.37-0.07,0.439-0.14l0.271,0.96c-0.19,0.17-0.53,0.31-1.06,0.31
				C332.493,308.12,332.013,307.66,332.013,306.801z"/>
			<path fill="#999999" d="M338.661,308v-2.938c0-0.669-0.35-0.88-0.899-0.88c-0.489,0-0.879,0.28-1.099,0.57V308h-1.27v-6.666h1.27
				v2.469c0.31-0.37,0.909-0.75,1.698-0.75c1.06,0,1.569,0.58,1.569,1.52V308H338.661z"/>
			<path fill="#999999" d="M341.133,305.582c0-1.4,1.029-2.529,2.498-2.529c1.439,0,2.419,1.08,2.419,2.658v0.28h-3.588
				c0.08,0.609,0.569,1.119,1.389,1.119c0.41,0,0.979-0.18,1.289-0.479l0.561,0.819c-0.48,0.44-1.239,0.67-1.989,0.67
				C342.243,308.12,341.133,307.131,341.133,305.582z M343.631,304.062c-0.789,0-1.129,0.59-1.189,1.068h2.379
				C344.791,304.672,344.471,304.062,343.631,304.062z"/>
			<path fill="#999999" d="M347.223,308v-4.827h1.27v0.659c0.34-0.43,0.939-0.779,1.539-0.779v1.239
				c-0.09-0.021-0.21-0.03-0.351-0.03c-0.419,0-0.979,0.24-1.188,0.55V308H347.223z"/>
			<path fill="#999999" d="M358.12,308l-1.02-3.288l-1.02,3.288h-1.359l-1.469-4.827h1.319l0.899,3.248l1.06-3.248h1.129l1.06,3.248
				l0.899-3.248h1.319L359.469,308H358.12z"/>
			<path fill="#999999" d="M361.693,301.894c0-0.42,0.35-0.75,0.76-0.75c0.419,0,0.759,0.33,0.759,0.75
				c0,0.419-0.34,0.759-0.759,0.759C362.042,302.652,361.693,302.312,361.693,301.894z M361.823,308v-4.827h1.27V308H361.823z"/>
			<path fill="#999999" d="M364.852,306.801v-2.519h-0.8v-1.109h0.8v-1.319h1.279v1.319h0.979v1.109h-0.979v2.179
				c0,0.3,0.159,0.529,0.439,0.529c0.189,0,0.37-0.07,0.439-0.14l0.271,0.96c-0.19,0.17-0.53,0.31-1.06,0.31
				C365.332,308.12,364.852,307.66,364.852,306.801z"/>
			<path fill="#999999" d="M371.5,308v-2.938c0-0.669-0.35-0.88-0.899-0.88c-0.489,0-0.879,0.28-1.099,0.57V308h-1.27v-6.666h1.27
				v2.469c0.31-0.37,0.909-0.75,1.698-0.75c1.06,0,1.569,0.58,1.569,1.52V308H371.5z"/>
		</g>
		<g>
			<polygon fill-rule="evenodd" clip-rule="evenodd" fill="#999999" points="356.743,312.213 353.292,312.213 350.448,319.436 
				347.738,312.29 344.278,312.29 342.004,325.711 345.485,325.711 346.632,317.985 348.829,323.546 349.661,325.723 
				351.049,325.723 354.288,317.907 355.274,325.723 358.755,325.723 			"/>
			<path fill-rule="evenodd" clip-rule="evenodd" fill="#999999" d="M338.722,312.244c-1.139,0-2.062,0.878-2.062,1.96v4.699v-0.073
				v4.882c0,1.082,0.923,1.959,2.062,1.959c1.138,0,2.062-0.877,2.062-1.959v-4.882v0.073v-4.699
				C340.784,313.122,339.861,312.244,338.722,312.244z"/>
			<polygon fill-rule="evenodd" clip-rule="evenodd" fill="#999999" points="368.363,312.281 368.365,312.277 364.561,312.279 
				364.56,312.279 364.56,312.279 359.409,325.7 363.091,325.7 364.008,323.366 368.826,323.366 369.691,325.7 373.413,325.7 			"/>
			<polygon fill-rule="evenodd" clip-rule="evenodd" fill="#999999" points="317.368,312.314 317.37,312.308 313.564,312.311 
				308.413,325.732 308.413,325.732 308.413,325.732 312.095,325.732 312.096,325.731 312.095,325.732 313.012,323.398 
				317.83,323.398 318.695,325.732 322.417,325.732 			"/>
			<path fill-rule="evenodd" clip-rule="evenodd" fill="#999999" d="M333.306,318.248h-0.007h-4.519v2.527h2.737
				c-0.095,0.632-0.306,1.109-0.631,1.435c-0.498,0.479-1.169,0.728-2.011,0.728c-0.957,0-1.704-0.307-2.277-0.9
				c-0.766-0.803-1.149-1.819-1.149-3.024c0-0.575,0.115-1.148,0.326-1.685c0.554-1.473,1.568-2.219,3.005-2.219
				c0.708,0,1.302,0.21,1.819,0.613c0.364,0.306,0.67,0.746,0.938,1.321l3.139-1.284c-0.535-1.071-1.167-1.874-1.914-2.43
				c-1.052-0.765-2.316-1.149-3.828-1.149c-2.259,0-4.001,0.728-5.265,2.163c-1.109,1.264-1.664,2.814-1.664,4.671
				c0,1.685,0.478,3.12,1.416,4.327c1.263,1.588,3.043,2.393,5.398,2.393c0.59,0,1.149-0.058,1.676-0.176l0.001-0.001
				c0.752-0.167,1.437-0.453,2.056-0.858c1.091-0.709,1.876-1.742,2.355-3.063c0.307-0.882,0.459-2.01,0.459-3.389L333.306,318.248z
				"/>
		</g>
	</g>
	<g display="none">
		<path display="inline" fill="#FFFFFF" stroke="#999999" stroke-miterlimit="10" d="M477.749,384h-77.672
			c-2.015,0-3.664-1.649-3.664-3.664v-30.672c0-2.015,1.649-3.664,3.664-3.664h77.672c2.015,0,3.664,1.649,3.664,3.664v30.672
			C481.413,382.351,479.764,384,477.749,384z"/>
		<g display="inline">
			<path fill="#AFAFAF" d="M408.373,360v-5.417h-1.949v-1.249h5.317v1.249h-1.939V360H408.373z"/>
			<path fill="#AFAFAF" d="M411.583,357.582c0-1.37,0.96-2.529,2.549-2.529c1.6,0,2.559,1.159,2.559,2.529
				c0,1.379-0.959,2.538-2.559,2.538C412.542,360.12,411.583,358.961,411.583,357.582z M415.371,357.582c0-0.75-0.449-1.4-1.239-1.4
				c-0.789,0-1.229,0.65-1.229,1.4c0,0.759,0.44,1.408,1.229,1.408C414.921,358.99,415.371,358.341,415.371,357.582z"/>
			<path fill="#AFAFAF" d="M417.783,361.239l0.57-0.919c0.39,0.43,0.899,0.6,1.509,0.6s1.329-0.271,1.329-1.22v-0.489
				c-0.38,0.479-0.899,0.76-1.489,0.76c-1.209,0-2.129-0.85-2.129-2.459c0-1.58,0.91-2.459,2.129-2.459c0.58,0,1.1,0.25,1.489,0.74
				v-0.62h1.279v4.497c0,1.84-1.419,2.289-2.608,2.289C419.033,361.959,418.393,361.77,417.783,361.239z M421.191,358.291v-1.559
				c-0.21-0.32-0.669-0.551-1.089-0.551c-0.72,0-1.22,0.5-1.22,1.33c0,0.829,0.5,1.329,1.22,1.329
				C420.522,358.841,420.981,358.601,421.191,358.291z"/>
			<path fill="#AFAFAF" d="M423.672,357.582c0-1.4,1.03-2.529,2.499-2.529c1.439,0,2.419,1.08,2.419,2.658v0.28h-3.588
				c0.08,0.609,0.569,1.119,1.389,1.119c0.41,0,0.979-0.18,1.289-0.479l0.561,0.819c-0.48,0.44-1.239,0.67-1.989,0.67
				C424.783,360.12,423.672,359.131,423.672,357.582z M426.171,356.062c-0.789,0-1.129,0.59-1.189,1.068h2.379
				C427.331,356.672,427.011,356.062,426.171,356.062z"/>
			<path fill="#AFAFAF" d="M430.013,358.801v-2.519h-0.8v-1.109h0.8v-1.319h1.279v1.319h0.979v1.109h-0.979v2.179
				c0,0.3,0.159,0.529,0.439,0.529c0.189,0,0.37-0.07,0.439-0.14l0.271,0.96c-0.19,0.17-0.53,0.31-1.06,0.31
				C430.493,360.12,430.013,359.66,430.013,358.801z"/>
			<path fill="#AFAFAF" d="M436.661,360v-2.938c0-0.669-0.35-0.88-0.899-0.88c-0.489,0-0.879,0.28-1.099,0.57V360h-1.27v-6.666h1.27
				v2.469c0.31-0.37,0.909-0.75,1.698-0.75c1.06,0,1.569,0.58,1.569,1.52V360H436.661z"/>
			<path fill="#AFAFAF" d="M439.133,357.582c0-1.4,1.029-2.529,2.498-2.529c1.439,0,2.419,1.08,2.419,2.658v0.28h-3.588
				c0.08,0.609,0.569,1.119,1.389,1.119c0.41,0,0.979-0.18,1.289-0.479l0.561,0.819c-0.48,0.44-1.239,0.67-1.989,0.67
				C440.243,360.12,439.133,359.131,439.133,357.582z M441.631,356.062c-0.789,0-1.129,0.59-1.189,1.068h2.379
				C442.791,356.672,442.471,356.062,441.631,356.062z"/>
			<path fill="#AFAFAF" d="M445.223,360v-4.827h1.27v0.659c0.34-0.43,0.939-0.779,1.539-0.779v1.239
				c-0.09-0.021-0.21-0.03-0.351-0.03c-0.419,0-0.979,0.24-1.188,0.55V360H445.223z"/>
			<path fill="#AFAFAF" d="M456.12,360l-1.02-3.288l-1.02,3.288h-1.359l-1.469-4.827h1.319l0.899,3.248l1.06-3.248h1.129l1.06,3.248
				l0.899-3.248h1.319L457.469,360H456.12z"/>
			<path fill="#AFAFAF" d="M459.693,353.894c0-0.42,0.35-0.75,0.76-0.75c0.419,0,0.759,0.33,0.759,0.75
				c0,0.419-0.34,0.759-0.759,0.759C460.042,354.652,459.693,354.312,459.693,353.894z M459.823,360v-4.827h1.27V360H459.823z"/>
			<path fill="#AFAFAF" d="M462.852,358.801v-2.519h-0.8v-1.109h0.8v-1.319h1.279v1.319h0.979v1.109h-0.979v2.179
				c0,0.3,0.159,0.529,0.439,0.529c0.189,0,0.37-0.07,0.439-0.14l0.271,0.96c-0.19,0.17-0.53,0.31-1.06,0.31
				C463.332,360.12,462.852,359.66,462.852,358.801z"/>
			<path fill="#AFAFAF" d="M469.5,360v-2.938c0-0.669-0.35-0.88-0.899-0.88c-0.489,0-0.879,0.28-1.099,0.57V360h-1.27v-6.666h1.27
				v2.469c0.31-0.37,0.909-0.75,1.698-0.75c1.06,0,1.569,0.58,1.569,1.52V360H469.5z"/>
		</g>
		<g display="inline">
			<polygon fill-rule="evenodd" clip-rule="evenodd" fill="#01AC6A" points="454.743,364.213 451.292,364.213 448.448,371.436 
				445.738,364.29 442.278,364.29 440.004,377.711 443.485,377.711 444.632,369.985 446.829,375.546 447.661,377.723 
				449.049,377.723 452.288,369.907 453.274,377.723 456.755,377.723 			"/>
			<path fill-rule="evenodd" clip-rule="evenodd" fill="#01AC6A" d="M436.722,364.244c-1.139,0-2.062,0.878-2.062,1.96v4.699v-0.073
				v4.882c0,1.082,0.923,1.959,2.062,1.959c1.138,0,2.062-0.877,2.062-1.959v-4.882v0.073v-4.699
				C438.784,365.122,437.861,364.244,436.722,364.244z"/>
			<polygon fill-rule="evenodd" clip-rule="evenodd" fill="#01AC6A" points="466.363,364.281 466.365,364.277 462.561,364.279 
				462.56,364.279 462.56,364.279 457.409,377.7 461.091,377.7 462.008,375.366 466.826,375.366 467.691,377.7 471.413,377.7 			"/>
			<polygon fill-rule="evenodd" clip-rule="evenodd" fill="#01AC6A" points="415.368,364.314 415.37,364.308 411.564,364.311 
				406.413,377.732 406.413,377.732 406.413,377.732 410.095,377.732 410.096,377.731 410.095,377.732 411.012,375.398 
				415.83,375.398 416.695,377.732 420.417,377.732 			"/>
			<path fill-rule="evenodd" clip-rule="evenodd" fill="#01AC6A" d="M431.306,370.248h-0.007h-4.519v2.527h2.737
				c-0.095,0.632-0.306,1.109-0.631,1.435c-0.498,0.479-1.169,0.728-2.011,0.728c-0.957,0-1.704-0.307-2.277-0.9
				c-0.766-0.803-1.149-1.819-1.149-3.024c0-0.575,0.115-1.148,0.326-1.685c0.554-1.473,1.568-2.219,3.005-2.219
				c0.708,0,1.302,0.21,1.819,0.613c0.364,0.306,0.67,0.746,0.938,1.321l3.139-1.284c-0.535-1.071-1.167-1.874-1.914-2.43
				c-1.052-0.765-2.316-1.149-3.828-1.149c-2.259,0-4.001,0.728-5.265,2.163c-1.109,1.264-1.664,2.814-1.664,4.671
				c0,1.685,0.478,3.12,1.416,4.327c1.263,1.588,3.043,2.393,5.398,2.393c0.59,0,1.149-0.058,1.676-0.176l0.001-0.001
				c0.752-0.167,1.437-0.453,2.056-0.858c1.091-0.709,1.876-1.742,2.355-3.063c0.307-0.882,0.459-2.01,0.459-3.389L431.306,370.248z
				"/>
		</g>
	</g>
	<g display="none">
		<path display="inline" fill="#FFFFFF" stroke="#999999" stroke-miterlimit="10" d="M575.749,383h-77.672
			c-2.015,0-3.664-1.649-3.664-3.664v-30.672c0-2.015,1.649-3.664,3.664-3.664h77.672c2.015,0,3.664,1.649,3.664,3.664v30.672
			C579.413,381.351,577.764,383,575.749,383z"/>
		<g display="inline">
			<path fill="#1E0F00" d="M506.373,359v-5.417h-1.949v-1.249h5.317v1.249h-1.939V359H506.373z"/>
			<path fill="#1E0F00" d="M509.583,356.582c0-1.37,0.96-2.529,2.549-2.529c1.6,0,2.559,1.159,2.559,2.529
				c0,1.379-0.959,2.538-2.559,2.538C510.543,359.12,509.583,357.961,509.583,356.582z M513.371,356.582c0-0.75-0.449-1.4-1.239-1.4
				c-0.789,0-1.229,0.65-1.229,1.4c0,0.759,0.44,1.408,1.229,1.408C512.922,357.99,513.371,357.341,513.371,356.582z"/>
			<path fill="#1E0F00" d="M515.783,360.239l0.57-0.919c0.39,0.43,0.899,0.6,1.509,0.6s1.329-0.271,1.329-1.22v-0.489
				c-0.38,0.479-0.899,0.76-1.489,0.76c-1.209,0-2.129-0.85-2.129-2.459c0-1.58,0.91-2.459,2.129-2.459c0.58,0,1.1,0.25,1.489,0.74
				v-0.62h1.279v4.497c0,1.84-1.419,2.289-2.608,2.289C517.033,360.959,516.394,360.77,515.783,360.239z M519.191,357.291v-1.559
				c-0.21-0.32-0.669-0.551-1.089-0.551c-0.72,0-1.22,0.5-1.22,1.33c0,0.829,0.5,1.329,1.22,1.329
				C518.522,357.841,518.981,357.601,519.191,357.291z"/>
			<path fill="#1E0F00" d="M521.673,356.582c0-1.4,1.03-2.529,2.499-2.529c1.439,0,2.419,1.08,2.419,2.658v0.28h-3.588
				c0.08,0.609,0.569,1.119,1.389,1.119c0.41,0,0.979-0.18,1.289-0.479l0.561,0.819c-0.48,0.44-1.239,0.67-1.989,0.67
				C522.783,359.12,521.673,358.131,521.673,356.582z M524.172,355.062c-0.789,0-1.129,0.59-1.189,1.068h2.379
				C525.331,355.672,525.012,355.062,524.172,355.062z"/>
			<path fill="#1E0F00" d="M528.014,357.801v-2.519h-0.8v-1.109h0.8v-1.319h1.279v1.319h0.979v1.109h-0.979v2.179
				c0,0.3,0.159,0.529,0.439,0.529c0.189,0,0.37-0.07,0.439-0.14l0.271,0.96c-0.19,0.17-0.53,0.31-1.06,0.31
				C528.493,359.12,528.014,358.66,528.014,357.801z"/>
			<path fill="#1E0F00" d="M534.661,359v-2.938c0-0.669-0.35-0.88-0.899-0.88c-0.489,0-0.879,0.28-1.099,0.57V359h-1.27v-6.666h1.27
				v2.469c0.31-0.37,0.909-0.75,1.698-0.75c1.06,0,1.569,0.58,1.569,1.52V359H534.661z"/>
			<path fill="#1E0F00" d="M537.134,356.582c0-1.4,1.029-2.529,2.498-2.529c1.439,0,2.419,1.08,2.419,2.658v0.28h-3.588
				c0.08,0.609,0.569,1.119,1.389,1.119c0.41,0,0.979-0.18,1.289-0.479l0.561,0.819c-0.48,0.44-1.239,0.67-1.989,0.67
				C538.243,359.12,537.134,358.131,537.134,356.582z M539.632,355.062c-0.789,0-1.129,0.59-1.189,1.068h2.379
				C540.791,355.672,540.472,355.062,539.632,355.062z"/>
			<path fill="#1E0F00" d="M543.224,359v-4.827h1.27v0.659c0.34-0.43,0.939-0.779,1.539-0.779v1.239
				c-0.09-0.021-0.21-0.03-0.351-0.03c-0.419,0-0.979,0.24-1.188,0.55V359H543.224z"/>
			<path fill="#1E0F00" d="M554.12,359l-1.02-3.288l-1.02,3.288h-1.359l-1.469-4.827h1.319l0.899,3.248l1.06-3.248h1.129l1.06,3.248
				l0.899-3.248h1.319L555.47,359H554.12z"/>
			<path fill="#1E0F00" d="M557.693,352.894c0-0.42,0.35-0.75,0.76-0.75c0.419,0,0.759,0.33,0.759,0.75
				c0,0.419-0.34,0.759-0.759,0.759C558.043,353.652,557.693,353.312,557.693,352.894z M557.823,359v-4.827h1.27V359H557.823z"/>
			<path fill="#1E0F00" d="M560.853,357.801v-2.519h-0.8v-1.109h0.8v-1.319h1.279v1.319h0.979v1.109h-0.979v2.179
				c0,0.3,0.159,0.529,0.439,0.529c0.189,0,0.37-0.07,0.439-0.14l0.271,0.96c-0.19,0.17-0.53,0.31-1.06,0.31
				C561.332,359.12,560.853,358.66,560.853,357.801z"/>
			<path fill="#1E0F00" d="M567.5,359v-2.938c0-0.669-0.35-0.88-0.899-0.88c-0.489,0-0.879,0.28-1.099,0.57V359h-1.27v-6.666h1.27
				v2.469c0.31-0.37,0.909-0.75,1.698-0.75c1.06,0,1.569,0.58,1.569,1.52V359H567.5z"/>
		</g>
		<g display="inline">
			<polygon fill-rule="evenodd" clip-rule="evenodd" fill="#1E0F00" points="552.743,363.213 549.292,363.213 546.448,370.436 
				543.738,363.29 540.278,363.29 538.004,376.711 541.485,376.711 542.632,368.985 544.829,374.546 545.661,376.723 
				547.049,376.723 550.288,368.907 551.274,376.723 554.755,376.723 			"/>
			<path fill-rule="evenodd" clip-rule="evenodd" fill="#1E0F00" d="M534.722,363.244c-1.139,0-2.062,0.878-2.062,1.96v4.699v-0.073
				v4.882c0,1.082,0.923,1.959,2.062,1.959c1.138,0,2.062-0.877,2.062-1.959v-4.882v0.073v-4.699
				C536.784,364.122,535.861,363.244,534.722,363.244z"/>
			<polygon fill-rule="evenodd" clip-rule="evenodd" fill="#1E0F00" points="564.363,363.281 564.365,363.277 560.561,363.279 
				560.56,363.279 560.56,363.279 555.409,376.7 559.091,376.7 560.008,374.366 564.826,374.366 565.691,376.7 569.413,376.7 			"/>
			<polygon fill-rule="evenodd" clip-rule="evenodd" fill="#1E0F00" points="513.368,363.314 513.37,363.308 509.564,363.311 
				504.413,376.732 504.413,376.732 504.413,376.732 508.095,376.732 508.096,376.731 508.095,376.732 509.012,374.398 
				513.83,374.398 514.695,376.732 518.417,376.732 			"/>
			<path fill-rule="evenodd" clip-rule="evenodd" fill="#1E0F00" d="M529.306,369.248h-0.007h-4.519v2.527h2.737
				c-0.095,0.632-0.306,1.109-0.631,1.435c-0.498,0.479-1.169,0.728-2.011,0.728c-0.957,0-1.704-0.307-2.277-0.9
				c-0.766-0.803-1.149-1.819-1.149-3.024c0-0.575,0.115-1.148,0.326-1.685c0.554-1.473,1.568-2.219,3.005-2.219
				c0.708,0,1.303,0.21,1.819,0.613c0.364,0.306,0.67,0.746,0.938,1.321l3.138-1.284c-0.535-1.071-1.167-1.874-1.914-2.43
				c-1.052-0.765-2.316-1.149-3.828-1.149c-2.259,0-4.001,0.728-5.265,2.163c-1.109,1.264-1.664,2.814-1.664,4.671
				c0,1.685,0.478,3.12,1.416,4.327c1.263,1.588,3.043,2.393,5.398,2.393c0.59,0,1.149-0.058,1.676-0.176l0.001-0.001
				c0.752-0.167,1.437-0.453,2.056-0.858c1.091-0.709,1.876-1.742,2.355-3.063c0.307-0.882,0.459-2.01,0.459-3.389L529.306,369.248z
				"/>
		</g>
	</g>
	<g display="none">
		<path display="inline" fill="#FFFFFF" d="M673.749,383h-77.672c-2.015,0-3.664-1.649-3.664-3.664v-30.672
			c0-2.015,1.649-3.664,3.664-3.664h77.672c2.015,0,3.664,1.649,3.664,3.664v30.672C677.413,381.351,675.764,383,673.749,383z"/>
		<g display="inline">
			<path fill="#1E0F00" d="M604.373,359v-5.417h-1.949v-1.249h5.317v1.249h-1.939V359H604.373z"/>
			<path fill="#1E0F00" d="M607.583,356.582c0-1.37,0.96-2.529,2.549-2.529c1.6,0,2.559,1.159,2.559,2.529
				c0,1.379-0.959,2.538-2.559,2.538C608.543,359.12,607.583,357.961,607.583,356.582z M611.371,356.582c0-0.75-0.449-1.4-1.239-1.4
				c-0.789,0-1.229,0.65-1.229,1.4c0,0.759,0.44,1.408,1.229,1.408C610.922,357.99,611.371,357.341,611.371,356.582z"/>
			<path fill="#1E0F00" d="M613.783,360.239l0.57-0.919c0.39,0.43,0.899,0.6,1.509,0.6s1.329-0.271,1.329-1.22v-0.489
				c-0.38,0.479-0.899,0.76-1.489,0.76c-1.209,0-2.129-0.85-2.129-2.459c0-1.58,0.91-2.459,2.129-2.459c0.58,0,1.1,0.25,1.489,0.74
				v-0.62h1.279v4.497c0,1.84-1.419,2.289-2.608,2.289C615.033,360.959,614.394,360.77,613.783,360.239z M617.191,357.291v-1.559
				c-0.21-0.32-0.669-0.551-1.089-0.551c-0.72,0-1.22,0.5-1.22,1.33c0,0.829,0.5,1.329,1.22,1.329
				C616.522,357.841,616.981,357.601,617.191,357.291z"/>
			<path fill="#1E0F00" d="M619.673,356.582c0-1.4,1.03-2.529,2.499-2.529c1.439,0,2.419,1.08,2.419,2.658v0.28h-3.588
				c0.08,0.609,0.569,1.119,1.389,1.119c0.41,0,0.979-0.18,1.289-0.479l0.561,0.819c-0.48,0.44-1.239,0.67-1.989,0.67
				C620.783,359.12,619.673,358.131,619.673,356.582z M622.172,355.062c-0.789,0-1.129,0.59-1.189,1.068h2.379
				C623.331,355.672,623.012,355.062,622.172,355.062z"/>
			<path fill="#1E0F00" d="M626.014,357.801v-2.519h-0.8v-1.109h0.8v-1.319h1.279v1.319h0.979v1.109h-0.979v2.179
				c0,0.3,0.159,0.529,0.439,0.529c0.189,0,0.37-0.07,0.439-0.14l0.271,0.96c-0.19,0.17-0.53,0.31-1.06,0.31
				C626.493,359.12,626.014,358.66,626.014,357.801z"/>
			<path fill="#1E0F00" d="M632.661,359v-2.938c0-0.669-0.35-0.88-0.899-0.88c-0.489,0-0.879,0.28-1.099,0.57V359h-1.27v-6.666h1.27
				v2.469c0.31-0.37,0.909-0.75,1.698-0.75c1.06,0,1.569,0.58,1.569,1.52V359H632.661z"/>
			<path fill="#1E0F00" d="M635.134,356.582c0-1.4,1.029-2.529,2.498-2.529c1.439,0,2.419,1.08,2.419,2.658v0.28h-3.588
				c0.08,0.609,0.569,1.119,1.389,1.119c0.41,0,0.979-0.18,1.289-0.479l0.561,0.819c-0.48,0.44-1.239,0.67-1.989,0.67
				C636.243,359.12,635.134,358.131,635.134,356.582z M637.632,355.062c-0.789,0-1.129,0.59-1.189,1.068h2.379
				C638.791,355.672,638.472,355.062,637.632,355.062z"/>
			<path fill="#1E0F00" d="M641.224,359v-4.827h1.27v0.659c0.34-0.43,0.939-0.779,1.539-0.779v1.239
				c-0.09-0.021-0.21-0.03-0.351-0.03c-0.419,0-0.979,0.24-1.188,0.55V359H641.224z"/>
			<path fill="#1E0F00" d="M652.12,359l-1.02-3.288l-1.02,3.288h-1.359l-1.469-4.827h1.319l0.899,3.248l1.06-3.248h1.129l1.06,3.248
				l0.899-3.248h1.319L653.47,359H652.12z"/>
			<path fill="#1E0F00" d="M655.693,352.894c0-0.42,0.35-0.75,0.76-0.75c0.419,0,0.759,0.33,0.759,0.75
				c0,0.419-0.34,0.759-0.759,0.759C656.043,353.652,655.693,353.312,655.693,352.894z M655.823,359v-4.827h1.27V359H655.823z"/>
			<path fill="#1E0F00" d="M658.853,357.801v-2.519h-0.8v-1.109h0.8v-1.319h1.279v1.319h0.979v1.109h-0.979v2.179
				c0,0.3,0.159,0.529,0.439,0.529c0.189,0,0.37-0.07,0.439-0.14l0.271,0.96c-0.19,0.17-0.53,0.31-1.06,0.31
				C659.332,359.12,658.853,358.66,658.853,357.801z"/>
			<path fill="#1E0F00" d="M665.5,359v-2.938c0-0.669-0.35-0.88-0.899-0.88c-0.489,0-0.879,0.28-1.099,0.57V359h-1.27v-6.666h1.27
				v2.469c0.31-0.37,0.909-0.75,1.698-0.75c1.06,0,1.569,0.58,1.569,1.52V359H665.5z"/>
		</g>
		<g display="inline">
			<polygon fill-rule="evenodd" clip-rule="evenodd" fill="#1E0F00" points="650.743,363.213 647.292,363.213 644.448,370.436 
				641.738,363.29 638.278,363.29 636.004,376.711 639.485,376.711 640.632,368.985 642.829,374.546 643.661,376.723 
				645.049,376.723 648.288,368.907 649.274,376.723 652.755,376.723 			"/>
			<path fill-rule="evenodd" clip-rule="evenodd" fill="#1E0F00" d="M632.722,363.244c-1.139,0-2.062,0.878-2.062,1.96v4.699v-0.073
				v4.882c0,1.082,0.923,1.959,2.062,1.959c1.138,0,2.062-0.877,2.062-1.959v-4.882v0.073v-4.699
				C634.784,364.122,633.861,363.244,632.722,363.244z"/>
			<polygon fill-rule="evenodd" clip-rule="evenodd" fill="#1E0F00" points="662.363,363.281 662.365,363.277 658.561,363.279 
				658.56,363.279 658.56,363.279 653.409,376.7 657.091,376.7 658.008,374.366 662.826,374.366 663.691,376.7 667.413,376.7 			"/>
			<polygon fill-rule="evenodd" clip-rule="evenodd" fill="#1E0F00" points="611.368,363.314 611.37,363.308 607.564,363.311 
				602.413,376.732 602.413,376.732 602.413,376.732 606.095,376.732 606.096,376.731 606.095,376.732 607.012,374.398 
				611.83,374.398 612.695,376.732 616.417,376.732 			"/>
			<path fill-rule="evenodd" clip-rule="evenodd" fill="#1E0F00" d="M627.306,369.248h-0.007h-4.519v2.527h2.737
				c-0.095,0.632-0.306,1.109-0.631,1.435c-0.498,0.479-1.169,0.728-2.011,0.728c-0.957,0-1.704-0.307-2.277-0.9
				c-0.766-0.803-1.149-1.819-1.149-3.024c0-0.575,0.115-1.148,0.326-1.685c0.554-1.473,1.568-2.219,3.005-2.219
				c0.708,0,1.303,0.21,1.819,0.613c0.364,0.306,0.67,0.746,0.938,1.321l3.138-1.284c-0.535-1.071-1.167-1.874-1.914-2.43
				c-1.052-0.765-2.316-1.149-3.828-1.149c-2.259,0-4.001,0.728-5.265,2.163c-1.109,1.264-1.664,2.814-1.664,4.671
				c0,1.685,0.478,3.12,1.416,4.327c1.263,1.588,3.043,2.393,5.398,2.393c0.59,0,1.149-0.058,1.676-0.176l0.001-0.001
				c0.752-0.167,1.437-0.453,2.056-0.858c1.091-0.709,1.876-1.742,2.355-3.063c0.307-0.882,0.459-2.01,0.459-3.389L627.306,369.248z
				"/>
		</g>
	</g>
	<g display="none">
		<path display="inline" fill="#FFFFFF" stroke="#999999" stroke-miterlimit="10" d="M379.749,384h-77.672
			c-2.015,0-3.664-1.649-3.664-3.664v-30.672c0-2.015,1.649-3.664,3.664-3.664h77.672c2.015,0,3.664,1.649,3.664,3.664v30.672
			C383.413,382.351,381.764,384,379.749,384z"/>
		<g display="inline">
			<path fill="#999999" d="M310.373,360v-5.417h-1.949v-1.249h5.317v1.249h-1.939V360H310.373z"/>
			<path fill="#999999" d="M313.583,357.582c0-1.37,0.96-2.529,2.549-2.529c1.6,0,2.559,1.159,2.559,2.529
				c0,1.379-0.959,2.538-2.559,2.538C314.542,360.12,313.583,358.961,313.583,357.582z M317.371,357.582c0-0.75-0.449-1.4-1.239-1.4
				c-0.789,0-1.229,0.65-1.229,1.4c0,0.759,0.44,1.408,1.229,1.408C316.921,358.99,317.371,358.341,317.371,357.582z"/>
			<path fill="#999999" d="M319.783,361.239l0.57-0.919c0.39,0.43,0.899,0.6,1.509,0.6s1.329-0.271,1.329-1.22v-0.489
				c-0.38,0.479-0.899,0.76-1.489,0.76c-1.209,0-2.129-0.85-2.129-2.459c0-1.58,0.91-2.459,2.129-2.459c0.58,0,1.1,0.25,1.489,0.74
				v-0.62h1.279v4.497c0,1.84-1.419,2.289-2.608,2.289C321.033,361.959,320.393,361.77,319.783,361.239z M323.191,358.291v-1.559
				c-0.21-0.32-0.669-0.551-1.089-0.551c-0.72,0-1.22,0.5-1.22,1.33c0,0.829,0.5,1.329,1.22,1.329
				C322.522,358.841,322.981,358.601,323.191,358.291z"/>
			<path fill="#999999" d="M325.672,357.582c0-1.4,1.03-2.529,2.499-2.529c1.439,0,2.419,1.08,2.419,2.658v0.28h-3.588
				c0.08,0.609,0.569,1.119,1.389,1.119c0.41,0,0.979-0.18,1.289-0.479l0.561,0.819c-0.48,0.44-1.239,0.67-1.989,0.67
				C326.783,360.12,325.672,359.131,325.672,357.582z M328.171,356.062c-0.789,0-1.129,0.59-1.189,1.068h2.379
				C329.331,356.672,329.011,356.062,328.171,356.062z"/>
			<path fill="#999999" d="M332.013,358.801v-2.519h-0.8v-1.109h0.8v-1.319h1.279v1.319h0.979v1.109h-0.979v2.179
				c0,0.3,0.159,0.529,0.439,0.529c0.189,0,0.37-0.07,0.439-0.14l0.271,0.96c-0.19,0.17-0.53,0.31-1.06,0.31
				C332.493,360.12,332.013,359.66,332.013,358.801z"/>
			<path fill="#999999" d="M338.661,360v-2.938c0-0.669-0.35-0.88-0.899-0.88c-0.489,0-0.879,0.28-1.099,0.57V360h-1.27v-6.666h1.27
				v2.469c0.31-0.37,0.909-0.75,1.698-0.75c1.06,0,1.569,0.58,1.569,1.52V360H338.661z"/>
			<path fill="#999999" d="M341.133,357.582c0-1.4,1.029-2.529,2.498-2.529c1.439,0,2.419,1.08,2.419,2.658v0.28h-3.588
				c0.08,0.609,0.569,1.119,1.389,1.119c0.41,0,0.979-0.18,1.289-0.479l0.561,0.819c-0.48,0.44-1.239,0.67-1.989,0.67
				C342.243,360.12,341.133,359.131,341.133,357.582z M343.631,356.062c-0.789,0-1.129,0.59-1.189,1.068h2.379
				C344.791,356.672,344.471,356.062,343.631,356.062z"/>
			<path fill="#999999" d="M347.223,360v-4.827h1.27v0.659c0.34-0.43,0.939-0.779,1.539-0.779v1.239
				c-0.09-0.021-0.21-0.03-0.351-0.03c-0.419,0-0.979,0.24-1.188,0.55V360H347.223z"/>
			<path fill="#999999" d="M358.12,360l-1.02-3.288l-1.02,3.288h-1.359l-1.469-4.827h1.319l0.899,3.248l1.06-3.248h1.129l1.06,3.248
				l0.899-3.248h1.319L359.469,360H358.12z"/>
			<path fill="#999999" d="M361.693,353.894c0-0.42,0.35-0.75,0.76-0.75c0.419,0,0.759,0.33,0.759,0.75
				c0,0.419-0.34,0.759-0.759,0.759C362.042,354.652,361.693,354.312,361.693,353.894z M361.823,360v-4.827h1.27V360H361.823z"/>
			<path fill="#999999" d="M364.852,358.801v-2.519h-0.8v-1.109h0.8v-1.319h1.279v1.319h0.979v1.109h-0.979v2.179
				c0,0.3,0.159,0.529,0.439,0.529c0.189,0,0.37-0.07,0.439-0.14l0.271,0.96c-0.19,0.17-0.53,0.31-1.06,0.31
				C365.332,360.12,364.852,359.66,364.852,358.801z"/>
			<path fill="#999999" d="M371.5,360v-2.938c0-0.669-0.35-0.88-0.899-0.88c-0.489,0-0.879,0.28-1.099,0.57V360h-1.27v-6.666h1.27
				v2.469c0.31-0.37,0.909-0.75,1.698-0.75c1.06,0,1.569,0.58,1.569,1.52V360H371.5z"/>
		</g>
		<g display="inline">
			<polygon fill-rule="evenodd" clip-rule="evenodd" fill="#999999" points="356.743,364.213 353.292,364.213 350.448,371.436 
				347.738,364.29 344.278,364.29 342.004,377.711 345.485,377.711 346.632,369.985 348.829,375.546 349.661,377.723 
				351.049,377.723 354.288,369.907 355.274,377.723 358.755,377.723 			"/>
			<path fill-rule="evenodd" clip-rule="evenodd" fill="#999999" d="M338.722,364.244c-1.139,0-2.062,0.878-2.062,1.96v4.699v-0.073
				v4.882c0,1.082,0.923,1.959,2.062,1.959c1.138,0,2.062-0.877,2.062-1.959v-4.882v0.073v-4.699
				C340.784,365.122,339.861,364.244,338.722,364.244z"/>
			<polygon fill-rule="evenodd" clip-rule="evenodd" fill="#999999" points="368.363,364.281 368.365,364.277 364.561,364.279 
				364.56,364.279 364.56,364.279 359.409,377.7 363.091,377.7 364.008,375.366 368.826,375.366 369.691,377.7 373.413,377.7 			"/>
			<polygon fill-rule="evenodd" clip-rule="evenodd" fill="#999999" points="317.368,364.314 317.37,364.308 313.564,364.311 
				308.413,377.732 308.413,377.732 308.413,377.732 312.095,377.732 312.096,377.731 312.095,377.732 313.012,375.398 
				317.83,375.398 318.695,377.732 322.417,377.732 			"/>
			<path fill-rule="evenodd" clip-rule="evenodd" fill="#999999" d="M333.306,370.248h-0.007h-4.519v2.527h2.737
				c-0.095,0.632-0.306,1.109-0.631,1.435c-0.498,0.479-1.169,0.728-2.011,0.728c-0.957,0-1.704-0.307-2.277-0.9
				c-0.766-0.803-1.149-1.819-1.149-3.024c0-0.575,0.115-1.148,0.326-1.685c0.554-1.473,1.568-2.219,3.005-2.219
				c0.708,0,1.302,0.21,1.819,0.613c0.364,0.306,0.67,0.746,0.938,1.321l3.139-1.284c-0.535-1.071-1.167-1.874-1.914-2.43
				c-1.052-0.765-2.316-1.149-3.828-1.149c-2.259,0-4.001,0.728-5.265,2.163c-1.109,1.264-1.664,2.814-1.664,4.671
				c0,1.685,0.478,3.12,1.416,4.327c1.263,1.588,3.043,2.393,5.398,2.393c0.59,0,1.149-0.058,1.676-0.176l0.001-0.001
				c0.752-0.167,1.437-0.453,2.056-0.858c1.091-0.709,1.876-1.742,2.355-3.063c0.307-0.882,0.459-2.01,0.459-3.389L333.306,370.248z
				"/>
		</g>
	</g>
</g>
</svg>
