<svg xmlns="http://www.w3.org/2000/svg" viewBox="0 0 142 2" width="142" height="2">
  <metadata><?xpacket begin="﻿" id="W5M0MpCehiHzreSzNTczkc9d"?>
<x:xmpmeta xmlns:x="adobe:ns:meta/" x:xmptk="Adobe XMP Core 5.6-c138 79.159824, 2016/09/14-01:09:01        ">
   <rdf:RDF xmlns:rdf="http://www.w3.org/1999/02/22-rdf-syntax-ns#">
      <rdf:Description rdf:about=""/>
   </rdf:RDF>
</x:xmpmeta>
                                                                                                    
                                                                                                    
                                                                                                    
                                                                                                    
                                                                                                    
                                                                                                    
                                                                                                    
                                                                                                    
                                                                                                    
                                                                                                    
                                                                                                    
                                                                                                    
                                                                                                    
                                                                                                    
                                                                                                    
                                                                                                    
                                                                                                    
                                                                                                    
                                                                                                    
                                                                                                    
                           
<?xpacket end="w"?></metadata>
<defs>
    <style>
      .cls-1 {
        fill: #16d488;
        fill-rule: evenodd;
      }
    </style>
  </defs>
  <path id="Rectangle_580_copy_16" data-name="Rectangle 580 copy 16" class="cls-1" d="M331,1070h2v2h-2v-2Zm10,0h2v2h-2v-2Zm10,0h2v2h-2v-2Zm10,0h2v2h-2v-2Zm10,0h2v2h-2v-2Zm10,0h2v2h-2v-2Zm10,0h2v2h-2v-2Zm10,0h2v2h-2v-2Zm10,0h2v2h-2v-2Zm10,0h2v2h-2v-2Zm-85,0h2v2h-2v-2Zm10,0h2v2h-2v-2Zm10,0h2v2h-2v-2Zm10,0h2v2h-2v-2Zm10,0h2v2h-2v-2Zm10,0h2v2h-2v-2Zm10,0h2v2h-2v-2Zm10,0h2v2h-2v-2Zm10,0h2v2h-2v-2Zm-135,0h2v2h-2v-2Zm10,0h2v2h-2v-2Zm10,0h2v2h-2v-2Zm10,0h2v2h-2v-2Zm10,0h2v2h-2v-2Zm-35,0h2v2h-2v-2Zm10,0h2v2h-2v-2Zm10,0h2v2h-2v-2Zm10,0h2v2h-2v-2Zm10,0h2v2h-2v-2Z" transform="translate(-281 -1070)"/>
</svg>
