<?xml version="1.0" encoding="utf-8"?>
<!-- Generator: Adobe Illustrator 17.0.0, SVG Export Plug-In . SVG Version: 6.00 Build 0)  -->
<!DOCTYPE svg PUBLIC "-//W3C//DTD SVG 1.1//EN" "http://www.w3.org/Graphics/SVG/1.1/DTD/svg11.dtd">
<svg version="1.1" id="Слой_1" xmlns="http://www.w3.org/2000/svg" xmlns:xlink="http://www.w3.org/1999/xlink" x="0px" y="0px"
	 width="500px" height="500px" viewBox="0 0 500 500" enable-background="new 0 0 500 500" xml:space="preserve">
<g>
	<path fill="none" d="M320.224,27.728"/>
	<g>
		<g>
			<g>
				<path fill="#FFFFFF" d="M367.491,340.357l-0.19-0.146c-6.698-5.144-8.394-14.49-4.014-21.711
					c25.35-41.797,25.918-94.315,0.359-137.137c-39.6-66.346-125.995-85.054-189.714-41.351
					c-17.217,11.809-31.185,27.256-41.14,45.472c-4.022,7.36-12.834,10.634-20.588,7.438l-0.42-0.173
					c-9.004-3.711-12.966-14.426-8.313-22.982c14.545-26.745,35.988-48.733,62.793-64.209
					C245.682,59.706,347.6,87.015,393.45,166.433c30.69,53.158,29.568,117.802-1.751,169.367
					C386.586,344.22,375.303,346.357,367.491,340.357z"/>
			</g>
		</g>
		<g>
			<path fill="#FFFFFF" d="M249.267,415.95c-58.924,0-113.841-31.18-143.878-83.204c-0.621-1.076-1.231-2.161-1.829-3.252
				c-4.689-8.558-0.775-19.303,8.239-23.041l0,0c7.861-3.26,16.963-0.146,21.069,7.309c0.435,0.79,0.878,1.575,1.328,2.356
				c24.425,42.307,69.411,67.382,117.442,66.547c8.455-0.147,15.693,6.009,16.769,14.397l0.03,0.237
				c1.256,9.791-6.302,18.449-16.172,18.626C251.265,415.941,250.265,415.95,249.267,415.95z"/>
		</g>
		<g>
			<path fill="#FFFFFF" d="M249,499.009c-42.299,0.003-85.125-10.747-124.315-33.374C5.557,396.856-35.405,243.983,33.374,124.855
				C87.463,31.171,194.947-16.402,299.462,5.117c9.404,1.936,15.218,11.419,12.622,20.663l-0.061,0.218
				c-2.361,8.409-10.84,13.429-19.396,11.674C202.098,19.098,109.034,60.335,62.18,141.487
				C33.304,191.5,25.633,249.765,40.58,305.548S91.302,407.954,141.316,436.83c103.244,59.606,235.735,24.11,295.344-79.137
				c46.854-81.155,36.028-182.375-25.323-251.485c-5.798-6.531-5.691-16.385,0.411-22.634l0.158-0.162
				c6.708-6.87,17.827-6.577,24.206,0.599c70.899,79.756,83.442,196.627,29.353,290.314
				C419.314,454.261,335.278,499.003,249,499.009z"/>
		</g>
	</g>
	<circle fill="#9EFF71" cx="365.838" cy="47.947" r="24.947"/>
	<circle fill="#9EFF71" cx="323.05" cy="377.676" r="24.947"/>
	<circle fill="#9EFF71" cx="101.679" cy="249.312" r="24.947"/>
	<g>
		<path fill="#FFFFFF" d="M249.56,332.718c-28.758,0-56.762-14.912-72.145-41.556c-11.105-19.233-14.055-41.64-8.307-63.092
			c5.748-21.452,19.506-39.382,38.74-50.486c19.234-11.104,41.639-14.055,63.091-8.307c21.453,5.748,39.382,19.506,50.487,38.739
			c22.923,39.705,9.271,90.656-30.433,113.579l0,0C277.933,329.136,263.656,332.718,249.56,332.718z M249.34,199.686
			c-8.645,0-17.175,2.266-24.861,6.704c-11.54,6.662-19.793,17.419-23.242,30.289c-3.448,12.871-1.679,26.314,4.984,37.852
			c13.752,23.82,44.32,32.01,68.141,18.259c23.82-13.753,32.011-44.321,18.259-68.142c-6.662-11.539-17.419-19.793-30.289-23.242
			C258.034,200.256,253.672,199.686,249.34,199.686z"/>
	</g>
</g>
</svg>
