<svg xmlns="http://www.w3.org/2000/svg" viewBox="0 0 192.2 192.08"><defs><style>.cls-1{fill:#fff;}.cls-2{fill:#16d488;}</style></defs><title>_Asset 1</title><g id="Layer_2" data-name="Layer 2"><g id="Layer_1-2" data-name="Layer 1"><path class="cls-1" d="M141.51,131.08h0a6.29,6.29,0,0,1-1.6-8.4A51.24,51.24,0,0,0,67,54a50.07,50.07,0,0,0-15.8,17.5,6.33,6.33,0,0,1-7.9,2.9l-.2-.1a6.27,6.27,0,0,1-3.2-8.8,63.13,63.13,0,0,1,24.2-24.7,64,64,0,0,1,86.8,88.6A6.58,6.58,0,0,1,141.51,131.08Z"/><path class="cls-1" d="M96,160.18a63.94,63.94,0,0,1-55.4-32c-.2-.4-.5-.8-.7-1.3a6.38,6.38,0,0,1,3.2-8.9h0a6.36,6.36,0,0,1,8.1,2.8c.2.3.3.6.5.9a51.07,51.07,0,0,0,45.2,25.6,6.4,6.4,0,0,1,6.5,5.5v.1a6.37,6.37,0,0,1-6.2,7.2A5.28,5.28,0,0,1,96,160.18Z"/><path class="cls-1" d="M95.91,192.08A96,96,0,1,1,115.21,2a6.41,6.41,0,0,1,4.9,8v.1a6.43,6.43,0,0,1-7.5,4.5A83.18,83.18,0,1,0,158.41,41a6.35,6.35,0,0,1,.2-8.7l.1-.1a6.43,6.43,0,0,1,9.3.2,96,96,0,0,1-72.1,159.7Z"/><circle class="cls-2" cx="140.91" cy="18.48" r="9.6"/><circle class="cls-2" cx="124.41" cy="145.38" r="9.6"/><circle class="cls-2" cx="39.21" cy="95.98" r="9.6"/><path class="cls-1" d="M96.11,128.08a32,32,0,0,1-31-40.3A31.36,31.36,0,0,1,80,68.38a31.75,31.75,0,0,1,24.3-3.2,31.36,31.36,0,0,1,19.4,14.9,32,32,0,0,1-11.7,43.7h0A31.68,31.68,0,0,1,96.11,128.08ZM96,76.88a19.5,19.5,0,0,0-9.6,2.6,19.11,19.11,0,0,0-8.9,11.7,19.57,19.57,0,0,0,1.9,14.6,19.18,19.18,0,1,0,21.5-28.1A13.27,13.27,0,0,0,96,76.88Z"/></g></g></svg>