<?xml version="1.0" encoding="UTF-8"?>
<!-- Generator: Adobe Illustrator 17.0.0, SVG Export Plug-In . SVG Version: 6.00 Build 0)  -->
<!DOCTYPE svg PUBLIC "-//W3C//DTD SVG 1.1//EN" "http://www.w3.org/Graphics/SVG/1.1/DTD/svg11.dtd">
<svg version="1.1" id="Слой_1" xmlns="http://www.w3.org/2000/svg" xmlns:xlink="http://www.w3.org/1999/xlink" x="0px" y="0px" width="500px" height="500px" viewBox="0 0 500 500" enable-background="new 0 0 500 500" xml:space="preserve">
<circle fill-rule="evenodd" clip-rule="evenodd" fill="#2AD38A" cx="249.61" cy="249.61" r="249.61"/>
<g>
	<path fill-rule="evenodd" clip-rule="evenodd" fill="#FFFFFF" d="M203.146,162.195c-0.875-1.511-12.681-9.435-12.681-9.435   c14.045-10.95,10.579-34.147,10.579-34.147s3.902,2.88,7.431,17.648C211.99,151.025,205.942,159.243,203.146,162.195z    M298.158,118.612c0,0-3.387,23.197,10.599,34.147c0,0-11.752,7.925-12.695,9.435c-2.796-2.953-8.776-11.171-5.246-25.934   C294.346,121.492,298.158,118.612,298.158,118.612z M332.951,189.929c-2.669,8.213-6.341,13.112-10.227,15.703v0.582   c0,26.653-8.564,46.462-25.651,59.354c-10.945,8.145-24.561,12.97-40.914,14.408v64.839c0.436,0.288,0.86,0.504,1.227,0.865   c5.612,5.113,13.898,14.837,11.449,25.285c-2.444,10.442-16.065,10.877-17.218,18.944c0.078-9.294,1.153-20.821-3.241-10.012   c-4.385,10.804,0.366,35.012,28.242,47.69c0,0-24.85-2.954-36.529-18.157c-11.733-15.199-12.31-31.694-7.133-49.845   c1.872-6.703,4.982-11.024,8.428-13.62v-65.988c-21.539,0-38.029-6.551-49.415-19.663c-11.45-13.111-17.15-31.122-17.15-54.099   v-2.019c-3.237-2.81-6.263-7.274-8.57-14.265c-6.976-21.324-8.062-41.422,2.308-61.231c10.3-19.814,35.076-26.438,35.076-26.438   c-26.858,18.729-29.234,48.697-23.764,61.231l0.86,1.731h2.669c-0.137-3.461-0.797-9.079-1.291-14.265   c1.941,9.655,15.771,8.501,19.305,20.889c3.456,12.32-3.97,25.074-9.073,31.987c-0.738,1.007-1.667,1.799-2.679,2.449   c0.073,6.918,0.509,13.4,1.521,19.237c0.997,6.336,3.529,12.676,7.557,19.159c4.039,6.409,10.668,11.884,19.878,16.499   c9.161,4.537,19.237,6.844,30.198,6.844c11.381,0,21.54-2.234,30.32-6.702c8.864-4.468,15.566-10.516,20.25-18.225   c3.095-5.187,5.329-11.24,6.624-18.298c1.296-6.986,1.941-13.616,1.941-19.883c-0.352-0.362-0.788-0.65-1.085-1.08   c-5.104-6.912-12.52-19.667-9.074-31.987c3.529-12.388,17.365-11.235,19.305-20.889c-0.425,5.186-1.139,10.804-1.222,14.265h2.674   l0.855-1.731c5.476-12.534,3.095-42.502-23.838-61.231c0,0,24.855,6.624,35.151,26.438   C341.018,148.507,339.948,168.605,332.951,189.929z"/>
</g>
</svg>