<svg xmlns="http://www.w3.org/2000/svg" viewBox="0 0 192.11 192.13"><defs><style>.cls-1{fill:#115641;}.cls-2{fill:#16d488;}</style></defs><title>_Asset 1</title><g id="Layer_2" data-name="Layer 2"><g id="Layer_1-2" data-name="Layer 1"><path class="cls-1" d="M141.49,131l-.07,0a6.36,6.36,0,0,1-1.55-8.36A51.24,51.24,0,0,0,67,53.91a50.44,50.44,0,0,0-15.84,17.5,6.3,6.3,0,0,1-7.93,2.87L43,74.21a6.33,6.33,0,0,1-3.2-8.85A63.43,63.43,0,0,1,64,40.64a64.05,64.05,0,0,1,86.8,88.65A6.37,6.37,0,0,1,141.49,131Z"/><path class="cls-1" d="M96,160.15a63.87,63.87,0,0,1-55.39-32c-.24-.41-.48-.83-.71-1.25A6.34,6.34,0,0,1,43,118h0a6.45,6.45,0,0,1,8.12,2.81c.16.31.33.61.51.91a51.09,51.09,0,0,0,45.21,25.62,6.36,6.36,0,0,1,6.46,5.54V153a6.37,6.37,0,0,1-6.22,7.18Z"/><path class="cls-1" d="M95.87,192.13A96.05,96.05,0,1,1,115.3,2a6.38,6.38,0,0,1,4.86,8l0,.08a6.37,6.37,0,0,1-7.46,4.49,83.25,83.25,0,1,0,45.7,26.39,6.38,6.38,0,0,1,.16-8.71l.06-.07a6.38,6.38,0,0,1,9.32.23,96.06,96.06,0,0,1-72,159.79Z"/><circle class="cls-2" cx="140.85" cy="18.46" r="9.6"/><circle class="cls-2" cx="124.38" cy="145.41" r="9.6"/><circle class="cls-2" cx="39.15" cy="95.99" r="9.6"/><path class="cls-1" d="M96.08,128.1a32,32,0,1,1,16-4.28h0A31.87,31.87,0,0,1,96.08,128.1ZM96,76.88a19.24,19.24,0,1,0,5,.66A19.4,19.4,0,0,0,96,76.88Z"/></g></g></svg>