<svg xmlns="http://www.w3.org/2000/svg" width="300" height="180" viewBox="0 0 300 180">
  <metadata><?xpacket begin="﻿" id="W5M0MpCehiHzreSzNTczkc9d"?>
<x:xmpmeta xmlns:x="adobe:ns:meta/" x:xmptk="Adobe XMP Core 5.6-c138 79.159824, 2016/09/14-01:09:01        ">
   <rdf:RDF xmlns:rdf="http://www.w3.org/1999/02/22-rdf-syntax-ns#">
      <rdf:Description rdf:about=""/>
   </rdf:RDF>
</x:xmpmeta>
                                                                                                    
                                                                                                    
                                                                                                    
                                                                                                    
                                                                                                    
                                                                                                    
                                                                                                    
                                                                                                    
                                                                                                    
                                                                                                    
                                                                                                    
                                                                                                    
                                                                                                    
                                                                                                    
                                                                                                    
                                                                                                    
                                                                                                    
                                                                                                    
                                                                                                    
                                                                                                    
                           
<?xpacket end="w"?></metadata>
<defs>
    <style>
      .cls-1 {
        fill: #ddebe5;
        fill-rule: evenodd;
      }
    </style>
  </defs>
  <path id="bg" class="cls-1" d="M99,80H290a10,10,0,0,1,0,20H145a10,10,0,0,0,0,20H272a10,10,0,1,1,0,20H235a10,10,0,0,0,0,20H273a10,10,0,1,1,0,20H30a10,10,0,1,1,0-20H42.43a0.051,0.051,0,0,0,0,0H69a10,10,0,0,0,0-20H33c-0.024,0-.048,0-0.072,0H10.165a10,10,0,1,1,0-20H105a10,10,0,0,0,0-20H25.165a10,10,0,1,1-.052-20L59,80a10,10,0,0,0,0-20H42.165a10,10,0,1,1,0-20H158a10,10,0,0,0,0-20H12.165A10.083,10.083,0,0,1,2,10,10.081,10.081,0,0,1,12.165,0H282a9.939,9.939,0,0,1,10,10,9.941,9.941,0,0,1-10,10H198a10,10,0,0,0,0,20h59a10,10,0,1,1,0,20H99A10,10,0,0,0,99,80Zm10,60a10,10,0,1,0,0,20h9.572s0,0,0,0h76.435A10,10,0,0,0,195,140H138.072c-0.024,0-.048,0-0.072,0H109Z"/>
</svg>
