<svg id="icon2" xmlns="http://www.w3.org/2000/svg" width="209" height="127" viewBox="0 0 209 127">
  <metadata><?xpacket begin="﻿" id="W5M0MpCehiHzreSzNTczkc9d"?>
<x:xmpmeta xmlns:x="adobe:ns:meta/" x:xmptk="Adobe XMP Core 5.6-c138 79.159824, 2016/09/14-01:09:01        ">
   <rdf:RDF xmlns:rdf="http://www.w3.org/1999/02/22-rdf-syntax-ns#">
      <rdf:Description rdf:about=""/>
   </rdf:RDF>
</x:xmpmeta>
                                                                                                    
                                                                                                    
                                                                                                    
                                                                                                    
                                                                                                    
                                                                                                    
                                                                                                    
                                                                                                    
                                                                                                    
                                                                                                    
                                                                                                    
                                                                                                    
                                                                                                    
                                                                                                    
                                                                                                    
                                                                                                    
                                                                                                    
                                                                                                    
                                                                                                    
                                                                                                    
                           
<?xpacket end="w"?></metadata>
<defs>
    <style>
      .cls-1 {
        fill: #226d4f;
      }

      .cls-1, .cls-2 {
        fill-rule: evenodd;
        opacity: 0.5;
      }

      .cls-2 {
        fill: #16d488;
      }
    </style>
  </defs>
  <path id="Rectangle_175_copy_17" data-name="Rectangle 175 copy 17" class="cls-1" d="M213,81.986h-3v3a1,1,0,0,1-2,0v-3h-3a1,1,0,1,1,0-2h3v-3a1,1,0,0,1,2,0v3h3A1,1,0,1,1,213,81.986Z" transform="translate(-39 -7)"/>
  <path id="Rounded_Rectangle_10_copy_14" data-name="Rounded Rectangle 10 copy 14" class="cls-2" d="M236,133.991h-7a1,1,0,0,1-1-1v-7a1,1,0,0,1,1-1h7a1,1,0,0,1,1,1v7A1,1,0,0,1,236,133.991Zm-1-7h-5v5h5v-5Z" transform="translate(-39 -7)"/>
  <path id="Rectangle_175_copy_19" data-name="Rectangle 175 copy 19" class="cls-2" d="M247,29.986h-3v3a1,1,0,1,1-2,0v-3h-3a1,1,0,0,1,0-2h3v-3a1,1,0,1,1,2,0v3h3A1,1,0,0,1,247,29.986Z" transform="translate(-39 -7)"/>
  <path id="Rectangle_175_copy_17-2" data-name="Rectangle 175 copy 17" class="cls-1" d="M48,123.994H45v3a1,1,0,0,1-2,0v-3H40a1,1,0,1,1,0-2h3v-3a1,1,0,0,1,2,0v3h3A1,1,0,1,1,48,123.994Z" transform="translate(-39 -7)"/>
  <path id="Shape_988_copy_4" data-name="Shape 988 copy 4" class="cls-2" d="M76.334,68.761a0.485,0.485,0,0,1,.462.319l1.836,4.84,4.84,1.837a0.494,0.494,0,0,1,0,.924l-4.84,1.837L76.8,83.356a0.493,0.493,0,0,1-.924,0l-1.836-4.84L69.2,76.68a0.494,0.494,0,0,1,0-.924l4.84-1.837,1.836-4.84a0.485,0.485,0,0,1,.462-0.319m0-2.03a2.505,2.505,0,0,0-2.359,1.627l-1.512,3.989-3.987,1.511a2.524,2.524,0,0,0,0,4.719l3.987,1.511,1.512,3.987a2.523,2.523,0,0,0,4.717,0L80.2,80.088l3.987-1.511a2.524,2.524,0,0,0,0-4.719L80.2,72.347l-1.512-3.989a2.5,2.5,0,0,0-2.359-1.627h0Z" transform="translate(-39 -7)"/>
  <path id="Ellipse_40_copy_3" data-name="Ellipse 40 copy 3" class="cls-1" d="M154,18.995a6,6,0,1,1,6-6A6,6,0,0,1,154,18.995Zm0-10a4,4,0,1,0,4,4A4,4,0,0,0,154,8.994Z" transform="translate(-39 -7)"/>
  <path id="Rounded_Rectangle_10_copy_10" data-name="Rounded Rectangle 10 copy 10" class="cls-1" d="M52,17H45a1,1,0,0,1-1-1v-7a1,1,0,0,1,1-1h7a1,1,0,0,1,1,1v7A1,1,0,0,1,52,17Zm-1-7H46v5h5V10Z" transform="translate(-39 -7)"/>
</svg>
