<?xml version="1.0" encoding="utf-8"?>
<!-- Generator: Adobe Illustrator 21.1.0, SVG Export Plug-In . SVG Version: 6.00 Build 0)  -->
<svg version="1.1" id="icon" xmlns="http://www.w3.org/2000/svg" xmlns:xlink="http://www.w3.org/1999/xlink" x="0px" y="0px"
	 viewBox="0 0 108 134.2" style="enable-background:new 0 0 108 134.2;" xml:space="preserve">
<style type="text/css">
	.st0{fill:#226D4F;}
	.st1{fill:#16D488;}
	.st2{fill:#C1ECDB;}
</style>
<path class="st0" d="M21.4,134.2l5.1-82.1c0.9-15.2,14-26.8,29.2-25.8c13.9,0.8,25,11.9,25.8,25.8l5.1,82.1H21.4z"/>
<path id="Rounded_Rectangle_8" class="st0" d="M1,132.2h106c0.6,0,1,0.4,1,1l0,0c0,0.6-0.4,1-1,1H1c-0.6,0-1-0.4-1-1l0,0
	C0,132.7,0.4,132.2,1,132.2z"/>
<path id="Shape_1062_copy" class="st1" d="M23.5,132.2l5-80c0.9-14.1,13-24.8,27.1-24c12.9,0.8,23.2,11.1,24,24l5,80H23.5z"/>
<path id="Rounded_Rectangle_9_copy_2" class="st0" d="M76,114.2c-0.6,0-1-0.4-1-1s0.4-1,1-1h7.3l0.1,2H76z M81.4,83.2H57
	c-0.6,0-1-0.4-1-1s0.4-1,1-1h24.3L81.4,83.2z M55,72.2c0,0.6-0.4,1-1,1H27.2l0.1-2H54C54.6,71.2,55,71.7,55,72.2z M40,81.2
	c0.6,0,1,0.4,1,1s-0.4,1-1,1H26.6l0.1-2H40z M44,101.2c0.6,0,1,0.4,1,1s-0.4,1-1,1H25.3l0.1-2H44z M24.1,122.2H31c0.6,0,1,0.4,1,1
	s-0.4,1-1,1h-7L24.1,122.2z M49,113.2H35c-0.6,0-1-0.4-1-1s0.4-1,1-1h14c0.6,0,1,0.4,1,1S49.6,113.2,49,113.2z M35,92.2
	c0-0.6,0.4-1,1-1h16c0.6,0,1,0.4,1,1s-0.4,1-1,1H36C35.4,93.2,35,92.8,35,92.2z M72,124.2H60c-0.6,0-1-0.4-1-1s0.4-1,1-1h12
	c0.6,0,1,0.4,1,1S72.6,124.2,72,124.2z M66,102.2c0-0.6,0.4-1,1-1h15.6l0.1,2H67C66.4,103.2,66,102.8,66,102.2z M70,92.2
	c0-0.6,0.4-1,1-1h10.9l0.1,2H71C70.4,93.2,70,92.8,70,92.2z"/>
<path id="Shape_1062_copy_2" class="st2" d="M28.2,57.2l0.3-5c0.9-14.1,13-24.8,27.1-24c12.9,0.8,23.2,11.1,24,24l0.3,5H28.2z"/>
<path id="Rounded_Rectangle_10" class="st0" d="M54,108.2L54,108.2c5,0,9,4,9,9v15H45v-15C45,112.2,49,108.2,54,108.2z"/>
<path id="Rectangle_595_copy_2" class="st0" d="M56.5,44.4l4.2,4.2L49.5,60l-4.2-4.2L56.5,44.4z M49.5,44.4l11.3,11.3L56.5,60
	L45.2,48.7L49.5,44.4z M56.5,44.4l4.2,4.2L49.5,60l-4.2-4.2L56.5,44.4z M49.5,44.4l11.3,11.3L56.5,60L45.2,48.7L49.5,44.4z
	 M60.8,48.7L49.5,60l-4.2-4.2l11.3-11.3L60.8,48.7z"/>
<path id="Rectangle_595_copy_3" class="st2" d="M57.9,45.9l1.4,1.4l-3.5,3.5l-1.4-1.4L57.9,45.9z M50.2,53.6l1.4,1.4L48,58.6
	l-1.4-1.4L50.2,53.6z M48,45.9l3.5,3.5l-1.4,1.4l-3.5-3.5L48,45.9z M55.8,53.6l3.5,3.5l-1.4,1.4L54.4,55L55.8,53.6z"/>
<path id="Shape_1064_copy_3" class="st0" d="M104.5,16.2L65.7,50.9c-0.8,0.7-2,0.7-2.8-0.1l-5.7-5.8c-0.8-0.7-0.8-2-0.1-2.8
	L91.8,3.5c0.7-0.8,2-0.9,2.8-0.2c0,0,0.1,0.1,0.1,0.1l9.8,9.8C105.4,14.1,105.4,15.4,104.5,16.2C104.6,16.2,104.5,16.2,104.5,16.2z
	 M62.9,56.3l38.8,34.7c0.8,0.7,0.9,2,0.2,2.8c0,0-0.1,0.1-0.1,0.1l-9.8,9.8c-0.8,0.8-2,0.8-2.8,0c0,0-0.1-0.1-0.1-0.1L54.3,64.9
	c-0.7-0.8-0.7-2,0.1-2.8l5.8-5.7C60.9,55.7,62.1,55.6,62.9,56.3z M45.9,48c-0.8,0.8-2,0.8-2.8,0.1L4.3,13.4C3.9,13,3.6,12.5,3.6,12
	c0-0.6,0.2-1.1,0.6-1.5l9.9-9.9C14.5,0.2,15,0,15.6,0c0.6,0,1.1,0.3,1.4,0.7l34.7,38.8c0.7,0.8,0.7,2-0.1,2.8L45.9,48z M43,53.6
	l5.8,5.8c0.8,0.8,0.8,2,0.1,2.8l-34.7,38.8c-0.4,0.4-0.9,0.7-1.4,0.7c-0.6,0-1.1-0.2-1.5-0.6l-9.9-9.9c-0.4-0.4-0.6-0.9-0.6-1.5
	c0-0.5,0.3-1.1,0.7-1.4l38.8-34.7C41.1,52.8,42.3,52.8,43,53.6L43,53.6z"/>
<path id="Shape_1064_copy_3-2" class="st1" d="M93.3,4.9L93.3,4.9L58.6,43.7l5.8,5.8l38.8-34.7L93.3,4.9z M2.8,89.7L2.8,89.7
	L41.6,55l5.8,5.8L12.7,99.6L2.8,89.7z M100.4,92.5L100.4,92.5L61.5,57.8l-5.8,5.8l34.7,38.8L100.4,92.5z M15.5,2L15.5,2l34.7,38.8
	l-5.8,5.8L5.6,11.9L15.5,2z"/>
<path id="Shape_1064_copy_5" class="st2" d="M13.5,4l2-2l0,0l34.7,38.8l-0.7,0.7L13.5,4z"/>
<path id="Shape_1064_copy_6" class="st2" d="M4.8,91.7l-2-2l0,0L41.6,55l0.7,0.7L4.8,91.7z"/>
<path id="Shape_1064_copy_7" class="st2" d="M92.5,100.4l-2,2l0,0L55.8,63.6l0.7-0.7L92.5,100.4z"/>
<path id="Shape_1064_copy_8" class="st2" d="M101.2,12.7l2,2l0,0L64.4,49.4l-0.7-0.7L101.2,12.7z"/>
</svg>
