<svg xmlns="http://www.w3.org/2000/svg" width="360" height="180" viewBox="0 0 360 180">
  <metadata><?xpacket begin="﻿" id="W5M0MpCehiHzreSzNTczkc9d"?>
<x:xmpmeta xmlns:x="adobe:ns:meta/" x:xmptk="Adobe XMP Core 5.6-c138 79.159824, 2016/09/14-01:09:01        ">
   <rdf:RDF xmlns:rdf="http://www.w3.org/1999/02/22-rdf-syntax-ns#">
      <rdf:Description rdf:about=""/>
   </rdf:RDF>
</x:xmpmeta>
                                                                                                    
                                                                                                    
                                                                                                    
                                                                                                    
                                                                                                    
                                                                                                    
                                                                                                    
                                                                                                    
                                                                                                    
                                                                                                    
                                                                                                    
                                                                                                    
                                                                                                    
                                                                                                    
                                                                                                    
                                                                                                    
                                                                                                    
                                                                                                    
                                                                                                    
                                                                                                    
                           
<?xpacket end="w"?></metadata>
<defs>
    <style>
      .cls-1 {
        fill: #f0f7f5;
        fill-rule: evenodd;
      }
    </style>
  </defs>
  <path id="bg" class="cls-1" d="M760,475h87a10,10,0,1,0,0-20H640a10,10,0,0,1,0-20H752l0.053,0h44.894L797,435H950.834a10,10,0,1,1,0,20H887a10,10,0,1,0,0,20h68.834a10,10,0,1,1,0,20H817a10,10,0,1,0,0,20H937.834a10,10,0,1,1,0,20H929a10,10,0,0,0,0,20h39a10,10,0,1,1,0,20H884a10,10,0,1,1,0-20h5a10,10,0,0,0,0-20H823a10,10,0,0,0,0,20h20.834a10,10,0,1,1,0,20H824a10,10,0,1,0,0,20H948.834a10,10,0,1,1,0,20H660a10,10,0,1,1,0-20H784a10,10,0,1,0,0-20H705a10,10,0,1,1,0-20h78a10,10,0,0,0,0-20H743a10,10,0,0,1,0-20h35a10,10,0,1,0,0-20H760A10,10,0,1,1,760,475ZM628,535h75a10,10,0,0,0,0-20H628A10,10,0,0,0,628,535Zm55-40h37a10,10,0,0,0,0-20H683A10,10,0,1,0,683,495Zm-45,80h27a10,10,0,0,0,0-20H638A10,10,0,1,0,638,575Z" transform="translate(-618 -435)"/>
</svg>
