<svg id="icon2" xmlns="http://www.w3.org/2000/svg" width="220.156" height="164.062" viewBox="0 0 220.156 164.062">
  <metadata><?xpacket begin="﻿" id="W5M0MpCehiHzreSzNTczkc9d"?>
<x:xmpmeta xmlns:x="adobe:ns:meta/" x:xmptk="Adobe XMP Core 5.6-c138 79.159824, 2016/09/14-01:09:01        ">
   <rdf:RDF xmlns:rdf="http://www.w3.org/1999/02/22-rdf-syntax-ns#">
      <rdf:Description rdf:about=""/>
   </rdf:RDF>
</x:xmpmeta>
                                                                                                    
                                                                                                    
                                                                                                    
                                                                                                    
                                                                                                    
                                                                                                    
                                                                                                    
                                                                                                    
                                                                                                    
                                                                                                    
                                                                                                    
                                                                                                    
                                                                                                    
                                                                                                    
                                                                                                    
                                                                                                    
                                                                                                    
                                                                                                    
                                                                                                    
                                                                                                    
                           
<?xpacket end="w"?></metadata>
<defs>
    <style>
      .cls-1 {
        fill: #2c7457;
      }

      .cls-1, .cls-2, .cls-3 {
        fill-rule: evenodd;
        opacity: 0.5;
      }

      .cls-2 {
        fill: #16d488;
      }

      .cls-3 {
        fill: #226d4f;
      }
    </style>
  </defs>
  <path id="Rectangle_131_copy_16" data-name="Rectangle 131 copy 16" class="cls-1" d="M843.656,444.068L841,441.411l-2.657,2.657-1.414-1.415L839.585,440l-2.656-2.657,1.414-1.414L841,438.582l2.656-2.656,1.415,1.414L842.414,440l2.657,2.656Z" transform="translate(-682.844 -435.938)"/>
  <path id="Rectangle_175_copy_16" data-name="Rectangle 175 copy 16" class="cls-2" d="M728,455h-3v3a1,1,0,1,1-2,0v-3h-3a1,1,0,1,1,0-2h3v-3a1,1,0,1,1,2,0v3h3A1,1,0,1,1,728,455Z" transform="translate(-682.844 -435.938)"/>
  <path id="Rectangle_175_copy_16-2" data-name="Rectangle 175 copy 16" class="cls-3" d="M902,526h-3v3a1,1,0,0,1-2,0v-3h-3a1,1,0,1,1,0-2h3v-3a1,1,0,0,1,2,0v3h3A1,1,0,1,1,902,526Z" transform="translate(-682.844 -435.938)"/>
  <path id="Rounded_Rectangle_10_copy_13" data-name="Rounded Rectangle 10 copy 13" class="cls-2" d="M720,600h-7a1,1,0,0,1-1-1v-7a1,1,0,0,1,1-1h7a1,1,0,0,1,1,1v7A1,1,0,0,1,720,600Zm-1-7h-5v5h5v-5Z" transform="translate(-682.844 -435.938)"/>
  <path id="Shape_981_copy_12" data-name="Shape 981 copy 12" class="cls-1" d="M694.261,526.554l-11.4.2,5.876-9.778Zm-7.9-1.822,4.471-.079-2.168-3.754Z" transform="translate(-682.844 -435.938)"/>
  <path id="Ellipse_42_copy_15" data-name="Ellipse 42 copy 15" class="cls-2" d="M898,581a4,4,0,1,1,4-4A4,4,0,0,1,898,581Zm0-6a2,2,0,1,0,2,2A2,2,0,0,0,898,575Z" transform="translate(-682.844 -435.938)"/>
</svg>
