<?xml version="1.0" encoding="utf-8"?>
<!-- Generator: Adobe Illustrator 21.1.0, SVG Export Plug-In . SVG Version: 6.00 Build 0)  -->
<svg version="1.1" id="_1" xmlns="http://www.w3.org/2000/svg" xmlns:xlink="http://www.w3.org/1999/xlink" x="0px" y="0px"
	 viewBox="0 0 71 77" width="71" height="77" style="enable-background:new 0 0 71 77;" xml:space="preserve">
<style type="text/css">
	.st0{fill:none;stroke:#2C7457;stroke-width:3;stroke-miterlimit:10;}
	.st1{fill:#2C7457;}
	.st2{fill:#16D488;}
	.st3{fill:#C1ECDB;}
</style>
<circle class="st0" cx="35.5" cy="38.5" r="11"/>
<path class="st1" d="M31.6,76c-1.6,0-2.9-1.2-3-2.7L28,66.2c-4.7-1.3-9.1-3.8-12.5-7.3l-6.4,3c-1.4,0.6-3.1,0.1-3.8-1.2l-3.9-6.8
	c-0.8-1.3-0.4-3,0.8-4L8,45.8C6.7,41,6.7,35.9,8,31.1l-5.7-4c-1.3-0.9-1.6-2.6-0.9-4l3.9-6.7c0.5-0.9,1.5-1.5,2.6-1.5
	c0.4,0,0.8,0.1,1.2,0.3l6.4,2.9c3.4-3.5,7.8-6,12.5-7.3l0.6-7c0.1-1.5,1.4-2.7,3-2.7h7.7c1.6,0,2.8,1.2,3,2.7l0.6,7
	c4.8,1.3,9.1,3.8,12.5,7.3l6.4-2.9c0.4-0.2,0.8-0.3,1.2-0.3c1.1,0,2.1,0.6,2.6,1.5l3.9,6.7c0.8,1.3,0.4,3.1-0.9,4l-5.7,4
	c1.3,4.8,1.3,9.9,0,14.7l5.7,4.1c1.3,0.9,1.6,2.6,0.8,4l-3.9,6.8c-0.5,0.9-1.5,1.5-2.6,1.5l0,0c-0.4,0-0.9-0.1-1.2-0.3l-6.4-3
	c-3.5,3.5-7.8,6-12.5,7.3l-0.6,7.1c-0.1,1.6-1.4,2.7-3,2.7H31.6L31.6,76z M39.4,2c1,0,1.9,0.8,2,1.8l0.2,1.8l0.5,5.4l0,0.5l0.4,0.1
	c4.8,1.2,9.1,3.8,12.5,7.3l0.3,0.3l0.4-0.2l5-2.3l1.6-0.8c0.3-0.1,0.5-0.2,0.8-0.2c0.7,0,1.4,0.4,1.7,1l0.9,1.6l2.1,3.6l0.9,1.6
	c0.5,0.9,0.3,2-0.6,2.6l-1.5,1.1l-4.4,3.1l-0.4,0.3l0.1,0.5c1.3,4.8,1.3,9.8,0,14.6l-0.1,0.5l0.4,0.3l4.5,3.2l1.5,1.1
	c0.8,0.6,1.1,1.7,0.6,2.6l-0.9,1.6l-2.1,3.6l-0.9,1.6c-0.4,0.6-1,1-1.7,1c-0.3,0-0.6-0.1-0.8-0.2l-1.6-0.8l-5-2.3l-0.4-0.2L55,58
	c-3.4,3.5-7.8,6-12.5,7.3L42,65.4l0,0.5l-0.5,5.5l-0.2,1.8c-0.1,1-0.9,1.8-2,1.8h-7.7c-1,0-1.9-0.8-2-1.8l-0.2-1.8L29,65.8l0-0.5
	l-0.4-0.1C23.8,64,19.5,61.5,16,58l-0.3-0.3l-0.4,0.2l-5,2.3l-1.6,0.8c-0.3,0.1-0.5,0.2-0.8,0.2c-0.7,0-1.4-0.4-1.7-1l-0.9-1.6
	l-2.1-3.6l-0.9-1.6c-0.5-0.9-0.3-2,0.6-2.6l1.5-1.1l4.5-3.2l0.4-0.3L9,45.8C7.7,41,7.7,35.9,9,31.2l0.1-0.5l-0.4-0.3l-4.4-3.1
	l-1.5-1.1c-0.8-0.6-1.1-1.7-0.6-2.6L3.2,22l2.1-3.6l0.9-1.6c0.4-0.6,1-1,1.7-1c0.3,0,0.6,0.1,0.8,0.2l1.6,0.8l5,2.3l0.4,0.2L16,19
	c3.4-3.5,7.7-6.1,12.5-7.3l0.4-0.1l0-0.5l0.5-5.4l0.2-1.8c0.1-1,1-1.8,2-1.8H39.4 M39.4,0h-7.7c-2.1,0-3.8,1.6-4,3.6l-0.2,1.8
	L27.1,10c-4.4,1.3-8.5,3.7-11.8,6.9L11.2,15l-1.6-0.8C9,14,8.4,13.9,7.9,13.9c-1.4,0-2.7,0.8-3.4,2l-0.9,1.6L1.5,21l-0.9,1.6
	c-1,1.8-0.5,4.1,1.2,5.3L3.2,29l3.7,2.6c-1.1,4.5-1.1,9.3,0,13.8l-3.7,2.7l-1.5,1.1c-1.7,1.2-2.2,3.5-1.1,5.3L1.5,56l2.1,3.6
	l0.9,1.6c1,1.8,3.2,2.5,5.1,1.6l1.6-0.8l4.1-1.9c3.3,3.2,7.4,5.5,11.8,6.9l0.4,4.6l0.2,1.8c0.2,2.1,1.9,3.7,4,3.7h7.7
	c2.1,0,3.8-1.6,4-3.7l0.2-1.8l0.4-4.6c4.4-1.3,8.5-3.7,11.8-6.9l4.1,1.9l1.6,0.8c1.9,0.9,4.1,0.1,5.1-1.6l0.9-1.6l2.1-3.6l0.9-1.6
	c1-1.8,0.5-4.1-1.1-5.3l-1.5-1.1l-3.7-2.7c1.1-4.5,1.1-9.3,0-13.8l3.7-2.6l1.5-1.1c1.7-1.2,2.2-3.5,1.2-5.3L69.5,21l-2.1-3.6
	l-0.9-1.6c-0.7-1.2-2-2-3.4-2c-0.6,0-1.1,0.1-1.6,0.4L59.8,15l-4.1,1.9c-3.3-3.2-7.4-5.6-11.8-6.9l-0.4-4.5l-0.2-1.8
	C43.2,1.6,41.5,0,39.4,0L39.4,0L39.4,0z M59.9,49.7l-2.6-1.9l0.9-3.1c1.1-4.1,1.1-8.4,0-12.5l-0.9-3.2l2.7-1.9l4.4-3.1l-2.1-3.6
	l-5,2.3l-2.9,1.3l-2.3-2.3c-2.9-3-6.6-5.2-10.6-6.2l-3.2-0.8L38,11.4L37.5,6h-4.1L33,11.4l-0.3,3.3l-3.2,0.8
	c-4,1.1-7.7,3.2-10.6,6.2l-2.3,2.3l-2.9-1.3l-5-2.3L6.6,24l4.4,3.1l2.7,1.9l-0.9,3.2c-1.1,4.1-1.1,8.4,0,12.5l0.9,3.1l-2.6,1.9
	l-4.5,3.2l2.1,3.6l5-2.3l2.9-1.4l2.3,2.3c2.9,3,6.6,5.1,10.7,6.2l3.1,0.8l0.3,3.3l0.5,5.5h4.1l0.5-5.5l0.3-3.3l3.1-0.8
	c4.1-1.1,7.8-3.2,10.7-6.2l2.3-2.3l2.9,1.4l5,2.3l2.1-3.6L59.9,49.7z M39.4,0h-7.7c-2.1,0-3.8,1.6-4,3.6l-0.2,1.8l-0.4,4.5
	c-4.4,1.3-8.5,3.7-11.8,6.9L11.2,15l-1.6-0.8C9,14,8.4,13.9,7.9,13.9c-1.4,0-2.7,0.8-3.4,2l-0.9,1.6L1.5,21l-0.9,1.6
	c-1,1.8-0.5,4.1,1.2,5.3l1.5,1.1l3.7,2.6c-1.1,4.5-1.1,9.3,0,13.8l-3.7,2.7l-1.5,1.1c-1.7,1.2-2.2,3.5-1.1,5.3l0.9,1.6l2.1,3.6
	l0.9,1.6c1,1.8,3.2,2.5,5.1,1.6l1.6-0.8l4.1-1.9c3.3,3.2,7.4,5.5,11.8,6.9l0.4,4.6l0.2,1.8c0.2,2.1,1.9,3.7,4,3.7h7.7
	c2.1,0,3.8-1.6,4-3.7l0.2-1.8l0.4-4.6c4.4-1.3,8.5-3.7,11.8-6.9l4.1,1.9l1.6,0.8c1.9,0.9,4.1,0.1,5.1-1.6l0.9-1.6l2.1-3.6l0.9-1.6
	c1-1.8,0.5-4.1-1.1-5.3l-1.5-1.1l-3.7-2.7c1.1-4.5,1.1-9.3,0-13.8l3.7-2.6l1.5-1.1c1.7-1.2,2.2-3.5,1.2-5.3L69.5,21l-2.1-3.6
	l-0.9-1.6c-0.7-1.2-2-2-3.4-2c-0.6,0-1.1,0.1-1.6,0.4L59.8,15l-4.1,1.9c-3.3-3.2-7.4-5.6-11.8-6.9l-0.4-4.5l-0.2-1.8
	C43.2,1.6,41.4,0,39.4,0L39.4,0L39.4,0z M46,38.5C46,44.3,41.3,49,35.5,49S25,44.3,25,38.5S29.7,28,35.5,28S46,32.7,46,38.5z"/>
<path class="st2" d="M68.2,50.7l-1.5-1.1l-4.5-3.2l-0.4-0.3l0.1-0.5c1.3-4.8,1.3-9.8,0-14.6l-0.1-0.5l0.4-0.3l4.4-3.1l1.5-1.1
	c0.8-0.6,1.1-1.7,0.6-2.6L67.8,22l-2.1-3.6l-0.9-1.6c-0.4-0.6-1-1-1.7-1c-0.3,0-0.6,0.1-0.8,0.2l-1.6,0.8l-5,2.3l-0.4,0.2L55,18.9
	c-3.4-3.5-7.7-6.1-12.5-7.3L42,11.5l0-0.5l-0.5-5.4l-0.2-1.8c-0.1-1-1-1.8-2-1.8h0h-7.7c-1,0-1.9,0.8-2,1.8l-0.2,1.8L29,11.1l0,0.5
	l-0.4,0.1c-4.8,1.2-9.1,3.8-12.5,7.3l-0.3,0.3l-0.4-0.2l-5-2.3L8.7,16c-0.3-0.1-0.5-0.2-0.8-0.2c-0.7,0-1.4,0.4-1.7,1l-0.9,1.6
	L3.2,22l-0.9,1.6c-0.5,0.9-0.3,2,0.6,2.6l1.5,1.1l4.4,3.1l0.4,0.3L9,31.2C7.7,35.9,7.7,41,9,45.7l0.1,0.5l-0.4,0.3l-4.5,3.2
	l-1.5,1.1c-0.8,0.6-1.1,1.7-0.6,2.6l0.9,1.6l2.1,3.6l0.9,1.6c0.4,0.6,1,1,1.7,1c0.3,0,0.6-0.1,0.8-0.2l1.6-0.8l5-2.3l0.4-0.2L16,58
	c3.4,3.5,7.8,6,12.5,7.3l0.4,0.1l0,0.5l0.5,5.5l0.2,1.8c0.1,1,0.9,1.8,2,1.8h7.7c1,0,1.9-0.8,2-1.8l0.2-1.8l0.5-5.5l0-0.5l0.4-0.1
	C47.2,64,51.5,61.5,55,58l0.3-0.3l0.4,0.2l5,2.3l1.6,0.8c0.3,0.1,0.5,0.2,0.8,0.2c0.7,0,1.4-0.4,1.7-1l0.9-1.6l2.1-3.6l0.9-1.6
	C69.2,52.5,69,51.3,68.2,50.7z M35.5,51C28.6,51,23,45.4,23,38.5S28.6,26,35.5,26S48,31.6,48,38.5S42.4,51,35.5,51z"/>
<path id="Shape_1030_copy_2" class="st3" d="M59.9,49.7l-2.6-1.9l0.9-3.1c1.1-4.1,1.1-8.4,0-12.5L57.3,29l2.7-1.9l4.4-3.1l-2.1-3.6
	l-5,2.3l-2.9,1.3l-2.3-2.3c-2.9-3-6.6-5.2-10.6-6.2l-3.2-0.8L38,11.4L37.6,6h-4.1L33,11.4l-0.3,3.3l-3.2,0.8
	c-4,1.1-7.7,3.2-10.6,6.2l-2.3,2.3l-2.9-1.3l-5-2.3L6.6,24l4.4,3.1l2.7,1.9l-0.9,3.2c-1.1,4.1-1.1,8.4,0,12.5l0.9,3.1l-2.6,1.9
	l-4.5,3.2l2.1,3.6l5-2.3l2.9-1.4l2.3,2.3c2.9,3,6.6,5.1,10.7,6.2l3.1,0.8l0.3,3.3l0.5,5.5h4.1l0.5-5.5l0.3-3.3l3.1-0.8
	c4.1-1.1,7.8-3.2,10.7-6.2l2.3-2.3l2.9,1.4l5,2.3l2.1-3.6L59.9,49.7z M35.5,23C44.1,23,51,29.9,51,38.5S44.1,54,35.5,54
	S20,47.1,20,38.5S26.9,23,35.5,23L35.5,23z"/>
</svg>
