<svg xmlns="http://www.w3.org/2000/svg" width="170" height="110" viewBox="0 0 170 110">
  <metadata><?xpacket begin="﻿" id="W5M0MpCehiHzreSzNTczkc9d"?>
<x:xmpmeta xmlns:x="adobe:ns:meta/" x:xmptk="Adobe XMP Core 5.6-c138 79.159824, 2016/09/14-01:09:01        ">
   <rdf:RDF xmlns:rdf="http://www.w3.org/1999/02/22-rdf-syntax-ns#">
      <rdf:Description rdf:about=""/>
   </rdf:RDF>
</x:xmpmeta>
                                                                                                    
                                                                                                    
                                                                                                    
                                                                                                    
                                                                                                    
                                                                                                    
                                                                                                    
                                                                                                    
                                                                                                    
                                                                                                    
                                                                                                    
                                                                                                    
                                                                                                    
                                                                                                    
                                                                                                    
                                                                                                    
                                                                                                    
                                                                                                    
                                                                                                    
                                                                                                    
                           
<?xpacket end="w"?></metadata>
<defs>
    <style>
      .cls-1 {
        fill: #f0f7f5;
        fill-rule: evenodd;
      }
    </style>
  </defs>
  <path id="_1_bg" data-name="1_bg" class="cls-1" d="M380,4546H348a5,5,0,0,0,0,10h29a5,5,0,0,1,0,10H355a5,5,0,0,0,0,10h20a5,5,0,0,1,0,10H334a5,5,0,0,0,0,10h24a5,5,0,0,1,0,10H345a5,5,0,0,0,0,10h38a5,5,0,0,1,0,10H329a5,5,0,0,0,0,10h48a5,5,0,0,1,0,10H233a5,5,0,0,1,0-10h36a5,5,0,0,0,0-10H233a5,5,0,0,1,0-10h67a5,5,0,0,0,0-10H245a5,5,0,0,1,0-10h69a5,5,0,0,0,0-10H248a5,5,0,0,1,0-10h17a5,5,0,0,0,0-10H228a5,5,0,0,1,0-10h98a5,5,0,0,0,0-10H244a5,5,0,0,1,0-10H380A5,5,0,0,1,380,4546Zm-2,50h10a5,5,0,0,1,0,10H378A5,5,0,0,1,378,4596Z" transform="translate(-223 -4536)"/>
</svg>
