<svg id="_2" data-name="2" xmlns="http://www.w3.org/2000/svg" width="86" height="78" viewBox="0 0 86 78">
  <metadata><?xpacket begin="﻿" id="W5M0MpCehiHzreSzNTczkc9d"?>
<x:xmpmeta xmlns:x="adobe:ns:meta/" x:xmptk="Adobe XMP Core 5.6-c138 79.159824, 2016/09/14-01:09:01        ">
   <rdf:RDF xmlns:rdf="http://www.w3.org/1999/02/22-rdf-syntax-ns#">
      <rdf:Description rdf:about=""/>
   </rdf:RDF>
</x:xmpmeta>
                                                                                                    
                                                                                                    
                                                                                                    
                                                                                                    
                                                                                                    
                                                                                                    
                                                                                                    
                                                                                                    
                                                                                                    
                                                                                                    
                                                                                                    
                                                                                                    
                                                                                                    
                                                                                                    
                                                                                                    
                                                                                                    
                                                                                                    
                                                                                                    
                                                                                                    
                                                                                                    
                           
<?xpacket end="w"?></metadata>
<defs>
    <style>
      .cls-1 {
        fill: #226d4f;
      }

      .cls-1, .cls-2 {
        fill-rule: evenodd;
      }

      .cls-2 {
        fill: #16d488;
      }

      .cls-3 {
        fill: #c1ecdb;
      }
    </style>
  </defs>
  <path id="Shape_990_copy_7" data-name="Shape 990 copy 7" class="cls-1" d="M657,4555v72a3,3,0,0,0,3,3h16a3,3,0,0,0,3-3v-72a3,3,0,0,0-3-3H660A3,3,0,0,0,657,4555Z" transform="translate(-593 -4552)"/>
  <path id="Shape_990_copy_8" data-name="Shape 990 copy 8" class="cls-2" d="M659,4555v72a1,1,0,0,0,1,1h16a1,1,0,0,0,1-1v-72a1,1,0,0,0-1-1H660A1,1,0,0,0,659,4555Z" transform="translate(-593 -4552)"/>
  <rect id="Rectangle_52_copy_4" data-name="Rectangle 52 copy 4" class="cls-3" x="70" y="6" width="10" height="66" rx="1" ry="1"/>
  <path id="Shape_990_copy_18" data-name="Shape 990 copy 18" class="cls-1" d="M593,4603v24a3,3,0,0,0,3,3h16a3,3,0,0,0,3-3v-24a3,3,0,0,0-3-3H596A3,3,0,0,0,593,4603Z" transform="translate(-593 -4552)"/>
  <path id="Shape_990_copy_18-2" data-name="Shape 990 copy 18" class="cls-2" d="M595,4603v24a1,1,0,0,0,1,1h16a1,1,0,0,0,1-1v-24a1,1,0,0,0-1-1H596A1,1,0,0,0,595,4603Z" transform="translate(-593 -4552)"/>
  <rect id="Rectangle_52_copy_5" data-name="Rectangle 52 copy 5" class="cls-3" x="6" y="54" width="10" height="18" rx="1" ry="1"/>
  <path id="Shape_990_copy_19" data-name="Shape 990 copy 19" class="cls-1" d="M624,4584v43a3,3,0,0,0,3,3h16a3,3,0,0,0,3-3v-43a3,3,0,0,0-3-3H627A3,3,0,0,0,624,4584Z" transform="translate(-593 -4552)"/>
  <path id="Shape_990_copy_19-2" data-name="Shape 990 copy 19" class="cls-2" d="M626,4584v43a1,1,0,0,0,1,1h16a1,1,0,0,0,1-1v-43a1,1,0,0,0-1-1H627A1,1,0,0,0,626,4584Z" transform="translate(-593 -4552)"/>
  <rect id="Rectangle_52_copy_6" data-name="Rectangle 52 copy 6" class="cls-3" x="37" y="35" width="10" height="37" rx="1" ry="1"/>
</svg>
