<svg id="_2_1" data-name="2_1" xmlns="http://www.w3.org/2000/svg" width="155" height="61" viewBox="0 0 155 61">
  <metadata><?xpacket begin="﻿" id="W5M0MpCehiHzreSzNTczkc9d"?>
<x:xmpmeta xmlns:x="adobe:ns:meta/" x:xmptk="Adobe XMP Core 5.6-c138 79.159824, 2016/09/14-01:09:01        ">
   <rdf:RDF xmlns:rdf="http://www.w3.org/1999/02/22-rdf-syntax-ns#">
      <rdf:Description rdf:about=""/>
   </rdf:RDF>
</x:xmpmeta>
                                                                                                    
                                                                                                    
                                                                                                    
                                                                                                    
                                                                                                    
                                                                                                    
                                                                                                    
                                                                                                    
                                                                                                    
                                                                                                    
                                                                                                    
                                                                                                    
                                                                                                    
                                                                                                    
                                                                                                    
                                                                                                    
                                                                                                    
                                                                                                    
                                                                                                    
                                                                                                    
                           
<?xpacket end="w"?></metadata>
<defs>
    <style>
      .cls-1 {
        fill: #226d4f;
      }

      .cls-1, .cls-2 {
        fill-rule: evenodd;
        opacity: 0.5;
      }

      .cls-2 {
        fill: #16d488;
      }
    </style>
  </defs>
  <path id="Rectangle_175_copy_8" data-name="Rectangle 175 copy 8" class="cls-1" d="M603,4552h-3v3a1,1,0,0,1-2,0v-3h-3a1,1,0,0,1,0-2h3v-3a1,1,0,0,1,2,0v3h3A1,1,0,0,1,603,4552Z" transform="translate(-569 -4546)"/>
  <path id="Rounded_Rectangle_10_copy_6" data-name="Rounded Rectangle 10 copy 6" class="cls-2" d="M577,4588h-7a1,1,0,0,1-1-1v-7a1,1,0,0,1,1-1h7a1,1,0,0,1,1,1v7A1,1,0,0,1,577,4588Zm-1-7h-5v5h5v-5Z" transform="translate(-569 -4546)"/>
  <path id="Ellipse_42_copy_6" data-name="Ellipse 42 copy 6" class="cls-2" d="M720,4574a4,4,0,1,1,4-4A4,4,0,0,1,720,4574Zm0-6a2,2,0,1,0,2,2A2,2,0,0,0,720,4568Z" transform="translate(-569 -4546)"/>
  <path id="Rounded_Rectangle_10_copy_9" data-name="Rounded Rectangle 10 copy 9" class="cls-1" d="M711,4607h-7a1,1,0,0,1-1-1v-7a1,1,0,0,1,1-1h7a1,1,0,0,1,1,1v7A1,1,0,0,1,711,4607Zm-1-7h-5v5h5v-5Z" transform="translate(-569 -4546)"/>
</svg>
