<svg xmlns="http://www.w3.org/2000/svg" width="170" height="110" viewBox="0 0 170 110">
  <metadata><?xpacket begin="﻿" id="W5M0MpCehiHzreSzNTczkc9d"?>
<x:xmpmeta xmlns:x="adobe:ns:meta/" x:xmptk="Adobe XMP Core 5.6-c138 79.159824, 2016/09/14-01:09:01        ">
   <rdf:RDF xmlns:rdf="http://www.w3.org/1999/02/22-rdf-syntax-ns#">
      <rdf:Description rdf:about=""/>
   </rdf:RDF>
</x:xmpmeta>
                                                                                                    
                                                                                                    
                                                                                                    
                                                                                                    
                                                                                                    
                                                                                                    
                                                                                                    
                                                                                                    
                                                                                                    
                                                                                                    
                                                                                                    
                                                                                                    
                                                                                                    
                                                                                                    
                                                                                                    
                                                                                                    
                                                                                                    
                                                                                                    
                                                                                                    
                                                                                                    
                           
<?xpacket end="w"?></metadata>
<defs>
    <style>
      .cls-1 {
        fill: #f0f7f5;
        fill-rule: evenodd;
      }
    </style>
  </defs>
  <path id="_2_bg" data-name="2_bg" class="cls-1" d="M678,4641a5,5,0,0,1,5-5h20a5,5,0,0,1,0,10H683A5,5,0,0,1,678,4641Zm-12-35H652a5,5,0,0,0,0,10h64a5,5,0,0,1,.044,10H618a5,5,0,0,0,0,10h45a5,5,0,0,1,0,10H559a5,5,0,0,1,0-10h39a5,5,0,0,0,0-10H565.956a5,5,0,0,1,.044-10h16a5,5,0,0,0,0-10H556a5,5,0,0,1,0-10h57a5,5,0,0,0,0-10H568a5,5,0,0,1,0-10h96a5,5,0,0,0,0-10H561a5,5,0,0,1,0-10h23a5,5,0,0,0,0-10H561a5,5,0,0,1,0-10H706a5,5,0,0,1,0,10H604a5,5,0,0,0,0,10h87a5,5,0,0,1,0,10h-7a5,5,0,0,0,0,10h23a5,5,0,0,1,0,10H633a5,5,0,0,0,0,10h33A5,5,0,0,1,666,4606Z" transform="translate(-551 -4536)"/>
</svg>
