<svg id="_3" data-name="3" xmlns="http://www.w3.org/2000/svg" width="80" height="84" viewBox="0 0 80 84">
  <metadata><?xpacket begin="﻿" id="W5M0MpCehiHzreSzNTczkc9d"?>
<x:xmpmeta xmlns:x="adobe:ns:meta/" x:xmptk="Adobe XMP Core 5.6-c138 79.159824, 2016/09/14-01:09:01        ">
   <rdf:RDF xmlns:rdf="http://www.w3.org/1999/02/22-rdf-syntax-ns#">
      <rdf:Description rdf:about=""/>
   </rdf:RDF>
</x:xmpmeta>
                                                                                                    
                                                                                                    
                                                                                                    
                                                                                                    
                                                                                                    
                                                                                                    
                                                                                                    
                                                                                                    
                                                                                                    
                                                                                                    
                                                                                                    
                                                                                                    
                                                                                                    
                                                                                                    
                                                                                                    
                                                                                                    
                                                                                                    
                                                                                                    
                                                                                                    
                                                                                                    
                           
<?xpacket end="w"?></metadata>
<defs>
    <style>
      .cls-1, .cls-3 {
        fill: #226d4f;
      }

      .cls-2, .cls-4 {
        fill: #16d488;
      }

      .cls-3, .cls-4, .cls-5 {
        fill-rule: evenodd;
      }

      .cls-5 {
        fill: #c1ecdb;
      }
    </style>
  </defs>
  <rect class="cls-1" x="36" y="53" width="8" height="31"/>
  <rect id="Rectangle_182_copy" data-name="Rectangle 182 copy" class="cls-2" x="38" y="53" width="4" height="31"/>
  <path id="Shape_990_copy_20" data-name="Shape 990 copy 20" class="cls-3" d="M1004,4555v43a3,3,0,0,1-3,3H927a3,3,0,0,1-3-3v-43a3,3,0,0,1,3-3h74A3,3,0,0,1,1004,4555Z" transform="translate(-924 -4546)"/>
  <path class="cls-1" d="M35,75H45a4,4,0,0,1,4,4v3a2,2,0,0,1-2,2H33a2,2,0,0,1-2-2V79A4,4,0,0,1,35,75Z"/>
  <path class="cls-4" d="M959,4623h10a2,2,0,0,1,2,2v3H957v-3A2,2,0,0,1,959,4623Z" transform="translate(-924 -4546)"/>
  <path id="Shape_990_copy_20-2" data-name="Shape 990 copy 20" class="cls-4" d="M1002,4555v43a1,1,0,0,1-1,1H927a1,1,0,0,1-1-1v-43a1,1,0,0,1,1-1h74A1,1,0,0,1,1002,4555Z" transform="translate(-924 -4546)"/>
  <path id="Shape_990_copy_20-3" data-name="Shape 990 copy 20" class="cls-5" d="M930,4558h68v37H930v-37h0Z" transform="translate(-924 -4546)"/>
  <rect class="cls-1" x="11" y="3" width="10" height="6" rx="2" ry="2"/>
  <rect class="cls-1" x="15" width="2" height="4"/>
  <rect class="cls-2" x="13" y="5" width="6" height="2"/>
  <rect id="Rectangle_185_copy" data-name="Rectangle 185 copy" class="cls-1" x="57" y="3" width="10" height="6" rx="2" ry="2"/>
  <rect id="Rectangle_187_copy" data-name="Rectangle 187 copy" class="cls-1" x="61" width="2" height="4"/>
  <rect id="Rectangle_186_copy" data-name="Rectangle 186 copy" class="cls-2" x="59" y="5" width="6" height="2"/>
  <rect id="Rectangle_185_copy_2" data-name="Rectangle 185 copy 2" class="cls-1" x="34" y="3" width="10" height="6" rx="2" ry="2"/>
  <rect id="Rectangle_187_copy_2" data-name="Rectangle 187 copy 2" class="cls-1" x="38" width="2" height="4"/>
  <rect id="Rectangle_186_copy_2" data-name="Rectangle 186 copy 2" class="cls-2" x="36" y="5" width="6" height="2"/>
</svg>
