<svg xmlns="http://www.w3.org/2000/svg" width="170" height="110" viewBox="0 0 170 110">
  <metadata><?xpacket begin="﻿" id="W5M0MpCehiHzreSzNTczkc9d"?>
<x:xmpmeta xmlns:x="adobe:ns:meta/" x:xmptk="Adobe XMP Core 5.6-c138 79.159824, 2016/09/14-01:09:01        ">
   <rdf:RDF xmlns:rdf="http://www.w3.org/1999/02/22-rdf-syntax-ns#">
      <rdf:Description rdf:about=""/>
   </rdf:RDF>
</x:xmpmeta>
                                                                                                    
                                                                                                    
                                                                                                    
                                                                                                    
                                                                                                    
                                                                                                    
                                                                                                    
                                                                                                    
                                                                                                    
                                                                                                    
                                                                                                    
                                                                                                    
                                                                                                    
                                                                                                    
                                                                                                    
                                                                                                    
                                                                                                    
                                                                                                    
                                                                                                    
                                                                                                    
                           
<?xpacket end="w"?></metadata>
<defs>
    <style>
      .cls-1 {
        fill: #f0f7f5;
        fill-rule: evenodd;
      }
    </style>
  </defs>
  <path id="_3_bg" data-name="3_bg" class="cls-1" d="M972,4546H958a5,5,0,0,0,0,10h86a5,5,0,0,1,0,10H993a5,5,0,0,0,0,10h38a5,5,0,0,1,0,10h-12a5,5,0,0,0,0,10h18a5,5,0,0,1,0,10H998a5,5,0,0,0,0,10h34a5,5,0,0,1,.02,10H980a5,5,0,0,0,0,10h32a5,5,0,0,1,0,10H940a5,5,0,0,1,0-10h20a5,5,0,0,0,0-10H903.978a5,5,0,0,1,.022-10h26a5,5,0,0,0,0-10H884a5,5,0,0,1,0-10h37a5,5,0,0,0,0-10h-5a5,5,0,0,1,0-10h19a5,5,0,0,0,0-10H884a5,5,0,0,1,0-10h54a5,5,0,0,0,0-10H899a5,5,0,0,1,0-10h73A5,5,0,0,1,972,4546Zm-73,90h21a5,5,0,0,1,0,10H899A5,5,0,0,1,899,4636Zm93-100h41a5,5,0,0,1,0,10H992A5,5,0,0,1,992,4536Z" transform="translate(-879 -4536)"/>
</svg>
