<svg id="_4" data-name="4" xmlns="http://www.w3.org/2000/svg" width="84" height="56" viewBox="0 0 84 56">
  <metadata><?xpacket begin="﻿" id="W5M0MpCehiHzreSzNTczkc9d"?>
<x:xmpmeta xmlns:x="adobe:ns:meta/" x:xmptk="Adobe XMP Core 5.6-c138 79.159824, 2016/09/14-01:09:01        ">
   <rdf:RDF xmlns:rdf="http://www.w3.org/1999/02/22-rdf-syntax-ns#">
      <rdf:Description rdf:about=""/>
   </rdf:RDF>
</x:xmpmeta>
                                                                                                    
                                                                                                    
                                                                                                    
                                                                                                    
                                                                                                    
                                                                                                    
                                                                                                    
                                                                                                    
                                                                                                    
                                                                                                    
                                                                                                    
                                                                                                    
                                                                                                    
                                                                                                    
                                                                                                    
                                                                                                    
                                                                                                    
                                                                                                    
                                                                                                    
                                                                                                    
                           
<?xpacket end="w"?></metadata>
<defs>
    <style>
      .cls-1, .cls-4 {
        fill: #226d4f;
      }

      .cls-2, .cls-5 {
        fill: #16d488;
      }

      .cls-3 {
        fill: #c1ecdb;
      }

      .cls-3, .cls-4, .cls-5 {
        fill-rule: evenodd;
      }
    </style>
  </defs>
  <rect id="Shape_990_copy_15" data-name="Shape 990 copy 15" class="cls-1" width="84" height="56" rx="4" ry="4"/>
  <rect id="Shape_990_copy_16" data-name="Shape 990 copy 16" class="cls-2" x="2" y="2" width="80" height="52" rx="2" ry="2"/>
  <path id="Shape_990_copy_17" data-name="Shape 990 copy 17" class="cls-3" d="M1254,4571h72v41h-72v-41h0Z" transform="translate(-1248 -4562)"/>
  <path class="cls-4" d="M1331.42,4571.69l-36.62,18.23a9.658,9.658,0,0,1-8.6,0l-36.62-18.23-1.58-.78V4570h0v-4a4,4,0,0,1,4-4h76a4,4,0,0,1,4,4v4h0v1.4Z" transform="translate(-1248 -4562)"/>
  <path id="Shape_668_copy" data-name="Shape 668 copy" class="cls-5" d="M1329.99,4570.01l-36.59,18.19a7.625,7.625,0,0,1-6.8,0l-36.59-18.19L1250,4566a2,2,0,0,1,2-2h76a2,2,0,0,1,2,2Z" transform="translate(-1248 -4562)"/>
</svg>
