<svg id="_4_1" data-name="4_1" xmlns="http://www.w3.org/2000/svg" width="167.06" height="104.75" viewBox="0 0 167.06 104.75">
  <metadata><?xpacket begin="﻿" id="W5M0MpCehiHzreSzNTczkc9d"?>
<x:xmpmeta xmlns:x="adobe:ns:meta/" x:xmptk="Adobe XMP Core 5.6-c138 79.159824, 2016/09/14-01:09:01        ">
   <rdf:RDF xmlns:rdf="http://www.w3.org/1999/02/22-rdf-syntax-ns#">
      <rdf:Description rdf:about=""/>
   </rdf:RDF>
</x:xmpmeta>
                                                                                                    
                                                                                                    
                                                                                                    
                                                                                                    
                                                                                                    
                                                                                                    
                                                                                                    
                                                                                                    
                                                                                                    
                                                                                                    
                                                                                                    
                                                                                                    
                                                                                                    
                                                                                                    
                                                                                                    
                                                                                                    
                                                                                                    
                                                                                                    
                                                                                                    
                                                                                                    
                           
<?xpacket end="w"?></metadata>
<defs>
    <style>
      .cls-1 {
        fill: #2c7457;
      }

      .cls-1, .cls-2, .cls-3 {
        fill-rule: evenodd;
        opacity: 0.5;
      }

      .cls-2 {
        fill: #226d4f;
      }

      .cls-3 {
        fill: #16d488;
      }
    </style>
  </defs>
  <path id="Rectangle_131_copy_10" data-name="Rectangle 131 copy 10" class="cls-1" d="M1223.66,4621.07l-2.66-2.66-2.66,2.66-1.41-1.42,2.66-2.65-2.66-2.66,1.41-1.41,2.66,2.65,2.66-2.65,1.41,1.41-2.66,2.66,2.66,2.65Z" transform="translate(-1204 -4534)"/>
  <path id="Rounded_Rectangle_10_copy_15" data-name="Rounded Rectangle 10 copy 15" class="cls-2" d="M1233,4543h-7a1,1,0,0,1-1-1v-7a1,1,0,0,1,1-1h7a1,1,0,0,1,1,1v7A1,1,0,0,1,1233,4543Zm-1-7h-5v5h5v-5Z" transform="translate(-1204 -4534)"/>
  <path id="Rectangle_131_copy_9" data-name="Rectangle 131 copy 9" class="cls-1" d="M1369.66,4605.07l-2.66-2.66-2.66,2.66-1.41-1.42,2.66-2.65-2.66-2.66,1.41-1.41,2.66,2.65,2.66-2.65,1.41,1.41-2.66,2.66,2.66,2.65Z" transform="translate(-1204 -4534)"/>
  <path id="Rectangle_175_copy_10" data-name="Rectangle 175 copy 10" class="cls-3" d="M1213,4579h-3v3a1,1,0,0,1-2,0v-3h-3a1,1,0,0,1,0-2h3v-3a1,1,0,0,1,2,0v3h3A1,1,0,0,1,1213,4579Z" transform="translate(-1204 -4534)"/>
  <path id="Ellipse_42_copy_9" data-name="Ellipse 42 copy 9" class="cls-3" d="M1355,4560a4,4,0,1,1,4-4A4,4,0,0,1,1355,4560Zm0-6a2,2,0,1,0,2,2A2,2,0,0,0,1355,4554Z" transform="translate(-1204 -4534)"/>
  <path id="Shape_981_copy_6" data-name="Shape 981 copy 6" class="cls-3" d="M1348.26,4638.55l-11.4.2,5.87-9.77Zm-7.9-1.82,4.47-.08-2.17-3.75Z" transform="translate(-1204 -4534)"/>
</svg>
