<svg xmlns="http://www.w3.org/2000/svg" width="170" height="110" viewBox="0 0 170 110">
  <metadata><?xpacket begin="﻿" id="W5M0MpCehiHzreSzNTczkc9d"?>
<x:xmpmeta xmlns:x="adobe:ns:meta/" x:xmptk="Adobe XMP Core 5.6-c138 79.159824, 2016/09/14-01:09:01        ">
   <rdf:RDF xmlns:rdf="http://www.w3.org/1999/02/22-rdf-syntax-ns#">
      <rdf:Description rdf:about=""/>
   </rdf:RDF>
</x:xmpmeta>
                                                                                                    
                                                                                                    
                                                                                                    
                                                                                                    
                                                                                                    
                                                                                                    
                                                                                                    
                                                                                                    
                                                                                                    
                                                                                                    
                                                                                                    
                                                                                                    
                                                                                                    
                                                                                                    
                                                                                                    
                                                                                                    
                                                                                                    
                                                                                                    
                                                                                                    
                                                                                                    
                           
<?xpacket end="w"?></metadata>
<defs>
    <style>
      .cls-1 {
        fill: #f0f7f5;
        fill-rule: evenodd;
      }
    </style>
  </defs>
  <path id="_4_bg" data-name="4_bg" class="cls-1" d="M1356,4646H1229a5,5,0,0,1-5-5h0a5,5,0,0,1,5-5h64a5,5,0,0,0,0-10h-42.02a5,5,0,0,1,.02-10h78a5,5,0,0,0,0-10h-18a5,5,0,0,1,0-10h14a5,5,0,0,0,0-10h-82a5,5,0,0,1,0-10h4a5,5,0,0,0,0-10h-31a5,5,0,0,1,0-10h70a5,5,0,0,0,0-10h-63a5,5,0,0,1,0-10h135a5,5,0,0,1,0,10h-52a5,5,0,0,0,0,10h64a5,5,0,0,1,0,10h-18a5,5,0,0,0,0,10h15a5,5,0,0,1,0,10h-12a5,5,0,0,0,0,10h14a5,5,0,0,1,0,10h-20a5,5,0,0,0,0,10h9a5,5,0,0,1,.02,10H1313a5,5,0,0,0,0,10h43a5,5,0,0,1,5,5h0A5,5,0,0,1,1356,4646Zm-146-50h81a5,5,0,0,1,0,10h-81A5,5,0,0,1,1210,4596Z" transform="translate(-1205 -4536)"/>
</svg>
