<svg id="_5" data-name="5" xmlns="http://www.w3.org/2000/svg" width="71" height="94" viewBox="0 0 71 94">
  <metadata><?xpacket begin="﻿" id="W5M0MpCehiHzreSzNTczkc9d"?>
<x:xmpmeta xmlns:x="adobe:ns:meta/" x:xmptk="Adobe XMP Core 5.6-c138 79.159824, 2016/09/14-01:09:01        ">
   <rdf:RDF xmlns:rdf="http://www.w3.org/1999/02/22-rdf-syntax-ns#">
      <rdf:Description rdf:about=""/>
   </rdf:RDF>
</x:xmpmeta>
                                                                                                    
                                                                                                    
                                                                                                    
                                                                                                    
                                                                                                    
                                                                                                    
                                                                                                    
                                                                                                    
                                                                                                    
                                                                                                    
                                                                                                    
                                                                                                    
                                                                                                    
                                                                                                    
                                                                                                    
                                                                                                    
                                                                                                    
                                                                                                    
                                                                                                    
                                                                                                    
                           
<?xpacket end="w"?></metadata>
<defs>
    <style>
      .cls-1, .cls-3 {
        fill: #226d4f;
      }

      .cls-2, .cls-4 {
        fill: #16d488;
      }

      .cls-3, .cls-4, .cls-5 {
        fill-rule: evenodd;
      }

      .cls-5 {
        fill: #c1ecdb;
      }
    </style>
  </defs>
  <rect class="cls-1" x="33" y="80" width="6" height="14"/>
  <rect id="Rectangle_191_copy" data-name="Rectangle 191 copy" class="cls-2" x="35" y="80" width="2" height="14"/>
  <path id="Shape_1009_copy_12" data-name="Shape 1009 copy 12" class="cls-3" d="M374,4929v-18.99l0-.01a5,5,0,0,1,5-5l0,0.01a4.994,4.994,0,0,1,5,4.99v19H374Zm-35,0v-18.99l0-.01a5,5,0,0,1,5-5l0,0.01a4.994,4.994,0,0,1,5,4.99v19H339Z" transform="translate(-326 -4905)"/>
  <path id="Shape_1026_copy_2" data-name="Shape 1026 copy 2" class="cls-3" d="M390.991,4939L391,4967a20,20,0,0,1-20,20H353a19.992,19.992,0,0,1-20-19.99V4939h57.987Z" transform="translate(-326 -4905)"/>
  <path id="Shape_1009_copy_12-2" data-name="Shape 1009 copy 12" class="cls-4" d="M376,4930v-20.01a3,3,0,0,1,6,0V4930H376Zm-35,0v-20.01a3,3,0,0,1,6,0V4930H341Z" transform="translate(-326 -4905)"/>
  <path class="cls-4" d="M335,4939h54v28a18,18,0,0,1-18,18H353a18,18,0,0,1-18-18v-28h0Z" transform="translate(-326 -4905)"/>
  <path id="Rounded_Rectangle_19" data-name="Rounded Rectangle 19" class="cls-5" d="M385,4943v24a14,14,0,0,1-14,14H353a14,14,0,0,1-14-14v-24h46Z" transform="translate(-326 -4905)"/>
  <path id="Rounded_Rectangle_20_copy_2" data-name="Rounded Rectangle 20 copy 2" class="cls-3" d="M349,4952h26a1,1,0,0,1,0,2H349A1,1,0,0,1,349,4952Zm0,8h26a1,1,0,0,1,0,2H349A1,1,0,0,1,349,4960Zm0,8h26a1,1,0,0,1,0,2H349A1,1,0,0,1,349,4968Z" transform="translate(-326 -4905)"/>
  <path id="Rounded_Rectangle_18" data-name="Rounded Rectangle 18" class="cls-3" d="M331,4929h62c2.761,0,4,2.24,4,5h0c0,2.76-1.239,5-4,5H331a5,5,0,0,1-5-5h0A5,5,0,0,1,331,4929Z" transform="translate(-326 -4905)"/>
  <rect class="cls-2" x="2" y="26" width="68" height="6" rx="3" ry="3"/>
</svg>
