<svg id="_5_1" data-name="5_1" xmlns="http://www.w3.org/2000/svg" width="146.25" height="94.03" viewBox="0 0 146.25 94.03">
  <metadata><?xpacket begin="﻿" id="W5M0MpCehiHzreSzNTczkc9d"?>
<x:xmpmeta xmlns:x="adobe:ns:meta/" x:xmptk="Adobe XMP Core 5.6-c138 79.159824, 2016/09/14-01:09:01        ">
   <rdf:RDF xmlns:rdf="http://www.w3.org/1999/02/22-rdf-syntax-ns#">
      <rdf:Description rdf:about=""/>
   </rdf:RDF>
</x:xmpmeta>
                                                                                                    
                                                                                                    
                                                                                                    
                                                                                                    
                                                                                                    
                                                                                                    
                                                                                                    
                                                                                                    
                                                                                                    
                                                                                                    
                                                                                                    
                                                                                                    
                                                                                                    
                                                                                                    
                                                                                                    
                                                                                                    
                                                                                                    
                                                                                                    
                                                                                                    
                                                                                                    
                           
<?xpacket end="w"?></metadata>
<defs>
    <style>
      .cls-1 {
        fill: #2c7457;
      }

      .cls-1, .cls-2, .cls-3 {
        fill-rule: evenodd;
        opacity: 0.5;
      }

      .cls-2 {
        fill: #16d488;
      }

      .cls-3 {
        fill: #226d4f;
      }
    </style>
  </defs>
  <path id="Rectangle_131_copy_7" data-name="Rectangle 131 copy 7" class="cls-1" d="M306.657,4918.07L304,4915.41l-2.657,2.66-1.414-1.42,2.657-2.65-2.657-2.66,1.414-1.41,2.657,2.65,2.657-2.65,1.414,1.41-2.657,2.66,2.657,2.65Z" transform="translate(-286 -4904.97)"/>
  <path id="Rectangle_175_copy_7" data-name="Rectangle 175 copy 7" class="cls-2" d="M295,4955h-3v3a1,1,0,0,1-2,0v-3h-3a1,1,0,0,1,0-2h3v-3a1,1,0,0,1,2,0v3h3A1,1,0,0,1,295,4955Z" transform="translate(-286 -4904.97)"/>
  <path id="Rounded_Rectangle_10_copy_8" data-name="Rounded Rectangle 10 copy 8" class="cls-3" d="M317,4999h-7a1,1,0,0,1-1-1v-7a1,1,0,0,1,1-1h7a1,1,0,0,1,1,1v7A1,1,0,0,1,317,4999Zm-1-7h-5v5h5v-5Z" transform="translate(-286 -4904.97)"/>
  <path id="Shape_981_copy_7" data-name="Shape 981 copy 7" class="cls-2" d="M432.261,4914.55l-11.405.2,5.876-9.77Zm-7.9-1.82,4.471-.08-2.168-3.75Z" transform="translate(-286 -4904.97)"/>
  <path id="_5" data-name="5" class="cls-2" d="M421,4970a4,4,0,1,1,4-4A4,4,0,0,1,421,4970Zm0-6a2,2,0,1,0,2,2A2,2,0,0,0,421,4964Z" transform="translate(-286 -4904.97)"/>
</svg>
