<?xml version="1.0" encoding="utf-8"?>
<!-- Generator: Adobe Illustrator 21.1.0, SVG Export Plug-In . SVG Version: 6.00 Build 0)  -->
<svg version="1.1" id="_6" xmlns="http://www.w3.org/2000/svg" xmlns:xlink="http://www.w3.org/1999/xlink" x="0px" y="0px"
	 viewBox="0 0 63 109.6" width="63" height="109.6" style="enable-background:new 0 0 63 109.6;" xml:space="preserve">
<style type="text/css">
	.st0{fill:#226D4F;}
	.st1{fill:#16D488;}
	.st2{fill:#F76161;}
	.st3{fill:#C1ECDB;}
</style>
<path id="Shape_1035_copy_3" class="st0" d="M3.6,89.3c-0.7,0-1.4-0.3-1.9-0.8C1.3,88,1,87.3,1,86.6l0-2.9C1,77.2,1.1,71,7.5,68
	l0.1,0l13.4-4.1l-2.2,17.8L4.8,89C4.5,89.2,4,89.3,3.6,89.3L3.6,89.3L3.6,89.3z M19.7,65.3l-2,15.8L4.4,88.1
	c-0.2,0.1-0.5,0.2-0.7,0.2c-0.9,0-1.6-0.7-1.6-1.6L2,85c0-6.9-0.3-13.1,5.9-16.1L19.7,65.3 M22.1,62.5l-3,0.9L7.3,67l-0.1,0L7,67.1
	c-7,3.4-7,10.1-7,16.7v1.2l0,1.7c0,1,0.4,1.9,1,2.6c1.1,1.1,2.8,1.4,4.2,0.6l13.4-7.1l0.9-0.5l0.1-1l2-15.8L22.1,62.5L22.1,62.5
	L22.1,62.5z M59.4,89.3c-0.4,0-0.8-0.1-1.2-0.3l-13.8-7.3l-2.2-17.8l13.4,4.1l0.1,0C61.9,71,62,77.2,62,83.8l0,2.9
	c0,0.7-0.3,1.4-0.8,1.9C60.7,89,60.1,89.3,59.4,89.3L59.4,89.3z M43.3,65.3l11.8,3.6c6.2,3,5.8,9.2,5.9,16.1l0,1.7
	c0,0.9-0.7,1.6-1.6,1.6c-0.3,0-0.5-0.1-0.7-0.2L45.2,81L43.3,65.3 M40.9,62.5l0.4,3.1l2,15.8l0.1,1l0.9,0.5l13.4,7.1
	c1.4,0.7,3.1,0.5,4.2-0.6c0.7-0.7,1.1-1.6,1-2.6l0-1.7v-1.2c0-6.6,0-13.4-7-16.7L55.8,67l-0.1,0l-11.8-3.6L40.9,62.5L40.9,62.5
	L40.9,62.5z M3.6,89.3c-0.7,0-1.4-0.3-1.9-0.8C1.3,88,1,87.3,1,86.6l0-2.9C1,77.2,1.1,71,7.5,68l0.1,0l13.4-4.1l-2.2,17.8L4.8,89
	C4.5,89.2,4,89.3,3.6,89.3L3.6,89.3L3.6,89.3z M19.7,65.3l-2,15.8L4.4,88.1c-0.2,0.1-0.5,0.2-0.7,0.2c-0.9,0-1.6-0.7-1.6-1.6L2,85
	c0-6.9-0.3-13.1,5.9-16.1L19.7,65.3 M22.1,62.5l-3,0.9L7.3,67l-0.1,0L7,67.1c-7,3.4-7,10.1-7,16.7v1.2l0,1.7c0,1,0.4,1.9,1,2.6
	c1.1,1.1,2.8,1.4,4.2,0.6l13.4-7.1l0.9-0.5l0.1-1l2-15.8L22.1,62.5L22.1,62.5L22.1,62.5z M59.4,89.3c-0.4,0-0.8-0.1-1.2-0.3
	l-13.8-7.3l-2.2-17.8l13.4,4.1l0.1,0C61.9,71,62,77.2,62,83.8l0,2.9c0,0.7-0.3,1.4-0.8,1.9C60.7,89,60.1,89.3,59.4,89.3L59.4,89.3z
	 M43.3,65.3l11.8,3.6c6.2,3,5.8,9.2,5.9,16.1l0,1.7c0,0.9-0.7,1.6-1.6,1.6c-0.3,0-0.5-0.1-0.7-0.2L45.2,81L43.3,65.3 M40.9,62.5
	l0.4,3.1l2,15.8l0.1,1l0.9,0.5l13.4,7.1c1.4,0.7,3.1,0.5,4.2-0.6c0.7-0.7,1.1-1.6,1-2.6l0-1.7v-1.2c0-6.6,0-13.4-7-16.7L55.8,67
	l-0.1,0l-11.8-3.6L40.9,62.5L40.9,62.5L40.9,62.5z M40.9,62.5l0.4,3.1l2,15.8l0.1,1l0.9,0.5l13.4,7.1c1.4,0.7,3.1,0.5,4.2-0.6
	c0.7-0.7,1.1-1.6,1-2.6l0-1.7v-1.2c0-6.6,0-13.4-7-16.7L55.8,67l-0.1,0l-11.8-3.6L40.9,62.5L40.9,62.5L40.9,62.5z M22.1,62.5l-3,0.9
	L7.3,67l-0.1,0L7,67.1c-7,3.4-7,10.1-7,16.7V85l0,1.7c0,1,0.4,1.9,1,2.6c1.1,1.1,2.8,1.4,4.2,0.6l13.4-7.1l0.9-0.5l0.1-1l2-15.8
	L22.1,62.5L22.1,62.5L22.1,62.5z"/>
<path id="Shape_1035_copy_4" class="st1" d="M19.7,65.3l-2,15.8L4.4,88.1c-0.2,0.1-0.5,0.2-0.7,0.2c-0.9,0-1.6-0.7-1.6-1.6L2,85
	c0-6.9-0.3-13.1,5.9-16.1L19.7,65.3 M43.3,65.3l11.8,3.6c6.2,3,5.8,9.2,5.9,16.1l0,1.7c0,0.9-0.7,1.6-1.6,1.6
	c-0.3,0-0.5-0.1-0.7-0.2L45.2,81L43.3,65.3"/>
<polygon class="st0" points="22.9,83.6 31.9,109.6 40.9,83.6 "/>
<path id="Shape_1038_copy" class="st2" d="M25.7,85.6l6.2,17.9l6.2-17.9H25.7z"/>
<path class="st0" d="M16.5,89l-0.3-0.2c-3.9-3.3-6.7-16.6-6.7-22.3C9.5,31,19.6,1,31.5,1s22,30,22,65.5c0,5.6-2.8,18.9-6.7,22.3
	L46.5,89H16.5z M31.5,2c10.6,0,21,27.9,21,64.5c0,5.6-2.8,18.5-6.4,21.5H16.9c-3.6-3-6.4-15.9-6.4-21.5C10.5,29.9,20.9,2,31.5,2
	 M31.5,0c-12.7,0-23,29.8-23,66.5c0,5.2,2.7,19.3,7.1,23l0.6,0.5h30.8l0.6-0.5c4.4-3.8,7.1-17.8,7.1-23C54.5,29.8,44.2,0,31.5,0
	L31.5,0z M17.7,86c-2.7-3.2-5.2-14.4-5.2-19.5C12.5,27.8,23.6,4,31.5,4s19,23.8,19,62.5c0,5.1-2.6,16.3-5.2,19.5H17.7z M31.5,6
	c2.5,0,7,4.9,10.7,15.8c4.1,12,6.3,27.9,6.3,44.7c0,5-2.3,14.2-4.2,17.5H18.7c-1.9-3.3-4.2-12.5-4.2-17.5c0-16.8,2.3-32.7,6.3-44.7
	C24.5,10.9,28.9,6,31.5,6 M31.5,2c-10.6,0-21,27.9-21,64.5c0,5.6,2.8,18.5,6.4,21.5h29.3c3.6-3,6.4-15.9,6.4-21.5
	C52.5,29.9,42.1,2,31.5,2L31.5,2z M31.5,0c-12.7,0-23,29.8-23,66.5c0,5.2,2.7,19.3,7.1,23l0.6,0.5h30.8l0.6-0.5
	c4.4-3.8,7.1-17.8,7.1-23C54.5,29.8,44.2,0,31.5,0L31.5,0z"/>
<g>
	<path class="st1" d="M14.4,30c0.4-1.7,0.8-3.4,1.3-4.9C15.2,26.6,14.8,28.3,14.4,30z"/>
	<path class="st1" d="M26.6,4c0.6-0.5,1.3-0.9,1.9-1.2C27.9,3,27.2,3.5,26.6,4z"/>
	<path class="st1" d="M15.6,25c0.4-1.6,0.9-3.1,1.4-4.5C16.5,21.9,16.1,23.5,15.6,25z"/>
	<path class="st1" d="M44.5,20.2C40.6,8.6,35.9,3.4,33.2,3.4c-0.4,0-0.9,0.1-1.4,0.4c-0.5-0.3-1-0.4-1.4-0.4
		c-2.7,0-7.4,5.3-11.4,16.9C14.6,33,12.2,50,12.2,67.9c0,5.4,2.5,15.2,4.5,18.7h2.8c0,0,0,0,0,0h27.3c2-3.5,4.5-13.3,4.5-18.7
		C51.3,50,48.9,33,44.5,20.2z"/>
	<path class="st1" d="M10.8,56.4c0.1-2.2,0.3-4.3,0.5-6.4C11,52.1,10.9,54.3,10.8,56.4z"/>
	<path class="st1" d="M31.5,2c-10.6,0-21,27.9-21,64.5c0,5.6,2.8,18.5,6.4,21.5h29.3h0c3.6-3,6.4-15.9,6.4-21.5
		C52.5,29.9,42.1,2,31.5,2z M45.3,86H17.7c-2.7-3.2-5.2-14.4-5.2-19.5C12.5,27.8,23.6,4,31.5,4s19,23.8,19,62.5
		C50.5,71.6,48,82.8,45.3,86z"/>
</g>
<path id="Shape_1035_copy_2" class="st3" d="M31.5,6c2.5,0,7,4.9,10.7,15.8c4.1,12,6.3,27.9,6.3,44.7c0,5-2.3,14.2-4.2,17.5H18.7
	c-1.9-3.3-4.2-12.5-4.2-17.5c0-16.8,2.3-32.7,6.3-44.7C24.5,10.9,28.9,6,31.5,6"/>
<path class="st0" d="M31.5,29c-4.1,0-7.5,3.4-7.5,7.5s3.4,7.5,7.5,7.5s7.5-3.4,7.5-7.5S35.6,29,31.5,29z M31.5,42
	c-3,0-5.5-2.5-5.5-5.5s2.5-5.5,5.5-5.5s5.5,2.5,5.5,5.5S34.5,42,31.5,42z"/>
</svg>
