<svg xmlns="http://www.w3.org/2000/svg" width="170" height="110" viewBox="0 0 170 110">
  <metadata><?xpacket begin="﻿" id="W5M0MpCehiHzreSzNTczkc9d"?>
<x:xmpmeta xmlns:x="adobe:ns:meta/" x:xmptk="Adobe XMP Core 5.6-c138 79.159824, 2016/09/14-01:09:01        ">
   <rdf:RDF xmlns:rdf="http://www.w3.org/1999/02/22-rdf-syntax-ns#">
      <rdf:Description rdf:about=""/>
   </rdf:RDF>
</x:xmpmeta>
                                                                                                    
                                                                                                    
                                                                                                    
                                                                                                    
                                                                                                    
                                                                                                    
                                                                                                    
                                                                                                    
                                                                                                    
                                                                                                    
                                                                                                    
                                                                                                    
                                                                                                    
                                                                                                    
                                                                                                    
                                                                                                    
                                                                                                    
                                                                                                    
                                                                                                    
                                                                                                    
                           
<?xpacket end="w"?></metadata>
<defs>
    <style>
      .cls-1 {
        fill: #f0f7f5;
        fill-rule: evenodd;
      }
    </style>
  </defs>
  <path id="_6_bg" data-name="6_bg" class="cls-1" d="M841,4906H809a5,5,0,0,0,0,10h59a5,5,0,0,1,0,10H766a5,5,0,0,0,0,10H866a5,5,0,0,1,0,10H825a5,5,0,0,0,0,10h54a5,5,0,0,1,0,10H836a5,5,0,0,0,0,10h28a5,5,0,0,1,0,10H810a5,5,0,0,0,0,10h58a5,5,0,0,1,0,10H724a5,5,0,0,1,0-10h66a5,5,0,0,0,0-10H764a5,5,0,0,1,0-10h27a5,5,0,0,0,0-10H736a5,5,0,0,1,0-10h69a5,5,0,0,0,0-10H739a5,5,0,0,1,0-10h7a5,5,0,0,0,0-10H719a5,5,0,0,1,0-10h68a5,5,0,0,0,0-10H735a5,5,0,0,1,0-10H841A5,5,0,0,1,841,4906Zm20-10h10a5,5,0,0,1,0,10H861A5,5,0,0,1,861,4896Zm-127,80h10a5,5,0,0,1,0,10H734A5,5,0,0,1,734,4976Z" transform="translate(-714 -4896)"/>
</svg>
