<svg id="_7" data-name="7" xmlns="http://www.w3.org/2000/svg" width="83.53" height="83.53" viewBox="0 0 83.53 83.53">
  <metadata><?xpacket begin="﻿" id="W5M0MpCehiHzreSzNTczkc9d"?>
<x:xmpmeta xmlns:x="adobe:ns:meta/" x:xmptk="Adobe XMP Core 5.6-c138 79.159824, 2016/09/14-01:09:01        ">
   <rdf:RDF xmlns:rdf="http://www.w3.org/1999/02/22-rdf-syntax-ns#">
      <rdf:Description rdf:about=""/>
   </rdf:RDF>
</x:xmpmeta>
                                                                                                    
                                                                                                    
                                                                                                    
                                                                                                    
                                                                                                    
                                                                                                    
                                                                                                    
                                                                                                    
                                                                                                    
                                                                                                    
                                                                                                    
                                                                                                    
                                                                                                    
                                                                                                    
                                                                                                    
                                                                                                    
                                                                                                    
                                                                                                    
                                                                                                    
                                                                                                    
                           
<?xpacket end="w"?></metadata>
<defs>
    <style>
      .cls-1 {
        fill: #226d4f;
      }

      .cls-1, .cls-2, .cls-3 {
        fill-rule: evenodd;
      }

      .cls-2 {
        fill: #16d488;
      }

      .cls-3 {
        fill: #c1ecdb;
      }
    </style>
  </defs>
  <path class="cls-1" d="M1245.83,4962.48l5.66-5.65,11.31,11.31-5.66,5.66Z" transform="translate(-1197.88 -4908.88)"/>
  <path class="cls-2" d="M1247.24,4961.07l2.83-2.83,11.31,11.32-2.82,2.82Z" transform="translate(-1197.88 -4908.88)"/>
  <path id="Rectangle_192_copy" data-name="Rectangle 192 copy" class="cls-1" d="M1253.61,4964.6h0a8,8,0,0,1,11.31,0l14.14,14.15a7.985,7.985,0,0,1,0,11.31h0a7.985,7.985,0,0,1-11.31,0l-14.14-14.14A8,8,0,0,1,1253.61,4964.6Z" transform="translate(-1197.88 -4908.88)"/>
  <path id="Rectangle_193_copy_2" data-name="Rectangle 193 copy 2" class="cls-2" d="M1255.02,4966.02h0a6.011,6.011,0,0,1,8.49,0l14.14,14.14a6.011,6.011,0,0,1,0,8.49h0a6.011,6.011,0,0,1-8.49,0l-14.14-14.14A6.011,6.011,0,0,1,1255.02,4966.02Z" transform="translate(-1197.88 -4908.88)"/>
  <path id="Rectangle_193_copy_2-2" data-name="Rectangle 193 copy 2" class="cls-3" d="M1257.85,4968.85h0a2,2,0,0,1,2.83,0l14.14,14.14a2,2,0,0,1,0,2.83h0a2,2,0,0,1-2.83,0l-14.14-14.14A2,2,0,0,1,1257.85,4968.85Z" transform="translate(-1197.88 -4908.88)"/>
  <path class="cls-1" d="M1206.94,4917.94a31,31,0,1,1,0,43.84A30.992,30.992,0,0,1,1206.94,4917.94Zm5.65,5.65a23,23,0,1,1,0,32.53A23.007,23.007,0,0,1,1212.59,4923.59Z" transform="translate(-1197.88 -4908.88)"/>
  <path class="cls-1" d="M1211.19,4936.58h0a0.991,0.991,0,0,1-.8-1.19,18.981,18.981,0,0,1,14-14,0.991,0.991,0,0,1,1.19.8h0a1,1,0,0,1-.77,1.15,17.071,17.071,0,0,0-12.47,12.47A1,1,0,0,1,1211.19,4936.58Z" transform="translate(-1197.88 -4908.88)"/>
  <path class="cls-2" d="M1208.35,4919.35a29,29,0,1,1,0,41.01A29.007,29.007,0,0,1,1208.35,4919.35Zm2.83,2.83a25,25,0,1,1,0,35.35A25.011,25.011,0,0,1,1211.18,4922.18Z" transform="translate(-1197.88 -4908.88)"/>
</svg>
