<svg id="_7_1" data-name="7_1" xmlns="http://www.w3.org/2000/svg" width="154.16" height="93.06" viewBox="0 0 154.16 93.06">
  <metadata><?xpacket begin="﻿" id="W5M0MpCehiHzreSzNTczkc9d"?>
<x:xmpmeta xmlns:x="adobe:ns:meta/" x:xmptk="Adobe XMP Core 5.6-c138 79.159824, 2016/09/14-01:09:01        ">
   <rdf:RDF xmlns:rdf="http://www.w3.org/1999/02/22-rdf-syntax-ns#">
      <rdf:Description rdf:about=""/>
   </rdf:RDF>
</x:xmpmeta>
                                                                                                    
                                                                                                    
                                                                                                    
                                                                                                    
                                                                                                    
                                                                                                    
                                                                                                    
                                                                                                    
                                                                                                    
                                                                                                    
                                                                                                    
                                                                                                    
                                                                                                    
                                                                                                    
                                                                                                    
                                                                                                    
                                                                                                    
                                                                                                    
                                                                                                    
                                                                                                    
                           
<?xpacket end="w"?></metadata>
<defs>
    <style>
      .cls-1 {
        fill: #2c7457;
      }

      .cls-1, .cls-2, .cls-3 {
        fill-rule: evenodd;
        opacity: 0.5;
      }

      .cls-2 {
        fill: #16d488;
      }

      .cls-3 {
        fill: #226d4f;
      }
    </style>
  </defs>
  <path id="Rectangle_131_copy_11" data-name="Rectangle 131 copy 11" class="cls-1" d="M1289.66,4918.07l-2.66-2.66-2.66,2.66-1.41-1.42,2.66-2.65-2.66-2.66,1.41-1.41,2.66,2.65,2.66-2.65,1.41,1.41-2.66,2.66,2.66,2.65Z" transform="translate(-1151.84 -4904.94)"/>
  <path id="Rectangle_131_copy_13" data-name="Rectangle 131 copy 13" class="cls-1" d="M1164.66,4913.07l-2.66-2.66-2.66,2.66-1.41-1.42,2.66-2.65-2.66-2.66,1.41-1.41,2.66,2.65,2.66-2.65,1.41,1.41-2.66,2.66,2.66,2.65Z" transform="translate(-1151.84 -4904.94)"/>
  <path id="Rectangle_175_copy_11" data-name="Rectangle 175 copy 11" class="cls-2" d="M1305,4970h-3v3a1,1,0,0,1-2,0v-3h-3a1,1,0,0,1,0-2h3v-3a1,1,0,0,1,2,0v3h3A1,1,0,0,1,1305,4970Z" transform="translate(-1151.84 -4904.94)"/>
  <path id="Shape_981_copy_8" data-name="Shape 981 copy 8" class="cls-2" d="M1163.26,4959.55l-11.4.2,5.87-9.77Zm-7.9-1.82,4.47-.08-2.17-3.75Z" transform="translate(-1151.84 -4904.94)"/>
  <path id="Ellipse_42_copy_12" data-name="Ellipse 42 copy 12" class="cls-3" d="M1192,4998a4,4,0,1,1,4-4A4,4,0,0,1,1192,4998Zm0-6a2,2,0,1,0,2,2A2,2,0,0,0,1192,4992Z" transform="translate(-1151.84 -4904.94)"/>
</svg>
