<svg xmlns="http://www.w3.org/2000/svg" width="170" height="110" viewBox="0 0 170 110">
  <metadata><?xpacket begin="﻿" id="W5M0MpCehiHzreSzNTczkc9d"?>
<x:xmpmeta xmlns:x="adobe:ns:meta/" x:xmptk="Adobe XMP Core 5.6-c138 79.159824, 2016/09/14-01:09:01        ">
   <rdf:RDF xmlns:rdf="http://www.w3.org/1999/02/22-rdf-syntax-ns#">
      <rdf:Description rdf:about=""/>
   </rdf:RDF>
</x:xmpmeta>
                                                                                                    
                                                                                                    
                                                                                                    
                                                                                                    
                                                                                                    
                                                                                                    
                                                                                                    
                                                                                                    
                                                                                                    
                                                                                                    
                                                                                                    
                                                                                                    
                                                                                                    
                                                                                                    
                                                                                                    
                                                                                                    
                                                                                                    
                                                                                                    
                                                                                                    
                                                                                                    
                           
<?xpacket end="w"?></metadata>
<defs>
    <style>
      .cls-1 {
        fill: #f0f7f5;
        fill-rule: evenodd;
      }
    </style>
  </defs>
  <path id="_7_bg" data-name="7_bg" class="cls-1" d="M1311,4906h-92a5,5,0,0,0,0,10h89a5,5,0,0,1,0,10h-62a5,5,0,0,0,0,10h30a5,5,0,0,1,0,10h-11a5,5,0,0,0,0,10h24a5,5,0,0,1,0,10h-13a5,5,0,0,0,0,10h8a5,5,0,0,1,0,10h-24a5,5,0,0,0,0,10h48a5,5,0,0,1,0,10H1164a5,5,0,0,1,0-10h76a5,5,0,0,0,0-10h-76a5,5,0,0,1,0-10h27a5,5,0,0,0,0-10h-15a5,5,0,0,1,0-10h69a5,5,0,0,0,0-10h-66a5,5,0,0,1,0-10h17a5,5,0,0,0,0-10h-37a5,5,0,0,1,0-10h38a5,5,0,0,0,0-10h-42a5,5,0,0,1,0-10h156A5,5,0,0,1,1311,4906Zm-15,30h19a5,5,0,0,1,0,10h-19A5,5,0,0,1,1296,4936Z" transform="translate(-1150 -4896)"/>
</svg>
