<svg xmlns="http://www.w3.org/2000/svg" width="360" height="180" viewBox="0 0 360 180">
  <metadata><?xpacket begin="﻿" id="W5M0MpCehiHzreSzNTczkc9d"?>
<x:xmpmeta xmlns:x="adobe:ns:meta/" x:xmptk="Adobe XMP Core 5.6-c138 79.159824, 2016/09/14-01:09:01        ">
   <rdf:RDF xmlns:rdf="http://www.w3.org/1999/02/22-rdf-syntax-ns#">
      <rdf:Description rdf:about=""/>
   </rdf:RDF>
</x:xmpmeta>
                                                                                                    
                                                                                                    
                                                                                                    
                                                                                                    
                                                                                                    
                                                                                                    
                                                                                                    
                                                                                                    
                                                                                                    
                                                                                                    
                                                                                                    
                                                                                                    
                                                                                                    
                                                                                                    
                                                                                                    
                                                                                                    
                                                                                                    
                                                                                                    
                                                                                                    
                                                                                                    
                           
<?xpacket end="w"?></metadata>
<defs>
    <style>
      .cls-1 {
        fill: #f0f7f5;
        fill-rule: evenodd;
      }
    </style>
  </defs>
  <path id="bg" class="cls-1" d="M746,3618h97a10,10,0,0,1,0,20H646a10,10,0,0,0,0,20H951.834a10,10,0,1,0,0-20H883a10,10,0,0,1,0-20h73.834a10,10,0,1,0,0-20H813a10,10,0,0,1,0-20H938.834a10,10,0,1,0,0-20H895a10,10,0,0,1,0-20h74a10,10,0,0,0,0-20H840a10,10,0,0,0,0,20h15a10,10,0,0,1,0,20H769a10,10,0,0,1,0-20h30.834a10,10,0,1,0,0-20H750a10,10,0,0,1,0-20H869.834a10,10,0,1,0,0-20H646a10,10,0,0,0,0,20h64a10,10,0,0,1,0,20H631a10,10,0,0,0,0,20h98a10,10,0,0,1,0,20H689a10,10,0,0,0,0,20h85a10,10,0,0,1,0,20H746A10,10,0,0,0,746,3618Zm164-140h39a10,10,0,0,1,0,20H910A10,10,0,0,1,910,3478ZM629,3599l77-1a10,10,0,0,1,0,20l-77,1A10,10,0,0,1,629,3599Z" transform="translate(-619 -3478)"/>
</svg>
