<?xml version="1.0" encoding="utf-8"?>
<!-- Generator: Adobe Illustrator 21.1.0, SVG Export Plug-In . SVG Version: 6.00 Build 0)  -->
<svg version="1.1" id="icon" xmlns="http://www.w3.org/2000/svg" xmlns:xlink="http://www.w3.org/1999/xlink" x="0px" y="0px"
	 viewBox="0 0 140 106.1" style="enable-background:new 0 0 140 106.1;" xml:space="preserve">
<style type="text/css">
	.st0{fill:#226D4F;}
	.st1{fill:#16D488;}
	.st2{fill:#C1ECDB;}
</style>
<path id="Shape_1047_copy_7" class="st0" d="M92,72.1h25c1.1,0,2,0.9,2,2v26c0,3.3-2.7,6-6,6H96c-3.3,0-6-2.7-6-6v-26
	C90,73,90.9,72.1,92,72.1z"/>
<path class="st0" d="M119,77.1c-3.9,0-7,3.1-7,7s3.1,7,7,7s7-3.1,7-7S122.8,77.1,119,77.1z M119,89.1c-2.8,0-5-2.2-5-5s2.2-5,5-5
	s5,2.2,5,5S121.7,89.1,119,89.1z"/>
<path id="Shape_1047_copy_8" class="st1" d="M92,74.1h25v26c0,2.2-1.8,4-4,4H96c-2.2,0-4-1.8-4-4V74.1L92,74.1z"/>
<path id="Shape_1050_copy" class="st0" d="M135.5,42h-51C82,42,80,40,80,37.5v-33C80,2,82,0,84.4,0h51c2.5,0,4.5,2,4.5,4.5v33
	C140,40,138,42,135.5,42z"/>
<path class="st1" d="M82,37.5c0,1.4,1.1,2.5,2.5,2.5h51c1.4,0,2.5-1.1,2.5-2.5v-33c0-0.1,0-0.2,0-0.3l-25.3,18.3
	c-1.6,1.1-3.7,1.1-5.2,0L82,4.2c0,0.1,0,0.2,0,0.3V37.5z M135.5,2h-51c-0.5,0-1,0.1-1.4,0.4l25.5,18.4c0.9,0.6,2,0.6,2.9,0
	l25.5-18.4C136.5,2.2,136,2,135.5,2z"/>
<rect x="96" y="83.1" class="st0" width="9" height="10"/>
<rect x="99" y="74.1" class="st0" width="2" height="9"/>
<rect x="98" y="85.1" class="st2" width="5" height="6"/>
<path id="Shape_1055_copy_2" class="st1" d="M51.9,23c0.6,0,1.1,0.5,1.1,1.1l2,59.5c0.1,1.9-1.4,3.4-3.3,3.5c0,0-0.1,0-0.1,0H4.2
	c-1.9,0-3.4-1.5-3.4-3.4c0,0,0-0.1,0-0.1l2-59.5C2.9,23.5,3.4,23,4,23H51.9"/>
<path class="st0" d="M5.3,87.1c-2.4,0-4.3-1.9-4.3-4.3c0,0,0-0.1,0-0.1l2-57.6c0-1.1,1-2,2.1-2h45.8c1.1,0,2.1,0.9,2.1,2l2,57.6
	c0.1,2.4-1.8,4.3-4.1,4.4c0,0-0.1,0-0.1,0H5.3z M50.9,24.1c0.6,0,1.1,0.5,1.1,1.1l2,57.6c0.1,1.8-1.3,3.3-3.1,3.4c0,0-0.1,0-0.1,0
	H5.3c-1.8,0-3.3-1.4-3.3-3.2c0,0,0-0.1,0-0.1l2-57.6c0-0.6,0.5-1.1,1.1-1.1H50.9 M50.9,22.1H5c-1.7,0-3,1.3-3.1,3L0,82.6
	c-0.1,2.9,2.2,5.3,5.1,5.4c0.1,0,0.1,0,0.2,0h45.4c2.9,0,5.3-2.4,5.3-5.3c0-0.1,0-0.1,0-0.2l-2-57.6C53.9,23.4,52.6,22.1,50.9,22.1
	L50.9,22.1L50.9,22.1z"/>
<path id="Shape_1055_copy" class="st1" d="M50.9,23.6c0.6,0,1.1,0.5,1.1,1.1l2,58.5c0.1,1.8-1.3,3.4-3.1,3.4c0,0-0.1,0-0.1,0H5.3
	c-1.8,0-3.3-1.5-3.3-3.3c0,0,0-0.1,0-0.1l2-58.5C4,24,4.5,23.6,5,23.6H50.9"/>
<path class="st2" d="M48.1,28.1l1.8,54H6l1.8-54H48.1"/>
<path class="st0" d="M13,28.1c-1.7,0-3,1.3-3,3s1.3,3,3,3s3-1.3,3-3S14.6,28.1,13,28.1z M13,32.1c-0.6,0-1-0.4-1-1s0.4-1,1-1
	s1,0.4,1,1S13.5,32.1,13,32.1z"/>
<path class="st0" d="M43,28.1c-1.7,0-3,1.3-3,3s1.3,3,3,3s3-1.3,3-3S44.6,28.1,43,28.1z M43,32.1c-0.6,0-1-0.4-1-1s0.4-1,1-1
	s1,0.4,1,1S43.5,32.1,43,32.1z"/>
<path class="st0" d="M42,30.1v-3c0-7.7-6.3-14-14-14s-14,6.3-14,14l0,0v3h-2v-3c0-8.8,7.2-16,16-16s16,7.2,16,16v3H42z"/>
</svg>
