<svg id="icon2" xmlns="http://www.w3.org/2000/svg" width="227" height="159.06" viewBox="0 0 227 159.06">
  <metadata><?xpacket begin="﻿" id="W5M0MpCehiHzreSzNTczkc9d"?>
<x:xmpmeta xmlns:x="adobe:ns:meta/" x:xmptk="Adobe XMP Core 5.6-c138 79.159824, 2016/09/14-01:09:01        ">
   <rdf:RDF xmlns:rdf="http://www.w3.org/1999/02/22-rdf-syntax-ns#">
      <rdf:Description rdf:about=""/>
   </rdf:RDF>
</x:xmpmeta>
                                                                                                    
                                                                                                    
                                                                                                    
                                                                                                    
                                                                                                    
                                                                                                    
                                                                                                    
                                                                                                    
                                                                                                    
                                                                                                    
                                                                                                    
                                                                                                    
                                                                                                    
                                                                                                    
                                                                                                    
                                                                                                    
                                                                                                    
                                                                                                    
                                                                                                    
                                                                                                    
                           
<?xpacket end="w"?></metadata>
<defs>
    <style>
      .cls-1 {
        fill: #2c7457;
      }

      .cls-1, .cls-2, .cls-3 {
        fill-rule: evenodd;
        opacity: 0.5;
      }

      .cls-2 {
        fill: #16d488;
      }

      .cls-3 {
        fill: #226d4f;
      }
    </style>
  </defs>
  <path id="Rectangle_131_copy_16" data-name="Rectangle 131 copy 16" class="cls-1" d="M844.656,3487.07L842,3484.41l-2.657,2.66-1.414-1.42,2.656-2.65-2.656-2.66,1.414-1.41,2.657,2.65,2.656-2.65,1.415,1.41-2.657,2.66,2.657,2.65Z" transform="translate(-686 -3478.94)"/>
  <path id="Rectangle_175_copy_16" data-name="Rectangle 175 copy 16" class="cls-2" d="M720,3634h-3v3a1,1,0,0,1-2,0v-3h-3a1,1,0,0,1,0-2h3v-3a1,1,0,0,1,2,0v3h3A1,1,0,0,1,720,3634Z" transform="translate(-686 -3478.94)"/>
  <path id="Rectangle_175_copy_16-2" data-name="Rectangle 175 copy 16" class="cls-3" d="M695,3562h-3v3a1,1,0,0,1-2,0v-3h-3a1,1,0,0,1,0-2h3v-3a1,1,0,0,1,2,0v3h3A1,1,0,0,1,695,3562Z" transform="translate(-686 -3478.94)"/>
  <path id="Rounded_Rectangle_10_copy_13" data-name="Rounded Rectangle 10 copy 13" class="cls-2" d="M912,3538h-7a1,1,0,0,1-1-1v-7a1,1,0,0,1,1-1h7a1,1,0,0,1,1,1v7A1,1,0,0,1,912,3538Zm-1-7h-5v5h5v-5Z" transform="translate(-686 -3478.94)"/>
  <path id="Shape_981_copy_12" data-name="Shape 981 copy 12" class="cls-1" d="M909.261,3606.55l-11.4.2,5.876-9.77Zm-7.9-1.82,4.471-.08-2.168-3.75Z" transform="translate(-686 -3478.94)"/>
  <path id="Ellipse_42_copy_15" data-name="Ellipse 42 copy 15" class="cls-2" d="M741,3509a4,4,0,1,1,4-4A4,4,0,0,1,741,3509Zm0-6a2,2,0,1,0,2,2A2,2,0,0,0,741,3503Z" transform="translate(-686 -3478.94)"/>
</svg>
