<svg id="logo1" xmlns="http://www.w3.org/2000/svg" width="91.406" height="156" viewBox="0 0 91.406 156">
  <metadata><?xpacket begin="﻿" id="W5M0MpCehiHzreSzNTczkc9d"?>
<x:xmpmeta xmlns:x="adobe:ns:meta/" x:xmptk="Adobe XMP Core 5.6-c138 79.159824, 2016/09/14-01:09:01        ">
   <rdf:RDF xmlns:rdf="http://www.w3.org/1999/02/22-rdf-syntax-ns#">
      <rdf:Description rdf:about=""/>
   </rdf:RDF>
</x:xmpmeta>
                                                                                                    
                                                                                                    
                                                                                                    
                                                                                                    
                                                                                                    
                                                                                                    
                                                                                                    
                                                                                                    
                                                                                                    
                                                                                                    
                                                                                                    
                                                                                                    
                                                                                                    
                                                                                                    
                                                                                                    
                                                                                                    
                                                                                                    
                                                                                                    
                                                                                                    
                                                                                                    
                           
<?xpacket end="w"?></metadata>
<defs>
    <style>
      .cls-1 {
        fill: #00b4b4;
        fill-rule: evenodd;
      }
    </style>
  </defs>
  <path class="cls-1" d="M46.168,0a41.07,41.07,0,1,0,41.168,41.07h0A41.147,41.147,0,0,0,46.168,0ZM32.655,10.338a32.577,32.577,0,0,1,13.513-2.8,30.959,30.959,0,0,1,5.57.484L32.655,26.959h0V10.338h0ZM20.692,63a33.459,33.459,0,0,1,0-43.824V63ZM46.168,74.648a34.175,34.175,0,0,1-13.513-2.8V39.861h0L43.262,50.442V70.059H54.353V61.506l8.67,8.649a34.362,34.362,0,0,1-16.855,4.493h0Zm8.185-28.216V36.381h4.407a5.025,5.025,0,1,1,0,10.051H54.353ZM70.239,64.5l-8.96-8.99c6.49-.24,11.672-6.376,11.672-13.914,0-7.682-5.376-13.867-12.06-13.867H45.732L43.31,30.148V37.59l-4.165-4.156L61.424,11.209A33.511,33.511,0,0,1,76.148,56.336,35.828,35.828,0,0,1,70.239,64.5h0Z" transform="translate(-0.594)"/>
  <path id="Shape_532_copy_2" data-name="Shape 532 copy 2" class="cls-1" d="M11.553,111.634a6.564,6.564,0,0,0-4.311-1.3H1.14a0.55,0.55,0,0,0-.387.146,0.547,0.547,0,0,0-.145.386v14.785a0.537,0.537,0,0,0,.533.532H3.319a0.78,0.78,0,0,0,.436-0.145,0.551,0.551,0,0,0,.145-0.387v-5.315H7.242a6.733,6.733,0,0,0,4.311-1.256,4.533,4.533,0,0,0,1.55-3.72A4.457,4.457,0,0,0,11.553,111.634Zm-2.422,5.558a3.1,3.1,0,0,1-2.034.629H3.8v-4.929H7.1a2.889,2.889,0,0,1,2.034.676,2.359,2.359,0,0,1,.678,1.836,2.322,2.322,0,0,1-.678,1.788h0Zm17.388-5.46a7.009,7.009,0,0,0-4.795-1.594,7.009,7.009,0,0,0-4.795,1.594,6.409,6.409,0,0,0-1.889,4.637v3.866a6.037,6.037,0,0,0,1.841,4.638,6.863,6.863,0,0,0,4.843,1.547,7.1,7.1,0,0,0,4.843-1.547,6.189,6.189,0,0,0,1.84-4.638c0.048-.869.048-1.546,0.048-1.932s0-1.062-.048-1.934A6.047,6.047,0,0,0,26.519,111.732Zm-1.4,8.408a4.215,4.215,0,0,1-.969,2.8,3.687,3.687,0,0,1-4.843,0,4.215,4.215,0,0,1-.969-2.8v-3.673a3.989,3.989,0,0,1,.969-2.8,3.625,3.625,0,0,1,4.795,0,3.99,3.99,0,0,1,.969,2.8c0.048,0.87.048,1.5,0.048,1.836v1.837h0ZM41.1,110.814a8.075,8.075,0,0,0-3.536-.676,6.692,6.692,0,0,0-4.843,1.642,6.317,6.317,0,0,0-1.84,4.541v4.011a6.225,6.225,0,0,0,1.84,4.541,6.879,6.879,0,0,0,4.843,1.595,8.09,8.09,0,0,0,3.536-.677,5.513,5.513,0,0,0,2.325-1.883,4.861,4.861,0,0,0,.872-2.706,0.437,0.437,0,0,0-.145-0.338,0.518,0.518,0,0,0-.339-0.146H41.581a0.774,0.774,0,0,0-.436.146,1.945,1.945,0,0,0-.242.434,3.3,3.3,0,0,1-1.211,1.982,3.7,3.7,0,0,1-2.228.58c-2.18,0-3.294-1.21-3.39-3.625v-3.816c0.1-2.417,1.211-3.624,3.39-3.624a3.69,3.69,0,0,1,2.228.579,3.017,3.017,0,0,1,1.162,1.982,0.783,0.783,0,0,0,.242.434,0.591,0.591,0,0,0,.436.145h2.228a0.439,0.439,0,0,0,.339-0.145,0.417,0.417,0,0,0,.145-0.29v-0.048a4.86,4.86,0,0,0-.872-2.7A4.688,4.688,0,0,0,41.1,110.814Zm15.6,0a8.075,8.075,0,0,0-3.536-.676,6.692,6.692,0,0,0-4.843,1.642,6.317,6.317,0,0,0-1.84,4.541v4.011a6.225,6.225,0,0,0,1.84,4.541,6.879,6.879,0,0,0,4.843,1.595,8.09,8.09,0,0,0,3.536-.677,5.514,5.514,0,0,0,2.325-1.883,4.862,4.862,0,0,0,.872-2.706,0.437,0.437,0,0,0-.145-0.338,0.519,0.519,0,0,0-.339-0.146H57.177a0.774,0.774,0,0,0-.436.146,1.953,1.953,0,0,0-.242.434,3.294,3.294,0,0,1-1.211,1.982,3.7,3.7,0,0,1-2.228.58c-2.179,0-3.293-1.21-3.39-3.625v-3.816c0.1-2.417,1.211-3.624,3.39-3.624a3.69,3.69,0,0,1,2.228.579,3.016,3.016,0,0,1,1.162,1.982,0.783,0.783,0,0,0,.242.434,0.591,0.591,0,0,0,.436.145h2.228a0.439,0.439,0,0,0,.339-0.145,0.418,0.418,0,0,0,.145-0.29v-0.048a4.861,4.861,0,0,0-.872-2.7A4.688,4.688,0,0,0,56.692,110.814Zm19.179-.484H73.935a0.774,0.774,0,0,0-.678.388L65.8,121.3V110.911a0.5,0.5,0,0,0-.533-0.532H63.134a0.5,0.5,0,0,0-.533.532V125.7a0.5,0.5,0,0,0,.533.532h1.937a0.774,0.774,0,0,0,.678-0.386l7.41-10.293V125.7a0.548,0.548,0,0,0,.145.387,0.591,0.591,0,0,0,.436.145h2.083a0.5,0.5,0,0,0,.533-0.532V110.911a0.55,0.55,0,0,0-.145-0.387A0.325,0.325,0,0,0,75.872,110.33Zm15.935,0.146a0.55,0.55,0,0,0-.388-0.146H85.752a6.332,6.332,0,0,0-3.1.676,4.739,4.739,0,0,0-1.937,1.838,4.845,4.845,0,0,0-.63,2.608,5.122,5.122,0,0,0,.775,2.9,4.431,4.431,0,0,0,2.228,1.741L79.8,125.454a0.432,0.432,0,0,0-.049.241,0.5,0.5,0,0,0,.484.484h2.083a1.288,1.288,0,0,0,.581-0.145,1.344,1.344,0,0,0,.339-0.435l3.051-5.123H88.8v5.171a0.552,0.552,0,0,0,.145.387,0.591,0.591,0,0,0,.436.145h2.083A0.5,0.5,0,0,0,92,125.647V110.862A0.971,0.971,0,0,0,91.807,110.476Zm-3.051,7.44H85.9a2.2,2.2,0,0,1-2.518-2.416,2.533,2.533,0,0,1,.678-1.884,2.413,2.413,0,0,1,1.84-.724h2.858v5.024h0Z" transform="translate(-0.594)"/>
  <path id="Shape_532_copy" data-name="Shape 532 copy" class="cls-1" d="M14.647,147.538l4.262-6.959a0.678,0.678,0,0,0,.1-0.289,0.437,0.437,0,0,0-.145-0.339,0.527,0.527,0,0,0-.339-0.145H16.2a0.913,0.913,0,0,0-.823.386l-3.681,6.04H9.755v-5.8a0.58,0.58,0,0,0-.533-0.58H7.091A0.553,0.553,0,0,0,6.7,140a0.547,0.547,0,0,0-.145.388v14.784a0.538,0.538,0,0,0,.533.532H9.174a0.767,0.767,0,0,0,.436-0.147,0.543,0.543,0,0,0,.145-0.385v-6.039h2.131l3.875,6.232a0.775,0.775,0,0,0,.678.387h2.373a0.5,0.5,0,0,0,.533-0.532,0.366,0.366,0,0,0-.049-0.243Zm12.544,8.454a7.1,7.1,0,0,0,4.843-1.546,6.2,6.2,0,0,0,1.84-4.637c0.048-.872.048-1.548,0.048-1.934s0-1.064-.048-1.933a6.048,6.048,0,0,0-1.889-4.639,7,7,0,0,0-4.795-1.594A6.837,6.837,0,0,0,22.4,141.3a6.41,6.41,0,0,0-1.889,4.639v3.867a6.044,6.044,0,0,0,1.84,4.637A7.1,7.1,0,0,0,27.191,155.992Zm-3.39-10a3.985,3.985,0,0,1,.969-2.8,3.625,3.625,0,0,1,4.795,0,3.984,3.984,0,0,1,.969,2.8c0.048,0.871.048,1.5,0.048,1.837s0,0.966-.048,1.836a4.229,4.229,0,0,1-.969,2.8,3.692,3.692,0,0,1-4.843,0,4.229,4.229,0,0,1-.969-2.8v-1.836c0.048-.773.048-1.4,0.048-1.837h0Zm13.61,9.761H54.943a0.774,0.774,0,0,0,.436-0.146,0.547,0.547,0,0,0,.145-0.386V140.387A0.547,0.547,0,0,0,55.379,140a0.6,0.6,0,0,0-.436-0.144H52.861a0.553,0.553,0,0,0-.388.144,0.547,0.547,0,0,0-.145.388V152.85h-4.5V140.387a0.5,0.5,0,0,0-.484-0.532H45.16a0.786,0.786,0,0,0-.436.144,0.547,0.547,0,0,0-.145.388V152.85h-4.5V140.387A0.547,0.547,0,0,0,39.929,140a0.6,0.6,0,0,0-.436-0.144H37.41a0.5,0.5,0,0,0-.533.532v14.832a0.538,0.538,0,0,0,.533.532h0Zm22.182,0H69.812a0.774,0.774,0,0,0,.436-0.146,0.547,0.547,0,0,0,.145-0.386v-1.546a0.549,0.549,0,0,0-.145-0.387,0.591,0.591,0,0,0-.436-0.145H62.16v-4.107h6.974a0.787,0.787,0,0,0,.436-0.145,0.545,0.545,0,0,0,.145-0.386v-1.449a0.58,0.58,0,0,0-.533-0.58H62.16v-3.961h7.459a0.783,0.783,0,0,0,.436-0.147,0.545,0.545,0,0,0,.145-0.385v-1.594a0.58,0.58,0,0,0-.533-0.581H59.593a0.554,0.554,0,0,0-.388.145,0.546,0.546,0,0,0-.145.387v14.785a0.517,0.517,0,0,0,.533.628h0Zm24.6-14.592a6.559,6.559,0,0,0-4.311-1.3h-6.1A0.553,0.553,0,0,0,73.4,140a0.547,0.547,0,0,0-.145.388v14.784a0.538,0.538,0,0,0,.533.532h2.179a0.768,0.768,0,0,0,.436-0.147,0.543,0.543,0,0,0,.145-0.385v-5.314h3.342A6.734,6.734,0,0,0,84.2,148.6,5.24,5.24,0,0,0,84.2,141.159Zm-2.422,5.556a3.09,3.09,0,0,1-2.034.628H76.448v-4.929h3.293a2.891,2.891,0,0,1,2.034.678,2.358,2.358,0,0,1,.678,1.836,2.257,2.257,0,0,1-.678,1.787h0Z" transform="translate(-0.594)"/>
</svg>
