<?xml version="1.0" encoding="utf-8"?>
<!-- Generator: Adobe Illustrator 21.1.0, SVG Export Plug-In . SVG Version: 6.00 Build 0)  -->
<svg version="1.1" id="_1" xmlns="http://www.w3.org/2000/svg" xmlns:xlink="http://www.w3.org/1999/xlink" x="0px" y="0px"
	 viewBox="0 0 114 78" style="enable-background:new 0 0 114 78;" xml:space="preserve">
<style type="text/css">
	.st0{fill:none;}
	.st1{fill:#16D488;}
	.st2{fill:#C1ECDB;}
	.st3{fill:#226D4F;}
	.st4{fill:none;stroke:#16D488;stroke-width:0;stroke-linecap:round;stroke-linejoin:round;}
</style>
<g>
	<polygon class="st0" points="65.1,2 65.4,8 65.4,8 65.1,2 	"/>
	<polygon class="st0" points="51,2 50.9,2 50.6,8 50.6,8 51,2 	"/>
	<path class="st1" d="M15,26.7c-1.1,1-2.5,1.7-4,2.1V74c0,1.1,0.9,2,2,2h50v-4H15V26.7z"/>
	<path class="st1" d="M99,26.7V72H87v4h14c1.1,0,2-0.9,2-2V28.8c-0.2,0-0.3-0.1-0.5-0.1C101.2,28.3,100,27.6,99,26.7z"/>
	<polygon class="st2" points="50.5,10 50,20 50.5,10 	"/>
	<path class="st2" d="M82,20.6C82,20.6,82,20.6,82,20.6c0.3,3.6,3.2,6.5,6.9,6.5c0,0,0,0,0,0C85.3,27,82.3,24.2,82,20.6z"/>
	<path class="st2" d="M99,26.7c-0.8-0.7-1.5-1.6-2-2.6C95.5,27,92.5,29,89,29c-3.5,0-6.5-2-8-4.8c-1.5,2.9-4.5,4.8-8,4.8
		c-2.2,0-4.2-0.8-5.7-2.1c-1-0.8-1.7-1.7-2.3-2.9C63.5,27,60.5,29,57,29c0,0,0,0,0,0c-3.5,0-6.5-2-8-4.9c-0.6,1.1-1.4,2.1-2.3,2.9
		c-1.6,1.3-3.6,2.1-5.7,2.1c-3.3,0-6.2-1.8-7.8-4.5c-1.6,2.7-4.5,4.5-7.8,4.5c-0.1,0-0.1,0-0.2,0c-0.1,0-0.1,0-0.2,0
		c-2.5,0-4.8-1-6.4-2.7C18,25.7,17.4,25,17,24.1c-0.5,1-1.2,1.9-2,2.6V72h48V58v-2V38c0-1.1,0.9-2,2-2h20c1.1,0,2,0.9,2,2v18v2v14
		h12V26.7z M53,41c0,1.1-0.9,2-2,2v15c0,1.1-0.9,2-2,2H29c-1.1,0-2-0.9-2-2V43c-1.1,0-2-0.9-2-2v-3c0-1.1,0.9-2,2-2h2h20h2
		c1.1,0,2,0.9,2,2V41z"/>
	<rect x="29" y="43" class="st2" width="20" height="15"/>
	<path class="st3" d="M51,36h-2H29h-2c-1.1,0-2,0.9-2,2v3c0,1.1,0.9,2,2,2v15c0,1.1,0.9,2,2,2h20c1.1,0,2-0.9,2-2V43
		c1.1,0,2-0.9,2-2v-3C53,36.9,52.1,36,51,36z M49,58H29V43h20V58z M51,41H27v-3h2h20h2V41z"/>
	<polygon class="st1" points="29,38 27,38 27,41 51,41 51,38 49,38 	"/>
	<rect x="65" y="58" class="st2" width="20" height="18"/>
	<rect x="65" y="38" class="st2" width="20" height="18"/>
	<path class="st3" d="M107.8,2.7c-0.5-1.2-1.5-2.1-2.7-2.5c-0.4-0.1-0.8-0.2-1.2-0.2H92.8h-2.1H78.9h-2H65h-2H51.1h-2H37.2h-2H23.3
		l0,0H10.1C8.4,0,6.9,1,6.3,2.6L0,19.8v0V20v0c0,5,4,9,9,9v45c0,2.2,1.8,4,4,4h52h20h16c2.2,0,4-1.8,4-4V29c0.1,0,0.1,0,0.2,0
		c5,0,9-4,9-9v-0.2L107.8,2.7z M10.1,2h10.6L16,19.8l0,0.3c0,3.9-3,7-6.9,7.1c-3.9,0-7-3-7.1-6.9L8.2,3.3C8.5,2.5,9.3,2,10.1,2z
		 M34.8,2L32,19.8l0,0.2c0,3.9-3.1,7-6.9,7.1c-3.9,0-7-3.1-7.1-6.9L22.8,2H34.8z M41,27c-3.9,0-7-3.1-7-7L36.9,2h12.1L48,20
		C48,23.9,44.9,27,41,27z M64,20c0,3.9-3.1,7-7,7c-3.9,0-7-3.1-7-7l0.5-10h0l0.1-2h0l0.3-6h0h0h12.1L64,20z M66,20L65.4,8h0l-0.3-6
		h0h0h0h12.1L80,20.1c0,3.9-3.2,7-7.1,6.9C69.1,27,66,23.8,66,20z M79.2,2h12.1h0L96,20.1c0,3.9-3.2,7-7.1,6.9c0,0,0,0,0,0
		c0,0,0,0,0,0c-3.7,0-6.6-2.9-6.9-6.5c0,0,0,0,0,0c0-0.2,0-0.4,0-0.6L79.2,2L79.2,2L79.2,2z M98,20L93.3,2h10.6
		c0.8,0,1.6,0.5,1.9,1.3l6.2,16.9c0,3.9-3.2,7-7.1,6.9C101,27,98,23.9,98,20z M65,76V58h20v18H65z M85,56H65V38h20V56z M103,74
		c0,1.1-0.9,2-2,2H87v-4V58v-2V38c0-1.1-0.9-2-2-2H65c-1.1,0-2,0.9-2,2v18v2v14v4H13c-1.1,0-2-0.9-2-2V28.8c1.5-0.3,2.9-1.1,4-2.1
		c0.8-0.7,1.5-1.6,2-2.6c0.4,0.8,1,1.6,1.6,2.2C20.3,28,22.5,29,25,29c0.1,0,0.1,0,0.2,0c0.1,0,0.1,0,0.2,0c3.3,0,6.2-1.8,7.8-4.5
		c1.6,2.7,4.4,4.5,7.8,4.5c2.2,0,4.2-0.8,5.7-2.1c1-0.8,1.7-1.8,2.3-2.9c1.5,2.9,4.5,4.9,8,4.9c0,0,0,0,0,0c3.5,0,6.5-2,8-4.9
		c0.6,1.1,1.4,2.1,2.3,2.9c1.6,1.3,3.6,2.1,5.7,2.1c3.5,0,6.5-2,8-4.8c1.5,2.9,4.5,4.8,8,4.8c3.5,0,6.5-2,8-4.9c0.5,1,1.2,1.8,2,2.6
		c1,0.9,2.2,1.6,3.5,2c0.2,0,0.3,0.1,0.5,0.1V74z"/>
	<path class="st1" d="M51,2l-0.3,6l-0.1,2L50,20c0,3.9,3.2,7,7,7c3.9,0,7-3.2,7-7L63.1,2H51z"/>
	<path class="st1" d="M9.1,27.1c3.9,0,7-3.2,6.9-7.1l0-0.3L20.7,2H10.1C9.3,2,8.5,2.5,8.2,3.3L2,20.2C2,24,5.2,27.1,9.1,27.1z"/>
	<path class="st1" d="M104.9,27.1c3.9,0,7-3,7.1-6.9l-6.2-16.9c-0.3-0.8-1-1.3-1.9-1.3H93.3L98,20C98,23.9,101,27,104.9,27.1z"/>
	<path class="st1" d="M72.9,27c3.9,0,7-3.1,7.1-6.9L77.1,2H65.1l0.3,6L66,20C66,23.8,69.1,27,72.9,27z"/>
	<line class="st4" x1="65.1" y1="2" x2="65.1" y2="2"/>
	<line class="st4" x1="51" y1="2" x2="51" y2="2"/>
	<line class="st4" x1="65.1" y1="2" x2="65.1" y2="2"/>
	<line class="st4" x1="79.2" y1="2" x2="79.2" y2="2"/>
	<path class="st1" d="M22.8,2L18,20.1c0,3.9,3.2,7,7.1,6.9c3.9,0,7-3.2,6.9-7.1l0-0.2L34.8,2H22.8z"/>
	<path class="st1" d="M82,20c0,0.2,0,0.4,0,0.6c0.3,3.6,3.2,6.5,6.9,6.5c0,0,0,0,0,0c3.9,0,7-3.1,7.1-6.9L91.2,2h0H79.2L82,20z"/>
	<path class="st1" d="M48,20l0.9-18H36.9L34,20.1c0,3.9,3.2,7,7,7C44.9,27,48,23.9,48,20z"/>
</g>
</svg>
