<svg id="_1_1" data-name="1_1" xmlns="http://www.w3.org/2000/svg" width="222.375" height="113.06" viewBox="0 0 222.375 113.06">
  <metadata><?xpacket begin="﻿" id="W5M0MpCehiHzreSzNTczkc9d"?>
<x:xmpmeta xmlns:x="adobe:ns:meta/" x:xmptk="Adobe XMP Core 5.6-c138 79.159824, 2016/09/14-01:09:01        ">
   <rdf:RDF xmlns:rdf="http://www.w3.org/1999/02/22-rdf-syntax-ns#">
      <rdf:Description rdf:about=""/>
   </rdf:RDF>
</x:xmpmeta>
                                                                                                    
                                                                                                    
                                                                                                    
                                                                                                    
                                                                                                    
                                                                                                    
                                                                                                    
                                                                                                    
                                                                                                    
                                                                                                    
                                                                                                    
                                                                                                    
                                                                                                    
                                                                                                    
                                                                                                    
                                                                                                    
                                                                                                    
                                                                                                    
                                                                                                    
                                                                                                    
                           
<?xpacket end="w"?></metadata>
<defs>
    <style>
      .cls-1 {
        fill: #226d4f;
      }

      .cls-1, .cls-2 {
        fill-rule: evenodd;
        opacity: 0.5;
      }

      .cls-2 {
        fill: #16d488;
      }
    </style>
  </defs>
  <path id="Rectangle_131_copy_19" data-name="Rectangle 131 copy 19" class="cls-1" d="M277.656,4208.07L275,4205.41l-2.657,2.66-1.415-1.42,2.657-2.65-2.657-2.66,1.415-1.42,2.657,2.66,2.656-2.66,1.415,1.42-2.657,2.66,2.657,2.65Z" transform="translate(-244.625 -4199.94)"/>
  <path id="Rectangle_133_copy_6" data-name="Rectangle 133 copy 6" class="cls-1" d="M256.8,4255.61l-2.6,1.5-1.733,1-1-1.73-1.5-2.6-4.331,2.5-1-1.73,4.331-2.5,1.732-1,2.5,4.33,2.6-1.5,1.732-1,2.5,4.33,4.33-2.5,1,1.73-4.33,2.5-1.732,1Z" transform="translate(-244.625 -4199.94)"/>
  <path id="Ellipse_40_copy_8" data-name="Ellipse 40 copy 8" class="cls-1" d="M461,4268a6,6,0,1,1,6-6A6,6,0,0,1,461,4268Zm0-10a4,4,0,1,0,4,4A4,4,0,0,0,461,4258Z" transform="translate(-244.625 -4199.94)"/>
  <path id="Ellipse_40_copy_9" data-name="Ellipse 40 copy 9" class="cls-2" d="M454,4313a6,6,0,1,1,6-6A6,6,0,0,1,454,4313Zm0-10a4,4,0,1,0,4,4A4,4,0,0,0,454,4303Z" transform="translate(-244.625 -4199.94)"/>
  <path id="Rectangle_131_copy_18" data-name="Rectangle 131 copy 18" class="cls-2" d="M266.656,4305.07L264,4302.41l-2.657,2.66-1.414-1.42,2.656-2.65-2.656-2.66,1.414-1.42,2.657,2.66,2.656-2.66,1.415,1.42-2.657,2.66,2.657,2.65Z" transform="translate(-244.625 -4199.94)"/>
  <path id="Rectangle_175_copy_22" data-name="Rectangle 175 copy 22" class="cls-2" d="M449,4225h-3v3a1,1,0,0,1-2,0v-3h-3a1,1,0,0,1,0-2h3v-3a1,1,0,0,1,2,0v3h3A1,1,0,0,1,449,4225Z" transform="translate(-244.625 -4199.94)"/>
</svg>
