<svg xmlns="http://www.w3.org/2000/svg" width="300" height="180" viewBox="0 0 300 180">
  <metadata><?xpacket begin="﻿" id="W5M0MpCehiHzreSzNTczkc9d"?>
<x:xmpmeta xmlns:x="adobe:ns:meta/" x:xmptk="Adobe XMP Core 5.6-c138 79.159824, 2016/09/14-01:09:01        ">
   <rdf:RDF xmlns:rdf="http://www.w3.org/1999/02/22-rdf-syntax-ns#">
      <rdf:Description rdf:about=""/>
   </rdf:RDF>
</x:xmpmeta>
                                                                                                    
                                                                                                    
                                                                                                    
                                                                                                    
                                                                                                    
                                                                                                    
                                                                                                    
                                                                                                    
                                                                                                    
                                                                                                    
                                                                                                    
                                                                                                    
                                                                                                    
                                                                                                    
                                                                                                    
                                                                                                    
                                                                                                    
                                                                                                    
                                                                                                    
                                                                                                    
                           
<?xpacket end="w"?></metadata>
<defs>
    <style>
      .cls-1 {
        fill: #e0eee9;
        fill-rule: evenodd;
      }
    </style>
  </defs>
  <path id="_1_bg" data-name="1_bg" class="cls-1" d="M239,4312h17a10,10,0,0,1,0,20H229a10,10,0,0,0,0,20H484.834a10,10,0,1,0,0-20H296a10,10,0,0,1,0-20H499.834a10,10,0,1,0,0-20H456a10,10,0,0,1,0-20h21.834a10,10,0,1,0,0-20H468a10,10,0,0,1,0-20h35a10,10,0,0,0,0-20H423a10,10,0,0,0,0,20h5a10,10,0,0,1,0,20H352a10,10,0,0,1,0-20h30.834a10,10,0,1,0,0-20H363a10,10,0,0,1,0-20h79.834a10,10,0,1,0,0-20H249a10,10,0,0,0,0,20h74a10,10,0,0,1,0,20H304a10,10,0,0,0,0,20h8a10,10,0,0,1,0,20H229a10,10,0,0,0,0,20H416a10,10,0,0,1,0,20H239A10,10,0,0,0,239,4312Zm-16-80h41a10,10,0,0,0,0-20H223A10,10,0,0,0,223,4232Z" transform="translate(-213 -4172)"/>
</svg>
