<?xml version="1.0" encoding="utf-8"?>
<!-- Generator: Adobe Illustrator 21.1.0, SVG Export Plug-In . SVG Version: 6.00 Build 0)  -->
<svg version="1.1" id="_2" xmlns="http://www.w3.org/2000/svg" xmlns:xlink="http://www.w3.org/1999/xlink" x="0px" y="0px"
	 viewBox="0 0 131.9 77" style="enable-background:new 0 0 131.9 77;" xml:space="preserve">
<style type="text/css">
	.st0{fill:none;}
	.st1{fill:#226D4F;}
	.st2{fill:#16D488;}
	.st3{fill:#C1ECDB;}
</style>
<g>
	<path class="st0" d="M109.6,38.6c0-4.2-1.5-8.4-4.7-11.7c-3-3.1-7.2-4.8-11.5-4.7c-4.3,0-8.5,1.7-11.6,4.7
		c-3.2,3.2-4.9,7.4-4.9,11.6c0,4.2,1.5,8.4,4.7,11.7c3,3.1,7.2,4.8,11.5,4.8l0,0c4.3,0,8.5-1.7,11.6-4.7
		C107.9,47,109.6,42.8,109.6,38.6z"/>
	<path class="st1" d="M132.7,36.1C131.6,15.9,114.9,0,94.6,0l0,0c-0.1,0-0.3,0-0.4,0c-0.1,0-0.3,0-0.4,0l0,0c-0.8,0-1.6,0-2.4,0.1
		C77,1,64.4,9.8,58.4,22.8L11.1,23C5,23,0.1,27.9,0.1,34L0,53.4v0.1c0.1,2.8,1.2,5.4,3.2,7.4c0.1,0.1,0.2,0.2,0.3,0.3
		c2,1.9,4.7,2.9,7.4,2.9c0.1,0,0.3,0,0.4,0c0,0,0,0,0.1,0c0.1,0,0.2,0,0.3,0c0.1,0,0.3,0,0.4,0c5.8-0.3,10.4-4.9,10.6-10.7v-0.1
		l0-8.4l1.4,0l0,8.4v0.1c0.2,5.9,5,10.6,10.9,10.6c0.1,0,0.3,0,0.4,0c0,0,0,0,0.1,0c0.1,0,0.2,0,0.3,0c0.1,0,0.3,0,0.4,0
		c5.8-0.3,10.4-4.9,10.6-10.7v0v0l0-8.4l8.4,0C58.4,63.3,74.4,77,93.1,77c0.1,0,0.3,0,0.4,0c0.2,0,0.3,0,0.5,0c0.8,0,1.6,0,2.4-0.1
		C117.6,75.5,133.8,57.4,132.7,36.1z M20,42.9l0,10.4c-0.2,4.7-3.9,8.5-8.7,8.8c-0.1,0-0.2,0-0.4,0c-2.3,0-4.4-0.8-6.1-2.4
		c-0.1-0.1-0.2-0.1-0.2-0.2c-1.6-1.6-2.5-3.8-2.6-6L2.1,34c0-5,4-9,9-9l48.7-0.2C65.1,11.8,77.4,3,91.4,2.1C92.2,2,93,2,93.7,2l0,0
		c19.2,0,35.1,15.1,36.1,34.3c1,20.1-14.3,37.4-34.4,38.7c-0.8,0-1.5,0.1-2.3,0.1c-18.4,0-33.9-13.9-35.9-32.2l-13,0l0,10.4
		C44,58,40.2,61.8,35.5,62c-0.1,0-0.2,0-0.4,0c-4.8,0-8.8-3.8-8.9-8.6l0-10.5L20,42.9z"/>
	<path class="st1" d="M93.1,56.9c10.2,0,18.5-8.3,18.5-18.5c0-4.8-1.9-9.5-5.3-13c-3.4-3.4-8.1-5.3-12.9-5.3
		c-10.2,0-18.5,8.3-18.5,18.5c0,4.8,1.9,9.5,5.3,13C83.6,55,88.3,56.9,93.1,56.9z M93.1,54.9c-4.3,0-8.4-1.7-11.5-4.8
		c-3.2-3.2-4.8-7.5-4.7-11.7c0-4.2,1.7-8.4,4.9-11.6c3.1-3,7.2-4.7,11.6-4.7c4.3,0,8.4,1.7,11.5,4.7c3.2,3.3,4.7,7.5,4.7,11.7
		c0,4.2-1.7,8.4-5,11.6C101.6,53.2,97.5,54.9,93.1,54.9L93.1,54.9z"/>
	<path class="st2" d="M35.1,62c0.1,0,0.2,0,0.4,0c4.7-0.2,8.5-4,8.7-8.8l0-10.4l13,0C59.2,61.1,74.7,75,93.1,75c0.8,0,1.5,0,2.3-0.1
		c20.1-1.3,35.4-18.5,34.4-38.7C128.8,17.1,113,2,93.7,2l0,0c-0.8,0-1.5,0-2.3,0.1c-14,0.9-26.3,9.7-31.7,22.7L11.1,25c-5,0-9,4-9,9
		L2,53.4c0.1,2.3,1,4.4,2.6,6c0.1,0.1,0.2,0.1,0.2,0.2c1.6,1.5,3.8,2.4,6.1,2.4c0.1,0,0.2,0,0.4,0c4.7-0.2,8.5-4,8.7-8.8l0-10.4
		l6.2,0l0,10.5C26.3,58.1,30.3,62,35.1,62z M26.2,38.9l-6.3,0l-4,0l0,4l0,10.3c-0.1,2.6-2.2,4.7-4.8,4.9h-0.2
		c-1.3,0-2.5-0.5-3.4-1.3c0,0-0.1-0.1-0.1-0.1c-0.9-0.9-1.4-2-1.4-3.3L6.1,34c0-2.8,2.2-5,5-5l48.7-0.2l2.7,0l1-2.5
		C68.3,14.8,79.2,6.9,91.7,6.1C92.4,6,93.1,6,93.8,6v0c17.1,0,31.2,13.4,32.1,30.5c0.9,17.9-12.7,33.3-30.7,34.5
		c-0.7,0-1.4,0.1-2.1,0.1c-16.4,0-30.2-12.4-32-28.7l-0.4-3.6l-3.6,0l-13,0l-4,0l0,4l0,10.3c-0.1,2.6-2.2,4.7-4.8,4.9h-0.2
		c-1.3,0-2.5-0.5-3.4-1.3c-0.9-0.9-1.5-2.1-1.5-3.4l0-10.4l0-4L26.2,38.9z"/>
	<path class="st2" d="M93.2,60.9c12.4,0,22.5-10.1,22.5-22.5c0-5.9-2.3-11.6-6.5-15.8c-4.2-4.2-9.8-6.5-15.7-6.5
		C81,16.1,71,26.2,71,38.6c0,5.9,2.3,11.6,6.5,15.8C81.6,58.6,87.3,61,93.2,60.9z M93.4,20.1c4.8,0,9.5,1.9,12.9,5.3
		c3.4,3.5,5.3,8.1,5.3,13c0,10.2-8.3,18.5-18.5,18.5c-4.8,0-9.5-1.9-12.9-5.3c-3.4-3.5-5.3-8.1-5.3-13
		C74.9,28.4,83.2,20.1,93.4,20.1z"/>
	<path class="st3" d="M30.2,42.9l0,10.4c0,1.3,0.6,2.5,1.5,3.4c0.9,0.9,2.1,1.3,3.4,1.3h0.2c2.6-0.1,4.7-2.2,4.8-4.9l0-10.3l0-4l4,0
		l13,0l3.6,0l0.4,3.6C63,58.7,76.8,71,93.2,71c0.7,0,1.4,0,2.1-0.1c17.9-1.2,31.6-16.5,30.7-34.5C125,19.4,110.9,6,93.8,6v0
		c-0.7,0-1.4,0-2.1,0.1c-12.5,0.8-23.4,8.7-28.2,20.3l-1,2.5l-2.7,0L11.1,29c-2.8,0-5,2.3-5,5L6,53.4c0,1.2,0.6,2.4,1.4,3.3
		c0,0,0.1,0.1,0.1,0.1c0.9,0.9,2.1,1.3,3.4,1.3h0.2c2.6-0.1,4.7-2.2,4.8-4.9l0-10.3l0-4l4,0l6.3,0l4,0L30.2,42.9z M93.5,16.1
		c5.9,0,11.6,2.3,15.7,6.5c4.1,4.2,6.5,9.9,6.5,15.8c0,12.4-10.1,22.5-22.5,22.5c-5.9,0-11.6-2.3-15.7-6.5
		c-4.1-4.2-6.5-9.9-6.5-15.8C71,26.2,81,16.1,93.5,16.1z"/>
</g>
</svg>
