<svg id="_2_1" data-name="2_1" xmlns="http://www.w3.org/2000/svg" width="238" height="113" viewBox="0 0 238 113">
  <metadata><?xpacket begin="﻿" id="W5M0MpCehiHzreSzNTczkc9d"?>
<x:xmpmeta xmlns:x="adobe:ns:meta/" x:xmptk="Adobe XMP Core 5.6-c138 79.159824, 2016/09/14-01:09:01        ">
   <rdf:RDF xmlns:rdf="http://www.w3.org/1999/02/22-rdf-syntax-ns#">
      <rdf:Description rdf:about=""/>
   </rdf:RDF>
</x:xmpmeta>
                                                                                                    
                                                                                                    
                                                                                                    
                                                                                                    
                                                                                                    
                                                                                                    
                                                                                                    
                                                                                                    
                                                                                                    
                                                                                                    
                                                                                                    
                                                                                                    
                                                                                                    
                                                                                                    
                                                                                                    
                                                                                                    
                                                                                                    
                                                                                                    
                                                                                                    
                                                                                                    
                           
<?xpacket end="w"?></metadata>
<defs>
    <style>
      .cls-1 {
        fill: #16d488;
      }

      .cls-1, .cls-2 {
        fill-rule: evenodd;
        opacity: 0.5;
      }

      .cls-2 {
        fill: #226d4f;
      }
    </style>
  </defs>
  <path id="Rectangle_175_copy_15" data-name="Rectangle 175 copy 15" class="cls-1" d="M707,4308h-3v3a1,1,0,0,1-2,0v-3h-3a1,1,0,0,1,0-2h3v-3a1,1,0,0,1,2,0v3h3A1,1,0,0,1,707,4308Z" transform="translate(-683 -4199)"/>
  <path id="Ellipse_40_copy_6" data-name="Ellipse 40 copy 6" class="cls-1" d="M704,4212a6,6,0,1,1,6-6A6,6,0,0,1,704,4212Zm0-10a4,4,0,1,0,4,4A4,4,0,0,0,704,4202Z" transform="translate(-683 -4199)"/>
  <path id="Ellipse_40_copy_7" data-name="Ellipse 40 copy 7" class="cls-1" d="M915,4254a6,6,0,1,1,6-6A6,6,0,0,1,915,4254Zm0-10a4,4,0,1,0,4,4A4,4,0,0,0,915,4244Z" transform="translate(-683 -4199)"/>
  <path id="Rectangle_175_copy_20" data-name="Rectangle 175 copy 20" class="cls-2" d="M905,4298h-3v3a1,1,0,0,1-2,0v-3h-3a1,1,0,0,1,0-2h3v-3a1,1,0,0,1,2,0v3h3A1,1,0,0,1,905,4298Z" transform="translate(-683 -4199)"/>
  <path id="Rectangle_175_copy_21" data-name="Rectangle 175 copy 21" class="cls-2" d="M893,4205h-3v3a1,1,0,0,1-2,0v-3h-3a1,1,0,0,1,0-2h3v-3a1,1,0,0,1,2,0v3h3A1,1,0,0,1,893,4205Z" transform="translate(-683 -4199)"/>
  <path id="Rounded_Rectangle_10_copy_15" data-name="Rounded Rectangle 10 copy 15" class="cls-2" d="M691,4261h-7a1,1,0,0,1-1-1v-7a1,1,0,0,1,1-1h7a1,1,0,0,1,1,1v7A1,1,0,0,1,691,4261Zm-1-7h-5v5h5v-5Z" transform="translate(-683 -4199)"/>
</svg>
