<svg xmlns="http://www.w3.org/2000/svg" width="300" height="180" viewBox="0 0 300 180">
  <metadata><?xpacket begin="﻿" id="W5M0MpCehiHzreSzNTczkc9d"?>
<x:xmpmeta xmlns:x="adobe:ns:meta/" x:xmptk="Adobe XMP Core 5.6-c138 79.159824, 2016/09/14-01:09:01        ">
   <rdf:RDF xmlns:rdf="http://www.w3.org/1999/02/22-rdf-syntax-ns#">
      <rdf:Description rdf:about=""/>
   </rdf:RDF>
</x:xmpmeta>
                                                                                                    
                                                                                                    
                                                                                                    
                                                                                                    
                                                                                                    
                                                                                                    
                                                                                                    
                                                                                                    
                                                                                                    
                                                                                                    
                                                                                                    
                                                                                                    
                                                                                                    
                                                                                                    
                                                                                                    
                                                                                                    
                                                                                                    
                                                                                                    
                                                                                                    
                                                                                                    
                           
<?xpacket end="w"?></metadata>
<defs>
    <style>
      .cls-1 {
        fill: #e0eee9;
        fill-rule: evenodd;
      }
    </style>
  </defs>
  <path id="_2_bg" data-name="2_bg" class="cls-1" d="M659,4252h92a10,10,0,0,0,0-20H693a10,10,0,0,1,0-20H852a10,10,0,0,0,0-20H768a10,10,0,0,1,0-20H931.834a10,10,0,1,1,0,20H892a10,10,0,0,0,0,20h9.834a10,10,0,1,1,0,20H791a10,10,0,0,0,0,20H926.886a10,10,0,1,1-.052,20H895a10,10,0,0,0,0,20h43.834a10,10,0,1,1,0,20H770a10,10,0,0,0-.006,20H815a10,10,0,0,1,0,20H677a10,10,0,0,1,0-20h53.006a10,10,0,0,0-.006-20H678a10,10,0,0,1,0-20H855a10,10,0,0,0,0-20H659A10,10,0,0,1,659,4252Zm69-60H659a10,10,0,0,1,0-20h69A10,10,0,0,1,728,4192Zm196,160H855a10,10,0,0,1,0-20h69A10,10,0,0,1,924,4352Z" transform="translate(-649 -4172)"/>
</svg>
