<?xml version="1.0" encoding="utf-8"?>
<!-- Generator: Adobe Illustrator 21.1.0, SVG Export Plug-In . SVG Version: 6.00 Build 0)  -->
<svg version="1.1" id="_3" xmlns="http://www.w3.org/2000/svg" xmlns:xlink="http://www.w3.org/1999/xlink" x="0px" y="0px"
	 viewBox="0 0 139.9 64" style="enable-background:new 0 0 139.9 64;" xml:space="preserve">
<style type="text/css">
	.st0{fill:none;}
	.st1{fill:#226D4F;}
	.st2{fill:#16D488;}
	.st3{fill:#C1ECDB;}
</style>
<g>
	<path class="st0" d="M82.7,11.5c7-6.2,15.2-9.5,23.6-9.5h0C97.9,2,89.7,5.3,82.7,11.5L69.3,23.4l0,0L82.7,11.5z"/>
	<path class="st0" d="M48.1,42.1l11.6-10.2c-0.6-0.3-1.1-0.7-1.6-1.1l-12.8-11c-3.6-2.9-8-4.3-12.3-4.1c4.3-0.2,8.7,1.2,12.3,4.1
		l12.8,11c0.5,0.4,1,0.8,1.6,1.1L48.1,42.1c-4.7,4.2-9.6,6.3-14.4,6.3h0C38.5,48.4,43.3,46.3,48.1,42.1z"/>
	<path class="st0" d="M56.5,32L44,21.3c-4-3.2-9.1-4.3-13.8-3.3c-2.8,0.6-5.4,2-7.6,4.2c-3,2.4-4.8,6-4.9,9.9
		c0.1,3.7,1.9,7.2,4.8,9.6c3.6,3.1,7.4,4.7,11.3,4.7c1.1,0,2.1-0.1,3.2-0.4c3.2-0.7,6.5-2.6,9.7-5.4L56.5,32z"/>
	<path class="st0" d="M2,32.2c0-8.3,3.7-16.2,10-21.7C17.9,5.1,25.5,2.1,33.5,2h0c-8,0.1-15.6,3.1-21.5,8.5C5.7,15.9,2,23.8,2,32.2
		c0.1,8.2,3.7,16.1,10,21.4c5.9,5.3,13.7,8.3,21.7,8.4h0c-8,0-15.7-3-21.6-8.4C5.7,48.2,2.1,40.4,2,32.2z"/>
	<path class="st0" d="M85.9,54.9L85.9,54.9c-2.6-2.3-5.2-4.5-7.8-6.7c-1.8-1.5-3.5-3-5.2-4.5c-1-0.8-1.8-1.9-2.2-3.1l0,0
		c0.4,1.2,1.2,2.3,2.2,3.1c1.7,1.5,3.5,3,5.2,4.5C80.7,50.4,83.3,52.7,85.9,54.9L85.9,54.9L85.9,54.9c5.9,4.7,12.9,7,20,7
		C98.8,61.9,91.8,59.6,85.9,54.9L85.9,54.9z"/>
	<path class="st0" d="M118.8,43.2c3.4-2.8,5.4-6.9,5.6-11.3c-0.1-4.3-2.1-8.3-5.5-11.1c-4-3.5-8.2-5.2-12.6-5.2h0
		c4.4,0,8.6,1.8,12.6,5.2c3.3,2.7,5.3,6.8,5.5,11.1C124.2,36.3,122.2,40.4,118.8,43.2c-3.4,3.2-8,5-12.7,5.1h0
		C110.8,48.2,115.4,46.4,118.8,43.2z"/>
	<path class="st0" d="M83.4,32L83.4,32l2.9,2.5l0.1,0.1c3.1,2.7,6.4,5.5,9.6,8.2c2.9,2.3,6.5,3.5,10.2,3.6c1,0,2-0.1,3-0.3
		c3-0.6,5.8-2.1,8.1-4.2c3-2.4,4.8-6,4.9-9.8c-0.1-3.7-1.9-7.2-4.8-9.5c-3.6-3.1-7.4-4.7-11.3-4.7c-1,0-2.1,0.1-3.1,0.3
		c-3.2,0.7-6.5,2.5-9.7,5.4L83.4,32z"/>
	<path class="st1" d="M124.4,31.9c-0.1-4.3-2.1-8.3-5.5-11.1c-4-3.5-8.2-5.2-12.6-5.2c-4.8,0-9.7,2.1-14.4,6.3L80.2,32.1
		c0.6,0.3,1.1,0.7,1.6,1.1l3.3,2.8c3.1,2.7,6.4,5.5,9.6,8.2c3.3,2.6,7.3,4,11.4,4c4.7-0.1,9.2-1.9,12.7-5.1
		C122.2,40.4,124.2,36.3,124.4,31.9z M106.1,17.6c3.9,0,7.7,1.6,11.3,4.7c2.9,2.3,4.7,5.8,4.8,9.5c-0.1,3.8-1.9,7.4-4.9,9.8
		c-2.3,2.1-5.1,3.6-8.1,4.2c-1,0.2-2,0.3-3,0.3c-3.7,0-7.3-1.3-10.2-3.6c-3.2-2.7-6.4-5.5-9.6-8.2l-0.1-0.1L83.4,32h0l9.8-8.6
		c3.2-2.9,6.5-4.7,9.7-5.4C104,17.8,105,17.6,106.1,17.6z"/>
	<path class="st1" d="M59.7,31.8c-0.6-0.3-1.1-0.7-1.6-1.1l-12.8-11c-3.6-2.9-8-4.3-12.3-4.1s-8.6,1.9-11.9,5.1
		c-3.4,2.8-5.4,6.9-5.6,11.4c0.1,4.3,2.1,8.4,5.5,11.1c3.9,3.4,8.2,5.2,12.6,5.2c4.8,0,9.7-2.1,14.4-6.3L59.7,31.8z M33.8,46.3
		c-3.9,0-7.7-1.6-11.3-4.7c-2.9-2.3-4.7-5.8-4.8-9.6c0.1-3.8,1.9-7.4,4.9-9.9c2.2-2.1,4.8-3.5,7.6-4.2c4.7-1,9.8,0,13.8,3.3L56.5,32
		l-9.7,8.6c-3.2,2.9-6.5,4.7-9.7,5.4C36,46.2,34.9,46.3,33.8,46.3z"/>
	<path class="st1" d="M138.3,22.2c-1.7-5.1-4.8-9.7-9.1-13.3c-6.3-5.7-14.5-8.8-23-8.8c-8.9,0-17.5,3.5-24.9,10L69.8,20.2
		c-0.4-0.6-0.9-1.1-1.5-1.5c-1.7-1.5-3.5-3-5.2-4.5C60.5,12,58,9.8,55.4,7.6l-0.1-0.1l-0.1,0l-0.1,0l-0.1-0.1
		C48.8,2.7,41.3,0.1,33.5,0v0h0v0h0C25,0.1,16.9,3.3,10.6,9C3.9,14.8,0,23.3,0,32.2c0,3.3,0.6,6.6,1.6,9.6c1.7,5.1,4.8,9.7,9.1,13.3
		c6.3,5.7,14.5,8.8,23,8.9c8.9,0,17.5-3.5,24.9-10l11.6-10.2c0.4,0.6,0.9,1.1,1.5,1.5c1.7,1.5,3.4,3,5.2,4.5l0.1,0
		c2.6,2.2,5.2,4.4,7.7,6.6l0.1,0.1l0,0l0,0l0.1,0.1C98,67,116.8,66.4,129.3,55c6.7-5.8,10.6-14.3,10.7-23.2
		C139.9,28.5,139.4,25.2,138.3,22.2z M33.6,61.9L33.6,61.9L33.6,61.9c-8,0-15.7-3-21.7-8.4C5.7,48.2,2.1,40.4,2,32.2
		c0-8.3,3.7-16.2,10-21.7C17.9,5.1,25.5,2.1,33.5,2h0h0h0l0,0C40.9,2.1,48,4.5,53.9,8.9L54,9l0.1,0.1c2.6,2.2,5.1,4.4,7.7,6.6
		c1.8,1.5,3.5,3,5.3,4.5c1,0.8,1.8,1.9,2.2,3.1l13.4-11.8c7-6.2,15.2-9.5,23.6-9.5h0h0c8,0,15.7,3,21.7,8.4
		c6.3,5.3,9.9,13.2,10,21.4c0,8.3-3.7,16.2-10,21.7c-6.2,5.7-14.2,8.5-22.1,8.5c-7,0-14-2.4-19.9-7l-0.1-0.1l-0.1-0.1
		c-2.6-2.2-5.1-4.4-7.7-6.7c-1.8-1.5-3.5-3-5.2-4.5c-1-0.8-1.8-1.9-2.2-3.1L57.2,52.4C50.2,58.6,42.1,61.9,33.6,61.9z"/>
	<path class="st2" d="M70.7,40.6c0.4,1.2,1.2,2.3,2.2,3.1c1.7,1.5,3.5,3,5.2,4.5c2.6,2.2,5.2,4.4,7.7,6.7l0.1,0.1L86,55
		c5.8,4.6,12.9,6.9,19.9,7c7.9,0.1,15.9-2.8,22.1-8.5c6.3-5.5,9.9-13.4,10-21.7c0-8.2-3.7-16.1-10-21.4c-6-5.3-13.7-8.3-21.7-8.4h0
		c-8.4,0-16.6,3.3-23.6,9.5L69.3,23.4l0,0c-0.4-1.2-1.2-2.3-2.2-3.1c-1.8-1.5-3.5-3-5.3-4.5c-2.6-2.2-5.2-4.4-7.7-6.6L54,9l-0.1-0.1
		C48,4.5,40.9,2.1,33.5,2l0,0h0h0c-8,0.1-15.6,3.1-21.5,8.5C5.7,15.9,2,23.8,2,32.2c0.1,8.2,3.7,16.1,10,21.4
		c5.9,5.3,13.7,8.3,21.6,8.4h0c8.4,0,16.6-3.3,23.6-9.5L70.7,40.6L70.7,40.6z M14.6,13.5C19.8,8.8,26.5,6.1,33.5,6l0,0
		c6.5,0.1,12.8,2.3,18,6.1c4.3,3.8,8.7,7.5,13.1,11.3c1.3,1,1.5,2.9,0.5,4.2c-1.1,1.2-3,1.3-4.3,0.2L47.8,16.7
		c-8.2-6.4-20-7.2-29.4,1.1c-9.2,8.1-9.3,20.4-0.1,28.4c9.4,8.2,21.3,8.6,32.3-1.1l34.7-30.5c12.8-11.3,28.7-11,40-1.1
		c11.6,10.1,11.4,26.9,0,37.1c-10.3,9.4-25.9,10-36.9,1.4c-4.3-3.8-8.7-7.5-13.1-11.3c0,0,0,0,0,0c-1.3-1-1.5-2.9-0.5-4.2
		c1.1-1.2,3-1.3,4.3-0.2c4.3,3.7,8.7,7.5,13,11.2c8.2,6.4,19.9,7.1,29.3-1.2c9.2-8.1,9.2-20.4,0-28.4c-9.4-8.2-21.3-8.7-32.3,1.1
		L54.6,49.4c-12.8,11.3-28.7,11-40,1.1C3,40.5,3.1,23.6,14.6,13.5z M21.1,43.2c-3.4-2.7-5.4-6.8-5.5-11.1c0.1-4.4,2.1-8.6,5.6-11.4
		c3.3-3.2,7.6-4.9,11.9-5.1c4.3-0.2,8.7,1.2,12.3,4.1l12.8,11c0.5,0.4,1,0.8,1.6,1.1L48.1,42.1c-4.7,4.2-9.6,6.3-14.4,6.3h0
		C29.3,48.4,25,46.6,21.1,43.2z M94.7,44.3c-3.2-2.7-6.5-5.5-9.6-8.2l-3.3-2.8c-0.5-0.4-1-0.8-1.6-1.1l11.6-10.2
		c4.7-4.2,9.5-6.3,14.4-6.3h0c4.4,0,8.7,1.8,12.6,5.2c3.3,2.7,5.3,6.8,5.5,11.1c-0.1,4.4-2.1,8.5-5.6,11.3c-3.4,3.2-8,5-12.7,5.1h0
		C102,48.3,98,46.8,94.7,44.3z"/>
	<path class="st3" d="M54.6,49.4l34.7-30.5c11-9.8,22.8-9.3,32.3-1.1c9.2,8,9.1,20.3,0,28.4c-9.4,8.3-21.1,7.6-29.3,1.2
		c-4.4-3.7-8.7-7.4-13-11.2c-1.2-1.1-3.1-1-4.3,0.2c-1,1.3-0.8,3.2,0.5,4.2c0,0,0,0,0,0c4.3,3.8,8.7,7.5,13.1,11.3
		c11,8.6,26.6,8.1,36.9-1.4c11.4-10.1,11.6-27,0-37.1c-11.3-9.9-27.2-10.1-40,1.1L50.7,45.1c-11,9.8-22.9,9.4-32.3,1.1
		c-9.2-8-9.1-20.3,0.1-28.4c9.4-8.3,21.2-7.5,29.4-1.1l12.9,11.1c1.2,1.1,3.1,1,4.3-0.2c1-1.3,0.8-3.2-0.5-4.2
		c-4.3-3.8-8.8-7.5-13.1-11.3c-5.2-3.9-11.5-6-18-6.1l0,0c-7,0.1-13.7,2.8-18.9,7.5c-11.4,10.1-11.6,27,0,37.1
		C25.9,60.4,41.8,60.7,54.6,49.4z"/>
</g>
</svg>
