<svg xmlns="http://www.w3.org/2000/svg" width="300" height="180" viewBox="0 0 300 180">
  <metadata><?xpacket begin="﻿" id="W5M0MpCehiHzreSzNTczkc9d"?>
<x:xmpmeta xmlns:x="adobe:ns:meta/" x:xmptk="Adobe XMP Core 5.6-c138 79.159824, 2016/09/14-01:09:01        ">
   <rdf:RDF xmlns:rdf="http://www.w3.org/1999/02/22-rdf-syntax-ns#">
      <rdf:Description rdf:about=""/>
   </rdf:RDF>
</x:xmpmeta>
                                                                                                    
                                                                                                    
                                                                                                    
                                                                                                    
                                                                                                    
                                                                                                    
                                                                                                    
                                                                                                    
                                                                                                    
                                                                                                    
                                                                                                    
                                                                                                    
                                                                                                    
                                                                                                    
                                                                                                    
                                                                                                    
                                                                                                    
                                                                                                    
                                                                                                    
                                                                                                    
                           
<?xpacket end="w"?></metadata>
<defs>
    <style>
      .cls-1 {
        fill: #e0eee9;
        fill-rule: evenodd;
      }
    </style>
  </defs>
  <path id="_3_bg" data-name="3_bg" class="cls-1" d="M1109,4252h81a10,10,0,0,1,0,20h-81A10,10,0,0,1,1109,4252Zm269,20h-37a10,10,0,0,0,0,20h18a10,10,0,0,1,0,20H1192a10,10,0,0,0,0,20h97a10,10,0,0,1,0,20H1123.17a10,10,0,1,1,0-20H1152a10,10,0,0,0,0-20h-53.83a10,10,0,1,1,0-20H1292a10,10,0,0,0,0-20h-61.83a10,10,0,1,1-.06-20H1246a10,10,0,0,0,0-20H1125.17a10,10,0,1,1,0-20H1285a10,10,0,0,0,0-20H1105.17a10,10,0,1,1,0-20H1349a10,10,0,0,1,0,20h-14a10,10,0,0,0,0,20h29a10,10,0,0,1,0,20h-78a10,10,0,0,0,0,20h92A10,10,0,0,1,1378,4272Zm-49,60h31a10,10,0,0,1,0,20h-31A10,10,0,0,1,1329,4332Z" transform="translate(-1088 -4172)"/>
</svg>
