<svg id="_1" data-name="1" xmlns="http://www.w3.org/2000/svg" width="75.938" height="76.001" viewBox="0 0 75.938 76.001">
  <metadata><?xpacket begin="﻿" id="W5M0MpCehiHzreSzNTczkc9d"?>
<x:xmpmeta xmlns:x="adobe:ns:meta/" x:xmptk="Adobe XMP Core 5.6-c138 79.159824, 2016/09/14-01:09:01        ">
   <rdf:RDF xmlns:rdf="http://www.w3.org/1999/02/22-rdf-syntax-ns#">
      <rdf:Description rdf:about=""/>
   </rdf:RDF>
</x:xmpmeta>
                                                                                                    
                                                                                                    
                                                                                                    
                                                                                                    
                                                                                                    
                                                                                                    
                                                                                                    
                                                                                                    
                                                                                                    
                                                                                                    
                                                                                                    
                                                                                                    
                                                                                                    
                                                                                                    
                                                                                                    
                                                                                                    
                                                                                                    
                                                                                                    
                                                                                                    
                                                                                                    
                           
<?xpacket end="w"?></metadata>
<defs>
    <style>
      .cls-1 {
        fill: #226d4f;
      }

      .cls-1, .cls-2, .cls-3 {
        fill-rule: evenodd;
      }

      .cls-2 {
        fill: #16d488;
      }

      .cls-3 {
        fill: #c1ecdb;
      }
    </style>
  </defs>
  <path class="cls-1" d="M486.051,1026.46a4.214,4.214,0,0,1-2.62,2l-3.358.87a20.918,20.918,0,0,1-2,7.74l2.49,2.49a4.346,4.346,0,0,1,.053,6.14l-3.512,3.51a4.345,4.345,0,0,1-6.142-.05l-2.489-2.49a20.954,20.954,0,0,1-7.743,2l-0.887,3.42a4.159,4.159,0,0,1-1.981,2.56,4.273,4.273,0,0,1-3.3.41l-5.122-1.43a4.42,4.42,0,0,1-2.844-5.26l0.871-3.36a21.741,21.741,0,0,1-5.746-5.74l-3.359.87a4.426,4.426,0,0,1-5.344-3.12l-1.346-4.85a4.314,4.314,0,0,1,.407-3.31,4.209,4.209,0,0,1,2.621-1.99l3.358-.87a20.918,20.918,0,0,1,2-7.74l-2.489-2.49a4.358,4.358,0,0,1-.053-6.15l3.511-3.51a4.346,4.346,0,0,1,6.142.06l2.49,2.49a20.772,20.772,0,0,1,7.745-2l0.87-3.36a4.206,4.206,0,0,1,2-2.62,4.276,4.276,0,0,1,3.3-.41l4.722,1.31h0.281l0.119,0.12a4.42,4.42,0,0,1,2.842,5.26l-0.87,3.36a21.6,21.6,0,0,1,5.747,5.74l3.357-.87a4.426,4.426,0,0,1,5.345,3.12l1.378,4.99A4.265,4.265,0,0,1,486.051,1026.46Zm-21.84-3.94a7.279,7.279,0,1,0,.1,10.39A7.355,7.355,0,0,0,464.211,1022.52Z" transform="translate(-431.5 -979.219)"/>
  <path id="Shape_1055_copy_3" data-name="Shape 1055 copy 3" class="cls-1" d="M507.334,998.672l-0.728,2.808a2.88,2.88,0,0,1-3.583,2.06l-1.659-.46a12.427,12.427,0,0,1-2.952,2.97l0.458,1.68a2.925,2.925,0,0,1-.275,2.23,2.831,2.831,0,0,1-1.773,1.36l-2.79.73a2.911,2.911,0,0,1-2.231-.31,2.948,2.948,0,0,1-1.375-1.79l-0.459-1.68a12.632,12.632,0,0,1-4.073-1.13l-1.2,1.21c0,0.01,0,.01,0,0.01a2.85,2.85,0,0,1-2.065.84,2.89,2.89,0,0,1-2.083-.88l-2.5-2.51,0.025-.08a2.945,2.945,0,0,1,.385-3.64l1.2-1.22a12.881,12.881,0,0,1-1.123-4.109l-1.664-.46a2.993,2.993,0,0,1-2.1-3.618l0.728-2.81a2.863,2.863,0,0,1,1.357-1.785,2.894,2.894,0,0,1,2.223-.276l1.661,0.46a12.4,12.4,0,0,1,2.952-2.973l-0.459-1.677a2.925,2.925,0,0,1,.276-2.229,2.846,2.846,0,0,1,1.773-1.362l2.791-.734a2.978,2.978,0,0,1,3.6,2.107l0.459,1.678a12.811,12.811,0,0,1,4.073,1.13l1.2-1.21,0,0a2.863,2.863,0,0,1,2.063-.846,2.951,2.951,0,0,1,2.085.88l2.062,2.075a2.958,2.958,0,0,1,.028,4.162l-1.206,1.213a12.9,12.9,0,0,1,1.124,4.113l1.943,0.552A3,3,0,0,1,507.334,998.672Zm-12.6-3.963a3.91,3.91,0,0,0-1.8-2.358,3.79,3.79,0,0,0-2.9-.406,3.715,3.715,0,0,0-1.691.969,3.835,3.835,0,0,0-.975,3.73,3.89,3.89,0,0,0,4.706,2.764A3.8,3.8,0,0,0,494.737,994.709Z" transform="translate(-431.5 -979.219)"/>
  <path id="Shape_1055_copy" data-name="Shape 1055 copy" class="cls-2" d="M459.159,1046.72l0.747-.02a18.894,18.894,0,0,0,8.279-2.14l0.652-.34,3.531,3.53a2.348,2.348,0,0,0,3.31.04l3.511-3.51a2.344,2.344,0,0,0-.037-3.31l-3.531-3.53,0.343-.66a18.847,18.847,0,0,0,2.138-8.27l0.018-.75,4.788-1.24a2.285,2.285,0,0,0,1.675-2.6l-0.087-.09,0-.29-1.306-4.72a2.4,2.4,0,0,0-2.888-1.69l-4.775,1.24-0.395-.63a19.6,19.6,0,0,0-6.139-6.14l-0.629-.39,1.237-4.78a2.4,2.4,0,0,0-1.655-2.88l-0.033-.01-4.852-1.34a2.3,2.3,0,0,0-1.777.22,2.255,2.255,0,0,0-1.07,1.4l-1.239,4.79-0.748.02a18.9,18.9,0,0,0-8.283,2.13l-0.651.35-3.531-3.54a2.348,2.348,0,0,0-3.31-.03l-3.511,3.51a2.345,2.345,0,0,0,.037,3.31l3.531,3.53-0.342.65a18.926,18.926,0,0,0-2.14,8.28l-0.018.75-4.787,1.24a2.216,2.216,0,0,0-1.4,1.07,2.289,2.289,0,0,0-.219,1.77l1.347,4.86a2.4,2.4,0,0,0,2.888,1.69l4.774-1.24,0.395,0.63a19.6,19.6,0,0,0,6.139,6.14l0.629,0.39-1.237,4.78a2.4,2.4,0,0,0,1.568,2.85h0.269l0.106,0.11,4.6,1.27a2.3,2.3,0,0,0,1.777-.22,2.264,2.264,0,0,0,1.062-1.37Zm6.581-12.38a9.442,9.442,0,1,1-.121-13.23A9.374,9.374,0,0,1,465.74,1034.34Z" transform="translate(-431.5 -979.219)"/>
  <path id="Shape_1055_copy_2" data-name="Shape 1055 copy 2" class="cls-3" d="M485.5,1004.68l0.661,0.36a10.579,10.579,0,0,0,4.618,1.28l0.739,0.04,0.844,3.08a0.947,0.947,0,0,0,1.144.68l2.79-.74a0.871,0.871,0,0,0,.559-0.43,0.923,0.923,0,0,0,.088-0.71l-0.844-3.09,0.624-.39a10.445,10.445,0,0,0,3.348-3.37l0.389-.63,3.082,0.85a0.854,0.854,0,0,0,.7-0.09,0.894,0.894,0,0,0,.43-0.56l0.729-2.812a0.964,0.964,0,0,0-.565-1.128h-0.257l-0.105-.107-2.813-.777-0.03-.738a10.864,10.864,0,0,0-1.273-4.657l-0.35-.654,2.225-2.24a0.949,0.949,0,0,0-.011-1.335l-2.064-2.076a0.921,0.921,0,0,0-1.31-.015l-2.235,2.251-0.66-.358a10.725,10.725,0,0,0-4.62-1.285L490.587,985l-0.842-3.084a0.947,0.947,0,0,0-1.144-.676l-2.792.732a0.9,0.9,0,0,0-.558.43,0.939,0.939,0,0,0-.088.717l0.843,3.084-0.624.39a10.441,10.441,0,0,0-3.347,3.373l-0.39.634-3.081-.853a0.908,0.908,0,0,0-1.127.651l-0.728,2.813a0.959,0.959,0,0,0,.669,1.163l3.071,0.85,0.03,0.738a10.893,10.893,0,0,0,1.273,4.662l0.351,0.65-2.226,2.24a0.943,0.943,0,0,0,.011,1.33l2.064,2.08a0.926,0.926,0,0,0,.661.28,0.894,0.894,0,0,0,.649-0.27Zm9.687-4.813a5.707,5.707,0,0,1-2.583,1.483,5.924,5.924,0,0,1-7.167-4.2,5.767,5.767,0,0,1,8.5-6.526,5.94,5.94,0,0,1,2.738,3.576h0A5.828,5.828,0,0,1,495.183,999.867Z" transform="translate(-431.5 -979.219)"/>
</svg>
