<?xml version="1.0" encoding="utf-8"?>
<!-- Generator: Adobe Illustrator 21.1.0, SVG Export Plug-In . SVG Version: 6.00 Build 0)  -->
<svg version="1.1" id="_2" xmlns="http://www.w3.org/2000/svg" xmlns:xlink="http://www.w3.org/1999/xlink" x="0px" y="0px"
	 viewBox="0 0 52 77" width="52" height="77" style="enable-background:new 0 0 52 77;" xml:space="preserve">
<style type="text/css">
	.st0{fill:#226D4F;}
	.st1{fill:#16D488;}
	.st2{fill:#C1ECDB;}
</style>
<path class="st0" d="M51,25.8C51.1,12,40,0.7,26.2,0.7C12.3,0.6,1.1,11.7,1,25.5c0,8,3.7,15.5,10.1,20.2c3.5,2.6,5.4,7,4.9,11.3
	c-0.1,1,0,1.9,0.1,2.9c1.1,5.4,6.4,8.9,11.8,7.8c4.7-0.9,8-5,8-9.8c0-0.3,0-0.6,0-0.8c-0.5-4.4,1.4-8.8,4.9-11.5
	C47.2,41.1,51,33.7,51,25.8z M26,69c-0.7,0-1.5-0.1-2.2-0.2c-4.4-0.9-7.8-4.3-8.6-8.6c-0.2-1-0.2-2.1-0.1-3.2c0.5-4-1.3-8-4.5-10.5
	C3.9,41.7,0,34.1,0,25.9C0.1,11.5,11.8-0.1,26.1,0c6.6,0,12.9,2.6,17.7,7.1c5.2,4.8,8.1,11.6,8.1,18.7c0,8.2-3.9,15.9-10.6,20.7
	c-3.3,2.5-5,6.5-4.5,10.6c0,0.3,0,0.6,0,0.9c0,3.3-1.5,6.4-4,8.4C31,68.1,28.5,69,26,69z M26,2c-0.4,0-0.9,0-1.3,0
	C12,2.8,2.1,13.2,2,25.9c0,7.5,3.6,14.6,9.7,19c3.8,2.9,5.8,7.5,5.3,12.3c-0.1,0.9,0,1.8,0.1,2.6c0.7,3.6,3.5,6.3,7,7
	c2.7,0.5,5.4-0.2,7.5-1.9c2.1-1.7,3.3-4.2,3.3-6.9c0-0.3,0-0.5,0-0.7c-0.5-4.8,1.5-9.5,5.3-12.4c10.6-7.7,12.9-22.5,5.2-33.1
	c-0.9-1.2-1.9-2.3-2.9-3.3C38.1,4.3,32.1,2,26,2z M26,69c-0.7,0-1.5-0.1-2.2-0.2c-4.4-0.9-7.8-4.3-8.6-8.6c-0.2-1-0.2-2.1-0.1-3.2
	c0.5-4-1.3-8-4.5-10.5C3.9,41.8,0,34.1,0,25.9C0.1,11.5,11.8-0.1,26.2,0c6.6,0,12.9,2.6,17.7,7.1c5.2,4.8,8.1,11.6,8.1,18.7
	c0,8.2-3.9,15.9-10.6,20.7c-3.3,2.5-5,6.5-4.5,10.6c0,0.3,0,0.6,0,0.9c0,3.3-1.5,6.4-4,8.4C31,68.1,28.6,69,26,69z"/>
<path id="Shape_1050_copy" class="st1" d="M26,2c-0.4,0-0.9,0-1.3,0C12,2.8,2.1,13.2,2,25.9c0,7.5,3.6,14.6,9.7,19
	c3.8,2.9,5.8,7.5,5.3,12.3c-0.1,0.9,0,1.8,0.1,2.6c0.7,3.6,3.5,6.3,7,7c2.7,0.5,5.4-0.2,7.5-1.9c2.1-1.7,3.3-4.2,3.3-6.9
	c0-0.3,0-0.5,0-0.7c-0.5-4.8,1.5-9.5,5.3-12.4c10.6-7.7,12.9-22.5,5.2-33.1c-0.9-1.2-1.9-2.3-2.9-3.3C38.1,4.3,32.1,2,26,2z"/>
<path class="st2" d="M26,6c5.1,0,10,1.9,13.7,5.4c7.9,7.4,8.3,19.9,0.9,27.8c-0.8,0.9-1.8,1.7-2.8,2.4c-4.9,3.7-7.5,9.8-6.9,15.9
	c0,0.1,0,0.3,0,0.4c0,1.5-0.7,2.9-1.8,3.8c-0.9,0.7-2,1.1-3.2,1.1c-0.3,0-0.7,0-1-0.1c-1.9-0.4-3.5-1.9-3.8-3.8
	c-0.1-0.5-0.1-1-0.1-1.5c0.6-6.1-2-12.2-6.9-15.9C9.1,38,6.1,32.2,6,25.9C6.1,15.3,14.4,6.7,24.9,6C25.3,6,25.7,6,26,6"/>
<path id="Shape_1048_copy" class="st0" d="M28.3,57h-2.1l6.1-23.5c0-0.1,0-0.2,0-0.2l-0.7-2c0-0.2-0.2-0.3-0.3-0.3
	c-0.2,0-0.3,0.1-0.4,0.2l-0.2,0.3c-0.4,0.8-1.3,1.4-2.2,1.3c-0.9,0-1.8-0.6-2.1-1.5L26,30.6c-0.1-0.2-0.2-0.3-0.4-0.2
	c-0.2,0-0.3,0.1-0.4,0.3c-0.4,1.3-1.8,1.9-3,1.5c-0.5-0.2-0.9-0.4-1.2-0.8c-0.1-0.1-0.2-0.2-0.4-0.2c0,0,0,0,0,0
	c-0.1,0-0.3,0.1-0.3,0.2l-0.8,1.5c0,0.1-0.1,0.2,0,0.3L25.7,57h-2.1l-6-23.4c-0.1-0.6-0.1-1.2,0.2-1.7l0.8-1.5
	c0.4-0.7,1.1-1.2,1.9-1.3c0.8-0.1,1.6,0.3,2.1,1c0.1,0.2,0.3,0.2,0.4,0.2c0.1,0,0.3-0.1,0.3-0.3c0.4-1.3,1.8-1.9,3-1.5
	c0.7,0.2,1.2,0.7,1.5,1.3l0.4,0.9c0.1,0.1,0.2,0.2,0.4,0.2c0.2,0,0.3-0.1,0.4-0.2l0.2-0.3c0.6-1.2,2-1.7,3.2-1.1
	c0.6,0.3,1,0.8,1.2,1.4l0.7,2c0.2,0.4,0.2,0.9,0.1,1.4L28.3,57z"/>
<circle id="Ellipse_581_copy" class="st0" cx="26" cy="73" r="4"/>
<path id="Rectangle_566_copy_2" class="st0" d="M15,57h22v11c0,3.3-2.7,6-6,6H21c-3.3,0-6-2.7-6-6V57L15,57z"/>
<path id="Rectangle_566_copy_2-2" class="st1" d="M17,59h18v9c0,2.2-1.8,4-4,4H21c-2.2,0-4-1.8-4-4V59L17,59z"/>
<rect id="Rectangle_567_copy_3" x="17" y="62" class="st0" width="18" height="2"/>
<path id="Rectangle_567_copy_3-2" class="st0" d="M17,67h15c0.6,0,1,0.4,1,1l0,0c0,0.6-0.4,1-1,1H17V67L17,67z"/>
</svg>
