<svg xmlns="http://www.w3.org/2000/svg" width="140" height="90" viewBox="0 0 140 90">
  <metadata><?xpacket begin="﻿" id="W5M0MpCehiHzreSzNTczkc9d"?>
<x:xmpmeta xmlns:x="adobe:ns:meta/" x:xmptk="Adobe XMP Core 5.6-c138 79.159824, 2016/09/14-01:09:01        ">
   <rdf:RDF xmlns:rdf="http://www.w3.org/1999/02/22-rdf-syntax-ns#">
      <rdf:Description rdf:about=""/>
   </rdf:RDF>
</x:xmpmeta>
                                                                                                    
                                                                                                    
                                                                                                    
                                                                                                    
                                                                                                    
                                                                                                    
                                                                                                    
                                                                                                    
                                                                                                    
                                                                                                    
                                                                                                    
                                                                                                    
                                                                                                    
                                                                                                    
                                                                                                    
                                                                                                    
                                                                                                    
                                                                                                    
                                                                                                    
                                                                                                    
                           
<?xpacket end="w"?></metadata>
<defs>
    <style>
      .cls-1 {
        fill: #f0f7f5;
        fill-rule: evenodd;
      }
    </style>
  </defs>
  <path id="_2_bg" data-name="2_bg" class="cls-1" d="M489,1192H468a5,5,0,0,1,0-10h60a5,5,0,0,0,0-10H484a5,5,0,0,1,0-10h51a5,5,0,0,0,0-10H509a5,5,0,0,1,0-10h26a5,5,0,0,0,0-10H407a5,5,0,0,0,0,10h82a5,5,0,0,1,0,10H425a5,5,0,0,0,0,10h39a5,5,0,0,1,0,10H405a5,5,0,0,0,0,10h43a5,5,0,0,1,0,10H435a5,5,0,0,0,0,10h29a5,5,0,0,1,0,10H410a5,5,0,0,0,0,10H534a5,5,0,0,0,0-10H484a5,5,0,0,1,0-10h5A5,5,0,0,0,489,1192Zm46,0H509a5,5,0,0,0,0,10h26A5,5,0,0,0,535,1192Z" transform="translate(-400 -1132)"/>
</svg>
