<svg id="_3" data-name="3" xmlns="http://www.w3.org/2000/svg" width="92" height="73" viewBox="0 0 92 73">
  <metadata><?xpacket begin="﻿" id="W5M0MpCehiHzreSzNTczkc9d"?>
<x:xmpmeta xmlns:x="adobe:ns:meta/" x:xmptk="Adobe XMP Core 5.6-c138 79.159824, 2016/09/14-01:09:01        ">
   <rdf:RDF xmlns:rdf="http://www.w3.org/1999/02/22-rdf-syntax-ns#">
      <rdf:Description rdf:about=""/>
   </rdf:RDF>
</x:xmpmeta>
                                                                                                    
                                                                                                    
                                                                                                    
                                                                                                    
                                                                                                    
                                                                                                    
                                                                                                    
                                                                                                    
                                                                                                    
                                                                                                    
                                                                                                    
                                                                                                    
                                                                                                    
                                                                                                    
                                                                                                    
                                                                                                    
                                                                                                    
                                                                                                    
                                                                                                    
                                                                                                    
                           
<?xpacket end="w"?></metadata>
<defs>
    <style>
      .cls-1, .cls-2 {
        fill: #226d4f;
      }

      .cls-2, .cls-3, .cls-4 {
        fill-rule: evenodd;
      }

      .cls-3 {
        fill: #16d488;
      }

      .cls-4 {
        fill: #c1ecdb;
      }

      .cls-5 {
        fill: #fff;
      }
    </style>
  </defs>
  <rect class="cls-1" x="10" y="71" width="9" height="2"/>
  <rect id="Rectangle_574_copy" data-name="Rectangle 574 copy" class="cls-1" x="73" y="71" width="9" height="2"/>
  <path id="Shape_1053_copy" data-name="Shape 1053 copy" class="cls-2" d="M445,1299a1.024,1.024,0,0,1,1.026,1l0.95,37.95a1.03,1.03,0,0,1-1.027,1.05h-1.9a1.03,1.03,0,0,1-1.027-1.05l0.95-37.95a1.024,1.024,0,0,1,1.027-1" transform="translate(-425 -1299)"/>
  <path id="Shape_1053_copy_2" data-name="Shape 1053 copy 2" class="cls-2" d="M497,1299a1.024,1.024,0,0,1,1.027,1l0.95,37.95a1.03,1.03,0,0,1-1.027,1.05h-1.9a1.03,1.03,0,0,1-1.027-1.05l0.95-37.95a1.024,1.024,0,0,1,1.026-1" transform="translate(-425 -1299)"/>
  <path id="Rectangle_568_copy_4" data-name="Rectangle 568 copy 4" class="cls-2" d="M433,1336h76a8,8,0,0,1,8,8v18c0,4.42-1.582,8-6,8H433a8,8,0,0,1-8-8v-18A8,8,0,0,1,433,1336Z" transform="translate(-425 -1299)"/>
  <path id="Rectangle_568_copy_4-2" data-name="Rectangle 568 copy 4" class="cls-3" d="M433,1338h76a6,6,0,0,1,6,6v18c0,3.31-.686,6-4,6H433a6,6,0,0,1-6-6v-18A6,6,0,0,1,433,1338Z" transform="translate(-425 -1299)"/>
  <path id="Rectangle_568_copy_4-3" data-name="Rectangle 568 copy 4" class="cls-4" d="M433,1342h76a2,2,0,0,1,2,2v18c0,1.1,1.105,2,0,2H433a2,2,0,0,1-2-2v-18A2,2,0,0,1,433,1342Z" transform="translate(-425 -1299)"/>
  <path class="cls-2" d="M449,1359h44a2,2,0,0,1,2,2v9H447v-9A2,2,0,0,1,449,1359Z" transform="translate(-425 -1299)"/>
  <path id="Rectangle_570_copy" data-name="Rectangle 570 copy" class="cls-3" d="M449,1361h44v7H449v-7h0Z" transform="translate(-425 -1299)"/>
  <circle class="cls-1" cx="27.5" cy="65.5" r="1.5"/>
  <circle id="Ellipse_583_copy" data-name="Ellipse 583 copy" class="cls-1" cx="35.5" cy="65.5" r="1.5"/>
  <circle id="Ellipse_583_copy_2" data-name="Ellipse 583 copy 2" class="cls-1" cx="43.5" cy="65.5" r="1.5"/>
  <circle id="Ellipse_583_copy_4" data-name="Ellipse 583 copy 4" class="cls-5" cx="64.5" cy="65.5" r="1.5"/>
</svg>
