<svg xmlns="http://www.w3.org/2000/svg" width="140" height="90" viewBox="0 0 140 90">
  <metadata><?xpacket begin="﻿" id="W5M0MpCehiHzreSzNTczkc9d"?>
<x:xmpmeta xmlns:x="adobe:ns:meta/" x:xmptk="Adobe XMP Core 5.6-c138 79.159824, 2016/09/14-01:09:01        ">
   <rdf:RDF xmlns:rdf="http://www.w3.org/1999/02/22-rdf-syntax-ns#">
      <rdf:Description rdf:about=""/>
   </rdf:RDF>
</x:xmpmeta>
                                                                                                    
                                                                                                    
                                                                                                    
                                                                                                    
                                                                                                    
                                                                                                    
                                                                                                    
                                                                                                    
                                                                                                    
                                                                                                    
                                                                                                    
                                                                                                    
                                                                                                    
                                                                                                    
                                                                                                    
                                                                                                    
                                                                                                    
                                                                                                    
                                                                                                    
                                                                                                    
                           
<?xpacket end="w"?></metadata>
<defs>
    <style>
      .cls-1 {
        fill: #f0f7f5;
        fill-rule: evenodd;
      }
    </style>
  </defs>
  <path id="_3_bg" data-name="3_bg" class="cls-1" d="M406,1352h35a5,5,0,0,0,0-10H408a5,5,0,0,1,0-10h35a5,5,0,0,0,0-10H412a5,5,0,0,1,0-10h76a5,5,0,0,0,0-10H412a5,5,0,0,1,0-10H530a5,5,0,0,1,0,10H508a5,5,0,0,0,0,10h4a5,5,0,0,1,0,10H483a5,5,0,0,0,0,10h15a5,5,0,0,1,0,10h-9a5,5,0,0,0,0,10h33a5,5,0,0,1,0,10H463a5,5,0,0,0,0,10h64a5,5,0,0,1,0,10H413a5,5,0,0,1,0-10h30a5,5,0,0,0,0-10H406A5,5,0,0,1,406,1352Zm112-20h18a5,5,0,0,1,0,10H518A5,5,0,0,1,518,1332Z" transform="translate(-401 -1292)"/>
</svg>
