<svg id="_4" data-name="4" xmlns="http://www.w3.org/2000/svg" width="69" height="60.09" viewBox="0 0 69 60.09">
  <metadata><?xpacket begin="﻿" id="W5M0MpCehiHzreSzNTczkc9d"?>
<x:xmpmeta xmlns:x="adobe:ns:meta/" x:xmptk="Adobe XMP Core 5.6-c138 79.159824, 2016/09/14-01:09:01        ">
   <rdf:RDF xmlns:rdf="http://www.w3.org/1999/02/22-rdf-syntax-ns#">
      <rdf:Description rdf:about=""/>
   </rdf:RDF>
</x:xmpmeta>
                                                                                                    
                                                                                                    
                                                                                                    
                                                                                                    
                                                                                                    
                                                                                                    
                                                                                                    
                                                                                                    
                                                                                                    
                                                                                                    
                                                                                                    
                                                                                                    
                                                                                                    
                                                                                                    
                                                                                                    
                                                                                                    
                                                                                                    
                                                                                                    
                                                                                                    
                                                                                                    
                           
<?xpacket end="w"?></metadata>
<defs>
    <style>
      .cls-1, .cls-3 {
        fill: #226d4f;
      }

      .cls-1, .cls-2 {
        fill-rule: evenodd;
      }

      .cls-2, .cls-5 {
        fill: #c1ecdb;
      }

      .cls-4 {
        fill: #16d488;
      }
    </style>
  </defs>
  <path id="Rectangle_568_copy_6" data-name="Rectangle 568 copy 6" class="cls-1" d="M484,1472l3.941-3.94a4,4,0,0,1,5.657,0l3.942,3.94H484Z" transform="translate(-436 -1462.91)"/>
  <path id="Rectangle_568_copy_6-2" data-name="Rectangle 568 copy 6" class="cls-2" d="M484.828,1474l4.527-4.53a2,2,0,0,1,2.828,0l4.527,4.53H484.828Z" transform="translate(-436 -1462.91)"/>
  <path id="Rectangle_568_copy_7" data-name="Rectangle 568 copy 7" class="cls-1" d="M466,1471l6.941-6.94a4,4,0,0,1,5.657,0l6.942,6.94H466Z" transform="translate(-436 -1462.91)"/>
  <path id="Rectangle_568_copy_7-2" data-name="Rectangle 568 copy 7" class="cls-2" d="M466.828,1473l7.527-7.53a2,2,0,0,1,2.828,0l7.528,7.53H466.828Z" transform="translate(-436 -1462.91)"/>
  <path id="Rectangle_568_copy_3" data-name="Rectangle 568 copy 3" class="cls-3" d="M8,8.09H63a4,4,0,0,1,4,4v44a4,4,0,0,1-4,4H8a8,8,0,0,1-8-8v-36a8,8,0,0,1,8-8Z"/>
  <path id="Rectangle_568_copy" data-name="Rectangle 568 copy" class="cls-4" d="M8,10.09H63a2,2,0,0,1,2,2v44a2,2,0,0,1-2,2H8a6,6,0,0,1-6-6v-36a6,6,0,0,1,6-6Z"/>
  <path id="Rectangle_568_copy_2" data-name="Rectangle 568 copy 2" class="cls-2" d="M444,1477h57v40H444a2,2,0,0,1-2-2v-36A2,2,0,0,1,444,1477Z" transform="translate(-436 -1462.91)"/>
  <rect class="cls-3" x="51" y="26.09" width="18" height="16" rx="2" ry="2"/>
  <rect id="Rectangle_569_copy" data-name="Rectangle 569 copy" class="cls-4" x="53" y="28.09" width="14" height="12"/>
  <circle class="cls-3" cx="60" cy="34.09" r="4"/>
  <circle id="Ellipse_582_copy" data-name="Ellipse 582 copy" class="cls-5" cx="60" cy="34.09" r="2"/>
</svg>
