<svg xmlns="http://www.w3.org/2000/svg" width="140" height="90" viewBox="0 0 140 90">
  <metadata><?xpacket begin="﻿" id="W5M0MpCehiHzreSzNTczkc9d"?>
<x:xmpmeta xmlns:x="adobe:ns:meta/" x:xmptk="Adobe XMP Core 5.6-c138 79.159824, 2016/09/14-01:09:01        ">
   <rdf:RDF xmlns:rdf="http://www.w3.org/1999/02/22-rdf-syntax-ns#">
      <rdf:Description rdf:about=""/>
   </rdf:RDF>
</x:xmpmeta>
                                                                                                    
                                                                                                    
                                                                                                    
                                                                                                    
                                                                                                    
                                                                                                    
                                                                                                    
                                                                                                    
                                                                                                    
                                                                                                    
                                                                                                    
                                                                                                    
                                                                                                    
                                                                                                    
                                                                                                    
                                                                                                    
                                                                                                    
                                                                                                    
                                                                                                    
                                                                                                    
                           
<?xpacket end="w"?></metadata>
<defs>
    <style>
      .cls-1 {
        fill: #f0f7f5;
        fill-rule: evenodd;
      }
    </style>
  </defs>
  <path id="_4_bg" data-name="4_bg" class="cls-1" d="M406,1512h67a5,5,0,0,0,0-10H448a5,5,0,0,1,0-10h15a5,5,0,0,0,0-10H412a5,5,0,0,1,0-10h36a5,5,0,0,0,0-10h-6a5,5,0,0,1,0-10h88a5,5,0,0,1,0,10H468a5,5,0,0,0,0,10h44a5,5,0,0,1,0,10H483a5,5,0,0,0,0,10h53a5,5,0,0,1,0,10H493a5,5,0,0,0,0,10h26a5,5,0,0,1,0,10H463a5,5,0,0,0,0,10h63a5,5,0,0,1,0,10H413a5,5,0,0,1,0-10h30a5,5,0,0,0,0-10H406A5,5,0,0,1,406,1512Zm2-60h14a5,5,0,0,1,0,10H408A5,5,0,0,1,408,1452Zm0,40h20a5,5,0,0,1,0,10H408A5,5,0,0,1,408,1492Z" transform="translate(-401 -1452)"/>
</svg>
