<svg id="_1" data-name="1" xmlns="http://www.w3.org/2000/svg" width="76" height="50" viewBox="0 0 76 50">
  <metadata><?xpacket begin="﻿" id="W5M0MpCehiHzreSzNTczkc9d"?>
<x:xmpmeta xmlns:x="adobe:ns:meta/" x:xmptk="Adobe XMP Core 5.6-c138 79.159824, 2016/09/14-01:09:01        ">
   <rdf:RDF xmlns:rdf="http://www.w3.org/1999/02/22-rdf-syntax-ns#">
      <rdf:Description rdf:about=""/>
   </rdf:RDF>
</x:xmpmeta>
                                                                                                    
                                                                                                    
                                                                                                    
                                                                                                    
                                                                                                    
                                                                                                    
                                                                                                    
                                                                                                    
                                                                                                    
                                                                                                    
                                                                                                    
                                                                                                    
                                                                                                    
                                                                                                    
                                                                                                    
                                                                                                    
                                                                                                    
                                                                                                    
                                                                                                    
                                                                                                    
                           
<?xpacket end="w"?></metadata>
<defs>
    <style>
      .cls-1, .cls-3 {
        fill: #226d4f;
      }

      .cls-2 {
        fill: #c1ecdb;
      }

      .cls-2, .cls-3, .cls-4 {
        fill-rule: evenodd;
      }

      .cls-4 {
        fill: #16d488;
      }
    </style>
  </defs>
  <rect class="cls-1" width="70" height="44" rx="2" ry="2"/>
  <path id="Rectangle_180_copy" data-name="Rectangle 180 copy" class="cls-2" d="M435,1188h66v40H435v-40h0Z" transform="translate(-433 -1186)"/>
  <path class="cls-3" d="M469,1210h-4v2h7v2h-7v4h-2v-4h-2v-2h2v-14h6A6,6,0,0,1,469,1210Zm0-10h-4v8h4A4,4,0,0,0,469,1200Z" transform="translate(-433 -1186)"/>
  <rect id="Rectangle_180_copy_3" data-name="Rectangle 180 copy 3" class="cls-1" x="6" y="6" width="70" height="44" rx="2" ry="2"/>
  <path id="Rectangle_180_copy_3-2" data-name="Rectangle 180 copy 3" class="cls-4" d="M441,1194h66v40H441v-40h0Z" transform="translate(-433 -1186)"/>
  <path id="Rectangle_180_copy_3-3" data-name="Rectangle 180 copy 3" class="cls-2" d="M445,1198h58v32H445v-32h0Z" transform="translate(-433 -1186)"/>
  <path id="Ellipse_43_copy" data-name="Ellipse 43 copy" class="cls-3" d="M475,1216h-4v2h7v2h-7v4h-2v-4h-2v-2h2v-14h6A6,6,0,0,1,475,1216Zm0-10h-4v8h4A4,4,0,0,0,475,1206Z" transform="translate(-433 -1186)"/>
</svg>
