<svg xmlns="http://www.w3.org/2000/svg" width="140" height="90" viewBox="0 0 140 90">
  <metadata><?xpacket begin="﻿" id="W5M0MpCehiHzreSzNTczkc9d"?>
<x:xmpmeta xmlns:x="adobe:ns:meta/" x:xmptk="Adobe XMP Core 5.6-c138 79.159824, 2016/09/14-01:09:01        ">
   <rdf:RDF xmlns:rdf="http://www.w3.org/1999/02/22-rdf-syntax-ns#">
      <rdf:Description rdf:about=""/>
   </rdf:RDF>
</x:xmpmeta>
                                                                                                    
                                                                                                    
                                                                                                    
                                                                                                    
                                                                                                    
                                                                                                    
                                                                                                    
                                                                                                    
                                                                                                    
                                                                                                    
                                                                                                    
                                                                                                    
                                                                                                    
                                                                                                    
                                                                                                    
                                                                                                    
                                                                                                    
                                                                                                    
                                                                                                    
                                                                                                    
                           
<?xpacket end="w"?></metadata>
<defs>
    <style>
      .cls-1 {
        fill: #f0f7f5;
        fill-rule: evenodd;
      }
    </style>
  </defs>
  <path id="_1_bg" data-name="1_bg" class="cls-1" d="M484,1196H459a5,5,0,0,0,0,10h66a5,5,0,0,1,0,10H475a5,5,0,0,0,0,10h51a5,5,0,0,1,0,10h-6a5,5,0,0,0,0,10h15a5,5,0,0,1,0,10H416a5,5,0,0,1,0-10h84a5,5,0,0,0,0-10H416a5,5,0,0,1,0-10h39a5,5,0,0,0,0-10H406a5,5,0,0,1,0-10h33a5,5,0,0,0,0-10H426a5,5,0,0,1,0-10h9a5,5,0,0,0,0-10H411a5,5,0,0,1,0-10H531a5,5,0,0,1,0,10H455a5,5,0,0,0,0,10h29A5,5,0,0,1,484,1196Zm57-5a5,5,0,0,1-5,5H504a5,5,0,0,1,0-10h32A5,5,0,0,1,541,1191Z" transform="translate(-401 -1166)"/>
</svg>
