<?xml version="1.0" encoding="utf-8"?>
<!-- Generator: Adobe Illustrator 21.1.0, SVG Export Plug-In . SVG Version: 6.00 Build 0)  -->
<svg version="1.1" id="_2" xmlns="http://www.w3.org/2000/svg" xmlns:xlink="http://www.w3.org/1999/xlink" x="0px" y="0px"
	 viewBox="0 0 78 68" style="enable-background:new 0 0 78 68;" xml:space="preserve">
<style type="text/css">
	.st0{fill:#226D4F;}
	.st1{fill:#16D488;}
	.st2{fill:#C1ECDB;}
</style>
<path id="Rectangle_182_copy" class="st0" d="M58,28H20C9,28,0,19,0,8V6c0-1.1,0.9-2,2-2h74c1.1,0,2,0.9,2,2v2C78,19,69,28,58,28z
	 M76,6H2v2c0,9.9,8.1,18,18,18h38c9.9,0,18-8.1,18-18V6z"/>
<path class="st0" d="M28,67c-1.1,0-2-0.9-2-2v-2c0-1.1,0.9-2,2-2h3c2.8,0,5-2.2,5-5v-6h6v6c0,2.8,2.2,5,5,5h3c1.1,0,2,0.9,2,2v2
	c0,1.1-0.9,2-2,2H28z M41,51v5c0,3.3,2.7,6,6,6h3c0.6,0,1,0.4,1,1v2c0,0.6-0.4,1-1,1H28c-0.6,0-1-0.4-1-1v-2c0-0.6,0.4-1,1-1h3
	c3.3,0,6-2.7,6-6v-5H41 M43,49h-8v7c0,2.2-1.8,4-4,4h-3c-1.7,0-3,1.3-3,3v2c0,1.7,1.3,3,3,3h22c1.7,0,3-1.3,3-3v-2c0-1.7-1.3-3-3-3
	h-3c-2.2,0-4-1.8-4-4V49L43,49z M43,49h-8v7c0,2.2-1.8,4-4,4h-3c-1.7,0-3,1.3-3,3v2c0,1.7,1.3,3,3,3h22c1.7,0,3-1.3,3-3v-2
	c0-1.7-1.3-3-3-3h-3c-2.2,0-4-1.8-4-4V49L43,49z"/>
<path id="Shape_1009_copy" class="st1" d="M41,51v5c0,3.3,2.7,6,6,6h3c0.6,0,1,0.4,1,1v2c0,0.6-0.4,1-1,1H28c-0.6,0-1-0.4-1-1v-2
	c0-0.6,0.4-1,1-1h3c3.3,0,6-2.7,6-6v-5H41"/>
<path class="st0" d="M16,0h46c2.2,0,4,1.8,4,4v23c0,14.9-12.1,27-27,27l0,0l0,0c-14.9,0-27-12.1-27-27V4C12,1.8,13.8,0,16,0z"/>
<path id="Rectangle_181_copy" class="st1" d="M16,2h46c1.1,0,2,0.9,2,2v23c0,13.8-11.2,25-25,25l0,0c-13.8,0-25-11.2-25-25V4
	C14,2.9,14.9,2,16,2z"/>
<path id="Rectangle_181_copy_2" class="st2" d="M18,6h42v21c0,11.6-9.4,21-21,21l0,0c-11.6,0-21-9.4-21-21V6L18,6z"/>
<path class="st0" d="M43,34h-3v0h-2.1v0H35c-0.6,0-1-0.4-1-1s0.4-1,1-1h3V17l-2.3,2.3c-0.4,0.4-1.1,0.4-1.5,0c-0.4-0.4-0.4-1,0-1.4
	c0,0,0,0,0,0l2.2-2.2c0.5-0.5,1.3-0.8,2-0.6c0.9,0.2,1.5,1,1.5,1.9l0,15h3c0.6,0,1,0.4,1,1S43.6,34,43,34z"/>
</svg>
