<svg xmlns="http://www.w3.org/2000/svg" width="140" height="90" viewBox="0 0 140 90">
  <metadata><?xpacket begin="﻿" id="W5M0MpCehiHzreSzNTczkc9d"?>
<x:xmpmeta xmlns:x="adobe:ns:meta/" x:xmptk="Adobe XMP Core 5.6-c138 79.159824, 2016/09/14-01:09:01        ">
   <rdf:RDF xmlns:rdf="http://www.w3.org/1999/02/22-rdf-syntax-ns#">
      <rdf:Description rdf:about=""/>
   </rdf:RDF>
</x:xmpmeta>
                                                                                                    
                                                                                                    
                                                                                                    
                                                                                                    
                                                                                                    
                                                                                                    
                                                                                                    
                                                                                                    
                                                                                                    
                                                                                                    
                                                                                                    
                                                                                                    
                                                                                                    
                                                                                                    
                                                                                                    
                                                                                                    
                                                                                                    
                                                                                                    
                                                                                                    
                                                                                                    
                           
<?xpacket end="w"?></metadata>
<defs>
    <style>
      .cls-1 {
        fill: #f0f7f5;
        fill-rule: evenodd;
      }
    </style>
  </defs>
  <path id="_2_bg" data-name="2_bg" class="cls-1" d="M529,1356H511a5,5,0,0,0,0,10h17a5,5,0,0,1,0,10H475a5,5,0,0,0,0,10h61a5,5,0,0,1,0,10H480a5,5,0,0,0,0,10h8a5,5,0,0,1,0,10H413a5,5,0,0,1,0-10h47a5,5,0,0,0,0-10H416a5,5,0,0,1,0-10h39a5,5,0,0,0,0-10h-5a5,5,0,0,1,0-10h41a5,5,0,0,0,0-10H406a5,5,0,0,1,0-10h96a5,5,0,0,0,0-10H421a5,5,0,0,1,0-10H524a5,5,0,0,1,0,10h-2a5,5,0,0,0,0,10h7A5,5,0,0,1,529,1356Zm-94,15a5,5,0,0,1-5,5H420a5,5,0,1,1,0-10h10A5,5,0,0,1,435,1371Zm88,40a5,5,0,0,1-5,5H508a5,5,0,1,1,0-10h10A5,5,0,0,1,523,1411Z" transform="translate(-401 -1326)"/>
</svg>
