<svg id="_3" data-name="3" xmlns="http://www.w3.org/2000/svg" width="70" height="56" viewBox="0 0 70 56">
  <metadata><?xpacket begin="﻿" id="W5M0MpCehiHzreSzNTczkc9d"?>
<x:xmpmeta xmlns:x="adobe:ns:meta/" x:xmptk="Adobe XMP Core 5.6-c138 79.159824, 2016/09/14-01:09:01        ">
   <rdf:RDF xmlns:rdf="http://www.w3.org/1999/02/22-rdf-syntax-ns#">
      <rdf:Description rdf:about=""/>
   </rdf:RDF>
</x:xmpmeta>
                                                                                                    
                                                                                                    
                                                                                                    
                                                                                                    
                                                                                                    
                                                                                                    
                                                                                                    
                                                                                                    
                                                                                                    
                                                                                                    
                                                                                                    
                                                                                                    
                                                                                                    
                                                                                                    
                                                                                                    
                                                                                                    
                                                                                                    
                                                                                                    
                                                                                                    
                                                                                                    
                           
<?xpacket end="w"?></metadata>
<defs>
    <style>
      .cls-1 {
        fill: #226d4f;
      }

      .cls-1, .cls-2, .cls-3 {
        fill-rule: evenodd;
      }

      .cls-2 {
        fill: #16d488;
      }

      .cls-3 {
        fill: #c1ecdb;
      }
    </style>
  </defs>
  <path id="Shape_990_copy_4" data-name="Shape 990 copy 4" class="cls-1" d="M506,1508v42a3,3,0,0,1-3,3H439a3,3,0,0,1-3-3v-42a3,3,0,0,1,3-3h64A3,3,0,0,1,506,1508Z" transform="translate(-436 -1505)"/>
  <path id="Rounded_Rectangle_15" data-name="Rounded Rectangle 15" class="cls-1" d="M485,1561H457a1,1,0,0,1,0-2h13v-7a1,1,0,0,1,2,0v7h13A1,1,0,0,1,485,1561Z" transform="translate(-436 -1505)"/>
  <path id="Shape_990_copy_4-2" data-name="Shape 990 copy 4" class="cls-2" d="M504,1508v42a1,1,0,0,1-1,1H439a1,1,0,0,1-1-1v-42a1,1,0,0,1,1-1h64A1,1,0,0,1,504,1508Z" transform="translate(-436 -1505)"/>
  <path id="Shape_990_copy_4-3" data-name="Shape 990 copy 4" class="cls-3" d="M442,1511h58v36H442v-36h0Z" transform="translate(-436 -1505)"/>
  <path class="cls-1" d="M476.022,1540.01l-7.1-17.13-6.941,14.13-5.508-11.63-3.873,7.72H442v-2.11h9.4l5.128-10.22,5.492,11.58,7.059-14.37,6.9,16.65,5.01-12.69,3.672,9.05H500v2.11H483.341l-2.328-5.73Z" transform="translate(-436 -1505)"/>
</svg>
