<svg xmlns="http://www.w3.org/2000/svg" width="140" height="90" viewBox="0 0 140 90">
  <metadata><?xpacket begin="﻿" id="W5M0MpCehiHzreSzNTczkc9d"?>
<x:xmpmeta xmlns:x="adobe:ns:meta/" x:xmptk="Adobe XMP Core 5.6-c138 79.159824, 2016/09/14-01:09:01        ">
   <rdf:RDF xmlns:rdf="http://www.w3.org/1999/02/22-rdf-syntax-ns#">
      <rdf:Description rdf:about=""/>
   </rdf:RDF>
</x:xmpmeta>
                                                                                                    
                                                                                                    
                                                                                                    
                                                                                                    
                                                                                                    
                                                                                                    
                                                                                                    
                                                                                                    
                                                                                                    
                                                                                                    
                                                                                                    
                                                                                                    
                                                                                                    
                                                                                                    
                                                                                                    
                                                                                                    
                                                                                                    
                                                                                                    
                                                                                                    
                                                                                                    
                           
<?xpacket end="w"?></metadata>
<defs>
    <style>
      .cls-1 {
        fill: #f0f7f5;
        fill-rule: evenodd;
      }
    </style>
  </defs>
  <path id="_3_bg" data-name="3_bg" class="cls-1" d="M533,1546H498a5,5,0,0,1,0-10h20a5,5,0,0,0,0-10H484a5,5,0,0,1,0-10h26a5,5,0,0,0,0-10H499a5,5,0,0,1,0-10h19a5,5,0,0,0,0-10H412a5,5,0,0,0,0,10h67a5,5,0,0,1,0,10H415a5,5,0,0,0,0,10h49a5,5,0,0,1,0,10H409a5,5,0,0,0,0,10h69a5,5,0,0,1,0,10H406a5,5,0,0,0,0,10h73a5,5,0,0,1,0,10H416a5,5,0,1,0,0,10H524a5,5,0,0,0,0-10H509a5,5,0,0,1,0-10h24A5,5,0,0,0,533,1546Zm8-35a5,5,0,0,0-5-5h-6a5,5,0,0,0,0,10h6A5,5,0,0,0,541,1511Z" transform="translate(-401 -1486)"/>
</svg>
