<svg id="_1" data-name="1" xmlns="http://www.w3.org/2000/svg" width="60" height="77" viewBox="0 0 60 77">
  <metadata><?xpacket begin="﻿" id="W5M0MpCehiHzreSzNTczkc9d"?>
<x:xmpmeta xmlns:x="adobe:ns:meta/" x:xmptk="Adobe XMP Core 5.6-c138 79.159824, 2016/09/14-01:09:01        ">
   <rdf:RDF xmlns:rdf="http://www.w3.org/1999/02/22-rdf-syntax-ns#">
      <rdf:Description rdf:about=""/>
   </rdf:RDF>
</x:xmpmeta>
                                                                                                    
                                                                                                    
                                                                                                    
                                                                                                    
                                                                                                    
                                                                                                    
                                                                                                    
                                                                                                    
                                                                                                    
                                                                                                    
                                                                                                    
                                                                                                    
                                                                                                    
                                                                                                    
                                                                                                    
                                                                                                    
                                                                                                    
                                                                                                    
                                                                                                    
                                                                                                    
                           
<?xpacket end="w"?></metadata>
<defs>
    <style>
      .cls-1, .cls-4 {
        fill: #226d4f;
      }

      .cls-2 {
        fill: #16d488;
      }

      .cls-3 {
        fill: #c1ecdb;
      }

      .cls-3, .cls-4 {
        fill-rule: evenodd;
      }
    </style>
  </defs>
  <rect id="Shape_990_copy_26" data-name="Shape 990 copy 26" class="cls-1" y="3" width="60" height="74" rx="3" ry="3"/>
  <rect id="Shape_990_copy_27" data-name="Shape 990 copy 27" class="cls-2" x="2" y="5" width="56" height="70" rx="1" ry="1"/>
  <path id="Rectangle_52_copy_14" data-name="Rectangle 52 copy 14" class="cls-3" d="M336,2155h48v61.99H336V2155h0Z" transform="translate(-330 -2146)"/>
  <path class="cls-4" d="M345,2196a3,3,0,1,1-3,3A3,3,0,0,1,345,2196Zm0,2a1,1,0,1,1-1,1A1,1,0,0,1,345,2198Z" transform="translate(-330 -2146)"/>
  <path class="cls-4" d="M347.588,2197.81l-1.176-1.62,11-8,1.176,1.62Z" transform="translate(-330 -2146)"/>
  <path class="cls-4" d="M362.735,2186.68l-1.47-1.36,12-13,1.47,1.36Z" transform="translate(-330 -2146)"/>
  <path id="Ellipse_44_copy" data-name="Ellipse 44 copy" class="cls-4" d="M360,2185a3,3,0,1,1-3,3A3,3,0,0,1,360,2185Zm0,2a1,1,0,1,1-1,1A1,1,0,0,1,360,2187Z" transform="translate(-330 -2146)"/>
  <path id="Ellipse_44_copy_2" data-name="Ellipse 44 copy 2" class="cls-4" d="M375,2169a3,3,0,1,1-3,3A3,3,0,0,1,375,2169Zm0,2a1,1,0,1,1-1,1A1,1,0,0,1,375,2171Z" transform="translate(-330 -2146)"/>
  <rect id="Rounded_Rectangle_17" data-name="Rounded Rectangle 17" class="cls-1" x="20" width="20" height="8" rx="4" ry="4"/>
  <rect id="Rounded_Rectangle_18" data-name="Rounded Rectangle 18" class="cls-2" x="22" y="2" width="16" height="4" rx="2" ry="2"/>
</svg>
