<svg id="_1_1" data-name="1_1" xmlns="http://www.w3.org/2000/svg" width="150" height="86.81" viewBox="0 0 150 86.81">
  <metadata><?xpacket begin="﻿" id="W5M0MpCehiHzreSzNTczkc9d"?>
<x:xmpmeta xmlns:x="adobe:ns:meta/" x:xmptk="Adobe XMP Core 5.6-c138 79.159824, 2016/09/14-01:09:01        ">
   <rdf:RDF xmlns:rdf="http://www.w3.org/1999/02/22-rdf-syntax-ns#">
      <rdf:Description rdf:about=""/>
   </rdf:RDF>
</x:xmpmeta>
                                                                                                    
                                                                                                    
                                                                                                    
                                                                                                    
                                                                                                    
                                                                                                    
                                                                                                    
                                                                                                    
                                                                                                    
                                                                                                    
                                                                                                    
                                                                                                    
                                                                                                    
                                                                                                    
                                                                                                    
                                                                                                    
                                                                                                    
                                                                                                    
                                                                                                    
                                                                                                    
                           
<?xpacket end="w"?></metadata>
<defs>
    <style>
      .cls-1 {
        fill: #2c7457;
      }

      .cls-1, .cls-2, .cls-3 {
        fill-rule: evenodd;
        opacity: 0.5;
      }

      .cls-2 {
        fill: #16d488;
      }

      .cls-3 {
        fill: #226d4f;
      }
    </style>
  </defs>
  <path id="Rectangle_131_copy_2" data-name="Rectangle 131 copy 2" class="cls-1" d="M306.657,2151.07L304,2148.41l-2.657,2.66-1.414-1.42,2.657-2.65-2.657-2.66,1.414-1.42,2.657,2.66,2.657-2.66,1.414,1.42-2.657,2.66,2.657,2.65Z" transform="translate(-289 -2142.94)"/>
  <path id="Rectangle_175_copy" data-name="Rectangle 175 copy" class="cls-2" d="M298,2184h-3v3a1,1,0,0,1-2,0v-3h-3a1,1,0,0,1,0-2h3v-3a1,1,0,0,1,2,0v3h3A1,1,0,0,1,298,2184Z" transform="translate(-289 -2142.94)"/>
  <path id="Rounded_Rectangle_10_copy" data-name="Rounded Rectangle 10 copy" class="cls-3" d="M419,2227h-7a1,1,0,0,1-1-1v-7a1,1,0,0,1,1-1h7a1,1,0,0,1,1,1v7A1,1,0,0,1,419,2227Zm-1-7h-5v5h5v-5Z" transform="translate(-289 -2142.94)"/>
  <path id="Ellipse_42_copy" data-name="Ellipse 42 copy" class="cls-2" d="M435,2188a4,4,0,1,1,4-4A4,4,0,0,1,435,2188Zm0-6a2,2,0,1,0,2,2A2,2,0,0,0,435,2182Z" transform="translate(-289 -2142.94)"/>
  <path id="Shape_981_copy" data-name="Shape 981 copy" class="cls-1" d="M308.261,2229.55l-11.405.2,5.876-9.77Zm-7.9-1.82,4.471-.08-2.168-3.75Z" transform="translate(-289 -2142.94)"/>
  <path id="Ellipse_42_copy_7" data-name="Ellipse 42 copy 7" class="cls-3" d="M416,2152a4,4,0,1,1,4-4A4,4,0,0,1,416,2152Zm0-6a2,2,0,1,0,2,2A2,2,0,0,0,416,2146Z" transform="translate(-289 -2142.94)"/>
</svg>
