<svg xmlns="http://www.w3.org/2000/svg" width="170" height="110" viewBox="0 0 170 110">
  <metadata><?xpacket begin="﻿" id="W5M0MpCehiHzreSzNTczkc9d"?>
<x:xmpmeta xmlns:x="adobe:ns:meta/" x:xmptk="Adobe XMP Core 5.6-c138 79.159824, 2016/09/14-01:09:01        ">
   <rdf:RDF xmlns:rdf="http://www.w3.org/1999/02/22-rdf-syntax-ns#">
      <rdf:Description rdf:about=""/>
   </rdf:RDF>
</x:xmpmeta>
                                                                                                    
                                                                                                    
                                                                                                    
                                                                                                    
                                                                                                    
                                                                                                    
                                                                                                    
                                                                                                    
                                                                                                    
                                                                                                    
                                                                                                    
                                                                                                    
                                                                                                    
                                                                                                    
                                                                                                    
                                                                                                    
                                                                                                    
                                                                                                    
                                                                                                    
                                                                                                    
                           
<?xpacket end="w"?></metadata>
<defs>
    <style>
      .cls-1 {
        fill: #f0f7f5;
        fill-rule: evenodd;
      }
    </style>
  </defs>
  <path id="_1_bg" data-name="1_bg" class="cls-1" d="M296,2140h51a5,5,0,0,1,0,10H303a5,5,0,0,0,0,10h-1a5,5,0,0,1,0,10H283a4.983,4.983,0,0,0-5,5c0,2.76,4.21,5,7,5h71a5,5,0,0,1,0,10H300a5,5,0,0,0,0,10h7a5,5,0,0,1,0,10H295a5,5,0,0,0-.022,10H395a5,5,0,0,1,0,10H295a5,5,0,0,0,0,10H435a5,5,0,0,0,0-10H415a5,5,0,0,1,0-10h8.022a5,5,0,0,0-.022-10H327a5,5,0,0,1,0-10h56a5,5,0,0,0,0-10h-7a5,5,0,0,1,0-10h45a5,5,0,0,0,0-10H322a5,5,0,0,1,0-10h86a5,5,0,0,0,0-10H367a5,5,0,0,1,0-10h61a5,5,0,0,0,0-10H296A5,5,0,0,0,296,2140Zm107,50h40a5,5,0,0,1,0,10H403A5,5,0,0,1,403,2190Z" transform="translate(-278 -2130)"/>
</svg>
