<?xml version="1.0" encoding="utf-8"?>
<!-- Generator: Adobe Illustrator 21.1.0, SVG Export Plug-In . SVG Version: 6.00 Build 0)  -->
<svg version="1.1" id="_2" xmlns="http://www.w3.org/2000/svg" xmlns:xlink="http://www.w3.org/1999/xlink" x="0px" y="0px"
	 viewBox="0 0 83 92" width="83" height="92" style="enable-background:new 0 0 83 92;" xml:space="preserve">
<style type="text/css">
	.st0{fill:#226D4F;}
	.st1{fill:#16D488;}
	.st2{fill:#026D4F;}
	.st3{fill:#C1ECDB;}
</style>
<path id="Rounded_Rectangle_25" class="st0" d="M5,20h6v37H5V20L5,20z"/>
<path class="st0" d="M8,22.9c-0.4,0-0.8-0.1-1.1-0.2l-2.8-1.1c-1.3-0.5-2-1.8-1.9-3.2L3.8,5.6c0.2-1.5,1.5-2.6,3-2.6h2.5
	c1.5,0,2.8,1.1,3,2.6l1.6,12.8c0.2,1.4-0.6,2.7-1.9,3.2l-2.8,1.1C8.8,22.8,8.4,22.9,8,22.9z M9.2,3.9c1,0,1.9,0.8,2,1.8l1.6,12.8
	c0.1,0.9-0.4,1.8-1.2,2.1l-2.8,1.1c-0.5,0.2-1,0.2-1.5,0l-2.8-1.1c-0.8-0.3-1.4-1.2-1.2-2.1L4.8,5.7c0.1-1,1-1.8,2-1.8H9.2 M9.2,1.9
	H6.8c-2,0-3.7,1.5-4,3.5L1.2,18.3C1,20.1,2,21.8,3.7,22.5l2.8,1.1c1,0.4,2,0.4,3,0l2.8-1.1c1.7-0.7,2.7-2.4,2.5-4.2L13.2,5.4
	C12.9,3.4,11.3,1.9,9.2,1.9L9.2,1.9L9.2,1.9z M9.2,1.9H6.8c-2,0-3.7,1.5-4,3.5L1.2,18.2C1,20.1,2,21.8,3.7,22.5l2.8,1.1
	c1,0.4,2,0.4,3,0l2.8-1.1c1.7-0.7,2.7-2.4,2.5-4.2L13.2,5.4C12.9,3.4,11.3,1.9,9.2,1.9L9.2,1.9L9.2,1.9z"/>
<path id="Shape_1044_copy" class="st1" d="M9.2,3.9c1,0,1.9,0.8,2,1.8l1.6,12.8c0.1,0.9-0.4,1.8-1.2,2.1l-2.8,1.1
	c-0.5,0.2-1,0.2-1.5,0l-2.8-1.1c-0.8-0.3-1.4-1.2-1.2-2.1L4.8,5.7c0.1-1,1-1.8,2-1.8H9.2"/>
<path id="Rounded_Rectangle_25_copy" class="st1" d="M7,23h2v35H7V23L7,23z"/>
<path class="st2" d="M8,92c-4.4,0-8-3.6-8-8l0,0V67.3l0.3-0.5L0.8,66c0.3-0.6,0.3-1.3,0-1.9l-0.5-0.9L0,62.7V54c0-1.1,0.9-2,2-2h12
	c1.1,0,2,0.9,2,2v8.7l-0.3,0.5L15.2,64c-0.3,0.6-0.3,1.3,0,1.9l0.5,0.9l0.3,0.5V84l0,0C16,88.4,12.4,92,8,92z"/>
<path class="st1" d="M8,90c-4.4,0-6-3.6-6-8V67.8l0.5-0.9C2.8,66.3,3,65.7,3,65v0l0,0c0-0.7-0.2-1.3-0.5-1.9L2,62.2V54h12v8.1
	L13.5,63C13.2,63.6,13,64.3,13,65l0,0v0c0,0.7,0.2,1.3,0.5,1.9l0.5,0.9V82C14,86.4,12.4,90,8,90z"/>
<path id="Shape_1042_copy" class="st3" d="M11,68.9V83l0,0c0,1.7-1.3,3-3,3s-3-1.3-3-3l0,0V68.9c1.3-2.4,1.3-5.3,0-7.8V58h6v3.1
	C9.7,63.5,9.7,66.4,11,68.9z"/>
<path class="st0" d="M57,92h-1c-3.3,0-6-2.7-6-6c0,0,0,0,0,0l2-84L52,0H61l0,1.9L63,86C63,89.3,60.3,92,57,92z"/>
<path id="Shape_1045_copy" class="st1" d="M59,2l2,84c0,2.2-1.8,4-4,4h-1c-2.2,0-4-1.8-4-4l2-84H59"/>
<path class="st0" d="M76,24h-3c-1.6,0-3.1-0.7-4-2h-0.3c-0.9,3-3.6,5-6.7,5H49c-2.8,0-5-2.2-5-5v-3h-6.6c-2.8,0-5-2.2-5-5
	c0-1.3,0.5-2.6,1.5-3.5l2.8-2.8c3-3,7.1-4.7,11.4-4.7h16c1.6,0,3.1,0.7,4,2h1c0.9-1.3,2.4-2,4-2h3c3.9,0,7,3.1,7,7v7
	C83,20.9,79.9,24,76,24z"/>
<path class="st1" d="M76,22h-3c-1.3,0-2.4-0.8-2.8-2h-3.2c0,2.8-2.3,5-5,5h-13c-1.7,0-3-1.3-3-3v-3c0-1.1-0.9-2-2-2h-6.6
	c-1.7,0-3-1.3-3-3c0-0.8,0.3-1.6,0.9-2.1l2.8-2.8c2.6-2.7,6.2-4.1,10-4.1h16.1c1.3,0,2.4,0.8,2.8,2h3.4c0.4-1.2,1.6-2,2.8-2h3
	c2.8,0,5,2.2,5,5v7C81,19.8,78.7,22,76,22z"/>
<path id="Shape_1040_copy" class="st3" d="M49.9,21h12c0.6,0,1-0.4,1-1c0-2.2,1.8-4,4-4h4c1.3,0,2.4,0.8,2.8,2H76c0.6,0,1-0.4,1-1
	v-7c0-0.6-0.4-1-1-1h-2.2c-0.4,1.2-1.6,2-2.8,2h-4.4c-1.4,0-2.6-0.8-3.3-2L46.9,9c-2.3,0.2-4.5,1.2-6.2,2.9L39.7,13h4.2
	c3.3,0,6,2.7,6,6L49.9,21L49.9,21z M63,8.3C63,8.3,63,8.3,63,8.3C63,8.3,63,8.3,63,8.3z"/>
</svg>
