<svg id="_2_1" data-name="2_1" xmlns="http://www.w3.org/2000/svg" width="162" height="92.06" viewBox="0 0 162 92.06">
  <metadata><?xpacket begin="﻿" id="W5M0MpCehiHzreSzNTczkc9d"?>
<x:xmpmeta xmlns:x="adobe:ns:meta/" x:xmptk="Adobe XMP Core 5.6-c138 79.159824, 2016/09/14-01:09:01        ">
   <rdf:RDF xmlns:rdf="http://www.w3.org/1999/02/22-rdf-syntax-ns#">
      <rdf:Description rdf:about=""/>
   </rdf:RDF>
</x:xmpmeta>
                                                                                                    
                                                                                                    
                                                                                                    
                                                                                                    
                                                                                                    
                                                                                                    
                                                                                                    
                                                                                                    
                                                                                                    
                                                                                                    
                                                                                                    
                                                                                                    
                                                                                                    
                                                                                                    
                                                                                                    
                                                                                                    
                                                                                                    
                                                                                                    
                                                                                                    
                                                                                                    
                           
<?xpacket end="w"?></metadata>
<defs>
    <style>
      .cls-1 {
        fill: #226d4f;
      }

      .cls-1, .cls-2, .cls-3 {
        fill-rule: evenodd;
        opacity: 0.5;
      }

      .cls-2 {
        fill: #2c7457;
      }

      .cls-3 {
        fill: #16d488;
      }
    </style>
  </defs>
  <path id="Ellipse_42_copy_8" data-name="Ellipse 42 copy 8" class="cls-1" d="M742,2149a4,4,0,1,1,4-4A4,4,0,0,1,742,2149Zm0-6a2,2,0,1,0,2,2A2,2,0,0,0,742,2143Z" transform="translate(-716 -2141)"/>
  <path id="Rectangle_131_copy_5" data-name="Rectangle 131 copy 5" class="cls-2" d="M875.656,2233.07L873,2230.41l-2.657,2.66-1.414-1.42,2.656-2.65-2.656-2.66,1.414-1.42,2.657,2.66,2.656-2.66,1.415,1.42-2.657,2.66,2.657,2.65Z" transform="translate(-716 -2141)"/>
  <path id="Rectangle_175_copy_6" data-name="Rectangle 175 copy 6" class="cls-3" d="M725,2187h-3v3a1,1,0,0,1-2,0v-3h-3a1,1,0,0,1,0-2h3v-3a1,1,0,0,1,2,0v3h3A1,1,0,0,1,725,2187Z" transform="translate(-716 -2141)"/>
  <path id="Rounded_Rectangle_10_copy_2" data-name="Rounded Rectangle 10 copy 2" class="cls-1" d="M877,2157h-7a1,1,0,0,1-1-1v-7a1,1,0,0,1,1-1h7a1,1,0,0,1,1,1v7A1,1,0,0,1,877,2157Zm-1-7h-5v5h5v-5Z" transform="translate(-716 -2141)"/>
  <path id="Ellipse_42_copy_2" data-name="Ellipse 42 copy 2" class="cls-3" d="M861,2195a4,4,0,1,1,4-4A4,4,0,0,1,861,2195Zm0-6a2,2,0,1,0,2,2A2,2,0,0,0,861,2189Z" transform="translate(-716 -2141)"/>
  <path id="Shape_981_copy_3" data-name="Shape 981 copy 3" class="cls-2" d="M749.261,2230.55l-11.4.2,5.876-9.77Zm-7.9-1.82,4.471-.08-2.168-3.75Z" transform="translate(-716 -2141)"/>
</svg>
