<svg xmlns="http://www.w3.org/2000/svg" width="170" height="110" viewBox="0 0 170 110">
  <metadata><?xpacket begin="﻿" id="W5M0MpCehiHzreSzNTczkc9d"?>
<x:xmpmeta xmlns:x="adobe:ns:meta/" x:xmptk="Adobe XMP Core 5.6-c138 79.159824, 2016/09/14-01:09:01        ">
   <rdf:RDF xmlns:rdf="http://www.w3.org/1999/02/22-rdf-syntax-ns#">
      <rdf:Description rdf:about=""/>
   </rdf:RDF>
</x:xmpmeta>
                                                                                                    
                                                                                                    
                                                                                                    
                                                                                                    
                                                                                                    
                                                                                                    
                                                                                                    
                                                                                                    
                                                                                                    
                                                                                                    
                                                                                                    
                                                                                                    
                                                                                                    
                                                                                                    
                                                                                                    
                                                                                                    
                                                                                                    
                                                                                                    
                                                                                                    
                                                                                                    
                           
<?xpacket end="w"?></metadata>
<defs>
    <style>
      .cls-1 {
        fill: #f0f7f5;
        fill-rule: evenodd;
      }
    </style>
  </defs>
  <path id="_2_bg" data-name="2_bg" class="cls-1" d="M732,2140h41a5,5,0,0,1,0,10H719a5,5,0,0,0,0,10h29a5,5,0,0,1,0,10H732a5,5,0,0,0,0,10h30a5,5,0,0,1,0,10H726a5,5,0,0,0,0,10h87a5,5,0,0,1,0,10H721a5,5,0,0,0-.022,10H831a5,5,0,0,1,0,10H791a5,5,0,0,0,0,10h80a5,5,0,0,0,0-10H851a5,5,0,0,1,0-10h8.022a5,5,0,0,0-.022-10H833a5,5,0,0,1,0-10h46a5,5,0,0,0,0-10H782a5,5,0,0,1,0-10h75a5,5,0,0,0,0-10H768a5,5,0,0,1,0-10H874a5,5,0,0,0,0-10H793a5,5,0,0,1,0-10h71a5,5,0,0,0,0-10H732A5,5,0,0,0,732,2140Zm-3,90h42a5,5,0,0,1,0,10H729A5,5,0,0,1,729,2230Z" transform="translate(-714 -2130)"/>
</svg>
