<?xml version="1.0" encoding="utf-8"?>
<!-- Generator: Adobe Illustrator 21.1.0, SVG Export Plug-In . SVG Version: 6.00 Build 0)  -->
<svg version="1.1" id="_3" xmlns="http://www.w3.org/2000/svg" xmlns:xlink="http://www.w3.org/1999/xlink" x="0px" y="0px"
	 viewBox="0 0 75 80" width="75" height="80" style="enable-background:new 0 0 75 80;" xml:space="preserve">
<style type="text/css">
	.st0{fill:#226D4F;}
	.st1{fill:#16D488;}
	.st2{fill:#C1ECDB;}
</style>
<path class="st0" d="M59.5,26l-3.9,51.2c-0.1,1.6-1.4,2.8-3,2.8H10.2c-1.6,0-2.8-1.2-3-2.8L3.4,26H59.5z"/>
<path id="Shape_1029_copy" class="st1" d="M57.5,26l-3.9,51.1c0,0.5-0.5,0.9-1,0.9H10.2c-0.5,0-0.9-0.4-1-0.9L5.3,26H57.5z"/>
<path class="st2" d="M12.9,74L9.5,30h43.9l-3.4,44H12.9L12.9,74z"/>
<path id="Rounded_Rectangle_19" class="st0" d="M4,24h54c2.2,0,4,1.8,4,4l0,0c0,2.2-1.8,4-4,4H4c-2.2,0-4-1.8-4-4l0,0
	C0,25.8,1.8,24,4,24z"/>
<path id="Rectangle_191_copy" class="st0" d="M54,24v-2c0-9.9-8.1-18-18-18l0,0H26C16.1,4,8,12.1,8,22l0,0v2H6v-2C6,11,14.9,2,26,2
	c0,0,0,0,0,0h10c11,0,20,8.9,20,20c0,0,0,0,0,0v2H54z"/>
<path class="st0" d="M26,0h10c1.7,0,3,1.3,3,3l0,0c0,1.7-1.3,3-3,3H26c-1.7,0-3-1.3-3-3l0,0C23,1.3,24.3,0,26,0z"/>
<path id="Rounded_Rectangle_21" class="st1" d="M26,2h10c0.6,0,1,0.4,1,1l0,0c0,0.6-0.4,1-1,1H26c-0.6,0-1-0.4-1-1l0,0
	C25,2.4,25.4,2,26,2z"/>
<path id="Rounded_Rectangle_20" class="st1" d="M4,26h54c1.1,0,2,0.9,2,2l0,0c0,1.1-0.9,2-2,2H4c-1.1,0-2-0.9-2-2l0,0
	C2,26.9,2.9,26,4,26z"/>
<path class="st0" d="M64,79c-1.7,0-3-1.3-3-3V60.9l-2.7-0.4C55.8,60.1,54,58,54,55.5V44c0-1.1,0.9-2,2-2h16c1.1,0,2,0.9,2,2v11.5
	c0,2.5-1.8,4.6-4.3,4.9L67,60.9v15c0,1.5-1,2.8-2.5,3.1C64.3,79,64.2,79,64,79z M72,43c0.6,0,1,0.4,1,1v11.5c0,2-1.5,3.7-3.4,4
	L66,60v15.9c0,1-0.7,1.9-1.7,2.1c-0.1,0-0.2,0-0.3,0c-1.1,0-2-0.9-2-2V60l-3.6-0.5c-2-0.3-3.4-2-3.4-4V44c0-0.6,0.4-1,1-1H72 M72,41
	H56c-1.7,0-3,1.3-3,3v11.5c0,3,2.2,5.5,5.2,5.9l1.8,0.3V76c0,2.2,1.8,4,4,4c0.2,0,0.4,0,0.7-0.1c1.9-0.4,3.4-2.1,3.3-4.1V61.7
	l1.8-0.3c3-0.4,5.1-3,5.2-5.9V44C75,42.3,73.7,41,72,41L72,41z M72,41H56c-1.7,0-3,1.3-3,3v11.5c0,3,2.2,5.5,5.2,5.9l1.8,0.3V76
	c0,2.2,1.8,4,4,4c0.2,0,0.4,0,0.7-0.1c1.9-0.4,3.4-2.1,3.3-4.1V61.7l1.8-0.3c3-0.4,5.1-3,5.2-5.9V44C75,42.3,73.7,41,72,41L72,41z"
	/>
<path id="Shape_1030_copy" class="st1" d="M72,43c0.6,0,1,0.4,1,1v11.5c0,2-1.5,3.7-3.4,4L66,60v15.9c0,1-0.7,1.9-1.7,2.1
	c-0.1,0-0.2,0-0.3,0c-1.1,0-2-0.9-2-2V60l-3.6-0.5c-2-0.3-3.4-2-3.4-4V44c0-0.6,0.4-1,1-1H72"/>
<path id="Rounded_Rectangle_23" class="st0" d="M61,60h6v2h-6V60L61,60z"/>
<path id="Rounded_Rectangle_24_copy_2" class="st0" d="M59,41c0.6,0,1,0.4,1,1v10c0,0.6-0.4,1-1,1s-1-0.4-1-1V42
	C58,41.4,58.4,41,59,41z M64,41c0.6,0,1,0.4,1,1v14c0,0.6-0.4,1-1,1s-1-0.4-1-1V42C63,41.4,63.4,41,64,41z M69,41c0.6,0,1,0.4,1,1
	v11c0,0.6-0.4,1-1,1s-1-0.4-1-1V42C68,41.4,68.4,41,69,41z"/>
</svg>
