<svg xmlns="http://www.w3.org/2000/svg" width="170" height="110" viewBox="0 0 170 110">
  <metadata><?xpacket begin="﻿" id="W5M0MpCehiHzreSzNTczkc9d"?>
<x:xmpmeta xmlns:x="adobe:ns:meta/" x:xmptk="Adobe XMP Core 5.6-c138 79.159824, 2016/09/14-01:09:01        ">
   <rdf:RDF xmlns:rdf="http://www.w3.org/1999/02/22-rdf-syntax-ns#">
      <rdf:Description rdf:about=""/>
   </rdf:RDF>
</x:xmpmeta>
                                                                                                    
                                                                                                    
                                                                                                    
                                                                                                    
                                                                                                    
                                                                                                    
                                                                                                    
                                                                                                    
                                                                                                    
                                                                                                    
                                                                                                    
                                                                                                    
                                                                                                    
                                                                                                    
                                                                                                    
                                                                                                    
                                                                                                    
                                                                                                    
                                                                                                    
                                                                                                    
                           
<?xpacket end="w"?></metadata>
<defs>
    <style>
      .cls-1 {
        fill: #f0f7f5;
        fill-rule: evenodd;
      }
    </style>
  </defs>
  <path id="_3_bg" data-name="3_bg" class="cls-1" d="M1208,2235a5,5,0,0,1-5,5h-20a5,5,0,0,1,0-10h20A5,5,0,0,1,1208,2235Zm-53-65h82a5,5,0,0,0,0-10h-64a5,5,0,0,1-.04-10H1191a5,5,0,0,0,0-10h-33a5,5,0,0,1,0-10h154a5,5,0,0,1,0,10H1211a5,5,0,0,0,0,10h74.04a5,5,0,0,1-.04,10h-28a5,5,0,0,0,0,10h58a5,5,0,0,1,0,10h-49a5,5,0,0,0,0,10h47a5,5,0,0,1,0,10h-68a5,5,0,0,0,0,10h55a5,5,0,0,1,0,10h-13a5,5,0,0,0,0,10h13a5,5,0,0,1,0,10h-77a5,5,0,0,1,0-10h44a5,5,0,0,0,0-10H1158a5,5,0,0,1,0-10h67a5,5,0,0,0,0-10h-63a5,5,0,0,1,0-10h14a5,5,0,0,0,0-10h-21A5,5,0,0,1,1155,2170Zm41,10h50a5,5,0,0,1,0,10h-50A5,5,0,0,1,1196,2180Z" transform="translate(-1150 -2130)"/>
</svg>
