<svg id="_4" data-name="4" xmlns="http://www.w3.org/2000/svg" width="82" height="68" viewBox="0 0 82 68">
  <metadata><?xpacket begin="﻿" id="W5M0MpCehiHzreSzNTczkc9d"?>
<x:xmpmeta xmlns:x="adobe:ns:meta/" x:xmptk="Adobe XMP Core 5.6-c138 79.159824, 2016/09/14-01:09:01        ">
   <rdf:RDF xmlns:rdf="http://www.w3.org/1999/02/22-rdf-syntax-ns#">
      <rdf:Description rdf:about=""/>
   </rdf:RDF>
</x:xmpmeta>
                                                                                                    
                                                                                                    
                                                                                                    
                                                                                                    
                                                                                                    
                                                                                                    
                                                                                                    
                                                                                                    
                                                                                                    
                                                                                                    
                                                                                                    
                                                                                                    
                                                                                                    
                                                                                                    
                                                                                                    
                                                                                                    
                                                                                                    
                                                                                                    
                                                                                                    
                                                                                                    
                           
<?xpacket end="w"?></metadata>
<defs>
    <style>
      .cls-1, .cls-4 {
        fill: #226d4f;
      }

      .cls-1, .cls-2, .cls-3 {
        fill-rule: evenodd;
      }

      .cls-2 {
        fill: #16d488;
      }

      .cls-3 {
        fill: #c1ecdb;
      }
    </style>
  </defs>
  <path class="cls-1" d="M402,2626v36a6,6,0,0,1-6,6H330a6,6,0,0,1-6-6v-36h78Z" transform="translate(-322 -2600)"/>
  <path id="Rounded_Rectangle_2" data-name="Rounded Rectangle 2" class="cls-2" d="M400,2627v35a4.006,4.006,0,0,1-4,4H330a4.006,4.006,0,0,1-4-4v-35h74Z" transform="translate(-322 -2600)"/>
  <path class="cls-3" d="M396,2627v33a2,2,0,0,1-2,2H332a2,2,0,0,1-2-2v-33h66Z" transform="translate(-322 -2600)"/>
  <path id="Shape_22_copy" data-name="Shape 22 copy" class="cls-4" d="M6,10H76a6,6,0,0,1,6,6v9a2,2,0,0,1-2,2H2a2,2,0,0,1-2-2V16a6,6,0,0,1,6-6Z"/>
  <path id="Rounded_Rectangle_2_copy" data-name="Rounded Rectangle 2 copy" class="cls-2" d="M328,2612h70a4,4,0,0,1,4,4v9H324v-9A4,4,0,0,1,328,2612Z" transform="translate(-322 -2600)"/>
  <path id="Rectangle_64_copy" data-name="Rectangle 64 copy" class="cls-1" d="M335,2618h7a2,2,0,0,1,2,2v12a2,2,0,0,1-2,2h-7a2,2,0,0,1-2-2v-12A2,2,0,0,1,335,2618Zm49,0h7a2,2,0,0,1,2,2v12a2,2,0,0,1-2,2h-7a2,2,0,0,1-2-2v-12A2,2,0,0,1,384,2618Z" transform="translate(-322 -2600)"/>
  <rect class="cls-4" x="1" y="25" width="81" height="2"/>
  <path id="Rectangle_65_copy" data-name="Rectangle 65 copy" class="cls-2" d="M335,2620h7v12h-7v-12Zm49,0h7v12h-7v-12Z" transform="translate(-322 -2600)"/>
  <path class="cls-1" d="M372,2610v-4H355v4h-6v-6a4,4,0,0,1,4-4h21a4,4,0,0,1,4,4v6h-6Z" transform="translate(-322 -2600)"/>
  <path id="Rounded_Rectangle_3" data-name="Rounded Rectangle 3" class="cls-2" d="M374,2610v-6H353v6h-2v-6a2,2,0,0,1,2-2h21a2,2,0,0,1,2,2v6h-2Z" transform="translate(-322 -2600)"/>
</svg>
