<svg id="_4_1" data-name="4_1" xmlns="http://www.w3.org/2000/svg" width="160" height="106.03" viewBox="0 0 160 106.03">
  <metadata><?xpacket begin="﻿" id="W5M0MpCehiHzreSzNTczkc9d"?>
<x:xmpmeta xmlns:x="adobe:ns:meta/" x:xmptk="Adobe XMP Core 5.6-c138 79.159824, 2016/09/14-01:09:01        ">
   <rdf:RDF xmlns:rdf="http://www.w3.org/1999/02/22-rdf-syntax-ns#">
      <rdf:Description rdf:about=""/>
   </rdf:RDF>
</x:xmpmeta>
                                                                                                    
                                                                                                    
                                                                                                    
                                                                                                    
                                                                                                    
                                                                                                    
                                                                                                    
                                                                                                    
                                                                                                    
                                                                                                    
                                                                                                    
                                                                                                    
                                                                                                    
                                                                                                    
                                                                                                    
                                                                                                    
                                                                                                    
                                                                                                    
                                                                                                    
                                                                                                    
                           
<?xpacket end="w"?></metadata>
<defs>
    <style>
      .cls-1 {
        fill: #2c7457;
      }

      .cls-1, .cls-2, .cls-3 {
        fill-rule: evenodd;
        opacity: 0.5;
      }

      .cls-2 {
        fill: #16d488;
      }

      .cls-3 {
        fill: #226d4f;
      }
    </style>
  </defs>
  <path id="Rectangle_131_copy_4" data-name="Rectangle 131 copy 4" class="cls-1" d="M433.657,2603.07L431,2600.41l-2.657,2.66-1.414-1.42,2.656-2.65-2.656-2.66,1.414-1.41,2.657,2.65,2.657-2.65,1.414,1.41-2.657,2.66,2.657,2.65Z" transform="translate(-283 -2580.97)"/>
  <path id="Rectangle_175_copy_4" data-name="Rectangle 175 copy 4" class="cls-2" d="M316,2682h-3v3a1,1,0,0,1-2,0v-3h-3a1,1,0,0,1,0-2h3v-3a1,1,0,0,1,2,0v3h3A1,1,0,0,1,316,2682Z" transform="translate(-283 -2580.97)"/>
  <path id="Rectangle_175_copy_5" data-name="Rectangle 175 copy 5" class="cls-3" d="M424,2683h-3v3a1,1,0,0,1-2,0v-3h-3a1,1,0,0,1,0-2h3v-3a1,1,0,0,1,2,0v3h3A1,1,0,0,1,424,2683Z" transform="translate(-283 -2580.97)"/>
  <path id="Rounded_Rectangle_10_copy_3" data-name="Rounded Rectangle 10 copy 3" class="cls-3" d="M291,2637h-7a1,1,0,0,1-1-1v-7a1,1,0,0,1,1-1h7a1,1,0,0,1,1,1v7A1,1,0,0,1,291,2637Zm-1-7h-5v5h5v-5Z" transform="translate(-283 -2580.97)"/>
  <path id="Ellipse_42_copy_4" data-name="Ellipse 42 copy 4" class="cls-2" d="M439,2642a4,4,0,1,1,4-4A4,4,0,0,1,439,2642Zm0-6a2,2,0,1,0,2,2A2,2,0,0,0,439,2636Z" transform="translate(-283 -2580.97)"/>
  <path id="Shape_981_copy_2" data-name="Shape 981 copy 2" class="cls-2" d="M324.261,2590.55l-11.406.2,5.876-9.77Zm-7.9-1.82,4.47-.08-2.167-3.75Z" transform="translate(-283 -2580.97)"/>
</svg>
