<svg xmlns="http://www.w3.org/2000/svg" width="170" height="110" viewBox="0 0 170 110">
  <metadata><?xpacket begin="﻿" id="W5M0MpCehiHzreSzNTczkc9d"?>
<x:xmpmeta xmlns:x="adobe:ns:meta/" x:xmptk="Adobe XMP Core 5.6-c138 79.159824, 2016/09/14-01:09:01        ">
   <rdf:RDF xmlns:rdf="http://www.w3.org/1999/02/22-rdf-syntax-ns#">
      <rdf:Description rdf:about=""/>
   </rdf:RDF>
</x:xmpmeta>
                                                                                                    
                                                                                                    
                                                                                                    
                                                                                                    
                                                                                                    
                                                                                                    
                                                                                                    
                                                                                                    
                                                                                                    
                                                                                                    
                                                                                                    
                                                                                                    
                                                                                                    
                                                                                                    
                                                                                                    
                                                                                                    
                                                                                                    
                                                                                                    
                                                                                                    
                                                                                                    
                           
<?xpacket end="w"?></metadata>
<defs>
    <style>
      .cls-1 {
        fill: #f0f7f5;
        fill-rule: evenodd;
      }
    </style>
  </defs>
  <path id="_4_bg" data-name="4_bg" class="cls-1" d="M296,2588h11a5,5,0,0,1,0,10H283a5,5,0,0,0,0,10h69a5,5,0,0,1,0,10H296a5,5,0,0,0,0,10h30a5,5,0,0,1,0,10H290a5,5,0,0,0,0,10h87a5,5,0,0,1,0,10H285a5,5,0,0,0-.022,10H395a5,5,0,0,1,0,10H375a5,5,0,0,0,0,10h60a5,5,0,0,0,0-10H415a5,5,0,0,1,0-10h8.022a5,5,0,0,0-.022-10H397a5,5,0,0,1,0-10h46a5,5,0,0,0,0-10H346a5,5,0,0,1,0-10h75a5,5,0,0,0,0-10h-9a5,5,0,0,1,0-10h26a5,5,0,0,0,0-10H327a5,5,0,0,1,0-10H428a5,5,0,0,0,0-10H296A5,5,0,0,0,296,2588Zm-3,90h62a5,5,0,0,1,5,5h0a5,5,0,0,1-5,5H293a5,5,0,0,1-5-5h0A5,5,0,0,1,293,2678Zm79-70h20a5,5,0,0,1,0,10H372A5,5,0,0,1,372,2608Z" transform="translate(-278 -2578)"/>
</svg>
