<svg id="_5" data-name="5" xmlns="http://www.w3.org/2000/svg" width="76" height="62" viewBox="0 0 76 62">
  <metadata><?xpacket begin="﻿" id="W5M0MpCehiHzreSzNTczkc9d"?>
<x:xmpmeta xmlns:x="adobe:ns:meta/" x:xmptk="Adobe XMP Core 5.6-c138 79.159824, 2016/09/14-01:09:01        ">
   <rdf:RDF xmlns:rdf="http://www.w3.org/1999/02/22-rdf-syntax-ns#">
      <rdf:Description rdf:about=""/>
   </rdf:RDF>
</x:xmpmeta>
                                                                                                    
                                                                                                    
                                                                                                    
                                                                                                    
                                                                                                    
                                                                                                    
                                                                                                    
                                                                                                    
                                                                                                    
                                                                                                    
                                                                                                    
                                                                                                    
                                                                                                    
                                                                                                    
                                                                                                    
                                                                                                    
                                                                                                    
                                                                                                    
                                                                                                    
                                                                                                    
                           
<?xpacket end="w"?></metadata>
<defs>
    <style>
      .cls-1, .cls-5 {
        fill: #226d4f;
      }

      .cls-2, .cls-4 {
        fill: #16d488;
      }

      .cls-2, .cls-3, .cls-5, .cls-6 {
        fill-rule: evenodd;
      }

      .cls-3 {
        fill: #c1ecdb;
      }

      .cls-6 {
        fill: #fff;
      }
    </style>
  </defs>
  <rect id="Shape_22_copy_6" data-name="Shape 22 copy 6" class="cls-1" width="76" height="62" rx="4" ry="4"/>
  <path id="Rounded_Rectangle_2_copy_6" data-name="Rounded Rectangle 2 copy 6" class="cls-2" d="M763,2604h72v58H763v-58h0Z" transform="translate(-761 -2602)"/>
  <path id="Rectangle_52_copy_6" data-name="Rectangle 52 copy 6" class="cls-3" d="M767,2614h64v44H767v-44h0Z" transform="translate(-761 -2602)"/>
  <rect id="Rounded_Rectangle_28" data-name="Rounded Rectangle 28" class="cls-4" x="26" y="22" width="24" height="24" rx="12" ry="12"/>
  <path class="cls-5" d="M799,2650a14,14,0,1,1,14-14A14,14,0,0,1,799,2650Zm0-26a12,12,0,1,0,12,12A12,12,0,0,0,799,2624Zm4.561,13.41-5.176,3.96a1.87,1.87,0,0,1-1.162.4,1.93,1.93,0,0,1-.871-0.21,1.982,1.982,0,0,1-1.073-1.77v-7.93a1.982,1.982,0,0,1,1.073-1.77,1.881,1.881,0,0,1,2.033.19l5.176,3.96A2.005,2.005,0,0,1,803.561,2637.41Zm-6.34-5.55v7.93l5.176-3.97Z" transform="translate(-761 -2602)"/>
  <path id="Shape_1048_copy_2" data-name="Shape 1048 copy 2" class="cls-6" d="M797.221,2631.86v7.93l5.176-3.97Z" transform="translate(-761 -2602)"/>
  <path class="cls-5" d="M762,2610v-2h54v-4h2v4h18v2H762Z" transform="translate(-761 -2602)"/>
</svg>
