<svg id="_6" data-name="6" xmlns="http://www.w3.org/2000/svg" width="76" height="58" viewBox="0 0 76 58">
  <metadata><?xpacket begin="﻿" id="W5M0MpCehiHzreSzNTczkc9d"?>
<x:xmpmeta xmlns:x="adobe:ns:meta/" x:xmptk="Adobe XMP Core 5.6-c138 79.159824, 2016/09/14-01:09:01        ">
   <rdf:RDF xmlns:rdf="http://www.w3.org/1999/02/22-rdf-syntax-ns#">
      <rdf:Description rdf:about=""/>
   </rdf:RDF>
</x:xmpmeta>
                                                                                                    
                                                                                                    
                                                                                                    
                                                                                                    
                                                                                                    
                                                                                                    
                                                                                                    
                                                                                                    
                                                                                                    
                                                                                                    
                                                                                                    
                                                                                                    
                                                                                                    
                                                                                                    
                                                                                                    
                                                                                                    
                                                                                                    
                                                                                                    
                                                                                                    
                                                                                                    
                           
<?xpacket end="w"?></metadata>
<defs>
    <style>
      .cls-1, .cls-5 {
        fill: #226d4f;
      }

      .cls-2, .cls-4 {
        fill: #16d488;
      }

      .cls-2, .cls-3, .cls-5 {
        fill-rule: evenodd;
      }

      .cls-3 {
        fill: #c1ecdb;
      }
    </style>
  </defs>
  <rect id="Shape_22_copy_7" data-name="Shape 22 copy 7" class="cls-1" width="76" height="48" rx="4" ry="4"/>
  <path id="Rounded_Rectangle_2_copy_7" data-name="Rounded Rectangle 2 copy 7" class="cls-2" d="M1195,2604h72v44h-72v-44h0Z" transform="translate(-1193 -2602)"/>
  <path id="Rectangle_52_copy_7" data-name="Rectangle 52 copy 7" class="cls-3" d="M1199,2608h64v36h-64v-36h0Z" transform="translate(-1193 -2602)"/>
  <rect id="Rounded_Rectangle_27" data-name="Rounded Rectangle 27" class="cls-1" x="38" y="13" width="27" height="2" rx="1" ry="1"/>
  <rect id="Rounded_Rectangle_27_copy" data-name="Rounded Rectangle 27 copy" class="cls-1" x="38" y="20" width="27" height="2" rx="1" ry="1"/>
  <rect id="Rounded_Rectangle_27_copy_2" data-name="Rounded Rectangle 27 copy 2" class="cls-1" x="38" y="27" width="27" height="2" rx="1" ry="1"/>
  <circle id="Rounded_Rectangle_26" data-name="Rounded Rectangle 26" class="cls-1" cx="18.5" cy="20.5" r="7.5"/>
  <circle id="Rounded_Rectangle_26_copy" data-name="Rounded Rectangle 26 copy" class="cls-4" cx="18.5" cy="20.5" r="5.5"/>
  <path class="cls-5" d="M1218.68,2660h-14.51a4.185,4.185,0,0,1-4.18-4.18v-17.94a5.467,5.467,0,0,1,5.46-5.46h18.05a3.193,3.193,0,0,1,1.26.26l11.57,4.97a1.674,1.674,0,0,0,2.12-.71l5.81-10.12a3.617,3.617,0,0,1,4.94-1.35,4.039,4.039,0,0,1,.54.38l0.02,0.01a3.7,3.7,0,0,1,.68,4.76l-7.26,11.05a6.742,6.742,0,0,1-7.71,2.7l-10.42-3.38a1.633,1.633,0,0,0-1.28.1,1.659,1.659,0,0,0-.83.97,1.6,1.6,0,0,0-.09.53v13.23A4.176,4.176,0,0,1,1218.68,2660Z" transform="translate(-1193 -2602)"/>
  <path id="Shape_1051_copy" data-name="Shape 1051 copy" class="cls-2" d="M1205.45,2634.42a3.468,3.468,0,0,0-3.46,3.46v17.94a2.185,2.185,0,0,0,2.18,2.18h14.51a2.177,2.177,0,0,0,2.17-2.18v-13.23a3.686,3.686,0,0,1,2.02-3.29,3.634,3.634,0,0,1,2.8-.21l10.42,3.38a4.74,4.74,0,0,0,5.42-1.9l7.25-11.03a1.683,1.683,0,0,0-.31-2.16,1.379,1.379,0,0,0-.25-0.17,1.581,1.581,0,0,0-1.22-.16,1.66,1.66,0,0,0-.99.77l-5.8,10.11a3.671,3.671,0,0,1-4.65,1.56l-11.57-4.97a1.1,1.1,0,0,0-.47-0.1h-18.05Z" transform="translate(-1193 -2602)"/>
</svg>
