<svg id="_6_1" data-name="6_1" xmlns="http://www.w3.org/2000/svg" width="159" height="85.06" viewBox="0 0 159 85.06">
  <metadata><?xpacket begin="﻿" id="W5M0MpCehiHzreSzNTczkc9d"?>
<x:xmpmeta xmlns:x="adobe:ns:meta/" x:xmptk="Adobe XMP Core 5.6-c138 79.159824, 2016/09/14-01:09:01        ">
   <rdf:RDF xmlns:rdf="http://www.w3.org/1999/02/22-rdf-syntax-ns#">
      <rdf:Description rdf:about=""/>
   </rdf:RDF>
</x:xmpmeta>
                                                                                                    
                                                                                                    
                                                                                                    
                                                                                                    
                                                                                                    
                                                                                                    
                                                                                                    
                                                                                                    
                                                                                                    
                                                                                                    
                                                                                                    
                                                                                                    
                                                                                                    
                                                                                                    
                                                                                                    
                                                                                                    
                                                                                                    
                                                                                                    
                                                                                                    
                                                                                                    
                           
<?xpacket end="w"?></metadata>
<defs>
    <style>
      .cls-1 {
        fill: #16d488;
      }

      .cls-1, .cls-2 {
        fill-rule: evenodd;
        opacity: 0.5;
      }

      .cls-2 {
        fill: #226d4f;
      }
    </style>
  </defs>
  <path id="Rectangle_131_copy_7" data-name="Rectangle 131 copy 7" class="cls-1" d="M1300.66,2664.07l-2.66-2.66-2.66,2.66-1.41-1.42,2.66-2.65-2.66-2.66,1.41-1.42,2.66,2.66,2.66-2.66,1.41,1.42-2.66,2.66,2.66,2.65Z" transform="translate(-1157 -2579)"/>
  <path id="Rectangle_175_copy_9" data-name="Rectangle 175 copy 9" class="cls-1" d="M1166,2605h-3v3a1,1,0,0,1-2,0v-3h-3a1,1,0,0,1,0-2h3v-3a1,1,0,0,1,2,0v3h3A1,1,0,0,1,1166,2605Z" transform="translate(-1157 -2579)"/>
  <path id="Rectangle_175_copy_10" data-name="Rectangle 175 copy 10" class="cls-2" d="M1315,2615h-3v3a1,1,0,0,1-2,0v-3h-3a1,1,0,0,1,0-2h3v-3a1,1,0,0,1,2,0v3h3A1,1,0,0,1,1315,2615Z" transform="translate(-1157 -2579)"/>
  <path id="Ellipse_42_copy_6" data-name="Ellipse 42 copy 6" class="cls-2" d="M1171,2659a4,4,0,1,1,4-4A4,4,0,0,1,1171,2659Zm0-6a2,2,0,1,0,2,2A2,2,0,0,0,1171,2653Z" transform="translate(-1157 -2579)"/>
  <path id="Rounded_Rectangle_10_copy_6" data-name="Rounded Rectangle 10 copy 6" class="cls-1" d="M1249,2588h-7a1,1,0,0,1-1-1v-7a1,1,0,0,1,1-1h7a1,1,0,0,1,1,1v7A1,1,0,0,1,1249,2588Zm-1-7h-5v5h5v-5Z" transform="translate(-1157 -2579)"/>
</svg>
