<svg xmlns="http://www.w3.org/2000/svg" width="169" height="110" viewBox="0 0 169 110">
  <metadata><?xpacket begin="﻿" id="W5M0MpCehiHzreSzNTczkc9d"?>
<x:xmpmeta xmlns:x="adobe:ns:meta/" x:xmptk="Adobe XMP Core 5.6-c138 79.159824, 2016/09/14-01:09:01        ">
   <rdf:RDF xmlns:rdf="http://www.w3.org/1999/02/22-rdf-syntax-ns#">
      <rdf:Description rdf:about=""/>
   </rdf:RDF>
</x:xmpmeta>
                                                                                                    
                                                                                                    
                                                                                                    
                                                                                                    
                                                                                                    
                                                                                                    
                                                                                                    
                                                                                                    
                                                                                                    
                                                                                                    
                                                                                                    
                                                                                                    
                                                                                                    
                                                                                                    
                                                                                                    
                                                                                                    
                                                                                                    
                                                                                                    
                                                                                                    
                                                                                                    
                           
<?xpacket end="w"?></metadata>
<defs>
    <style>
      .cls-1 {
        fill: #f0f7f5;
        fill-rule: evenodd;
      }
    </style>
  </defs>
  <path id="_6_bg" data-name="6_bg" class="cls-1" d="M1228,2683a5,5,0,0,1-5,5h-60a5,5,0,0,1,0-10h60A5,5,0,0,1,1228,2683Zm-45-65h54a5,5,0,0,0,0-10h-64a5,5,0,0,1-.04-10H1191a5,5,0,0,0,0-10h-35a5,5,0,0,1,0-10h65a5,5,0,0,1,0,10h-10a5,5,0,0,0,0,10h74.04a5,5,0,0,1-.04,10h-28a5,5,0,0,0,0,10h58a5,5,0,0,1,0,10h-9a5,5,0,0,0,0,10h7a5,5,0,0,1,0,10h-68a5,5,0,0,0,0,10h55a5,5,0,0,1,0,10h-13a5,5,0,0,0,0,10h13a5,5,0,0,1,0,10h-57a5,5,0,0,1,0-10h24a5,5,0,0,0,0-10H1158a5,5,0,0,1,0-10h67a5,5,0,0,0,0-10h-63a5,5,0,0,1,0-10h24a5,5,0,0,0,0-10h-3A5,5,0,0,1,1183,2618Zm23,10h80a5,5,0,0,1,0,10h-80A5,5,0,0,1,1206,2628Zm101-45a5,5,0,0,1-5,5h-61a5,5,0,0,1,0-10h61A5,5,0,0,1,1307,2583Z" transform="translate(-1151 -2578)"/>
</svg>
