<?xml version="1.0" encoding="utf-8"?>
<!-- Generator: Adobe Illustrator 21.1.0, SVG Export Plug-In . SVG Version: 6.00 Build 0)  -->
<svg version="1.1" id="_1" xmlns="http://www.w3.org/2000/svg" xmlns:xlink="http://www.w3.org/1999/xlink" x="0px" y="0px"
	 viewBox="0 0 77 73" style="enable-background:new 0 0 77 73;" xml:space="preserve">
<style type="text/css">
	.st0{fill:#226D4F;}
	.st1{fill:#16D488;}
	.st2{fill:#C1ECDB;}
</style>
<path class="st0" d="M3,1C1.9,1,1,1.9,1,3v67c0,1.1,0.9,2,2,2h44.2c0.5,0,1-0.2,1.4-0.6l9.8-9.8c0.4-0.4,0.6-0.9,0.6-1.4V3
	c0-1.1-0.9-2-2-2H3z M3,71h44.2c0.3,0,0.5-0.1,0.7-0.3l0.9-0.9l8-8l0.9-0.9c0.2-0.2,0.3-0.4,0.3-0.7V3c0-0.6-0.4-1-1-1H3
	C2.4,2,2,2.4,2,3v67C2,70.6,2.4,71,3,71 M3,73L3,73c-1.7,0-3-1.3-3-3V3c0-1.7,1.3-3,3-3h54c1.7,0,3,1.3,3,3v57.2
	c0,0.8-0.3,1.6-0.9,2.1l-0.9,0.9l-8,8l-0.9,0.9C48.8,72.7,48,73,47.2,73L3,73L3,73z M3,73L3,73c-1.7,0-3-1.3-3-3V3c0-1.7,1.3-3,3-3
	h54c1.7,0,3,1.3,3,3v57.2c0,0.8-0.3,1.6-0.9,2.1l-0.9,0.9l-8,8l-0.9,0.9C48.8,72.7,48,73,47.2,73L3,73L3,73z"/>
<path id="Shape_990_copy" class="st1" d="M3,71h44.2c0.3,0,0.5-0.1,0.7-0.3l0.9-0.9l8-8l0.9-0.9c0.2-0.2,0.3-0.4,0.3-0.7V3
	c0-0.6-0.4-1-1-1H3C2.4,2,2,2.4,2,3v67C2,70.6,2.4,71,3,71"/>
<path id="Rectangle_52_copy" class="st2" d="M54,6H6v61h42l6-6V6z"/>
<path id="Shape_990_copy_2" class="st0" d="M60,59H50c-2.2,0-4,1.8-4,4v10h1.2c0.8,0,1.6-0.3,2.1-0.9l0.9-0.9l8-8l0.9-0.9
	c0.6-0.6,0.9-1.3,0.9-2.1L60,59L60,59z"/>
<path id="Shape_990_copy_3" class="st1" d="M48.8,69.8l8-8l0.8-0.8H50c-1.1,0-2,0.9-2,2v7.7L48.8,69.8z"/>
<path class="st0" d="M75,19v-7h-2v55l-3,4l-3-4V6c0-1.1,0.9-2,2-2h2c1.1,0,2,0.9,2,2v4h2c1.1,0,2,0.9,2,2v7H75z"/>
<path class="st1" d="M71,5.9v60.6l-1,1.3l-1-1.3V5.9H71"/>
<rect x="67" y="10" class="st0" width="6" height="2"/>
</svg>
