<svg xmlns="http://www.w3.org/2000/svg" width="148" height="90" viewBox="0 0 148 90">
  <metadata><?xpacket begin="﻿" id="W5M0MpCehiHzreSzNTczkc9d"?>
<x:xmpmeta xmlns:x="adobe:ns:meta/" x:xmptk="Adobe XMP Core 5.6-c138 79.159824, 2016/09/14-01:09:01        ">
   <rdf:RDF xmlns:rdf="http://www.w3.org/1999/02/22-rdf-syntax-ns#">
      <rdf:Description rdf:about=""/>
   </rdf:RDF>
</x:xmpmeta>
                                                                                                    
                                                                                                    
                                                                                                    
                                                                                                    
                                                                                                    
                                                                                                    
                                                                                                    
                                                                                                    
                                                                                                    
                                                                                                    
                                                                                                    
                                                                                                    
                                                                                                    
                                                                                                    
                                                                                                    
                                                                                                    
                                                                                                    
                                                                                                    
                                                                                                    
                                                                                                    
                           
<?xpacket end="w"?></metadata>
<defs>
    <style>
      .cls-1 {
        fill: #f0f7f5;
        fill-rule: evenodd;
      }
    </style>
  </defs>
  <path id="_1_bg" data-name="1_bg" class="cls-1" d="M243,2158h17a5,5,0,0,0,0-10H245a5,5,0,0,1,0-10h9a5,5,0,0,0,0-10h-6a5,5,0,0,1,0-10h63a5,5,0,0,0,0-10H258a5,5,0,0,1,0-10H363a5,5,0,0,1,0,10H341a5,5,0,0,0,0,10h4a5,5,0,0,1,0,10H274a5,5,0,0,0,0,10H374a5,5,0,0,1,0,10H320a5,5,0,0,0,0,10h48a5,5,0,0,1,0,10H349a5,5,0,0,0,0,10h14a5,5,0,0,1,0,10H253a5,5,0,0,1,0-10h26a5,5,0,0,0,0-10H243A5,5,0,0,1,243,2158Zm117-35a5,5,0,0,1,5-5h16a5,5,0,0,1,0,10H365A5,5,0,0,1,360,2123Z" transform="translate(-238 -2098)"/>
</svg>
