<svg id="_2" data-name="2" xmlns="http://www.w3.org/2000/svg" width="92" height="64" viewBox="0 0 92 64">
  <metadata><?xpacket begin="﻿" id="W5M0MpCehiHzreSzNTczkc9d"?>
<x:xmpmeta xmlns:x="adobe:ns:meta/" x:xmptk="Adobe XMP Core 5.6-c138 79.159824, 2016/09/14-01:09:01        ">
   <rdf:RDF xmlns:rdf="http://www.w3.org/1999/02/22-rdf-syntax-ns#">
      <rdf:Description rdf:about=""/>
   </rdf:RDF>
</x:xmpmeta>
                                                                                                    
                                                                                                    
                                                                                                    
                                                                                                    
                                                                                                    
                                                                                                    
                                                                                                    
                                                                                                    
                                                                                                    
                                                                                                    
                                                                                                    
                                                                                                    
                                                                                                    
                                                                                                    
                                                                                                    
                                                                                                    
                                                                                                    
                                                                                                    
                                                                                                    
                                                                                                    
                           
<?xpacket end="w"?></metadata>
<defs>
    <style>
      .cls-1, .cls-2 {
        fill: #226d4f;
      }

      .cls-1, .cls-4, .cls-5 {
        fill-rule: evenodd;
      }

      .cls-3, .cls-4 {
        fill: #16d488;
      }

      .cls-5, .cls-6 {
        fill: #c1ecdb;
      }
    </style>
  </defs>
  <path class="cls-1" d="M650,2132h24a4,4,0,0,1,4,4v32a4,4,0,0,1-4,4H596a4,4,0,0,1-4-4v-51a4,4,0,0,1,4-4h50a4,4,0,0,1,4,4v15Z" transform="translate(-592 -2108)"/>
  <rect class="cls-2" x="62" width="30" height="21" rx="4" ry="4"/>
  <rect id="Rectangle_160_copy" data-name="Rectangle 160 copy" class="cls-3" x="64" y="2" width="26" height="17" rx="2" ry="2"/>
  <rect class="cls-3" x="2" y="7" width="26" height="17" rx="2" ry="2"/>
  <rect id="Rectangle_162_copy_2" data-name="Rectangle 162 copy 2" class="cls-3" x="16" y="26" width="26" height="17" rx="2" ry="2"/>
  <path id="Rectangle_162_copy_4" data-name="Rectangle 162 copy 4" class="cls-4" d="M604,2151H594v-17h10a2,2,0,0,1,2,2v13A2,2,0,0,1,604,2151Z" transform="translate(-592 -2108)"/>
  <rect id="Rectangle_162_copy_5" data-name="Rectangle 162 copy 5" class="cls-3" x="44" y="26" width="26" height="17" rx="2" ry="2"/>
  <path id="Rectangle_162_copy_6" data-name="Rectangle 162 copy 6" class="cls-4" d="M676,2151H666a2,2,0,0,1-2-2v-13a2,2,0,0,1,2-2h10v17Z" transform="translate(-592 -2108)"/>
  <rect id="Rectangle_162_copy_3" data-name="Rectangle 162 copy 3" class="cls-3" x="30" y="7" width="26" height="17" rx="2" ry="2"/>
  <rect id="Rectangle_162_copy_8" data-name="Rectangle 162 copy 8" class="cls-3" x="58" y="45" width="26" height="17" rx="2" ry="2"/>
  <rect id="Rectangle_162_copy" data-name="Rectangle 162 copy" class="cls-3" x="2" y="45" width="26" height="17" rx="2" ry="2"/>
  <rect id="Rectangle_162_copy_7" data-name="Rectangle 162 copy 7" class="cls-3" x="30" y="45" width="26" height="17" rx="2" ry="2"/>
  <path class="cls-5" d="M612,2131v4a1,1,0,0,1-1,1h-1a1,1,0,0,1-1-1v-4a1,1,0,0,1,1-1h1A1,1,0,0,1,612,2131Zm-6.5-2h17a1.5,1.5,0,0,1,0,3h-17A1.5,1.5,0,0,1,605.5,2129Z" transform="translate(-592 -2108)"/>
  <path id="Rounded_Rectangle_4" data-name="Rounded Rectangle 4" class="cls-5" d="M611.5,2148h6a1.5,1.5,0,0,1,0,3h-6A1.5,1.5,0,0,1,611.5,2148Zm-9,0h11a1.5,1.5,0,0,1,0,3h-11A1.5,1.5,0,0,1,602.5,2148Zm0,0a1.5,1.5,0,0,1,1.5,1.5v3a1.5,1.5,0,0,1-3,0v-3A1.5,1.5,0,0,1,602.5,2148Zm9,0a1.5,1.5,0,0,1,1.5,1.5v7a1.5,1.5,0,0,1-3,0v-7A1.5,1.5,0,0,1,611.5,2148Z" transform="translate(-592 -2108)"/>
  <path id="Rounded_Rectangle_5" data-name="Rounded Rectangle 5" class="cls-5" d="M636.5,2148h15a1.5,1.5,0,0,1,0,3h-15A1.5,1.5,0,0,1,636.5,2148Zm15,0a1.5,1.5,0,0,1,1.5,1.5v6a1.5,1.5,0,0,1-3,0v-6A1.5,1.5,0,0,1,651.5,2148Zm-5,0a1.5,1.5,0,0,1,1.5,1.5v4a1.5,1.5,0,0,1-3,0v-4A1.5,1.5,0,0,1,646.5,2148Zm-23,19h7a1.5,1.5,0,0,1,0,3h-7A1.5,1.5,0,0,1,623.5,2167Z" transform="translate(-592 -2108)"/>
  <rect id="Rounded_Rectangle_7" data-name="Rounded Rectangle 7" class="cls-6" x="57" y="40" width="9" height="3" rx="1.5" ry="1.5"/>
  <rect id="Rounded_Rectangle_8" data-name="Rounded Rectangle 8" class="cls-6" x="65" y="59" width="8" height="3" rx="1.5" ry="1.5"/>
  <rect id="Rounded_Rectangle_6" data-name="Rounded Rectangle 6" class="cls-6" x="43" y="22" width="20" height="3" rx="1.5" ry="1.5"/>
</svg>
