<svg id="_3" data-name="3" xmlns="http://www.w3.org/2000/svg" width="108" height="82" viewBox="0 0 108 82">
  <metadata><?xpacket begin="﻿" id="W5M0MpCehiHzreSzNTczkc9d"?>
<x:xmpmeta xmlns:x="adobe:ns:meta/" x:xmptk="Adobe XMP Core 5.6-c138 79.159824, 2016/09/14-01:09:01        ">
   <rdf:RDF xmlns:rdf="http://www.w3.org/1999/02/22-rdf-syntax-ns#">
      <rdf:Description rdf:about=""/>
   </rdf:RDF>
</x:xmpmeta>
                                                                                                    
                                                                                                    
                                                                                                    
                                                                                                    
                                                                                                    
                                                                                                    
                                                                                                    
                                                                                                    
                                                                                                    
                                                                                                    
                                                                                                    
                                                                                                    
                                                                                                    
                                                                                                    
                                                                                                    
                                                                                                    
                                                                                                    
                                                                                                    
                                                                                                    
                                                                                                    
                           
<?xpacket end="w"?></metadata>
<defs>
    <style>
      .cls-1, .cls-4 {
        fill: #226d4f;
      }

      .cls-1, .cls-2, .cls-3 {
        fill-rule: evenodd;
      }

      .cls-2, .cls-5 {
        fill: #16d488;
      }

      .cls-3, .cls-6 {
        fill: #c1ecdb;
      }
    </style>
  </defs>
  <path class="cls-1" d="M963,2103a40,40,0,1,1-40,40A40,40,0,0,1,963,2103Zm0,26a14,14,0,1,1-14,14A14,14,0,0,1,963,2129Z" transform="translate(-895 -2101)"/>
  <path id="Rectangle_676_copy_2" data-name="Rectangle 676 copy 2" class="cls-1" d="M979,2142v2h-9.1a6.891,6.891,0,0,1-1.31,3.17l6.432,6.44-1.414,1.41-6.432-6.43A6.961,6.961,0,0,1,964,2149.9v9.1h-2v-9.1a6.961,6.961,0,0,1-3.175-1.31l-6.432,6.43-1.414-1.41,6.432-6.44a6.891,6.891,0,0,1-1.31-3.17H947v-2h9.1a6.891,6.891,0,0,1,1.31-3.17l-6.432-6.44,1.414-1.41,6.432,6.43A6.961,6.961,0,0,1,962,2136.1V2127h2v9.1a6.961,6.961,0,0,1,3.175,1.31l6.432-6.43,1.414,1.41-6.432,6.44a6.891,6.891,0,0,1,1.31,3.17H979Zm-11.832-1.75a4.894,4.894,0,0,0-1.414-1.42,4.659,4.659,0,0,0-.711-0.38,3.073,3.073,0,0,0-.285-0.12,5.651,5.651,0,0,0-.58-0.18l-0.279-.06a4.535,4.535,0,0,0-1.8,0l-0.279.06a5.651,5.651,0,0,0-.58.18,3.073,3.073,0,0,0-.285.12,4.659,4.659,0,0,0-.711.38,4.894,4.894,0,0,0-1.414,1.42,4.571,4.571,0,0,0-.386.71c-0.042.09-.075,0.19-0.112,0.28a5.132,5.132,0,0,0-.18.58c-0.022.09-.046,0.19-0.063,0.28a4.5,4.5,0,0,0,0,1.8c0.017,0.09.041,0.18,0.063,0.28a5.132,5.132,0,0,0,.18.58c0.037,0.09.07,0.19,0.112,0.28a4.571,4.571,0,0,0,.386.71,4.894,4.894,0,0,0,1.414,1.42,4.659,4.659,0,0,0,.711.38,3.073,3.073,0,0,0,.285.12,5.651,5.651,0,0,0,.58.18l0.279,0.06a4.535,4.535,0,0,0,1.8,0l0.279-.06a5.651,5.651,0,0,0,.58-0.18,3.073,3.073,0,0,0,.285-0.12,4.659,4.659,0,0,0,.711-0.38,4.894,4.894,0,0,0,1.414-1.42,4.571,4.571,0,0,0,.386-0.71c0.042-.09.075-0.19,0.111-0.28a4.94,4.94,0,0,0,.181-0.58c0.022-.1.046-0.19,0.063-0.28a4.5,4.5,0,0,0,0-1.8c-0.017-.09-0.041-0.19-0.063-0.28a4.94,4.94,0,0,0-.181-0.58c-0.036-.09-0.069-0.19-0.111-0.28A4.571,4.571,0,0,0,967.168,2140.25Z" transform="translate(-895 -2101)"/>
  <path class="cls-2" d="M963,2105a38,38,0,1,1-38,38A38,38,0,0,1,963,2105Zm0,22a16,16,0,1,1-16,16A16,16,0,0,1,963,2127Z" transform="translate(-895 -2101)"/>
  <path class="cls-3" d="M963,2109a34,34,0,1,1-34,34A34,34,0,0,1,963,2109Zm0,14a20,20,0,1,1-20,20A20,20,0,0,1,963,2123Z" transform="translate(-895 -2101)"/>
  <rect class="cls-4" x="23" y="2" width="45" height="26"/>
  <rect class="cls-5" x="24" y="4" width="44" height="22"/>
  <rect id="Rectangle_671_copy" data-name="Rectangle 671 copy" class="cls-6" x="24" y="8" width="44" height="14"/>
  <rect class="cls-4" x="19" width="8" height="30" rx="2" ry="2"/>
  <path id="Rounded_Rectangle_678" data-name="Rounded Rectangle 678" class="cls-1" d="M899,2109h11a1,1,0,0,1,0,2H899A1,1,0,0,1,899,2109Zm2,6h9a1,1,0,0,1,0,2h-9A1,1,0,0,1,901,2115Zm-5,6h14a1,1,0,0,1,0,2H896A1,1,0,0,1,896,2121Z" transform="translate(-895 -2101)"/>
  <rect id="Rectangle_673_copy" data-name="Rectangle 673 copy" class="cls-5" x="21" y="2" width="4" height="26"/>
</svg>
