<svg xmlns="http://www.w3.org/2000/svg" width="141" height="90" viewBox="0 0 141 90">
  <metadata><?xpacket begin="﻿" id="W5M0MpCehiHzreSzNTczkc9d"?>
<x:xmpmeta xmlns:x="adobe:ns:meta/" x:xmptk="Adobe XMP Core 5.6-c138 79.159824, 2016/09/14-01:09:01        ">
   <rdf:RDF xmlns:rdf="http://www.w3.org/1999/02/22-rdf-syntax-ns#">
      <rdf:Description rdf:about=""/>
   </rdf:RDF>
</x:xmpmeta>
                                                                                                    
                                                                                                    
                                                                                                    
                                                                                                    
                                                                                                    
                                                                                                    
                                                                                                    
                                                                                                    
                                                                                                    
                                                                                                    
                                                                                                    
                                                                                                    
                                                                                                    
                                                                                                    
                                                                                                    
                                                                                                    
                                                                                                    
                                                                                                    
                                                                                                    
                                                                                                    
                           
<?xpacket end="w"?></metadata>
<defs>
    <style>
      .cls-1 {
        fill: #f0f7f5;
        fill-rule: evenodd;
      }
    </style>
  </defs>
  <path id="_3_bg" data-name="3_bg" class="cls-1" d="M1028,2158H996a5,5,0,0,1,0-10h10a5,5,0,0,0,0-10H995a5,5,0,0,1,0-10h18a5,5,0,0,0,0-10h-13a5,5,0,0,1,0-10h13a5,5,0,0,0,0-10H905a5,5,0,0,0,0,10h72a5,5,0,0,1,0,10H923a5,5,0,0,0,0,10h9a5,5,0,0,1,0,10H907a5,5,0,0,0,0,10h44a5,5,0,0,1,0,10H903a5,5,0,0,0,0,10h19a5,5,0,0,1,0,10H908a5,5,0,0,0,0,10h50a5,5,0,0,0,0-10H942a5,5,0,0,1,0-10h86A5,5,0,0,0,1028,2158Zm-23,20H978a5,5,0,0,0,0,10h27A5,5,0,0,0,1005,2178Zm-97-55a5,5,0,0,0-5-5h-6a5,5,0,0,0,0,10h6A5,5,0,0,0,908,2123Z" transform="translate(-892 -2098)"/>
</svg>
