<svg id="_4" data-name="4" xmlns="http://www.w3.org/2000/svg" width="82" height="88" viewBox="0 0 82 88">
  <metadata><?xpacket begin="﻿" id="W5M0MpCehiHzreSzNTczkc9d"?>
<x:xmpmeta xmlns:x="adobe:ns:meta/" x:xmptk="Adobe XMP Core 5.6-c138 79.159824, 2016/09/14-01:09:01        ">
   <rdf:RDF xmlns:rdf="http://www.w3.org/1999/02/22-rdf-syntax-ns#">
      <rdf:Description rdf:about=""/>
   </rdf:RDF>
</x:xmpmeta>
                                                                                                    
                                                                                                    
                                                                                                    
                                                                                                    
                                                                                                    
                                                                                                    
                                                                                                    
                                                                                                    
                                                                                                    
                                                                                                    
                                                                                                    
                                                                                                    
                                                                                                    
                                                                                                    
                                                                                                    
                                                                                                    
                                                                                                    
                                                                                                    
                                                                                                    
                                                                                                    
                           
<?xpacket end="w"?></metadata>
<defs>
    <style>
      .cls-1, .cls-3 {
        fill: #226d4f;
      }

      .cls-1, .cls-2, .cls-5 {
        fill-rule: evenodd;
      }

      .cls-2, .cls-4 {
        fill: #16d488;
      }

      .cls-5 {
        fill: #c1ecdb;
      }
    </style>
  </defs>
  <path class="cls-1" d="M1324,2135v7h-8v-7h0a26,26,0,0,0-52,0v7h-8v-7h0a34,34,0,0,1,68,0h0Z" transform="translate(-1249 -2101)"/>
  <path class="cls-2" d="M1318,2142v-7a28,28,0,0,0-56,0v7h-4v-7a32,32,0,0,1,64,0v7h-4Z" transform="translate(-1249 -2101)"/>
  <path id="Rounded_Rectangle_9" data-name="Rounded Rectangle 9" class="cls-3" d="M12,38h3a4,4,0,0,1,4,4V63a4,4,0,0,1-4,4H12A12,12,0,0,1,0,55V50A12,12,0,0,1,12,38Z"/>
  <path class="cls-4" d="M12,40h3a2,2,0,0,1,2,2V63a2,2,0,0,1-2,2H12A10,10,0,0,1,2,55V50A10,10,0,0,1,12,40Z"/>
  <path id="Rectangle_169_copy" data-name="Rectangle 169 copy" class="cls-5" d="M1261,2145h1v17h-1a6,6,0,0,1-6-6v-5A6,6,0,0,1,1261,2145Z" transform="translate(-1249 -2101)"/>
  <path id="Rounded_Rectangle_9_copy" data-name="Rounded Rectangle 9 copy" class="cls-3" d="M67,38h3A12,12,0,0,1,82,50v5A12,12,0,0,1,70,67H67a4,4,0,0,1-4-4V42A4,4,0,0,1,67,38Z"/>
  <path id="Rectangle_169_copy_2" data-name="Rectangle 169 copy 2" class="cls-4" d="M67,40h3A10,10,0,0,1,80,50v5A10,10,0,0,1,70,65H67a2,2,0,0,1-2-2V42A2,2,0,0,1,67,40Z"/>
  <path id="Rectangle_169_copy_2-2" data-name="Rectangle 169 copy 2" class="cls-5" d="M1318,2145h1a6,6,0,0,1,6,6v5a6,6,0,0,1-6,6h-1v-17h0Z" transform="translate(-1249 -2101)"/>
  <path class="cls-1" d="M1302,2186.95v-2a18.983,18.983,0,0,0,18-18.95h2A20.987,20.987,0,0,1,1302,2186.95Zm-8-3.95h7a2.006,2.006,0,0,1,2,2v2a2.006,2.006,0,0,1-2,2h-7a2.006,2.006,0,0,1-2-2v-2A2.006,2.006,0,0,1,1294,2183Z" transform="translate(-1249 -2101)"/>
  <rect class="cls-4" x="45" y="84" width="7" height="2"/>
</svg>
