<svg xmlns="http://www.w3.org/2000/svg" width="126" height="90" viewBox="0 0 126 90">
  <metadata><?xpacket begin="﻿" id="W5M0MpCehiHzreSzNTczkc9d"?>
<x:xmpmeta xmlns:x="adobe:ns:meta/" x:xmptk="Adobe XMP Core 5.6-c138 79.159824, 2016/09/14-01:09:01        ">
   <rdf:RDF xmlns:rdf="http://www.w3.org/1999/02/22-rdf-syntax-ns#">
      <rdf:Description rdf:about=""/>
   </rdf:RDF>
</x:xmpmeta>
                                                                                                    
                                                                                                    
                                                                                                    
                                                                                                    
                                                                                                    
                                                                                                    
                                                                                                    
                                                                                                    
                                                                                                    
                                                                                                    
                                                                                                    
                                                                                                    
                                                                                                    
                                                                                                    
                                                                                                    
                                                                                                    
                                                                                                    
                                                                                                    
                                                                                                    
                                                                                                    
                           
<?xpacket end="w"?></metadata>
<defs>
    <style>
      .cls-1 {
        fill: #f0f7f5;
        fill-rule: evenodd;
      }
    </style>
  </defs>
  <path id="_4_bg" data-name="4_bg" class="cls-1" d="M1231,2158h45a5,5,0,0,0,0-10h-33a5,5,0,0,1,0-10h24a5,5,0,0,0,0-10h-31a5,5,0,0,1,0-10h83a5,5,0,0,0,0-10h-84a5,5,0,0,1,0-10h109a5,5,0,0,1,0,10h-5a5,5,0,0,0,0,10h7a5,5,0,0,1,0,10h-59a5,5,0,0,0,0,10h15a5,5,0,0,1,0,10h-6a5,5,0,0,0,0,10h40a5,5,0,0,1,0,10h-62a5,5,0,0,0,0,10h67a5,5,0,0,1,0,10H1241a5,5,0,0,1,0-10h13a5,5,0,0,0,0-10h-23A5,5,0,0,1,1231,2158Zm86-15a5,5,0,0,1,5-5h25a5,5,0,0,1,0,10h-25A5,5,0,0,1,1317,2143Z" transform="translate(-1226 -2098)"/>
</svg>
