<svg id="_1" data-name="1" xmlns="http://www.w3.org/2000/svg" width="78" height="59" viewBox="0 0 78 59">
  <metadata><?xpacket begin="﻿" id="W5M0MpCehiHzreSzNTczkc9d"?>
<x:xmpmeta xmlns:x="adobe:ns:meta/" x:xmptk="Adobe XMP Core 5.6-c138 79.159824, 2016/09/14-01:09:01        ">
   <rdf:RDF xmlns:rdf="http://www.w3.org/1999/02/22-rdf-syntax-ns#">
      <rdf:Description rdf:about=""/>
   </rdf:RDF>
</x:xmpmeta>
                                                                                                    
                                                                                                    
                                                                                                    
                                                                                                    
                                                                                                    
                                                                                                    
                                                                                                    
                                                                                                    
                                                                                                    
                                                                                                    
                                                                                                    
                                                                                                    
                                                                                                    
                                                                                                    
                                                                                                    
                                                                                                    
                                                                                                    
                                                                                                    
                                                                                                    
                                                                                                    
                           
<?xpacket end="w"?></metadata>
<defs>
    <style>
      .cls-1 {
        fill: #226d4f;
      }

      .cls-1, .cls-2 {
        fill-rule: evenodd;
      }

      .cls-2 {
        fill: #16d488;
      }

      .cls-3 {
        fill: #c1ecdb;
      }
    </style>
  </defs>
  <path id="Shape_990_copy_4" data-name="Shape 990 copy 4" class="cls-1" d="M352,2897v53a3,3,0,0,1-3,3H277a3,3,0,0,1-3-3v-53a3,3,0,0,1,3-3h72A3,3,0,0,1,352,2897Z" transform="translate(-274 -2894)"/>
  <path id="Shape_990_copy_4-2" data-name="Shape 990 copy 4" class="cls-2" d="M350,2897v53a1,1,0,0,1-1,1H277a1,1,0,0,1-1-1v-53a1,1,0,0,1,1-1h72A1,1,0,0,1,350,2897Z" transform="translate(-274 -2894)"/>
  <rect id="Rectangle_52_copy_2" data-name="Rectangle 52 copy 2" class="cls-3" x="6" y="12" width="66" height="41" rx="1" ry="1"/>
  <path class="cls-1" d="M276,2902v-2h62v-4h2v4h10v2H276Zm12,10h18a2,2,0,0,1,2,2v25a2,2,0,0,1-2,2H288a2,2,0,0,1-2-2v-25A2,2,0,0,1,288,2912Zm0,27h18v-25H288v25Zm28-27v2h-2A2,2,0,0,1,316,2912Zm0,6h-2v-2h2v2Zm0,4h-2v-2h2v2Zm0,4a2,2,0,0,1-2-2h2v2Zm2-14h2v2h-2v-2Zm2,14h-2v-2h2v2Zm2-14h2v2h-2v-2Zm2,14h-2v-2h2v2Zm2-14h2v2h-2v-2Zm2,14h-2v-2h2v2Zm2-14h2v2h-2v-2Zm2,14h-2v-2h2v2Zm-17,6h17a1,1,0,0,1,0,2H315A1,1,0,0,1,315,2932Zm19-20h2v2h-2v-2Zm2,14h-2v-2h2v2Zm-21,13h21a1,1,0,0,1,0,2H315A1,1,0,0,1,315,2939Zm25-25h-2v-2A2,2,0,0,1,340,2914Zm0,4h-2v-2h2v2Zm0,4h-2v-2h2v2Zm-2,4v-2h2A2,2,0,0,1,338,2926Z" transform="translate(-274 -2894)"/>
</svg>
