<svg id="_1_1" data-name="1_1" xmlns="http://www.w3.org/2000/svg" width="161" height="88.09" viewBox="0 0 161 88.09">
  <metadata><?xpacket begin="﻿" id="W5M0MpCehiHzreSzNTczkc9d"?>
<x:xmpmeta xmlns:x="adobe:ns:meta/" x:xmptk="Adobe XMP Core 5.6-c138 79.159824, 2016/09/14-01:09:01        ">
   <rdf:RDF xmlns:rdf="http://www.w3.org/1999/02/22-rdf-syntax-ns#">
      <rdf:Description rdf:about=""/>
   </rdf:RDF>
</x:xmpmeta>
                                                                                                    
                                                                                                    
                                                                                                    
                                                                                                    
                                                                                                    
                                                                                                    
                                                                                                    
                                                                                                    
                                                                                                    
                                                                                                    
                                                                                                    
                                                                                                    
                                                                                                    
                                                                                                    
                                                                                                    
                                                                                                    
                                                                                                    
                                                                                                    
                                                                                                    
                                                                                                    
                           
<?xpacket end="w"?></metadata>
<defs>
    <style>
      .cls-1 {
        fill: #2c7457;
      }

      .cls-1, .cls-2 {
        fill-rule: evenodd;
        opacity: 0.5;
      }

      .cls-2 {
        fill: #16d488;
      }
    </style>
  </defs>
  <path class="cls-1" d="M375.657,2961.07L373,2958.41l-2.657,2.66-1.414-1.42,2.657-2.65-2.657-2.66,1.414-1.41,2.657,2.65,2.657-2.65,1.414,1.41-2.657,2.66,2.657,2.65Z" transform="translate(-221 -2872.97)"/>
  <path class="cls-2" d="M230,2899h-3v3a1,1,0,0,1-2,0v-3h-3a1,1,0,0,1,0-2h3v-3a1,1,0,0,1,2,0v3h3A1,1,0,0,1,230,2899Z" transform="translate(-221 -2872.97)"/>
  <path id="Rounded_Rectangle_10" data-name="Rounded Rectangle 10" class="cls-2" d="M247,2941h-7a1,1,0,0,1-1-1v-7a1,1,0,0,1,1-1h7a1,1,0,0,1,1,1v7A1,1,0,0,1,247,2941Zm-1-7h-5v5h5v-5Z" transform="translate(-221 -2872.97)"/>
  <path class="cls-2" d="M378,2927a4,4,0,1,1,4-4A4,4,0,0,1,378,2927Zm0-6a2,2,0,1,0,2,2A2,2,0,0,0,378,2921Z" transform="translate(-221 -2872.97)"/>
  <path class="cls-1" d="M273.261,2882.55l-11.405.21,5.876-9.78Zm-7.9-1.82,4.471-.08-2.168-3.75Z" transform="translate(-221 -2872.97)"/>
</svg>
