<svg xmlns="http://www.w3.org/2000/svg" width="170" height="110" viewBox="0 0 170 110">
  <metadata><?xpacket begin="﻿" id="W5M0MpCehiHzreSzNTczkc9d"?>
<x:xmpmeta xmlns:x="adobe:ns:meta/" x:xmptk="Adobe XMP Core 5.6-c138 79.159824, 2016/09/14-01:09:01        ">
   <rdf:RDF xmlns:rdf="http://www.w3.org/1999/02/22-rdf-syntax-ns#">
      <rdf:Description rdf:about=""/>
   </rdf:RDF>
</x:xmpmeta>
                                                                                                    
                                                                                                    
                                                                                                    
                                                                                                    
                                                                                                    
                                                                                                    
                                                                                                    
                                                                                                    
                                                                                                    
                                                                                                    
                                                                                                    
                                                                                                    
                                                                                                    
                                                                                                    
                                                                                                    
                                                                                                    
                                                                                                    
                                                                                                    
                                                                                                    
                                                                                                    
                           
<?xpacket end="w"?></metadata>
<defs>
    <style>
      .cls-1 {
        fill: #f0f7f5;
        fill-rule: evenodd;
      }
    </style>
  </defs>
  <path id="_1_bg" data-name="1_bg" class="cls-1" d="M380,2878H348a5,5,0,0,0,0,10h29a5,5,0,0,1,0,10H365a5,5,0,0,0,0,10h10a5,5,0,0,1,0,10H334a5,5,0,0,0,0,10h59a5,5,0,0,1,0,10H354a5,5,0,0,0,0,10h24a5,5,0,0,1,0,10H339a5,5,0,0,0,0,10h48a5,5,0,0,1,0,10H283a5,5,0,0,1,0-10h36a5,5,0,0,0,0-10H233a5,5,0,0,1,0-10h67a5,5,0,0,0,0-10H245a5,5,0,0,1,0-10h19a5,5,0,0,0,0-10H248a5,5,0,0,1,0-10h97a5,5,0,0,0,0-10H258a5,5,0,0,1,0-10h68a5,5,0,0,0,0-10H244a5,5,0,0,1,0-10H380A5,5,0,0,1,380,2878Zm-137,90h20a5,5,0,0,1,0,10H243A5,5,0,0,1,243,2968Z" transform="translate(-228 -2868)"/>
</svg>
