<svg id="_2" data-name="2" xmlns="http://www.w3.org/2000/svg" width="82" height="70" viewBox="0 0 82 70">
  <metadata><?xpacket begin="﻿" id="W5M0MpCehiHzreSzNTczkc9d"?>
<x:xmpmeta xmlns:x="adobe:ns:meta/" x:xmptk="Adobe XMP Core 5.6-c138 79.159824, 2016/09/14-01:09:01        ">
   <rdf:RDF xmlns:rdf="http://www.w3.org/1999/02/22-rdf-syntax-ns#">
      <rdf:Description rdf:about=""/>
   </rdf:RDF>
</x:xmpmeta>
                                                                                                    
                                                                                                    
                                                                                                    
                                                                                                    
                                                                                                    
                                                                                                    
                                                                                                    
                                                                                                    
                                                                                                    
                                                                                                    
                                                                                                    
                                                                                                    
                                                                                                    
                                                                                                    
                                                                                                    
                                                                                                    
                                                                                                    
                                                                                                    
                                                                                                    
                                                                                                    
                           
<?xpacket end="w"?></metadata>
<defs>
    <style>
      .cls-1, .cls-4 {
        fill: #226d4f;
      }

      .cls-1, .cls-2 {
        fill-rule: evenodd;
      }

      .cls-2 {
        fill: #16d488;
      }

      .cls-3 {
        fill: #c1ecdb;
      }
    </style>
  </defs>
  <path id="Shape_990_copy_4" data-name="Shape 990 copy 4" class="cls-1" d="M595,2897v52a3,3,0,0,0,3,3h76a3,3,0,0,0,3-3v-52a3,3,0,0,0-3-3H598A3,3,0,0,0,595,2897Z" transform="translate(-595 -2882)"/>
  <path id="Shape_990_copy_4-2" data-name="Shape 990 copy 4" class="cls-2" d="M597,2897v52a1,1,0,0,0,1,1h76a1,1,0,0,0,1-1v-52a1,1,0,0,0-1-1H598A1,1,0,0,0,597,2897Z" transform="translate(-595 -2882)"/>
  <path class="cls-1" d="M607,2938a5,5,0,1,0-5-5A5,5,0,0,0,607,2938Zm0-8a3,3,0,1,1-3,3A3,3,0,0,1,607,2930Zm0,4a1,1,0,1,0-1-1A1,1,0,0,0,607,2934Z" transform="translate(-595 -2882)"/>
  <path id="Rounded_Rectangle_11" data-name="Rounded Rectangle 11" class="cls-1" d="M597,2918v2h7a2,2,0,0,0,2-2v-10a2,2,0,0,0-2-2h-7v2h7v4h-7v2h7v4h-7Z" transform="translate(-595 -2882)"/>
  <rect id="Rectangle_52_copy_2" data-name="Rectangle 52 copy 2" class="cls-3" x="18" y="18" width="58" height="46" rx="1" ry="1"/>
  <path class="cls-1" d="M656,2890v47l-3,4-3-4v-53a2,2,0,0,1,2-2h2a2,2,0,0,1,2,2v4h0v2h0Z" transform="translate(-595 -2882)"/>
  <path class="cls-2" d="M654,2883.95v52.65l-1,1.34-1-1.34v-52.65h2" transform="translate(-595 -2882)"/>
  <rect class="cls-4" x="56" y="47" width="4" height="2"/>
</svg>
