<svg id="_2_1" data-name="2_1" xmlns="http://www.w3.org/2000/svg" width="179" height="66.06" viewBox="0 0 179 66.06">
  <metadata><?xpacket begin="﻿" id="W5M0MpCehiHzreSzNTczkc9d"?>
<x:xmpmeta xmlns:x="adobe:ns:meta/" x:xmptk="Adobe XMP Core 5.6-c138 79.159824, 2016/09/14-01:09:01        ">
   <rdf:RDF xmlns:rdf="http://www.w3.org/1999/02/22-rdf-syntax-ns#">
      <rdf:Description rdf:about=""/>
   </rdf:RDF>
</x:xmpmeta>
                                                                                                    
                                                                                                    
                                                                                                    
                                                                                                    
                                                                                                    
                                                                                                    
                                                                                                    
                                                                                                    
                                                                                                    
                                                                                                    
                                                                                                    
                                                                                                    
                                                                                                    
                                                                                                    
                                                                                                    
                                                                                                    
                                                                                                    
                                                                                                    
                                                                                                    
                                                                                                    
                           
<?xpacket end="w"?></metadata>
<defs>
    <style>
      .cls-1 {
        fill: #2c7457;
      }

      .cls-1, .cls-2, .cls-3 {
        fill-rule: evenodd;
        opacity: 0.5;
      }

      .cls-2 {
        fill: #16d488;
      }

      .cls-3 {
        fill: #226d4f;
      }
    </style>
  </defs>
  <path class="cls-1" d="M590.657,2878.07L588,2875.41l-2.657,2.66-1.414-1.42,2.657-2.65-2.657-2.66,1.414-1.41,2.657,2.65,2.657-2.65,1.414,1.41-2.657,2.66,2.657,2.65Z" transform="translate(-547 -2869.94)"/>
  <path class="cls-2" d="M567,2932h-3v3a1,1,0,0,1-2,0v-3h-3a1,1,0,0,1,0-2h3v-3a1,1,0,0,1,2,0v3h3A1,1,0,0,1,567,2932Z" transform="translate(-547 -2869.94)"/>
  <path class="cls-3" d="M701,2877h-3v3a1,1,0,0,1-2,0v-3h-3a1,1,0,0,1,0-2h3v-3a1,1,0,0,1,2,0v3h3A1,1,0,0,1,701,2877Z" transform="translate(-547 -2869.94)"/>
  <path id="Rounded_Rectangle_10" data-name="Rounded Rectangle 10" class="cls-2" d="M725,2925h-7a1,1,0,0,1-1-1v-7a1,1,0,0,1,1-1h7a1,1,0,0,1,1,1v7A1,1,0,0,1,725,2925Zm-1-7h-5v5h5v-5Z" transform="translate(-547 -2869.94)"/>
  <path class="cls-3" d="M551,2897a4,4,0,1,1,4-4A4,4,0,0,1,551,2897Zm0-6a2,2,0,1,0,2,2A2,2,0,0,0,551,2891Z" transform="translate(-547 -2869.94)"/>
</svg>
