<svg xmlns="http://www.w3.org/2000/svg" width="170" height="110" viewBox="0 0 170 110">
  <metadata><?xpacket begin="﻿" id="W5M0MpCehiHzreSzNTczkc9d"?>
<x:xmpmeta xmlns:x="adobe:ns:meta/" x:xmptk="Adobe XMP Core 5.6-c138 79.159824, 2016/09/14-01:09:01        ">
   <rdf:RDF xmlns:rdf="http://www.w3.org/1999/02/22-rdf-syntax-ns#">
      <rdf:Description rdf:about=""/>
   </rdf:RDF>
</x:xmpmeta>
                                                                                                    
                                                                                                    
                                                                                                    
                                                                                                    
                                                                                                    
                                                                                                    
                                                                                                    
                                                                                                    
                                                                                                    
                                                                                                    
                                                                                                    
                                                                                                    
                                                                                                    
                                                                                                    
                                                                                                    
                                                                                                    
                                                                                                    
                                                                                                    
                                                                                                    
                                                                                                    
                           
<?xpacket end="w"?></metadata>
<defs>
    <style>
      .cls-1 {
        fill: #f0f7f5;
        fill-rule: evenodd;
      }
    </style>
  </defs>
  <path id="_2_bg" data-name="2_bg" class="cls-1" d="M691,2953a5,5,0,0,1,5-5h20a5,5,0,0,1,0,10H696A5,5,0,0,1,691,2953Zm5-15H652a5,5,0,0,0,0,10h24a5,5,0,0,1,.044,10H648a5,5,0,0,0,0,10h45a5,5,0,0,1,0,10H579a5,5,0,0,1,0-10h39a5,5,0,0,0,0-10H595.956a5,5,0,0,1,.044-10h16a5,5,0,0,0,0-10H556a5,5,0,0,1,0-10h22a5,5,0,0,0,0-10H558a5,5,0,0,1,0-10h9a5,5,0,0,0,0-10h-6a5,5,0,0,1,0-10h53a5,5,0,0,0,0-10H581a5,5,0,0,1,0-10H686a5,5,0,0,1,0,10H644a5,5,0,0,0,0,10h47a5,5,0,0,1,0,10h-7a5,5,0,0,0,0,10h23a5,5,0,0,1,0,10H633a5,5,0,0,0,0,10h63A5,5,0,0,1,696,2938Z" transform="translate(-551 -2868)"/>
</svg>
