<svg id="_3" data-name="3" xmlns="http://www.w3.org/2000/svg" width="84" height="60" viewBox="0 0 84 60">
  <metadata><?xpacket begin="﻿" id="W5M0MpCehiHzreSzNTczkc9d"?>
<x:xmpmeta xmlns:x="adobe:ns:meta/" x:xmptk="Adobe XMP Core 5.6-c138 79.159824, 2016/09/14-01:09:01        ">
   <rdf:RDF xmlns:rdf="http://www.w3.org/1999/02/22-rdf-syntax-ns#">
      <rdf:Description rdf:about=""/>
   </rdf:RDF>
</x:xmpmeta>
                                                                                                    
                                                                                                    
                                                                                                    
                                                                                                    
                                                                                                    
                                                                                                    
                                                                                                    
                                                                                                    
                                                                                                    
                                                                                                    
                                                                                                    
                                                                                                    
                                                                                                    
                                                                                                    
                                                                                                    
                                                                                                    
                                                                                                    
                                                                                                    
                                                                                                    
                                                                                                    
                           
<?xpacket end="w"?></metadata>
<defs>
    <style>
      .cls-1, .cls-4 {
        fill: #226d4f;
      }

      .cls-1, .cls-2, .cls-3 {
        fill-rule: evenodd;
      }

      .cls-2 {
        fill: #16d488;
      }

      .cls-3 {
        fill: #c1ecdb;
      }
    </style>
  </defs>
  <path id="Shape_990_copy_4" data-name="Shape 990 copy 4" class="cls-1" d="M1004,2899v47a3,3,0,0,1-3,3H933a3,3,0,0,1-3-3v-47a3,3,0,0,1,3-3h68A3,3,0,0,1,1004,2899Z" transform="translate(-920 -2896)"/>
  <path id="Shape_990_copy_4-2" data-name="Shape 990 copy 4" class="cls-2" d="M1002,2899v47a1,1,0,0,1-1,1H933a1,1,0,0,1-1-1v-47a1,1,0,0,1,1-1h68A1,1,0,0,1,1002,2899Z" transform="translate(-920 -2896)"/>
  <path id="Shape_990_copy_4-3" data-name="Shape 990 copy 4" class="cls-3" d="M936,2902h62v41H936v-41h0Z" transform="translate(-920 -2896)"/>
  <path id="Shape_990_copy_4-4" data-name="Shape 990 copy 4" class="cls-1" d="M948,2914v39a3,3,0,0,1-3,3H923a3,3,0,0,1-3-3v-39a3,3,0,0,1,3-3h22A3,3,0,0,1,948,2914Z" transform="translate(-920 -2896)"/>
  <path id="Shape_990_copy_4-5" data-name="Shape 990 copy 4" class="cls-2" d="M946,2914v39a1,1,0,0,1-1,1H923a1,1,0,0,1-1-1v-39a1,1,0,0,1,1-1h22A1,1,0,0,1,946,2914Z" transform="translate(-920 -2896)"/>
  <path id="Shape_990_copy_4-6" data-name="Shape 990 copy 4" class="cls-3" d="M924,2915h20v32H924v-32h0Z" transform="translate(-920 -2896)"/>
  <rect id="Rounded_Rectangle_12" data-name="Rounded Rectangle 12" class="cls-4" x="12" y="53" width="4" height="4" rx="2" ry="2"/>
</svg>
