<svg id="_3_1" data-name="3_1" xmlns="http://www.w3.org/2000/svg" width="160" height="71.75" viewBox="0 0 160 71.75">
  <metadata><?xpacket begin="﻿" id="W5M0MpCehiHzreSzNTczkc9d"?>
<x:xmpmeta xmlns:x="adobe:ns:meta/" x:xmptk="Adobe XMP Core 5.6-c138 79.159824, 2016/09/14-01:09:01        ">
   <rdf:RDF xmlns:rdf="http://www.w3.org/1999/02/22-rdf-syntax-ns#">
      <rdf:Description rdf:about=""/>
   </rdf:RDF>
</x:xmpmeta>
                                                                                                    
                                                                                                    
                                                                                                    
                                                                                                    
                                                                                                    
                                                                                                    
                                                                                                    
                                                                                                    
                                                                                                    
                                                                                                    
                                                                                                    
                                                                                                    
                                                                                                    
                                                                                                    
                                                                                                    
                                                                                                    
                                                                                                    
                                                                                                    
                                                                                                    
                                                                                                    
                           
<?xpacket end="w"?></metadata>
<defs>
    <style>
      .cls-1 {
        fill: #2c7457;
      }

      .cls-1, .cls-2, .cls-3 {
        fill-rule: evenodd;
        opacity: 0.5;
      }

      .cls-2 {
        fill: #16d488;
      }

      .cls-3 {
        fill: #226d4f;
      }
    </style>
  </defs>
  <path class="cls-1" d="M910.657,2888.07L908,2885.41l-2.657,2.66-1.414-1.42,2.657-2.65-2.657-2.66,1.414-1.41,2.657,2.65,2.657-2.65,1.414,1.41-2.657,2.66,2.657,2.65Z" transform="translate(-887 -2871)"/>
  <path class="cls-2" d="M896,2926h-3v3a1,1,0,0,1-2,0v-3h-3a1,1,0,0,1,0-2h3v-3a1,1,0,0,1,2,0v3h3A1,1,0,0,1,896,2926Z" transform="translate(-887 -2871)"/>
  <path id="Rounded_Rectangle_10" data-name="Rounded Rectangle 10" class="cls-3" d="M1013,2880h-7a1,1,0,0,1-1-1v-7a1,1,0,0,1,1-1h7a1,1,0,0,1,1,1v7A1,1,0,0,1,1013,2880Zm-1-7h-5v5h5v-5Z" transform="translate(-887 -2871)"/>
  <path class="cls-2" d="M1043,2911a4,4,0,1,1,4-4A4,4,0,0,1,1043,2911Zm0-6a2,2,0,1,0,2,2A2,2,0,0,0,1043,2905Z" transform="translate(-887 -2871)"/>
  <path class="cls-1" d="M1044.26,2942.55l-11.4.2,5.87-9.77Zm-7.9-1.82,4.47-.08-2.17-3.75Z" transform="translate(-887 -2871)"/>
</svg>
