<svg xmlns="http://www.w3.org/2000/svg" width="170" height="110" viewBox="0 0 170 110">
  <metadata><?xpacket begin="﻿" id="W5M0MpCehiHzreSzNTczkc9d"?>
<x:xmpmeta xmlns:x="adobe:ns:meta/" x:xmptk="Adobe XMP Core 5.6-c138 79.159824, 2016/09/14-01:09:01        ">
   <rdf:RDF xmlns:rdf="http://www.w3.org/1999/02/22-rdf-syntax-ns#">
      <rdf:Description rdf:about=""/>
   </rdf:RDF>
</x:xmpmeta>
                                                                                                    
                                                                                                    
                                                                                                    
                                                                                                    
                                                                                                    
                                                                                                    
                                                                                                    
                                                                                                    
                                                                                                    
                                                                                                    
                                                                                                    
                                                                                                    
                                                                                                    
                                                                                                    
                                                                                                    
                                                                                                    
                                                                                                    
                                                                                                    
                                                                                                    
                                                                                                    
                           
<?xpacket end="w"?></metadata>
<defs>
    <style>
      .cls-1 {
        fill: #f0f7f5;
        fill-rule: evenodd;
      }
    </style>
  </defs>
  <path id="_3_bg" data-name="3_bg" class="cls-1" d="M1042,2878H960a5,5,0,0,0,0,10h84a5,5,0,0,1,0,10h-21a5,5,0,0,0,0,10h8a5,5,0,0,1,0,10h-22a5,5,0,0,0,0,10h28a5,5,0,0,1,0,10H998a5,5,0,0,0,0,10h34a5,5,0,0,1,.02,10H1010a5,5,0,0,0,0,10h32a5,5,0,0,1,0,10H900a5,5,0,0,1,0-10h90a5,5,0,0,0,0-10H903.978a5,5,0,0,1,.022-10h26a5,5,0,0,0,0-10H884a5,5,0,0,1,0-10h27a5,5,0,0,0,0-10H886a5,5,0,0,1,0-10h19a5,5,0,0,0,0-10H889a5,5,0,0,1,0-10h29a5,5,0,0,0,0-10H899a5,5,0,0,1,0-10h143A5,5,0,0,1,1042,2878Z" transform="translate(-879 -2868)"/>
</svg>
