<svg id="_4" data-name="4" xmlns="http://www.w3.org/2000/svg" width="80" height="78.75" viewBox="0 0 80 78.75">
  <metadata><?xpacket begin="﻿" id="W5M0MpCehiHzreSzNTczkc9d"?>
<x:xmpmeta xmlns:x="adobe:ns:meta/" x:xmptk="Adobe XMP Core 5.6-c138 79.159824, 2016/09/14-01:09:01        ">
   <rdf:RDF xmlns:rdf="http://www.w3.org/1999/02/22-rdf-syntax-ns#">
      <rdf:Description rdf:about=""/>
   </rdf:RDF>
</x:xmpmeta>
                                                                                                    
                                                                                                    
                                                                                                    
                                                                                                    
                                                                                                    
                                                                                                    
                                                                                                    
                                                                                                    
                                                                                                    
                                                                                                    
                                                                                                    
                                                                                                    
                                                                                                    
                                                                                                    
                                                                                                    
                                                                                                    
                                                                                                    
                                                                                                    
                                                                                                    
                                                                                                    
                           
<?xpacket end="w"?></metadata>
<defs>
    <style>
      .cls-1, .cls-2 {
        fill: #226d4f;
      }

      .cls-1, .cls-4, .cls-5 {
        fill-rule: evenodd;
      }

      .cls-3, .cls-4 {
        fill: #16d488;
      }

      .cls-5 {
        fill: #c1ecdb;
      }
    </style>
  </defs>
  <path class="cls-1" d="M1288.19,2877.88l1,1.73-29.44,17-1-1.73Z" transform="translate(-1250 -2873.25)"/>
  <circle class="cls-2" cx="41.28" cy="4" r="4"/>
  <circle class="cls-3" cx="41.295" cy="4" r="2.015"/>
  <path id="Shape_990_copy_4" data-name="Shape 990 copy 4" class="cls-1" d="M1330,2897v52a3,3,0,0,1-3,3h-74a3,3,0,0,1-3-3v-52a3,3,0,0,1,3-3h74A3,3,0,0,1,1330,2897Z" transform="translate(-1250 -2873.25)"/>
  <path id="Shape_990_copy_4-2" data-name="Shape 990 copy 4" class="cls-4" d="M1328,2897v52a1,1,0,0,1-1,1h-74a1,1,0,0,1-1-1v-52a1,1,0,0,1,1-1h74A1,1,0,0,1,1328,2897Z" transform="translate(-1250 -2873.25)"/>
  <path id="Shape_990_copy_4-3" data-name="Shape 990 copy 4" class="cls-5" d="M1256,2900h68v46h-68v-46h0Z" transform="translate(-1250 -2873.25)"/>
  <circle class="cls-2" cx="22.5" cy="47.25" r="12.5"/>
  <path id="Rounded_Rectangle_13" data-name="Rounded Rectangle 13" class="cls-1" d="M1295,2911h19a1,1,0,0,1,0,2h-19A1,1,0,0,1,1295,2911Zm0,7h19a1,1,0,0,1,0,2h-19A1,1,0,0,1,1295,2918Zm0,7h19a1,1,0,0,1,0,2h-19A1,1,0,0,1,1295,2925Z" transform="translate(-1250 -2873.25)"/>
  <circle class="cls-3" cx="22.5" cy="47.25" r="10.5"/>
  <circle class="cls-2" cx="22.5" cy="47.25" r="1.5"/>
</svg>
