<svg xmlns="http://www.w3.org/2000/svg" width="170" height="110" viewBox="0 0 170 110">
  <metadata><?xpacket begin="﻿" id="W5M0MpCehiHzreSzNTczkc9d"?>
<x:xmpmeta xmlns:x="adobe:ns:meta/" x:xmptk="Adobe XMP Core 5.6-c138 79.159824, 2016/09/14-01:09:01        ">
   <rdf:RDF xmlns:rdf="http://www.w3.org/1999/02/22-rdf-syntax-ns#">
      <rdf:Description rdf:about=""/>
   </rdf:RDF>
</x:xmpmeta>
                                                                                                    
                                                                                                    
                                                                                                    
                                                                                                    
                                                                                                    
                                                                                                    
                                                                                                    
                                                                                                    
                                                                                                    
                                                                                                    
                                                                                                    
                                                                                                    
                                                                                                    
                                                                                                    
                                                                                                    
                                                                                                    
                                                                                                    
                                                                                                    
                                                                                                    
                                                                                                    
                           
<?xpacket end="w"?></metadata>
<defs>
    <style>
      .cls-1 {
        fill: #f0f7f5;
        fill-rule: evenodd;
      }
    </style>
  </defs>
  <path id="_4_bg" data-name="4_bg" class="cls-1" d="M1369,2978H1252a5,5,0,0,1-5-5h0a5,5,0,0,1,5-5h34a5,5,0,0,0,0-10h-42.02a5,5,0,0,1,.02-10h78a5,5,0,0,0,0-10H1214a5,5,0,0,1,0-10h104a5,5,0,0,0,0-10H1216a5,5,0,0,1,0-10h9a5,5,0,0,0,0-10h-16a5,5,0,0,1,0-10h120a5,5,0,0,0,0-10H1216a5,5,0,0,1,0-10h145a5,5,0,0,1,0,10h-12a5,5,0,0,0,0,10h14a5,5,0,0,1,0,10H1245a5,5,0,0,0,0,10h115a5,5,0,0,1,0,10h-22a5,5,0,0,0,0,10h18a5,5,0,0,1,0,10h-14a5,5,0,0,0,0,10h9a5,5,0,0,1,.02,10H1306a5,5,0,0,0,0,10h63a5,5,0,0,1,5,5h0A5,5,0,0,1,1369,2978Zm-152-10h15a5,5,0,0,1,0,10h-15A5,5,0,0,1,1217,2968Z" transform="translate(-1204 -2868)"/>
</svg>
