<svg id="_10" data-name="10" xmlns="http://www.w3.org/2000/svg" width="39" height="46" viewBox="0 0 39 46">
  <metadata><?xpacket begin="﻿" id="W5M0MpCehiHzreSzNTczkc9d"?>
<x:xmpmeta xmlns:x="adobe:ns:meta/" x:xmptk="Adobe XMP Core 5.6-c138 79.159824, 2016/09/14-01:09:01        ">
   <rdf:RDF xmlns:rdf="http://www.w3.org/1999/02/22-rdf-syntax-ns#">
      <rdf:Description rdf:about=""/>
   </rdf:RDF>
</x:xmpmeta>
                                                                                                    
                                                                                                    
                                                                                                    
                                                                                                    
                                                                                                    
                                                                                                    
                                                                                                    
                                                                                                    
                                                                                                    
                                                                                                    
                                                                                                    
                                                                                                    
                                                                                                    
                                                                                                    
                                                                                                    
                                                                                                    
                                                                                                    
                                                                                                    
                                                                                                    
                                                                                                    
                           
<?xpacket end="w"?></metadata>
<defs>
    <style>
      .cls-1 {
        fill: #eeca3c;
      }

      .cls-1, .cls-3, .cls-4 {
        fill-rule: evenodd;
      }

      .cls-2 {
        fill: #fff;
      }

      .cls-3 {
        fill: #00b2b2;
      }

      .cls-4 {
        fill: #535d63;
      }
    </style>
  </defs>
  <path class="cls-1" d="M7,24l32,1V46H7V24Zm26,0a2,2,0,1,1-2,2A2,2,0,0,1,33,24ZM29.5,42A3.5,3.5,0,1,1,26,45.5,3.5,3.5,0,0,1,29.5,42Z"/>
  <circle class="cls-2" cx="27.5" cy="35.5" r="2.5"/>
  <circle class="cls-2" cx="17" cy="31" r="4"/>
  <path class="cls-3" d="M13.5,3.192h0.14a1.662,1.662,0,0,0,1.655-1.274A1.606,1.606,0,0,0,13.71,0H4.36A1.662,1.662,0,0,0,2.7,1.274,1.606,1.606,0,0,0,4.289,3.192H4.5L0,21.571V42.817A3.2,3.2,0,0,0,3.225,46H14.774A3.2,3.2,0,0,0,18,42.817V21.571Z"/>
  <path class="cls-4" d="M18,40H0V26H18V40Z"/>
</svg>
