<svg id="_11" data-name="11" xmlns="http://www.w3.org/2000/svg" width="29.969" height="46" viewBox="0 0 29.969 46">
  <metadata><?xpacket begin="﻿" id="W5M0MpCehiHzreSzNTczkc9d"?>
<x:xmpmeta xmlns:x="adobe:ns:meta/" x:xmptk="Adobe XMP Core 5.6-c138 79.159824, 2016/09/14-01:09:01        ">
   <rdf:RDF xmlns:rdf="http://www.w3.org/1999/02/22-rdf-syntax-ns#">
      <rdf:Description rdf:about=""/>
   </rdf:RDF>
</x:xmpmeta>
                                                                                                    
                                                                                                    
                                                                                                    
                                                                                                    
                                                                                                    
                                                                                                    
                                                                                                    
                                                                                                    
                                                                                                    
                                                                                                    
                                                                                                    
                                                                                                    
                                                                                                    
                                                                                                    
                                                                                                    
                                                                                                    
                                                                                                    
                                                                                                    
                                                                                                    
                                                                                                    
                           
<?xpacket end="w"?></metadata>
<defs>
    <style>
      .cls-1 {
        fill: #00b2b2;
      }

      .cls-1, .cls-2, .cls-3, .cls-4 {
        fill-rule: evenodd;
      }

      .cls-2 {
        fill: #4dc1c2;
      }

      .cls-3 {
        fill: #3d9a9b;
      }

      .cls-4 {
        fill: #eeca3c;
      }
    </style>
  </defs>
  <path class="cls-1" d="M0.537,19.476A13.012,13.012,0,0,1,.48,12.2C2.826,4.469,8.485.016,16-.014a11.989,11.989,0,0,1,12.05,8.847c1.709,5.356.346,9.18-1.327,12.943-1.593,3.582-1.05,5.634.511,8.167,2.074,3.366,3.3,6.4,2.523,10.272-0.573,2.883-3.913,6.032-7.358,5.773-4.162-.313-7.224-5.762-8.063-7.424a38.976,38.976,0,0,0-4.428-4.945C8.674,32.358,7.5,31.165,6.687,30.214A29.615,29.615,0,0,1,.537,19.476Z"/>
  <path class="cls-2" d="M22.614,44.037c2.353,0.178,4.973-2.188,5.4-4.311,0.656-3.3-.385-5.891-2.294-8.992-1.963-3.189-2.4-5.841-.626-9.838s2.7-7.152,1.253-11.683C25.5,6.555,23.067,1.605,16.068,1.631S4.311,5.983,2.321,12.554s3.768,13.9,5.854,16.335,6.977,6.906,7.893,8.723C17.71,40.867,20.262,43.859,22.614,44.037Z"/>
  <path class="cls-3" d="M21.822,9.679A7.065,7.065,0,0,0,15.766,6.21C10.1,6.3,5.549,12.29,6.445,16.545c0.654,3.1,1.458,4.735,4.184,8.306,2.367,3.1,6.307,8,8.1,10.226,1.041,1.295,1.963,3.784,3.246,4.138,1.16,0.319,2.8-1.385,1.958-2.995-0.882-1.687-4.125-5.971-4.591-9.531-0.392-2.993,1.828-8.469,2.618-10.28A8.061,8.061,0,0,0,21.822,9.679Z"/>
  <path class="cls-4" d="M18.032,13.839s1.718-2.5-.655-3.213-1.745,1.33-1.964,1.928c-0.265.725-.274,2.277,0.213,2.517C16.746,15.623,17.827,14.268,18.032,13.839Z"/>
</svg>
