<svg id="_12" data-name="12" xmlns="http://www.w3.org/2000/svg" width="39" height="46" viewBox="0 0 39 46">
  <metadata><?xpacket begin="﻿" id="W5M0MpCehiHzreSzNTczkc9d"?>
<x:xmpmeta xmlns:x="adobe:ns:meta/" x:xmptk="Adobe XMP Core 5.6-c138 79.159824, 2016/09/14-01:09:01        ">
   <rdf:RDF xmlns:rdf="http://www.w3.org/1999/02/22-rdf-syntax-ns#">
      <rdf:Description rdf:about=""/>
   </rdf:RDF>
</x:xmpmeta>
                                                                                                    
                                                                                                    
                                                                                                    
                                                                                                    
                                                                                                    
                                                                                                    
                                                                                                    
                                                                                                    
                                                                                                    
                                                                                                    
                                                                                                    
                                                                                                    
                                                                                                    
                                                                                                    
                                                                                                    
                                                                                                    
                                                                                                    
                                                                                                    
                                                                                                    
                                                                                                    
                           
<?xpacket end="w"?></metadata>
<defs>
    <style>
      .cls-1 {
        fill: #00b2b2;
      }

      .cls-1, .cls-2, .cls-4, .cls-5 {
        fill-rule: evenodd;
      }

      .cls-2 {
        fill: #4dc9c9;
      }

      .cls-3, .cls-4 {
        fill: #535d63;
      }

      .cls-5 {
        fill: #eeca3c;
      }
    </style>
  </defs>
  <path class="cls-1" d="M17.943,20.88H17V20.855h0V21h0v0.024h0V23h1v2H17v1.629h0V27h1v2H17v0.553h0v0.731h0V31h1v2H17v0.453h0V35h1v2H17v2h1v2H17v1.226h0v0.731h0V43h1v2H17v0.395h0v0.731H16.948a0.967,0.967,0,0,1,.958.975v0.488A3.383,3.383,0,0,1,14.552,51H4.447a3.383,3.383,0,0,1-3.354-3.412V47.1a0.967,0.967,0,0,1,.958-0.975H2V46H2V45H1V43H2V41H1V39H2V37H1V35H2V33H1V31H2V29H1V28.9H1v-1.14H1V27H2V25H1V24.84H1V23H2V21H2V20.88H1.051l-0.9-4.929a9.589,9.589,0,0,1,1.967-7.74L5.525,4h7.944l3.4,4.211a9.589,9.589,0,0,1,1.967,7.74Z"/>
  <path class="cls-2" d="M0.267,12A9.539,9.539,0,0,1,2.121,8.211L5.525,4h7.944l3.4,4.211A9.54,9.54,0,0,1,18.727,12H0.267Z"/>
  <rect class="cls-3" x="5" width="9" height="4"/>
  <path class="cls-4" d="M27.371,35.7a4.674,4.674,0,0,0-2-.175c0.116,0.351,2.43,5.75,2.43,5.75l-0.525.283c-0.736-1.732-2.788-6.358-2.788-6.358A8.222,8.222,0,0,1,22,34.35L22.167,34c1.742,0.945,5.686,1.3,5.686,1.3C39.84,33.96,44,41.15,44,41.15,34.278,42.511,27.807,36.021,27.371,35.7Z"/>
  <path class="cls-5" d="M27.8,40.273c2.068-1.555,4.575.9,5.188,1.979,0.585,1.032,2.378,6.7-.841,8.341-3.736,1.9-7.046-3.358-7.22-6.433a3.708,3.708,0,0,1,2.349-3.605"/>
</svg>
