<svg id="_13" data-name="13" xmlns="http://www.w3.org/2000/svg" width="39" height="46" viewBox="0 0 39 46">
  <metadata><?xpacket begin="﻿" id="W5M0MpCehiHzreSzNTczkc9d"?>
<x:xmpmeta xmlns:x="adobe:ns:meta/" x:xmptk="Adobe XMP Core 5.6-c138 79.159824, 2016/09/14-01:09:01        ">
   <rdf:RDF xmlns:rdf="http://www.w3.org/1999/02/22-rdf-syntax-ns#">
      <rdf:Description rdf:about=""/>
   </rdf:RDF>
</x:xmpmeta>
                                                                                                    
                                                                                                    
                                                                                                    
                                                                                                    
                                                                                                    
                                                                                                    
                                                                                                    
                                                                                                    
                                                                                                    
                                                                                                    
                                                                                                    
                                                                                                    
                                                                                                    
                                                                                                    
                                                                                                    
                                                                                                    
                                                                                                    
                                                                                                    
                                                                                                    
                                                                                                    
                           
<?xpacket end="w"?></metadata>
<defs>
    <style>
      .cls-1 {
        fill: #535d63;
      }

      .cls-1, .cls-2, .cls-3 {
        fill-rule: evenodd;
      }

      .cls-2 {
        fill: #eeca3c;
      }

      .cls-3 {
        fill: #00b2b2;
      }
    </style>
  </defs>
  <path class="cls-1" d="M1.525,29.921L5.26,32.579c4.6,3.274,8.337-4.409,18.375-4.409,10.3,0,16.374,7.132,16.374,8.915S33.94,46,23.635,46C13.6,46,9.829,38.317,5.26,41.559L1.525,44.217A15.418,15.418,0,0,1-.009,37.085,15.557,15.557,0,0,1,1.525,29.921Z"/>
  <path class="cls-2" d="M33.273,36.728a1.684,1.684,0,0,0,1.7-1.653,1.685,1.685,0,0,0-3.368,0A1.677,1.677,0,0,0,33.273,36.728Z"/>
  <path class="cls-3" d="M38.475,1.75L34.74,4.408C30.138,7.682,26.4,0,16.365,0,6.06,0-.009,7.132-0.009,8.914s6.069,8.915,16.374,8.915c10.038,0,13.806-7.683,18.375-4.441l3.735,2.658a15.416,15.416,0,0,0,1.534-7.132A15.556,15.556,0,0,0,38.475,1.75Z"/>
  <path class="cls-2" d="M6.727,8.558A1.684,1.684,0,0,1,5.026,6.9a1.685,1.685,0,0,1,3.368,0A1.677,1.677,0,0,1,6.727,8.558Z"/>
</svg>
