<svg id="_14" data-name="14" xmlns="http://www.w3.org/2000/svg" width="39" height="46" viewBox="0 0 39 46">
  <metadata><?xpacket begin="﻿" id="W5M0MpCehiHzreSzNTczkc9d"?>
<x:xmpmeta xmlns:x="adobe:ns:meta/" x:xmptk="Adobe XMP Core 5.6-c138 79.159824, 2016/09/14-01:09:01        ">
   <rdf:RDF xmlns:rdf="http://www.w3.org/1999/02/22-rdf-syntax-ns#">
      <rdf:Description rdf:about=""/>
   </rdf:RDF>
</x:xmpmeta>
                                                                                                    
                                                                                                    
                                                                                                    
                                                                                                    
                                                                                                    
                                                                                                    
                                                                                                    
                                                                                                    
                                                                                                    
                                                                                                    
                                                                                                    
                                                                                                    
                                                                                                    
                                                                                                    
                                                                                                    
                                                                                                    
                                                                                                    
                                                                                                    
                                                                                                    
                                                                                                    
                           
<?xpacket end="w"?></metadata>
<defs>
    <style>
      .cls-1 {
        fill: #00b2b2;
      }

      .cls-1, .cls-2, .cls-3 {
        fill-rule: evenodd;
      }

      .cls-2 {
        fill: #eeca3c;
      }

      .cls-3 {
        fill: #535d63;
      }
    </style>
  </defs>
  <path class="cls-1" d="M11.5,0C2.909,0,.838,5.362.63,8.188,0.5,10.075,2.918,11.339,4.519,11.8c0,0-4.519,14.973-4.519,18.4C0,33.124,0,42,5.281,42H17.718C23,42,23,33.124,23,30.206c0-3.439-4.641-18.5-4.641-18.5,1.318-.14,4.011-1.562,4.011-3.523C22.369,5.353,20.1,0,11.5,0"/>
  <path class="cls-2" d="M5.628,2.815c-0.539.146-1.775,0.614-1.565,1.477a2,2,0,0,0,2.157,1.1A2.35,2.35,0,0,0,7.64,3.268C7.442,2.4,6.167,2.668,5.628,2.815Zm6.141-1.492c-0.552-.029-1.854-0.015-1.894.878a2.208,2.208,0,0,0,1.762,1.785,2.173,2.173,0,0,0,1.933-1.55C13.61,1.542,12.322,1.366,11.769,1.322ZM17.4,2.844c-0.539-.176-1.8-0.483-2.025.366s0.815,2,1.354,2.179,1.973-.161,2.2-1.009S17.937,3.019,17.4,2.844Z"/>
  <path class="cls-3" d="M48,27.4a1.465,1.465,0,0,0-.957-1.145,2.252,2.252,0,0,0-.3-0.085,4.1,4.1,0,0,0-1.006-.134,14.268,14.268,0,0,0-5.415.746,32.284,32.284,0,0,1-12.565,2.111,54.78,54.78,0,0,1-7.77-.566,47.083,47.083,0,0,0-6.555-.5H13.061a4.809,4.809,0,0,0-3.813-1.51,3.11,3.11,0,0,0-3.2,2.749c-0.331,2.152,1.15,4.91,4.6,6.012,1.405,0.492,3.238,2.741,3.825,3.567a0.793,0.793,0,0,0,1.326-.049c1.936,2.125,4.831,3.3,8.774,3.615V44.4H23.509A1.6,1.6,0,0,0,21.918,46h12.2a1.6,1.6,0,0,0-1.591-1.6H31.467V42.037c5.506-.727,6.919-2.909,8.739-5.724a23.829,23.829,0,0,1,6.02-6.742c0.3-.223.6-0.448,0.928-0.677A1.582,1.582,0,0,0,48,27.4ZM11.147,33.552c-2.615-.836-3.754-2.768-3.526-4.245a1.537,1.537,0,0,1,1.627-1.39c2.627,0,3.008,1.586,3.044,1.776a0.8,0.8,0,0,0,.526.62A16.966,16.966,0,0,0,13.9,35.5,8.012,8.012,0,0,0,11.147,33.552Z"/>
</svg>
