<svg id="_15" data-name="15" xmlns="http://www.w3.org/2000/svg" width="38" height="44" viewBox="0 0 38 44">
  <metadata><?xpacket begin="﻿" id="W5M0MpCehiHzreSzNTczkc9d"?>
<x:xmpmeta xmlns:x="adobe:ns:meta/" x:xmptk="Adobe XMP Core 5.6-c138 79.159824, 2016/09/14-01:09:01        ">
   <rdf:RDF xmlns:rdf="http://www.w3.org/1999/02/22-rdf-syntax-ns#">
      <rdf:Description rdf:about=""/>
   </rdf:RDF>
</x:xmpmeta>
                                                                                                    
                                                                                                    
                                                                                                    
                                                                                                    
                                                                                                    
                                                                                                    
                                                                                                    
                                                                                                    
                                                                                                    
                                                                                                    
                                                                                                    
                                                                                                    
                                                                                                    
                                                                                                    
                                                                                                    
                                                                                                    
                                                                                                    
                                                                                                    
                                                                                                    
                                                                                                    
                           
<?xpacket end="w"?></metadata>
<defs>
    <style>
      .cls-1 {
        fill: #535d63;
      }

      .cls-1, .cls-3 {
        fill-rule: evenodd;
      }

      .cls-2 {
        fill: #eeca3c;
      }

      .cls-3 {
        fill: #00b2b2;
      }
    </style>
  </defs>
  <path class="cls-1" d="M19,3C11.268,3,5,10.268,5,18H3C3,9.163,10.163,1,19,1S35,9.163,35,18H33C33,10.268,26.732,3,19,3ZM3,18H5v8H3V18Zm30,0h2v8H33V18Z"/>
  <rect id="Rounded_Rectangle_2" data-name="Rounded Rectangle 2" class="cls-2" x="11" width="16" height="6" rx="3" ry="3"/>
  <path class="cls-3" d="M37,30H35v1.047a9.287,9.287,0,0,1-1.423,4.942L30.7,40.562A7.328,7.328,0,0,1,24.5,44H13.489a7.328,7.328,0,0,1-6.2-3.428L4.428,36.031A9.286,9.286,0,0,1,3,31.076V30H1a1,1,0,0,1-1-1V27a1,1,0,0,1,1-1H37a1,1,0,0,1,1,1v2A1,1,0,0,1,37,30Z"/>
</svg>
