<svg id="_16" data-name="16" xmlns="http://www.w3.org/2000/svg" width="77" height="71" viewBox="0 0 77 71">
  <metadata><?xpacket begin="﻿" id="W5M0MpCehiHzreSzNTczkc9d"?>
<x:xmpmeta xmlns:x="adobe:ns:meta/" x:xmptk="Adobe XMP Core 5.6-c138 79.159824, 2016/09/14-01:09:01        ">
   <rdf:RDF xmlns:rdf="http://www.w3.org/1999/02/22-rdf-syntax-ns#">
      <rdf:Description rdf:about=""/>
   </rdf:RDF>
</x:xmpmeta>
                                                                                                    
                                                                                                    
                                                                                                    
                                                                                                    
                                                                                                    
                                                                                                    
                                                                                                    
                                                                                                    
                                                                                                    
                                                                                                    
                                                                                                    
                                                                                                    
                                                                                                    
                                                                                                    
                                                                                                    
                                                                                                    
                                                                                                    
                                                                                                    
                                                                                                    
                                                                                                    
                           
<?xpacket end="w"?></metadata>
<defs>
    <style>
      .cls-1 {
        fill: #00b4b4;
      }

      .cls-1, .cls-2, .cls-3, .cls-4 {
        fill-rule: evenodd;
      }

      .cls-2 {
        fill: #33c3c3;
      }

      .cls-3 {
        fill: #00a2a2;
      }

      .cls-4 {
        fill: #e6e6e6;
      }
    </style>
  </defs>
  <path class="cls-1" d="M70,71H16a7.092,7.092,0,0,0,.776-0.045A0.986,0.986,0,0,1,16,70V21a1,1,0,0,1,1-1h6V1A1,1,0,0,1,23.293.293L26,3l3-3,3,3,3-3,3,3,3-3,3,3,3-3,3,3,3-3,3,3,3-3,3,3,3-3,3,3,3-3,3,3,2.707-2.707A1,1,0,0,1,77,1V64A7,7,0,0,1,70,71ZM29,0h0Zm6,0h0Zm6,0h0Zm6,0h0Zm6,0h0Zm6,0h0Zm6,0h0Zm6,0h0Z"/>
  <path class="cls-2" d="M30,10H70V22H30V10ZM52,55H70v4H52V55Zm0-9H70v4H52V46Zm0-9H70v4H52V37Zm0-9H70v4H52V28Zm-4,4H30V28H48v4Zm0,9H30V37H48v4Zm0,9H30V46H48v4Zm0,9H30V55H48v4Z"/>
  <path class="cls-3" d="M23,35h0V64a7,7,0,0,1-7,7h0a7,7,0,0,1-7-7V21a1,1,0,0,1,1-1H23V35Z"/>
  <path class="cls-4" d="M0,46H25V63a8,8,0,0,1-8,8H8a8,8,0,0,1-8-8V46H0ZM28,61H25V58h3a3,3,0,1,0,0-6H25V49h3A6,6,0,1,1,28,61Z"/>
</svg>
