<svg id="_17" data-name="17" xmlns="http://www.w3.org/2000/svg" width="86" height="91" viewBox="0 0 86 91">
  <metadata><?xpacket begin="﻿" id="W5M0MpCehiHzreSzNTczkc9d"?>
<x:xmpmeta xmlns:x="adobe:ns:meta/" x:xmptk="Adobe XMP Core 5.6-c138 79.159824, 2016/09/14-01:09:01        ">
   <rdf:RDF xmlns:rdf="http://www.w3.org/1999/02/22-rdf-syntax-ns#">
      <rdf:Description rdf:about=""/>
   </rdf:RDF>
</x:xmpmeta>
                                                                                                    
                                                                                                    
                                                                                                    
                                                                                                    
                                                                                                    
                                                                                                    
                                                                                                    
                                                                                                    
                                                                                                    
                                                                                                    
                                                                                                    
                                                                                                    
                                                                                                    
                                                                                                    
                                                                                                    
                                                                                                    
                                                                                                    
                                                                                                    
                                                                                                    
                                                                                                    
                           
<?xpacket end="w"?></metadata>
<defs>
    <style>
      .cls-1 {
        fill: #e6e6e6;
      }

      .cls-1, .cls-4, .cls-5, .cls-6, .cls-7 {
        fill-rule: evenodd;
      }

      .cls-2, .cls-6 {
        fill: #00b4b4;
      }

      .cls-3 {
        fill: #099;
      }

      .cls-4 {
        fill: #33adad;
      }

      .cls-5 {
        fill: #eecb3c;
      }

      .cls-7 {
        fill: #4dcbcb;
      }
    </style>
  </defs>
  <path class="cls-1" d="M55,39V75a2.859,2.859,0,0,1-3,3H14a2.859,2.859,0,0,1-3-3V39A16,16,0,0,1,0,23.543c0-9.9,8.874-17.858,18.878-15.91a16.728,16.728,0,0,1,28.075,0,17.669,17.669,0,0,1,2.9-.325A16.289,16.289,0,0,1,55,39Z"/>
  <rect class="cls-2" x="43" y="33" width="43" height="52" rx="2" ry="2"/>
  <rect class="cls-3" x="47" y="37" width="35" height="44" rx="1" ry="1"/>
  <path class="cls-4" d="M54,49V47H75v2H54Zm0,6V53H75v2H54Zm0,6V59H75v2H54Z"/>
  <path class="cls-5" d="M47,85h6v6l-3-3-3,3V85Z"/>
  <path class="cls-6" d="M48,60H42a1,1,0,0,1,0-2h6A1,1,0,0,1,48,60Zm0-17H42a1,1,0,0,1,0-2h6A1,1,0,0,1,48,43ZM42,75h6a1,1,0,0,1,0,2H42A1,1,0,0,1,42,75Z"/>
  <path class="cls-7" d="M48,77H45V75h3A1,1,0,0,1,48,77Zm0-36a1,1,0,0,1,0,2H45V41h3Zm0,17a1,1,0,0,1,0,2H45V58h3Z"/>
</svg>
