<svg id="_4" data-name="4" xmlns="http://www.w3.org/2000/svg" width="26" height="53" viewBox="0 0 26 53">
  <metadata><?xpacket begin="﻿" id="W5M0MpCehiHzreSzNTczkc9d"?>
<x:xmpmeta xmlns:x="adobe:ns:meta/" x:xmptk="Adobe XMP Core 5.6-c138 79.159824, 2016/09/14-01:09:01        ">
   <rdf:RDF xmlns:rdf="http://www.w3.org/1999/02/22-rdf-syntax-ns#">
      <rdf:Description rdf:about=""/>
   </rdf:RDF>
</x:xmpmeta>
                                                                                                    
                                                                                                    
                                                                                                    
                                                                                                    
                                                                                                    
                                                                                                    
                                                                                                    
                                                                                                    
                                                                                                    
                                                                                                    
                                                                                                    
                                                                                                    
                                                                                                    
                                                                                                    
                                                                                                    
                                                                                                    
                                                                                                    
                                                                                                    
                                                                                                    
                                                                                                    
                           
<?xpacket end="w"?></metadata>
<defs>
    <style>
      .cls-1 {
        fill: #00b2b2;
      }

      .cls-1, .cls-3, .cls-4 {
        fill-rule: evenodd;
      }

      .cls-2 {
        fill: #00a0a0;
      }

      .cls-3 {
        fill: #535d63;
      }

      .cls-4 {
        fill: #eeca3c;
      }
    </style>
  </defs>
  <path class="cls-1" d="M10,49.9A3.345,3.345,0,0,0,13.147,53h9.706A3.345,3.345,0,0,0,26,49.9V25.559c0-4.34-5.037-4.96-5.037-6.82V1.86A1.875,1.875,0,0,0,19.074,0H16.926a1.875,1.875,0,0,0-1.889,1.86V18.74c0,1.86-5.037,2.48-5.037,6.82V49.9Z"/>
  <rect class="cls-2" x="10" y="29" width="16" height="15"/>
  <path class="cls-3" d="M11,29.3L9.25,15.668H9.463a0.829,0.829,0,0,0,0-1.657L4.8,14a0.829,0.829,0,0,0,0,1.657H4.87L3.077,29.281H3.049a3.069,3.069,0,0,0-3,3.128L0,49.843a3.069,3.069,0,0,0,2.993,3.138l7.95,0.014a3.067,3.067,0,0,0,3-3.128l0.047-17.433A3.067,3.067,0,0,0,11,29.3Z"/>
  <path class="cls-4" d="M13.955,46H0.009L0.042,34H13.988Z"/>
</svg>
