<svg id="_5" data-name="5" xmlns="http://www.w3.org/2000/svg" width="34.969" height="46.031" viewBox="0 0 34.969 46.031">
  <metadata><?xpacket begin="﻿" id="W5M0MpCehiHzreSzNTczkc9d"?>
<x:xmpmeta xmlns:x="adobe:ns:meta/" x:xmptk="Adobe XMP Core 5.6-c138 79.159824, 2016/09/14-01:09:01        ">
   <rdf:RDF xmlns:rdf="http://www.w3.org/1999/02/22-rdf-syntax-ns#">
      <rdf:Description rdf:about=""/>
   </rdf:RDF>
</x:xmpmeta>
                                                                                                    
                                                                                                    
                                                                                                    
                                                                                                    
                                                                                                    
                                                                                                    
                                                                                                    
                                                                                                    
                                                                                                    
                                                                                                    
                                                                                                    
                                                                                                    
                                                                                                    
                                                                                                    
                                                                                                    
                                                                                                    
                                                                                                    
                                                                                                    
                                                                                                    
                                                                                                    
                           
<?xpacket end="w"?></metadata>
<defs>
    <style>
      .cls-1 {
        fill: #00b2b2;
      }

      .cls-1, .cls-3 {
        fill-rule: evenodd;
      }

      .cls-2 {
        fill: #eeca3c;
      }

      .cls-3 {
        fill: #535d63;
      }
    </style>
  </defs>
  <path class="cls-1" d="M32.006,47h-9.98a3.058,3.058,0,0,1-2.994-3.117V19.9H19c0-1.884.007-3.171,0.017-3.431a10.1,10.1,0,0,1,1.933-4.966c1.141-1.715,3.543-4.845,3.645-6a1.214,1.214,0,0,1-.483-0.452s-0.088-2.347,0-2.979,0.395-.768,1.405-0.948A6.937,6.937,0,0,1,26.908.992v0h0.149v0a6.9,6.9,0,0,1,1.388.133c1.009,0.18,1.317.316,1.4,0.948s0,2.979,0,2.979a1.213,1.213,0,0,1-.483.452c0.1,1.158,2.5,4.288,3.645,6a10.1,10.1,0,0,1,1.933,4.966c0,0.131.009,0.526,0.011,1.126H35V43.882A3.058,3.058,0,0,1,32.006,47Z" transform="translate(-0.031 -0.969)"/>
  <rect class="cls-2" x="18.969" y="19.031" width="16" height="18"/>
  <path class="cls-3" d="M15.557,47H9.826a2.368,2.368,0,0,1-2.349-1.981L3.389,19.3a1.1,1.1,0,0,1,1.1-1.265H20.9a1.1,1.1,0,0,1,1.1,1.265L17.906,45.014A2.368,2.368,0,0,1,15.557,47Zm-6.1-29.872a0.62,0.62,0,0,1-.606-0.534L6.773,2.957a0.823,0.823,0,0,0-.49-0.645,0.783,0.783,0,0,0-.79.088L0.981,5.687A0.6,0.6,0,0,1,.125,5.536a0.643,0.643,0,0,1,.146-0.88L4.783,1.37A1.987,1.987,0,0,1,6.76,1.148,2.085,2.085,0,0,1,7.986,2.762l2.079,13.632a0.63,0.63,0,0,1-.511.722A0.6,0.6,0,0,1,9.458,17.124Z" transform="translate(-0.031 -0.969)"/>
</svg>
