<svg id="_6" data-name="6" xmlns="http://www.w3.org/2000/svg" width="38" height="46" viewBox="0 0 38 46">
  <metadata><?xpacket begin="﻿" id="W5M0MpCehiHzreSzNTczkc9d"?>
<x:xmpmeta xmlns:x="adobe:ns:meta/" x:xmptk="Adobe XMP Core 5.6-c138 79.159824, 2016/09/14-01:09:01        ">
   <rdf:RDF xmlns:rdf="http://www.w3.org/1999/02/22-rdf-syntax-ns#">
      <rdf:Description rdf:about=""/>
   </rdf:RDF>
</x:xmpmeta>
                                                                                                    
                                                                                                    
                                                                                                    
                                                                                                    
                                                                                                    
                                                                                                    
                                                                                                    
                                                                                                    
                                                                                                    
                                                                                                    
                                                                                                    
                                                                                                    
                                                                                                    
                                                                                                    
                                                                                                    
                                                                                                    
                                                                                                    
                                                                                                    
                                                                                                    
                                                                                                    
                           
<?xpacket end="w"?></metadata>
<defs>
    <style>
      .cls-1 {
        fill: #00b2b2;
      }

      .cls-1, .cls-2, .cls-3 {
        fill-rule: evenodd;
      }

      .cls-2 {
        fill: #eeca3c;
      }

      .cls-3 {
        fill: #535d63;
      }
    </style>
  </defs>
  <path class="cls-1" d="M10.823,6.571H9.859A1.868,1.868,0,0,1,8,4.694H8A1.868,1.868,0,0,1,9.859,2.816h2.847L14.588,0H31.412l1.882,2.816h2.847A1.868,1.868,0,0,1,38,4.694h0a1.868,1.868,0,0,1-1.859,1.878H35.176L31.69,43.082A3.208,3.208,0,0,1,28.509,46H17.491a3.208,3.208,0,0,1-3.181-2.918Z"/>
  <path class="cls-2" d="M11.533,14H34.467L32.748,32h-19.5Z"/>
  <path class="cls-3" d="M6.619,20a1.148,1.148,0,0,0-.844,1.828c1.17,1.274.762,1.331,0.107,2.5A3.656,3.656,0,0,0,5.561,26.7a1.188,1.188,0,0,0,1.327.979A1.193,1.193,0,0,0,7.807,26.3a0.954,0.954,0,0,1,.059-0.872c0.744-1.043,1.363-2.4.7-3.655a10.278,10.278,0,0,0-.963-1.3A1.16,1.16,0,0,0,6.619,20Zm3.8,0a1.148,1.148,0,0,0-.844,1.828c1.17,1.274.762,1.331,0.107,2.5A3.657,3.657,0,0,0,9.364,26.7,1.141,1.141,0,1,0,11.61,26.3a0.954,0.954,0,0,1,.059-0.872c0.744-1.043,1.363-2.4.7-3.655a10.269,10.269,0,0,0-.963-1.3A1.161,1.161,0,0,0,10.421,20Zm3.8,0a1.148,1.148,0,0,0-.844,1.828c1.17,1.274.762,1.331,0.107,2.5a3.657,3.657,0,0,0-.321,2.377,1.141,1.141,0,1,0,2.246-.394,0.954,0.954,0,0,1,.059-0.872c0.744-1.043,1.363-2.4.7-3.655a10.269,10.269,0,0,0-.962-1.3A1.161,1.161,0,0,0,14.224,20ZM20,28H2a2.011,2.011,0,0,0-2,1.958c0,6.993,1.3,11.32,5.656,15.7A1.153,1.153,0,0,0,6.464,46l9.126-.024a1.155,1.155,0,0,0,.808-0.335,20.779,20.779,0,0,0,2.579-3.106,8.823,8.823,0,0,0,4.991-2.115A8.121,8.121,0,0,0,27,34.15a2.723,2.723,0,0,0-.951-2.031,5.83,5.83,0,0,0-4-.943C22.052,30.778,22,30.416,22,30c0-1.886-1.884-1.884-2-2h0Zm4.717,6.139a5.5,5.5,0,0,1-2.2,4.515,7.574,7.574,0,0,1-2.079,1.219,20.241,20.241,0,0,0,1.473-6.331C23.005,33.381,24.146,33,24.717,34.138Z"/>
</svg>
