<svg id="_7" data-name="7" xmlns="http://www.w3.org/2000/svg" width="28" height="54" viewBox="0 0 28 54">
  <metadata><?xpacket begin="﻿" id="W5M0MpCehiHzreSzNTczkc9d"?>
<x:xmpmeta xmlns:x="adobe:ns:meta/" x:xmptk="Adobe XMP Core 5.6-c138 79.159824, 2016/09/14-01:09:01        ">
   <rdf:RDF xmlns:rdf="http://www.w3.org/1999/02/22-rdf-syntax-ns#">
      <rdf:Description rdf:about=""/>
   </rdf:RDF>
</x:xmpmeta>
                                                                                                    
                                                                                                    
                                                                                                    
                                                                                                    
                                                                                                    
                                                                                                    
                                                                                                    
                                                                                                    
                                                                                                    
                                                                                                    
                                                                                                    
                                                                                                    
                                                                                                    
                                                                                                    
                                                                                                    
                                                                                                    
                                                                                                    
                                                                                                    
                                                                                                    
                                                                                                    
                           
<?xpacket end="w"?></metadata>
<defs>
    <style>
      .cls-1 {
        fill: #00b2b2;
      }

      .cls-1, .cls-2, .cls-3 {
        fill-rule: evenodd;
      }

      .cls-2 {
        fill: #eeca3c;
      }

      .cls-3 {
        fill: #535d63;
      }
    </style>
  </defs>
  <path class="cls-1" d="M-0.011,9.755S-0.239,22.008,12.49,22.6C12.529,22.569,12.719,10.348-.011,9.755Zm0.1,10.45s-0.228,12.253,12.5,12.846C12.558,33.01,12.819,20.8.089,20.2ZM0.17,30.872s-0.229,12.253,12.5,12.846C12.67,43.718,12.9,31.465.17,30.872ZM27.91,20.2s0.228,12.253-12.5,12.846C15.442,33.01,15.181,20.8,27.91,20.2ZM27.83,30.872s0.228,12.253-12.5,12.846C15.33,43.718,15.1,31.465,27.83,30.872ZM13.984,0s-7.889,8.214,0,17.4C13.984,17.4,21.909,9.155,13.984,0Z"/>
  <path class="cls-2" d="M28.011,9.755S28.239,22.008,15.51,22.6C15.47,22.569,15.281,10.348,28.011,9.755Z"/>
  <path class="cls-3" d="M13,54V46h2v8H13Z"/>
</svg>
