<svg id="_8" data-name="8" xmlns="http://www.w3.org/2000/svg" width="32" height="46" viewBox="0 0 32 46">
  <metadata><?xpacket begin="﻿" id="W5M0MpCehiHzreSzNTczkc9d"?>
<x:xmpmeta xmlns:x="adobe:ns:meta/" x:xmptk="Adobe XMP Core 5.6-c138 79.159824, 2016/09/14-01:09:01        ">
   <rdf:RDF xmlns:rdf="http://www.w3.org/1999/02/22-rdf-syntax-ns#">
      <rdf:Description rdf:about=""/>
   </rdf:RDF>
</x:xmpmeta>
                                                                                                    
                                                                                                    
                                                                                                    
                                                                                                    
                                                                                                    
                                                                                                    
                                                                                                    
                                                                                                    
                                                                                                    
                                                                                                    
                                                                                                    
                                                                                                    
                                                                                                    
                                                                                                    
                                                                                                    
                                                                                                    
                                                                                                    
                                                                                                    
                                                                                                    
                                                                                                    
                           
<?xpacket end="w"?></metadata>
<defs>
    <style>
      .cls-1 {
        fill: #535d63;
      }

      .cls-1, .cls-2 {
        fill-rule: evenodd;
      }

      .cls-2 {
        fill: #00b2b2;
      }

      .cls-3 {
        fill: #eeca3c;
      }
    </style>
  </defs>
  <path class="cls-1" d="M6.672,25.995H26.349a3.894,3.894,0,0,1,3.578,4.763l-2.776,9.526A7.534,7.534,0,0,1,19.771,46H13.25a7.535,7.535,0,0,1-7.381-5.715L3.094,30.758A3.9,3.9,0,0,1,6.672,25.995Z"/>
  <path class="cls-2" d="M23.18,25.463c-12.311.609-14.064,7.7-19.493,4.293-5.12-3.214-4.691-10.723,0-15.024a9.435,9.435,0,0,0,8.208,3.22c-3.078-.369-6.422-4.624-6.067-4.939,1.967-1.74,1.965-2.355,11.2-9.013,2.5,9.976,11.963,7.521,14.287,13.654C33.761,24.118,29.435,26.009,23.18,25.463Z"/>
  <circle class="cls-3" cx="15" cy="5" r="5"/>
</svg>
