<svg id="_9" data-name="9" xmlns="http://www.w3.org/2000/svg" width="30.563" height="42" viewBox="0 0 30.563 42">
  <metadata><?xpacket begin="﻿" id="W5M0MpCehiHzreSzNTczkc9d"?>
<x:xmpmeta xmlns:x="adobe:ns:meta/" x:xmptk="Adobe XMP Core 5.6-c138 79.159824, 2016/09/14-01:09:01        ">
   <rdf:RDF xmlns:rdf="http://www.w3.org/1999/02/22-rdf-syntax-ns#">
      <rdf:Description rdf:about=""/>
   </rdf:RDF>
</x:xmpmeta>
                                                                                                    
                                                                                                    
                                                                                                    
                                                                                                    
                                                                                                    
                                                                                                    
                                                                                                    
                                                                                                    
                                                                                                    
                                                                                                    
                                                                                                    
                                                                                                    
                                                                                                    
                                                                                                    
                                                                                                    
                                                                                                    
                                                                                                    
                                                                                                    
                                                                                                    
                                                                                                    
                           
<?xpacket end="w"?></metadata>
<defs>
    <style>
      .cls-1 {
        fill: #00b2b2;
      }

      .cls-1, .cls-2, .cls-3 {
        fill-rule: evenodd;
      }

      .cls-2 {
        fill: #eeca3c;
      }

      .cls-3 {
        fill: #535d63;
      }
    </style>
  </defs>
  <path id="Rounded_Rectangle_1" data-name="Rounded Rectangle 1" class="cls-1" d="M3,2H28V39.333A2.667,2.667,0,0,1,25.333,42H5.667A2.667,2.667,0,0,1,3,39.333V2H3Z" transform="translate(-0.219)"/>
  <path class="cls-2" d="M3,16H21a2,2,0,0,1,2,2V30a2,2,0,0,1-2,2H3V16H3Z" transform="translate(-0.219)"/>
  <path class="cls-3" d="M2,2A2,2,0,0,1,4,0H27a2,2,0,0,1,2,2V4h0a9.948,9.948,0,0,0,1.785,5.695c-1.386.364-1.593,1.917-3.34,1.917-1.979,0-1.979-1.995-3.958-1.995s-1.979,1.995-3.959,1.995-1.98-1.995-3.96-1.995-1.982,1.995-3.963,1.995S9.623,9.616,7.641,9.616,5.66,11.611,3.68,11.611c-1.791,0-1.967-1.627-3.448-1.939A9.948,9.948,0,0,0,2,4V2Z" transform="translate(-0.219)"/>
</svg>
