<svg id="_1" data-name="1" xmlns="http://www.w3.org/2000/svg" width="60" height="77" viewBox="0 0 60 77">
  <metadata><?xpacket begin="﻿" id="W5M0MpCehiHzreSzNTczkc9d"?>
<x:xmpmeta xmlns:x="adobe:ns:meta/" x:xmptk="Adobe XMP Core 5.6-c138 79.159824, 2016/09/14-01:09:01        ">
   <rdf:RDF xmlns:rdf="http://www.w3.org/1999/02/22-rdf-syntax-ns#">
      <rdf:Description rdf:about=""/>
   </rdf:RDF>
</x:xmpmeta>
                                                                                                    
                                                                                                    
                                                                                                    
                                                                                                    
                                                                                                    
                                                                                                    
                                                                                                    
                                                                                                    
                                                                                                    
                                                                                                    
                                                                                                    
                                                                                                    
                                                                                                    
                                                                                                    
                                                                                                    
                                                                                                    
                                                                                                    
                                                                                                    
                                                                                                    
                                                                                                    
                           
<?xpacket end="w"?></metadata>
<defs>
    <style>
      .cls-1 {
        fill: #226d4f;
      }

      .cls-1, .cls-2, .cls-3 {
        fill-rule: evenodd;
      }

      .cls-2 {
        fill: #16d488;
      }

      .cls-3 {
        fill: #c1ecdb;
      }
    </style>
  </defs>
  <path id="Rectangle_596_copy_3" data-name="Rectangle 596 copy 3" class="cls-1" d="M61,40.994h48a6,6,0,0,1,6,6v42a6,6,0,0,1-6,6H61a6,6,0,0,1-6-6V47A6,6,0,0,1,61,40.994Z" transform="translate(-55 -18)"/>
  <path id="Ellipse_669_copy" data-name="Ellipse 669 copy" class="cls-1" d="M94,42V36h0a9,9,0,0,0-18,0h0v6H67V36h0a18,18,0,0,1,36,0h0v6H94Z" transform="translate(-55 -18)"/>
  <path id="Ellipse_670_copy" data-name="Ellipse 670 copy" class="cls-2" d="M96,41V36h0a11,11,0,0,0-22,0h0v5H69V36a16,16,0,1,1,32,0v5H96Z" transform="translate(-55 -18)"/>
  <path id="Rectangle_596_copy_4" data-name="Rectangle 596 copy 4" class="cls-2" d="M61,42.993h48a4,4,0,0,1,4,4v42a4,4,0,0,1-4,4H61a4,4,0,0,1-4-4V47A4,4,0,0,1,61,42.993Z" transform="translate(-55 -18)"/>
  <path id="Rectangle_596_copy_5" data-name="Rectangle 596 copy 5" class="cls-3" d="M61,47h48v42H61V47h0Z" transform="translate(-55 -18)"/>
  <path id="Shape_1056_copy_2" data-name="Shape 1056 copy 2" class="cls-1" d="M88.616,83.757h-6.24a2.926,2.926,0,0,1-2.2-1,3.009,3.009,0,0,1-.724-2.328l1.071-9.218a1.023,1.023,0,0,0-.451-0.948,8.957,8.957,0,0,1,3.945-16.223,8.774,8.774,0,0,1,6.916,2.2,9,9,0,0,1-.61,13.842,1.025,1.025,0,0,0-.417.988l1.6,9.191a3.006,3.006,0,0,1-.643,2.433A2.921,2.921,0,0,1,88.616,83.757Z" transform="translate(-55 -18)"/>
  <path id="Shape_1056_copy_3" data-name="Shape 1056 copy 3" class="cls-2" d="M85.081,55.964a6.957,6.957,0,0,0-3.893,12.665,3.016,3.016,0,0,1,1.286,2.818L81.4,80.663a1,1,0,0,0,.241.779,0.968,0.968,0,0,0,.732.332h6.24a0.963,0.963,0,0,0,.75-0.355,0.992,0.992,0,0,0,.215-0.812l-1.6-9.19a3,3,0,0,1,1.178-2.924,6.918,6.918,0,0,0,2.774-5.577,7.005,7.005,0,0,0-2.3-5.193A6.733,6.733,0,0,0,85.081,55.964Z" transform="translate(-55 -18)"/>
</svg>
