<svg id="_1_1" data-name="1_1" xmlns="http://www.w3.org/2000/svg" width="133.25" height="87" viewBox="0 0 133.25 87">
  <metadata><?xpacket begin="﻿" id="W5M0MpCehiHzreSzNTczkc9d"?>
<x:xmpmeta xmlns:x="adobe:ns:meta/" x:xmptk="Adobe XMP Core 5.6-c138 79.159824, 2016/09/14-01:09:01        ">
   <rdf:RDF xmlns:rdf="http://www.w3.org/1999/02/22-rdf-syntax-ns#">
      <rdf:Description rdf:about=""/>
   </rdf:RDF>
</x:xmpmeta>
                                                                                                    
                                                                                                    
                                                                                                    
                                                                                                    
                                                                                                    
                                                                                                    
                                                                                                    
                                                                                                    
                                                                                                    
                                                                                                    
                                                                                                    
                                                                                                    
                                                                                                    
                                                                                                    
                                                                                                    
                                                                                                    
                                                                                                    
                                                                                                    
                                                                                                    
                                                                                                    
                           
<?xpacket end="w"?></metadata>
<defs>
    <style>
      .cls-1 {
        fill: #2c7457;
      }

      .cls-1, .cls-2 {
        fill-rule: evenodd;
        opacity: 0.5;
      }

      .cls-2 {
        fill: #16d488;
      }
    </style>
  </defs>
  <path id="Rectangle_131_copy_2" data-name="Rectangle 131 copy 2" class="cls-1" d="M27.657,27.062L25,24.406l-2.657,2.656-1.414-1.414,2.657-2.655-2.657-2.658,1.414-1.413L25,21.579l2.657-2.657,1.414,1.413-2.657,2.658,2.657,2.655Z" transform="translate(-20 -9)"/>
  <path id="Rectangle_175_copy_2" data-name="Rectangle 175 copy 2" class="cls-2" d="M29,67.991H26v3a1,1,0,0,1-2,0v-3H21a1,1,0,1,1,0-2h3v-3a1,1,0,0,1,2,0v3h3A1,1,0,1,1,29,67.991Z" transform="translate(-20 -9)"/>
  <path id="Rounded_Rectangle_10_copy" data-name="Rounded Rectangle 10 copy" class="cls-2" d="M145,95.994h-7a1,1,0,0,1-1-1v-7a1,1,0,0,1,1-1h7a1,1,0,0,1,1,1v7A1,1,0,0,1,145,95.994Zm-1-7h-5v5h5v-5Z" transform="translate(-20 -9)"/>
  <path id="Ellipse_42_copy_2" data-name="Ellipse 42 copy 2" class="cls-2" d="M128,16.993a4,4,0,1,1,4-4A4,4,0,0,1,128,16.993Zm0-6a2,2,0,1,0,2,2A2,2,0,0,0,128,10.991Z" transform="translate(-20 -9)"/>
  <path id="Shape_981_copy" data-name="Shape 981 copy" class="cls-1" d="M153.261,55.55l-11.406.2,5.877-9.778Zm-7.9-1.824,4.47-.078-2.167-3.755Z" transform="translate(-20 -9)"/>
</svg>
