<svg xmlns="http://www.w3.org/2000/svg" width="170" height="110" viewBox="0 0 170 110">
  <metadata><?xpacket begin="﻿" id="W5M0MpCehiHzreSzNTczkc9d"?>
<x:xmpmeta xmlns:x="adobe:ns:meta/" x:xmptk="Adobe XMP Core 5.6-c138 79.159824, 2016/09/14-01:09:01        ">
   <rdf:RDF xmlns:rdf="http://www.w3.org/1999/02/22-rdf-syntax-ns#">
      <rdf:Description rdf:about=""/>
   </rdf:RDF>
</x:xmpmeta>
                                                                                                    
                                                                                                    
                                                                                                    
                                                                                                    
                                                                                                    
                                                                                                    
                                                                                                    
                                                                                                    
                                                                                                    
                                                                                                    
                                                                                                    
                                                                                                    
                                                                                                    
                                                                                                    
                                                                                                    
                                                                                                    
                                                                                                    
                                                                                                    
                                                                                                    
                                                                                                    
                           
<?xpacket end="w"?></metadata>
<defs>
    <style>
      .cls-1 {
        fill: #e0ece7;
        fill-rule: evenodd;
      }
    </style>
  </defs>
  <path id="_1_bg" data-name="1_bg" class="cls-1" d="M162,99.995H120a5,5,0,1,1,0-10l29,0a5,5,0,1,0,0-10h-9a5,5,0,0,1,0-10h17a5,5,0,1,0,0-10H136a5,5,0,1,1,0-10h29a5,5,0,1,0,0-10H126a5,5,0,0,1,0-10h24a5,5,0,1,0,0-10H111a5,5,0,0,1,0-10h48a5,5,0,1,0,0-10H85a5,5,0,1,0,0,10h6a5,5,0,0,1,0,10H5a5,5,0,1,0,0,10H32a5,5,0,0,1,0,10H17a5,5,0,1,0,0,10H66a5,5,0,1,1,0,10H10a5,5,0,1,0,0,10H120a5,5,0,0,1,0,10H40a5,5,0,0,0,0,10l58,0a5,5,0,1,1,0,10H6a5,5,0,0,0,0,10H162A5,5,0,0,0,162,99.995ZM45,0H65a5,5,0,0,1,0,10H45A5,5,0,0,1,45,0ZM5-.005H25a5,5,0,0,1,0,10H5A5,5,0,1,1,5-.005Z"/>
</svg>
