<svg id="_2" data-name="2" xmlns="http://www.w3.org/2000/svg" width="84" height="63" viewBox="0 0 84 63">
  <metadata><?xpacket begin="﻿" id="W5M0MpCehiHzreSzNTczkc9d"?>
<x:xmpmeta xmlns:x="adobe:ns:meta/" x:xmptk="Adobe XMP Core 5.6-c138 79.159824, 2016/09/14-01:09:01        ">
   <rdf:RDF xmlns:rdf="http://www.w3.org/1999/02/22-rdf-syntax-ns#">
      <rdf:Description rdf:about=""/>
   </rdf:RDF>
</x:xmpmeta>
                                                                                                    
                                                                                                    
                                                                                                    
                                                                                                    
                                                                                                    
                                                                                                    
                                                                                                    
                                                                                                    
                                                                                                    
                                                                                                    
                                                                                                    
                                                                                                    
                                                                                                    
                                                                                                    
                                                                                                    
                                                                                                    
                                                                                                    
                                                                                                    
                                                                                                    
                                                                                                    
                           
<?xpacket end="w"?></metadata>
<defs>
    <style>
      .cls-1, .cls-3 {
        fill: #226d4f;
      }

      .cls-1, .cls-2 {
        fill-rule: evenodd;
      }

      .cls-2, .cls-4 {
        fill: #16d488;
      }

      .cls-5 {
        fill: #edf5f2;
      }
    </style>
  </defs>
  <path id="Rectangle_603_copy_5" data-name="Rectangle 603 copy 5" class="cls-1" d="M47,29h76a4,4,0,0,1,4,4h0a4,4,0,0,1-4,4H47a4,4,0,0,1-4-4h0A4,4,0,0,1,47,29Zm0,22h76a4,4,0,0,1,4,4h0a4,4,0,0,1-4,4H47a4,4,0,0,1-4-4h0A4,4,0,0,1,47,51Zm0,22h76a4,4,0,0,1,4,4h0a4,4,0,0,1-4,4H47a4,4,0,0,1-4-4h0A4,4,0,0,1,47,73Z" transform="translate(-43 -24)"/>
  <path id="Rectangle_603_copy_6" data-name="Rectangle 603 copy 6" class="cls-2" d="M47,31h76a2,2,0,0,1,2,2h0a2,2,0,0,1-2,2H47a2,2,0,0,1-2-2h0A2,2,0,0,1,47,31Zm0,22h76a2,2,0,0,1,2,2h0a2,2,0,0,1-2,2H47a2,2,0,0,1-2-2h0A2,2,0,0,1,47,53Zm0,22h76a2,2,0,0,1,2,2h0a2,2,0,0,1-2,2H47a2,2,0,0,1-2-2h0A2,2,0,0,1,47,75Z" transform="translate(-43 -24)"/>
  <rect id="Rounded_Rectangle_11_copy_7" data-name="Rounded Rectangle 11 copy 7" class="cls-3" x="14" y="22" width="18" height="18" rx="9" ry="9"/>
  <rect id="Rounded_Rectangle_11_copy_8" data-name="Rounded Rectangle 11 copy 8" class="cls-4" x="16" y="24" width="14" height="14" rx="7" ry="7"/>
  <rect id="Rounded_Rectangle_11_copy_9" data-name="Rounded Rectangle 11 copy 9" class="cls-3" x="48" width="18" height="18" rx="9" ry="9"/>
  <rect id="Rounded_Rectangle_11_copy_10" data-name="Rounded Rectangle 11 copy 10" class="cls-4" x="50" y="2" width="14" height="14" rx="7" ry="7"/>
  <rect id="Rounded_Rectangle_11_copy_11" data-name="Rounded Rectangle 11 copy 11" class="cls-3" x="46" y="45" width="18" height="18" rx="9" ry="9"/>
  <rect id="Rounded_Rectangle_11_copy_12" data-name="Rounded Rectangle 11 copy 12" class="cls-4" x="48" y="47" width="14" height="14" rx="7" ry="7"/>
  <rect id="Rounded_Rectangle_11_copy_13" data-name="Rounded Rectangle 11 copy 13" class="cls-5" x="52" y="51" width="6" height="6" rx="3" ry="3"/>
  <rect id="Rounded_Rectangle_11_copy_14" data-name="Rounded Rectangle 11 copy 14" class="cls-5" x="20" y="28" width="6" height="6" rx="3" ry="3"/>
  <rect id="Rounded_Rectangle_11_copy_15" data-name="Rounded Rectangle 11 copy 15" class="cls-5" x="54" y="6" width="6" height="6" rx="3" ry="3"/>
</svg>
