<svg id="_2_1" data-name="2_1" xmlns="http://www.w3.org/2000/svg" width="159.25" height="90.875" viewBox="0 0 159.25 90.875">
  <metadata><?xpacket begin="﻿" id="W5M0MpCehiHzreSzNTczkc9d"?>
<x:xmpmeta xmlns:x="adobe:ns:meta/" x:xmptk="Adobe XMP Core 5.6-c138 79.159824, 2016/09/14-01:09:01        ">
   <rdf:RDF xmlns:rdf="http://www.w3.org/1999/02/22-rdf-syntax-ns#">
      <rdf:Description rdf:about=""/>
   </rdf:RDF>
</x:xmpmeta>
                                                                                                    
                                                                                                    
                                                                                                    
                                                                                                    
                                                                                                    
                                                                                                    
                                                                                                    
                                                                                                    
                                                                                                    
                                                                                                    
                                                                                                    
                                                                                                    
                                                                                                    
                                                                                                    
                                                                                                    
                                                                                                    
                                                                                                    
                                                                                                    
                                                                                                    
                                                                                                    
                           
<?xpacket end="w"?></metadata>
<defs>
    <style>
      .cls-1 {
        fill: #16d488;
      }

      .cls-1, .cls-2 {
        fill-rule: evenodd;
        opacity: 0.5;
      }

      .cls-2 {
        fill: #226d4f;
      }
    </style>
  </defs>
  <path id="Shape_981_copy_13" data-name="Shape 981 copy 13" class="cls-1" d="M165.261,53.549l-11.406.2,5.876-9.777Zm-7.9-1.824,4.47-.078-2.167-3.754Z" transform="translate(-6 -7)"/>
  <path id="Shape_981_copy_14" data-name="Shape 981 copy 14" class="cls-2" d="M31.851,97.865L20.782,95.106l8.207-7.923Zm-7.162-3.8,4.339,1.079-1.122-4.185Z" transform="translate(-6 -7)"/>
  <path id="Ellipse_42_copy_18" data-name="Ellipse 42 copy 18" class="cls-2" d="M19,20.989a4,4,0,1,1,4-4A4,4,0,0,1,19,20.989Zm0-6a2,2,0,1,0,2,2A2,2,0,0,0,19,14.99Z" transform="translate(-6 -7)"/>
  <path id="Rectangle_175_copy_22" data-name="Rectangle 175 copy 22" class="cls-1" d="M15,52.99H12v3a1,1,0,0,1-2,0v-3H7a1,1,0,1,1,0-2h3v-3a1,1,0,1,1,2,0v3h3A1,1,0,1,1,15,52.99Z" transform="translate(-6 -7)"/>
  <path id="Rounded_Rectangle_10_copy_18" data-name="Rounded Rectangle 10 copy 18" class="cls-2" d="M159,88.991h-7a1,1,0,0,1-1-1v-7a1,1,0,0,1,1-1h7a1,1,0,0,1,1,1v7A1,1,0,0,1,159,88.991Zm-1-7h-5v5h5v-5Z" transform="translate(-6 -7)"/>
  <path id="Rectangle_175_copy_23" data-name="Rectangle 175 copy 23" class="cls-2" d="M146,12.988h-3v3a1,1,0,0,1-2,0v-3h-3a1,1,0,1,1,0-2h3v-3a1,1,0,0,1,2,0v3h3A1,1,0,1,1,146,12.988Z" transform="translate(-6 -7)"/>
</svg>
