<svg xmlns="http://www.w3.org/2000/svg" width="170" height="110" viewBox="0 0 170 110">
  <metadata><?xpacket begin="﻿" id="W5M0MpCehiHzreSzNTczkc9d"?>
<x:xmpmeta xmlns:x="adobe:ns:meta/" x:xmptk="Adobe XMP Core 5.6-c138 79.159824, 2016/09/14-01:09:01        ">
   <rdf:RDF xmlns:rdf="http://www.w3.org/1999/02/22-rdf-syntax-ns#">
      <rdf:Description rdf:about=""/>
   </rdf:RDF>
</x:xmpmeta>
                                                                                                    
                                                                                                    
                                                                                                    
                                                                                                    
                                                                                                    
                                                                                                    
                                                                                                    
                                                                                                    
                                                                                                    
                                                                                                    
                                                                                                    
                                                                                                    
                                                                                                    
                                                                                                    
                                                                                                    
                                                                                                    
                                                                                                    
                                                                                                    
                                                                                                    
                                                                                                    
                           
<?xpacket end="w"?></metadata>
<defs>
    <style>
      .cls-1 {
        fill: #e0ece7;
        fill-rule: evenodd;
      }
    </style>
  </defs>
  <path id="_2_bg" data-name="2_bg" class="cls-1" d="M29,49.994H63a5,5,0,1,1,0,10H19a5,5,0,1,0,0,10H79a5,5,0,0,1,0,10H5a5,5,0,0,0,0,10l84,0a5,5,0,1,1,0,10H37a5,5,0,0,0,0,10H164a5,5,0,0,0,0-10H111a5,5,0,1,1,0-10l28,0a5,5,0,0,0,0-10H99a5,5,0,0,1,0-10h61a5,5,0,1,0,0-10H103a5,5,0,1,1,0-10h50a5,5,0,1,0,0-10H137a5,5,0,1,1,0-10h28a5,5,0,1,0,0-10H48a5,5,0,0,1,0-10H94a5,5,0,0,0,0-10H10a5,5,0,0,0,0,10H28a5,5,0,0,1,0,10H19a5,5,0,1,0,0,10H63a5,5,0,1,1,0,10H29A5,5,0,1,0,29,49.994Zm78-20a5,5,0,1,1,0,10H83a5,5,0,1,1,0-10h24Zm7-20h51a5,5,0,0,0,5-5h0a5,5,0,0,0-5-5H114a5,5,0,0,0-5,5h0A5,5,0,0,0,114,10Z"/>
</svg>
