<?xml version="1.0" encoding="utf-8"?>
<!-- Generator: Adobe Illustrator 21.1.0, SVG Export Plug-In . SVG Version: 6.00 Build 0)  -->
<svg version="1.1" id="_3" xmlns="http://www.w3.org/2000/svg" xmlns:xlink="http://www.w3.org/1999/xlink" x="0px" y="0px"
	 viewBox="0 0 82 57" style="enable-background:new 0 0 82 57;" xml:space="preserve">
<style type="text/css">
	.st0{fill:#226D4F;}
	.st1{fill:#16D488;}
	.st2{fill:#8FE7C4;}
</style>
<path id="Rectangle_603_copy_3" class="st0" d="M9,0h66c1.7,0,3,1.3,3,3v46H6V3C6,1.3,7.3,0,9,0z"/>
<path id="Rectangle_603_copy_7" class="st1" d="M9,2h66c0.6,0,1,0.4,1,1v46H8V3C8,2.4,8.4,2,9,2z"/>
<path id="Rectangle_603_copy_8" class="st2" d="M13,6h58c0.6,0,1,0.4,1,1v42H12V7C12,6.4,12.4,6,13,6z"/>
<path id="Shape_1059_copy_2" class="st0" d="M56,30.9c-0.1,2.9-2.5,5.2-5.4,5.1H33.4c-2.9,0.1-5.3-2.1-5.4-4.9
	c-0.1-2.6,1.7-4.9,4.3-5.3c0.9-2.5,3.3-4.2,6-4.2c0.6,0,1.2,0.1,1.8,0.3c1.4-1.8,3.5-2.8,5.7-2.8c3.8-0.1,7,3,7.1,6.8
	c0,0.1,0,0.3,0,0.4C54.8,27.1,55.9,28.9,56,30.9z M50.6,37H33.4c-3.5,0.1-6.4-2.7-6.4-6.2c0-2.8,1.9-5.2,4.6-5.9
	c1.2-2.7,3.8-4.4,6.7-4.3c0.5,0,0.9,0,1.4,0.1c1.6-1.7,3.8-2.7,6.1-2.7c4.3-0.1,8,3.3,8.1,7.7c1.8,1.1,3,3.1,3,5.2
	C56.9,34.3,54.1,37.1,50.6,37z M38.3,22.5c-2.2,0-4.2,1.4-5,3.5l-0.2,0.6l-0.6,0.1c-2.3,0.4-3.8,2.5-3.4,4.8
	c0.3,2.1,2.2,3.6,4.3,3.5h17.2c2.3,0,4.3-1.8,4.3-4.1c0-1.6-1-3-2.4-3.7l-0.6-0.3l0-0.7c0-0.1,0-0.2,0-0.3c-0.1-3.3-2.8-5.9-6.1-5.8
	c-1.9,0-3.7,0.9-4.9,2.4L40.5,23l-0.7-0.2C39.3,22.6,38.8,22.5,38.3,22.5z M38.3,22.6c-2.2,0-4.2,1.4-5,3.5l-0.2,0.6l-0.6,0.1
	c-2.3,0.4-3.8,2.5-3.4,4.8c0.3,2.1,2.2,3.6,4.3,3.5h17.2c2.3,0,4.3-1.8,4.3-4.1c0-1.6-1-3-2.4-3.7l-0.6-0.3l0-0.7c0-0.1,0-0.2,0-0.3
	c-0.1-3.3-2.8-5.9-6.1-5.8c-1.9,0-3.7,0.9-4.9,2.4L40.5,23l-0.7-0.2C39.3,22.6,38.8,22.6,38.3,22.6z M50.6,37H33.4
	c-3.5,0.1-6.4-2.7-6.4-6.2c0-2.8,1.9-5.2,4.6-5.9c1.2-2.7,3.8-4.4,6.7-4.3c0.5,0,0.9,0,1.4,0.1c1.6-1.7,3.8-2.7,6.1-2.7
	c4.3-0.1,8,3.3,8.1,7.7c1.8,1.1,3,3.1,3,5.2C56.9,34.3,54.1,37.1,50.6,37z"/>
<path id="Shape_1059_copy_3" class="st1" d="M38.3,22.5c-2.2,0-4.2,1.4-5,3.5l-0.2,0.6l-0.6,0.1c-2.3,0.4-3.8,2.5-3.4,4.8
	c0.3,2.1,2.2,3.6,4.3,3.5h17.2c2.3,0,4.3-1.8,4.3-4.1c0-1.6-1-3-2.4-3.7l-0.6-0.3l0-0.7c0-0.1,0-0.2,0-0.3c-0.1-3.3-2.8-5.9-6.1-5.8
	c-1.9,0-3.7,0.9-4.9,2.4L40.5,23l-0.7-0.2C39.3,22.6,38.8,22.5,38.3,22.5z"/>
<path id="Rectangle_604_copy_2" class="st0" d="M3,49h76c1.7,0,3,1.3,3,3v2c0,1.7-1.3,3-3,3H3c-1.7,0-3-1.3-3-3v-2
	C0,50.3,1.3,49,3,49z"/>
<path id="Rectangle_604_copy_3" class="st1" d="M3,51h76c0.6,0,1,0.4,1,1v2c0,0.6-0.4,1-1,1H3c-0.6,0-1-0.4-1-1v-2
	C2,51.4,2.4,51,3,51z"/>
</svg>
