<svg id="_3_1" data-name="3_1" xmlns="http://www.w3.org/2000/svg" width="153.063" height="78.063" viewBox="0 0 153.063 78.063">
  <metadata><?xpacket begin="﻿" id="W5M0MpCehiHzreSzNTczkc9d"?>
<x:xmpmeta xmlns:x="adobe:ns:meta/" x:xmptk="Adobe XMP Core 5.6-c138 79.159824, 2016/09/14-01:09:01        ">
   <rdf:RDF xmlns:rdf="http://www.w3.org/1999/02/22-rdf-syntax-ns#">
      <rdf:Description rdf:about=""/>
   </rdf:RDF>
</x:xmpmeta>
                                                                                                    
                                                                                                    
                                                                                                    
                                                                                                    
                                                                                                    
                                                                                                    
                                                                                                    
                                                                                                    
                                                                                                    
                                                                                                    
                                                                                                    
                                                                                                    
                                                                                                    
                                                                                                    
                                                                                                    
                                                                                                    
                                                                                                    
                                                                                                    
                                                                                                    
                                                                                                    
                           
<?xpacket end="w"?></metadata>
<defs>
    <style>
      .cls-1 {
        fill: #226d4f;
      }

      .cls-1, .cls-2, .cls-3 {
        fill-rule: evenodd;
        opacity: 0.5;
      }

      .cls-2 {
        fill: #16d488;
      }

      .cls-3 {
        fill: #2c7457;
      }
    </style>
  </defs>
  <path id="Shape_981_copy_15" data-name="Shape 981 copy 15" class="cls-1" d="M157.851,32.863l-11.069-2.757,8.207-7.923Zm-7.162-3.8,4.338,1.078-1.121-4.186Z" transform="translate(-11.938 -16)"/>
  <path id="Rounded_Rectangle_10_copy_19" data-name="Rounded Rectangle 10 copy 19" class="cls-1" d="M158,91.991h-7a1,1,0,0,1-1-1v-7a1,1,0,0,1,1-1h7a1,1,0,0,1,1,1v7A1,1,0,0,1,158,91.991Zm-1-7h-5v5h5v-5Z" transform="translate(-11.938 -16)"/>
  <path id="Ellipse_42_copy_3" data-name="Ellipse 42 copy 3" class="cls-2" d="M23,23.994a4,4,0,1,1,4-4A4,4,0,0,1,23,23.994Zm0-6a2,2,0,1,0,2,2A2,2,0,0,0,23,17.994Z" transform="translate(-11.938 -16)"/>
  <path id="Rectangle_131_copy_3" data-name="Rectangle 131 copy 3" class="cls-3" d="M18.656,59.062L16,56.4l-2.657,2.657-1.414-1.413,2.657-2.657-2.657-2.656,1.414-1.415L16,53.576l2.657-2.655,1.414,1.415-2.657,2.656,2.657,2.657Z" transform="translate(-11.938 -16)"/>
  <path id="Rectangle_131_copy_19" data-name="Rectangle 131 copy 19" class="cls-2" d="M23.656,94.06L21,91.4,18.343,94.06l-1.414-1.413,2.657-2.657-2.657-2.657,1.414-1.415L21,88.575l2.657-2.657,1.414,1.415L22.414,89.99l2.657,2.657Z" transform="translate(-11.938 -16)"/>
  <path id="Rectangle_175_copy_3" data-name="Rectangle 175 copy 3" class="cls-2" d="M164,59.992h-3v3a1,1,0,1,1-2,0v-3h-3a1,1,0,0,1,0-2h3v-3a1,1,0,1,1,2,0v3h3A1,1,0,0,1,164,59.992Z" transform="translate(-11.938 -16)"/>
</svg>
