<svg xmlns="http://www.w3.org/2000/svg" width="170" height="110" viewBox="0 0 170 110">
  <metadata><?xpacket begin="﻿" id="W5M0MpCehiHzreSzNTczkc9d"?>
<x:xmpmeta xmlns:x="adobe:ns:meta/" x:xmptk="Adobe XMP Core 5.6-c138 79.159824, 2016/09/14-01:09:01        ">
   <rdf:RDF xmlns:rdf="http://www.w3.org/1999/02/22-rdf-syntax-ns#">
      <rdf:Description rdf:about=""/>
   </rdf:RDF>
</x:xmpmeta>
                                                                                                    
                                                                                                    
                                                                                                    
                                                                                                    
                                                                                                    
                                                                                                    
                                                                                                    
                                                                                                    
                                                                                                    
                                                                                                    
                                                                                                    
                                                                                                    
                                                                                                    
                                                                                                    
                                                                                                    
                                                                                                    
                                                                                                    
                                                                                                    
                                                                                                    
                                                                                                    
                           
<?xpacket end="w"?></metadata>
<defs>
    <style>
      .cls-1 {
        fill: #e0ece7;
        fill-rule: evenodd;
      }
    </style>
  </defs>
  <path id="_3_bg" data-name="3_bg" class="cls-1" d="M45,59.994H64a5,5,0,1,0,0-10H5a5,5,0,0,1,0-10H80a5,5,0,1,0,0-10H67a5,5,0,0,1,0-10H90a5,5,0,0,0,0-10H8a5,5,0,1,1,0-10H164a5,5,0,1,1,0,10H112a5,5,0,0,0,0,10h28a5,5,0,0,1,0,10H100a5,5,0,1,0,0,10h60a5,5,0,0,1,0,10H138a5,5,0,1,0,0,10h25a5,5,0,0,1,0,10H114a5,5,0,0,0,0,10h31a5,5,0,0,1,0,10H89a5,5,0,1,0,0,10h36a5,5,0,1,1,0,10H11a5,5,0,1,1,0-10H69a5,5,0,1,0,0-10H40a5,5,0,0,1,0-10H94a5,5,0,0,0,0-10H45A5,5,0,0,1,45,59.994Zm73,0a5,5,0,1,0,0-10H84a5,5,0,1,0,0,10h34Zm27,40h20a5,5,0,0,1,5,5h0a5,5,0,0,1-5,5H145a5,5,0,0,1-5-5h0A5,5,0,0,1,145,99.995ZM27,20H47a5,5,0,0,1,5,5h0a5,5,0,0,1-5,5H27a5,5,0,0,1-5-5h0A5,5,0,0,1,27,20Z"/>
</svg>
