<svg id="_1" data-name="1" xmlns="http://www.w3.org/2000/svg" width="43" height="62" viewBox="0 0 43 62">
  <metadata><?xpacket begin="﻿" id="W5M0MpCehiHzreSzNTczkc9d"?>
<x:xmpmeta xmlns:x="adobe:ns:meta/" x:xmptk="Adobe XMP Core 5.6-c138 79.159824, 2016/09/14-01:09:01        ">
   <rdf:RDF xmlns:rdf="http://www.w3.org/1999/02/22-rdf-syntax-ns#">
      <rdf:Description rdf:about=""/>
   </rdf:RDF>
</x:xmpmeta>
                                                                                                    
                                                                                                    
                                                                                                    
                                                                                                    
                                                                                                    
                                                                                                    
                                                                                                    
                                                                                                    
                                                                                                    
                                                                                                    
                                                                                                    
                                                                                                    
                                                                                                    
                                                                                                    
                                                                                                    
                                                                                                    
                                                                                                    
                                                                                                    
                                                                                                    
                                                                                                    
                           
<?xpacket end="w"?></metadata>
<defs>
    <style>
      .cls-1 {
        fill: #226d4f;
      }

      .cls-1, .cls-2 {
        fill-rule: evenodd;
      }

      .cls-2 {
        fill: #16d488;
      }
    </style>
  </defs>
  <path class="cls-1" d="M327.958,4070.9h-35.4v-12.89h11.265v-27.43l-3.22,2.65-0.028.02-0.028.02a5.932,5.932,0,0,1-2.656,1.21,7.8,7.8,0,0,1-1.165.1,6.232,6.232,0,0,1-1.152-.11,5.824,5.824,0,0,1-2.08-.79,5.032,5.032,0,0,1-1.434-1.28l-3.925-5.15-1.149-1.51,1.462-1.22,18.266-15.16,0.561-.47h13.043v49.12h9.656v12.89h-2.012Z" transform="translate(-286.969 -4008.91)"/>
  <path id="Shape_1026_copy" data-name="Shape 1026 copy" class="cls-2" d="M318.3,4010.88V4060h9.656v8.91H294.565V4060H305.83v-29.26c0-.74.014-1.49,0.041-2.24s0.066-1.52.12-2.29l-6.678,5.49a4.052,4.052,0,0,1-1.75.82,6.179,6.179,0,0,1-.841.07,5.076,5.076,0,0,1-.789-0.07,4.029,4.029,0,0,1-1.368-.52,2.955,2.955,0,0,1-.885-0.78l-3.943-5.17L308,4010.88h10.3" transform="translate(-286.969 -4008.91)"/>
</svg>
