<svg id="_2" data-name="2" xmlns="http://www.w3.org/2000/svg" width="45" height="63" viewBox="0 0 45 63">
  <metadata><?xpacket begin="﻿" id="W5M0MpCehiHzreSzNTczkc9d"?>
<x:xmpmeta xmlns:x="adobe:ns:meta/" x:xmptk="Adobe XMP Core 5.6-c138 79.159824, 2016/09/14-01:09:01        ">
   <rdf:RDF xmlns:rdf="http://www.w3.org/1999/02/22-rdf-syntax-ns#">
      <rdf:Description rdf:about=""/>
   </rdf:RDF>
</x:xmpmeta>
                                                                                                    
                                                                                                    
                                                                                                    
                                                                                                    
                                                                                                    
                                                                                                    
                                                                                                    
                                                                                                    
                                                                                                    
                                                                                                    
                                                                                                    
                                                                                                    
                                                                                                    
                                                                                                    
                                                                                                    
                                                                                                    
                                                                                                    
                                                                                                    
                                                                                                    
                                                                                                    
                           
<?xpacket end="w"?></metadata>
<defs>
    <style>
      .cls-1 {
        fill: #226d4f;
      }

      .cls-1, .cls-2 {
        fill-rule: evenodd;
      }

      .cls-2 {
        fill: #16d488;
      }
    </style>
  </defs>
  <path class="cls-1" d="M656,4070.99H613v-6a9.326,9.326,0,0,1,.6-3.17,8,8,0,0,1,2.18-3.17l16.782-16.91c1.388-1.39,2.608-2.72,3.628-3.97a24.262,24.262,0,0,0,2.437-3.56,15.794,15.794,0,0,0,1.386-3.37,13.309,13.309,0,0,0,.45-3.5,5.9,5.9,0,0,0-1.153-4.01,4.527,4.527,0,0,0-3.571-1.2,5.439,5.439,0,0,0-5.387,3.72l-0.014.04-0.015.04a7.122,7.122,0,0,1-3.136,3.98,6.737,6.737,0,0,1-3.166.7,12.481,12.481,0,0,1-2-.18l-6.566-1.16-1.914-.34,0.282-1.92a24.014,24.014,0,0,1,2.7-8.3,19.953,19.953,0,0,1,11.871-9.57,27.756,27.756,0,0,1,8.069-1.14,24.659,24.659,0,0,1,8.472,1.38,19.5,19.5,0,0,1,6.574,3.91,17.077,17.077,0,0,1,4.235,6.05,19.514,19.514,0,0,1,1.457,7.6,20.876,20.876,0,0,1-1,6.56,25.663,25.663,0,0,1-2.672,5.63,38.864,38.864,0,0,1-3.822,5.02c-1.387,1.55-2.884,3.15-4.443,4.73l-6.845,7.02c0.826-.08,1.618-0.13,2.37-0.13h10.89a6.344,6.344,0,0,1,4.54,1.66,5.813,5.813,0,0,1,1.785,4.35v9.21h-2Z" transform="translate(-613 -4008)"/>
  <path id="Shape_1027_copy" data-name="Shape 1027 copy" class="cls-2" d="M636.46,4010a22.658,22.658,0,0,1,7.787,1.26,17.5,17.5,0,0,1,5.905,3.5,15.132,15.132,0,0,1,3.743,5.35,17.519,17.519,0,0,1,1.3,6.83,18.807,18.807,0,0,1-.9,5.93,23.443,23.443,0,0,1-2.462,5.18,36.776,36.776,0,0,1-3.623,4.77c-1.375,1.53-2.837,3.09-4.384,4.66l-11.41,11.7a32.326,32.326,0,0,1,4.364-1.04,24.475,24.475,0,0,1,4-.36h10.89a4.381,4.381,0,0,1,3.162,1.1,3.8,3.8,0,0,1,1.161,2.9v7.21H615v-4a7.277,7.277,0,0,1,.481-2.49,5.975,5.975,0,0,1,1.681-2.4l16.814-16.94a55.028,55.028,0,0,0,3.764-4.13,25.094,25.094,0,0,0,2.642-3.86,17.649,17.649,0,0,0,1.561-3.81,15.135,15.135,0,0,0,.521-4.02,7.785,7.785,0,0,0-1.662-5.35,6.447,6.447,0,0,0-5.064-1.86,7.423,7.423,0,0,0-7.286,5.09,5.206,5.206,0,0,1-2.2,2.92,4.734,4.734,0,0,1-2.23.46,10.034,10.034,0,0,1-1.653-.14l-6.566-1.16a21.889,21.889,0,0,1,2.462-7.61,17.9,17.9,0,0,1,10.709-8.63,25.477,25.477,0,0,1,7.486-1.06" transform="translate(-613 -4008)"/>
</svg>
