<svg id="_3" data-name="3" xmlns="http://www.w3.org/2000/svg" width="46" height="64" viewBox="0 0 46 64">
  <metadata><?xpacket begin="﻿" id="W5M0MpCehiHzreSzNTczkc9d"?>
<x:xmpmeta xmlns:x="adobe:ns:meta/" x:xmptk="Adobe XMP Core 5.6-c138 79.159824, 2016/09/14-01:09:01        ">
   <rdf:RDF xmlns:rdf="http://www.w3.org/1999/02/22-rdf-syntax-ns#">
      <rdf:Description rdf:about=""/>
   </rdf:RDF>
</x:xmpmeta>
                                                                                                    
                                                                                                    
                                                                                                    
                                                                                                    
                                                                                                    
                                                                                                    
                                                                                                    
                                                                                                    
                                                                                                    
                                                                                                    
                                                                                                    
                                                                                                    
                                                                                                    
                                                                                                    
                                                                                                    
                                                                                                    
                                                                                                    
                                                                                                    
                                                                                                    
                                                                                                    
                           
<?xpacket end="w"?></metadata>
<defs>
    <style>
      .cls-1 {
        fill: #226d4f;
      }

      .cls-1, .cls-2 {
        fill-rule: evenodd;
      }

      .cls-2 {
        fill: #16d488;
      }
    </style>
  </defs>
  <path class="cls-1" d="M982.348,4034.78a12.032,12.032,0,0,1-3.261,3.13,1.241,1.241,0,0,1-.152.1c4.634,2.89,7.056,7.42,7.056,13.3a20.493,20.493,0,0,1-1.888,9.02,18.83,18.83,0,0,1-5.054,6.44,21.507,21.507,0,0,1-7.232,3.8,28.436,28.436,0,0,1-8.369,1.24,29.8,29.8,0,0,1-7.958-.98,19.175,19.175,0,0,1-6.446-3.15,20.817,20.817,0,0,1-4.913-5.42,34.873,34.873,0,0,1-3.518-7.52l-0.616-1.8,1.758-.72,5.563-2.26a9.7,9.7,0,0,1,3.514-.71,8.228,8.228,0,0,1,1.651.17,5.811,5.811,0,0,1,3.984,2.86,12.806,12.806,0,0,0,3.263,4.2,5.726,5.726,0,0,0,3.558,1.11,6.718,6.718,0,0,0,2.8-.52,5.989,5.989,0,0,0,1.926-1.35,5.472,5.472,0,0,0,1.135-1.85,6.219,6.219,0,0,0,.4-2.16,18.286,18.286,0,0,0-.231-3.06,2.419,2.419,0,0,0-.83-1.44,6.217,6.217,0,0,0-2.755-1.21,28.739,28.739,0,0,0-6.292-.53h-2.006v-12.64h2.006a22.859,22.859,0,0,0,5.41-.51,7.117,7.117,0,0,0,2.7-1.16,2.73,2.73,0,0,0,.952-1.38,9.412,9.412,0,0,0,.324-2.55,5.935,5.935,0,0,0-1.155-4,4.577,4.577,0,0,0-3.578-1.2,5.465,5.465,0,0,0-5.4,3.74l-0.014.04-0.015.04a7.14,7.14,0,0,1-3.141,4,6.65,6.65,0,0,1-3.173.7,12.437,12.437,0,0,1-2.006-.17l-6.578-1.17-1.918-.34,0.283-1.93a24.183,24.183,0,0,1,2.7-8.35,20.025,20.025,0,0,1,11.895-9.62,27.86,27.86,0,0,1,8.085-1.15,24.382,24.382,0,0,1,8.386,1.35,19.1,19.1,0,0,1,6.35,3.72,15.993,15.993,0,0,1,4.028,5.54,16.47,16.47,0,0,1,1.372,6.63,21.346,21.346,0,0,1-.629,5.41A13.2,13.2,0,0,1,982.348,4034.78Z" transform="translate(-940 -4007.81)"/>
  <path id="Shape_1028_copy" data-name="Shape 1028 copy" class="cls-2" d="M964.812,4009.83a22.373,22.373,0,0,1,7.7,1.23,17.325,17.325,0,0,1,5.7,3.32,14.071,14.071,0,0,1,3.53,4.86,14.41,14.41,0,0,1,1.2,5.82,19.16,19.16,0,0,1-.561,4.89,11.187,11.187,0,0,1-1.665,3.66,10.054,10.054,0,0,1-2.727,2.62,16.685,16.685,0,0,1-3.711,1.79q9.708,3.42,9.707,13.29a18.37,18.37,0,0,1-1.684,8.13,16.724,16.724,0,0,1-4.513,5.76,19.381,19.381,0,0,1-6.558,3.45,26.479,26.479,0,0,1-7.782,1.14,27.86,27.86,0,0,1-7.421-.9,17.272,17.272,0,0,1-5.776-2.82,18.821,18.821,0,0,1-4.432-4.89,32.9,32.9,0,0,1-3.309-7.09l5.535-2.26a7.7,7.7,0,0,1,2.787-.57,5.517,5.517,0,0,1,1.224.13,3.787,3.787,0,0,1,2.648,1.85,14.665,14.665,0,0,0,3.83,4.86,7.776,7.776,0,0,0,4.754,1.51,8.674,8.674,0,0,0,3.63-.71,7.89,7.89,0,0,0,2.567-1.81,7.552,7.552,0,0,0,1.544-2.52,8.19,8.19,0,0,0,.522-2.86,20.1,20.1,0,0,0-.261-3.4,4.462,4.462,0,0,0-1.464-2.6,8.327,8.327,0,0,0-3.63-1.67,30.386,30.386,0,0,0-6.759-.58v-8.62a25.357,25.357,0,0,0,5.9-.56,9.183,9.183,0,0,0,3.47-1.55,4.7,4.7,0,0,0,1.625-2.4,11.3,11.3,0,0,0,.4-3.1,7.787,7.787,0,0,0-1.665-5.34,6.473,6.473,0,0,0-5.074-1.87,7.421,7.421,0,0,0-4.673,1.47,7.54,7.54,0,0,0-2.628,3.65,5.292,5.292,0,0,1-2.206,2.94,4.745,4.745,0,0,1-2.234.46,11.321,11.321,0,0,1-1.657-.14l-6.578-1.17a22.024,22.024,0,0,1,2.467-7.65,17.961,17.961,0,0,1,10.73-8.68,25.573,25.573,0,0,1,7.5-1.07" transform="translate(-940 -4007.81)"/>
</svg>
