<svg id="_4" data-name="4" xmlns="http://www.w3.org/2000/svg" width="49" height="62.03" viewBox="0 0 49 62.03">
  <metadata><?xpacket begin="﻿" id="W5M0MpCehiHzreSzNTczkc9d"?>
<x:xmpmeta xmlns:x="adobe:ns:meta/" x:xmptk="Adobe XMP Core 5.6-c138 79.159824, 2016/09/14-01:09:01        ">
   <rdf:RDF xmlns:rdf="http://www.w3.org/1999/02/22-rdf-syntax-ns#">
      <rdf:Description rdf:about=""/>
   </rdf:RDF>
</x:xmpmeta>
                                                                                                    
                                                                                                    
                                                                                                    
                                                                                                    
                                                                                                    
                                                                                                    
                                                                                                    
                                                                                                    
                                                                                                    
                                                                                                    
                                                                                                    
                                                                                                    
                                                                                                    
                                                                                                    
                                                                                                    
                                                                                                    
                                                                                                    
                                                                                                    
                                                                                                    
                                                                                                    
                           
<?xpacket end="w"?></metadata>
<defs>
    <style>
      .cls-1 {
        fill: #226d4f;
      }

      .cls-1, .cls-2 {
        fill-rule: evenodd;
      }

      .cls-2 {
        fill: #16d488;
      }
    </style>
  </defs>
  <path class="cls-1" d="M1312.86,4052.26a4.263,4.263,0,0,1-3.27,1.33h-1.6v13.34h-14.82v-13.34h-21.46a5.355,5.355,0,0,1-3.32-1.13,5.053,5.053,0,0,1-1.92-2.97l-1.28-6.09-0.19-.88,0.54-.72,26.99-36.08,0.6-.8h14.86v35.48H1314v8.93A4.313,4.313,0,0,1,1312.86,4052.26Zm-19.69-11.86v-12.73l-9.12,12.73h9.12Z" transform="translate(-1265 -4004.91)"/>
  <path id="Shape_1029_copy" data-name="Shape 1029 copy" class="cls-2" d="M1305.99,4006.91v35.49H1312v6.93a2.288,2.288,0,0,1-.62,1.59,2.321,2.321,0,0,1-1.79.68h-3.6v13.34h-10.81V4051.6h-23.47a3.362,3.362,0,0,1-2.1-.72,3.048,3.048,0,0,1-1.18-1.79l-1.29-6.1,27-36.08h11.85m-25.83,35.49h15.02v-15.14c0-.93.03-1.93,0.1-3s0.16-2.2.3-3.37l-15.42,21.51" transform="translate(-1265 -4004.91)"/>
</svg>
