<svg xmlns="http://www.w3.org/2000/svg" width="360" height="180" viewBox="0 0 360 180">
  <metadata><?xpacket begin="﻿" id="W5M0MpCehiHzreSzNTczkc9d"?>
<x:xmpmeta xmlns:x="adobe:ns:meta/" x:xmptk="Adobe XMP Core 5.6-c138 79.159824, 2016/09/14-01:09:01        ">
   <rdf:RDF xmlns:rdf="http://www.w3.org/1999/02/22-rdf-syntax-ns#">
      <rdf:Description rdf:about=""/>
   </rdf:RDF>
</x:xmpmeta>
                                                                                                    
                                                                                                    
                                                                                                    
                                                                                                    
                                                                                                    
                                                                                                    
                                                                                                    
                                                                                                    
                                                                                                    
                                                                                                    
                                                                                                    
                                                                                                    
                                                                                                    
                                                                                                    
                                                                                                    
                                                                                                    
                                                                                                    
                                                                                                    
                                                                                                    
                                                                                                    
                           
<?xpacket end="w"?></metadata>
<defs>
    <style>
      .cls-1 {
        fill: #f0f7f5;
        fill-rule: evenodd;
      }
    </style>
  </defs>
  <path id="bg" class="cls-1" d="M912,5400H895a10,10,0,0,1,0-20h57a10,10,0,0,0,0-20H646.165a10,10,0,1,0,0,20H855a10,10,0,0,1,0,20H641.166a10,10,0,1,0,0,20H675a10,10,0,0,1,0,20H629.166a10,10,0,1,0,0,20H713a10,10,0,0,1,0,20H658a10,10,0,0,0,0,20H768a10,10,0,0,0,0-20H753a10,10,0,0,1,0-20h76a10,10,0,0,1,0,20H808.166a10,10,0,1,0,0,20H848a10,10,0,0,1,0,20H718.166a10,10,0,1,0,0,20H942a10,10,0,0,0,0-20H888a10,10,0,0,1,0-20h9a10,10,0,0,0,0-20H869a10,10,0,0,1,0-20H969a10,10,0,0,0,0-20H714a10,10,0,0,1,0-20H912A10,10,0,0,0,912,5400ZM649,5520h29a10,10,0,0,1,0,20H649A10,10,0,0,1,649,5520Zm288-40h32a10,10,0,0,1,0,20H937A10,10,0,0,1,937,5480Z" transform="translate(-619 -5360)"/>
</svg>
