<svg id="icon" xmlns="http://www.w3.org/2000/svg" width="105" height="135" viewBox="0 0 105 135">
  <metadata><?xpacket begin="﻿" id="W5M0MpCehiHzreSzNTczkc9d"?>
<x:xmpmeta xmlns:x="adobe:ns:meta/" x:xmptk="Adobe XMP Core 5.6-c138 79.159824, 2016/09/14-01:09:01        ">
   <rdf:RDF xmlns:rdf="http://www.w3.org/1999/02/22-rdf-syntax-ns#">
      <rdf:Description rdf:about=""/>
   </rdf:RDF>
</x:xmpmeta>
                                                                                                    
                                                                                                    
                                                                                                    
                                                                                                    
                                                                                                    
                                                                                                    
                                                                                                    
                                                                                                    
                                                                                                    
                                                                                                    
                                                                                                    
                                                                                                    
                                                                                                    
                                                                                                    
                                                                                                    
                                                                                                    
                                                                                                    
                                                                                                    
                                                                                                    
                                                                                                    
                           
<?xpacket end="w"?></metadata>
<defs>
    <style>
      .cls-1 {
        fill: #f76161;
      }

      .cls-1, .cls-3, .cls-5 {
        fill-rule: evenodd;
      }

      .cls-2, .cls-5 {
        fill: #226d4f;
      }

      .cls-3 {
        fill: #16d488;
      }

      .cls-4 {
        fill: #c1ecdb;
      }
    </style>
  </defs>
  <path id="Rounded_Rectangle_31" data-name="Rounded Rectangle 31" class="cls-1" d="M761,5382h10v135h0l-5-3-5,3h0V5382h0Z" transform="translate(-743 -5382)"/>
  <path class="cls-2" d="M7,3.97H97a8,8,0,0,1,8,8v108a8,8,0,0,1-8,8H7a4,4,0,0,1-4-4V7.97A4,4,0,0,1,7,3.97Z"/>
  <path id="Shape_1047_copy" data-name="Shape 1047 copy" class="cls-3" d="M750,5387.98h90a6,6,0,0,1,6,6v107.98a6,6,0,0,1-6,6H750a2,2,0,0,1-2-2V5389.98A2,2,0,0,1,750,5387.98Z" transform="translate(-743 -5382)"/>
  <circle class="cls-2" cx="11" cy="20" r="4"/>
  <circle id="Rounded_Rectangle_30" data-name="Rounded Rectangle 30" class="cls-4" cx="11" cy="20" r="2"/>
  <circle id="Ellipse_581_copy" data-name="Ellipse 581 copy" class="cls-2" cx="11" cy="112" r="4"/>
  <circle id="Ellipse_581_copy_5" data-name="Ellipse 581 copy 5" class="cls-4" cx="11" cy="112" r="2"/>
  <circle id="Ellipse_581_copy_4" data-name="Ellipse 581 copy 4" class="cls-2" cx="11" cy="89" r="4"/>
  <circle id="Ellipse_581_copy_2" data-name="Ellipse 581 copy 2" class="cls-2" cx="11" cy="43" r="4"/>
  <circle id="Ellipse_581_copy_3" data-name="Ellipse 581 copy 3" class="cls-2" cx="11" cy="66" r="4"/>
  <rect id="Shape_1047_copy_4" data-name="Shape 1047 copy 4" class="cls-4" x="23" y="10" width="76" height="112" rx="2" ry="2"/>
  <path id="Rectangle_570_copy_2" data-name="Rectangle 570 copy 2" class="cls-5" d="M780,5423h48v2H780v-2Zm0,10h48v2H780v-2Zm0,10h48v2H780v-2Z" transform="translate(-743 -5382)"/>
  <path id="Shape_1047_copy_2" data-name="Shape 1047 copy 2" class="cls-5" d="M760,5387.98h2v119.98h-2V5387.98Z" transform="translate(-743 -5382)"/>
  <circle id="Rounded_Rectangle_30_copy" data-name="Rounded Rectangle 30 copy" class="cls-4" cx="11" cy="43" r="2"/>
  <circle id="Rounded_Rectangle_30_copy_2" data-name="Rounded Rectangle 30 copy 2" class="cls-4" cx="11" cy="66" r="2"/>
  <circle id="Rounded_Rectangle_30_copy_3" data-name="Rounded Rectangle 30 copy 3" class="cls-4" cx="11" cy="89" r="2"/>
  <rect id="Rounded_Rectangle_29" data-name="Rounded Rectangle 29" class="cls-2" y="19" width="11" height="2" rx="1" ry="1"/>
  <rect id="Rounded_Rectangle_29_copy" data-name="Rounded Rectangle 29 copy" class="cls-2" y="42" width="11" height="2" rx="1" ry="1"/>
  <rect id="Rounded_Rectangle_29_copy_2" data-name="Rounded Rectangle 29 copy 2" class="cls-2" y="65" width="11" height="2" rx="1" ry="1"/>
  <rect id="Rounded_Rectangle_29_copy_3" data-name="Rounded Rectangle 29 copy 3" class="cls-2" y="88" width="11" height="2" rx="1" ry="1"/>
  <rect id="Rounded_Rectangle_29_copy_4" data-name="Rounded Rectangle 29 copy 4" class="cls-2" y="111" width="11" height="2" rx="1" ry="1"/>
</svg>
