<svg id="icon2" xmlns="http://www.w3.org/2000/svg" width="252.312" height="148" viewBox="0 0 252.312 148">
  <metadata><?xpacket begin="﻿" id="W5M0MpCehiHzreSzNTczkc9d"?>
<x:xmpmeta xmlns:x="adobe:ns:meta/" x:xmptk="Adobe XMP Core 5.6-c138 79.159824, 2016/09/14-01:09:01        ">
   <rdf:RDF xmlns:rdf="http://www.w3.org/1999/02/22-rdf-syntax-ns#">
      <rdf:Description rdf:about=""/>
   </rdf:RDF>
</x:xmpmeta>
                                                                                                    
                                                                                                    
                                                                                                    
                                                                                                    
                                                                                                    
                                                                                                    
                                                                                                    
                                                                                                    
                                                                                                    
                                                                                                    
                                                                                                    
                                                                                                    
                                                                                                    
                                                                                                    
                                                                                                    
                                                                                                    
                                                                                                    
                                                                                                    
                                                                                                    
                                                                                                    
                           
<?xpacket end="w"?></metadata>
<defs>
    <style>
      .cls-1 {
        fill: #2c7457;
      }

      .cls-1, .cls-2, .cls-3 {
        fill-rule: evenodd;
        opacity: 0.5;
      }

      .cls-2 {
        fill: #16d488;
      }

      .cls-3 {
        fill: #226d4f;
      }
    </style>
  </defs>
  <path id="Rectangle_131_copy_15" data-name="Rectangle 131 copy 15" class="cls-1" d="M684.656,5393.07L682,5390.41l-2.657,2.66-1.414-1.42,2.656-2.65-2.656-2.66,1.414-1.41,2.657,2.65,2.656-2.65,1.415,1.41-2.657,2.66,2.657,2.65Z" transform="translate(-677.938 -5380)"/>
  <path id="Rectangle_175_copy_14" data-name="Rectangle 175 copy 14" class="cls-2" d="M902,5452h-3v3a1,1,0,0,1-2,0v-3h-3a1,1,0,0,1,0-2h3v-3a1,1,0,0,1,2,0v3h3A1,1,0,0,1,902,5452Z" transform="translate(-677.938 -5380)"/>
  <path id="Rectangle_175_copy_15" data-name="Rectangle 175 copy 15" class="cls-3" d="M708,5524h-3v3a1,1,0,0,1-2,0v-3h-3a1,1,0,0,1,0-2h3v-3a1,1,0,0,1,2,0v3h3A1,1,0,0,1,708,5524Z" transform="translate(-677.938 -5380)"/>
  <path id="Rounded_Rectangle_10_copy_12" data-name="Rounded Rectangle 10 copy 12" class="cls-2" d="M701,5460h-7a1,1,0,0,1-1-1v-7a1,1,0,0,1,1-1h7a1,1,0,0,1,1,1v7A1,1,0,0,1,701,5460Zm-1-7h-5v5h5v-5Z" transform="translate(-677.938 -5380)"/>
  <path id="Shape_981_copy_10" data-name="Shape 981 copy 10" class="cls-1" d="M930.261,5513.55l-11.4.2,5.876-9.77Zm-7.9-1.82,4.471-.08-2.168-3.75Z" transform="translate(-677.938 -5380)"/>
  <path id="Ellipse_42_copy_14" data-name="Ellipse 42 copy 14" class="cls-3" d="M900,5388a4,4,0,1,1,4-4A4,4,0,0,1,900,5388Zm0-6a2,2,0,1,0,2,2A2,2,0,0,0,900,5382Z" transform="translate(-677.938 -5380)"/>
</svg>
