<svg id="_1" data-name="1" xmlns="http://www.w3.org/2000/svg" width="76" height="62" viewBox="0 0 76 62">
  <metadata><?xpacket begin="﻿" id="W5M0MpCehiHzreSzNTczkc9d"?>
<x:xmpmeta xmlns:x="adobe:ns:meta/" x:xmptk="Adobe XMP Core 5.6-c138 79.159824, 2016/09/14-01:09:01        ">
   <rdf:RDF xmlns:rdf="http://www.w3.org/1999/02/22-rdf-syntax-ns#">
      <rdf:Description rdf:about=""/>
   </rdf:RDF>
</x:xmpmeta>
                                                                                                    
                                                                                                    
                                                                                                    
                                                                                                    
                                                                                                    
                                                                                                    
                                                                                                    
                                                                                                    
                                                                                                    
                                                                                                    
                                                                                                    
                                                                                                    
                                                                                                    
                                                                                                    
                                                                                                    
                                                                                                    
                                                                                                    
                                                                                                    
                                                                                                    
                                                                                                    
                           
<?xpacket end="w"?></metadata>
<defs>
    <style>
      .cls-1, .cls-4 {
        fill: #226d4f;
      }

      .cls-1, .cls-2, .cls-3 {
        fill-rule: evenodd;
      }

      .cls-2 {
        fill: #16d488;
      }

      .cls-3 {
        fill: #c1ecdb;
      }
    </style>
  </defs>
  <path class="cls-1" d="M400,2174v10a6,6,0,0,1-6,6H330a6,6,0,0,1-6-6v-10a6,6,0,0,1,6-6h64A6,6,0,0,1,400,2174Z" transform="translate(-324 -2128)"/>
  <path id="Rounded_Rectangle_2" data-name="Rounded Rectangle 2" class="cls-2" d="M398,2174v10a4,4,0,0,1-4,4H330a4,4,0,0,1-4-4v-10a4,4,0,0,1,4-4h64A4,4,0,0,1,398,2174Z" transform="translate(-324 -2128)"/>
  <path class="cls-3" d="M394,2176v6a2,2,0,0,1-2,2H332a2,2,0,0,1-2-2v-6a2,2,0,0,1,2-2h60A2,2,0,0,1,394,2176Z" transform="translate(-324 -2128)"/>
  <path class="cls-1" d="M337,2176a3,3,0,1,1-3,3A3,3,0,0,1,337,2176Zm0,2a1,1,0,1,1-1,1A1,1,0,0,1,337,2178Z" transform="translate(-324 -2128)"/>
  <path id="Shape_22_copy_4" data-name="Shape 22 copy 4" class="cls-1" d="M400,2154v10a6,6,0,0,1-6,6H330a6,6,0,0,1-6-6v-10a6,6,0,0,1,6-6h64A6,6,0,0,1,400,2154Z" transform="translate(-324 -2128)"/>
  <path id="Rounded_Rectangle_2_copy_4" data-name="Rounded Rectangle 2 copy 4" class="cls-2" d="M398,2154v10a4,4,0,0,1-4,4H330a4,4,0,0,1-4-4v-10a4,4,0,0,1,4-4h64A4,4,0,0,1,398,2154Z" transform="translate(-324 -2128)"/>
  <path id="Rectangle_52_copy_4" data-name="Rectangle 52 copy 4" class="cls-3" d="M394,2156v6a2,2,0,0,1-2,2H332a2,2,0,0,1-2-2v-6a2,2,0,0,1,2-2h60A2,2,0,0,1,394,2156Z" transform="translate(-324 -2128)"/>
  <path id="Shape_22_copy_5" data-name="Shape 22 copy 5" class="cls-1" d="M400,2134v10a6,6,0,0,1-6,6H330a6,6,0,0,1-6-6v-10a6,6,0,0,1,6-6h64A6,6,0,0,1,400,2134Z" transform="translate(-324 -2128)"/>
  <path id="Rounded_Rectangle_2_copy_5" data-name="Rounded Rectangle 2 copy 5" class="cls-2" d="M398,2134v10a4,4,0,0,1-4,4H330a4,4,0,0,1-4-4v-10a4,4,0,0,1,4-4h64A4,4,0,0,1,398,2134Z" transform="translate(-324 -2128)"/>
  <path id="Rectangle_52_copy_5" data-name="Rectangle 52 copy 5" class="cls-3" d="M394,2136v6a2,2,0,0,1-2,2H332a2,2,0,0,1-2-2v-6a2,2,0,0,1,2-2h60A2,2,0,0,1,394,2136Z" transform="translate(-324 -2128)"/>
  <path id="Ellipse_584_copy" data-name="Ellipse 584 copy" class="cls-1" d="M337,2156a2.542,2.542,0,1,1-3,2.5A2.785,2.785,0,0,1,337,2156Zm0,2a1,1,0,1,1-1,1A1,1,0,0,1,337,2158Z" transform="translate(-324 -2128)"/>
  <path id="Ellipse_584_copy_2" data-name="Ellipse 584 copy 2" class="cls-1" d="M337,2136a3,3,0,1,1-3,3A3,3,0,0,1,337,2136Zm0,2a1,1,0,1,1-1,1A1,1,0,0,1,337,2138Z" transform="translate(-324 -2128)"/>
  <rect id="Rounded_Rectangle_4" data-name="Rounded Rectangle 4" class="cls-4" x="32" y="10" width="34" height="2" rx="1" ry="1"/>
  <rect id="Rounded_Rectangle_4_copy" data-name="Rounded Rectangle 4 copy" class="cls-4" x="32" y="30" width="34" height="2" rx="1" ry="1"/>
  <rect id="Rounded_Rectangle_4_copy_2" data-name="Rounded Rectangle 4 copy 2" class="cls-4" x="32" y="50" width="34" height="2" rx="1" ry="1"/>
</svg>
