<svg id="_1_1" data-name="1_1" xmlns="http://www.w3.org/2000/svg" width="169.219" height="114" viewBox="0 0 169.219 114">
  <metadata><?xpacket begin="﻿" id="W5M0MpCehiHzreSzNTczkc9d"?>
<x:xmpmeta xmlns:x="adobe:ns:meta/" x:xmptk="Adobe XMP Core 5.6-c138 79.159824, 2016/09/14-01:09:01        ">
   <rdf:RDF xmlns:rdf="http://www.w3.org/1999/02/22-rdf-syntax-ns#">
      <rdf:Description rdf:about=""/>
   </rdf:RDF>
</x:xmpmeta>
                                                                                                    
                                                                                                    
                                                                                                    
                                                                                                    
                                                                                                    
                                                                                                    
                                                                                                    
                                                                                                    
                                                                                                    
                                                                                                    
                                                                                                    
                                                                                                    
                                                                                                    
                                                                                                    
                                                                                                    
                                                                                                    
                                                                                                    
                                                                                                    
                                                                                                    
                                                                                                    
                           
<?xpacket end="w"?></metadata>
<defs>
    <style>
      .cls-1 {
        fill: #2c7457;
      }

      .cls-1, .cls-2, .cls-3 {
        fill-rule: evenodd;
        opacity: 0.5;
      }

      .cls-2 {
        fill: #16d488;
      }

      .cls-3 {
        fill: #226d4f;
      }
    </style>
  </defs>
  <path id="Rectangle_131_copy_4" data-name="Rectangle 131 copy 4" class="cls-1" d="M443.656,2147.07L441,2144.41l-2.657,2.66-1.414-1.42,2.656-2.65-2.656-2.66,1.414-1.42,2.657,2.66,2.656-2.66,1.415,1.42-2.657,2.66,2.657,2.65Z" transform="translate(-275.844 -2103)"/>
  <path id="Rectangle_175_copy_4" data-name="Rectangle 175 copy 4" class="cls-2" d="M435,2183h-3v3a1,1,0,0,1-2,0v-3h-3a1,1,0,0,1,0-2h3v-3a1,1,0,0,1,2,0v3h3A1,1,0,0,1,435,2183Z" transform="translate(-275.844 -2103)"/>
  <path id="Rectangle_175_copy_5" data-name="Rectangle 175 copy 5" class="cls-3" d="M314,2213h-3v3a1,1,0,0,1-2,0v-3h-3a1,1,0,0,1,0-2h3v-3a1,1,0,0,1,2,0v3h3A1,1,0,0,1,314,2213Z" transform="translate(-275.844 -2103)"/>
  <path id="Rounded_Rectangle_10_copy_3" data-name="Rounded Rectangle 10 copy 3" class="cls-3" d="M300,2131h-7a1,1,0,0,1-1-1v-7a1,1,0,0,1,1-1h7a1,1,0,0,1,1,1v7A1,1,0,0,1,300,2131Zm-1-7h-5v5h5v-5Z" transform="translate(-275.844 -2103)"/>
  <path id="Ellipse_42_copy_4" data-name="Ellipse 42 copy 4" class="cls-2" d="M412,2111a4,4,0,1,1,4-4A4.006,4.006,0,0,1,412,2111Zm0-6a2,2,0,1,0,2,2A2,2,0,0,0,412,2105Z" transform="translate(-275.844 -2103)"/>
  <path id="Shape_981_copy_2" data-name="Shape 981 copy 2" class="cls-2" d="M287.261,2170.55l-11.406.2,5.876-9.78Zm-7.9-1.82,4.47-.08-2.167-3.75Z" transform="translate(-275.844 -2103)"/>
</svg>
