<svg xmlns="http://www.w3.org/2000/svg" width="170" height="110" viewBox="0 0 170 110">
  <metadata><?xpacket begin="﻿" id="W5M0MpCehiHzreSzNTczkc9d"?>
<x:xmpmeta xmlns:x="adobe:ns:meta/" x:xmptk="Adobe XMP Core 5.6-c138 79.159824, 2016/09/14-01:09:01        ">
   <rdf:RDF xmlns:rdf="http://www.w3.org/1999/02/22-rdf-syntax-ns#">
      <rdf:Description rdf:about=""/>
   </rdf:RDF>
</x:xmpmeta>
                                                                                                    
                                                                                                    
                                                                                                    
                                                                                                    
                                                                                                    
                                                                                                    
                                                                                                    
                                                                                                    
                                                                                                    
                                                                                                    
                                                                                                    
                                                                                                    
                                                                                                    
                                                                                                    
                                                                                                    
                                                                                                    
                                                                                                    
                                                                                                    
                                                                                                    
                                                                                                    
                           
<?xpacket end="w"?></metadata>
<defs>
    <style>
      .cls-1 {
        fill: #f0f7f5;
        fill-rule: evenodd;
      }
    </style>
  </defs>
  <path id="_1_bg" data-name="1_bg" class="cls-1" d="M295,2114h11a5,5,0,0,1,0,10H282a5,5,0,0,0,0,10H391a5,5,0,0,1,0,10H295a5,5,0,0,0,0,10h30a5,5,0,0,1,0,10H289a5,5,0,0,0,0,10h87a5,5,0,0,1,0,10H284a5,5,0,0,0-.022,10H394a5,5,0,0,1,0,10H354a5,5,0,0,0,0,10h80a5,5,0,0,0,0-10H414a5,5,0,0,1,0-10h8.022a5,5,0,0,0-.022-10H396a5,5,0,0,1,0-10h46a5,5,0,0,0,0-10H345a5,5,0,0,1,0-10h75a5,5,0,0,0,0-10h-9a5,5,0,0,1,0-10h26a5,5,0,0,0,0-10H326a5,5,0,0,1,0-10H427a5,5,0,0,0,0-10H295A5,5,0,0,0,295,2114Zm-3,90h42a5,5,0,0,1,0,10H292A5,5,0,0,1,292,2204Z" transform="translate(-277 -2104)"/>
</svg>
