<svg id="_2" data-name="2" xmlns="http://www.w3.org/2000/svg" width="99" height="87" viewBox="0 0 99 87">
  <metadata><?xpacket begin="﻿" id="W5M0MpCehiHzreSzNTczkc9d"?>
<x:xmpmeta xmlns:x="adobe:ns:meta/" x:xmptk="Adobe XMP Core 5.6-c138 79.159824, 2016/09/14-01:09:01        ">
   <rdf:RDF xmlns:rdf="http://www.w3.org/1999/02/22-rdf-syntax-ns#">
      <rdf:Description rdf:about=""/>
   </rdf:RDF>
</x:xmpmeta>
                                                                                                    
                                                                                                    
                                                                                                    
                                                                                                    
                                                                                                    
                                                                                                    
                                                                                                    
                                                                                                    
                                                                                                    
                                                                                                    
                                                                                                    
                                                                                                    
                                                                                                    
                                                                                                    
                                                                                                    
                                                                                                    
                                                                                                    
                                                                                                    
                                                                                                    
                                                                                                    
                           
<?xpacket end="w"?></metadata>
<defs>
    <style>
      .cls-1, .cls-2 {
        fill: #226d4f;
      }

      .cls-1, .cls-3, .cls-5 {
        fill-rule: evenodd;
      }

      .cls-3, .cls-6 {
        fill: #16d488;
      }

      .cls-4, .cls-5 {
        fill: #c1ecdb;
      }
    </style>
  </defs>
  <path class="cls-1" d="M775.5,2152h-2v-2h2v2Zm0-6.15h-2v-4.15h2v4.15Zm0.017-8.21-1.993-.17a6.025,6.025,0,0,1,2.338-4.24l1.213,1.59A4,4,0,0,0,775.517,2137.64Zm17.32-3.64h-4.149v-2h4.149v2Zm-8.3,0H780.39v-2h4.149v2ZM799,2134h-2v-2h2v2Zm18.5,48h-2.891v-2H817.5a3.645,3.645,0,0,0,.661-0.05l0.326,1.97A5.426,5.426,0,0,1,817.5,2182Zm-6.609,0h-3.719v-2h3.719v2Zm-7.439,0h-3.719v-2h3.719v2Zm18.781-2.31-1.576-1.23a3.977,3.977,0,0,0,.843-2.46v-0.41h2V2176A5.936,5.936,0,0,1,822.233,2179.69Zm1.267-7.82h-2v-3.71h2v3.71Zm0-7.43h-2v-3.72h2v3.72ZM796,2182h-2v-2h2v2Zm27.5-25.56h-2v-3.72h2v3.72Z" transform="translate(-748 -2110)"/>
  <rect id="Shape_22_copy" data-name="Shape 22 copy" class="cls-2" x="2" y="50" width="44" height="37" rx="4" ry="4"/>
  <path id="Rounded_Rectangle_2_copy" data-name="Rounded Rectangle 2 copy" class="cls-3" d="M754,2161.99h36a2.005,2.005,0,0,1,2,2.01v29a2,2,0,0,1-2,2H754a2,2,0,0,1-2-2v-29A2,2,0,0,1,754,2161.99Z" transform="translate(-748 -2110)"/>
  <rect id="Rectangle_52_copy" data-name="Rectangle 52 copy" class="cls-4" x="8" y="56" width="32" height="25" rx="2" ry="2"/>
  <rect id="Shape_22_copy-2" data-name="Shape 22 copy" class="cls-2" y="50" width="48" height="20" rx="4" ry="4"/>
  <path id="Rounded_Rectangle_2_copy-2" data-name="Rounded Rectangle 2 copy" class="cls-3" d="M752,2161.99h40a2.005,2.005,0,0,1,2,2.01v12a2,2,0,0,1-2,2H752a2,2,0,0,1-2-2v-12A2,2,0,0,1,752,2161.99Z" transform="translate(-748 -2110)"/>
  <path id="Rectangle_52_copy-2" data-name="Rectangle 52 copy" class="cls-5" d="M756,2166h32a2,2,0,0,1,2,1.99V2172a2,2,0,0,1-2,1.99H756a1.994,1.994,0,0,1-2-1.99v-4.01A1.994,1.994,0,0,1,756,2166Z" transform="translate(-748 -2110)"/>
  <path id="Rectangle_64_copy" data-name="Rectangle 64 copy" class="cls-1" d="M778,2174v6a2,2,0,0,1-2,2h-8a2,2,0,0,1-2-2v-6a2,2,0,0,1,2-2h8A2,2,0,0,1,778,2174Z" transform="translate(-748 -2110)"/>
  <rect id="Rectangle_65_copy" data-name="Rectangle 65 copy" class="cls-6" x="20" y="64" width="8" height="6"/>
  <path id="Shape_23_copy" data-name="Shape 23 copy" class="cls-1" d="M776,2161v-3h-7v3h-6v-5a4,4,0,0,1,4-4h11a4,4,0,0,1,4,4v5h-6Z" transform="translate(-748 -2110)"/>
  <rect id="Rectangle_66_copy" data-name="Rectangle 66 copy" class="cls-2" x="22" y="66" width="4" height="2" rx="1" ry="1"/>
  <path id="Rounded_Rectangle_3_copy" data-name="Rounded Rectangle 3 copy" class="cls-3" d="M778,2161v-5H767v5h-2v-5a2,2,0,0,1,2-2h11a2,2,0,0,1,2,2v5h-2Z" transform="translate(-748 -2110)"/>
  <rect id="Shape_22_copy_3" data-name="Shape 22 copy 3" class="cls-2" x="53" y="8" width="44" height="37" rx="4" ry="4"/>
  <path id="Rounded_Rectangle_2_copy_3" data-name="Rounded Rectangle 2 copy 3" class="cls-3" d="M805,2119.99h36a2,2,0,0,1,2,2V2151a2,2,0,0,1-2,2H805a2,2,0,0,1-2-2v-29.01A2,2,0,0,1,805,2119.99Z" transform="translate(-748 -2110)"/>
  <rect id="Rectangle_52_copy_3" data-name="Rectangle 52 copy 3" class="cls-4" x="59" y="14" width="32" height="25" rx="2" ry="2"/>
  <rect id="Shape_22_copy_3-2" data-name="Shape 22 copy 3" class="cls-2" x="51" y="8" width="48" height="20" rx="4" ry="4"/>
  <path id="Rounded_Rectangle_2_copy_3-2" data-name="Rounded Rectangle 2 copy 3" class="cls-3" d="M803,2119.99h40a2,2,0,0,1,2,2V2134a2,2,0,0,1-2,2H803a2,2,0,0,1-2-2v-12.01A2,2,0,0,1,803,2119.99Z" transform="translate(-748 -2110)"/>
  <rect id="Rectangle_52_copy_3-2" data-name="Rectangle 52 copy 3" class="cls-4" x="57" y="14" width="36" height="8" rx="2" ry="2"/>
  <path id="Rectangle_64_copy_3" data-name="Rectangle 64 copy 3" class="cls-1" d="M829,2132v6a2,2,0,0,1-2,2h-8a2,2,0,0,1-2-2v-6a2,2,0,0,1,2-2h8A2,2,0,0,1,829,2132Z" transform="translate(-748 -2110)"/>
  <rect id="Rectangle_65_copy_3" data-name="Rectangle 65 copy 3" class="cls-6" x="71" y="22" width="8" height="6"/>
  <path id="Shape_23_copy_3" data-name="Shape 23 copy 3" class="cls-1" d="M827,2119v-3h-7v3h-6v-5a4,4,0,0,1,4-4h11a4,4,0,0,1,4,4v5h-6Z" transform="translate(-748 -2110)"/>
  <rect id="Rectangle_66_copy_3" data-name="Rectangle 66 copy 3" class="cls-2" x="73" y="24" width="4" height="2" rx="1" ry="1"/>
  <path id="Rounded_Rectangle_3_copy_3" data-name="Rounded Rectangle 3 copy 3" class="cls-3" d="M829,2119v-5H818v5h-2v-5a2,2,0,0,1,2-2h11a2,2,0,0,1,2,2v5h-2Z" transform="translate(-748 -2110)"/>
</svg>
