<svg xmlns="http://www.w3.org/2000/svg" width="170" height="110" viewBox="0 0 170 110">
  <metadata><?xpacket begin="﻿" id="W5M0MpCehiHzreSzNTczkc9d"?>
<x:xmpmeta xmlns:x="adobe:ns:meta/" x:xmptk="Adobe XMP Core 5.6-c138 79.159824, 2016/09/14-01:09:01        ">
   <rdf:RDF xmlns:rdf="http://www.w3.org/1999/02/22-rdf-syntax-ns#">
      <rdf:Description rdf:about=""/>
   </rdf:RDF>
</x:xmpmeta>
                                                                                                    
                                                                                                    
                                                                                                    
                                                                                                    
                                                                                                    
                                                                                                    
                                                                                                    
                                                                                                    
                                                                                                    
                                                                                                    
                                                                                                    
                                                                                                    
                                                                                                    
                                                                                                    
                                                                                                    
                                                                                                    
                                                                                                    
                                                                                                    
                                                                                                    
                                                                                                    
                           
<?xpacket end="w"?></metadata>
<defs>
    <style>
      .cls-1 {
        fill: #f0f7f5;
        fill-rule: evenodd;
      }
    </style>
  </defs>
  <path id="_2_bg" data-name="2_bg" class="cls-1" d="M731,2114h11a5,5,0,0,1,0,10H718a5,5,0,0,0,0,10H827a5,5,0,0,1,0,10H731a5,5,0,0,0,0,10h30a5,5,0,0,1,0,10H725a5,5,0,0,0,0,10h87a5,5,0,0,1,0,10H720a5,5,0,0,0-.022,10H830a5,5,0,0,1,0,10H790a5,5,0,0,0,0,10h80a5,5,0,0,0,0-10H850a5,5,0,0,1,0-10h8.022a5,5,0,0,0-.022-10H832a5,5,0,0,1,0-10h46a5,5,0,0,0,0-10H781a5,5,0,0,1,0-10h75a5,5,0,0,0,0-10h-9a5,5,0,0,1,0-10h26a5,5,0,0,0,0-10H762a5,5,0,0,1,0-10H863a5,5,0,0,0,0-10H731A5,5,0,0,0,731,2114Zm-3,90h42a5,5,0,0,1,0,10H728A5,5,0,0,1,728,2204Z" transform="translate(-713 -2104)"/>
</svg>
