<svg id="_3" data-name="3" xmlns="http://www.w3.org/2000/svg" width="76" height="62" viewBox="0 0 76 62">
  <metadata><?xpacket begin="﻿" id="W5M0MpCehiHzreSzNTczkc9d"?>
<x:xmpmeta xmlns:x="adobe:ns:meta/" x:xmptk="Adobe XMP Core 5.6-c138 79.159824, 2016/09/14-01:09:01        ">
   <rdf:RDF xmlns:rdf="http://www.w3.org/1999/02/22-rdf-syntax-ns#">
      <rdf:Description rdf:about=""/>
   </rdf:RDF>
</x:xmpmeta>
                                                                                                    
                                                                                                    
                                                                                                    
                                                                                                    
                                                                                                    
                                                                                                    
                                                                                                    
                                                                                                    
                                                                                                    
                                                                                                    
                                                                                                    
                                                                                                    
                                                                                                    
                                                                                                    
                                                                                                    
                                                                                                    
                                                                                                    
                                                                                                    
                                                                                                    
                                                                                                    
                           
<?xpacket end="w"?></metadata>
<defs>
    <style>
      .cls-1, .cls-4 {
        fill: #226d4f;
      }

      .cls-2 {
        fill: #16d488;
      }

      .cls-2, .cls-3, .cls-4 {
        fill-rule: evenodd;
      }

      .cls-3 {
        fill: #c1ecdb;
      }
    </style>
  </defs>
  <rect id="Shape_22_copy_6" data-name="Shape 22 copy 6" class="cls-1" width="76" height="62" rx="4" ry="4"/>
  <path id="Rounded_Rectangle_2_copy_6" data-name="Rounded Rectangle 2 copy 6" class="cls-2" d="M1198,2130h72v58h-72v-58h0Z" transform="translate(-1196 -2128)"/>
  <path id="Rectangle_52_copy_6" data-name="Rectangle 52 copy 6" class="cls-3" d="M1202,2140h64v44h-64v-44h0Z" transform="translate(-1196 -2128)"/>
  <path class="cls-4" d="M1210,2146h14a2,2,0,0,1,2,2v14a2.006,2.006,0,0,1-2,2h-14a2.006,2.006,0,0,1-2-2v-14A2,2,0,0,1,1210,2146Zm0,2h14v14h-14v-14Z" transform="translate(-1196 -2128)"/>
  <path id="Rectangle_577_copy" data-name="Rectangle 577 copy" class="cls-4" d="M1234,2146h24a2,2,0,0,1,2,2v4a2.006,2.006,0,0,1-2,2h-24a2.006,2.006,0,0,1-2-2v-4A2,2,0,0,1,1234,2146Zm0,2h24v4h-24v-4Z" transform="translate(-1196 -2128)"/>
  <path id="Rectangle_577_copy_2" data-name="Rectangle 577 copy 2" class="cls-4" d="M1234,2157h24a2,2,0,0,1,2,2v4a2.006,2.006,0,0,1-2,2h-24a2.006,2.006,0,0,1-2-2v-4A2,2,0,0,1,1234,2157Zm0,2h24v4h-24v-4Z" transform="translate(-1196 -2128)"/>
  <path id="Rectangle_577_copy_3" data-name="Rectangle 577 copy 3" class="cls-4" d="M1234,2168h24a2,2,0,0,1,2,2v4a2.006,2.006,0,0,1-2,2h-24a2.006,2.006,0,0,1-2-2v-4A2,2,0,0,1,1234,2168Zm0,2h24v4h-24v-4Z" transform="translate(-1196 -2128)"/>
  <path class="cls-4" d="M1217,2150a3,3,0,1,1-3,3A3,3,0,0,1,1217,2150Zm0,2a1,1,0,1,1-1,1A1,1,0,0,1,1217,2152Zm0,5a3,3,0,0,0-3,3h-2a5,5,0,0,1,10,0h-2A3,3,0,0,0,1217,2157Z" transform="translate(-1196 -2128)"/>
  <path class="cls-4" d="M1197,2136v-2h54v-4h2v4h18v2h-74Z" transform="translate(-1196 -2128)"/>
</svg>
