<svg xmlns="http://www.w3.org/2000/svg" width="170" height="110" viewBox="0 0 170 110">
  <metadata><?xpacket begin="﻿" id="W5M0MpCehiHzreSzNTczkc9d"?>
<x:xmpmeta xmlns:x="adobe:ns:meta/" x:xmptk="Adobe XMP Core 5.6-c138 79.159824, 2016/09/14-01:09:01        ">
   <rdf:RDF xmlns:rdf="http://www.w3.org/1999/02/22-rdf-syntax-ns#">
      <rdf:Description rdf:about=""/>
   </rdf:RDF>
</x:xmpmeta>
                                                                                                    
                                                                                                    
                                                                                                    
                                                                                                    
                                                                                                    
                                                                                                    
                                                                                                    
                                                                                                    
                                                                                                    
                                                                                                    
                                                                                                    
                                                                                                    
                                                                                                    
                                                                                                    
                                                                                                    
                                                                                                    
                                                                                                    
                                                                                                    
                                                                                                    
                                                                                                    
                           
<?xpacket end="w"?></metadata>
<defs>
    <style>
      .cls-1 {
        fill: #f0f7f5;
        fill-rule: evenodd;
      }
    </style>
  </defs>
  <path id="_3_bg" data-name="3_bg" class="cls-1" d="M1167,2114h11a5,5,0,0,1,0,10h-24a5,5,0,0,0,0,10h109a5,5,0,0,1,0,10h-96a5,5,0,0,0,0,10h30a5,5,0,0,1,0,10h-36a5,5,0,0,0,0,10h87a5,5,0,0,1,0,10h-92a5,5,0,0,0-.02,10H1266a5,5,0,0,1,0,10h-40a5,5,0,0,0,0,10h80a5,5,0,0,0,0-10h-20a5,5,0,0,1,0-10h8.02a5,5,0,0,0-.02-10h-26a5,5,0,0,1,0-10h46a5,5,0,0,0,0-10h-97a5,5,0,0,1,0-10h75a5,5,0,0,0,0-10h-9a5,5,0,0,1,0-10h26a5,5,0,0,0,0-10H1198a5,5,0,0,1,0-10h101a5,5,0,0,0,0-10H1167A5,5,0,0,0,1167,2114Zm-3,90h42a5,5,0,0,1,0,10h-42A5,5,0,0,1,1164,2204Z" transform="translate(-1149 -2104)"/>
</svg>
