<svg id="_1" data-name="1" xmlns="http://www.w3.org/2000/svg" width="78" height="66" viewBox="0 0 78 66">
  <metadata><?xpacket begin="﻿" id="W5M0MpCehiHzreSzNTczkc9d"?>
<x:xmpmeta xmlns:x="adobe:ns:meta/" x:xmptk="Adobe XMP Core 5.6-c138 79.159824, 2016/09/14-01:09:01        ">
   <rdf:RDF xmlns:rdf="http://www.w3.org/1999/02/22-rdf-syntax-ns#">
      <rdf:Description rdf:about=""/>
   </rdf:RDF>
</x:xmpmeta>
                                                                                                    
                                                                                                    
                                                                                                    
                                                                                                    
                                                                                                    
                                                                                                    
                                                                                                    
                                                                                                    
                                                                                                    
                                                                                                    
                                                                                                    
                                                                                                    
                                                                                                    
                                                                                                    
                                                                                                    
                                                                                                    
                                                                                                    
                                                                                                    
                                                                                                    
                                                                                                    
                           
<?xpacket end="w"?></metadata>
<defs>
    <style>
      .cls-1, .cls-4 {
        fill: #226d4f;
      }

      .cls-1, .cls-2, .cls-3 {
        fill-rule: evenodd;
      }

      .cls-2 {
        fill: #16d488;
      }

      .cls-3 {
        fill: #c1ecdb;
      }
    </style>
  </defs>
  <path id="Rectangle_44_copy" data-name="Rectangle 44 copy" class="cls-1" d="M541,5260.99H512v6h11a2,2,0,0,1,2,2v2a2,2,0,0,1-2,2H493a2,2,0,0,1-2-2v-2a2,2,0,0,1,2-2h11v-6H475a6,6,0,0,1-6-6v-42a6,6,0,0,1,6-6h66a6,6,0,0,1,6,6v42A6,6,0,0,1,541,5260.99Z" transform="translate(-469 -5207)"/>
  <path id="Rectangle_20_copy" data-name="Rectangle 20 copy" class="cls-2" d="M475,5208.99h66a4,4,0,0,1,4,4v42a4,4,0,0,1-4,4H475a4,4,0,0,1-4-4v-42A4,4,0,0,1,475,5208.99Z" transform="translate(-469 -5207)"/>
  <path id="Rectangle_20_copy-2" data-name="Rectangle 20 copy" class="cls-2" d="M522,5270.99H494a1,1,0,0,1,0-2h12v-10h4v10h12A1,1,0,0,1,522,5270.99Z" transform="translate(-469 -5207)"/>
  <path id="Rectangle_46_copy" data-name="Rectangle 46 copy" class="cls-1" d="M504,5259h9v2h-9v-2Zm1,8h8v2h-8v-2Z" transform="translate(-469 -5207)"/>
  <path id="Rectangle_42_copy" data-name="Rectangle 42 copy" class="cls-3" d="M477,5212.99h62a2,2,0,0,1,2,2v35a2,2,0,0,1-2,2H477a2,2,0,0,1-2-2v-35A2,2,0,0,1,477,5212.99Z" transform="translate(-469 -5207)"/>
  <path class="cls-1" d="M508.5,5218a14.5,14.5,0,1,0,14.5,14.5h0A14.5,14.5,0,0,0,508.5,5218Zm-4.759,3.65a11.328,11.328,0,0,1,4.759-.99,10.844,10.844,0,0,1,1.962.17l-6.721,6.69h0v-5.87h0Zm-4.214,18.59a11.832,11.832,0,0,1,0-15.47v15.47Zm8.973,4.11a11.981,11.981,0,0,1-4.759-.99v-11.29h0l3.735,3.73v6.93h3.907v-3.02l3.053,3.06a12.11,12.11,0,0,1-5.936,1.58h0Zm2.883-9.96v-3.55h1.552a1.777,1.777,0,0,1,1.774,1.78,1.758,1.758,0,0,1-1.774,1.77h-1.552Zm5.595,6.38-3.156-3.17c2.286-.09,4.111-2.25,4.111-4.92,0-2.71-1.893-4.89-4.247-4.89h-5.34l-0.853.85v2.63l-1.467-1.47,7.847-7.84a11.837,11.837,0,0,1,5.186,15.93,12.638,12.638,0,0,1-2.081,2.88h0Z" transform="translate(-469 -5207)"/>
  <path id="Shape_1080_copy_2" data-name="Shape 1080 copy 2" class="cls-2" d="M503.741,5221.65a11.328,11.328,0,0,1,4.759-.99,10.844,10.844,0,0,1,1.962.17l-6.721,6.69h0v-5.87h0Zm-4.214,18.59a11.832,11.832,0,0,1,0-15.47v15.47Zm8.973,4.11a11.981,11.981,0,0,1-4.759-.99v-11.29h0l3.735,3.73v6.93h3.907v-3.02l3.053,3.06a12.11,12.11,0,0,1-5.936,1.58h0Zm2.883-9.96v-3.55h1.552a1.777,1.777,0,0,1,1.774,1.78,1.758,1.758,0,0,1-1.774,1.77h-1.552Zm5.595,6.38-3.156-3.17c2.286-.09,4.111-2.25,4.111-4.92,0-2.71-1.893-4.89-4.247-4.89h-5.34l-0.853.85v2.63l-1.467-1.47,7.847-7.84a11.837,11.837,0,0,1,5.186,15.93,12.638,12.638,0,0,1-2.081,2.88h0Z" transform="translate(-469 -5207)"/>
  <circle id="Ellipse_3_copy" data-name="Ellipse 3 copy" class="cls-4" cx="69.5" cy="48.5" r="1.5"/>
</svg>
