<svg id="_2" data-name="2" xmlns="http://www.w3.org/2000/svg" width="48" height="73" viewBox="0 0 48 73">
  <metadata><?xpacket begin="﻿" id="W5M0MpCehiHzreSzNTczkc9d"?>
<x:xmpmeta xmlns:x="adobe:ns:meta/" x:xmptk="Adobe XMP Core 5.6-c138 79.159824, 2016/09/14-01:09:01        ">
   <rdf:RDF xmlns:rdf="http://www.w3.org/1999/02/22-rdf-syntax-ns#">
      <rdf:Description rdf:about=""/>
   </rdf:RDF>
</x:xmpmeta>
                                                                                                    
                                                                                                    
                                                                                                    
                                                                                                    
                                                                                                    
                                                                                                    
                                                                                                    
                                                                                                    
                                                                                                    
                                                                                                    
                                                                                                    
                                                                                                    
                                                                                                    
                                                                                                    
                                                                                                    
                                                                                                    
                                                                                                    
                                                                                                    
                                                                                                    
                                                                                                    
                           
<?xpacket end="w"?></metadata>
<defs>
    <style>
      .cls-1, .cls-4 {
        fill: #226d4f;
      }

      .cls-1, .cls-2 {
        fill-rule: evenodd;
      }

      .cls-2 {
        fill: #16d488;
      }

      .cls-3 {
        fill: #c1ecdb;
      }
    </style>
  </defs>
  <path class="cls-1" d="M781,5201h36a5.994,5.994,0,0,1,6,5.99V5268a5.994,5.994,0,0,1-6,5.99H781a5.994,5.994,0,0,1-6-5.99v-61.01A5.994,5.994,0,0,1,781,5201Z" transform="translate(-775 -5201)"/>
  <path class="cls-2" d="M781,5202.99h36a4,4,0,0,1,4,4V5268a4.006,4.006,0,0,1-4,4H781a4.006,4.006,0,0,1-4-4v-61.01A4,4,0,0,1,781,5202.99Z" transform="translate(-775 -5201)"/>
  <rect class="cls-3" x="6" y="6" width="36" height="57" rx="2" ry="2"/>
  <circle class="cls-4" cx="24" cy="67" r="2"/>
</svg>
