<svg id="_3" data-name="3" xmlns="http://www.w3.org/2000/svg" width="76" height="62" viewBox="0 0 76 62">
  <metadata><?xpacket begin="﻿" id="W5M0MpCehiHzreSzNTczkc9d"?>
<x:xmpmeta xmlns:x="adobe:ns:meta/" x:xmptk="Adobe XMP Core 5.6-c138 79.159824, 2016/09/14-01:09:01        ">
   <rdf:RDF xmlns:rdf="http://www.w3.org/1999/02/22-rdf-syntax-ns#">
      <rdf:Description rdf:about=""/>
   </rdf:RDF>
</x:xmpmeta>
                                                                                                    
                                                                                                    
                                                                                                    
                                                                                                    
                                                                                                    
                                                                                                    
                                                                                                    
                                                                                                    
                                                                                                    
                                                                                                    
                                                                                                    
                                                                                                    
                                                                                                    
                                                                                                    
                                                                                                    
                                                                                                    
                                                                                                    
                                                                                                    
                                                                                                    
                                                                                                    
                           
<?xpacket end="w"?></metadata>
<defs>
    <style>
      .cls-1 {
        fill: #226d4f;
      }

      .cls-1, .cls-2, .cls-3 {
        fill-rule: evenodd;
      }

      .cls-2, .cls-4 {
        fill: #16d488;
      }

      .cls-3 {
        fill: #c1ecdb;
      }
    </style>
  </defs>
  <path id="Shape_22_copy_6" data-name="Shape 22 copy 6" class="cls-1" d="M1055,5206.99h68a4.007,4.007,0,0,1,4,4.01v53.99a4.007,4.007,0,0,1-4,4.01h-68a4.007,4.007,0,0,1-4-4.01V5211A4.007,4.007,0,0,1,1055,5206.99Z" transform="translate(-1051 -5207)"/>
  <path id="Rounded_Rectangle_2_copy_6" data-name="Rounded Rectangle 2 copy 6" class="cls-2" d="M1053,5208.99h72v58h-72v-58h0Z" transform="translate(-1051 -5207)"/>
  <path id="Rectangle_52_copy_6" data-name="Rectangle 52 copy 6" class="cls-3" d="M1057,5218.99h64v44h-64v-44h0Z" transform="translate(-1051 -5207)"/>
  <path class="cls-1" d="M1065,5225h14a2,2,0,0,1,2,1.99v14a2,2,0,0,1-2,2h-14a2,2,0,0,1-2-2v-14A2,2,0,0,1,1065,5225Z" transform="translate(-1051 -5207)"/>
  <rect id="Rectangle_577_copy_4" data-name="Rectangle 577 copy 4" class="cls-4" x="14" y="20" width="14" height="14"/>
  <path id="Rectangle_577_copy" data-name="Rectangle 577 copy" class="cls-1" d="M1089,5225h24a2,2,0,0,1,2,1.99V5231a2,2,0,0,1-2,1.99h-24a2,2,0,0,1-2-1.99v-4.01A2,2,0,0,1,1089,5225Zm0,2h24v4h-24v-4Z" transform="translate(-1051 -5207)"/>
  <path id="Rectangle_577_copy_2" data-name="Rectangle 577 copy 2" class="cls-1" d="M1089,5236h24a2,2,0,0,1,2,1.99v4a2.008,2.008,0,0,1-2,2.01h-24a2.008,2.008,0,0,1-2-2.01v-4A2,2,0,0,1,1089,5236Zm0,2h24v4h-24v-4Z" transform="translate(-1051 -5207)"/>
  <path id="Rectangle_577_copy_3" data-name="Rectangle 577 copy 3" class="cls-1" d="M1089,5246.99h24a2.006,2.006,0,0,1,2,2v4a2.008,2.008,0,0,1-2,2.01h-24a2.008,2.008,0,0,1-2-2.01v-4A2.006,2.006,0,0,1,1089,5246.99Zm0,2.01h24v4h-24v-4Z" transform="translate(-1051 -5207)"/>
  <path class="cls-1" d="M1072,5229a3,3,0,1,1-3,3A3,3,0,0,1,1072,5229Zm0,2a1,1,0,1,1-1,1A1,1,0,0,1,1072,5231Zm0,5a3,3,0,0,0-3,3h-2a5,5,0,0,1,10,0h-2A3,3,0,0,0,1072,5236Z" transform="translate(-1051 -5207)"/>
  <path class="cls-1" d="M1052,5214.99v-2h54V5209h2v3.99h18v2h-74Z" transform="translate(-1051 -5207)"/>
</svg>
