<?xml version="1.0" encoding="utf-8"?>
<!-- Generator: Adobe Illustrator 21.1.0, SVG Export Plug-In . SVG Version: 6.00 Build 0)  -->
<svg version="1.1" id="_4" xmlns="http://www.w3.org/2000/svg" xmlns:xlink="http://www.w3.org/1999/xlink" x="0px" y="0px"
	 viewBox="0 0 36 36" style="enable-background:new 0 0 36 36;" xml:space="preserve">
<style type="text/css">
	.st0{fill:#226D4F;}
	.st1{fill:#16D488;}
</style>
<path class="st0" d="M29.5,10l1.9-2c0.2-0.2,0.2-0.5,0-0.7l-3-3c-0.2-0.2-0.5-0.2-0.7,0c0,0,0,0,0,0l-1.9,2
	c-0.2,0.2-0.4,0.2-0.6,0.1c-1.3-0.8-2.7-1.4-4.2-1.7c-0.2-0.1-0.4-0.3-0.4-0.5l0-2.7C20.5,1.2,20.3,1,20,1l-4.3,0
	c-0.3,0-0.5,0.2-0.5,0.5c0,0,0,0,0,0l0,2.7c0,0.2-0.2,0.4-0.4,0.5c-1.5,0.3-2.9,0.9-4.1,1.8c-0.2,0.1-0.5,0.1-0.6-0.1L8.1,4.6
	c-0.2-0.2-0.5-0.2-0.7,0c0,0,0,0,0,0l-3,3c-0.2,0.2-0.2,0.5,0,0.7l2,1.9c0.2,0.2,0.2,0.4,0.1,0.6c-0.8,1.3-1.4,2.7-1.7,4.2
	c-0.1,0.2-0.3,0.4-0.5,0.4l-2.7,0C1.2,15.5,1,15.7,1,16l0,4.2c0,0.3,0.2,0.5,0.5,0.5l2.7,0c0.2,0,0.5,0.2,0.5,0.4
	c0.3,1.5,0.9,2.9,1.8,4.1c0.1,0.2,0.1,0.5-0.1,0.6l-1.9,1.9c-0.2,0.2-0.2,0.5,0,0.7c0,0,0,0,0,0l3,3c0.2,0.2,0.5,0.2,0.7,0
	c0,0,0,0,0,0l1.9-2c0.2-0.2,0.4-0.2,0.6-0.1c1.3,0.8,2.7,1.4,4.2,1.7c0.2,0,0.4,0.3,0.4,0.5l0,2.7c0,0.3,0.2,0.5,0.5,0.5l4.2,0
	c0.3,0,0.5-0.2,0.5-0.5l0-2.7c0-0.2,0.2-0.4,0.4-0.5c1.5-0.3,2.9-0.9,4.1-1.8c0.2-0.1,0.5-0.1,0.6,0.1l2,1.9c0.2,0.2,0.5,0.2,0.7,0
	l3-3c0.2-0.2,0.2-0.5,0-0.7c0,0,0,0,0,0l-2-1.9c-0.2-0.2-0.2-0.4-0.1-0.6c0.8-1.3,1.4-2.7,1.7-4.2c0.1-0.2,0.3-0.4,0.5-0.4l2.7,0
	c0.3,0,0.5-0.2,0.5-0.5l0-4.3c0-0.3-0.2-0.5-0.5-0.5l-2.7,0c-0.2,0-0.4-0.2-0.5-0.4c-0.3-1.5-0.9-2.9-1.8-4.1
	C29.3,10.5,29.3,10.2,29.5,10z M18,24.2c-3.4,0-6.2-2.7-6.2-6.1c0-3.4,2.7-6.2,6.1-6.2c3.4,0,6.2,2.7,6.2,6.1
	C24.2,21.3,21.5,24.1,18,24.2L18,24.2z M20.7,35.9c-0.1,0-0.3,0.1-0.4,0.1L16,36c-0.8,0-1.5-0.6-1.5-1.5c0,0,0,0,0,0l0-2.4
	c-1.3-0.3-2.6-0.9-3.8-1.5L9,32.3c-0.6,0.6-1.5,0.6-2.1,0l-3-3c-0.6-0.6-0.6-1.5,0-2.1c0,0,0,0,0,0l1.6-1.6
	c-0.7-1.2-1.3-2.4-1.6-3.8l-2.3,0c-0.4,0-0.8-0.2-1.1-0.4C0.2,21,0,20.7,0,20.3L0,16c0-0.4,0.2-0.8,0.4-1.1c0.3-0.3,0.7-0.4,1.1-0.5
	l2.4,0c0.3-1.3,0.9-2.6,1.6-3.8L3.7,9c-0.6-0.6-0.6-1.5,0-2.1l3-3C7,3.6,7.3,3.4,7.8,3.4c0.4,0,0.8,0.2,1.1,0.4l1.6,1.6
	c1.2-0.7,2.4-1.3,3.8-1.6l0-2.3c0-0.4,0.2-0.8,0.4-1.1C14.9,0.2,15.3,0,15.7,0L20,0c0.8,0,1.5,0.7,1.5,1.5c0,0,0,0,0,0l0,2.4
	c1.3,0.4,2.6,0.9,3.8,1.5L27,3.7c0.3-0.3,0.7-0.5,1.1-0.5c0.4,0,0.8,0.1,1.1,0.4l3,3c0.3,0.3,0.5,0.7,0.5,1.1c0,0.4-0.2,0.8-0.4,1.1
	l-1.7,1.7c0.7,1.2,1.3,2.4,1.6,3.8l2.3,0c0.8,0,1.5,0.7,1.5,1.5l0,4.3c0,0.8-0.7,1.5-1.5,1.5l-2.4,0c-0.3,1.3-0.9,2.6-1.5,3.8
	l1.7,1.6c0.3,0.3,0.5,0.7,0.5,1.1c0,0.4-0.2,0.8-0.4,1.1l-3,3c-0.6,0.6-1.5,0.6-2.1,0l-1.7-1.7c-1.2,0.7-2.4,1.3-3.8,1.6l0,2.3
	c0,0.4-0.2,0.8-0.4,1.1C21.2,35.7,20.9,35.8,20.7,35.9L20.7,35.9z M16.5,34l3.3,0l0-2.2c0-0.7,0.5-1.3,1.2-1.5
	c1.4-0.3,2.7-0.9,3.8-1.6c0.6-0.4,1.4-0.3,1.9,0.2l1.6,1.6l2.3-2.3l-1.6-1.6c-0.5-0.5-0.6-1.3-0.2-1.9c0.7-1.2,1.3-2.5,1.6-3.9
	c0.2-0.7,0.8-1.2,1.5-1.2l2.3,0l0-3.3l-2.2,0c-0.7,0-1.3-0.5-1.5-1.2c-0.3-1.4-0.9-2.7-1.6-3.8c-0.4-0.6-0.3-1.4,0.2-1.9l0,0
	l1.6-1.6L28,5.5l-1.6,1.6c-0.5,0.5-1.3,0.6-1.9,0.2c-1.2-0.7-2.5-1.3-3.9-1.6c-0.7-0.2-1.2-0.8-1.2-1.5l0-2.3l-3.3,0l0,2.3
	c0,0.7-0.5,1.3-1.2,1.5c-1.4,0.3-2.7,0.9-3.8,1.6c-0.6,0.4-1.4,0.3-1.9-0.2L7.8,5.6L5.5,8l1.6,1.6c0.5,0.5,0.6,1.3,0.2,1.9
	c-0.7,1.2-1.3,2.5-1.6,3.9C5.6,16,5,16.5,4.3,16.5l-2.3,0l0,3.3l2.2,0c0.7,0,1.3,0.5,1.5,1.2c0.3,1.4,0.9,2.7,1.6,3.8
	c0.4,0.6,0.3,1.4-0.2,1.9l-1.6,1.6L8,30.5l1.6-1.6c0.5-0.5,1.3-0.6,1.9-0.2c1.2,0.7,2.5,1.3,3.9,1.6c0.7,0.2,1.2,0.8,1.2,1.5
	L16.5,34z M28.6,30.7L28.6,30.7z M21.8,31.7L21.8,31.7z M4.3,21.7L4.3,21.7z M30.2,10.7L30.2,10.7z M14.3,4.3L14.3,4.3z M20.1,24.9
	c-0.6,0.2-1.3,0.3-2,0.3c-3.9,0-7.1-3.1-7.2-7.1c0-3.9,3.1-7.1,7.1-7.2c3.9,0,7.1,3.1,7.2,7.1C25.2,21.2,23.1,24,20.1,24.9
	L20.1,24.9z M16.5,13c-0.8,0.3-1.6,0.7-2.2,1.3c-2,2-2,5.3,0.1,7.3c1,1,2.3,1.5,3.7,1.5l0,0c2.9,0,5.2-2.4,5.1-5.2
	c0-2.9-2.4-5.2-5.2-5.1C17.5,12.8,17,12.9,16.5,13L16.5,13z M16.5,13c-0.8,0.3-1.6,0.7-2.2,1.3c-2,2-2,5.3,0.1,7.3
	c1,1,2.3,1.5,3.7,1.5l0,0c2.9,0,5.2-2.4,5.1-5.2c0-2.9-2.4-5.2-5.2-5.1C17.5,12.8,17,12.9,16.5,13L16.5,13z M20.7,35.9
	c-0.1,0-0.3,0.1-0.4,0.1L16,36c-0.8,0-1.5-0.6-1.5-1.5c0,0,0,0,0,0l0-2.4c-1.3-0.3-2.6-0.9-3.8-1.5L9,32.3c-0.6,0.6-1.5,0.6-2.1,0
	l-3-3c-0.6-0.6-0.6-1.5,0-2.1c0,0,0,0,0,0l1.6-1.6c-0.7-1.2-1.3-2.4-1.6-3.8l-2.3,0c-0.4,0-0.8-0.2-1.1-0.4C0.2,21,0,20.7,0,20.3
	L0,16c0-0.4,0.2-0.8,0.4-1.1c0.3-0.3,0.7-0.4,1.1-0.5l2.4,0c0.3-1.3,0.9-2.6,1.6-3.8L3.7,9c-0.6-0.6-0.6-1.5,0-2.1l3-3
	C7,3.6,7.3,3.4,7.8,3.4c0.4,0,0.8,0.2,1.1,0.4l1.6,1.6c1.2-0.7,2.4-1.3,3.8-1.6l0-2.3c0-0.4,0.2-0.8,0.4-1.1C14.9,0.2,15.3,0,15.7,0
	L20,0c0.8,0,1.5,0.7,1.5,1.5c0,0,0,0,0,0l0,2.4c1.3,0.4,2.6,0.9,3.8,1.5L27,3.7c0.3-0.3,0.7-0.5,1.1-0.5c0.4,0,0.8,0.1,1.1,0.4l3,3
	c0.3,0.3,0.5,0.7,0.5,1.1c0,0.4-0.2,0.8-0.4,1.1l-1.7,1.7c0.7,1.2,1.3,2.4,1.6,3.8l2.3,0c0.8,0,1.5,0.7,1.5,1.5l0,4.3
	c0,0.8-0.7,1.5-1.5,1.5l-2.4,0c-0.3,1.3-0.9,2.6-1.5,3.8l1.7,1.6c0.3,0.3,0.5,0.7,0.5,1.1c0,0.4-0.2,0.8-0.4,1.1l-3,3
	c-0.6,0.6-1.5,0.6-2.1,0l-1.7-1.7c-1.2,0.7-2.4,1.3-3.8,1.6l0,2.3c0,0.4-0.2,0.8-0.4,1.1C21.2,35.7,20.9,35.8,20.7,35.9L20.7,35.9z"
	/>
<path id="Shape_1081_copy" class="st1" d="M16.5,34l3.3,0l0-2.2c0-0.7,0.5-1.3,1.2-1.5c1.4-0.3,2.7-0.9,3.8-1.6
	c0.6-0.4,1.4-0.3,1.9,0.2l1.6,1.6l2.3-2.3l-1.6-1.6c-0.5-0.5-0.6-1.3-0.2-1.9c0.7-1.2,1.3-2.5,1.6-3.9c0.2-0.7,0.8-1.2,1.5-1.2
	l2.3,0l0-3.3l-2.2,0c-0.7,0-1.3-0.5-1.5-1.2c-0.3-1.4-0.9-2.7-1.6-3.8c-0.4-0.6-0.3-1.4,0.2-1.9l0,0l1.6-1.6L28,5.5l-1.6,1.6
	c-0.5,0.5-1.3,0.6-1.9,0.2c-1.2-0.7-2.5-1.3-3.9-1.6c-0.7-0.2-1.2-0.8-1.2-1.5l0-2.3l-3.3,0l0,2.3c0,0.7-0.5,1.3-1.2,1.5
	c-1.4,0.3-2.7,0.9-3.8,1.6c-0.6,0.4-1.4,0.3-1.9-0.2L7.8,5.6L5.5,8l1.6,1.6c0.5,0.5,0.6,1.3,0.2,1.9c-0.7,1.2-1.3,2.5-1.6,3.9
	C5.6,16,5,16.5,4.3,16.5l-2.3,0l0,3.3l2.2,0c0.7,0,1.3,0.5,1.5,1.2c0.3,1.4,0.9,2.7,1.6,3.8c0.4,0.6,0.3,1.4-0.2,1.9l-1.6,1.6
	L8,30.5l1.6-1.6c0.5-0.5,1.3-0.6,1.9-0.2c1.2,0.7,2.5,1.3,3.9,1.6c0.7,0.2,1.2,0.8,1.2,1.5L16.5,34z M28.6,30.7L28.6,30.7z
	 M21.8,31.7L21.8,31.7z M4.3,21.7L4.3,21.7z M30.2,10.7L30.2,10.7z M14.2,4.3L14.2,4.3z M20.1,24.9c-0.6,0.2-1.3,0.3-2,0.3
	c-3.9,0-7.1-3.1-7.2-7.1S14,11,18,10.9c3.9,0,7.1,3.1,7.2,7.1C25.1,21.2,23.1,24,20.1,24.9L20.1,24.9z"/>
</svg>
