<svg id="_5" data-name="5" xmlns="http://www.w3.org/2000/svg" width="84" height="77" viewBox="0 0 84 77">
  <metadata><?xpacket begin="﻿" id="W5M0MpCehiHzreSzNTczkc9d"?>
<x:xmpmeta xmlns:x="adobe:ns:meta/" x:xmptk="Adobe XMP Core 5.6-c138 79.159824, 2016/09/14-01:09:01        ">
   <rdf:RDF xmlns:rdf="http://www.w3.org/1999/02/22-rdf-syntax-ns#">
      <rdf:Description rdf:about=""/>
   </rdf:RDF>
</x:xmpmeta>
                                                                                                    
                                                                                                    
                                                                                                    
                                                                                                    
                                                                                                    
                                                                                                    
                                                                                                    
                                                                                                    
                                                                                                    
                                                                                                    
                                                                                                    
                                                                                                    
                                                                                                    
                                                                                                    
                                                                                                    
                                                                                                    
                                                                                                    
                                                                                                    
                                                                                                    
                                                                                                    
                           
<?xpacket end="w"?></metadata>
<defs>
    <style>
      .cls-1, .cls-4 {
        fill: #226d4f;
      }

      .cls-1, .cls-2, .cls-3 {
        fill-rule: evenodd;
      }

      .cls-2, .cls-5 {
        fill: #16d488;
      }

      .cls-3 {
        fill: #c1ecdb;
      }
    </style>
  </defs>
  <path class="cls-1" d="M827,5713.99h-2V5714H782v-0.01h-2a4,4,0,0,1-4-4V5703h6v5h43v-5h6v6.99A4,4,0,0,1,827,5713.99Z" transform="translate(-759 -5637)"/>
  <path id="Rounded_Rectangle_3" data-name="Rounded Rectangle 3" class="cls-2" d="M827,5712H780a2,2,0,0,1-2-2.01V5703h2v6.99h47V5703h2v6.99A2.005,2.005,0,0,1,827,5712Z" transform="translate(-759 -5637)"/>
  <path class="cls-1" d="M765,5636.99h30a6,6,0,0,1,6,6v54a6,6,0,0,1-6,6.01H765a6,6,0,0,1-6-6.01v-54A6,6,0,0,1,765,5636.99Z" transform="translate(-759 -5637)"/>
  <path id="Rounded_Rectangle_2" data-name="Rounded Rectangle 2" class="cls-2" d="M765,5638.99h30a4,4,0,0,1,4,4v54a4.008,4.008,0,0,1-4,4.01H765a4.008,4.008,0,0,1-4-4.01v-54A4,4,0,0,1,765,5638.99Z" transform="translate(-759 -5637)"/>
  <path class="cls-3" d="M767,5642.99h26a2,2,0,0,1,2,2v50a2,2,0,0,1-2,2H767a2,2,0,0,1-2-2v-50A2,2,0,0,1,767,5642.99Z" transform="translate(-759 -5637)"/>
  <circle class="cls-4" cx="12" cy="12" r="2"/>
  <path class="cls-1" d="M817,5652.99h20a6,6,0,0,1,6,6.01v37.99a6,6,0,0,1-6,6.01H817a6,6,0,0,1-6-6.01V5659A6,6,0,0,1,817,5652.99Z" transform="translate(-759 -5637)"/>
  <rect id="Rounded_Rectangle_2-2" data-name="Rounded Rectangle 2" class="cls-5" x="54" y="18" width="28" height="46" rx="4" ry="4"/>
  <path class="cls-3" d="M819,5659h16a2,2,0,0,1,2,1.99v34a2,2,0,0,1-2,2H819a2,2,0,0,1-2-2v-34A1.994,1.994,0,0,1,819,5659Z" transform="translate(-759 -5637)"/>
  <circle class="cls-4" cx="64" cy="28" r="2"/>
  <path id="Rounded_Rectangle_5" data-name="Rounded Rectangle 5" class="cls-1" d="M822,5679h10a1,1,0,0,1,1,1h0a0.993,0.993,0,0,1-1,.99H822a0.993,0.993,0,0,1-1-.99h0A1,1,0,0,1,822,5679Zm0,6h10a1,1,0,0,1,1,1h0a0.993,0.993,0,0,1-1,.99H822a0.993,0.993,0,0,1-1-.99h0A1,1,0,0,1,822,5685Zm0,5.99h10a1,1,0,0,1,1,1h0a1,1,0,0,1-1,1H822a1,1,0,0,1-1-1h0A1,1,0,0,1,822,5690.99Z" transform="translate(-759 -5637)"/>
  <path id="Rounded_Rectangle_5-2" data-name="Rounded Rectangle 5" class="cls-1" d="M770,5679h20a1,1,0,0,1,1,1h0a0.993,0.993,0,0,1-1,.99H770a0.993,0.993,0,0,1-1-.99h0A1,1,0,0,1,770,5679Zm0,6h20a1,1,0,0,1,1,1h0a0.993,0.993,0,0,1-1,.99H770a0.993,0.993,0,0,1-1-.99h0A1,1,0,0,1,770,5685Zm0,5.99h20a1,1,0,0,1,1,1h0a1,1,0,0,1-1,1H770a1,1,0,0,1-1-1h0A1,1,0,0,1,770,5690.99Z" transform="translate(-759 -5637)"/>
</svg>
