<svg id="figure_icon2" xmlns="http://www.w3.org/2000/svg" width="513.06" height="85.15" viewBox="0 0 513.06 85.15">
  <metadata><?xpacket begin="﻿" id="W5M0MpCehiHzreSzNTczkc9d"?>
<x:xmpmeta xmlns:x="adobe:ns:meta/" x:xmptk="Adobe XMP Core 5.6-c138 79.159824, 2016/09/14-01:09:01        ">
   <rdf:RDF xmlns:rdf="http://www.w3.org/1999/02/22-rdf-syntax-ns#">
      <rdf:Description rdf:about=""/>
   </rdf:RDF>
</x:xmpmeta>
                                                                                                    
                                                                                                    
                                                                                                    
                                                                                                    
                                                                                                    
                                                                                                    
                                                                                                    
                                                                                                    
                                                                                                    
                                                                                                    
                                                                                                    
                                                                                                    
                                                                                                    
                                                                                                    
                                                                                                    
                                                                                                    
                                                                                                    
                                                                                                    
                                                                                                    
                                                                                                    
                           
<?xpacket end="w"?></metadata>
<defs>
    <style>
      .cls-1 {
        fill: #2c7457;
      }

      .cls-1, .cls-2, .cls-3 {
        fill-rule: evenodd;
        opacity: 0.5;
      }

      .cls-2 {
        fill: #16d488;
      }

      .cls-3, .cls-4 {
        fill: #226d4f;
      }
    </style>
  </defs>
  <path id="Rectangle_131_copy_14" data-name="Rectangle 131 copy 14" class="cls-1" d="M718.656,4697.06L716,4694.4l-2.657,2.66-1.414-1.42,2.657-2.65-2.657-2.66,1.414-1.41,2.657,2.65,2.657-2.65,1.414,1.41-2.657,2.66,2.657,2.65Z" transform="translate(-547 -4684.91)"/>
  <path id="Rectangle_131_copy_15" data-name="Rectangle 131 copy 15" class="cls-1" d="M1058.66,4710.06l-2.66-2.66-2.66,2.66-1.41-1.42,2.66-2.65-2.66-2.66,1.41-1.41,2.66,2.65,2.66-2.65,1.41,1.41-2.66,2.66,2.66,2.65Z" transform="translate(-547 -4684.91)"/>
  <path id="Rounded_Rectangle_10_copy_13" data-name="Rounded Rectangle 10 copy 13" class="cls-2" d="M965,4693.99h-7a1,1,0,0,1-1-1v-7a1,1,0,0,1,1-1h7a1,1,0,0,1,1,1v7A1,1,0,0,1,965,4693.99Zm-1-7h-5v5h5v-5Z" transform="translate(-547 -4684.91)"/>
  <path id="Rectangle_131_copy_18" data-name="Rectangle 131 copy 18" class="cls-2" d="M569.656,4770.06L567,4767.4l-2.656,2.66-1.415-1.42,2.657-2.65-2.657-2.66,1.415-1.42,2.656,2.66,2.657-2.66,1.414,1.42-2.656,2.66,2.656,2.65Z" transform="translate(-547 -4684.91)"/>
  <path id="Rectangle_131_copy_20" data-name="Rectangle 131 copy 20" class="cls-2" d="M812.656,4693.06L810,4690.4l-2.656,2.66-1.415-1.42,2.657-2.65-2.657-2.66,1.415-1.42,2.656,2.66,2.657-2.66,1.414,1.42-2.656,2.66,2.656,2.65Z" transform="translate(-547 -4684.91)"/>
  <path id="Rectangle_131_copy_19" data-name="Rectangle 131 copy 19" class="cls-2" d="M1057.66,4759.06l-2.66-2.66-2.66,2.66-1.41-1.42,2.66-2.65-2.66-2.66,1.41-1.42,2.66,2.66,2.66-2.66,1.41,1.42-2.66,2.66,2.66,2.65Z" transform="translate(-547 -4684.91)"/>
  <path id="Ellipse_42_copy_17" data-name="Ellipse 42 copy 17" class="cls-2" d="M602,4694.99a4,4,0,1,1,4-4A4,4,0,0,1,602,4694.99Zm0-6a2,2,0,1,0,2,2A2,2,0,0,0,602,4688.99Z" transform="translate(-547 -4684.91)"/>
  <path id="Rounded_Rectangle_10_copy_16" data-name="Rounded Rectangle 10 copy 16" class="cls-3" d="M555,4723.99h-7a1,1,0,0,1-1-1v-7a1,1,0,0,1,1-1h7a1,1,0,0,1,1,1v7A1,1,0,0,1,555,4723.99Zm-1-7h-5v5h5v-5Z" transform="translate(-547 -4684.91)"/>
  <path id="Rounded_Rectangle_10_copy_17" data-name="Rounded Rectangle 10 copy 17" class="cls-3" d="M894,4697.99h-7a1,1,0,0,1-1-1v-7a1,1,0,0,1,1-1h7a1,1,0,0,1,1,1v7A1,1,0,0,1,894,4697.99Zm-1-7h-5v5h5v-5Z" transform="translate(-547 -4684.91)"/>
  <rect id="Rectangle_601_copy_34" data-name="Rectangle 601 copy 34" class="cls-4" x="44" y="80.09" width="2" height="2"/>
</svg>
