<svg xmlns="http://www.w3.org/2000/svg" width="567" height="110" viewBox="0 0 567 110">
  <metadata><?xpacket begin="﻿" id="W5M0MpCehiHzreSzNTczkc9d"?>
<x:xmpmeta xmlns:x="adobe:ns:meta/" x:xmptk="Adobe XMP Core 5.6-c138 79.159824, 2016/09/14-01:09:01        ">
   <rdf:RDF xmlns:rdf="http://www.w3.org/1999/02/22-rdf-syntax-ns#">
      <rdf:Description rdf:about=""/>
   </rdf:RDF>
</x:xmpmeta>
                                                                                                    
                                                                                                    
                                                                                                    
                                                                                                    
                                                                                                    
                                                                                                    
                                                                                                    
                                                                                                    
                                                                                                    
                                                                                                    
                                                                                                    
                                                                                                    
                                                                                                    
                                                                                                    
                                                                                                    
                                                                                                    
                                                                                                    
                                                                                                    
                                                                                                    
                                                                                                    
                           
<?xpacket end="w"?></metadata>
<defs>
    <style>
      .cls-1 {
        fill: #f0f7f5;
        fill-rule: evenodd;
      }
    </style>
  </defs>
  <path id="figure_bg" class="cls-1" d="M1083,4747h-30a5,5,0,0,1,0-10h30A5,5,0,0,1,1083,4747Zm-15-40.01h-18.76V4707H1037a5,5,0,0,0,0,10h16.08a5,5,0,0,1-.08,9.99H605a5,5,0,0,0,0,10h428a5,5,0,0,1,0,10H621a5,5,0,0,0,0,10h432a5,5,0,0,1,0,10h-18a5.005,5.005,0,0,0,0,10.01h38a5,5,0,1,1,0,9.99H978a5,5,0,1,1,0-9.99h37a5.005,5.005,0,0,0,0-10.01l-105.053.01a5,5,0,0,0,.053,10h48a5,5,0,1,1,0,9.99H875a5,5,0,1,1,0-9.99h15a5,5,0,0,0,.054-10H726.947a5,5,0,0,0,.053,10H855a5,5,0,1,1,0,9.99H680a5,5,0,1,1,0-9.99h27a5,5,0,0,0,.054-10H635.947a5,5,0,0,0,.053,10h18a5,5,0,1,1,0,9.99H539a5,5,0,1,1,0-9.99h77a5,5,0,0,0,.054-10L592,4766.99a5,5,0,0,1,0-10h9a5,5,0,0,0,0-10H558a5,5,0,0,1,0-10h27a5,5,0,0,0,0-10H568a5,5,0,0,1,0-10h12a5,5,0,0,0,0-10H543a5,5,0,0,1,0-10h13.9c0.032,0,.064.01,0.1,0.01h40a5,5,0,0,0,0-10H546a5,5,0,0,1,0-10H648a5,5,0,0,1,0,10H617a5,5,0,0,0,0,10h14c0.032,0,.064-0.01.1-0.01H677.9c0.032,0,.064.01,0.1,0.01h42a5,5,0,0,0,0-10l-52-.01a5,5,0,0,1,0-10L772,4677a5,5,0,0,1,0,10H740a5,5,0,0,0,0,10l83.964-.01c0.012,0,.024.01,0.036,0.01h17a5,5,0,0,0,0-10H792a5,5,0,0,1,0-10l266-.01a5,5,0,0,1,0,10h-26a5,5,0,1,0,0,10h36A5,5,0,0,1,1068,4706.99ZM911,4687H861a5,5,0,0,0,0,10h50A5,5,0,0,0,911,4687Zm101-.01H951.48a0.017,0.017,0,0,0,0,.01H942a5,5,0,0,0,0,10h26c0.028,0,.054-0.01.082-0.01H1012A5,5,0,1,0,1012,4686.99Zm5,20.01h-7.24v-0.01H600a5,5,0,0,0,0,10h402.96c0.01,0,.03.01,0.04,0.01h14A5,5,0,0,0,1017,4707Zm38.04,9.99c-0.01,0-.03.01-0.04,0.01h-1.92c-0.03,0-.05-0.01-0.08-0.01h2.04ZM560,4757h12a5,5,0,0,1,0,10H560A5,5,0,0,1,560,4757Zm-7-35a5,5,0,0,1-5,5H526a5,5,0,0,1,0-10h22A5,5,0,0,1,553,4722Z" transform="translate(-521 -4677)"/>
</svg>
