<?xml version="1.0" encoding="utf-8"?>
<!-- Generator: Adobe Illustrator 21.1.0, SVG Export Plug-In . SVG Version: 6.00 Build 0)  -->
<svg version="1.1" id="figure_icon" xmlns="http://www.w3.org/2000/svg" xmlns:xlink="http://www.w3.org/1999/xlink" x="0px"
	 y="0px" viewBox="0 0 439 64" style="enable-background:new 0 0 439 64;" xml:space="preserve">
<style type="text/css">
	.st0{fill:#226D4F;}
	.st1{fill:#16D488;}
	.st2{fill:#C1ECDB;}
</style>
<path class="st0" d="M33.3,5H225c1.7,0,3,1.3,3,3v44c0,1.7-1.3,3-3,3H20.7c-2.4,0-4.6-1.4-5.5-3.6l-3.9-9c-1.2-2.9-1.1-6.2,0.5-8.9
	L25.5,9.5C27.1,6.7,30.1,5,33.3,5z M225,56H20.7c-2.8,0-5.3-1.7-6.4-4.2l-3.9-9c-1.4-3.2-1.2-6.8,0.6-9.8L24.6,9
	c1.8-3.1,5.1-5,8.7-5H225c2.2,0,4,1.8,4,4v44C229,54.2,227.2,56,225,56z M33.3,6c-2.9,0-5.5,1.5-6.9,4L12.7,33.9
	c-1.4,2.5-1.6,5.4-0.5,8l3.9,9c0.8,1.8,2.6,3,4.6,3H225c1.1,0,2-0.9,2-2V8c0-1.1-0.9-2-2-2L33.3,6L33.3,6z M225,56H20.7
	c-2.8,0-5.3-1.7-6.4-4.2l-3.9-9c-1.4-3.2-1.2-6.8,0.6-9.8L24.6,9c1.8-3.1,5.1-5,8.7-5H225c2.2,0,4,1.8,4,4v44
	C229,54.2,227.2,56,225,56z"/>
<rect x="229" y="39" class="st0" width="3" height="9"/>
<path class="st0" d="M74,0h27c1.1,0,2,0.9,2,2v2H72V2C72,0.9,72.9,0,74,0z"/>
<path id="Rectangle_597_copy" class="st1" d="M74,2h27v2H74V2L74,2z"/>
<path id="Rectangle_597_copy_2" class="st0" d="M261,0h27c1.1,0,2,0.9,2,2v2h-31V2C259,0.9,259.9,0,261,0z"/>
<path id="Rectangle_597_copy_2-2" class="st1" d="M261,2h27v2h-27V2L261,2z"/>
<path id="Shape_1063_copy" class="st1" d="M15.7,50l-3.5-8c-1.1-2.6-0.9-5.6,0.5-8L26.4,10c1.4-2.5,4.1-4,6.9-4H225c1.1,0,2,0.9,2,2
	v42L15.7,50L15.7,50z"/>
<path id="Shape_1063_copy_3" class="st0" d="M225,54H20.7c-2,0-3.8-1.2-4.6-3l-0.4-1H227v2C227,53.1,226.1,54,225,54z"/>
<path class="st0" d="M31.8,35H11l0.2-1.1c0.2-1,0.5-2,1-2.8l11-19h19.7c1.7,0,3,1.3,3,3c0,0.5-0.1,1.1-0.4,1.5l-9.3,16
	C35.3,34,33.6,35,31.8,35z"/>
<path class="st0" d="M64.2,35H50.9c-1.6,0-3-1.3-3-3c0-0.5,0.1-1,0.4-1.5l5.9-10.1c0.5-0.9,1.5-1.5,2.6-1.5H70c1.6,0,3,1.3,3,3
	c0,0.5-0.1,1-0.4,1.5l-5.8,10.1C66.2,34.4,65.3,35,64.2,35z M55.9,21.5l-5.9,10.1c-0.3,0.5-0.1,1.1,0.3,1.3c0.2,0.1,0.3,0.1,0.5,0.1
	h13.3c0.4,0,0.7-0.2,0.9-0.5l5.8-10.1c0.2-0.3,0.2-0.7,0-1C70.7,21.2,70.4,21,70,21H56.8C56.4,21,56.1,21.2,55.9,21.5L55.9,21.5
	L55.9,21.5z"/>
<path id="Rectangle_596_copy_2" class="st0" d="M89,20h10c1.1,0,2,0.9,2,2v10c0,1.1-0.9,2-2,2H89c-1.1,0-2-0.9-2-2V22
	C87,20.9,87.9,20,89,20z"/>
<path id="Rectangle_596_copy_2-2" class="st2" d="M89,22h10v10H89V22L89,22z"/>
<path id="Rectangle_596_copy_3" class="st0" d="M113,20h10c1.1,0,2,0.9,2,2v10c0,1.1-0.9,2-2,2h-10c-1.1,0-2-0.9-2-2V22
	C111,20.9,111.9,20,113,20z"/>
<path id="Rectangle_596_copy_3-2" class="st2" d="M113,22h10v10h-10V22L113,22z"/>
<path id="Rectangle_596_copy_4" class="st0" d="M181,20h10c1.1,0,2,0.9,2,2v10c0,1.1-0.9,2-2,2h-10c-1.1,0-2-0.9-2-2V22
	C179,20.9,179.9,20,181,20z"/>
<path id="Rectangle_596_copy_4-2" class="st2" d="M181,22h10v10h-10V22L181,22z"/>
<path id="Rectangle_596_copy_5" class="st0" d="M205,20h10c1.1,0,2,0.9,2,2v10c0,1.1-0.9,2-2,2h-10c-1.1,0-2-0.9-2-2V22
	C203,20.9,203.9,20,205,20z"/>
<path id="Rectangle_596_copy_5-2" class="st2" d="M205,22h10v10h-10V22L205,22z"/>
<path id="Rectangle_596_copy_7" class="st0" d="M137,20h30c1.1,0,2,0.9,2,2v28h-34V22C135,20.9,135.9,20,137,20z"/>
<path id="Rectangle_596_copy_15" class="st1" d="M137,22h14v28h-14V22L137,22z M153,22h14v28h-14V22L153,22z"/>
<path id="Rectangle_601_copy_2" class="st0" d="M139,24h10v10h-10V24z M155,24h10v10h-10V24z"/>
<path id="Rectangle_601_copy_4" class="st0" d="M139,38h10v2h-10V38z M139,42h10v2h-10V42z M155,38h10v2h-10V38z M155,42h10v2h-10
	V42z"/>
<path id="Rectangle_601_copy_2-2" class="st2" d="M141,26h6v6h-6V26z M157,26h6v6h-6V26z"/>
<path id="Shape_1070_copy" class="st2" d="M55.9,21.5l-5.9,10.1c-0.3,0.5-0.1,1.1,0.3,1.3c0.2,0.1,0.3,0.1,0.5,0.1h13.3
	c0.4,0,0.7-0.2,0.9-0.5l5.8-10.1c0.2-0.3,0.2-0.7,0-1C70.7,21.2,70.4,21,70,21H56.8C56.4,21,56.1,21.2,55.9,21.5L55.9,21.5
	L55.9,21.5z"/>
<path class="st0" d="M96.7,14c-5,0-9.4-3.2-11-7.9h2.1c1.4,3.6,5,6,8.9,6H227v2H96.7z"/>
<rect y="60" class="st0" width="439" height="2"/>
<rect x="12" y="62" class="st0" width="2" height="2"/>
<rect id="Rectangle_601_copy_36" x="432" y="62" class="st0" width="2" height="2"/>
<rect id="Rectangle_601_copy" x="19" y="62" class="st0" width="2" height="2"/>
<rect id="Rectangle_601_copy_5" x="40" y="62" class="st0" width="2" height="2"/>
<rect id="Rectangle_601_copy_6" x="54" y="62" class="st0" width="2" height="2"/>
<rect id="Rectangle_601_copy_8" x="68" y="62" class="st0" width="2" height="2"/>
<rect id="Rectangle_601_copy_9" x="82" y="62" class="st0" width="2" height="2"/>
<rect id="Rectangle_601_copy_10" x="96" y="62" class="st0" width="2" height="2"/>
<rect id="Rectangle_601_copy_11" x="110" y="62" class="st0" width="2" height="2"/>
<rect id="Rectangle_601_copy_12" x="124" y="62" class="st0" width="2" height="2"/>
<rect id="Rectangle_601_copy_13" x="138" y="62" class="st0" width="2" height="2"/>
<rect id="Rectangle_601_copy_14" x="152" y="62" class="st0" width="2" height="2"/>
<rect id="Rectangle_601_copy_15" x="166" y="62" class="st0" width="2" height="2"/>
<rect id="Rectangle_601_copy_16" x="180" y="62" class="st0" width="2" height="2"/>
<rect id="Rectangle_601_copy_17" x="194" y="62" class="st0" width="2" height="2"/>
<rect id="Rectangle_601_copy_18" x="208" y="62" class="st0" width="2" height="2"/>
<rect id="Rectangle_601_copy_19" x="222" y="62" class="st0" width="2" height="2"/>
<rect id="Rectangle_601_copy_20" x="236" y="62" class="st0" width="2" height="2"/>
<rect id="Rectangle_601_copy_21" x="250" y="62" class="st0" width="2" height="2"/>
<rect id="Rectangle_601_copy_22" x="264" y="62" class="st0" width="2" height="2"/>
<rect id="Rectangle_601_copy_23" x="278" y="62" class="st0" width="2" height="2"/>
<rect id="Rectangle_601_copy_24" x="292" y="62" class="st0" width="2" height="2"/>
<rect id="Rectangle_601_copy_25" x="306" y="62" class="st0" width="2" height="2"/>
<rect id="Rectangle_601_copy_26" x="320" y="62" class="st0" width="2" height="2"/>
<rect id="Rectangle_601_copy_27" x="334" y="62" class="st0" width="2" height="2"/>
<rect id="Rectangle_601_copy_28" x="348" y="62" class="st0" width="2" height="2"/>
<rect id="Rectangle_601_copy_29" x="362" y="62" class="st0" width="2" height="2"/>
<rect id="Rectangle_601_copy_30" x="376" y="62" class="st0" width="2" height="2"/>
<rect id="Rectangle_601_copy_31" x="390" y="62" class="st0" width="2" height="2"/>
<rect id="Rectangle_601_copy_32" x="404" y="62" class="st0" width="2" height="2"/>
<rect id="Rectangle_601_copy_33" x="418" y="62" class="st0" width="2" height="2"/>
<rect id="Rectangle_601_copy_35" x="26" y="62" class="st0" width="2" height="2"/>
<rect id="Rectangle_601_copy_35-2" x="33" y="62" class="st0" width="2" height="2"/>
<rect id="Rectangle_601_copy_35-3" x="47" y="62" class="st0" width="2" height="2"/>
<rect id="Rectangle_601_copy_35-4" x="61" y="62" class="st0" width="2" height="2"/>
<rect id="Rectangle_601_copy_35-5" x="75" y="62" class="st0" width="2" height="2"/>
<rect id="Rectangle_601_copy_35-6" x="89" y="62" class="st0" width="2" height="2"/>
<rect id="Rectangle_601_copy_35-7" x="103" y="62" class="st0" width="2" height="2"/>
<rect id="Rectangle_601_copy_35-8" x="117" y="62" class="st0" width="2" height="2"/>
<rect id="Rectangle_601_copy_35-9" x="131" y="62" class="st0" width="2" height="2"/>
<rect id="Rectangle_601_copy_35-10" x="145" y="62" class="st0" width="2" height="2"/>
<rect id="Rectangle_601_copy_35-11" x="159" y="62" class="st0" width="2" height="2"/>
<rect id="Rectangle_601_copy_35-12" x="173" y="62" class="st0" width="2" height="2"/>
<rect id="Rectangle_601_copy_35-13" x="187" y="62" class="st0" width="2" height="2"/>
<rect id="Rectangle_601_copy_35-14" x="201" y="62" class="st0" width="2" height="2"/>
<rect id="Rectangle_601_copy_35-15" x="215" y="62" class="st0" width="2" height="2"/>
<rect id="Rectangle_601_copy_35-16" x="229" y="62" class="st0" width="2" height="2"/>
<rect id="Rectangle_601_copy_35-17" x="243" y="62" class="st0" width="2" height="2"/>
<rect id="Rectangle_601_copy_35-18" x="257" y="62" class="st0" width="2" height="2"/>
<rect id="Rectangle_601_copy_35-19" x="271" y="62" class="st0" width="2" height="2"/>
<rect id="Rectangle_601_copy_35-20" x="285" y="62" class="st0" width="2" height="2"/>
<rect id="Rectangle_601_copy_35-21" x="299" y="62" class="st0" width="2" height="2"/>
<rect id="Rectangle_601_copy_35-22" x="313" y="62" class="st0" width="2" height="2"/>
<rect id="Rectangle_601_copy_35-23" x="327" y="62" class="st0" width="2" height="2"/>
<rect id="Rectangle_601_copy_35-24" x="341" y="62" class="st0" width="2" height="2"/>
<rect id="Rectangle_601_copy_35-25" x="355" y="62" class="st0" width="2" height="2"/>
<rect id="Rectangle_601_copy_35-26" x="369" y="62" class="st0" width="2" height="2"/>
<rect id="Rectangle_601_copy_35-27" x="383" y="62" class="st0" width="2" height="2"/>
<rect id="Rectangle_601_copy_35-28" x="397" y="62" class="st0" width="2" height="2"/>
<rect id="Rectangle_601_copy_35-29" x="411" y="62" class="st0" width="2" height="2"/>
<rect id="Rectangle_601_copy_35-30" x="425" y="62" class="st0" width="2" height="2"/>
<path class="st0" d="M169,43v-2h58v2H169z M136,43H82.1c-8.9,0-17.2,4.5-22.1,12h-2.4l0.1-0.1C62.8,46.3,72.1,41,82.1,41H136V43z"/>
<path id="Shape_1063_copy_2" class="st0" d="M236,4h194c2.2,0,4,1.8,4,4v44c0,2.2-1.8,4-4,4H236c-2.2,0-4-1.8-4-4V8
	C232,5.8,233.8,4,236,4z"/>
<path id="Shape_1063_copy_2-2" class="st1" d="M234,50V8c0-1.1,0.9-2,2-2h194c1.1,0,2,0.9,2,2c0,0,0,0,0,0v42H234z"/>
<path id="Shape_1063_copy_4" class="st0" d="M430,54H236c-1.1,0-2-0.9-2-2v-2h198v2C432,53.1,431.1,54,430,54z"/>
<path id="Shape_1073_copy" class="st0" d="M234,43v-2h198v2H234z M234,12h198v2H234V12L234,12z"/>
<path id="Shape_1066_copy" class="st2" d="M13.4,33h18.4c1.1,0,2.1-0.6,2.6-1.5l9.3-16c0.3-0.5,0.1-1.1-0.4-1.4
	C43.2,14,43,14,42.8,14H24.3L13.9,32C13.7,32.3,13.6,32.6,13.4,33z"/>
<path id="Ellipse_671_copy_2" class="st0" d="M67,47c3.9,0,7,3.1,7,7s-3.1,7-7,7s-7-3.1-7-7S63.1,47,67,47L67,47z M91,47
	c3.9,0,7,3.1,7,7s-3.1,7-7,7s-7-3.1-7-7S87.1,47,91,47L91,47z"/>
<path id="Ellipse_671_copy_2-2" class="st1" d="M67,49c2.8,0,5,2.2,5,5s-2.2,5-5,5s-5-2.2-5-5S64.2,49,67,49z M91,49
	c2.8,0,5,2.2,5,5s-2.2,5-5,5s-5-2.2-5-5S88.2,49,91,49z"/>
<path class="st0" d="M67,52c1.1,0,2,0.9,2,2s-0.9,2-2,2s-2-0.9-2-2S65.9,52,67,52z M91,52c1.1,0,2,0.9,2,2s-0.9,2-2,2s-2-0.9-2-2
	S89.9,52,91,52z M66,53h26v2H66V53z"/>
<path id="Ellipse_671_copy_5" class="st0" d="M186,47c3.9,0,7,3.1,7,7s-3.1,7-7,7s-7-3.1-7-7S182.1,47,186,47L186,47z M210,47
	c3.9,0,7,3.1,7,7s-3.1,7-7,7s-7-3.1-7-7S206.1,47,210,47L210,47z"/>
<path id="Ellipse_671_copy_5-2" class="st1" d="M186,49c2.8,0,5,2.2,5,5s-2.2,5-5,5s-5-2.2-5-5S183.2,49,186,49z M210,49
	c2.8,0,5,2.2,5,5s-2.2,5-5,5s-5-2.2-5-5S207.2,49,210,49z"/>
<path id="Rectangle_600_copy_3" class="st0" d="M186,52c1.1,0,2,0.9,2,2s-0.9,2-2,2s-2-0.9-2-2S184.9,52,186,52z M210,52
	c1.1,0,2,0.9,2,2s-0.9,2-2,2s-2-0.9-2-2S208.9,52,210,52z M185,53h26v2h-26V53z"/>
<path id="Ellipse_671_copy_3" class="st0" d="M251,47c3.9,0,7,3.1,7,7s-3.1,7-7,7s-7-3.1-7-7S247.1,47,251,47L251,47z M275,47
	c3.9,0,7,3.1,7,7s-3.1,7-7,7s-7-3.1-7-7S271.1,47,275,47L275,47z"/>
<path id="Ellipse_671_copy_3-2" class="st1" d="M251,49c2.8,0,5,2.2,5,5s-2.2,5-5,5s-5-2.2-5-5S248.2,49,251,49z M275,49
	c2.8,0,5,2.2,5,5s-2.2,5-5,5s-5-2.2-5-5S272.2,49,275,49z"/>
<path id="Rectangle_600_copy" class="st0" d="M251,52c1.1,0,2,0.9,2,2s-0.9,2-2,2s-2-0.9-2-2S249.9,52,251,52z M275,52
	c1.1,0,2,0.9,2,2s-0.9,2-2,2s-2-0.9-2-2S273.9,52,275,52z M250,53h26v2h-26V53z"/>
<path id="Ellipse_671_copy_4" class="st0" d="M391,47c3.9,0,7,3.1,7,7s-3.1,7-7,7s-7-3.1-7-7S387.1,47,391,47L391,47z M415,47
	c3.9,0,7,3.1,7,7s-3.1,7-7,7s-7-3.1-7-7C408,50.1,411.1,47,415,47C415,47,415,47,415,47z"/>
<path id="Ellipse_671_copy_4-2" class="st1" d="M391,49c2.8,0,5,2.2,5,5s-2.2,5-5,5s-5-2.2-5-5S388.2,49,391,49z M415,49
	c2.8,0,5,2.2,5,5s-2.2,5-5,5s-5-2.2-5-5S412.2,49,415,49z"/>
<path id="Rectangle_600_copy_2" class="st0" d="M391,52c1.1,0,2,0.9,2,2s-0.9,2-2,2s-2-0.9-2-2S389.9,52,391,52z M415,52
	c1.1,0,2,0.9,2,2s-0.9,2-2,2s-2-0.9-2-2C413,52.9,413.9,52,415,52z M390,53h26v2h-26V53z"/>
<path id="Rectangle_596_copy_6" class="st0" d="M362,20h10c1.1,0,2,0.9,2,2v10c0,1.1-0.9,2-2,2h-10c-1.1,0-2-0.9-2-2V22
	C360,20.9,360.9,20,362,20z"/>
<path id="Rectangle_596_copy_6-2" class="st2" d="M362,22h10v10h-10V22L362,22z"/>
<path id="Rectangle_596_copy_9" class="st0" d="M386,20h10c1.1,0,2,0.9,2,2v10c0,1.1-0.9,2-2,2h-10c-1.1,0-2-0.9-2-2V22
	C384,20.9,384.9,20,386,20z"/>
<path id="Rectangle_596_copy_9-2" class="st2" d="M386,22h10v10h-10V22L386,22z"/>
<path id="Rectangle_596_copy_10" class="st0" d="M410,20h10c1.1,0,2,0.9,2,2v10c0,1.1-0.9,2-2,2h-10c-1.1,0-2-0.9-2-2V22
	C408,20.9,408.9,20,410,20z"/>
<path id="Rectangle_596_copy_10-2" class="st2" d="M410,22h10v10h-10V22L410,22z"/>
<path id="Rectangle_596_copy_11" class="st0" d="M294,20h10c1.1,0,2,0.9,2,2v10c0,1.1-0.9,2-2,2h-10c-1.1,0-2-0.9-2-2V22
	C292,20.9,292.9,20,294,20z"/>
<path id="Rectangle_596_copy_11-2" class="st2" d="M294,22h10v10h-10V22L294,22z"/>
<path id="Rectangle_596_copy_12" class="st0" d="M270,20h10c1.1,0,2,0.9,2,2v10c0,1.1-0.9,2-2,2h-10c-1.1,0-2-0.9-2-2V22
	C268,20.9,268.9,20,270,20z"/>
<path id="Rectangle_596_copy_12-2" class="st2" d="M270,22h10v10h-10V22L270,22z"/>
<path id="Rectangle_596_copy_13" class="st0" d="M246,20h10c1.1,0,2,0.9,2,2v10c0,1.1-0.9,2-2,2h-10c-1.1,0-2-0.9-2-2V22
	C244,20.9,244.9,20,246,20z"/>
<path id="Rectangle_596_copy_13-2" class="st2" d="M246,22h10v10h-10V22L246,22z"/>
<path id="Rectangle_596_copy_8" class="st0" d="M318,20h30c1.1,0,2,0.9,2,2v28h-34V22C316,20.9,316.9,20,318,20z"/>
<path id="Rectangle_596_copy_16" class="st1" d="M318,22h14v28h-14V22L318,22z M334,22h14v28h-14V22L334,22z"/>
<path id="Rectangle_601_copy_3" class="st0" d="M320,24h10v10h-10V24z M336,24h10v10h-10V24z"/>
<path id="Rectangle_601_copy_3-2" class="st2" d="M322,26h6v6h-6V26z M338,26h6v6h-6V26z"/>
<path id="Rectangle_601_copy_7" class="st0" d="M336,42h10v2h-10V42z M320,42h10v2h-10V42z M336,38h10v2h-10V38z M320,38h10v2h-10
	V38z"/>
</svg>
