<svg id="icon_1_1" xmlns="http://www.w3.org/2000/svg" width="129.062" height="86.06" viewBox="0 0 129.062 86.06">
  <metadata><?xpacket begin="﻿" id="W5M0MpCehiHzreSzNTczkc9d"?>
<x:xmpmeta xmlns:x="adobe:ns:meta/" x:xmptk="Adobe XMP Core 5.6-c138 79.159824, 2016/09/14-01:09:01        ">
   <rdf:RDF xmlns:rdf="http://www.w3.org/1999/02/22-rdf-syntax-ns#">
      <rdf:Description rdf:about=""/>
   </rdf:RDF>
</x:xmpmeta>
                                                                                                    
                                                                                                    
                                                                                                    
                                                                                                    
                                                                                                    
                                                                                                    
                                                                                                    
                                                                                                    
                                                                                                    
                                                                                                    
                                                                                                    
                                                                                                    
                                                                                                    
                                                                                                    
                                                                                                    
                                                                                                    
                                                                                                    
                                                                                                    
                                                                                                    
                                                                                                    
                           
<?xpacket end="w"?></metadata>
<defs>
    <style>
      .cls-1 {
        fill: #2c7457;
      }

      .cls-1, .cls-2, .cls-3 {
        fill-rule: evenodd;
        opacity: 0.5;
      }

      .cls-2 {
        fill: #16d488;
      }

      .cls-3 {
        fill: #226d4f;
      }
    </style>
  </defs>
  <path id="Rectangle_131_copy_16" data-name="Rectangle 131 copy 16" class="cls-1" d="M861.656,6156.05L859,6153.4l-2.657,2.65-1.414-1.41,2.657-2.66-2.657-2.65,1.414-1.42,2.657,2.66,2.657-2.66,1.414,1.42-2.657,2.65,2.657,2.66Z" transform="translate(-734.938 -6070)"/>
  <path id="Rectangle_131_copy_21" data-name="Rectangle 131 copy 21" class="cls-2" d="M741.656,6087.05L739,6084.4l-2.656,2.65-1.415-1.41,2.657-2.66-2.657-2.65,1.415-1.42,2.656,2.66,2.657-2.66,1.414,1.42-2.656,2.65,2.656,2.66Z" transform="translate(-734.938 -6070)"/>
  <path id="Ellipse_42_copy_18" data-name="Ellipse 42 copy 18" class="cls-2" d="M860,6112.99a4,4,0,1,1,4-4A4,4,0,0,1,860,6112.99Zm0-6.01a2.005,2.005,0,1,0,2,2.01A2.005,2.005,0,0,0,860,6106.98Z" transform="translate(-734.938 -6070)"/>
  <path id="Ellipse_42_copy_19" data-name="Ellipse 42 copy 19" class="cls-3" d="M742,6147.99a4.005,4.005,0,1,1,4-4.01A4,4,0,0,1,742,6147.99Zm0-6.01a2.005,2.005,0,1,0,2,2A2,2,0,0,0,742,6141.98Z" transform="translate(-734.938 -6070)"/>
  <path id="Rounded_Rectangle_10_copy_18" data-name="Rounded Rectangle 10 copy 18" class="cls-3" d="M840,6078.99h-7a1,1,0,0,1-1-1v-7a1,1,0,0,1,1-1h7a1,1,0,0,1,1,1v7A1,1,0,0,1,840,6078.99Zm-1-7h-5v5h5v-5Z" transform="translate(-734.938 -6070)"/>
</svg>
