<?xml version="1.0" encoding="utf-8"?>
<!-- Generator: Adobe Illustrator 21.1.0, SVG Export Plug-In . SVG Version: 6.00 Build 0)  -->
<svg version="1.1" id="icon_1" xmlns="http://www.w3.org/2000/svg" xmlns:xlink="http://www.w3.org/1999/xlink" x="0px" y="0px"
	 viewBox="0 0 86.9 68" style="enable-background:new 0 0 86.9 68;" xml:space="preserve">
<style type="text/css">
	.st0{fill:#F0F7F5;}
	.st1{fill:#226D4F;}
	.st2{fill:#16D488;}
	.st3{fill:#C1ECDB;}
</style>
<path class="st0" d="M52.9,23.3l3.7-3.7l-5.3-5.2l-3.6,3.7c-2.1-1.4-4.5-2.4-7-2.9V10h-7.5v5.2c-2.5,0.5-4.9,1.5-7,2.9l-3.6-3.7
	l-5.3,5.3l3.7,3.7c-1.4,2.1-2.4,4.5-2.9,7H13v7.4h5.2c0.5,2.5,1.5,4.9,2.9,7l-3.7,3.6l5.3,5.3l3.7-3.7c2.1,1.4,4.5,2.4,7,2.9V58h7.4
	v-5.2c2.5-0.5,4.9-1.5,7-2.9l3.7,3.7l5.3-5.3l-3.7-3.6c1.4-2.1,2.4-4.5,2.9-7H61v-7.5h-5.2C55.3,27.8,54.4,25.4,52.9,23.3z M37,45.8
	c-6.5,0-11.8-5.3-11.8-11.8c0-6.5,5.3-11.8,11.8-11.8c6.5,0,11.8,5.3,11.8,11.8C48.7,40.5,43.5,45.7,37,45.8z"/>
<path class="st1" d="M56.5,18.7l3.8-3.8c0.4-0.4,0.4-1,0-1.4c0,0,0,0,0,0l-5.8-5.8c-0.4-0.4-1-0.4-1.4,0c0,0,0,0,0,0l-3.7,3.8
	c-0.3,0.3-0.8,0.4-1.2,0.1c-2.5-1.6-5.2-2.7-8.1-3.4c-0.4-0.1-0.8-0.5-0.8-1V2c0-0.6-0.4-1-1-1h-8.3c-0.6,0-1,0.4-1,1v5.3
	c0,0.5-0.3,0.9-0.8,1c-2.9,0.6-5.6,1.8-8.1,3.4c-0.4,0.3-0.9,0.2-1.3-0.1L15,7.8c-0.4-0.4-1-0.4-1.4,0c0,0,0,0,0,0l-5.8,5.9
	c-0.4,0.4-0.4,1,0,1.4l3.8,3.8c0.3,0.3,0.4,0.8,0.1,1.2c-1.5,2.5-2.7,5.3-3.4,8.1c-0.1,0.4-0.5,0.8-1,0.8H2c-0.6,0-1,0.4-1,1v8.2
	c0,0.6,0.4,1,1,1h5.3c0.5,0,0.9,0.3,1,0.8c0.6,2.9,1.8,5.6,3.4,8.1c0.3,0.4,0.2,0.9-0.1,1.3L7.8,53c-0.4,0.4-0.4,1,0,1.4
	c0,0,0,0,0,0l5.8,5.9c0.4,0.4,1,0.4,1.4,0c0,0,0,0,0,0l3.8-3.8c0.3-0.3,0.8-0.4,1.2-0.1c2.5,1.6,5.2,2.7,8.1,3.4
	c0.5,0.1,0.8,0.5,0.8,1V66c0,0.5,0.4,1,1,1c0,0,0,0,0,0h8.2c0.5,0,1-0.4,1-1c0,0,0,0,0,0v-5.3c0-0.5,0.3-0.9,0.8-1
	c2.9-0.6,5.6-1.8,8.1-3.4c0.4-0.3,0.9-0.2,1.2,0.1l3.8,3.8c0.4,0.4,1,0.4,1.4,0c0,0,0,0,0,0l5.8-5.8c0.4-0.4,0.4-1,0-1.4
	c0,0,0,0,0,0l-3.8-3.7c-0.3-0.3-0.4-0.8-0.1-1.2c1.5-2.5,2.7-5.2,3.4-8.1c0.1-0.4,0.5-0.8,1-0.8H66c0.6,0,1-0.4,1-1v-8.3
	c0-0.6-0.4-1-1-1h-5.3c-0.5,0-0.9-0.3-1-0.8c-0.6-2.9-1.8-5.6-3.4-8.1C56.1,19.6,56.1,19.1,56.5,18.7z M34,46c-6.6,0-12-5.4-12-12
	s5.4-12,12-12s12,5.4,12,12C46,40.6,40.6,46,34,46z M38.1,68h-8.2c-1.1,0-2-0.9-2-2v-5.3c-3-0.7-5.8-1.9-8.4-3.5L15.7,61
	c-0.8,0.8-2,0.8-2.8,0L7,55.1c-0.8-0.8-0.8-2,0-2.8c0,0,0,0,0,0l3.8-3.7C9.2,46,8,43.1,7.3,40.1l-5.3,0c-1.1,0-2-0.9-2-2v-8.2
	c0-1.1,0.9-2,2-2h5.3c0.7-3,1.9-5.8,3.5-8.4L7,15.7c-0.8-0.8-0.8-2,0-2.8l5.8-5.9c0.4-0.4,0.9-0.6,1.4-0.6h0c0.5,0,1,0.2,1.4,0.6
	l3.7,3.8C22,9.1,24.8,8,27.8,7.3l0-5.3c0-1.1,0.9-2,2-2h8.3c1.1,0,2,0.9,2,2v5.3c3,0.7,5.8,1.9,8.4,3.5l3.7-3.8
	c0.4-0.4,0.9-0.6,1.4-0.6c0.5,0,1,0.2,1.4,0.6l5.8,5.8c0.8,0.8,0.8,2,0,2.8c0,0,0,0,0,0l-3.8,3.8c1.7,2.6,2.9,5.4,3.5,8.4l5.3,0
	c1.1,0,2,0.9,2,2v8.3c0,1.1-0.9,2-2,2h-5.3c-0.7,3-1.9,5.8-3.5,8.4l3.8,3.7c0.8,0.8,0.8,2,0,2.8c0,0,0,0,0,0l-5.8,5.8
	c-0.8,0.8-2,0.8-2.8,0c0,0,0,0,0,0l-3.8-3.8c-2.6,1.7-5.4,2.9-8.4,3.5l0,5.3C40.1,67.1,39.2,68,38.1,68z M19.5,55.2
	c0.4,0,0.7,0.1,1.1,0.3c2.4,1.5,5.1,2.6,7.8,3.3c0.9,0.2,1.5,1,1.5,1.9V66h8.2v-5.3c0-0.9,0.7-1.8,1.6-2c2.8-0.6,5.4-1.7,7.8-3.3
	c0.8-0.5,1.8-0.4,2.5,0.3l3.8,3.8l5.8-5.9L55.8,50c-0.7-0.7-0.8-1.7-0.3-2.5c1.5-2.4,2.6-5.1,3.3-7.8c0.2-0.9,1-1.5,1.9-1.5H66v-8.3
	h-5.3c-0.9,0-1.7-0.7-1.9-1.6c-0.6-2.8-1.7-5.4-3.3-7.8c-0.5-0.8-0.4-1.8,0.3-2.5l3.8-3.8l-5.8-5.8L50,12.2
	c-0.7,0.7-1.7,0.8-2.5,0.3c-2.4-1.5-5.1-2.6-7.8-3.3c-0.9-0.2-1.5-1-1.5-1.9V2h-8.3v5.3c0,0.9-0.7,1.8-1.6,2
	c-2.8,0.6-5.4,1.7-7.8,3.3c-0.8,0.5-1.8,0.4-2.5-0.3l-3.7-3.8l-5.9,5.9l3.8,3.8c0.7,0.7,0.8,1.7,0.3,2.5C11,23,9.9,25.6,9.3,28.4
	c-0.2,0.9-1,1.5-1.9,1.5H2v8.2h5.3c0.9,0,1.8,0.7,1.9,1.6c0.6,2.8,1.7,5.4,3.3,7.8c0.5,0.8,0.4,1.8-0.3,2.5l-3.8,3.7l5.8,5.9
	l3.8-3.8C18.5,55.4,19,55.2,19.5,55.2z M57.2,19.4L57.2,19.4z M34,47c-7.2,0-13-5.8-13-13s5.8-13,13-13c7.2,0,13,5.8,13,13
	C47,41.2,41.2,47,34,47z M34,23c-6.1,0-11,4.9-11,11s4.9,11,11,11c6.1,0,11-4.9,11-11c0,0,0,0,0,0C45,27.9,40.1,23,34,23z M34,23
	c-6.1,0-11,4.9-11,11s4.9,11,11,11c6.1,0,11-4.9,11-11c0,0,0,0,0,0C45,27.9,40.1,23,34,23z M38.2,68h-8.2c-1.1,0-2-0.9-2-2v-5.3
	c-3-0.7-5.8-1.9-8.4-3.5L15.7,61c-0.8,0.8-2,0.8-2.8,0l-5.8-5.9c-0.8-0.8-0.8-2,0-2.8c0,0,0,0,0,0l3.8-3.7C9.2,46,8,43.1,7.3,40.2
	l-5.3,0c-1.1,0-2-0.9-2-2v-8.2c0-1.1,0.9-2,2-2h5.3c0.7-3,1.9-5.8,3.5-8.4L7,15.7c-0.8-0.8-0.8-2,0-2.8l5.8-5.9
	c0.4-0.4,0.9-0.6,1.4-0.6h0c0.5,0,1,0.2,1.4,0.6l3.7,3.8C22,9.2,24.9,8,27.8,7.3l0-5.3c0-1.1,0.9-2,2-2h8.3c1.1,0,2,0.9,2,2v5.3
	c3,0.7,5.8,1.9,8.4,3.5l3.7-3.8c0.4-0.4,0.9-0.6,1.4-0.6c0.5,0,1,0.2,1.4,0.6l5.8,5.8c0.8,0.8,0.8,2,0,2.8c0,0,0,0,0,0l-3.8,3.8
	c1.7,2.6,2.9,5.4,3.5,8.4l5.3,0c1.1,0,2,0.9,2,2v8.3c0,1.1-0.9,2-2,2h-5.3c-0.7,3-1.9,5.8-3.5,8.4l3.8,3.7c0.8,0.8,0.8,2,0,2.8
	c0,0,0,0,0,0L55.2,61c-0.8,0.8-2,0.8-2.8,0c0,0,0,0,0,0l-3.8-3.8c-2.6,1.7-5.4,2.9-8.4,3.5l0,5.3C40.1,67.1,39.3,68,38.2,68z"/>
<path id="Shape_1075_copy" class="st2" d="M19.5,55.2c0.4,0,0.7,0.1,1.1,0.3c2.4,1.5,5.1,2.6,7.8,3.3c0.9,0.2,1.5,1,1.5,1.9V66h8.2
	v-5.3c0-0.9,0.7-1.8,1.6-2c2.8-0.6,5.4-1.7,7.8-3.3c0.8-0.5,1.8-0.4,2.5,0.3l3.8,3.8l5.8-5.9L55.8,50c-0.7-0.7-0.8-1.7-0.3-2.5
	c1.5-2.4,2.6-5.1,3.3-7.8c0.2-0.9,1-1.5,1.9-1.5H66v-8.3h-5.3c-0.9,0-1.7-0.7-1.9-1.6c-0.6-2.8-1.7-5.4-3.3-7.8
	c-0.5-0.8-0.4-1.8,0.3-2.5l3.8-3.8l-5.8-5.8L50,12.2c-0.7,0.7-1.7,0.8-2.5,0.3c-2.4-1.5-5.1-2.6-7.8-3.3c-0.9-0.2-1.5-1-1.5-1.9V2
	h-8.3v5.3c0,0.9-0.7,1.8-1.6,2c-2.8,0.6-5.4,1.7-7.8,3.3c-0.8,0.5-1.8,0.4-2.5-0.3l-3.7-3.8l-5.9,5.9l3.8,3.8
	c0.7,0.7,0.8,1.7,0.3,2.5C11,23,9.9,25.6,9.3,28.4c-0.2,0.9-1,1.5-1.9,1.5H2v8.2h5.3c0.9,0,1.8,0.7,1.9,1.6c0.6,2.8,1.7,5.4,3.3,7.8
	c0.5,0.8,0.4,1.8-0.3,2.5l-3.8,3.7l5.8,5.9l3.8-3.8C18.5,55.4,19,55.2,19.5,55.2z M57.2,19.4L57.2,19.4z M34,47c-7.2,0-13-5.8-13-13
	s5.8-13,13-13c7.2,0,13,5.8,13,13C47,41.2,41.2,47,34,47z"/>
<path class="st1" d="M56.2,17.4L56.2,17.4z M82.3,43.7l2.4-1.3c0.2-0.1,0.3-0.5,0.2-0.7l-2.1-3.7c-0.1-0.2-0.5-0.3-0.7-0.2
	c0,0,0,0,0,0l-2.4,1.3c-0.2,0.1-0.5,0.1-0.6-0.1c-1-1.1-2.2-2.1-3.5-2.9c-0.2-0.1-0.3-0.4-0.2-0.6l0.8-2.6c0.1-0.3-0.1-0.5-0.3-0.6
	c0,0,0,0,0,0l-4.1-1.2c-0.3-0.1-0.6,0.1-0.6,0.4c0,0,0,0,0,0L70.3,34c-0.1,0.2-0.3,0.4-0.5,0.4c-1.5-0.1-3,0.1-4.5,0.5
	c-0.2,0.1-0.5,0-0.6-0.3l-1.3-2.4c-0.1-0.3-0.4-0.3-0.7-0.2c0,0,0,0,0,0L59,34.1c-0.2,0.1-0.3,0.5-0.2,0.7c0,0,0,0,0,0l1.3,2.4
	c0.1,0.2,0.1,0.5-0.1,0.6c-1.1,1-2.1,2.2-2.8,3.5c-0.1,0.2-0.4,0.3-0.6,0.2l-2.6-0.8c-0.3-0.1-0.6,0.1-0.6,0.4c0,0,0,0,0,0l-1.2,4.1
	c-0.1,0.3,0.1,0.6,0.3,0.6c0,0,0,0,0,0l2.6,0.8c0.2,0.1,0.4,0.3,0.4,0.5c-0.1,1.5,0.1,3,0.5,4.5c0.1,0.2,0,0.5-0.2,0.6l-2.4,1.3
	c-0.2,0.1-0.3,0.4-0.2,0.7c0,0,0,0,0,0l2.1,3.7c0.1,0.2,0.4,0.3,0.7,0.2l2.4-1.3c0.2-0.1,0.5-0.1,0.6,0.1c1,1.1,2.2,2.1,3.5,2.9
	c0.2,0.1,0.3,0.4,0.2,0.6l-0.8,2.6c-0.1,0.3,0.1,0.6,0.4,0.6l4.1,1.2c0.3,0.1,0.6-0.1,0.6-0.4l0.8-2.6c0.1-0.2,0.3-0.4,0.5-0.4
	c1.5,0.1,3-0.1,4.5-0.5c0.2-0.1,0.5,0,0.6,0.2l1.3,2.4c0.1,0.2,0.4,0.3,0.7,0.2c0,0,0,0,0,0l3.7-2c0.3-0.1,0.3-0.5,0.2-0.7
	c0,0,0,0,0,0l-1.4-2.4c-0.1-0.2-0.1-0.5,0.1-0.6c1.1-1,2.1-2.2,2.8-3.5c0.1-0.2,0.4-0.3,0.6-0.3l2.6,0.8c0.3,0.1,0.6-0.1,0.6-0.4
	l1.2-4.1c0.1-0.3-0.1-0.6-0.3-0.6c0,0,0,0,0,0L83,49.3c-0.2-0.1-0.4-0.3-0.4-0.5c0.1-1.5-0.1-3-0.5-4.5C82,44,82.1,43.8,82.3,43.7z
	 M67.3,53.9c-3.3-1-5.2-4.4-4.2-7.7c1-3.3,4.4-5.2,7.7-4.2c3.3,1,5.2,4.4,4.2,7.7C74,53,70.6,54.9,67.3,53.9z M66.5,65.9
	c-0.1,0-0.3,0-0.4-0.1L62,64.7c-0.4-0.1-0.7-0.4-0.9-0.7c-0.2-0.4-0.2-0.8-0.1-1.1l0.7-2.3c-1.2-0.7-2.2-1.6-3.2-2.6l-2.1,1.1
	c-0.7,0.4-1.7,0.1-2.1-0.6l-2.1-3.7C52,54.4,52,54,52.1,53.6c0.1-0.4,0.4-0.7,0.7-0.9l2-1.1c-0.4-1.3-0.5-2.7-0.5-4.1l-2.2-0.6
	c-0.4-0.1-0.7-0.4-0.9-0.7c-0.2-0.4-0.2-0.8-0.1-1.1l1.2-4.1c0.1-0.4,0.4-0.7,0.7-0.9c0.4-0.2,0.8-0.2,1.2-0.1l2.3,0.7
	c0.7-1.2,1.6-2.2,2.6-3.2l-1.1-2.1c-0.4-0.7-0.1-1.7,0.6-2.1c0,0,0,0,0,0l3.7-2c0.4-0.2,0.8-0.2,1.2-0.1c0.4,0.1,0.7,0.4,0.9,0.7
	l1.1,2c1.3-0.4,2.7-0.5,4.1-0.5l0.7-2.2c0.1-0.4,0.4-0.7,0.7-0.9c0.4-0.2,0.8-0.2,1.2-0.1l4.1,1.2c0.8,0.2,1.3,1.1,1,1.9l-0.7,2.3
	c1.2,0.7,2.2,1.6,3.2,2.6l2-1.1c0.3-0.2,0.8-0.3,1.2-0.1c0.4,0.1,0.7,0.4,0.9,0.7l2.1,3.7c0.4,0.7,0.1,1.6-0.6,2.1c0,0,0,0,0,0
	l-2.1,1.1c0.4,1.3,0.5,2.7,0.5,4.1l2.3,0.7c0.8,0.2,1.3,1.1,1,1.8c0,0,0,0,0,0l-1.2,4.1c-0.2,0.8-1.1,1.3-1.9,1l-2.3-0.7
	c-0.7,1.2-1.6,2.2-2.6,3.2l1.2,2c0.2,0.4,0.3,0.8,0.1,1.2c-0.1,0.4-0.4,0.7-0.7,0.9l-3.7,2c-0.7,0.4-1.6,0.1-2.1-0.6c0,0,0,0,0,0
	l-1.1-2.1c-1.3,0.4-2.7,0.5-4.1,0.5l-0.7,2.2c-0.1,0.4-0.4,0.7-0.7,0.9C67,65.9,66.7,65.9,66.5,65.9z M63,62.9l3.1,0.9l0.6-2.2
	c0.2-0.7,0.8-1.1,1.6-1.1c1.4,0.1,2.8-0.1,4.1-0.5c0.7-0.2,1.4,0.1,1.8,0.7l1.1,2l2.9-1.6l-1.1-2c-0.4-0.6-0.2-1.4,0.3-1.9
	c1-0.9,1.9-2.1,2.6-3.3c0.3-0.6,1.1-0.9,1.7-0.7l2.2,0.6l0.9-3.2l-2.2-0.6c-0.7-0.2-1.1-0.8-1.1-1.5c0.1-1.4-0.1-2.8-0.5-4.1
	c-0.2-0.7,0.1-1.4,0.7-1.8l0,0l2-1.1l-1.6-2.9l-2,1.1c-0.6,0.3-1.4,0.2-1.9-0.3c-0.9-1.1-2.1-1.9-3.3-2.6c-0.6-0.3-0.9-1.1-0.7-1.7
	l0.6-2.2l-3.2-0.9l-0.6,2.2c-0.2,0.7-0.8,1.1-1.6,1.1c-1.4-0.1-2.8,0.1-4.1,0.5c-0.7,0.2-1.4-0.1-1.8-0.7l-1.1-2l-2.9,1.6l1.1,2
	c0.3,0.6,0.2,1.4-0.3,1.9c-1.1,0.9-1.9,2.1-2.7,3.3c-0.4,0.6-1.1,0.9-1.7,0.7L54.1,42l-0.9,3.1l2.2,0.6c0.7,0.2,1.1,0.8,1.1,1.6
	c-0.1,1.4,0.1,2.8,0.5,4.1c0.2,0.7-0.1,1.4-0.7,1.8l-2,1.1l1.6,2.9l2-1.1c0.6-0.3,1.4-0.2,1.9,0.3c0.9,1.1,2.1,1.9,3.3,2.6
	c0.6,0.3,0.9,1.1,0.7,1.7L63,62.9z M75.5,63.2L75.5,63.2z M68.7,62.2L68.7,62.2z M54.8,47.7L54.8,47.7z M82.8,44.5L82.8,44.5z
	 M69.3,33.8L69.3,33.8z M69,55.2c-0.7,0-1.4-0.1-2-0.3c-3.8-1.1-5.9-5-4.8-8.8s5-5.9,8.8-4.8c3.8,1.1,5.9,5,4.8,8.8
	C74.9,53.1,72.1,55.2,69,55.2z M69,42.8c-2.9,0-5.2,2.3-5.2,5.2c0,0.9,0.2,1.7,0.6,2.5c0.7,1.2,1.8,2.1,3.1,2.5l0,0
	c2.7,0.8,5.6-0.8,6.4-3.5c0.8-2.8-0.8-5.6-3.5-6.4C70,42.9,69.5,42.8,69,42.8L69,42.8z M69,42.9c-2.9,0-5.2,2.3-5.2,5.2
	c0,0.9,0.2,1.7,0.6,2.5c0.7,1.2,1.8,2.1,3.1,2.5l0,0c2.7,0.8,5.6-0.8,6.4-3.5c0.8-2.8-0.8-5.6-3.5-6.4C70,43,69.5,42.9,69,42.9
	L69,42.9z M66.5,66c-0.1,0-0.3,0-0.4-0.1L62,64.8c-0.4-0.1-0.7-0.4-0.9-0.7c-0.2-0.4-0.2-0.8-0.1-1.1l0.7-2.3
	c-1.2-0.7-2.2-1.6-3.2-2.6l-2.1,1.1c-0.7,0.4-1.7,0.1-2.1-0.6l-2.1-3.7c-0.2-0.4-0.2-0.8-0.1-1.2c0.1-0.4,0.4-0.7,0.7-0.9l2-1.1
	c-0.4-1.3-0.5-2.7-0.5-4.1L52.2,47c-0.4-0.1-0.7-0.4-0.9-0.7c-0.2-0.4-0.2-0.8-0.1-1.1l1.2-4.1c0.1-0.4,0.4-0.7,0.7-0.9
	c0.4-0.2,0.8-0.2,1.2-0.1l2.3,0.7c0.7-1.2,1.6-2.2,2.6-3.2l-1.1-2.1c-0.4-0.7-0.1-1.7,0.6-2.1c0,0,0,0,0,0l3.7-2
	c0.4-0.2,0.8-0.2,1.2-0.1c0.4,0.1,0.7,0.4,0.9,0.7l1.1,2c1.3-0.4,2.7-0.5,4.1-0.5l0.7-2.2c0.1-0.4,0.4-0.7,0.7-0.9
	c0.4-0.2,0.8-0.2,1.2-0.1l4.1,1.2c0.8,0.2,1.3,1.1,1,1.9l-0.7,2.3c1.2,0.7,2.2,1.6,3.2,2.6l2-1.1c0.3-0.2,0.8-0.3,1.2-0.1
	c0.4,0.1,0.7,0.4,0.9,0.7l2.1,3.7c0.4,0.7,0.1,1.6-0.6,2.1c0,0,0,0,0,0l-2.1,1.1c0.4,1.3,0.5,2.7,0.5,4.1l2.3,0.7
	c0.8,0.2,1.3,1.1,1,1.8c0,0,0,0,0,0l-1.2,4.1c-0.2,0.8-1.1,1.3-1.9,1l-2.3-0.7c-0.7,1.2-1.6,2.2-2.6,3.2l1.2,2
	c0.2,0.4,0.3,0.8,0.1,1.2c-0.1,0.4-0.4,0.7-0.7,0.9l-3.7,2c-0.7,0.4-1.6,0.1-2.1-0.6c0,0,0,0,0,0l-1.1-2.1c-1.3,0.4-2.7,0.5-4.1,0.5
	l-0.7,2.2c-0.1,0.4-0.4,0.7-0.7,0.9C67,65.9,66.7,66,66.5,66z"/>
<path id="Shape_1076_copy" class="st3" d="M56.2,17.4L56.2,17.4z M63,62.9l3.1,0.9l0.6-2.2c0.2-0.7,0.8-1.1,1.6-1.1
	c1.4,0.1,2.8-0.1,4.1-0.5c0.7-0.2,1.4,0.1,1.8,0.7l1.1,2l2.9-1.6l-1.1-2c-0.4-0.6-0.2-1.4,0.3-1.9c1-0.9,1.9-2.1,2.6-3.3
	c0.3-0.6,1.1-0.9,1.7-0.7l2.2,0.6l0.9-3.2l-2.2-0.6c-0.7-0.2-1.1-0.8-1.1-1.5c0.1-1.4-0.1-2.8-0.5-4.1c-0.2-0.7,0.1-1.4,0.7-1.8l0,0
	l2-1.1l-1.6-2.9l-2,1.1c-0.6,0.3-1.4,0.2-1.9-0.3c-0.9-1.1-2.1-1.9-3.3-2.6c-0.6-0.3-0.9-1.1-0.7-1.7l0.6-2.2l-3.2-0.9l-0.6,2.2
	c-0.2,0.7-0.8,1.1-1.6,1.1c-1.4-0.1-2.8,0.1-4.1,0.5c-0.7,0.2-1.4-0.1-1.8-0.7l-1.1-2l-2.9,1.6l1.1,2c0.3,0.6,0.2,1.4-0.3,1.9
	c-1.1,0.9-1.9,2.1-2.7,3.3c-0.4,0.6-1.1,0.9-1.7,0.7L54.1,42l-0.9,3.1l2.2,0.6c0.7,0.2,1.1,0.8,1.1,1.6c-0.1,1.4,0.1,2.8,0.5,4.1
	c0.2,0.7-0.1,1.4-0.7,1.8l-2,1.1l1.6,2.9l2-1.1c0.6-0.3,1.4-0.2,1.9,0.3c0.9,1.1,2.1,1.9,3.3,2.6c0.6,0.3,0.9,1.1,0.7,1.7L63,62.9z
	 M75.5,63.2L75.5,63.2z M68.7,62.2L68.7,62.2z M54.8,47.7L54.8,47.7z M82.8,44.5L82.8,44.5z M69.3,33.8L69.3,33.8z M69,55.2
	c-0.7,0-1.4-0.1-2-0.3c-3.8-1.1-5.9-5-4.8-8.8s5-5.9,8.8-4.8c3.8,1.1,5.9,5,4.8,8.8C74.9,53.1,72.1,55.2,69,55.2z"/>
</svg>
