<svg xmlns="http://www.w3.org/2000/svg" width="170" height="110" viewBox="0 0 170 110">
  <metadata><?xpacket begin="﻿" id="W5M0MpCehiHzreSzNTczkc9d"?>
<x:xmpmeta xmlns:x="adobe:ns:meta/" x:xmptk="Adobe XMP Core 5.6-c138 79.159824, 2016/09/14-01:09:01        ">
   <rdf:RDF xmlns:rdf="http://www.w3.org/1999/02/22-rdf-syntax-ns#">
      <rdf:Description rdf:about=""/>
   </rdf:RDF>
</x:xmpmeta>
                                                                                                    
                                                                                                    
                                                                                                    
                                                                                                    
                                                                                                    
                                                                                                    
                                                                                                    
                                                                                                    
                                                                                                    
                                                                                                    
                                                                                                    
                                                                                                    
                                                                                                    
                                                                                                    
                                                                                                    
                                                                                                    
                                                                                                    
                                                                                                    
                                                                                                    
                                                                                                    
                           
<?xpacket end="w"?></metadata>
<defs>
    <style>
      .cls-1 {
        fill: #f0f7f5;
        fill-rule: evenodd;
      }
    </style>
  </defs>
  <path id="icon_bg" class="cls-1" d="M730,6161.99h22a5,5,0,0,0,0-10H734a5,5,0,0,1,0-10h59a5,5,0,0,0,0-10H780a5,5,0,0,1,0-10h67a5,5,0,0,0,0-10H740a5,5,0,0,1,0-10h53a4.971,4.971,0,0,0,5-5c0-2.76,17.808-5,15-5h-8a5,5,0,0,1,0-10h14a5,5,0,1,0,0-10H730a5,5,0,0,1,0-10H875a5,5,0,0,1,0,10H839a5,5,0,1,0,0,10h36a5,5,0,0,1,0,10H813a5,5,0,0,0,0,10h61a5,5,0,0,1,0,10h-7a5,5,0,0,0,0,10h7a5,5,0,0,1,0,10H813a5,5,0,0,0,0,10h57a5,5,0,0,1,0,10H772a5,5,0,0,0,0,10h18a5,5,0,1,1,0,10H730A5,5,0,1,1,730,6161.99Zm150,0H810a5,5,0,0,0,0,10h70A5,5,0,0,0,880,6161.99Zm-95-80H720a5,5,0,0,0,0,10h65A5,5,0,0,0,785,6081.99ZM720,6122h40a5,5,0,0,1,0,10H720A5,5,0,0,1,720,6122Z" transform="translate(-715 -6062)"/>
</svg>
