<?xml version="1.0" encoding="utf-8"?>
<!-- Generator: Adobe Illustrator 21.1.0, SVG Export Plug-In . SVG Version: 6.00 Build 0)  -->
<svg version="1.1" id="Layer_1" xmlns="http://www.w3.org/2000/svg" xmlns:xlink="http://www.w3.org/1999/xlink" x="0px" y="0px"
	 viewBox="0 0 860 700" style="enable-background:new 0 0 860 700;" xml:space="preserve">
<style type="text/css">
	.st0{fill:#EDF5F2;}
	.st1{fill:#E5EDE9;}
	.st2{fill:#69A58F;}
</style>
<path id="Shape_1056_copy_2" class="st0" d="M321,685.9H539l38.4,9.1l-294.8,0.2L321,685.9z"/>
<path id="Shape_1056_copy_4" class="st1" d="M539,685.9H321l12.5-93.8h194.9L539,685.9z"/>
<path id="Shape_1056_copy_3" class="st1" d="M575.4,700H284.6l-1.9-4.8l294.7-0.2L575.4,700z"/>
<path class="st0" d="M0,513.5v57.9c0,11.8,9.6,21.4,21.4,21.4h817.2c11.8,0,21.3-9.6,21.4-21.4v-57.9H0z M860,21.4
	C860,9.6,850.4,0,838.6,0H21.4C9.6,0,0,9.6,0,21.4v492.1h860V21.4z M829.7,484.9H30.3V28.5h799.4V484.9z"/>
</svg>
