<?xml version="1.0" encoding="utf-8"?>
<!-- Generator: Adobe Illustrator 21.1.0, SVG Export Plug-In . SVG Version: 6.00 Build 0)  -->
<svg version="1.1" id="_1" xmlns="http://www.w3.org/2000/svg" xmlns:xlink="http://www.w3.org/1999/xlink" x="0px" y="0px"
	 viewBox="0 0 76 111" style="enable-background:new 0 0 76 111;" xml:space="preserve">
<style type="text/css">
	.st0{fill:#226D4F;}
	.st1{fill:#16D488;}
	.st2{fill:#C1ECDB;}
</style>
<path id="Rounded_Rectangle_3" class="st0" d="M72,109h-9c0,1.1-0.9,2-2,2H15c-1.1,0-2-0.9-2-2H4c-2.2,0-4-1.8-4-4v-9.9
	c0-21,17-38,38-38s38,17,38,38v9.9C76,107.2,74.2,109,72,109z"/>
<path id="Shape_1028_copy" class="st1" d="M61,95v14H15V95H2c0-19.9,16.1-36,36-36s36,16.1,36,36H61z"/>
<circle class="st0" cx="38" cy="63" r="14"/>
<circle id="Ellipse_670_copy" class="st2" cx="38" cy="63" r="12"/>
<path id="Shape_1028_copy_3" class="st2" d="M13,97v10H4c-1.1,0-2-0.9-2-2v-8H13z"/>
<path id="Shape_1028_copy_6" class="st2" d="M63,97v10h9c1.1,0,2-0.9,2-2v-8H63z"/>
<path id="Shape_1028_copy_2" class="st0" d="M63.7,69c0.4,0.5,0.9,1,1.3,1.6c-1.4,2.2-2,4.8-2,7.4v29h-2V78
	C61,74.8,61.9,71.7,63.7,69z"/>
<path id="Shape_1028_copy_5" class="st0" d="M12.3,69c-0.4,0.5-0.9,1-1.3,1.6c1.4,2.2,2,4.8,2,7.4v29h2V78
	C15,74.8,14.1,71.7,12.3,69z"/>
<path id="Shape_1028_copy_4" class="st0" d="M2,99h11v2H2V99z M63,99h11v2H63V99z"/>
<path id="Shape_1028_copy_10" class="st1" d="M2,97h11v2H2V97z M63,97h11v2H63V97z"/>
<path id="Shape_1022_copy_3" class="st0" d="M66,44h-4c-2.2,0-4-1.8-4-4v-5c0-2.2,1.8-4,4-4h4c2.2,0,4,1.8,4,4v5
	C70,42.2,68.2,44,66,44z M14,44h-4c-2.2,0-4-1.8-4-4v-5c0-2.2,1.8-4,4-4h4c2.2,0,4,1.8,4,4v5C18,42.2,16.2,44,14,44z"/>
<path id="Shape_1022_copy_4" class="st2" d="M10,33c-1.1,0-2,0.9-2,2v5c0,1.1,0.9,2,2,2h4c1.1,0,2-0.9,2-2v-5c0-1.1-0.9-2-2-2H10z
	 M62,33c-1.1,0-2,0.9-2,2v5c0,1.1,0.9,2,2,2h4c1.1,0,2-0.9,2-2v-5c0-1.1-0.9-2-2-2H62z"/>
<path id="Rounded_Rectangle_5" class="st0" d="M27,92h-6c-1.1,0-2-0.9-2-2v-3c0-1.1,0.9-2,2-2h2v-1c0-0.6,0.4-1,1-1s1,0.4,1,1v1h2
	c1.1,0,2,0.9,2,2v3C29,91.1,28.1,92,27,92z"/>
<rect x="21" y="87" class="st2" width="6" height="3"/>
<path class="st0" d="M38,71c-15.5,0-28-12.5-28-28V28C10,12.5,22.5,0,38,0s28,12.5,28,28v15C66,58.5,53.5,71,38,71z"/>
<path id="Shape_1022_copy" class="st2" d="M38,69c-14.4,0-26-11.6-26-26V28C12,13.6,23.6,2,38,2s26,11.6,26,26v15
	C64,57.4,52.4,69,38,69z"/>
<path id="Shape_1022_copy_2" class="st0" d="M28,37c-1.1,0-2,0.9-2,2s0.9,2,2,2s2-0.9,2-2S29.1,37,28,37z M48.3,37c-1.1,0-2,0.9-2,2
	s0.9,2,2,2s2-0.9,2-2S49.4,37,48.3,37z"/>
<path class="st0" d="M37.9,58c-3,0-5.9-1.2-8-3.4l1.5-1.5c3.4,3.6,9.1,3.8,12.7,0.4c0.1-0.1,0.3-0.3,0.4-0.4l1.5,1.5
	C43.8,56.8,40.9,58,37.9,58z"/>
<path class="st0" d="M10.1,28v2.3C22.3,26.1,31,14.6,31,1c0,0,0-0.1,0-0.1C19,4.1,10.1,15,10.1,28z"/>
<path class="st1" d="M29,1.5C18,5.3,10.1,15.7,10.1,28v0.2C21,24.1,28.8,13.8,29,1.5z"/>
<path class="st0" d="M18.7,7.9C26.9,18.3,39.7,25,54,25c4.1,0,8-0.5,11.7-1.6C63.6,10.1,52,0,38.1,0C30.6,0,23.7,3,18.7,7.9z"/>
<path class="st1" d="M20.2,6.5C28,16.5,40.3,23,54,23c3.9,0,7.7-0.5,11.4-1.5C62.4,9.2,51.3,0,38.1,0C31.3,0,25,2.5,20.2,6.5z"/>
<path id="Rounded_Rectangle_7" class="st0" d="M33,45H22c-2.2,0-4-1.8-4-4v-4c0-2.2,1.8-4,4-4h11c2.2,0,4,1.8,4,4v4
	C37,43.2,35.2,45,33,45z M35,37c0-1.1-0.9-2-2-2H22c-1.1,0-2,0.9-2,2v4c0,1.1,0.9,2,2,2h11c1.1,0,2-0.9,2-2V37z M54,45H43
	c-2.2,0-4-1.8-4-4v-4c0-2.2,1.8-4,4-4h11c2.2,0,4,1.8,4,4v4C58,43.2,56.2,45,54,45z M56,37c0-1.1-0.9-2-2-2H43c-1.1,0-2,0.9-2,2v4
	c0,1.1,0.9,2,2,2h11c1.1,0,2-0.9,2-2V37z M36,35h4c0.6,0,1,0.4,1,1s-0.4,1-1,1h-4c-0.6,0-1-0.4-1-1S35.4,35,36,35z"/>
<path class="st0" d="M38,0C22.5,0,10,12.5,10,28v15c0,15.5,12.5,28,28,28c15.5,0,28-12.5,28-28V28C66,12.5,53.5,0,38,0z M64,43
	c0,14.4-11.6,26-26,26c-14.4,0-26-11.6-26-26V28C12,13.6,23.6,2,38,2c14.4,0,26,11.6,26,26V43z"/>
</svg>
