<svg id="_1_1" data-name="1_1" xmlns="http://www.w3.org/2000/svg" width="205" height="153.06" viewBox="0 0 205 153.06">
  <metadata><?xpacket begin="﻿" id="W5M0MpCehiHzreSzNTczkc9d"?>
<x:xmpmeta xmlns:x="adobe:ns:meta/" x:xmptk="Adobe XMP Core 5.6-c138 79.159824, 2016/09/14-01:09:01        ">
   <rdf:RDF xmlns:rdf="http://www.w3.org/1999/02/22-rdf-syntax-ns#">
      <rdf:Description rdf:about=""/>
   </rdf:RDF>
</x:xmpmeta>
                                                                                                    
                                                                                                    
                                                                                                    
                                                                                                    
                                                                                                    
                                                                                                    
                                                                                                    
                                                                                                    
                                                                                                    
                                                                                                    
                                                                                                    
                                                                                                    
                                                                                                    
                                                                                                    
                                                                                                    
                                                                                                    
                                                                                                    
                                                                                                    
                                                                                                    
                                                                                                    
                           
<?xpacket end="w"?></metadata>
<defs>
    <style>
      .cls-1, .cls-3 {
        fill: #16d488;
      }

      .cls-1, .cls-2, .cls-3 {
        fill-rule: evenodd;
      }

      .cls-1 {
        opacity: 0.3;
      }

      .cls-2 {
        fill: #226d4f;
      }

      .cls-2, .cls-3 {
        opacity: 0.5;
      }
    </style>
  </defs>
  <path id="Rectangle_131_copy_14" data-name="Rectangle 131 copy 14" class="cls-1" d="M420.656,4212.07L418,4209.41l-2.657,2.66-1.414-1.42,2.656-2.65-2.656-2.66,1.414-1.42,2.657,2.66,2.656-2.66,1.415,1.42-2.657,2.66,2.657,2.65Z" transform="translate(-259 -4203.94)"/>
  <path id="Rectangle_175_copy_13" data-name="Rectangle 175 copy 13" class="cls-2" d="M439,4353h-3v3a1,1,0,0,1-2,0v-3h-3a1,1,0,0,1,0-2h3v-3a1,1,0,0,1,2,0v3h3A1,1,0,0,1,439,4353Z" transform="translate(-259 -4203.94)"/>
  <path id="Rounded_Rectangle_10_copy_10" data-name="Rounded Rectangle 10 copy 10" class="cls-2" d="M267,4292h-7a1,1,0,0,1-1-1v-7a1,1,0,0,1,1-1h7a1,1,0,0,1,1,1v7A1,1,0,0,1,267,4292Zm-1-7h-5v5h5v-5Z" transform="translate(-259 -4203.94)"/>
  <path id="Shape_988_copy_2" data-name="Shape 988 copy 2" class="cls-2" d="M437.334,4227.76a0.49,0.49,0,0,1,.461.32l1.836,4.84,4.841,1.84a0.491,0.491,0,0,1,0,.92l-4.841,1.84-1.836,4.84a0.493,0.493,0,0,1-.923,0l-1.836-4.84-4.84-1.84a0.491,0.491,0,0,1,0-.92l4.84-1.84,1.836-4.84a0.49,0.49,0,0,1,.462-0.32m0-2.03a2.5,2.5,0,0,0-2.359,1.63l-1.512,3.99-3.987,1.51a2.525,2.525,0,0,0,0,4.72l3.987,1.51,1.512,3.99a2.521,2.521,0,0,0,4.717,0l1.513-3.99,3.986-1.51a2.525,2.525,0,0,0,0-4.72l-3.986-1.51-1.513-3.99a2.5,2.5,0,0,0-2.358-1.63h0Z" transform="translate(-259 -4203.94)"/>
  <path id="Rectangle_133_copy_2" data-name="Rectangle 133 copy 2" class="cls-3" d="M286.8,4351.61l-2.6,1.5-1.732,1-1-1.73-1.5-2.6-4.331,2.5-1-1.73,4.331-2.5,1.732-1,2.5,4.33,2.6-1.5,1.732-1,2.5,4.33,4.33-2.5,1,1.73-4.33,2.5-1.732,1Z" transform="translate(-259 -4203.94)"/>
  <path id="Ellipse_40_copy" data-name="Ellipse 40 copy" class="cls-3" d="M458,4302a6,6,0,1,1,6-6A6,6,0,0,1,458,4302Zm0-10a4,4,0,1,0,4,4A4,4,0,0,0,458,4292Z" transform="translate(-259 -4203.94)"/>
  <path id="Rectangle_175_copy_19" data-name="Rectangle 175 copy 19" class="cls-3" d="M286,4234h-3v3a1,1,0,0,1-2,0v-3h-3a1,1,0,0,1,0-2h3v-3a1,1,0,0,1,2,0v3h3A1,1,0,0,1,286,4234Z" transform="translate(-259 -4203.94)"/>
</svg>
