<svg xmlns="http://www.w3.org/2000/svg" width="300" height="180" viewBox="0 0 300 180">
  <metadata><?xpacket begin="﻿" id="W5M0MpCehiHzreSzNTczkc9d"?>
<x:xmpmeta xmlns:x="adobe:ns:meta/" x:xmptk="Adobe XMP Core 5.6-c138 79.159824, 2016/09/14-01:09:01        ">
   <rdf:RDF xmlns:rdf="http://www.w3.org/1999/02/22-rdf-syntax-ns#">
      <rdf:Description rdf:about=""/>
   </rdf:RDF>
</x:xmpmeta>
                                                                                                    
                                                                                                    
                                                                                                    
                                                                                                    
                                                                                                    
                                                                                                    
                                                                                                    
                                                                                                    
                                                                                                    
                                                                                                    
                                                                                                    
                                                                                                    
                                                                                                    
                                                                                                    
                                                                                                    
                                                                                                    
                                                                                                    
                                                                                                    
                                                                                                    
                                                                                                    
                           
<?xpacket end="w"?></metadata>
<defs>
    <style>
      .cls-1 {
        fill: #e0eee9;
        fill-rule: evenodd;
      }
    </style>
  </defs>
  <path id="_1_bg" data-name="1_bg" class="cls-1" d="M303,4300h22a10,10,0,0,1,0,20H223a10,10,0,0,0,0,20h43a10,10,0,0,1,0,20H252a10,10,0,0,0,0,20H465.834a10,10,0,1,0,0-20H306a10,10,0,0,1,0-20h99.834a10,10,0,1,0,0-20H365a10,10,0,0,1,0-20H500.886a10,10,0,1,0-.052-20H409a10,10,0,0,1,0-20h93.834a10,10,0,1,0,0-20H364a10,10,0,0,1,0-20H479a10,10,0,0,0,0-20H241a10,10,0,0,0,0,20h83.006a10,10,0,0,1-.006,20H242a10,10,0,0,0,0,20H369a10,10,0,0,1,0,20H303A10,10,0,0,0,303,4300Zm194,20H446a10,10,0,0,0,0,20h51A10,10,0,0,0,497,4320Zm-234-40H232a10,10,0,0,0,0,20h31A10,10,0,0,0,263,4280Z" transform="translate(-213 -4200)"/>
</svg>
