<svg id="_2" data-name="2" xmlns="http://www.w3.org/2000/svg" width="80" height="99" viewBox="0 0 80 99">
  <metadata><?xpacket begin="﻿" id="W5M0MpCehiHzreSzNTczkc9d"?>
<x:xmpmeta xmlns:x="adobe:ns:meta/" x:xmptk="Adobe XMP Core 5.6-c138 79.159824, 2016/09/14-01:09:01        ">
   <rdf:RDF xmlns:rdf="http://www.w3.org/1999/02/22-rdf-syntax-ns#">
      <rdf:Description rdf:about=""/>
   </rdf:RDF>
</x:xmpmeta>
                                                                                                    
                                                                                                    
                                                                                                    
                                                                                                    
                                                                                                    
                                                                                                    
                                                                                                    
                                                                                                    
                                                                                                    
                                                                                                    
                                                                                                    
                                                                                                    
                                                                                                    
                                                                                                    
                                                                                                    
                                                                                                    
                                                                                                    
                                                                                                    
                                                                                                    
                                                                                                    
                           
<?xpacket end="w"?></metadata>
<defs>
    <style>
      .cls-1, .cls-4 {
        fill: #226d4f;
      }

      .cls-2, .cls-5 {
        fill: #16d488;
      }

      .cls-3 {
        fill: #c1ecdb;
      }

      .cls-3, .cls-4, .cls-5 {
        fill-rule: evenodd;
      }
    </style>
  </defs>
  <rect id="Shape_990_copy_30" data-name="Shape 990 copy 30" class="cls-1" width="80" height="99" rx="6" ry="6"/>
  <rect id="Shape_990_copy_30-2" data-name="Shape 990 copy 30" class="cls-2" x="2" y="2" width="76" height="95" rx="4" ry="4"/>
  <path id="Rectangle_52_copy_15" data-name="Rectangle 52 copy 15" class="cls-3" d="M768,4333h68v-73H768v73h0Z" transform="translate(-762 -4240)"/>
  <rect class="cls-1" y="14" width="78" height="2"/>
  <circle id="Ellipse_665_copy" data-name="Ellipse 665 copy" class="cls-1" cx="40" cy="56" r="24"/>
  <circle id="Ellipse_665_copy_2" data-name="Ellipse 665 copy 2" class="cls-2" cx="40" cy="56" r="22"/>
  <circle id="Ellipse_665_copy_3" data-name="Ellipse 665 copy 3" class="cls-1" cx="40" cy="56" r="18"/>
  <path id="Ellipse_573_copy_2" data-name="Ellipse 573 copy 2" class="cls-4" d="M832,4245a3,3,0,1,1-3,3A3,3,0,0,1,832,4245Zm0,2a1,1,0,1,1-1,1A1,1,0,0,1,832,4247Z" transform="translate(-762 -4240)"/>
  <path id="Ellipse_573_copy_3" data-name="Ellipse 573 copy 3" class="cls-4" d="M771,4245a3,3,0,1,1-3,3A3,3,0,0,1,771,4245Zm0,2a1,1,0,1,1-1,1A1,1,0,0,1,771,4247Z" transform="translate(-762 -4240)"/>
  <path class="cls-4" d="M818,4296.07a16,16,0,1,1-31.811-2.38,25.418,25.418,0,0,0,15.25,2.88,7.157,7.157,0,0,0,3.024-1.2,10.916,10.916,0,0,1,4.656-1.87,11.029,11.029,0,0,1,8.746,2.44C817.91,4295.98,817.949,4296.03,818,4296.07Z" transform="translate(-762 -4240)"/>
  <path id="Shape_1027_copy" data-name="Shape 1027 copy" class="cls-5" d="M802,4312a16,16,0,0,1-16-16c0-.04.006-0.08,0.006-0.13a26.931,26.931,0,0,0,15.73,2.69,9.262,9.262,0,0,0,3.861-1.54,8.952,8.952,0,0,1,3.819-1.53,8.943,8.943,0,0,1,8.342,3.19A15.991,15.991,0,0,1,802,4312Z" transform="translate(-762 -4240)"/>
  <path id="Ellipse_573_copy_4" data-name="Ellipse 573 copy 4" class="cls-4" d="M780,4245a3,3,0,1,1-3,3A3,3,0,0,1,780,4245Zm0,2a1,1,0,1,1-1,1A1,1,0,0,1,780,4247Z" transform="translate(-762 -4240)"/>
  <path id="Ellipse_573_copy_5" data-name="Ellipse 573 copy 5" class="cls-4" d="M789,4245a3,3,0,1,1-3,3A3,3,0,0,1,789,4245Zm0,2a1,1,0,1,1-1,1A1,1,0,0,1,789,4247Z" transform="translate(-762 -4240)"/>
</svg>
