<svg xmlns="http://www.w3.org/2000/svg" width="300" height="180" viewBox="0 0 300 180">
  <metadata><?xpacket begin="﻿" id="W5M0MpCehiHzreSzNTczkc9d"?>
<x:xmpmeta xmlns:x="adobe:ns:meta/" x:xmptk="Adobe XMP Core 5.6-c138 79.159824, 2016/09/14-01:09:01        ">
   <rdf:RDF xmlns:rdf="http://www.w3.org/1999/02/22-rdf-syntax-ns#">
      <rdf:Description rdf:about=""/>
   </rdf:RDF>
</x:xmpmeta>
                                                                                                    
                                                                                                    
                                                                                                    
                                                                                                    
                                                                                                    
                                                                                                    
                                                                                                    
                                                                                                    
                                                                                                    
                                                                                                    
                                                                                                    
                                                                                                    
                                                                                                    
                                                                                                    
                                                                                                    
                                                                                                    
                                                                                                    
                                                                                                    
                                                                                                    
                                                                                                    
                           
<?xpacket end="w"?></metadata>
<defs>
    <style>
      .cls-1 {
        fill: #e0eee9;
        fill-rule: evenodd;
      }
    </style>
  </defs>
  <path id="_2_bg" data-name="2_bg" class="cls-1" d="M938.834,4340H890a10,10,0,0,0,0,20h38a10,10,0,0,1,0,20H677a10,10,0,0,1,0-20H850.006a10,10,0,0,0-.006-20H678a10,10,0,0,1,0-20h27a10,10,0,0,0,0-20H659a10,10,0,0,1,0-20h92a10,10,0,0,0,0-20H723a10,10,0,0,1,0-20H842a10,10,0,0,0,0-20H668a10,10,0,0,1,0-20H921.834a10,10,0,1,1,0,20H882a10,10,0,0,0,0,20h19.834a10,10,0,1,1,0,20H791a10,10,0,0,0,0,20h15.886a10,10,0,1,1-.052,20H745a10,10,0,0,0,0,20H938.834A10,10,0,1,1,938.834,4340ZM898,4300H847a10,10,0,0,1,0-20h51A10,10,0,0,1,898,4300Z" transform="translate(-649 -4200)"/>
</svg>
