<?xml version="1.0" encoding="utf-8"?>
<!-- Generator: Adobe Illustrator 21.1.0, SVG Export Plug-In . SVG Version: 6.00 Build 0)  -->
<svg version="1.1" id="_3" xmlns="http://www.w3.org/2000/svg" xmlns:xlink="http://www.w3.org/1999/xlink" x="0px" y="0px"
	 viewBox="0 0 76 111" style="enable-background:new 0 0 76 111;" xml:space="preserve">
<style type="text/css">
	.st0{fill:#226D4F;}
	.st1{fill:#16D488;}
	.st2{fill:#C1ECDB;}
</style>
<path id="Rounded_Rectangle_3_copy" class="st0" d="M72,109h-9c0,1.1-0.9,2-2,2H15c-1.1,0-2-0.9-2-2H4c-2.2,0-4-1.8-4-4v-9.9
	c0-21,17-38,38-38s38,17,38,38v9.9C76,107.2,74.2,109,72,109z"/>
<path id="Shape_1028_copy_7" class="st1" d="M72,107H61v2H15l-1-0.6V107H4c-1.1,0-2-0.9-2-2V95c0-19.9,16.1-36,36-36s36,16.1,36,36
	v10C74,106.1,73.1,107,72,107z"/>
<path id="Shape_1028_copy_7-2" class="st0" d="M63.7,69c0.4,0.5,0.9,1,1.3,1.6c-1.4,2.2-2,4.8-2,7.4v31l-2,1V78
	C61,74.8,61.9,71.7,63.7,69z"/>
<path id="Shape_1028_copy_7-3" class="st0" d="M12.3,69c-0.4,0.5-0.9,1-1.3,1.6c1.4,2.2,2,4.8,2,7.4v31l2,1V78
	C15,74.8,14.1,71.7,12.3,69z"/>
<path id="Ellipse_670_copy_5" class="st0" d="M40.5,83c0.8,0,1.5,0.7,1.5,1.5S41.3,86,40.5,86S39,85.3,39,84.5S39.7,83,40.5,83z
	 M40.5,91c0.8,0,1.5,0.7,1.5,1.5S41.3,94,40.5,94S39,93.3,39,92.5S39.7,91,40.5,91z M40.5,99c0.8,0,1.5,0.7,1.5,1.5
	s-0.7,1.5-1.5,1.5s-1.5-0.7-1.5-1.5S39.7,99,40.5,99z"/>
<rect x="36" y="73" class="st0" width="2" height="37"/>
<path class="st0" d="M38,77c-0.6,0-1.1-0.2-1.5-0.6l-3.9-3.9c-0.8-0.8-0.8-2.1,0-3l3.9-3.9c0.8-0.8,2.1-0.8,3,0l3.9,3.9
	c0.8,0.8,0.8,2.1,0,3l-3.9,3.9C39.1,76.8,38.6,77,38,77z M38,66c0.3,0,0.6,0.1,0.8,0.3l3.9,3.9c0.4,0.4,0.4,1.1,0,1.5c0,0,0,0,0,0
	l-3.9,3.9c-0.4,0.4-1.1,0.4-1.5,0c0,0,0,0,0,0l-3.9-3.9c-0.4-0.4-0.4-1.1,0-1.5c0,0,0,0,0,0l3.9-3.9C37.4,66.1,37.7,66,38,66 M38,64
	c-0.8,0-1.6,0.3-2.2,0.9l-3.9,3.9c-1.2,1.2-1.2,3.2,0,4.4c0,0,0,0,0,0l3.9,3.9c1.2,1.2,3.2,1.2,4.4,0c0,0,0,0,0,0l3.9-3.9
	c1.2-1.2,1.2-3.2,0-4.4c0,0,0,0,0,0l-3.9-3.9C39.6,64.3,38.8,64,38,64L38,64L38,64z M38,64c-0.8,0-1.6,0.3-2.2,0.9l-3.9,3.9
	c-1.2,1.2-1.2,3.2,0,4.4c0,0,0,0,0,0l3.9,3.9c1.2,1.2,3.2,1.2,4.4,0c0,0,0,0,0,0l3.9-3.9c1.2-1.2,1.2-3.2,0-4.4c0,0,0,0,0,0
	l-3.9-3.9C39.6,64.3,38.8,64,38,64L38,64L38,64z"/>
<path id="Shape_1029_copy" class="st2" d="M38,66c0.3,0,0.6,0.1,0.8,0.3l3.9,3.9c0.4,0.4,0.4,1.1,0,1.5c0,0,0,0,0,0l-3.9,3.9
	c-0.4,0.4-1.1,0.4-1.5,0c0,0,0,0,0,0l-3.9-3.9c-0.4-0.4-0.4-1.1,0-1.5c0,0,0,0,0,0l3.9-3.9C37.4,66.1,37.7,66,38,66"/>
<path id="Shape_1031_copy_3" class="st0" d="M48.1,78.2c-0.5,1.1-1.6,1.8-2.8,1.8h0c-1.2,0-2.3-0.7-2.8-1.8l-4.6-10v-0.1l-4.5,9.9
	c-0.5,1.1-1.6,1.8-2.7,1.8h0c-1.2,0-2.3-0.7-2.7-1.8l-7.7-17.6l35.5,0L48.1,78.2z"/>
<path id="Shape_1031_copy_2" class="st1" d="M46.2,77.4c-0.1,0.4-0.5,0.6-0.9,0.6c-0.4,0-0.8-0.2-0.9-0.6l-6.3-14L38,63.5v0
	l-0.1-0.1l-6.3,13.8c-0.2,0.4-0.5,0.6-0.9,0.6c-0.4,0-0.8-0.2-0.9-0.6L22.3,60h31.5L46.2,77.4z"/>
<path id="Shape_1022_copy_6" class="st0" d="M66,44h-4c-2.2,0-4-1.8-4-4v-5c0-2.2,1.8-4,4-4h4c2.2,0,4,1.8,4,4v5
	C70,42.2,68.2,44,66,44z M14,44h-4c-2.2,0-4-1.8-4-4v-5c0-2.2,1.8-4,4-4h4c2.2,0,4,1.8,4,4v5C18,42.2,16.2,44,14,44z"/>
<path id="Shape_1022_copy_6-2" class="st2" d="M10,33c-1.1,0-2,0.9-2,2v5c0,1.1,0.9,2,2,2h4c1.1,0,2-0.9,2-2v-5c0-1.1-0.9-2-2-2H10z
	 M62,33c-1.1,0-2,0.9-2,2v5c0,1.1,0.9,2,2,2h4c1.1,0,2-0.9,2-2v-5c0-1.1-0.9-2-2-2H62z"/>
<path id="Shape_1022_copy_6-3" class="st0" d="M38,0L38,0c15.5,0,28,12.5,28,28v15c0,15.5-12.5,28-28,28l0,0c-15.5,0-28-12.5-28-28
	V28C10,12.5,22.5,0,38,0z"/>
<path id="Shape_1022_copy_6-4" class="st2" d="M38,69c-14.4,0-26-11.6-26-26V28C12,13.6,23.6,2,38,2s26,11.6,26,26v15
	C64,57.4,52.4,69,38,69z"/>
<path class="st0" d="M16,11h-0.2C12.1,15.7,10,21.6,10,28v5h5c2.2,0,4-1.8,4-4V14C19,12.3,17.7,11,16,11z"/>
<path class="st1" d="M10.1,31H15c1.1,0,2-0.9,2-2V11c0-0.4-0.1-0.7-0.3-1c-4.1,4.9-6.6,11.2-6.6,18V31z"/>
<path class="st0" d="M57,14v15c0,2.2,1.8,4,4,4h5v-5c0-6.4-2.1-12.3-5.8-17H60C58.3,11,57,12.3,57,14z"/>
<path class="st1" d="M59,11v18c0,1.1,0.9,2,2,2h5v-3c0-6.9-2.5-13.2-6.7-18.1C59.1,10.2,59,10.6,59,11z"/>
<path class="st0" d="M13.1,15.5C20.2,20.2,28.8,23,38,23c9.3,0,17.9-2.8,25.1-7.6C58.5,6.2,49,0,38.1,0C27.2,0,17.7,6.3,13.1,15.5z"
	/>
<path class="st1" d="M38,21c8.9,0,17.2-2.7,24-7.3C57.2,5.5,48.2,0,38,0S18.8,5.5,14,13.7C20.8,18.3,29.1,21,38,21z"/>
<path id="Shape_1022_copy_6-5" class="st0" d="M28,37c-1.1,0-2,0.9-2,2s0.9,2,2,2s2-0.9,2-2C30,37.9,29.1,37,28,37z M48.3,37
	c-1.1,0-2,0.9-2,2s0.9,2,2,2s2-0.9,2-2C50.2,37.9,49.4,37,48.3,37z"/>
<path id="Shape_1026_copy" class="st0" d="M37.9,58c-3,0-5.9-1.2-8-3.4l1.4-1.5c3.4,3.6,9.1,3.8,12.7,0.4c0.1-0.1,0.3-0.3,0.4-0.4
	l1.4,1.5C43.8,56.8,40.9,58,37.9,58z"/>
<path id="Shape_1022_copy_5" class="st0" d="M38,46h-2v-9c0-1.1-0.9-2-2-2H21v-2h13c2.2,0,4,1.8,4,4V46z M55,35H44v-2h11V35z"/>
<path class="st0" d="M37.9,0c-15.5,0-28,12.5-28,28v15c0,15.5,12.5,28,28,28s28-12.5,28-28V28C65.9,12.5,53.4,0,37.9,0z M63.9,43
	c0,14.4-11.6,26-26,26c-14.4,0-26-11.6-26-26V28c0-14.4,11.6-26,26-26s26,11.6,26,26V43z"/>
</svg>
