<svg id="_3_1" data-name="3_1" xmlns="http://www.w3.org/2000/svg" width="205.81" height="116" viewBox="0 0 205.81 116">
  <metadata><?xpacket begin="﻿" id="W5M0MpCehiHzreSzNTczkc9d"?>
<x:xmpmeta xmlns:x="adobe:ns:meta/" x:xmptk="Adobe XMP Core 5.6-c138 79.159824, 2016/09/14-01:09:01        ">
   <rdf:RDF xmlns:rdf="http://www.w3.org/1999/02/22-rdf-syntax-ns#">
      <rdf:Description rdf:about=""/>
   </rdf:RDF>
</x:xmpmeta>
                                                                                                    
                                                                                                    
                                                                                                    
                                                                                                    
                                                                                                    
                                                                                                    
                                                                                                    
                                                                                                    
                                                                                                    
                                                                                                    
                                                                                                    
                                                                                                    
                                                                                                    
                                                                                                    
                                                                                                    
                                                                                                    
                                                                                                    
                                                                                                    
                                                                                                    
                                                                                                    
                           
<?xpacket end="w"?></metadata>
<defs>
    <style>
      .cls-1 {
        fill: #226d4f;
      }

      .cls-1, .cls-2, .cls-3 {
        fill-rule: evenodd;
        opacity: 0.5;
      }

      .cls-2 {
        fill: #16d488;
      }

      .cls-3 {
        fill: #2c7457;
      }
    </style>
  </defs>
  <path id="Rectangle_175_copy_18" data-name="Rectangle 175 copy 18" class="cls-1" d="M1325,4336h-3v3a1,1,0,0,1-2,0v-3h-3a1,1,0,0,1,0-2h3v-3a1,1,0,0,1,2,0v3h3A1,1,0,0,1,1325,4336Z" transform="translate(-1131 -4224)"/>
  <path id="Rounded_Rectangle_10_copy_13" data-name="Rounded Rectangle 10 copy 13" class="cls-1" d="M1157,4338h-7a1,1,0,0,1-1-1v-7a1,1,0,0,1,1-1h7a1,1,0,0,1,1,1v7A1,1,0,0,1,1157,4338Zm-1-7h-5v5h5v-5Z" transform="translate(-1131 -4224)"/>
  <path id="Ellipse_40_copy_4" data-name="Ellipse 40 copy 4" class="cls-2" d="M1137,4286a6,6,0,1,1,6-6A6,6,0,0,1,1137,4286Zm0-10a4,4,0,1,0,4,4A4,4,0,0,0,1137,4276Z" transform="translate(-1131 -4224)"/>
  <path id="Shape_988_copy_4" data-name="Shape 988 copy 4" class="cls-2" d="M1327.33,4272.76a0.511,0.511,0,0,1,.47.32l1.83,4.84,4.84,1.84a0.489,0.489,0,0,1,0,.92l-4.84,1.84-1.83,4.84a0.511,0.511,0,0,1-.47.32,0.489,0.489,0,0,1-.46-0.32l-1.83-4.84-4.84-1.84a0.489,0.489,0,0,1,0-.92l4.84-1.84,1.83-4.84a0.489,0.489,0,0,1,.46-0.32m0-2.03a2.518,2.518,0,0,0-2.36,1.63l-1.51,3.99-3.98,1.51a2.523,2.523,0,0,0,0,4.72l3.98,1.51,1.51,3.99a2.529,2.529,0,0,0,4.72,0l1.51-3.99,3.99-1.51a2.523,2.523,0,0,0,0-4.72l-3.99-1.51-1.51-3.99a2.5,2.5,0,0,0-2.36-1.63h0Z" transform="translate(-1131 -4224)"/>
  <path id="Rectangle_133_copy_4" data-name="Rectangle 133 copy 4" class="cls-3" d="M1153.8,4234.61l-2.6,1.5-1.73,1-1-1.73-1.5-2.6-4.33,2.5-1-1.73,4.33-2.5,1.73-1,2.5,4.33,2.6-1.5,1.73-1,2.5,4.33,4.33-2.5,1,1.73-4.33,2.5-1.73,1Z" transform="translate(-1131 -4224)"/>
  <path id="Ellipse_40_copy_3" data-name="Ellipse 40 copy 3" class="cls-1" d="M1312,4236a6,6,0,1,1,6-6A6,6,0,0,1,1312,4236Zm0-10a4,4,0,1,0,4,4A4,4,0,0,0,1312,4226Z" transform="translate(-1131 -4224)"/>
</svg>
