<svg xmlns="http://www.w3.org/2000/svg" width="294" height="180" viewBox="0 0 294 180">
  <metadata><?xpacket begin="﻿" id="W5M0MpCehiHzreSzNTczkc9d"?>
<x:xmpmeta xmlns:x="adobe:ns:meta/" x:xmptk="Adobe XMP Core 5.6-c138 79.159824, 2016/09/14-01:09:01        ">
   <rdf:RDF xmlns:rdf="http://www.w3.org/1999/02/22-rdf-syntax-ns#">
      <rdf:Description rdf:about=""/>
   </rdf:RDF>
</x:xmpmeta>
                                                                                                    
                                                                                                    
                                                                                                    
                                                                                                    
                                                                                                    
                                                                                                    
                                                                                                    
                                                                                                    
                                                                                                    
                                                                                                    
                                                                                                    
                                                                                                    
                                                                                                    
                                                                                                    
                                                                                                    
                                                                                                    
                                                                                                    
                                                                                                    
                                                                                                    
                                                                                                    
                           
<?xpacket end="w"?></metadata>
<defs>
    <style>
      .cls-1 {
        fill: #e0eee9;
        fill-rule: evenodd;
      }
    </style>
  </defs>
  <path id="_3_bg" data-name="3_bg" class="cls-1" d="M1108,4240h107a10,10,0,0,0,0-20h-97a10,10,0,0,1,0-20h225.83a10,10,0,1,1,0,20H1255a10,10,0,0,0,0,20h113.83a10,10,0,1,1,0,20H1335a10,10,0,0,0,0,20h21.83a10,10,0,1,1,0,20H1347a10,10,0,0,0,0,20h25a10,10,0,0,1,0,20H1252a10,10,0,0,1,0-20h55a10,10,0,0,0,0-20H1181a10,10,0,0,0,0,20h30.83a10,10,0,1,1,0,20H1192a10,10,0,0,0,0,20h159.83a10,10,0,1,1,0,20H1118a10,10,0,0,1,0-20h34a10,10,0,0,0,0-20h-19a10,10,0,0,1,0-20h8a10,10,0,0,0,0-20h-43a10,10,0,0,1,0-20h197a10,10,0,0,0,0-20H1108A10,10,0,0,1,1108,4240Z" transform="translate(-1088 -4200)"/>
</svg>
