<?xml version="1.0" encoding="utf-8"?>
<!-- Generator: Adobe Illustrator 21.1.0, SVG Export Plug-In . SVG Version: 6.00 Build 0)  -->
<svg version="1.1" id="_1" xmlns="http://www.w3.org/2000/svg" xmlns:xlink="http://www.w3.org/1999/xlink" x="0px" y="0px"
	 viewBox="0 0 75 74" style="enable-background:new 0 0 75 74;" xml:space="preserve">
<style type="text/css">
	.st0{fill:#226D4F;}
	.st1{fill:#16D488;}
	.st2{fill:#C1ECDB;}
</style>
<path id="Shape_1008_copy_2" class="st0" d="M9.6,65c-4.2,0-7.8-3-8.5-7.2H1v-1.2h0.1c0.6-5.1,4.2-9.3,9.2-10.5
	c-2.9-1.4-4.8-4.3-4.8-7.6c0.1-4.7,4-8.5,8.7-8.4c4.6,0.1,8.4,3.8,8.4,8.4c0,3.3-1.9,6.2-4.8,7.6c5,1.2,8.6,5.4,9.2,10.5H27v1.2
	h-0.1C26.2,62,22.6,65,18.4,65H9.6L9.6,65z M14,31c4.1,0.1,7.4,3.5,7.3,7.6c-0.1,4.1-3.5,7.4-7.6,7.3c-4-0.1-7.3-3.4-7.3-7.4
	C6.5,34.3,9.9,31,14,31 M14.6,46.7c6-0.1,10.9,4.5,11.3,10.5C25.6,61,22.4,64,18.4,64H9.6c-3.9,0-7.2-3-7.6-6.9
	c0.4-5.9,5.4-10.5,11.3-10.5H14.6 M26,56.6v1.2c0-0.2,0-0.4,0-0.7C26,56.9,26,56.8,26,56.6 M2,56.6c0,0.2,0,0.4,0,0.6
	c0,0.2,0,0.4,0,0.7V56.6 M14,29c-5.3,0-9.5,4.2-9.6,9.4c0,2.9,1.3,5.6,3.6,7.3c-4.4,1.9-7.4,6-7.9,10.8H0v1.2h0.1
	C0.8,62.5,4.8,66,9.6,66h8.8c4.8,0,8.8-3.5,9.5-8.2H28v-1.2h-0.1c-0.5-4.8-3.5-8.9-7.9-10.8c2.2-1.8,3.5-4.5,3.6-7.3
	C23.5,33.2,19.3,29,14,29L14,29z M14,29c-5.3,0-9.5,4.2-9.6,9.4c0,2.9,1.3,5.6,3.6,7.3c-4.4,1.9-7.4,6-7.9,10.8H0v1.2h0.1
	C0.8,62.5,4.8,66,9.6,66h8.8c4.8,0,8.8-3.5,9.5-8.2H28v-1.2h-0.1c-0.5-4.8-3.5-8.9-7.9-10.8c2.2-1.8,3.5-4.5,3.6-7.3
	C23.5,33.2,19.3,29,14,29L14,29z"/>
<path id="Shape_1008_copy_2-2" class="st1" d="M14,31c4.1,0.1,7.4,3.5,7.3,7.6c-0.1,4.1-3.5,7.4-7.6,7.3c-4-0.1-7.3-3.4-7.3-7.4
	C6.5,34.3,9.9,31,14,31 M14.6,46.7c6-0.1,10.9,4.5,11.3,10.5C25.6,61,22.4,64,18.4,64H9.6c-3.9,0-7.2-3-7.6-6.9
	c0.4-5.9,5.4-10.5,11.3-10.5H14.6 M26,56.6v1.2c0-0.2,0-0.4,0-0.7C26,56.9,26,56.8,26,56.6 M2,56.6c0,0.2,0,0.4,0,0.6
	c0,0.2,0,0.4,0,0.7V56.6"/>
<path class="st0" d="M54.9,33.4C65.7,35.9,73.7,45,74.9,56H75v2.7h-0.2c-1.4,8.8-9,15.3-17.9,15.3H38.1c-8.9,0-16.5-6.5-17.9-15.3
	H20V56h0.1c1.2-11,9.2-20.1,19.9-22.6 M47.5,0C57.2,0,65,7.8,65,17.5S57.2,35,47.5,35S30,27.2,30,17.5S37.8,0,47.5,0
	C47.5,0,47.5,0,47.5,0L47.5,0z"/>
<path id="Shape_1006_copy" class="st1" d="M72.9,57.2c0-0.4,0-0.8,0-1.2v2.7C73,58.2,73,57.7,72.9,57.2z M56.9,72H38.1
	c-8.4,0-15.4-6.4-16.1-14.8c0.8-12.7,11.4-22.6,24.1-22.5h2.7c12.7,0,23.3,9.8,24.1,22.5C72.3,65.6,65.3,72,56.9,72L56.9,72z M22,56
	c0,0.4,0,0.8,0,1.2c0,0.5,0,1,0,1.5V56L22,56z"/>
<circle id="Shape_1006_copy_5" class="st1" cx="47.5" cy="17.5" r="15.5"/>
<path class="st2" d="M48.8,39c10.5-0.1,19.2,7.9,20.2,18.3C68.3,63.4,63.1,68,56.9,68H38.1c-6.2,0-11.4-4.6-12.1-10.7
	c0.9-10.4,9.7-18.4,20.2-18.3H48.8"/>
</svg>
