<svg xmlns="http://www.w3.org/2000/svg" width="172" height="110" viewBox="0 0 172 110">
  <metadata><?xpacket begin="﻿" id="W5M0MpCehiHzreSzNTczkc9d"?>
<x:xmpmeta xmlns:x="adobe:ns:meta/" x:xmptk="Adobe XMP Core 5.6-c138 79.159824, 2016/09/14-01:09:01        ">
   <rdf:RDF xmlns:rdf="http://www.w3.org/1999/02/22-rdf-syntax-ns#">
      <rdf:Description rdf:about=""/>
   </rdf:RDF>
</x:xmpmeta>
                                                                                                    
                                                                                                    
                                                                                                    
                                                                                                    
                                                                                                    
                                                                                                    
                                                                                                    
                                                                                                    
                                                                                                    
                                                                                                    
                                                                                                    
                                                                                                    
                                                                                                    
                                                                                                    
                                                                                                    
                                                                                                    
                                                                                                    
                                                                                                    
                                                                                                    
                                                                                                    
                           
<?xpacket end="w"?></metadata>
<defs>
    <style>
      .cls-1 {
        fill: #f0f7f5;
        fill-rule: evenodd;
      }
    </style>
  </defs>
  <path id="_1_bg" data-name="1_bg" class="cls-1" d="M436,1753H355a5,5,0,0,0,0,10h78a5,5,0,0,1,0,10h-9a5,5,0,0,0,0,10h7a5,5,0,0,1,0,10H390a5,5,0,0,0,0,10h56a5,5,0,0,1,0,10H433a5,5,0,0,0,0,10h8a5,5,0,0,1,0,10H395a5,5,0,0,0,0,10h38a5,5,0,0,1,0,10H289a5,5,0,0,1,0-10h86a5,5,0,0,0,0-10H339a5,5,0,0,1,0-10h74a5,5,0,0,0,0-10H286a5,5,0,0,1,0-10h74a5,5,0,0,0,0-10H316a5,5,0,0,1,0-10h88a5,5,0,0,0,0-10H284a5,5,0,0,1,0-10h51a5,5,0,0,0,0-10H300a5,5,0,0,1,0-10H436A5,5,0,0,1,436,1753Z" transform="translate(-279 -1743)"/>
</svg>
