<svg id="_2" data-name="2" xmlns="http://www.w3.org/2000/svg" width="78" height="86" viewBox="0 0 78 86">
  <metadata><?xpacket begin="﻿" id="W5M0MpCehiHzreSzNTczkc9d"?>
<x:xmpmeta xmlns:x="adobe:ns:meta/" x:xmptk="Adobe XMP Core 5.6-c138 79.159824, 2016/09/14-01:09:01        ">
   <rdf:RDF xmlns:rdf="http://www.w3.org/1999/02/22-rdf-syntax-ns#">
      <rdf:Description rdf:about=""/>
   </rdf:RDF>
</x:xmpmeta>
                                                                                                    
                                                                                                    
                                                                                                    
                                                                                                    
                                                                                                    
                                                                                                    
                                                                                                    
                                                                                                    
                                                                                                    
                                                                                                    
                                                                                                    
                                                                                                    
                                                                                                    
                                                                                                    
                                                                                                    
                                                                                                    
                                                                                                    
                                                                                                    
                                                                                                    
                                                                                                    
                           
<?xpacket end="w"?></metadata>
<defs>
    <style>
      .cls-1, .cls-3 {
        fill: #226d4f;
      }

      .cls-1, .cls-2 {
        fill-rule: evenodd;
      }

      .cls-2 {
        fill: #16d488;
      }

      .cls-4 {
        fill: #c1ecdb;
      }
    </style>
  </defs>
  <path class="cls-1" d="M769.684,1837.99a4.421,4.421,0,0,1-3.13-1.26c-2.455-2.32-2.551-7.14-2.554-7.34v-26.92c0-6.98,3.23-12.76,5.59-16.98a35.9,35.9,0,0,0,2.154-4.23c0.827-2.16,1.61-9.22,2.147-19.37a2,2,0,0,1,2-1.89h6.222a2,2,0,0,1,2,1.89c0.536,10.15,1.32,17.21,2.147,19.37a36.053,36.053,0,0,0,2.154,4.23c2.359,4.22,5.59,10,5.59,16.98v26.9c0,0.22-.1,5.04-2.554,7.36a4.491,4.491,0,0,1-3.389,1.25H769.9A1.555,1.555,0,0,1,769.684,1837.99Z" transform="translate(-764 -1758)"/>
  <path id="Shape_1025_copy" data-name="Shape 1025 copy" class="cls-2" d="M775.889,1762c-0.394,7.43-1.108,16.92-2.278,19.98a37.6,37.6,0,0,1-2.275,4.49c-2.378,4.25-5.336,9.54-5.336,16v26.91c0.019,1.14.4,4.46,1.93,5.9a2.534,2.534,0,0,0,1.927.71l18.242-.01a2.525,2.525,0,0,0,1.973-.7c1.534-1.45,1.912-4.76,1.928-5.92v-26.89c0-6.46-2.958-11.75-5.336-16a37.449,37.449,0,0,1-2.275-4.49h0c-1.17-3.06-1.884-12.55-2.278-19.98h-6.222Z" transform="translate(-764 -1758)"/>
  <rect class="cls-3" x="1" y="45" width="29" height="13"/>
  <rect id="Rectangle_188_copy" data-name="Rectangle 188 copy" class="cls-4" x="2" y="47" width="26" height="9"/>
  <rect class="cls-3" x="9" width="12" height="6" rx="2" ry="2"/>
  <rect class="cls-4" x="11" y="2" width="8" height="2"/>
  <path class="cls-1" d="M840,1844H789a1.994,1.994,0,0,1-2-1.99v-43.73a5.94,5.94,0,0,1,1.2-3.58l4.8-6.36v-5.37a3,3,0,0,1,3-2.99h37a3,3,0,0,1,3,2.99v5.37l4.8,6.36a5.94,5.94,0,0,1,1.2,3.58v43.73A1.994,1.994,0,0,1,840,1844Z" transform="translate(-764 -1758)"/>
  <path id="Shape_1009_copy" data-name="Shape 1009 copy" class="cls-2" d="M830,1842h-2v-0.05H789v-43.67a3.97,3.97,0,0,1,.8-2.38l4.8-6.35,0.4-.53v-6.03a1,1,0,0,1,1-.99h37a1,1,0,0,1,1,.99v5.04l0.875,2.15,4.325,5.72a3.97,3.97,0,0,1,.8,2.38v43.67H830V1842Z" transform="translate(-764 -1758)"/>
  <rect class="cls-4" x="29" y="44" width="31" height="36"/>
  <path class="cls-1" d="M808,1827.83c-4.411,0-8-4.26-8-9.49s3.589-9.49,8-9.49,8,4.26,8,9.49S812.411,1827.83,808,1827.83Zm0-16.96c-3.309,0-6,3.35-6,7.47s2.691,7.47,6,7.47,6-3.35,6-7.47S811.309,1810.87,808,1810.87Z" transform="translate(-764 -1758)"/>
  <path id="Shape_1009_copy_3" data-name="Shape 1009 copy 3" class="cls-1" d="M830,1843.93h-2v-45.72a6.963,6.963,0,0,1,1.4-4.17l4.8-6.36,1.6,1.19-4.8,6.36a4.983,4.983,0,0,0-1,2.98v45.72Z" transform="translate(-764 -1758)"/>
  <path class="cls-1" d="M789,1796h51v2H788Z" transform="translate(-764 -1758)"/>
  <path id="Rectangle_186_copy" data-name="Rectangle 186 copy" class="cls-1" d="M794,1788h41v2H793Z" transform="translate(-764 -1758)"/>
</svg>
