<svg id="_3" data-name="3" xmlns="http://www.w3.org/2000/svg" width="93" height="48" viewBox="0 0 93 48">
  <metadata><?xpacket begin="﻿" id="W5M0MpCehiHzreSzNTczkc9d"?>
<x:xmpmeta xmlns:x="adobe:ns:meta/" x:xmptk="Adobe XMP Core 5.6-c138 79.159824, 2016/09/14-01:09:01        ">
   <rdf:RDF xmlns:rdf="http://www.w3.org/1999/02/22-rdf-syntax-ns#">
      <rdf:Description rdf:about=""/>
   </rdf:RDF>
</x:xmpmeta>
                                                                                                    
                                                                                                    
                                                                                                    
                                                                                                    
                                                                                                    
                                                                                                    
                                                                                                    
                                                                                                    
                                                                                                    
                                                                                                    
                                                                                                    
                                                                                                    
                                                                                                    
                                                                                                    
                                                                                                    
                                                                                                    
                                                                                                    
                                                                                                    
                                                                                                    
                                                                                                    
                           
<?xpacket end="w"?></metadata>
<defs>
    <style>
      .cls-1, .cls-4 {
        fill: #226d4f;
      }

      .cls-1, .cls-2, .cls-3 {
        fill-rule: evenodd;
      }

      .cls-2 {
        fill: #16d488;
      }

      .cls-3 {
        fill: #c1ecdb;
      }
    </style>
  </defs>
  <path class="cls-1" d="M1278,1788h4a2,2,0,0,1,2,2v10a2.006,2.006,0,0,1-2,2h-4v-14h0Z" transform="translate(-1191 -1771)"/>
  <path id="Rectangle_184_copy" data-name="Rectangle 184 copy" class="cls-2" d="M1278,1790h4v10h-4v-10h0Z" transform="translate(-1191 -1771)"/>
  <path id="Shape_1006_copy_2" data-name="Shape 1006 copy 2" class="cls-1" d="M1195,1771.01h79.99a4,4,0,0,1,4,4V1815a4,4,0,0,1-4,4H1195a4,4,0,0,1-4-4v-39.99A4,4,0,0,1,1195,1771.01Z" transform="translate(-1191 -1771)"/>
  <path id="Shape_1006_copy_3" data-name="Shape 1006 copy 3" class="cls-2" d="M1195,1773.01h79.99a2,2,0,0,1,2,2V1815a1.993,1.993,0,0,1-2,2H1195a1.993,1.993,0,0,1-2-2v-39.99A2,2,0,0,1,1195,1773.01Z" transform="translate(-1191 -1771)"/>
  <path id="Shape_1006_copy_4" data-name="Shape 1006 copy 4" class="cls-3" d="M1197,1777.01h75.99V1813H1197v-35.99h0Z" transform="translate(-1191 -1771)"/>
  <rect class="cls-4" x="10" y="10" width="11" height="28" rx="2" ry="2"/>
  <path id="Rectangle_185_copy" data-name="Rectangle 185 copy" class="cls-2" d="M1210,1783h-7v24h7v-24Z" transform="translate(-1191 -1771)"/>
</svg>
