<svg id="_3_1" data-name="3_1" xmlns="http://www.w3.org/2000/svg" width="160" height="85.06" viewBox="0 0 160 85.06">
  <metadata><?xpacket begin="﻿" id="W5M0MpCehiHzreSzNTczkc9d"?>
<x:xmpmeta xmlns:x="adobe:ns:meta/" x:xmptk="Adobe XMP Core 5.6-c138 79.159824, 2016/09/14-01:09:01        ">
   <rdf:RDF xmlns:rdf="http://www.w3.org/1999/02/22-rdf-syntax-ns#">
      <rdf:Description rdf:about=""/>
   </rdf:RDF>
</x:xmpmeta>
                                                                                                    
                                                                                                    
                                                                                                    
                                                                                                    
                                                                                                    
                                                                                                    
                                                                                                    
                                                                                                    
                                                                                                    
                                                                                                    
                                                                                                    
                                                                                                    
                                                                                                    
                                                                                                    
                                                                                                    
                                                                                                    
                                                                                                    
                                                                                                    
                                                                                                    
                                                                                                    
                           
<?xpacket end="w"?></metadata>
<defs>
    <style>
      .cls-1 {
        fill: #16d488;
      }

      .cls-1, .cls-2 {
        fill-rule: evenodd;
        opacity: 0.5;
      }

      .cls-2 {
        fill: #226d4f;
      }
    </style>
  </defs>
  <path id="Rectangle_131_copy_3" data-name="Rectangle 131 copy 3" class="cls-1" d="M1300.66,1829.07l-2.66-2.66-2.66,2.66-1.41-1.42,2.66-2.65-2.66-2.66,1.41-1.41,2.66,2.65,2.66-2.65,1.41,1.41-2.66,2.66,2.66,2.65Z" transform="translate(-1156 -1744)"/>
  <path id="Rectangle_175_copy_2" data-name="Rectangle 175 copy 2" class="cls-1" d="M1165,1753h-3v3a1,1,0,0,1-2,0v-3h-3a1,1,0,0,1,0-2h3v-3a1,1,0,0,1,2,0v3h3A1,1,0,0,1,1165,1753Z" transform="translate(-1156 -1744)"/>
  <path id="Rectangle_175_copy_3" data-name="Rectangle 175 copy 3" class="cls-2" d="M1315,1780h-3v3a1,1,0,0,1-2,0v-3h-3a1,1,0,0,1,0-2h3v-3a1,1,0,0,1,2,0v3h3A1,1,0,0,1,1315,1780Z" transform="translate(-1156 -1744)"/>
  <path id="Ellipse_42_copy_3" data-name="Ellipse 42 copy 3" class="cls-2" d="M1168,1799a4,4,0,1,1,4-4A4,4,0,0,1,1168,1799Zm0-6a2,2,0,1,0,2,2A2,2,0,0,0,1168,1793Z" transform="translate(-1156 -1744)"/>
  <path id="Rounded_Rectangle_10_copy_5" data-name="Rounded Rectangle 10 copy 5" class="cls-1" d="M1276,1753h-7a1,1,0,0,1-1-1v-7a1,1,0,0,1,1-1h7a1,1,0,0,1,1,1v7A1,1,0,0,1,1276,1753Zm-1-7h-5v5h5v-5Z" transform="translate(-1156 -1744)"/>
</svg>
