<?xml version="1.0" standalone="no"?>
<!DOCTYPE svg PUBLIC "-//W3C//DTD SVG 1.1//EN" "http://www.w3.org/Graphics/SVG/1.1/DTD/svg11.dtd" >
<svg xmlns="http://www.w3.org/2000/svg">
<metadata>Generated by IcoMoon</metadata>
<defs>
<font id="icomoon" horiz-adv-x="1024">
<font-face units-per-em="1024" ascent="960" descent="-64" />
<missing-glyph horiz-adv-x="1024" />
<glyph unicode="&#x20;" d="" horiz-adv-x="512" />
<glyph unicode="&#xe600;" d="M512-85.333c-282.88 0-512 229.12-512 512 0 0 0 0 0 0s0 128 0 128c0 0 256-256 256-256s-105.6 0-105.6 0c46.080-129.28 159.36-225.92 297.6-249.6 0 0 0 313.6 0 313.6s-64 0-64 0c-35.2 0-64 28.8-64 64s28.8 64 64 64c0 0 64 0 64 0s0 75.52 0 75.52c-74.24 26.88-128 97.28-128 180.48 0 97.28 72.32 176.64 166.4 189.44 8.32 1.92 16.64 2.56 25.6 2.56s17.28-0.64 25.6-2.56c94.080-12.8 166.4-92.16 166.4-189.44 0-83.2-53.76-153.6-128-180.48 0 0 0-75.52 0-75.52s64 0 64 0c35.2 0 64-28.8 64-64s-28.8-64-64-64c0 0-64 0-64 0s0-313.6 0-313.6c138.24 23.68 251.52 120.32 297.6 249.6 0 0-105.6 0-105.6 0s256 256 256 256c0 0 0-128 0-128s0 0 0 0c0-282.88-229.12-512-512-512zM512 810.667c-35.2 0-64-28.8-64-64s28.8-64 64-64c35.2 0 64 28.8 64 64s-28.8 64-64 64z" />
<glyph unicode="&#xe601;" d="M832-85.333c0 0-640 0-640 0-106.24 0-192 85.76-192 192 0 0 0 640 0 640 0 83.2 53.76 153.6 128 180.48 0 0 0-84.48 0-84.48 0-53.12 42.88-96 96-96s96 42.88 96 96c0 0 0 96 0 96s384 0 384 0c0 0 0-96 0-96 0-53.12 42.88-96 96-96s96 42.88 96 96c0 0 0 84.48 0 84.48 74.24-26.88 128-97.28 128-180.48 0 0 0-640 0-640 0-106.24-85.76-192-192-192zM896 618.667c0 0-768 0-768 0s0-512 0-512c0-35.2 28.8-64 64-64 0 0 640 0 640 0 35.2 0 64 28.8 64 64 0 0 0 512 0 512zM640 298.667c0 0 128 0 128 0s0-128 0-128c0 0-128 0-128 0s0 128 0 128zM640 490.667c0 0 128 0 128 0s0-128 0-128c0 0-128 0-128 0s0 128 0 128zM448 298.667c0 0 128 0 128 0s0-128 0-128c0 0-128 0-128 0s0 128 0 128zM448 490.667c0 0 128 0 128 0s0-128 0-128c0 0-128 0-128 0s0 128 0 128zM256 298.667c0 0 128 0 128 0s0-128 0-128c0 0-128 0-128 0s0 128 0 128zM256 490.667c0 0 128 0 128 0s0-128 0-128c0 0-128 0-128 0s0 128 0 128zM800 810.667c-17.92 0-32 14.080-32 32 0 0 0 96 0 96s64 0 64 0c0 0 0-96 0-96 0-17.92-14.080-32-32-32zM224 810.667c-17.92 0-32 14.080-32 32 0 0 0 96 0 96s64 0 64 0c0 0 0-96 0-96 0-17.92-14.080-32-32-32z" />
<glyph unicode="&#xe602;" d="M608-85.333c-159.36 0-288 128.64-288 288s128.64 288 288 288c159.36 0 288-128.64 288-288s-128.64-288-288-288zM608 362.667c-88.32 0-160-71.68-160-160s71.68-160 160-160c88.32 0 160 71.68 160 160s-71.68 160-160 160zM768 598.827c0 0 0-84.48 0-84.48-9.6 5.12-19.2 10.24-28.8 14.72 18.56 20.48 28.8 43.52 28.8 69.76zM659.84 549.547c-17.28 2.56-33.92 5.12-51.84 5.12-74.24 0-143.36-23.68-200.32-62.72-7.68-0.64-15.36-1.28-23.68-1.28-211.84 0-384 85.76-384 192 0 0 0 64 0 64 0 106.24 172.16 192 384 192s384-85.76 384-192c0 0 0-64 0-64 0-51.84-41.6-98.56-108.16-133.12zM339.84 428.587c-29.44-35.2-51.84-76.16-65.92-120.96-158.080 23.68-273.92 96-273.92 183.040 0 0 0 108.16 0 108.16 0-98.56 149.12-161.92 339.84-170.24zM259.84 243.627c-1.28-13.44-3.84-26.88-3.84-40.96 0-30.080 5.12-58.24 12.16-86.4-155.52 24.96-268.16 96.64-268.16 182.4 0 0 0 108.16 0 108.16 0-84.48 109.44-142.72 259.84-163.2zM293.76 47.147c25.6-52.48 64-97.92 111.36-131.2-7.040-0.64-14.080-1.28-21.12-1.28-211.84 0-384 85.76-384 192 0 0 0 108.16 0 108.16 0-90.88 125.44-151.68 293.76-167.68z" horiz-adv-x="896" />
<glyph unicode="&#xe603;" d="M341.333-85.333c0 0 0 170.667 0 170.667s938.667 0 938.667 0c0 0 0-170.667 0-170.667s-938.667 0-938.667 0zM341.333 512c0 0 938.667 0 938.667 0s0-170.667 0-170.667c0 0-938.667 0-938.667 0s0 170.667 0 170.667zM341.333 938.667c0 0 938.667 0 938.667 0s0-170.667 0-170.667c0 0-938.667 0-938.667 0s0 170.667 0 170.667zM0 85.334c0 0 170.667 0 170.667 0s0-170.667 0-170.667c0 0-170.667 0-170.667 0s0 170.667 0 170.667zM0 512c0 0 170.667 0 170.667 0s0-170.667 0-170.667c0 0-170.667 0-170.667 0s0 170.667 0 170.667zM0 938.667c0 0 170.667 0 170.667 0s0-170.667 0-170.667c0 0-170.667 0-170.667 0s0 170.667 0 170.667z" horiz-adv-x="1280" />
<glyph unicode="&#xe604;" d="M384 42.667c0 0-384-128-384-128s128 384 128 384c0 0 640 640 640 640s256-256 256-256c0 0-640-640-640-640zM128 42.667c0 0 192 64 192 64s-128 128-128 128c0 0-64-192-64-192zM256 298.667c0 0 128-128 128-128s384 384 384 384c0 0-128 128-128 128s-384-384-384-384z" />
<glyph unicode="&#xe605;" d="M621.714 505.661c-20.48-21.211-57.783-56.32-111.909-105.326-15.36-14.629-27.063-26.331-35.84-37.303-9.509-10.24-16.091-20.48-20.48-29.257s-7.314-17.554-9.509-26.331c-2.926-8.777-5.851-24.869-10.971-46.811-7.314-47.543-33.646-70.949-78.263-70.217-23.406 0-42.423 8.046-58.514 24.137-16.091 15.36-24.869 38.766-24.869 69.486-0.731 38.766 4.389 71.68 16.091 99.474 10.971 27.794 25.6 52.663 44.617 73.874 19.017 20.48 44.617 45.349 76.8 74.606 27.794 24.869 48.274 43.886 60.709 57.051 12.434 12.434 23.406 27.063 31.451 43.154 8.777 15.36 12.434 32.914 12.434 51.931-0.731 36.571-14.629 67.291-40.96 92.891-27.063 25.6-61.44 38.766-103.131 39.497-49.006 0.731-84.846-11.703-108.251-36.571-22.674-24.869-41.691-62.171-57.051-111.177-14.629-51.931-42.423-76.8-84.846-76.8-24.869 0.731-46.080 10.24-63.634 28.526s-26.331 38.034-27.063 58.514c0 43.886 12.434 87.771 39.497 131.657 26.331 44.617 65.097 80.457 117.029 108.983s112.64 42.423 182.126 41.691c64.366-1.463 121.417-14.629 171.886-39.497 49.737-24.869 88.503-59.246 115.566-101.669 27.794-42.423 41.691-88.503 42.423-137.509 0.731-38.766-6.583-73.143-21.211-101.669-15.36-29.257-32.914-54.126-54.126-75.337zM362.789 127.513c28.526 0 51.931-10.24 71.68-29.989 19.017-20.48 29.257-44.617 29.989-73.143 0-32.183-9.509-57.051-29.257-75.337s-43.154-27.063-69.486-26.331c-27.063 0-50.469 9.509-70.949 27.794s-31.451 43.886-31.451 76.8c-0.731 28.526 8.777 52.663 27.794 71.68 19.749 19.749 43.154 29.257 71.68 28.526z" horiz-adv-x="658" />
<glyph unicode="&#xe606;" d="M960 362.667c0 0-64 0-64 0-1.92 0-3.84 1.28-6.4 1.28-9.6-58.88-32.64-113.28-65.92-160 1.92-1.28 3.84-1.92 5.12-3.84 0 0 45.44-44.8 45.44-44.8 24.96-24.96 24.96-65.92 0-90.88s-65.92-24.96-90.88 0c0 0-44.8 45.44-44.8 45.44-1.92 1.28-2.56 3.2-3.84 5.12-46.72-33.28-101.12-56.32-160-65.92 0-2.56 1.28-4.48 1.28-6.4 0 0 0-64 0-64 0-35.2-28.8-64-64-64s-64 28.8-64 64c0 0 0 64 0 64 0 1.92 1.28 3.84 1.28 6.4-58.88 9.6-113.28 32.64-160 65.92-1.28-1.92-1.92-3.84-3.84-5.12 0 0-44.8-45.44-44.8-45.44-24.96-24.96-65.92-24.96-90.88 0s-24.96 65.92 0 90.88c0 0 45.44 44.8 45.44 44.8 1.28 1.92 3.2 2.56 5.12 3.84-33.28 46.72-56.32 101.12-65.92 160-2.56 0-3.84-1.28-6.4-1.28 0 0-64 0-64 0-35.2 0-64 28.8-64 64s28.8 64 64 64c0 0 64 0 64 0 2.56 0 3.84-1.28 6.4-1.28 9.6 58.88 32.64 113.28 65.92 160-1.92 1.28-3.84 1.92-5.12 3.84 0 0-45.44 44.8-45.44 44.8-24.96 24.96-24.96 65.92 0 90.88s65.92 24.96 90.88 0c0 0 44.8-45.44 44.8-45.44 1.92-1.28 2.56-3.84 3.84-5.12 46.72 33.28 101.12 56.32 160 65.92 0 2.56-1.28 3.84-1.28 6.4 0 0 0 64 0 64 0 35.2 28.8 64 64 64s64-28.8 64-64c0 0 0-64 0-64 0-2.56-1.28-3.84-1.28-6.4 58.88-9.6 113.28-32.64 160-65.92 1.28 1.28 1.92 3.84 3.84 5.12 0 0 44.8 45.44 44.8 45.44 24.96 24.96 65.92 24.96 90.88 0s24.96-65.92 0-90.88c0 0-45.44-44.8-45.44-44.8-1.28-1.92-3.2-2.56-5.12-3.84 33.28-46.72 56.32-101.12 65.92-160 2.56 0 4.48 1.28 6.4 1.28 0 0 64 0 64 0 35.2 0 64-28.8 64-64s-28.8-64-64-64zM512 682.667c-141.44 0-256-114.56-256-256s114.56-256 256-256c141.44 0 256 114.56 256 256s-114.56 256-256 256z" />
<glyph unicode="&#xe607;" d="M832 106.667c0 0-128-192-128-192s-128 192-128 192c0 0-384 0-384 0-106.24 0-192 85.76-192 192 0 0 0 448 0 448 0 106.24 85.76 192 192 192 0 0 640 0 640 0 106.24 0 192-85.76 192-192 0 0 0-448 0-448 0-106.24-85.76-192-192-192zM896 746.667c0 35.2-28.8 64-64 64 0 0-640 0-640 0-35.2 0-64-28.8-64-64 0 0 0-448 0-448 0-35.2 28.8-64 64-64 0 0 426.88 0 426.88 0s85.12-128 85.12-128c0 0 85.12 128 85.12 128s42.88 0 42.88 0c35.2 0 64 28.8 64 64 0 0 0 448 0 448zM256 554.667c0 0 512 0 512 0s0-64 0-64c0 0-512 0-512 0s0 64 0 64zM256 682.667c0 0 512 0 512 0s0-64 0-64c0 0-512 0-512 0s0 64 0 64zM512 362.667c0 0-256 0-256 0s0 64 0 64c0 0 256 0 256 0s0-64 0-64z" />
<glyph unicode="&#xe608;" d="M896 490.667c-70.4 0-128 57.6-128 128 0-70.4-57.6-128-128-128s-128 57.6-128 128c0-70.4-57.6-128-128-128s-128 57.6-128 128c0-70.4-57.6-128-128-128s-128 57.6-128 128c0 0 128 320 128 320s768 0 768 0c0 0 128-320 128-320 0-70.4-57.6-128-128-128zM128 42.667c0 0 0 384 0 384 49.28 0 94.080 19.2 128 49.92 0 0 0-305.92 0-305.92s0 0 0 0 0-128 0-128c0 0-128 0-128 0zM896 426.667c0 0 0-384 0-384s-128 0-128 0c0 0 0 128 0 128s0 0 0 0 0 305.92 0 305.92c33.92-30.72 78.72-49.92 128-49.92zM256-85.333c0 0 64 0 64 0s0 128 0 128c0 0 384 0 384 0s0-128 0-128c0 0 64 0 64 0s0 64 0 64c0 0 192 0 192 0s0-64 0-64c0 0-896 0-896 0s0 64 0 64c0 0 192 0 192 0s0-64 0-64z" />
<glyph unicode="&#xe609;" d="M576-85.333c0 0-384 0-384 0-106.24 0-192 85.76-192 192 0 0 0 0 0 0 19.84 117.12 98.56 215.68 199.040 271.36-43.52 46.080-71.040 108.16-71.040 176.64 0 0 0 128 0 128 0 141.44 114.56 256 256 256s256-114.56 256-256c0 0 0-128 0-128 0-68.48-27.52-130.56-71.040-176.64 100.48-55.68 179.2-154.24 199.040-271.36 0 0 0 0 0 0 0-106.24-85.76-192-192-192zM512 554.667c0 0 0 128 0 128 0 70.4-57.6 128-128 128s-128-57.6-128-128c0 0 0-128 0-128 0-70.4 57.6-128 128-128s128 57.6 128 128zM640 106.667c-28.8 110.080-136.96 192-256 192 0 0 0 0 0 0s0 0 0 0c-119.040 0-227.2-81.92-256-192 0 0 0 0 0 0 0-35.2 28.8-64 64-64 0 0 384 0 384 0 35.2 0 64 28.8 64 64 0 0 0 0 0 0z" horiz-adv-x="768" />
<glyph unicode="&#xe60a;" d="M682.667-85.333c-512 0-682.667 512-682.667 512s170.667 512 682.667 512c512 0 682.667-512 682.667-512s-170.667-512-682.667-512zM682.667 768c-188.587 0-341.333-152.747-341.333-341.333s152.747-341.333 341.333-341.333c188.587 0 341.333 152.747 341.333 341.333s-152.747 341.333-341.333 341.333zM682.667 256c-93.867 0-170.667 76.8-170.667 170.667 0 2.56 0.853 5.973 0.853 8.533 13.653-5.12 27.307-8.533 41.813-8.533 70.827 0 128 57.173 128 128 0 14.507-3.413 28.16-8.533 41.813 2.56 0 5.973 0.853 8.533 0.853 93.867 0 170.667-76.8 170.667-170.667s-76.8-170.667-170.667-170.667z" horiz-adv-x="1365" />
<glyph unicode="&#xe60b;" d="M0-85.333c0 0 0 170.667 0 170.667s1280 0 1280 0c0 0 0-170.667 0-170.667s-1280 0-1280 0zM0 512c0 0 1280 0 1280 0s0-170.667 0-170.667c0 0-1280 0-1280 0s0 170.667 0 170.667zM0 938.667c0 0 1280 0 1280 0s0-170.667 0-170.667c0 0-1280 0-1280 0s0 170.667 0 170.667z" horiz-adv-x="1280" />
<glyph unicode="&#xe60c;" d="M993.92-55.253c-37.12-37.76-97.92-37.76-135.68 0 0 0-169.6 168.96-169.6 168.96-69.12-44.16-151.68-71.040-240.64-71.040-247.68 0-448 200.32-448 448s200.32 448 448 448c247.68 0 448-200.32 448-448 0-88.96-26.88-171.52-71.040-240.64 0 0 168.96-169.6 168.96-169.6 37.76-37.76 37.76-98.56 0-135.68zM448 810.667c-176.64 0-320-143.36-320-320s143.36-320 320-320c176.64 0 320 143.36 320 320s-143.36 320-320 320z" />
<glyph unicode="&#xe60d;" d="M512 938.667c-281.6 0-512-230.4-512-512s230.4-512 512-512 512 230.4 512 512c0 281.6-230.4 512-512 512zM522.24 119.467c0 0-23.040 248.32-76.8 304.64 87.040-43.52 120.32-258.56 120.32-258.56l-43.52-46.080zM568.32 257.707c20.48 79.36-40.96 235.52-189.44 212.48 53.76-81.92 12.8-204.8 87.040-240.64-217.6 5.12-128 322.56-261.12 343.040 204.8 94.72 358.4-17.92 396.8-140.8 10.24 20.48 23.040 40.96 40.96 48.64-15.36-15.36-25.6-53.76-33.28-89.6 5.12-51.2-7.68-97.28-40.96-133.12zM614.4 280.747v0c71.68 48.64 35.84 199.68 81.92 235.52-35.84-2.56-66.56-12.8-94.72-28.16-12.8 20.48-25.6 40.96-43.52 56.32 53.76 51.2 138.24 74.24 235.52 30.72-64-53.76-28.16-296.96-179.2-294.4z" />
<glyph unicode="&#xe60e;" d="M512 938.667c-281.6 0-512-230.4-512-512s230.4-512 512-512 512 230.4 512 512c0 281.6-230.4 512-512 512zM512 733.867c43.52 0 76.8-33.28 76.8-74.24s-33.28-74.24-76.8-74.24c-43.52 0-76.8 33.28-76.8 74.24s33.28 74.24 76.8 74.24zM762.88 303.787c-5.12-7.68-12.8-10.24-20.48-10.24-5.12 0-10.24 2.56-15.36 5.12l-89.6 61.44c-5.12 2.56-7.68 7.68-10.24 12.8v0l-25.6 58.88-12.8-89.6c5.12-2.56 43.52-25.6 84.48-51.2 23.040-15.36 43.52-25.6 43.52-58.88s-43.52-35.84-66.56-35.84h-184.32c-10.24 0-25.6 10.24-25.6 25.6 0 20.48 25.6 23.040 56.32 28.16 51.2 7.68 107.52 15.36 107.52 15.36l-79.36 25.6c0 0 2.56 2.56-33.28-10.24-46.080-15.36-81.92-25.6-81.92-53.76 0-25.6 20.48-28.16 20.48-28.16s-51.2 0-71.68 0c-30.72 0-51.2 15.36-51.2 35.84 0 25.6 20.48 38.4 48.64 61.44 25.6 17.92 74.24 46.080 79.36 48.64l-12.8 92.16-25.6-58.88c-2.56-5.12-5.12-10.24-10.24-12.8l-89.6-66.56c-5.12-2.56-10.24-5.12-15.36-5.12-7.68 0-15.36 2.56-20.48 10.24-7.68 10.24-5.12 25.6 5.12 33.28l81.92 56.32 35.84 125.44c2.56 7.68 10.24 12.8 17.92 15.36v2.56c0 0 58.88 25.6 110.080 25.6s110.080-25.6 110.080-25.6v-2.56c7.68-2.56 15.36-7.68 17.92-15.36l35.84-125.44 81.92-56.32c10.24-7.68 12.8-23.040 5.12-33.28z" />
<glyph unicode="&#xe60f;" d="M512 434.347c69.12 0 128 53.76 128 120.32s-56.32 120.32-128 120.32c-69.12 0-128-53.76-128-120.32s58.88-120.32 128-120.32zM581.12 613.547c-5.12-15.36-10.24-30.72-17.92-43.52-5.12-7.68-17.92 0-12.8 7.68 7.68 12.8 12.8 25.6 17.92 40.96 2.56 5.12 15.36 2.56 12.8-5.12zM529.92 598.187c7.68 7.68 12.8 17.92 17.92 28.16 2.56 7.68 15.36 0 12.8-7.68-5.12-12.8-12.8-23.040-20.48-33.28-5.12-5.12-15.36 5.12-10.24 12.8zM512 344.747c-81.92 0-151.040-40.96-151.040-92.16s66.56-71.68 151.040-71.68c81.92 0 151.040 20.48 151.040 71.68s-69.12 92.16-151.040 92.16zM512 201.387c-30.72 0-130.56 2.56-130.56 51.2 0 38.4 58.88 71.68 130.56 71.68s130.56-33.28 130.56-71.68c0-48.64-99.84-51.2-130.56-51.2zM512 938.667c-281.6 0-512-230.4-512-512s230.4-512 512-512 512 230.4 512 512c0 281.6-230.4 512-512 512zM512 708.267c89.6 0 163.84-69.12 163.84-153.6 0-71.68-53.76-133.12-122.88-148.48-12.8-2.56-23.040-5.12-35.84-5.12 0 0-2.56 0-2.56 0s-2.56 0-2.56 0c-12.8 0-25.6 2.56-35.84 5.12-71.68 15.36-122.88 76.8-122.88 148.48-5.12 84.48 69.12 153.6 158.72 153.6zM565.76 383.147c0-5.12-2.56-10.24-7.68-12.8-15.36 2.56-28.16 2.56-43.52 2.56s-30.72 0-43.52-2.56c-7.68 2.56-10.24 5.12-10.24 12.8s5.12 12.8 12.8 12.8c12.8-2.56 25.6-5.12 40.96-5.12 12.8 0 28.16 2.56 40.96 5.12 2.56 0 10.24-7.68 10.24-12.8zM512 145.067c-99.84 0-179.2 48.64-179.2 110.080 0 51.2 56.32 94.72 135.68 104.96 12.8 2.56 25.6 2.56 40.96 2.56 2.56 0 2.56 0 5.12 0s2.56 0 5.12 0c12.8 0 28.16-2.56 40.96-2.56 76.8-12.8 135.68-53.76 135.68-104.96-5.12-61.44-84.48-110.080-184.32-110.080z" />
<glyph unicode="&#xe610;" d="M512 938.667c-281.6 0-512-230.4-512-512s230.4-512 512-512 512 230.4 512 512c0 281.6-230.4 512-512 512zM599.040 119.467c-15.36 53.76-71.68 117.76-89.6 138.24s7.68 61.44 38.4 74.24c15.36 7.68 99.84-15.36 115.2 5.12 17.92 20.48-5.12 48.64-5.12 51.2 5.12 2.56 20.48 0 20.48 10.24 2.56 12.8-10.24 15.36-10.24 15.36s12.8 5.12 12.8 15.36c0 7.68-12.8 12.8-12.8 20.48 0 17.92 17.92 15.36 20.48 28.16 0 12.8-46.080 53.76-51.2 66.56s7.68 51.2-10.24 56.32c-17.92 5.12-17.92-20.48-25.6-28.16s-38.4-20.48-43.52-25.6c-7.68-5.12-12.8-40.96 10.24-38.4-15.36-15.36-23.040 0-28.16 2.56s-20.48-28.16-23.040-40.96c0-12.8 7.68-33.28 28.16-15.36 7.68-35.84-56.32-30.72-61.44-33.28-2.56-2.56-48.64-115.2-66.56-110.080-133.12 25.6-230.4 307.2-25.6 424.96 209.92 79.36 337.92-84.48 350.72-186.88 76.8-455.68-243.2-686.080-143.36-430.080z" />
<glyph unicode="&#xe611;" d="M512 938.667c-281.6 0-512-230.4-512-512s230.4-512 512-512 512 230.4 512 512c0 281.6-230.4 512-512 512zM663.040 426.667c35.84 0 64-28.16 64-64s-28.16-64-64-64c-35.84 0-64 28.16-64 64s28.16 64 64 64zM453.12 659.627c33.28 0 61.44-28.16 61.44-61.44s-28.16-61.44-61.44-61.44c-33.28 0-61.44 28.16-61.44 61.44 0 7.68 0 15.36 2.56 20.48 5.12 17.92 20.48 30.72 38.4 38.4 5.12 0 12.8 2.56 20.48 2.56zM399.36 682.667c10.24 0 20.48-5.12 25.6-15.36-10.24-2.56-20.48-10.24-28.16-17.92s-12.8-17.92-17.92-28.16c-7.68 5.12-15.36 15.36-15.36 28.16 5.12 17.92 17.92 33.28 35.84 33.28zM358.4 511.147c2.56 5.12 5.12 12.8 10.24 15.36s10.24 5.12 15.36 5.12c15.36 2.56 33.28-2.56 46.080-5.12 0 0 2.56 0 2.56 0s2.56 0 2.56 0 7.68-2.56 10.24-5.12c0 0 61.44-58.88 61.44-58.88 2.56-2.56 5.12-5.12 7.68-5.12l69.12-25.6c12.8-5.12 17.92-17.92 12.8-28.16-2.56-10.24-12.8-15.36-20.48-15.36-2.56 0-5.12 0-7.68 2.56l-76.8 30.72c-2.56 0-5.12 2.56-7.68 5.12l-28.16 28.16c0 0 0 0 0 0 7.68-25.6-23.040-35.84-33.28-56.32-2.56-5.12-5.12-10.24-7.68-17.92h-107.52c5.12 15.36 35.84 97.28 51.2 130.56zM739.84 221.867h-120.32c-2.56 0-7.68 0-10.24 2.56s-7.68 2.56-10.24 5.12l-35.84 17.92h-281.6c-12.8 0-25.6 17.92-25.6 28.16v53.76c0 10.24 10.24 20.48 23.040 20.48 0 0 243.2 0 261.12 0 10.24 0 12.8-2.56 20.48-7.68l74.24-69.12h107.52c15.36 0 28.16-10.24 28.16-25.6-2.56-12.8-15.36-25.6-30.72-25.6z" />
<glyph unicode="&#xe612;" d="M512 938.667c-281.6 0-512-230.4-512-512s230.4-512 512-512 512 230.4 512 512c0 281.6-230.4 512-512 512zM432.64 713.387c0 10.24 10.24 20.48 23.040 20.48h110.080c12.8 0 23.040-10.24 23.040-20.48v-212.48c0-2.56 0-2.56 0-5.12-2.56-7.68-10.24-15.36-20.48-15.36h-110.080c-10.24 0-17.92 5.12-20.48 12.8 0 2.56 0 5.12 0 5.12v215.040zM453.12 452.267c2.56 0 5.12 0 7.68 0h99.84c2.56 0 7.68 0 10.24 0 25.6-7.68 48.64-25.6 43.52-69.12-10.24-79.36-25.6-153.6-40.96-171.52-10.24-12.8-38.4-15.36-53.76-15.36-2.56 0-5.12 0-7.68 0 0 0-2.56 0-7.68 0-12.8 0-40.96 2.56-53.76 15.36-15.36 17.92-30.72 92.16-40.96 171.52-5.12 40.96 17.92 61.44 43.52 69.12zM665.6 408.747c-17.92-112.64-38.4-220.16-61.44-243.2-17.92-17.92-58.88-20.48-79.36-20.48-5.12 0-10.24 0-10.24 0-2.56 0-5.12 0-10.24 0-20.48 0-61.44 2.56-79.36 20.48-23.040 23.040-46.080 130.56-61.44 243.2-7.68 53.76 17.92 81.92 48.64 94.72v-2.56c0-2.56 0-5.12 0-5.12 0-2.56 0-5.12 2.56-7.68-7.68-2.56-15.36-7.68-20.48-15.36-12.8-15.36-17.92-35.84-15.36-61.44 28.16-186.88 51.2-227.84 58.88-235.52 7.68-10.24 33.28-15.36 66.56-15.36 5.12 0 7.68 0 10.24 0v0 0c2.56 0 5.12 0 10.24 0 33.28 0 58.88 5.12 66.56 15.36 7.68 7.68 30.72 48.64 58.88 235.52 5.12 25.6 0 48.64-15.36 61.44-7.68 7.68-15.36 12.8-25.6 17.92 0 2.56 2.56 5.12 2.56 7.68s0 2.56 0 5.12v5.12c33.28-17.92 61.44-43.52 53.76-99.84z" />
<glyph unicode="&#xe613;" d="M499.2 488.107h20.48c2.56 0 2.56 2.56 2.56 2.56-2.56 2.56-5.12 5.12-10.24 7.68 0 0 0 0-2.56 0h-2.56c0 0-2.56 0-2.56 0h-2.56c0 0 0 0-2.56 0-5.12 0-7.68-2.56-10.24-7.68 5.12 0 7.68-2.56 10.24-2.56zM593.92 536.747v0c7.68 10.24 12.8 25.6 12.8 38.4 0 10.24-2.56 20.48-7.68 30.72h-43.52c25.6-15.36 38.4-40.96 38.4-69.12zM460.8 698.027c15.36 7.68 33.28 12.8 51.2 15.36-7.68 2.56-15.36 5.12-25.6 5.12-33.28 0-61.44-23.040-66.56-53.76 12.8 12.8 25.6 25.6 40.96 33.28zM509.44 472.747c7.68 0 12.8 2.56 12.8 7.68 0 2.56 0 2.56-2.56 2.56h-20.48c-2.56 0-2.56-2.56-2.56-2.56 0-5.12 5.12-7.68 12.8-7.68zM488.96 618.667c7.68 2.56 12.8 2.56 20.48 2.56h84.48c0 2.56 0 2.56 0 5.12s0 7.68-2.56 12.8c0 5.12-2.56 10.24-5.12 15.36-5.12 12.8-15.36 25.6-25.6 33.28-5.12 2.56-7.68 5.12-12.8 7.68s-7.68 2.56-12.8 5.12c0 0-2.56 0-5.12 0-5.12 0-10.24 2.56-15.36 2.56-15.36 0-33.28-5.12-51.2-12.8-17.92-10.24-30.72-23.040-40.96-38.4-2.56-2.56-5.12-7.68-5.12-12.8-2.56-2.56-2.56-7.68-5.12-12.8 0-5.12-2.56-7.68-2.56-12.8-2.56-15.36 0-33.28 7.68-53.76 0 0 0 0 0-2.56 2.56 5.12 5.12 12.8 7.68 20.48 2.56 2.56 5.12 7.68 7.68 10.24s2.56 5.12 5.12 5.12c0 2.56 2.56 2.56 2.56 5.12 0 0 0 0 2.56 2.56 5.12 5.12 10.24 7.68 15.36 10.24 2.56 2.56 7.68 5.12 12.8 5.12 10.24 0 12.8 2.56 17.92 2.56zM512 938.667c-281.6 0-512-230.4-512-512s230.4-512 512-512 512 230.4 512 512c0 281.6-230.4 512-512 512zM716.8 521.387c7.68 7.68 17.92 10.24 25.6 20.48 12.8 15.36 15.36 35.84 15.36 53.76 0 0 0 2.56 0 2.56 0 2.56 0 2.56 0 2.56s0 0 2.56-2.56c0 0 0-2.56 2.56-2.56 10.24-12.8 15.36-28.16 15.36-43.52 0-10.24-2.56-20.48-7.68-30.72s-12.8-15.36-20.48-23.040c-7.68-5.12-12.8-10.24-20.48-15.36-10.24-10.24-15.36-25.6-15.36-38.4 0-2.56 0-5.12 0-10.24 0 0 0-7.68 0-7.68s0 0-2.56 2.56c-7.68 7.68-15.36 17.92-17.92 30.72 0 2.56 0 2.56 0 5.12-5.12 20.48 5.12 40.96 23.040 56.32zM281.6 521.387c7.68 7.68 17.92 10.24 25.6 20.48 12.8 15.36 15.36 35.84 15.36 53.76 0 0 0 2.56 0 2.56 0 2.56 0 2.56 0 2.56s0 0 2.56-2.56c0 0 0-2.56 2.56-2.56 10.24-12.8 15.36-28.16 15.36-43.52 0-10.24-2.56-20.48-7.68-30.72s-12.8-15.36-20.48-23.040c-7.68-5.12-12.8-10.24-20.48-15.36-10.24-10.24-15.36-25.6-15.36-38.4 0-2.56 0-5.12 0-10.24 0 0 0-7.68 0-7.68s0 0-2.56 2.56c-7.68 7.68-15.36 17.92-17.92 30.72 0 2.56 0 2.56 0 5.12-2.56 20.48 5.12 40.96 23.040 56.32zM512 170.667c-176.64 0-309.76 71.68-281.6 128 17.92 35.84 69.12 56.32 140.8 66.56v17.92c0 25.6 20.48 43.52 46.080 43.52h46.080c7.68 0 15.36 7.68 12.8 15.36-2.56 12.8-15.36 20.48-23.040 30.72-10.24 7.68-17.92 20.48-23.040 30.72s-5.12 20.48-10.24 28.16c-10.24 20.48-17.92 40.96-17.92 64 0 12.8 2.56 25.6 5.12 38.4 0 5.12-2.56 10.24-2.56 15.36 0 46.080 38.4 81.92 84.48 81.92 23.040 0 43.52-10.24 58.88-23.040 35.84-10.24 51.2-33.28 58.88-51.2s7.68-33.28 7.68-40.96c7.68-12.8 12.8-25.6 12.8-40.96 0-12.8-2.56-28.16-10.24-38.4-2.56-5.12-7.68-10.24-12.8-15.36s-7.68-7.68-12.8-12.8c-5.12-12.8-12.8-23.040-20.48-30.72-10.24-10.24-23.040-17.92-25.6-30.72-2.56-7.68 5.12-15.36 12.8-15.36h51.2c25.6 0 46.080-20.48 46.080-43.52v-17.92c64-10.24 112.64-33.28 140.8-66.56 38.4-53.76-104.96-133.12-284.16-133.12zM652.8 280.747c0-17.92-64-30.72-140.8-30.72s-140.8 12.8-140.8 30.72v84.48c-79.36-12.8-115.2-40.96-115.2-69.12 0-43.52 115.2-79.36 256-79.36s256 35.84 256 79.36c0 30.72-38.4 56.32-115.2 69.12v-84.48zM652.8 365.227v0c-23.040 5.12-48.64 7.68-74.24 7.68 28.16-2.56 53.76-5.12 74.24-7.68zM476.16 375.467c-38.4 0-74.24-2.56-104.96-7.68v0c28.16 2.56 64 5.12 104.96 7.68z" />
<glyph unicode="&#xe614;" d="M448 375.467c0 7.68-5.12 12.8-12.8 12.8h-12.8c-7.68 0-12.8-5.12-12.8-12.8s5.12-12.8 12.8-12.8h12.8c7.68 0 12.8 5.12 12.8 12.8zM448 329.387l-10.24-10.24c-5.12-5.12-5.12-12.8 0-17.92s12.8-5.12 17.92 0l10.24 10.24c5.12 5.12 5.12 12.8 0 17.92s-12.8 5.12-17.92 0zM448 421.547c5.12-5.12 12.8-5.12 17.92 0s5.12 12.8 0 17.92l-10.24 10.24c-5.12 5.12-12.8 5.12-17.92 0s-5.12-12.8 0-17.92l10.24-10.24zM576 421.547l10.24 10.24c5.12 5.12 5.12 12.8 0 17.92s-12.8 5.12-17.92 0l-10.24-10.24c-5.12-5.12-5.12-12.8 0-17.92s12.8-5.12 17.92 0zM512 311.467c-7.68 0-12.8-5.12-12.8-12.8v-12.8c0-7.68 5.12-12.8 12.8-12.8s12.8 5.12 12.8 12.8v12.8c0 7.68-5.12 12.8-12.8 12.8zM512 439.467c7.68 0 12.8 5.12 12.8 12.8v12.8c0 7.68-5.12 12.8-12.8 12.8s-12.8-5.12-12.8-12.8v-12.8c0-7.68 5.12-12.8 12.8-12.8zM512 938.667c-281.6 0-512-230.4-512-512s230.4-512 512-512 512 230.4 512 512c0 281.6-230.4 512-512 512zM440.32 680.107c0 15.36 12.8 28.16 28.16 28.16h84.48c15.36 0 28.16-12.8 28.16-28.16v-84.48h-140.8v84.48zM665.6 244.907c0-28.16-23.040-48.64-51.2-48.64h-204.8c-28.16 0-51.2 23.040-51.2 48.64v261.12c0 28.16 23.040 48.64 51.2 48.64h204.8c28.16 0 51.2-23.040 51.2-48.64v-261.12zM576 329.387c-5.12 5.12-12.8 5.12-17.92 0s-5.12-12.8 0-17.92l10.24-10.24c5.12-5.12 12.8-5.12 17.92 0s5.12 12.8 0 17.92l-10.24 10.24zM601.6 388.267h-12.8c-7.68 0-12.8-5.12-12.8-12.8s5.12-12.8 12.8-12.8h12.8c7.68 0 12.8 5.12 12.8 12.8s-5.12 12.8-12.8 12.8zM512 426.667c-28.16 0-51.2-23.040-51.2-51.2s23.040-51.2 51.2-51.2 51.2 23.040 51.2 51.2-23.040 51.2-51.2 51.2zM512 349.867c-15.36 0-25.6 10.24-25.6 25.6s10.24 25.6 25.6 25.6c15.36 0 25.6-10.24 25.6-25.6s-10.24-25.6-25.6-25.6z" />
<glyph unicode="&#xe615;" d="M376.32 383.147c0-40.96 15.36-97.28 71.68-128-7.68 23.040-20.48 79.36-20.48 107.52 0 84.48 51.2 215.040 56.32 261.12-38.4-87.040-107.52-179.2-107.52-240.64zM512 938.667c-281.6 0-512-230.4-512-512s230.4-512 512-512 512 230.4 512 512c0 281.6-230.4 512-512 512zM499.2 196.267c-92.16 0-166.4 79.36-166.4 179.2 0 117.76 166.4 332.8 166.4 332.8s166.4-215.040 166.4-332.8c0-99.84-74.24-179.2-166.4-179.2z" />
<glyph unicode="&#xe616;" d="M966.4 484.267h-396.8v396.8c0 32-25.6 57.6-57.6 57.6s-57.6-25.6-57.6-57.6v-396.8h-396.8c-32 0-57.6-25.6-57.6-57.6s25.6-57.6 57.6-57.6h396.8v-396.8c0-32 25.6-57.6 57.6-57.6s57.6 25.6 57.6 57.6v396.8h396.8c32 0 57.6 25.6 57.6 57.6s-25.6 57.6-57.6 57.6z" />
</font>
</defs>
</svg>
