<svg id="_1" data-name="1" xmlns="http://www.w3.org/2000/svg" width="72" height="78" viewBox="0 0 72 78">
  <metadata><?xpacket begin="﻿" id="W5M0MpCehiHzreSzNTczkc9d"?>
<x:xmpmeta xmlns:x="adobe:ns:meta/" x:xmptk="Adobe XMP Core 5.6-c138 79.159824, 2016/09/14-01:09:01        ">
   <rdf:RDF xmlns:rdf="http://www.w3.org/1999/02/22-rdf-syntax-ns#">
      <rdf:Description rdf:about=""/>
   </rdf:RDF>
</x:xmpmeta>
                                                                                                    
                                                                                                    
                                                                                                    
                                                                                                    
                                                                                                    
                                                                                                    
                                                                                                    
                                                                                                    
                                                                                                    
                                                                                                    
                                                                                                    
                                                                                                    
                                                                                                    
                                                                                                    
                                                                                                    
                                                                                                    
                                                                                                    
                                                                                                    
                                                                                                    
                                                                                                    
                           
<?xpacket end="w"?></metadata>
<defs>
    <style>
      .cls-1, .cls-4 {
        fill: #226d4f;
      }

      .cls-1, .cls-2, .cls-3 {
        fill-rule: evenodd;
      }

      .cls-2 {
        fill: #16d488;
      }

      .cls-3 {
        fill: #c1ecdb;
      }
    </style>
  </defs>
  <path id="Shape_1050_copy" data-name="Shape 1050 copy" class="cls-1" d="M359,3546a36.041,36.041,0,0,1-36-36v-38a4,4,0,0,1,4-4h10a4,4,0,0,1,4,4v38a18,18,0,0,0,36,0v-38a4,4,0,0,1,4-4h10a4,4,0,0,1,4,4v38A36.041,36.041,0,0,1,359,3546Z" transform="translate(-323 -3468)"/>
  <path id="Rounded_Rectangle_1_copy" data-name="Rounded Rectangle 1 copy" class="cls-2" d="M393,3492v18a34,34,0,0,1-68,0v-18h0v-20a2,2,0,0,1,2-2h10a2,2,0,0,1,2,2v6h0v32a20,20,0,0,0,40,0v-32h0v-6a2,2,0,0,1,2-2h10a2,2,0,0,1,2,2v20h0Z" transform="translate(-323 -3468)"/>
  <path id="Rounded_Rectangle_1_copy_2" data-name="Rounded Rectangle 1 copy 2" class="cls-3" d="M379,3484v-12a2,2,0,0,1,2-2h10a2,2,0,0,1,2,2v12H379Zm-52-14h10a2,2,0,0,1,2,2v12H325v-12A2,2,0,0,1,327,3470Z" transform="translate(-323 -3468)"/>
  <path id="Rectangle_572_copy_2" data-name="Rectangle 572 copy 2" class="cls-1" d="M377,3486v-2h18v2H377Zm-36,0H323v-2h18v2Z" transform="translate(-323 -3468)"/>
  <path id="Rectangle_573_copy_2" data-name="Rectangle 573 copy 2" class="cls-1" d="M336,3478h-3v3h-2v-3h-3v-2h3v-3h2v3h3v2Z" transform="translate(-323 -3468)"/>
  <rect id="Rectangle_574_copy_2" data-name="Rectangle 574 copy 2" class="cls-4" x="59" y="8" width="8" height="2"/>
</svg>
