<svg id="_1_1" data-name="1_1" xmlns="http://www.w3.org/2000/svg" width="154.25" height="88.06" viewBox="0 0 154.25 88.06">
  <metadata><?xpacket begin="﻿" id="W5M0MpCehiHzreSzNTczkc9d"?>
<x:xmpmeta xmlns:x="adobe:ns:meta/" x:xmptk="Adobe XMP Core 5.6-c138 79.159824, 2016/09/14-01:09:01        ">
   <rdf:RDF xmlns:rdf="http://www.w3.org/1999/02/22-rdf-syntax-ns#">
      <rdf:Description rdf:about=""/>
   </rdf:RDF>
</x:xmpmeta>
                                                                                                    
                                                                                                    
                                                                                                    
                                                                                                    
                                                                                                    
                                                                                                    
                                                                                                    
                                                                                                    
                                                                                                    
                                                                                                    
                                                                                                    
                                                                                                    
                                                                                                    
                                                                                                    
                                                                                                    
                                                                                                    
                                                                                                    
                                                                                                    
                                                                                                    
                                                                                                    
                           
<?xpacket end="w"?></metadata>
<defs>
    <style>
      .cls-1 {
        fill: #2c7457;
      }

      .cls-1, .cls-2, .cls-3 {
        fill-rule: evenodd;
        opacity: 0.5;
      }

      .cls-2 {
        fill: #226d4f;
      }

      .cls-3 {
        fill: #16d488;
      }
    </style>
  </defs>
  <path id="Rectangle_131_copy_7" data-name="Rectangle 131 copy 7" class="cls-1" d="M421.656,3470.07L419,3467.41l-2.657,2.66-1.414-1.42,2.656-2.65-2.656-2.66,1.414-1.41,2.657,2.65,2.656-2.65,1.415,1.41-2.657,2.66,2.657,2.65Z" transform="translate(-277 -3461.94)"/>
  <path id="Rectangle_175_copy_7" data-name="Rectangle 175 copy 7" class="cls-2" d="M424,3546h-3v3a1,1,0,0,1-2,0v-3h-3a1,1,0,0,1,0-2h3v-3a1,1,0,0,1,2,0v3h3A1,1,0,0,1,424,3546Z" transform="translate(-277 -3461.94)"/>
  <path id="Rounded_Rectangle_10_copy_8" data-name="Rounded Rectangle 10 copy 8" class="cls-2" d="M301,3546h-7a1,1,0,0,1-1-1v-7a1,1,0,0,1,1-1h7a1,1,0,0,1,1,1v7A1,1,0,0,1,301,3546Zm-1-7h-5v5h5v-5Z" transform="translate(-277 -3461.94)"/>
  <path id="Shape_981_copy_7" data-name="Shape 981 copy 7" class="cls-3" d="M431.261,3509.55l-11.406.2,5.877-9.77Zm-7.9-1.82,4.471-.08-2.168-3.75Z" transform="translate(-277 -3461.94)"/>
  <path id="Ellipse_42_copy_11" data-name="Ellipse 42 copy 11" class="cls-3" d="M281,3509a4,4,0,1,1,4-4A4,4,0,0,1,281,3509Zm0-6a2,2,0,1,0,2,2A2,2,0,0,0,281,3503Z" transform="translate(-277 -3461.94)"/>
  <path id="Shape_981_copy_9" data-name="Shape 981 copy 9" class="cls-2" d="M298.851,3472.87l-11.069-2.76,8.207-7.92Zm-7.162-3.8,4.338,1.08-1.121-4.19Z" transform="translate(-277 -3461.94)"/>
</svg>
