<svg id="_2" data-name="2" xmlns="http://www.w3.org/2000/svg" width="76" height="80" viewBox="0 0 76 80">
  <metadata><?xpacket begin="﻿" id="W5M0MpCehiHzreSzNTczkc9d"?>
<x:xmpmeta xmlns:x="adobe:ns:meta/" x:xmptk="Adobe XMP Core 5.6-c138 79.159824, 2016/09/14-01:09:01        ">
   <rdf:RDF xmlns:rdf="http://www.w3.org/1999/02/22-rdf-syntax-ns#">
      <rdf:Description rdf:about=""/>
   </rdf:RDF>
</x:xmpmeta>
                                                                                                    
                                                                                                    
                                                                                                    
                                                                                                    
                                                                                                    
                                                                                                    
                                                                                                    
                                                                                                    
                                                                                                    
                                                                                                    
                                                                                                    
                                                                                                    
                                                                                                    
                                                                                                    
                                                                                                    
                                                                                                    
                                                                                                    
                                                                                                    
                                                                                                    
                                                                                                    
                           
<?xpacket end="w"?></metadata>
<defs>
    <style>
      .cls-1, .cls-4 {
        fill: #226d4f;
      }

      .cls-1, .cls-2, .cls-3 {
        fill-rule: evenodd;
      }

      .cls-2 {
        fill: #16d488;
      }

      .cls-3, .cls-5 {
        fill: #c1ecdb;
      }
    </style>
  </defs>
  <path id="Shape_1008_copy_4" data-name="Shape 1008 copy 4" class="cls-1" d="M834.178,3483.43l-47.113,47.11-9.9-9.9,53.477-53.47,3.536,3.53A9.013,9.013,0,0,1,834.178,3483.43Z" transform="translate(-761 -3467)"/>
  <path id="Shape_1008_copy_4-2" data-name="Shape 1008 copy 4" class="cls-2" d="M832.763,3482.01l-45.7,45.7-7.071-7.07,50.648-50.65,2.121,2.12A7.008,7.008,0,0,1,832.763,3482.01Z" transform="translate(-761 -3467)"/>
  <path id="Shape_1008_copy_5" data-name="Shape 1008 copy 5" class="cls-1" d="M811.034,3530.01l-47.384-46.83a8.892,8.892,0,0,1,0-12.66l3.556-3.51,53.785,53.16Z" transform="translate(-761 -3467)"/>
  <path id="Shape_1008_copy_5-2" data-name="Shape 1008 copy 5" class="cls-2" d="M811.034,3527.2l-45.962-45.43a6.909,6.909,0,0,1,0-9.84l2.134-2.11,50.94,50.35Z" transform="translate(-761 -3467)"/>
  <path id="Shape_1008_copy_5-3" data-name="Shape 1008 copy 5" class="cls-3" d="M792.72,3507.45l-26.8-26.49a2.97,2.97,0,0,1-.589-3.4l28.737,28.41A5.046,5.046,0,0,0,792.72,3507.45Zm8.348,5.44,9.388,9.28-1.422,1.4-9.433-9.32A4.947,4.947,0,0,0,801.068,3512.89Z" transform="translate(-761 -3467)"/>
  <circle class="cls-4" cx="38" cy="41" r="4"/>
  <circle id="Ellipse_667_copy" data-name="Ellipse 667 copy" class="cls-5" cx="38" cy="41" r="2"/>
  <path class="cls-1" d="M775,3547a14,14,0,1,1,14-14A14,14,0,0,1,775,3547Zm0-21a7,7,0,1,0,7,7A7,7,0,0,0,775,3526Z" transform="translate(-761 -3467)"/>
  <path id="Ellipse_666_copy" data-name="Ellipse 666 copy" class="cls-2" d="M775,3545a12,12,0,1,1,12-12A12,12,0,0,1,775,3545Zm0-21a9,9,0,1,0,9,9A9,9,0,0,0,775,3524Z" transform="translate(-761 -3467)"/>
  <path id="Ellipse_666_copy_2" data-name="Ellipse 666 copy 2" class="cls-1" d="M823,3547a14,14,0,1,1,14-14A14,14,0,0,1,823,3547Zm0-21a7,7,0,1,0,7,7A7,7,0,0,0,823,3526Z" transform="translate(-761 -3467)"/>
  <path id="Ellipse_666_copy_2-2" data-name="Ellipse 666 copy 2" class="cls-2" d="M823,3545a12,12,0,1,1,12-12A12,12,0,0,1,823,3545Zm0-21a9,9,0,1,0,9,9A9,9,0,0,0,823,3524Z" transform="translate(-761 -3467)"/>
</svg>
