<svg id="_2_1" data-name="2_1" xmlns="http://www.w3.org/2000/svg" width="158.219" height="88" viewBox="0 0 158.219 88">
  <metadata><?xpacket begin="﻿" id="W5M0MpCehiHzreSzNTczkc9d"?>
<x:xmpmeta xmlns:x="adobe:ns:meta/" x:xmptk="Adobe XMP Core 5.6-c138 79.159824, 2016/09/14-01:09:01        ">
   <rdf:RDF xmlns:rdf="http://www.w3.org/1999/02/22-rdf-syntax-ns#">
      <rdf:Description rdf:about=""/>
   </rdf:RDF>
</x:xmpmeta>
                                                                                                    
                                                                                                    
                                                                                                    
                                                                                                    
                                                                                                    
                                                                                                    
                                                                                                    
                                                                                                    
                                                                                                    
                                                                                                    
                                                                                                    
                                                                                                    
                                                                                                    
                                                                                                    
                                                                                                    
                                                                                                    
                                                                                                    
                                                                                                    
                                                                                                    
                                                                                                    
                           
<?xpacket end="w"?></metadata>
<defs>
    <style>
      .cls-1 {
        fill: #2c7457;
      }

      .cls-1, .cls-2, .cls-3 {
        fill-rule: evenodd;
        opacity: 0.5;
      }

      .cls-2 {
        fill: #16d488;
      }

      .cls-3 {
        fill: #226d4f;
      }
    </style>
  </defs>
  <path id="Rectangle_131_copy_12" data-name="Rectangle 131 copy 12" class="cls-1" d="M859.656,3473.07L857,3470.41l-2.656,2.66-1.415-1.42,2.657-2.65-2.657-2.66,1.415-1.42,2.656,2.66,2.657-2.66,1.414,1.42-2.656,2.66,2.656,2.65Z" transform="translate(-716.781 -3461)"/>
  <path id="Rectangle_175_copy_12" data-name="Rectangle 175 copy 12" class="cls-2" d="M874,3508h-3v3a1,1,0,0,1-2,0v-3h-3a1,1,0,0,1,0-2h3v-3a1,1,0,0,1,2,0v3h3A1,1,0,0,1,874,3508Z" transform="translate(-716.781 -3461)"/>
  <path id="Rectangle_175_copy_14" data-name="Rectangle 175 copy 14" class="cls-2" d="M742,3467h-3v3a1,1,0,0,1-2,0v-3h-3a1,1,0,0,1,0-2h3v-3a1,1,0,0,1,2,0v3h3A1,1,0,0,1,742,3467Z" transform="translate(-716.781 -3461)"/>
  <path id="Rounded_Rectangle_10_copy_11" data-name="Rounded Rectangle 10 copy 11" class="cls-2" d="M741,3546h-7a1,1,0,0,1-1-1v-7a1,1,0,0,1,1-1h7a1,1,0,0,1,1,1v7A1,1,0,0,1,741,3546Zm-1-7h-5v5h5v-5Z" transform="translate(-716.781 -3461)"/>
  <path id="Ellipse_42_copy_13" data-name="Ellipse 42 copy 13" class="cls-3" d="M859,3549a4,4,0,1,1,4-4A4,4,0,0,1,859,3549Zm0-6a2,2,0,1,0,2,2A2,2,0,0,0,859,3543Z" transform="translate(-716.781 -3461)"/>
  <path id="Shape_981_copy_8" data-name="Shape 981 copy 8" class="cls-3" d="M727.851,3508.87l-11.069-2.76,8.207-7.92Zm-7.162-3.8,4.339,1.08-1.122-4.19Z" transform="translate(-716.781 -3461)"/>
</svg>
