<svg xmlns="http://www.w3.org/2000/svg" width="170" height="110" viewBox="0 0 170 110">
  <metadata><?xpacket begin="﻿" id="W5M0MpCehiHzreSzNTczkc9d"?>
<x:xmpmeta xmlns:x="adobe:ns:meta/" x:xmptk="Adobe XMP Core 5.6-c138 79.159824, 2016/09/14-01:09:01        ">
   <rdf:RDF xmlns:rdf="http://www.w3.org/1999/02/22-rdf-syntax-ns#">
      <rdf:Description rdf:about=""/>
   </rdf:RDF>
</x:xmpmeta>
                                                                                                    
                                                                                                    
                                                                                                    
                                                                                                    
                                                                                                    
                                                                                                    
                                                                                                    
                                                                                                    
                                                                                                    
                                                                                                    
                                                                                                    
                                                                                                    
                                                                                                    
                                                                                                    
                                                                                                    
                                                                                                    
                                                                                                    
                                                                                                    
                                                                                                    
                                                                                                    
                           
<?xpacket end="w"?></metadata>
<defs>
    <style>
      .cls-1 {
        fill: #f0f7f5;
        fill-rule: evenodd;
      }
    </style>
  </defs>
  <path id="_2_bg" data-name="2_bg" class="cls-1" d="M869,3462H779a5,5,0,0,0,0,10h99a5,5,0,0,1,0,10H766a5,5,0,0,0,0,10H869a5,5,0,0,1,0,10H832a5,5,0,0,0,0,10h47a5,5,0,0,1,0,10H836a5,5,0,0,0,0,10h28a5,5,0,0,1,0,10H850a5,5,0,0,0,0,10h29a5,5,0,0,1,0,10H774a5,5,0,0,1,0-10h56a5,5,0,0,0,0-10H724a5,5,0,0,1,0-10h67a5,5,0,0,0,0-10H720a5,5,0,0,1,0-10h92a5,5,0,0,0,0-10H739a5,5,0,0,1,0-10h7a5,5,0,0,0,0-10H719a5,5,0,0,1,0-10h38a5,5,0,0,0,0-10H729a5,5,0,0,1,0-10H869A5,5,0,0,1,869,3462Zm-135,90h20a5,5,0,0,1,0,10H734A5,5,0,0,1,734,3552Z" transform="translate(-714 -3452)"/>
</svg>
