<?xml version="1.0" encoding="utf-8"?>
<!-- Generator: Adobe Illustrator 21.1.0, SVG Export Plug-In . SVG Version: 6.00 Build 0)  -->
<svg version="1.1" id="_3" xmlns="http://www.w3.org/2000/svg" xmlns:xlink="http://www.w3.org/1999/xlink" x="0px" y="0px"
	 viewBox="0 0 58 80" width="53" height="80" style="enable-background:new 0 0 58 80;" xml:space="preserve">
<style type="text/css">
	.st0{fill:#226D4F;}
	.st1{fill:#16D488;}
	.st2{fill:#C1ECDB;}
</style>
<path id="Shape_1010_copy_2" class="st0" d="M51.4,67H4l0.6-2.5l1.4-5.7c0.5-2.2,2.5-3.8,4.8-3.8h36.2c2.3,0,4.3,1.6,4.8,3.8
	l1.4,5.7L54,67H51.4L51.4,67z"/>
<path id="Shape_1010_copy_2-2" class="st1" d="M51.4,65L50,59.3c-0.3-1.3-1.5-2.3-2.9-2.3H10.9c-1.4,0-2.6,0.9-2.9,2.3L6.6,65H51.4"
	/>
<path id="Ellipse_666_copy_3" class="st0" d="M4,65h50c2.2,0,4,1.8,4,4v7c0,2.2-1.8,4-4,4H4c-2.2,0-4-1.8-4-4v-7C0,66.8,1.8,65,4,65
	z"/>
<path id="Ellipse_666_copy_4" class="st1" d="M4,67h50c1.1,0,2,0.9,2,2v7c0,1.1-0.9,2-2,2H4c-1.1,0-2-0.9-2-2v-7C2,67.9,2.9,67,4,67
	z"/>
<path class="st0" d="M43.8,57H12l0.2-2.2l3-29l0.2-1.8h27.3l0.2,1.8l3,29L46,57H43.8z"/>
<path id="Shape_1011_copy" class="st1" d="M40.8,26l3,29H14.2l3-29H40.8"/>
<path class="st2" d="M37.1,30l2.2,21h-21l2.2-21H37.1"/>
<path class="st0" d="M15.9,25c-1.8,0-3.4-1.3-3.9-3l-1.7-7h37.4L46,22c-0.4,1.8-2,3-3.9,3H15.9z M46.4,16L45,21.7
	c-0.3,1.3-1.5,2.3-2.9,2.3H15.9c-1.4,0-2.6-0.9-2.9-2.3L11.5,16H46.4 M49,14H9l0.6,2.5l1.4,5.7c0.5,2.2,2.5,3.8,4.8,3.8h26.2
	c2.3,0,4.3-1.6,4.8-3.8l1.4-5.7L49,14L49,14z M49,14H9l0.6,2.5l1.4,5.7c0.5,2.2,2.5,3.8,4.8,3.8h26.2c2.3,0,4.3-1.6,4.8-3.8l1.4-5.7
	L49,14L49,14z"/>
<path id="Shape_1010_copy" class="st1" d="M46.4,16L45,21.7c-0.3,1.3-1.5,2.3-2.9,2.3H15.9c-1.4,0-2.6-0.9-2.9-2.3L11.5,16H46.4"/>
<path class="st0" d="M7.8,15c-1,0-1.9-0.7-2-1.8l-1.8-10C4,2.7,4.2,2.1,4.6,1.7C5,1.2,5.5,1,6.1,1H10c1.1,0,2,0.9,2,2v4h6V3
	c0-1.1,0.9-2,2-2h4c1.1,0,2,0.9,2,2v4h6V3c0-1.1,0.9-2,2-2h4c1.1,0,2,0.9,2,2v4h6V3c0-1.1,0.9-2,2-2h3.9c0.6,0,1.1,0.2,1.5,0.7
	c0.4,0.4,0.6,1,0.5,1.6l-1.8,10c-0.1,1-1,1.7-2,1.8H7.8z M51.9,2c0.6,0,1,0.4,1,1c0,0,0,0.1,0,0.1l-1.8,10c-0.1,0.5-0.5,0.9-1,0.9
	H7.8c-0.5,0-0.9-0.4-1-0.9l-1.8-10C5,2.6,5.4,2.1,6,2c0,0,0.1,0,0.1,0H10c0.6,0,1,0.4,1,1v4c0,0.6,0.4,1,1,1c0,0,0,0,0,0h6
	c0.6,0,1-0.4,1-1V3c0-0.6,0.4-1,1-1h4c0.6,0,1,0.4,1,1v4c0,0.6,0.4,1,1,1h6c0.6,0,1-0.4,1-1V3c0-0.6,0.4-1,1-1c0,0,0,0,0,0h4
	c0.6,0,1,0.4,1,1v1l0,0v3c0,0.6,0.4,1,1,1c0,0,0,0,0,0h6c0.6,0,1-0.4,1-1V3c0-0.6,0.4-1,1-1H51.9 M51.9,0H48c-1.7,0-3,1.3-3,3v3h-4
	V3c0-1.7-1.4-3-3-3h-4c-1.7,0-3,1.3-3,3v3h-4V3c0-1.7-1.3-3-3-3l0,0h-4c-1.7,0-3,1.3-3,3v3h-4V3c0-1.7-1.4-3-3-3H6.1
	C5.2,0,4.4,0.4,3.8,1C3.3,1.7,3,2.5,3.1,3.4l1.8,10c0.2,1.5,1.5,2.6,3,2.6h42.3c1.5,0,2.8-1.1,3-2.6l1.8-10c0.2-1.6-1-3.1-2.6-3.3
	C52.2,0,52,0,51.9,0L51.9,0z M51.9,0H48c-1.7,0-3,1.3-3,3v3h-4V3c0-1.7-1.4-3-3-3h-4c-1.7,0-3,1.3-3,3v3h-4V3c0-1.7-1.3-3-3-3l0,0
	h-4c-1.7,0-3,1.3-3,3v3h-4V3c0-1.7-1.4-3-3-3H6.1C5.2,0,4.4,0.4,3.8,1C3.3,1.7,3,2.5,3.1,3.4l1.7,10c0.2,1.5,1.5,2.6,3,2.6h42.3
	c1.5,0,2.8-1.1,3-2.6l1.8-10c0.2-1.6-1-3.1-2.6-3.3C52.2,0,52,0,51.9,0L51.9,0z"/>
<path id="Shape_1012_copy" class="st1" d="M51.9,2c0.6,0,1,0.4,1,1c0,0,0,0.1,0,0.1l-1.8,10c-0.1,0.5-0.5,0.9-1,0.9H7.8
	c-0.5,0-0.9-0.4-1-0.9l-1.8-10C5,2.6,5.4,2.1,6,2c0,0,0.1,0,0.1,0H10c0.6,0,1,0.4,1,1v4c0,0.6,0.4,1,1,1c0,0,0,0,0,0h6
	c0.6,0,1-0.4,1-1V3c0-0.6,0.4-1,1-1h4c0.6,0,1,0.4,1,1v4c0,0.6,0.4,1,1,1h6c0.6,0,1-0.4,1-1V3c0-0.6,0.4-1,1-1c0,0,0,0,0,0h4
	c0.6,0,1,0.4,1,1v1l0,0v3c0,0.6,0.4,1,1,1c0,0,0,0,0,0h6c0.6,0,1-0.4,1-1V3c0-0.6,0.4-1,1-1H51.9"/>
</svg>
