<svg xmlns="http://www.w3.org/2000/svg" viewBox="0 0 53 73.1">
  <title>3</title>
  <g id="Layer_2" data-name="Layer 2">
    <g id="_3" data-name=" 3">
      <path id="Shape_1010_copy_2" data-name="Shape 1010 copy 2" d="M47,61.22H3.66l.55-2.28,1.28-5.21a4.5,4.5,0,0,1,4.39-3.47H42.95a4.5,4.5,0,0,1,4.39,3.47l1.28,5.21.73,2.28Z" style="fill: #226d4f"/>
      <path id="Shape_1010_copy_2-2" data-name="Shape 1010 copy 2-2" d="M47,59.4l-1.28-5.21A2.74,2.74,0,0,0,43,52.09H10a2.65,2.65,0,0,0-2.65,2.1L6,59.4H47" style="fill: #16d488"/>
      <path id="Ellipse_666_copy_3" data-name="Ellipse 666 copy 3" d="M3.66,59.4H49.34A3.67,3.67,0,0,1,53,63.05v6.4a3.67,3.67,0,0,1-3.66,3.66H3.66A3.67,3.67,0,0,1,0,69.45v-6.4A3.67,3.67,0,0,1,3.66,59.4Z" style="fill: #226d4f"/>
      <path id="Ellipse_666_copy_4" data-name="Ellipse 666 copy 4" d="M3.66,61.22H49.34a1.83,1.83,0,0,1,1.83,1.83v6.4a1.83,1.83,0,0,1-1.83,1.83H3.66a1.83,1.83,0,0,1-1.83-1.83v-6.4A1.83,1.83,0,0,1,3.66,61.22Z" style="fill: #16d488"/>
      <path d="M40,52.09H11l.18-2,2.74-26.5.18-1.64H39l.18,1.64,2.74,26.5.09,2Z" style="fill: #226d4f"/>
      <path id="Shape_1011_copy" data-name="Shape 1011 copy" d="M37.28,23.76,40,50.26H13l2.74-26.5H37.28" style="fill: #16d488"/>
      <path d="M33.9,27.41l2,19.19H16.72l2-19.19H33.9" style="fill: #c1ecdb"/>
      <path d="M14.53,22.84A3.81,3.81,0,0,1,11,20.1l-1.55-6.4H43.59L42,20.1a3.55,3.55,0,0,1-3.56,2.74ZM42.4,14.62l-1.28,5.21a2.74,2.74,0,0,1-2.65,2.1H14.53a2.65,2.65,0,0,1-2.65-2.1l-1.37-5.21H42.4m2.38-1.83H8.22l.55,2.28,1.28,5.21a4.5,4.5,0,0,0,4.39,3.47H38.38a4.5,4.5,0,0,0,4.39-3.47L44,15.08l.73-2.28Zm0,0H8.22l.55,2.28,1.28,5.21a4.5,4.5,0,0,0,4.39,3.47H38.38a4.5,4.5,0,0,0,4.39-3.47L44,15.08l.73-2.28Z" style="fill: #226d4f"/>
      <path id="Shape_1010_copy" data-name="Shape 1010 copy" d="M42.4,14.62l-1.28,5.21a2.74,2.74,0,0,1-2.65,2.1H14.53a2.65,2.65,0,0,1-2.65-2.1l-1.37-5.21H42.4" style="fill: #16d488"/>
      <path d="M7.13,13.71A1.8,1.8,0,0,1,5.3,12.06L3.66,2.92A2,2,0,0,1,4.2,1.55,1.64,1.64,0,0,1,5.57.91H9.14A1.83,1.83,0,0,1,11,2.74V6.4h5.48V2.74A1.83,1.83,0,0,1,18.28.91h3.66a1.83,1.83,0,0,1,1.83,1.83V6.4h5.48V2.74A1.83,1.83,0,0,1,31.07.91h3.66a1.83,1.83,0,0,1,1.83,1.83V6.4H42V2.74A1.83,1.83,0,0,1,43.86.91h3.56a1.64,1.64,0,0,1,1.37.64A1.69,1.69,0,0,1,49.25,3l-1.64,9.14a2,2,0,0,1-1.83,1.64H7.13ZM47.43,1.83a.86.86,0,0,1,.91.91v.09L46.69,12a1,1,0,0,1-.91.82H7.13A1,1,0,0,1,6.21,12L4.57,2.83a1.06,1.06,0,0,1,.91-1H9.14a.86.86,0,0,1,.91.91V6.4a.86.86,0,0,0,.91.91h5.48a.86.86,0,0,0,.91-.91V2.74a.86.86,0,0,1,.91-.91h3.66a.86.86,0,0,1,.91.91V6.4a.86.86,0,0,0,.91.91h5.48a.86.86,0,0,0,.91-.91V2.74a.86.86,0,0,1,.91-.91h3.66a.86.86,0,0,1,.91.91v.91h0V6.4a.86.86,0,0,0,.91.91H42a.86.86,0,0,0,.91-.91V2.74a.86.86,0,0,1,.91-.91h3.56m0-1.83H43.86a2.69,2.69,0,0,0-2.74,2.74V5.48H37.47V2.74A2.75,2.75,0,0,0,34.72,0H31.07a2.69,2.69,0,0,0-2.74,2.74V5.48H24.67V2.74A2.69,2.69,0,0,0,21.93,0H18.28a2.69,2.69,0,0,0-2.74,2.74V5.48H11.88V2.74A2.75,2.75,0,0,0,9.14,0H5.57a3,3,0,0,0-2.1.91,3.12,3.12,0,0,0-.64,2.19l1.64,9.14a2.76,2.76,0,0,0,2.74,2.38H45.87a2.76,2.76,0,0,0,2.74-2.38l1.64-9.14a2.75,2.75,0,0,0-2.38-3A1,1,0,0,0,47.43,0Zm0,0H43.86a2.69,2.69,0,0,0-2.74,2.74V5.48H37.47V2.74A2.75,2.75,0,0,0,34.72,0H31.07a2.69,2.69,0,0,0-2.74,2.74V5.48H24.67V2.74A2.69,2.69,0,0,0,21.93,0H18.28a2.69,2.69,0,0,0-2.74,2.74V5.48H11.88V2.74A2.75,2.75,0,0,0,9.14,0H5.57a3,3,0,0,0-2.1.91,3.12,3.12,0,0,0-.64,2.19l1.55,9.14a2.76,2.76,0,0,0,2.74,2.38H45.78a2.76,2.76,0,0,0,2.74-2.38l1.64-9.14a2.75,2.75,0,0,0-2.38-3A.55.55,0,0,0,47.43,0Z" style="fill: #226d4f"/>
      <path id="Shape_1012_copy" data-name="Shape 1012 copy" d="M47.43,1.83a.86.86,0,0,1,.91.91v.09L46.69,12a1,1,0,0,1-.91.82H7.13A1,1,0,0,1,6.21,12L4.57,2.83a1.06,1.06,0,0,1,.91-1H9.14a.86.86,0,0,1,.91.91V6.4a.86.86,0,0,0,.91.91h5.48a.86.86,0,0,0,.91-.91V2.74a.86.86,0,0,1,.91-.91h3.66a.86.86,0,0,1,.91.91V6.4a.86.86,0,0,0,.91.91h5.48a.86.86,0,0,0,.91-.91V2.74a.86.86,0,0,1,.91-.91h3.66a.86.86,0,0,1,.91.91v.91h0V6.4a.86.86,0,0,0,.91.91H42a.86.86,0,0,0,.91-.91V2.74a.86.86,0,0,1,.91-.91h3.56" style="fill: #16d488"/>
    </g>
  </g>
</svg>
