<svg id="_3_1" data-name="3_1" xmlns="http://www.w3.org/2000/svg" width="149.06" height="92" viewBox="0 0 149.06 92">
  <metadata><?xpacket begin="﻿" id="W5M0MpCehiHzreSzNTczkc9d"?>
<x:xmpmeta xmlns:x="adobe:ns:meta/" x:xmptk="Adobe XMP Core 5.6-c138 79.159824, 2016/09/14-01:09:01        ">
   <rdf:RDF xmlns:rdf="http://www.w3.org/1999/02/22-rdf-syntax-ns#">
      <rdf:Description rdf:about=""/>
   </rdf:RDF>
</x:xmpmeta>
                                                                                                    
                                                                                                    
                                                                                                    
                                                                                                    
                                                                                                    
                                                                                                    
                                                                                                    
                                                                                                    
                                                                                                    
                                                                                                    
                                                                                                    
                                                                                                    
                                                                                                    
                                                                                                    
                                                                                                    
                                                                                                    
                                                                                                    
                                                                                                    
                                                                                                    
                                                                                                    
                           
<?xpacket end="w"?></metadata>
<defs>
    <style>
      .cls-1 {
        fill: #2c7457;
      }

      .cls-1, .cls-2, .cls-3 {
        fill-rule: evenodd;
        opacity: 0.5;
      }

      .cls-2 {
        fill: #16d488;
      }

      .cls-3 {
        fill: #226d4f;
      }
    </style>
  </defs>
  <path id="Rectangle_131_copy_13" data-name="Rectangle 131 copy 13" class="cls-1" d="M1163.66,3516.07l-2.66-2.66-2.66,2.66-1.41-1.42,2.66-2.65-2.66-2.66,1.41-1.41,2.66,2.65,2.66-2.65,1.41,1.41-2.66,2.66,2.66,2.65Z" transform="translate(-1156.94 -3463)"/>
  <path id="Rectangle_175_copy_11" data-name="Rectangle 175 copy 11" class="cls-2" d="M1179,3469h-3v3a1,1,0,0,1-2,0v-3h-3a1,1,0,0,1,0-2h3v-3a1,1,0,0,1,2,0v3h3A1,1,0,0,1,1179,3469Z" transform="translate(-1156.94 -3463)"/>
  <path id="Shape_981_copy_11" data-name="Shape 981 copy 11" class="cls-1" d="M1304.28,3547.91l-10.96,3.15,3.14-10.97Zm-8.1.29,4.29-1.23-3.06-3.07Z" transform="translate(-1156.94 -3463)"/>
  <path id="Rounded_Rectangle_10_copy_12" data-name="Rounded Rectangle 10 copy 12" class="cls-2" d="M1181,3555h-7a1,1,0,0,1-1-1v-7a1,1,0,0,1,1-1h7a1,1,0,0,1,1,1v7A1,1,0,0,1,1181,3555Zm-1-7h-5v5h5v-5Z" transform="translate(-1156.94 -3463)"/>
  <path id="Ellipse_42_copy_14" data-name="Ellipse 42 copy 14" class="cls-2" d="M1302,3515a4,4,0,1,1,4-4A4,4,0,0,1,1302,3515Zm0-6a2,2,0,1,0,2,2A2,2,0,0,0,1302,3509Z" transform="translate(-1156.94 -3463)"/>
  <path id="Rounded_Rectangle_10_copy_9" data-name="Rounded Rectangle 10 copy 9" class="cls-3" d="M1294,3476h-7a1,1,0,0,1-1-1v-7a1,1,0,0,1,1-1h7a1,1,0,0,1,1,1v7A1,1,0,0,1,1294,3476Zm-1-7h-5v5h5v-5Z" transform="translate(-1156.94 -3463)"/>
</svg>
