<svg xmlns="http://www.w3.org/2000/svg" width="170" height="110" viewBox="0 0 170 110">
  <metadata><?xpacket begin="﻿" id="W5M0MpCehiHzreSzNTczkc9d"?>
<x:xmpmeta xmlns:x="adobe:ns:meta/" x:xmptk="Adobe XMP Core 5.6-c138 79.159824, 2016/09/14-01:09:01        ">
   <rdf:RDF xmlns:rdf="http://www.w3.org/1999/02/22-rdf-syntax-ns#">
      <rdf:Description rdf:about=""/>
   </rdf:RDF>
</x:xmpmeta>
                                                                                                    
                                                                                                    
                                                                                                    
                                                                                                    
                                                                                                    
                                                                                                    
                                                                                                    
                                                                                                    
                                                                                                    
                                                                                                    
                                                                                                    
                                                                                                    
                                                                                                    
                                                                                                    
                                                                                                    
                                                                                                    
                                                                                                    
                                                                                                    
                                                                                                    
                                                                                                    
                           
<?xpacket end="w"?></metadata>
<defs>
    <style>
      .cls-1 {
        fill: #f0f7f5;
        fill-rule: evenodd;
      }
    </style>
  </defs>
  <path id="_3_bg" data-name="3_bg" class="cls-1" d="M1170,3552h22a5,5,0,0,0,0-10h-31a5,5,0,0,1,0-10h12a5,5,0,0,0,0-10h-18a5,5,0,0,1,0-10h79a5,5,0,0,0,0-10h-64a5,5,0,0,1,0-10h18a5,5,0,0,0,0-10h-28a5,5,0,0,1,0-10h79a5,5,0,0,0,0-10h-73a5,5,0,0,1,0-10h149a5,5,0,0,1,0,10h-56a5,5,0,0,0,0,10h55a5,5,0,0,1,0,10H1208a5,5,0,0,0,0,10h105a5,5,0,0,1,0,10h-59a5,5,0,0,0,0,10h46a5,5,0,0,1,0,10H1193a5,5,0,0,0,0,10h77a5,5,0,0,1,0,10h-58a5,5,0,0,0,0,10h102a5,5,0,0,1,0,10H1170A5,5,0,0,1,1170,3552Z" transform="translate(-1150 -3452)"/>
</svg>
