<svg id="_1" data-name="1" xmlns="http://www.w3.org/2000/svg" width="84" height="84" viewBox="0 0 84 84">
  <metadata><?xpacket begin="﻿" id="W5M0MpCehiHzreSzNTczkc9d"?>
<x:xmpmeta xmlns:x="adobe:ns:meta/" x:xmptk="Adobe XMP Core 5.6-c138 79.159824, 2016/09/14-01:09:01        ">
   <rdf:RDF xmlns:rdf="http://www.w3.org/1999/02/22-rdf-syntax-ns#">
      <rdf:Description rdf:about=""/>
   </rdf:RDF>
</x:xmpmeta>
                                                                                                    
                                                                                                    
                                                                                                    
                                                                                                    
                                                                                                    
                                                                                                    
                                                                                                    
                                                                                                    
                                                                                                    
                                                                                                    
                                                                                                    
                                                                                                    
                                                                                                    
                                                                                                    
                                                                                                    
                                                                                                    
                                                                                                    
                                                                                                    
                                                                                                    
                                                                                                    
                           
<?xpacket end="w"?></metadata>
<defs>
    <style>
      .cls-1 {
        fill: #226d4f;
      }

      .cls-1, .cls-2, .cls-3 {
        fill-rule: evenodd;
      }

      .cls-2 {
        fill: #16d488;
      }

      .cls-3 {
        fill: #c1ecdb;
      }
    </style>
  </defs>
  <path id="Shape_1052_copy_2" data-name="Shape 1052 copy 2" class="cls-1" d="M405.43,4566.97l-18.454,18.46a2.015,2.015,0,0,1-2.839,0l-61.549-61.55a2.009,2.009,0,0,1,0-2.84l18.454-18.45a2,2,0,0,1,2.839,0l61.549,61.55A2,2,0,0,1,405.43,4566.97Z" transform="translate(-322.031 -4502.03)"/>
  <path id="Shape_1047_copy_3" data-name="Shape 1047 copy 3" class="cls-2" d="M342.464,4504.01l61.552,61.55-18.454,18.45-61.551-61.55Z" transform="translate(-322.031 -4502.03)"/>
  <path id="Shape_1047_copy_3-2" data-name="Shape 1047 copy 3" class="cls-3" d="M398.338,4565.56l-12.776,12.78h0l-55.883-55.89h0l12.776-12.77h0l55.883,55.88h0Z" transform="translate(-322.031 -4502.03)"/>
  <path id="Rounded_Rectangle_27_copy_10" data-name="Rounded Rectangle 27 copy 10" class="cls-1" d="M395.084,4555.21l-7.356,7.36a1,1,0,0,1-1.42-1.42l7.357-7.36A1,1,0,0,1,395.084,4555.21Z" transform="translate(-322.031 -4502.03)"/>
  <path id="Rounded_Rectangle_27_copy_12" data-name="Rounded Rectangle 27 copy 12" class="cls-1" d="M402.084,4562.21l-7.356,7.36a1,1,0,0,1-1.42-1.42l7.357-7.36A1,1,0,0,1,402.084,4562.21Z" transform="translate(-322.031 -4502.03)"/>
  <path id="Rounded_Rectangle_27_copy_10-2" data-name="Rounded Rectangle 27 copy 10" class="cls-1" d="M388.277,4548.4l-7.356,7.36a1,1,0,0,1-1.42-1.42l7.356-7.36A1,1,0,1,1,388.277,4548.4Z" transform="translate(-322.031 -4502.03)"/>
  <path id="Rounded_Rectangle_27_copy_10-3" data-name="Rounded Rectangle 27 copy 10" class="cls-1" d="M381.469,4541.6l-7.356,7.35a1,1,0,0,1-1.419-1.42l7.356-7.35a0.989,0.989,0,0,1,1.419,0A1,1,0,0,1,381.469,4541.6Z" transform="translate(-322.031 -4502.03)"/>
  <path id="Rounded_Rectangle_27_copy_10-4" data-name="Rounded Rectangle 27 copy 10" class="cls-1" d="M374.662,4534.79l-7.356,7.35a0.99,0.99,0,0,1-1.42,0,1,1,0,0,1,0-1.42l7.356-7.35A1,1,0,1,1,374.662,4534.79Z" transform="translate(-322.031 -4502.03)"/>
  <path id="Rounded_Rectangle_27_copy_10-5" data-name="Rounded Rectangle 27 copy 10" class="cls-1" d="M367.855,4527.98l-7.356,7.36a1,1,0,1,1-1.42-1.42l7.356-7.36A1,1,0,0,1,367.855,4527.98Z" transform="translate(-322.031 -4502.03)"/>
  <path id="Rounded_Rectangle_27_copy_10-6" data-name="Rounded Rectangle 27 copy 10" class="cls-1" d="M361.047,4521.17l-7.356,7.36a1,1,0,0,1-1.419-1.42l7.356-7.36A1,1,0,0,1,361.047,4521.17Z" transform="translate(-322.031 -4502.03)"/>
  <path id="Rounded_Rectangle_27_copy_10-7" data-name="Rounded Rectangle 27 copy 10" class="cls-1" d="M354.24,4514.37l-7.356,7.35a1,1,0,1,1-1.42-1.42l7.356-7.35a0.99,0.99,0,0,1,1.42,0A1,1,0,0,1,354.24,4514.37Z" transform="translate(-322.031 -4502.03)"/>
  <path id="Rounded_Rectangle_27_copy_11" data-name="Rounded Rectangle 27 copy 11" class="cls-1" d="M347.24,4507.37l-7.356,7.35a1,1,0,1,1-1.42-1.42l7.356-7.35a0.99,0.99,0,0,1,1.42,0A1,1,0,0,1,347.24,4507.37Z" transform="translate(-322.031 -4502.03)"/>
  <path id="Shape_1052_copy" data-name="Shape 1052 copy" class="cls-1" d="M344.673,4583.24l-1.277-.02-12.5-.23-2.891-.05a2.931,2.931,0,0,1-2.066-.88,2.965,2.965,0,0,1-.877-2.06l-0.052-2.89-0.224-12.51-0.023-1.27a3.021,3.021,0,0,1,.881-2.18l0.9-.91,41.606-41.6h0l13.369-13.37a6.987,6.987,0,0,1,9.876.02l11.314,11.31a7,7,0,0,1,.023,9.88l-4.72,4.72,5.36-5.36-13.846,13.85-41.768,41.76-0.9.91A3.062,3.062,0,0,1,344.673,4583.24Z" transform="translate(-322.031 -4502.03)"/>
  <path id="Shape_1047_copy_5" data-name="Shape 1047 copy 5" class="cls-2" d="M343.463,4581.19l-12.508-.22-3.856-.07-0.068-3.86-0.22-12.5-0.03-1.71,0.3-.3,0.905-.9,55.646-55.65-5.359,5.36,0.709-.71h0l3.955-3.95a4.987,4.987,0,0,1,7.049.02l11.313,11.31a4.991,4.991,0,0,1,.023,7.05l-3.955,3.96h0l-0.709.71,5.358-5.36-55.645,55.64-0.905.91-0.3.3Z" transform="translate(-322.031 -4502.03)"/>
  <path id="Shape_1050_copy_8" data-name="Shape 1050 copy 8" class="cls-1" d="M396.648,4531.15l-19.8-19.8,1.414-1.41,19.8,19.8Zm-15.556-15.56,1.414,1.42-46.234,46.23c-0.014.05-.028,0.1-0.043,0.15-0.621,2.16-1.263,4.38-.5,5.15,1.174,1.17,4.194-.05,7.116-1.24,2.788-1.13,5.834-2.37,8.417-2.08l39.726-39.73,1.415,1.42-39.01,39.01a5.144,5.144,0,0,1,1.032.79h0c1.406,1.41,1.724,3.62,1.362,6.31a3.971,3.971,0,0,0-2.14.75c0.483-2.46.44-4.56-.637-5.64h0c-2-2-5.778-.47-9.428,1.02-3.686,1.49-7.167,2.91-9.27.8-1.488-1.48-.911-3.92-0.162-6.54l0.349-1.23c0.781-2.74,1.421-5.48-.135-7.04a3.35,3.35,0,0,0-.459-0.37,1.985,1.985,0,0,0,1.082-1.69,5.019,5.019,0,0,1,.793.65c1.565,1.56,1.727,3.63,1.392,5.78Z" transform="translate(-322.031 -4502.03)"/>
  <path id="Shape_1050_copy_8-2" data-name="Shape 1050 copy 8" class="cls-3" d="M334.313,4562.85c-0.818,2.84-1.59,5.51,0,7.1,2.1,2.11,5.584.69,9.27-.8,3.65-1.49,7.426-3.02,9.428-1.02h0c0.891,0.89,1.074,2.48.839,4.4l-7.485,7.48-0.905.91-0.3.3-1.7-.03-12.508-.22-3.856-.07-0.068-3.86-0.22-12.5-0.03-1.71,0.3-.3,0.905-.9,6.426-6.43C336.024,4556.89,335.159,4559.92,334.313,4562.85Z" transform="translate(-322.031 -4502.03)"/>
  <path id="Shape_1050_copy_8-3" data-name="Shape 1050 copy 8" class="cls-2" d="M326.964,4574.26c0.13,0.11.267,0.2,0.388,0.32l6.459,6.46-2.856-.07-3.856-.07-0.068-3.86Z" transform="translate(-322.031 -4502.03)"/>
  <path id="Shape_1052_copy_4" data-name="Shape 1052 copy 4" class="cls-1" d="M324.925,4571.15l11.925,11.92-2.879-.05-9-8.99Z" transform="translate(-322.031 -4502.03)"/>
</svg>
