<svg id="_1_1" data-name="1_1" xmlns="http://www.w3.org/2000/svg" width="159.063" height="94" viewBox="0 0 159.063 94">
  <metadata><?xpacket begin="﻿" id="W5M0MpCehiHzreSzNTczkc9d"?>
<x:xmpmeta xmlns:x="adobe:ns:meta/" x:xmptk="Adobe XMP Core 5.6-c138 79.159824, 2016/09/14-01:09:01        ">
   <rdf:RDF xmlns:rdf="http://www.w3.org/1999/02/22-rdf-syntax-ns#">
      <rdf:Description rdf:about=""/>
   </rdf:RDF>
</x:xmpmeta>
                                                                                                    
                                                                                                    
                                                                                                    
                                                                                                    
                                                                                                    
                                                                                                    
                                                                                                    
                                                                                                    
                                                                                                    
                                                                                                    
                                                                                                    
                                                                                                    
                                                                                                    
                                                                                                    
                                                                                                    
                                                                                                    
                                                                                                    
                                                                                                    
                                                                                                    
                                                                                                    
                           
<?xpacket end="w"?></metadata>
<defs>
    <style>
      .cls-1 {
        fill: #2c7457;
      }

      .cls-1, .cls-2, .cls-3 {
        fill-rule: evenodd;
        opacity: 0.5;
      }

      .cls-2 {
        fill: #16d488;
      }

      .cls-3 {
        fill: #226d4f;
      }
    </style>
  </defs>
  <path id="Rectangle_131_copy_7" data-name="Rectangle 131 copy 7" class="cls-1" d="M443.656,4548.07L441,4545.41l-2.657,2.66-1.414-1.42,2.656-2.65-2.656-2.66,1.414-1.42,2.657,2.66,2.656-2.66,1.415,1.42-2.657,2.66,2.657,2.65Z" transform="translate(-286 -4492)"/>
  <path id="Rectangle_175_copy_7" data-name="Rectangle 175 copy 7" class="cls-2" d="M439,4582h-3v3a1,1,0,0,1-2,0v-3h-3a1,1,0,0,1,0-2h3v-3a1,1,0,0,1,2,0v3h3A1,1,0,0,1,439,4582Z" transform="translate(-286 -4492)"/>
  <path id="Rounded_Rectangle_10_copy_8" data-name="Rounded Rectangle 10 copy 8" class="cls-3" d="M318,4501h-7a1,1,0,0,1-1-1v-7a1,1,0,0,1,1-1h7a1,1,0,0,1,1,1v7A1,1,0,0,1,318,4501Zm-1-7h-5v5h5v-5Z" transform="translate(-286 -4492)"/>
  <path id="Shape_981_copy_7" data-name="Shape 981 copy 7" class="cls-2" d="M435.261,4509.55l-11.405.2,5.876-9.77Zm-7.9-1.82,4.471-.08-2.168-3.75Z" transform="translate(-286 -4492)"/>
  <path id="Ellipse_42_copy_11" data-name="Ellipse 42 copy 11" class="cls-2" d="M290,4534a4,4,0,1,1,4-4A4,4,0,0,1,290,4534Zm0-6a2,2,0,1,0,2,2A2,2,0,0,0,290,4528Z" transform="translate(-286 -4492)"/>
  <path id="Shape_981_copy_10" data-name="Shape 981 copy 10" class="cls-1" d="M305.282,4573.91l-10.966,3.15,3.146-10.97Zm-8.106.29,4.3-1.23-3.065-3.07Z" transform="translate(-286 -4492)"/>
</svg>
