<svg xmlns="http://www.w3.org/2000/svg" width="175" height="110" viewBox="0 0 175 110">
  <metadata><?xpacket begin="﻿" id="W5M0MpCehiHzreSzNTczkc9d"?>
<x:xmpmeta xmlns:x="adobe:ns:meta/" x:xmptk="Adobe XMP Core 5.6-c138 79.159824, 2016/09/14-01:09:01        ">
   <rdf:RDF xmlns:rdf="http://www.w3.org/1999/02/22-rdf-syntax-ns#">
      <rdf:Description rdf:about=""/>
   </rdf:RDF>
</x:xmpmeta>
                                                                                                    
                                                                                                    
                                                                                                    
                                                                                                    
                                                                                                    
                                                                                                    
                                                                                                    
                                                                                                    
                                                                                                    
                                                                                                    
                                                                                                    
                                                                                                    
                                                                                                    
                                                                                                    
                                                                                                    
                                                                                                    
                                                                                                    
                                                                                                    
                                                                                                    
                                                                                                    
                           
<?xpacket end="w"?></metadata>
<defs>
    <style>
      .cls-1 {
        fill: #f0f7f5;
        fill-rule: evenodd;
      }
    </style>
  </defs>
  <path id="_1_bg" data-name="1_bg" class="cls-1" d="M427,4589H377a5,5,0,0,1,0-10h59a5,5,0,0,0,0-10H334a5,5,0,0,1,0-10H447a5,5,0,0,0,0-10H363a5,5,0,0,1,0-10h64a5,5,0,0,0,0-10H409a5,5,0,0,1,0-10h33a5,5,0,0,0,0-10H328a5,5,0,0,1,0-10H446a5,5,0,0,0,0-10H282a5,5,0,0,0,0,10h26a5,5,0,0,1,0,10h-5a5,5,0,0,0,0,10h86a5,5,0,0,1,0,10H324a5,5,0,0,0,0,10h19a5,5,0,0,1,0,10H297a5,5,0,0,0,0,10h17a5,5,0,0,1,0,10H287a5,5,0,0,0,0,10h38a5,5,0,0,1,0,10H293a5,5,0,0,0,0,10H427A5,5,0,0,0,427,4589Z" transform="translate(-277 -4489)"/>
</svg>
