<svg id="_2" data-name="2" xmlns="http://www.w3.org/2000/svg" width="100" height="80" viewBox="0 0 100 80">
  <metadata><?xpacket begin="﻿" id="W5M0MpCehiHzreSzNTczkc9d"?>
<x:xmpmeta xmlns:x="adobe:ns:meta/" x:xmptk="Adobe XMP Core 5.6-c138 79.159824, 2016/09/14-01:09:01        ">
   <rdf:RDF xmlns:rdf="http://www.w3.org/1999/02/22-rdf-syntax-ns#">
      <rdf:Description rdf:about=""/>
   </rdf:RDF>
</x:xmpmeta>
                                                                                                    
                                                                                                    
                                                                                                    
                                                                                                    
                                                                                                    
                                                                                                    
                                                                                                    
                                                                                                    
                                                                                                    
                                                                                                    
                                                                                                    
                                                                                                    
                                                                                                    
                                                                                                    
                                                                                                    
                                                                                                    
                                                                                                    
                                                                                                    
                                                                                                    
                                                                                                    
                           
<?xpacket end="w"?></metadata>
<defs>
    <style>
      .cls-1, .cls-3 {
        fill: #226d4f;
      }

      .cls-1, .cls-2, .cls-4 {
        fill-rule: evenodd;
      }

      .cls-2 {
        fill: #16d488;
      }

      .cls-4 {
        fill: #c1ecdb;
      }
    </style>
  </defs>
  <path id="Shape_990_copy_20" data-name="Shape 990 copy 20" class="cls-1" d="M753,4541h50v74H753a4,4,0,0,1-4-4v-66A4,4,0,0,1,753,4541Z" transform="translate(-749 -4537)"/>
  <path id="Shape_990_copy_21" data-name="Shape 990 copy 21" class="cls-1" d="M847,4601v-2h2v2h-2Zm0-54h2v2h-2v-2Zm-2-4v-2h-2v2h-2v-2h-2v2h-2v-2h-2v2h-2v-2h-2v2h-2v-2h-2v2h-2v-2h-2v2h-2v-2h-2v2h-2v-2h-2v2h-2v-2h32a3.991,3.991,0,0,1,2,.55V4543h1.446a3.942,3.942,0,0,1,.554,2h-2A2,2,0,0,0,845,4543Zm-30,72h-2v-2h2v2Zm4,0h-2v-2h2v2Zm4,0h-2v-2h2v2Zm4,0h-2v-2h2v2Zm4,0h-2v-2h2v2Zm4,0h-2v-2h2v2Zm4,0h-2v-2h2v2Zm4,0h-2v-2h2v2Zm6-18h-2v-2h2v2Zm0-4h-2v-2h2v2Zm0-4h-2v-2h2v2Zm0-4h-2v-2h2v2Zm0-4h-2v-2h2v2Zm0-4h-2v-2h2v2Zm0-4h-2v-2h2v2Zm0-4h-2v-2h2v2Zm0-4h-2v-2h2v2Zm0-4h-2v-2h2v2Zm-2-10h2v2h-2v-2Zm2,6h-2v-2h2v2Zm-2,54h2a3.972,3.972,0,0,1-.556,2H847v1.44a3.9,3.9,0,0,1-2,.56v-2A2,2,0,0,0,847,4611Zm0-6v-2h2v2h-2Zm0,4v-2h2v2h-2Z" transform="translate(-749 -4537)"/>
  <path id="Shape_990_copy_20-2" data-name="Shape 990 copy 20" class="cls-2" d="M753,4543h50v70H753a2,2,0,0,1-2-2v-66A2,2,0,0,1,753,4543Z" transform="translate(-749 -4537)"/>
  <rect class="cls-3" x="52" width="2" height="80"/>
  <path id="Shape_990_copy_20-3" data-name="Shape 990 copy 20" class="cls-4" d="M755,4547h46v62H755v-62h0Z" transform="translate(-749 -4537)"/>
  <path class="cls-1" d="M804,4570H794v11h0v10a3,3,0,0,1-3,3h-2a3,3,0,0,1-3-3v-10h0v-11H776a3,3,0,0,1-3-3v-2a3,3,0,0,1,3-3h28a3,3,0,0,1,3,3v2A3,3,0,0,1,804,4570Z" transform="translate(-749 -4537)"/>
  <path id="Shape_1044_copy" data-name="Shape 1044 copy" class="cls-2" d="M804,4568H792v11h0v12a1,1,0,0,1-1,1h-2a1,1,0,0,1-1-1v-23H776a1,1,0,0,1-1-1v-2a1,1,0,0,1,1-1h28a1,1,0,0,1,1,1v2A1,1,0,0,1,804,4568Z" transform="translate(-749 -4537)"/>
</svg>
