<svg xmlns="http://www.w3.org/2000/svg" width="170" height="110" viewBox="0 0 170 110">
  <metadata><?xpacket begin="﻿" id="W5M0MpCehiHzreSzNTczkc9d"?>
<x:xmpmeta xmlns:x="adobe:ns:meta/" x:xmptk="Adobe XMP Core 5.6-c138 79.159824, 2016/09/14-01:09:01        ">
   <rdf:RDF xmlns:rdf="http://www.w3.org/1999/02/22-rdf-syntax-ns#">
      <rdf:Description rdf:about=""/>
   </rdf:RDF>
</x:xmpmeta>
                                                                                                    
                                                                                                    
                                                                                                    
                                                                                                    
                                                                                                    
                                                                                                    
                                                                                                    
                                                                                                    
                                                                                                    
                                                                                                    
                                                                                                    
                                                                                                    
                                                                                                    
                                                                                                    
                                                                                                    
                                                                                                    
                                                                                                    
                                                                                                    
                                                                                                    
                                                                                                    
                           
<?xpacket end="w"?></metadata>
<defs>
    <style>
      .cls-1 {
        fill: #f0f7f5;
        fill-rule: evenodd;
      }
    </style>
  </defs>
  <path id="_2_bg" data-name="2_bg" class="cls-1" d="M869,4532H859a5,5,0,0,0,0,10h9a5,5,0,0,1,0,10H766a5,5,0,0,0,0,10H869a5,5,0,0,1,0,10h-7a5,5,0,0,0,0,10h17a5,5,0,0,1,0,10H836a5,5,0,0,0,0,10h28a5,5,0,0,1,0,10H760a5,5,0,0,0,0,10H879a5,5,0,0,1,0,10H724a5,5,0,0,1,0-10h16a5,5,0,0,0,0-10H724a5,5,0,0,1,0-10h67a5,5,0,0,0,0-10H776a5,5,0,0,1,0-10h66a5,5,0,0,0,0-10H739a5,5,0,0,1,0-10h7a5,5,0,0,0,0-10H719a5,5,0,0,1,0-10H837a5,5,0,0,0,0-10H735a5,5,0,0,1,0-10H869A5,5,0,0,1,869,4532Zm-143,50h30a5,5,0,0,1,0,10H726A5,5,0,0,1,726,4582Z" transform="translate(-714 -4522)"/>
</svg>
