<svg id="_3" data-name="3" xmlns="http://www.w3.org/2000/svg" width="65" height="90" viewBox="0 0 65 90">
  <metadata><?xpacket begin="﻿" id="W5M0MpCehiHzreSzNTczkc9d"?>
<x:xmpmeta xmlns:x="adobe:ns:meta/" x:xmptk="Adobe XMP Core 5.6-c138 79.159824, 2016/09/14-01:09:01        ">
   <rdf:RDF xmlns:rdf="http://www.w3.org/1999/02/22-rdf-syntax-ns#">
      <rdf:Description rdf:about=""/>
   </rdf:RDF>
</x:xmpmeta>
                                                                                                    
                                                                                                    
                                                                                                    
                                                                                                    
                                                                                                    
                                                                                                    
                                                                                                    
                                                                                                    
                                                                                                    
                                                                                                    
                                                                                                    
                                                                                                    
                                                                                                    
                                                                                                    
                                                                                                    
                                                                                                    
                                                                                                    
                                                                                                    
                                                                                                    
                                                                                                    
                           
<?xpacket end="w"?></metadata>
<defs>
    <style>
      .cls-1, .cls-2 {
        fill: #226d4f;
      }

      .cls-1, .cls-4, .cls-5 {
        fill-rule: evenodd;
      }

      .cls-3, .cls-4 {
        fill: #16d488;
      }

      .cls-5 {
        fill: #c1ecdb;
      }
    </style>
  </defs>
  <path class="cls-1" d="M1212,4517h49a8,8,0,0,1,8,8v55.99a8,8,0,0,1-8,8h-49a8,8,0,0,1-8-8V4525A8,8,0,0,1,1212,4517Z" transform="translate(-1204 -4499)"/>
  <rect class="cls-2" x="26" y="8" width="13" height="16"/>
  <rect id="Rectangle_567_copy" data-name="Rectangle 567 copy" class="cls-3" x="28" y="8" width="9" height="10"/>
  <rect id="Rounded_Rectangle_28" data-name="Rounded Rectangle 28" class="cls-2" x="20" width="25" height="13" rx="2" ry="2"/>
  <path id="Rounded_Rectangle_28_copy" data-name="Rounded Rectangle 28 copy" class="cls-4" d="M1226,4501h21v9h-21v-9h0Z" transform="translate(-1204 -4499)"/>
  <rect class="cls-2" x="24" y="2" width="2" height="9"/>
  <rect id="Rectangle_569_copy" data-name="Rectangle 569 copy" class="cls-2" x="29" y="2" width="2" height="9"/>
  <rect id="Rectangle_569_copy_2" data-name="Rectangle 569 copy 2" class="cls-2" x="34" y="2" width="2" height="9"/>
  <rect id="Rectangle_569_copy_3" data-name="Rectangle 569 copy 3" class="cls-2" x="39" y="2" width="2" height="9"/>
  <path id="Shape_1045_copy" data-name="Shape 1045 copy" class="cls-4" d="M1212,4519h49a6,6,0,0,1,6,6v55.99a6,6,0,0,1-6,6h-49a6,6,0,0,1-6-6V4525A6,6,0,0,1,1212,4519Z" transform="translate(-1204 -4499)"/>
  <path id="Shape_1045_copy_2" data-name="Shape 1045 copy 2" class="cls-5" d="M1212,4523h49a2,2,0,0,1,2,2v55.99a2.006,2.006,0,0,1-2,2h-49a2.006,2.006,0,0,1-2-2V4525A2,2,0,0,1,1212,4523Z" transform="translate(-1204 -4499)"/>
  <rect class="cls-2" x="1" y="39" width="63" height="37"/>
  <rect id="Rectangle_568_copy" data-name="Rectangle 568 copy" class="cls-3" x="2" y="41" width="61" height="33"/>
</svg>
