<svg id="_3_1" data-name="3_1" xmlns="http://www.w3.org/2000/svg" width="153.06" height="99" viewBox="0 0 153.06 99">
  <metadata><?xpacket begin="﻿" id="W5M0MpCehiHzreSzNTczkc9d"?>
<x:xmpmeta xmlns:x="adobe:ns:meta/" x:xmptk="Adobe XMP Core 5.6-c138 79.159824, 2016/09/14-01:09:01        ">
   <rdf:RDF xmlns:rdf="http://www.w3.org/1999/02/22-rdf-syntax-ns#">
      <rdf:Description rdf:about=""/>
   </rdf:RDF>
</x:xmpmeta>
                                                                                                    
                                                                                                    
                                                                                                    
                                                                                                    
                                                                                                    
                                                                                                    
                                                                                                    
                                                                                                    
                                                                                                    
                                                                                                    
                                                                                                    
                                                                                                    
                                                                                                    
                                                                                                    
                                                                                                    
                                                                                                    
                                                                                                    
                                                                                                    
                                                                                                    
                                                                                                    
                           
<?xpacket end="w"?></metadata>
<defs>
    <style>
      .cls-1 {
        fill: #2c7457;
      }

      .cls-1, .cls-2 {
        fill-rule: evenodd;
        opacity: 0.5;
      }

      .cls-2 {
        fill: #16d488;
      }
    </style>
  </defs>
  <path id="Rectangle_131_copy_13" data-name="Rectangle 131 copy 13" class="cls-1" d="M1164.66,4553.07l-2.66-2.66-2.66,2.66-1.41-1.42,2.66-2.65-2.66-2.66,1.41-1.41,2.66,2.65,2.66-2.65,1.41,1.41-2.66,2.66,2.66,2.65Z" transform="translate(-1157.94 -4493)"/>
  <path id="Rectangle_175_copy_11" data-name="Rectangle 175 copy 11" class="cls-2" d="M1187,4499h-3v3a1,1,0,0,1-2,0v-3h-3a1,1,0,0,1,0-2h3v-3a1,1,0,0,1,2,0v3h3A1,1,0,0,1,1187,4499Z" transform="translate(-1157.94 -4493)"/>
  <path id="Shape_981_copy_11" data-name="Shape 981 copy 11" class="cls-1" d="M1309.28,4579.91l-10.96,3.15,3.14-10.97Zm-8.1.29,4.29-1.23-3.06-3.07Z" transform="translate(-1157.94 -4493)"/>
  <path id="Rounded_Rectangle_10_copy_12" data-name="Rounded Rectangle 10 copy 12" class="cls-2" d="M1182,4592h-7a1,1,0,0,1-1-1v-7a1,1,0,0,1,1-1h7a1,1,0,0,1,1,1v7A1,1,0,0,1,1182,4592Zm-1-7h-5v5h5v-5Z" transform="translate(-1157.94 -4493)"/>
  <path id="Ellipse_42_copy_14" data-name="Ellipse 42 copy 14" class="cls-2" d="M1307,4546a4,4,0,1,1,4-4A4,4,0,0,1,1307,4546Zm0-6a2,2,0,1,0,2,2A2,2,0,0,0,1307,4540Z" transform="translate(-1157.94 -4493)"/>
</svg>
