<svg xmlns="http://www.w3.org/2000/svg" width="170" height="110" viewBox="0 0 170 110">
  <metadata><?xpacket begin="﻿" id="W5M0MpCehiHzreSzNTczkc9d"?>
<x:xmpmeta xmlns:x="adobe:ns:meta/" x:xmptk="Adobe XMP Core 5.6-c138 79.159824, 2016/09/14-01:09:01        ">
   <rdf:RDF xmlns:rdf="http://www.w3.org/1999/02/22-rdf-syntax-ns#">
      <rdf:Description rdf:about=""/>
   </rdf:RDF>
</x:xmpmeta>
                                                                                                    
                                                                                                    
                                                                                                    
                                                                                                    
                                                                                                    
                                                                                                    
                                                                                                    
                                                                                                    
                                                                                                    
                                                                                                    
                                                                                                    
                                                                                                    
                                                                                                    
                                                                                                    
                                                                                                    
                                                                                                    
                                                                                                    
                                                                                                    
                                                                                                    
                                                                                                    
                           
<?xpacket end="w"?></metadata>
<defs>
    <style>
      .cls-1 {
        fill: #f0f7f5;
        fill-rule: evenodd;
      }
    </style>
  </defs>
  <path id="_3_bg" data-name="3_bg" class="cls-1" d="M1311,4499H1209a5,5,0,0,0,0,10h99a5,5,0,0,1,0,10h-12a5,5,0,0,0,0,10h20a5,5,0,0,1,0,10h-21a5,5,0,0,0,0,10h14a5,5,0,0,1,0,10h-33a5,5,0,0,0,0,10h28a5,5,0,0,1,0,10h-84a5,5,0,0,0,0,10h88a5,5,0,0,1,0,10H1164a5,5,0,0,1,0-10h36a5,5,0,0,0,0-10h-36a5,5,0,0,1,0-10h77a5,5,0,0,0,0-10h-65a5,5,0,0,1,0-10h99a5,5,0,0,0,0-10h-36a5,5,0,0,1,0-10h37a5,5,0,0,0,0-10H1159a5,5,0,0,1,0-10h30a5,5,0,0,0,0-10h-24a5,5,0,0,1,0-10h146A5,5,0,0,1,1311,4499Zm-155,30h63a5,5,0,0,1,0,10h-63A5,5,0,0,1,1156,4529Z" transform="translate(-1151 -4489)"/>
</svg>
