<svg id="_1" data-name="1" xmlns="http://www.w3.org/2000/svg" width="113" height="106" viewBox="0 0 113 106">
  <metadata><?xpacket begin="﻿" id="W5M0MpCehiHzreSzNTczkc9d"?>
<x:xmpmeta xmlns:x="adobe:ns:meta/" x:xmptk="Adobe XMP Core 5.6-c138 79.159824, 2016/09/14-01:09:01        ">
   <rdf:RDF xmlns:rdf="http://www.w3.org/1999/02/22-rdf-syntax-ns#">
      <rdf:Description rdf:about=""/>
   </rdf:RDF>
</x:xmpmeta>
                                                                                                    
                                                                                                    
                                                                                                    
                                                                                                    
                                                                                                    
                                                                                                    
                                                                                                    
                                                                                                    
                                                                                                    
                                                                                                    
                                                                                                    
                                                                                                    
                                                                                                    
                                                                                                    
                                                                                                    
                                                                                                    
                                                                                                    
                                                                                                    
                                                                                                    
                                                                                                    
                           
<?xpacket end="w"?></metadata>
<defs>
    <style>
      .cls-1, .cls-4 {
        fill: #226d4f;
      }

      .cls-1, .cls-2, .cls-3 {
        fill-rule: evenodd;
      }

      .cls-2, .cls-5 {
        fill: #16d488;
      }

      .cls-3, .cls-6 {
        fill: #c1ecdb;
      }
    </style>
  </defs>
  <path id="Rectangle_54_copy_3" data-name="Rectangle 54 copy 3" class="cls-1" d="M437,1178h11.991v21H437v-21Z" transform="translate(-409 -1110)"/>
  <path id="Rectangle_54_copy_6" data-name="Rectangle 54 copy 6" class="cls-2" d="M439,1178h7.991v21H439v-21Z" transform="translate(-409 -1110)"/>
  <path id="Rectangle_54_copy_4" data-name="Rectangle 54 copy 4" class="cls-1" d="M495,1196.99v11.99H452.99v-11.99H495Z" transform="translate(-409 -1110)"/>
  <path id="Rectangle_54_copy_5" data-name="Rectangle 54 copy 5" class="cls-2" d="M495,1198.99v7.99H452.99v-7.99H495Z" transform="translate(-409 -1110)"/>
  <path id="Rectangle_54_copy_2" data-name="Rectangle 54 copy 2" class="cls-1" d="M513,1178H432a8.973,8.973,0,0,1-9-9v-47h-8a6,6,0,0,1,0-12h14a5.99,5.99,0,0,1,6,6v9h78a8.967,8.967,0,0,1,9,9v35A8.973,8.973,0,0,1,513,1178Z" transform="translate(-409 -1110)"/>
  <path class="cls-2" d="M511.88,1176H432a7,7,0,0,1-7-7v-49H415a4,4,0,0,1,0-8h14a4,4,0,0,1,4,4v11h78.88c4.484,0,8.12,3.13,8.12,7v35C520,1172.87,516.364,1176,511.88,1176Z" transform="translate(-409 -1110)"/>
  <path class="cls-3" d="M429,1131h84a3,3,0,0,1,3,3v35a3,3,0,0,1-3,3H432a3,3,0,0,1-3-3v-38h0Z" transform="translate(-409 -1110)"/>
  <circle class="cls-4" cx="34" cy="93" r="13"/>
  <circle id="Ellipse_9_copy" data-name="Ellipse 9 copy" class="cls-4" cx="95" cy="93" r="13"/>
  <circle id="Ellipse_9_copy_2" data-name="Ellipse 9 copy 2" class="cls-5" cx="95" cy="93" r="11"/>
  <circle id="Ellipse_9_copy_3" data-name="Ellipse 9 copy 3" class="cls-5" cx="34" cy="93" r="11"/>
  <circle class="cls-6" cx="34" cy="93" r="7"/>
  <circle id="Ellipse_10_copy" data-name="Ellipse 10 copy" class="cls-6" cx="95" cy="93" r="7"/>
</svg>
