<svg xmlns="http://www.w3.org/2000/svg" width="198" height="135" viewBox="0 0 198 135">
  <metadata><?xpacket begin="﻿" id="W5M0MpCehiHzreSzNTczkc9d"?>
<x:xmpmeta xmlns:x="adobe:ns:meta/" x:xmptk="Adobe XMP Core 5.6-c138 79.159824, 2016/09/14-01:09:01        ">
   <rdf:RDF xmlns:rdf="http://www.w3.org/1999/02/22-rdf-syntax-ns#">
      <rdf:Description rdf:about=""/>
   </rdf:RDF>
</x:xmpmeta>
                                                                                                    
                                                                                                    
                                                                                                    
                                                                                                    
                                                                                                    
                                                                                                    
                                                                                                    
                                                                                                    
                                                                                                    
                                                                                                    
                                                                                                    
                                                                                                    
                                                                                                    
                                                                                                    
                                                                                                    
                                                                                                    
                                                                                                    
                                                                                                    
                                                                                                    
                                                                                                    
                           
<?xpacket end="w"?></metadata>
<defs>
    <style>
      .cls-1 {
        fill: #f0f7f5;
        fill-rule: evenodd;
      }
    </style>
  </defs>
  <path id="_1_bg" data-name="1_bg" class="cls-1" d="M562,1142H544a7.5,7.5,0,0,0,0,15h19.5a7.5,7.5,0,0,1,0,15h-36a7.5,7.5,0,1,0,0,14.99H535a7.505,7.505,0,0,1,0,15.01H500.5a7.5,7.5,0,0,0,0,15h39a7.5,7.5,0,0,1,0,15h-102a7.5,7.5,0,1,1,0-15h33a7.5,7.5,0,0,0,0-15h-45a7.505,7.505,0,0,1,0-15.01H433a7.5,7.5,0,1,0,0-14.99H395.5a7.5,7.5,0,0,1,0-15h21a7.5,7.5,0,0,0,0-15h-12a7.505,7.505,0,0,1,0-15.01h45a7.5,7.5,0,1,0,0-15H397a7.5,7.5,0,1,1,0-14.99h90a7.5,7.5,0,1,1,0,14.99h-7.5a7.5,7.5,0,1,0,0,15H562A7.505,7.505,0,0,1,562,1142Zm-4.5-30.01H517a7.5,7.5,0,1,1,0-14.99h40.5A7.5,7.5,0,1,1,557.5,1111.99ZM403,1194.5a7.5,7.5,0,0,1-7.5,7.5h-15a7.505,7.505,0,0,1,0-15.01h15A7.5,7.5,0,0,1,403,1194.5Z" transform="translate(-373 -1097)"/>
</svg>
