<svg id="_2" data-name="2" xmlns="http://www.w3.org/2000/svg" width="106.81" height="106" viewBox="0 0 106.81 106">
  <metadata><?xpacket begin="﻿" id="W5M0MpCehiHzreSzNTczkc9d"?>
<x:xmpmeta xmlns:x="adobe:ns:meta/" x:xmptk="Adobe XMP Core 5.6-c138 79.159824, 2016/09/14-01:09:01        ">
   <rdf:RDF xmlns:rdf="http://www.w3.org/1999/02/22-rdf-syntax-ns#">
      <rdf:Description rdf:about=""/>
   </rdf:RDF>
</x:xmpmeta>
                                                                                                    
                                                                                                    
                                                                                                    
                                                                                                    
                                                                                                    
                                                                                                    
                                                                                                    
                                                                                                    
                                                                                                    
                                                                                                    
                                                                                                    
                                                                                                    
                                                                                                    
                                                                                                    
                                                                                                    
                                                                                                    
                                                                                                    
                                                                                                    
                                                                                                    
                                                                                                    
                           
<?xpacket end="w"?></metadata>
<defs>
    <style>
      .cls-1 {
        fill: #226d4f;
      }

      .cls-1, .cls-2, .cls-3 {
        fill-rule: evenodd;
      }

      .cls-2 {
        fill: #16d488;
      }

      .cls-3 {
        fill: #c1ecdb;
      }
    </style>
  </defs>
  <path class="cls-1" d="M1171.11,1187.84a15.158,15.158,0,0,1-3.84.5,14.992,14.992,0,0,1-9.08-3.04h-0.02v16.54a12.215,12.215,0,0,1-12.23,12.16h-57.72a12.221,12.221,0,0,1-12.23-12.19v-0.06l0.23-14.87a7.043,7.043,0,0,1,10.59-5.89,8.916,8.916,0,0,0,4.5,1.2,8.888,8.888,0,0,0,8.79-6.82l0.01-.08,0.02-.06v-0.03l0.01-.03,0.01-.06a9.1,9.1,0,0,0-6.84-10.85,8.647,8.647,0,0,0-1.98-.22,9.2,9.2,0,0,0-4.56,1.21,7.114,7.114,0,0,1-3.54.95,7.027,7.027,0,0,1-7.03-6.87l-0.21-14.88v-0.05a12.206,12.206,0,0,1,12.23-12.15h16.62v-0.06a15.036,15.036,0,0,1,1.44-19.75,15.321,15.321,0,0,1,25.58,6.85,14.909,14.909,0,0,1-2.54,12.86v0.06h16.62a12.206,12.206,0,0,1,12.23,12.15v16.55h0.03a15.214,15.214,0,0,1,9.02-3.02h0.04c0.15-.01.3-0.01,0.45-0.01a14.863,14.863,0,0,1,10.4,4.22,15.022,15.022,0,0,1,4.71,10.63A15.271,15.271,0,0,1,1171.11,1187.84Z" transform="translate(-1076 -1108)"/>
  <path id="Shape_26_copy" data-name="Shape 26 copy" class="cls-2" d="M1170.63,1185.91h-0.03a13.1,13.1,0,0,1-11.2-2.2l-0.02-.02-0.02-.01a1.762,1.762,0,0,0-1.08-.37h-0.52a1.594,1.594,0,0,0-1.6,1.58v16.95a10.2,10.2,0,0,1-10.22,10.17h-57.72a10.2,10.2,0,0,1-10.22-10.17v-0.06l0.23-14.87a5.01,5.01,0,0,1,5.02-4.89,5.11,5.11,0,0,1,2.55.69,10.9,10.9,0,0,0,5.51,1.47,11.657,11.657,0,0,0,1.55-.11,10.872,10.872,0,0,0,9.2-8.26v-0.03l0.03-.12,0.01-.06,0.01-.06a11.1,11.1,0,0,0-8.35-13.22,10.841,10.841,0,0,0-2.43-.28,11.223,11.223,0,0,0-5.57,1.49,5.13,5.13,0,0,1-2.53.68h0a5.019,5.019,0,0,1-5.02-4.9l-0.21-14.86v-0.05a10.194,10.194,0,0,1,10.22-10.16h17.02a1.573,1.573,0,0,0,1.13-.48,1.546,1.546,0,0,0,.48-1.12v-0.6a1.6,1.6,0,0,0-.33-0.94l-0.02-.03-0.01-.02a13.044,13.044,0,0,1,1.22-17.2,13.3,13.3,0,0,1,22.21,5.94,12.931,12.931,0,0,1-2.24,11.21,1.663,1.663,0,0,0-.37,1.05v0.55a1.627,1.627,0,0,0,1.61,1.6h17.02a10.2,10.2,0,0,1,10.22,10.16v16.94a1.635,1.635,0,0,0,1.62,1.6h0.56a1.817,1.817,0,0,0,1.03-.38,13.2,13.2,0,0,1,7.88-2.64h0.06c0.13-.01.27-0.01,0.4-0.01a12.863,12.863,0,0,1,9.01,3.67,13.064,13.064,0,0,1,4.1,9.24A13.3,13.3,0,0,1,1170.63,1185.91Z" transform="translate(-1076 -1108)"/>
  <path id="Shape_26_copy_2" data-name="Shape 26 copy 2" class="cls-3" d="M1117.09,1113.96a9.254,9.254,0,0,1,8.94,6.84,8.968,8.968,0,0,1-1.53,7.77,5.7,5.7,0,0,0-1.21,3.48v0.55a5.625,5.625,0,0,0,5.63,5.58h17.02a6.2,6.2,0,0,1,6.21,6.18v16.94a5.619,5.619,0,0,0,5.63,5.58h0.6a5.726,5.726,0,0,0,3.41-1.18,9.174,9.174,0,0,1,5.48-1.84h0.15c0.09,0,.19-0.01.29-0.01a8.932,8.932,0,0,1,6.23,2.56,9.1,9.1,0,0,1,2.86,6.45,9.279,9.279,0,0,1-7.12,9.18l-0.05.01-0.05.01a9.1,9.1,0,0,1-2.31.3,8.965,8.965,0,0,1-5.43-1.82,5.8,5.8,0,0,0-3.53-1.21h-0.55a5.585,5.585,0,0,0-5.61,5.56v16.95a6.2,6.2,0,0,1-6.21,6.18h-57.72a6.2,6.2,0,0,1-6.21-6.18l0.23-14.87a0.992,0.992,0,0,1,1.01-.97,1.018,1.018,0,0,1,.52.14,15.018,15.018,0,0,0,9.64,1.87,15.063,15.063,0,0,0,11.59-8.51,14.593,14.593,0,0,0,.96-2.74l0.03-.12,0.02-.11,0.02-.11a15.085,15.085,0,0,0-14.7-18.36h0a15.3,15.3,0,0,0-7.58,2.02,1.018,1.018,0,0,1-.52.14,0.992,0.992,0,0,1-1.01-.97l-0.21-14.85a6.2,6.2,0,0,1,6.21-6.18h17.02a5.619,5.619,0,0,0,5.63-5.58v-0.65a5.646,5.646,0,0,0-1.18-3.34,9.084,9.084,0,0,1,.86-11.99,9.215,9.215,0,0,1,6.54-2.7" transform="translate(-1076 -1108)"/>
</svg>
