<svg xmlns="http://www.w3.org/2000/svg" width="199" height="135" viewBox="0 0 199 135">
  <metadata><?xpacket begin="﻿" id="W5M0MpCehiHzreSzNTczkc9d"?>
<x:xmpmeta xmlns:x="adobe:ns:meta/" x:xmptk="Adobe XMP Core 5.6-c138 79.159824, 2016/09/14-01:09:01        ">
   <rdf:RDF xmlns:rdf="http://www.w3.org/1999/02/22-rdf-syntax-ns#">
      <rdf:Description rdf:about=""/>
   </rdf:RDF>
</x:xmpmeta>
                                                                                                    
                                                                                                    
                                                                                                    
                                                                                                    
                                                                                                    
                                                                                                    
                                                                                                    
                                                                                                    
                                                                                                    
                                                                                                    
                                                                                                    
                                                                                                    
                                                                                                    
                                                                                                    
                                                                                                    
                                                                                                    
                                                                                                    
                                                                                                    
                                                                                                    
                                                                                                    
                           
<?xpacket end="w"?></metadata>
<defs>
    <style>
      .cls-1 {
        fill: #f0f7f5;
        fill-rule: evenodd;
      }
    </style>
  </defs>
  <path id="_2_bg" data-name="2_bg" class="cls-1" d="M1212.5,1141.5h-27a7.5,7.5,0,0,0,0,15H1214a7.5,7.5,0,0,1,0,15h-24a7.5,7.5,0,0,0,0,15h15a7.5,7.5,0,0,1,0,15h-30a7.5,7.5,0,0,0,0,15h12a7.5,7.5,0,1,1,0,15H1082a7.5,7.5,0,1,1,0-15h63a7.5,7.5,0,0,0,0-15h-74.5a7.5,7.5,0,0,1,0-15H1100a7.5,7.5,0,0,0,0-15h-39a7.5,7.5,0,0,1,0-15h24a7.5,7.5,0,0,0,0-15h-28.5a7.505,7.505,0,0,1,0-15.01H1100a7.5,7.5,0,1,0,0-15h-15a7.5,7.5,0,1,1,0-15h97.5a7.5,7.5,0,1,1,0,15H1160a7.5,7.5,0,1,0,0,15h52.5A7.505,7.505,0,0,1,1212.5,1141.5ZM1048,1194a7.5,7.5,0,0,1-7.5,7.5H1030a7.5,7.5,0,0,1,0-15h10.5A7.5,7.5,0,0,1,1048,1194Z" transform="translate(-1022.5 -1096.5)"/>
</svg>
