<svg xmlns="http://www.w3.org/2000/svg" width="185" height="135" viewBox="0 0 185 135">
  <metadata><?xpacket begin="﻿" id="W5M0MpCehiHzreSzNTczkc9d"?>
<x:xmpmeta xmlns:x="adobe:ns:meta/" x:xmptk="Adobe XMP Core 5.6-c138 79.159824, 2016/09/14-01:09:01        ">
   <rdf:RDF xmlns:rdf="http://www.w3.org/1999/02/22-rdf-syntax-ns#">
      <rdf:Description rdf:about=""/>
   </rdf:RDF>
</x:xmpmeta>
                                                                                                    
                                                                                                    
                                                                                                    
                                                                                                    
                                                                                                    
                                                                                                    
                                                                                                    
                                                                                                    
                                                                                                    
                                                                                                    
                                                                                                    
                                                                                                    
                                                                                                    
                                                                                                    
                                                                                                    
                                                                                                    
                                                                                                    
                                                                                                    
                                                                                                    
                                                                                                    
                           
<?xpacket end="w"?></metadata>
<defs>
    <style>
      .cls-1 {
        fill: #f0f7f5;
        fill-rule: evenodd;
      }
    </style>
  </defs>
  <path id="_3_bg" data-name="3_bg" class="cls-1" d="M555.976,1689h-9.025a7.5,7.5,0,1,0,0,15H557.48a7.5,7.5,0,1,1,0,15H504.837a7.5,7.5,0,1,0,0,15H527.4a7.5,7.5,0,1,1,0,15h-96.26a7.5,7.5,0,1,1,0-15h28.577a7.5,7.5,0,1,0,0-15H392.032a7.5,7.5,0,1,1,0-15h37.6a7.5,7.5,0,1,0,0-15H405.569a7.5,7.5,0,1,1,0-15h4.512a7.5,7.5,0,1,0,0-15H387.52a7.5,7.5,0,1,1,0-15h57.155a7.5,7.5,0,1,0,0-15H423.618a7.5,7.5,0,1,1,0-15H527.4a7.5,7.5,0,1,1,0,15H504.837a7.5,7.5,0,1,0,0,15h37.6a7.5,7.5,0,1,1,0,15H516.87a7.5,7.5,0,1,0,0,15h39.106A7.5,7.5,0,1,1,555.976,1689Z" transform="translate(-380 -1614)"/>
</svg>
