<svg xmlns="http://www.w3.org/2000/svg" width="203" height="135" viewBox="0 0 203 135">
  <metadata><?xpacket begin="﻿" id="W5M0MpCehiHzreSzNTczkc9d"?>
<x:xmpmeta xmlns:x="adobe:ns:meta/" x:xmptk="Adobe XMP Core 5.6-c138 79.159824, 2016/09/14-01:09:01        ">
   <rdf:RDF xmlns:rdf="http://www.w3.org/1999/02/22-rdf-syntax-ns#">
      <rdf:Description rdf:about=""/>
   </rdf:RDF>
</x:xmpmeta>
                                                                                                    
                                                                                                    
                                                                                                    
                                                                                                    
                                                                                                    
                                                                                                    
                                                                                                    
                                                                                                    
                                                                                                    
                                                                                                    
                                                                                                    
                                                                                                    
                                                                                                    
                                                                                                    
                                                                                                    
                                                                                                    
                                                                                                    
                                                                                                    
                                                                                                    
                                                                                                    
                           
<?xpacket end="w"?></metadata>
<defs>
    <style>
      .cls-1 {
        fill: #f0f7f5;
        fill-rule: evenodd;
      }
    </style>
  </defs>
  <path id="_4_bg" data-name="4_bg" class="cls-1" d="M1210.96,1689H1189.9a7.5,7.5,0,1,0,0,15h31.58a7.5,7.5,0,1,1,0,15h-37.59a7.5,7.5,0,1,0,0,15h4.51a7.5,7.5,0,1,1,0,15H1081.64a7.5,7.5,0,1,1,0-15h3a7.5,7.5,0,1,0,0-15h-22.55a7.5,7.5,0,1,1,0-15h33.08a7.5,7.5,0,1,0,0-15h-19.55a7.5,7.5,0,1,1,0-15h37.59a7.5,7.5,0,1,0,0-15h-55.63a7.505,7.505,0,1,1,0-15.01h42.1a7.5,7.5,0,1,0,0-15h-21.05a7.5,7.5,0,1,1,0-15h118.79a7.5,7.5,0,1,1,0,15h-13.53a7.5,7.5,0,1,0,0,15h4.51a7.505,7.505,0,1,1,0,15.01h-48.12a7.5,7.5,0,1,0,0,15h70.68A7.5,7.5,0,1,1,1210.96,1689Zm-165.41,0h-12.03a7.5,7.5,0,1,1,0-15h12.03A7.5,7.5,0,1,1,1045.55,1689Z" transform="translate(-1026 -1614)"/>
</svg>
