<svg id="_5" data-name="5" xmlns="http://www.w3.org/2000/svg" width="114" height="89" viewBox="0 0 114 89">
  <metadata><?xpacket begin="﻿" id="W5M0MpCehiHzreSzNTczkc9d"?>
<x:xmpmeta xmlns:x="adobe:ns:meta/" x:xmptk="Adobe XMP Core 5.6-c138 79.159824, 2016/09/14-01:09:01        ">
   <rdf:RDF xmlns:rdf="http://www.w3.org/1999/02/22-rdf-syntax-ns#">
      <rdf:Description rdf:about=""/>
   </rdf:RDF>
</x:xmpmeta>
                                                                                                    
                                                                                                    
                                                                                                    
                                                                                                    
                                                                                                    
                                                                                                    
                                                                                                    
                                                                                                    
                                                                                                    
                                                                                                    
                                                                                                    
                                                                                                    
                                                                                                    
                                                                                                    
                                                                                                    
                                                                                                    
                                                                                                    
                                                                                                    
                                                                                                    
                                                                                                    
                           
<?xpacket end="w"?></metadata>
<defs>
    <style>
      .cls-1, .cls-4 {
        fill: #226d4f;
      }

      .cls-1, .cls-2, .cls-3 {
        fill-rule: evenodd;
      }

      .cls-2 {
        fill: #16d488;
      }

      .cls-3 {
        fill: #c1ecdb;
      }
    </style>
  </defs>
  <path id="Rounded_Rectangle_12" data-name="Rounded Rectangle 12" class="cls-1" d="M520,2265H424a9,9,0,0,1-9-9v-51h0v-4a4,4,0,0,1,4-4h10a4,4,0,0,1,4,4v1h77v-1a4,4,0,0,1,4-4h11a4,4,0,0,1,4,4v3h0v52A9,9,0,0,1,520,2265Z" transform="translate(-415 -2184)"/>
  <path id="Rounded_Rectangle_14" data-name="Rounded Rectangle 14" class="cls-2" d="M520.875,2263.01H423.124a6.1,6.1,0,0,1-6.109-6.1L417,2201a2,2,0,0,1,2-2h10a2,2,0,0,1,2,2v3h81v-3a2.207,2.207,0,0,1,1.766-1.99L525,2199a2.464,2.464,0,0,1,2,2l-0.015,55.91A6.1,6.1,0,0,1,520.875,2263.01Z" transform="translate(-415 -2184)"/>
  <path class="cls-3" d="M523.007,2256a3,3,0,0,1-3,3H423.992a3,3,0,0,1-3-3v-44.99c0-.02.007-0.05,0.008-0.08V2203h6v5.01h90V2203h6v7.94c0,0.02.007,0.05,0.007,0.07V2256Z" transform="translate(-415 -2184)"/>
  <circle class="cls-4" cx="98.5" cy="34.5" r="2.5"/>
  <path class="cls-1" d="M449,2184.01h46a9,9,0,0,1,9,9v9H440v-9A9,9,0,0,1,449,2184.01Z" transform="translate(-415 -2184)"/>
  <path id="Rounded_Rectangle_2" data-name="Rounded Rectangle 2" class="cls-2" d="M448.987,2186h46.025a7,7,0,0,1,7,7v9.01H441.987V2193A7,7,0,0,1,448.987,2186Z" transform="translate(-415 -2184)"/>
  <path class="cls-3" d="M449,2190.01H495a3,3,0,0,1,3,3v9H446v-9A3,3,0,0,1,449,2190.01Z" transform="translate(-415 -2184)"/>
  <path class="cls-1" d="M440.01,2252h63.98a4,4,0,0,1,4,4v12.99a4,4,0,0,1-4,4H440.01a4,4,0,0,1-4-4V2256A4,4,0,0,1,440.01,2252Z" transform="translate(-415 -2184)"/>
  <path class="cls-2" d="M440,2253.99h64a2,2,0,0,1,2,2V2269a2,2,0,0,1-2,2H440a2,2,0,0,1-2-2v-13.01A2,2,0,0,1,440,2253.99Z" transform="translate(-415 -2184)"/>
  <path class="cls-1" d="M447,2263.01h50a1,1,0,0,1,1,1V2264a1,1,0,0,1-1,1H447a1,1,0,0,1-1-1v0.01A1,1,0,0,1,447,2263.01Z" transform="translate(-415 -2184)"/>
</svg>
