<svg xmlns="http://www.w3.org/2000/svg" width="184" height="135" viewBox="0 0 184 135">
  <metadata><?xpacket begin="﻿" id="W5M0MpCehiHzreSzNTczkc9d"?>
<x:xmpmeta xmlns:x="adobe:ns:meta/" x:xmptk="Adobe XMP Core 5.6-c138 79.159824, 2016/09/14-01:09:01        ">
   <rdf:RDF xmlns:rdf="http://www.w3.org/1999/02/22-rdf-syntax-ns#">
      <rdf:Description rdf:about=""/>
   </rdf:RDF>
</x:xmpmeta>
                                                                                                    
                                                                                                    
                                                                                                    
                                                                                                    
                                                                                                    
                                                                                                    
                                                                                                    
                                                                                                    
                                                                                                    
                                                                                                    
                                                                                                    
                                                                                                    
                                                                                                    
                                                                                                    
                                                                                                    
                                                                                                    
                                                                                                    
                                                                                                    
                                                                                                    
                                                                                                    
                           
<?xpacket end="w"?></metadata>
<defs>
    <style>
      .cls-1 {
        fill: #f0f7f5;
        fill-rule: evenodd;
      }
    </style>
  </defs>
  <path id="_5_bg" data-name="5_bg" class="cls-1" d="M392.472,2251h47.869a7.5,7.5,0,0,0,0-15H411.919a7.5,7.5,0,0,1,0-15h14.959a7.5,7.5,0,0,0,0-15h-37.4a7.5,7.5,0,0,1,0-15h44.878a7.5,7.5,0,0,0,0-15H404.439a7.5,7.5,0,0,1,0-15H531.593a7.5,7.5,0,0,1,0,15H464.276a7.5,7.5,0,0,0,0,15H558.52a7.5,7.5,0,0,1,0,15H491.2a7.5,7.5,0,0,0,0,15h44.878a7.5,7.5,0,0,1,0,15H477.74a7.5,7.5,0,0,0,0,15h71.8a7.5,7.5,0,0,1,0,15H492.7a7.5,7.5,0,0,0,0,15h41.886a7.5,7.5,0,0,1,0,15H438.846a7.5,7.5,0,0,1,0-15h20.943a7.5,7.5,0,0,0,0-15H392.472A7.5,7.5,0,0,1,392.472,2251Zm4.487,30h11.968a7.5,7.5,0,0,1,0,15H396.959A7.5,7.5,0,0,1,396.959,2281Z" transform="translate(-382 -2161)"/>
</svg>
