<svg id="_6" data-name="6" xmlns="http://www.w3.org/2000/svg" width="72" height="137" viewBox="0 0 72 137">
  <metadata><?xpacket begin="﻿" id="W5M0MpCehiHzreSzNTczkc9d"?>
<x:xmpmeta xmlns:x="adobe:ns:meta/" x:xmptk="Adobe XMP Core 5.6-c138 79.159824, 2016/09/14-01:09:01        ">
   <rdf:RDF xmlns:rdf="http://www.w3.org/1999/02/22-rdf-syntax-ns#">
      <rdf:Description rdf:about=""/>
   </rdf:RDF>
</x:xmpmeta>
                                                                                                    
                                                                                                    
                                                                                                    
                                                                                                    
                                                                                                    
                                                                                                    
                                                                                                    
                                                                                                    
                                                                                                    
                                                                                                    
                                                                                                    
                                                                                                    
                                                                                                    
                                                                                                    
                                                                                                    
                                                                                                    
                                                                                                    
                                                                                                    
                                                                                                    
                                                                                                    
                           
<?xpacket end="w"?></metadata>
<defs>
    <style>
      .cls-1, .cls-4 {
        fill: #226d4f;
      }

      .cls-2, .cls-5 {
        fill: #16d488;
      }

      .cls-3 {
        fill: #c1ecdb;
      }

      .cls-3, .cls-4, .cls-5 {
        fill-rule: evenodd;
      }
    </style>
  </defs>
  <path class="cls-1" d="M36,0h0A36,36,0,0,1,72,36v66a9,9,0,0,1-9,9H9a9,9,0,0,1-9-9V36A36,36,0,0,1,36,0Z"/>
  <path id="Rounded_Rectangle_2" data-name="Rounded Rectangle 2" class="cls-2" d="M36,2h0A34,34,0,0,1,70,36v66a7,7,0,0,1-7,7H9a7,7,0,0,1-7-7V36A34,34,0,0,1,36,2Z"/>
  <path class="cls-3" d="M1152.73,2205.05a5.218,5.218,0,0,1-4.73-5.32v-21.54a5.031,5.031,0,0,0-1.96-4,0.55,0.55,0,0,1-.09-0.07,4.965,4.965,0,0,0-7.95,4v4.84a5.225,5.225,0,0,1-4.73,5.32,5.024,5.024,0,0,1-5.27-5.04v-9.23a4.965,4.965,0,0,0-5.8-4.92l-0.1.02a4.975,4.975,0,0,0-4.1,4.92v42.47a5.218,5.218,0,0,1-4.73,5.32,5.024,5.024,0,0,1-5.27-5.04v-23.83c0-6.36-9.38-6.81-9.9-.47-0.07.83-.1,1.66-0.1,2.51v67.57a3.411,3.411,0,0,0,3.33,3.44h53.34a3.411,3.411,0,0,0,3.33-3.44v-52.52a5.015,5.015,0,0,0-5.05-4.98C1152.88,2205.06,1152.8,2205.05,1152.73,2205.05Z" transform="translate(-1092 -2161)"/>
  <path class="cls-4" d="M1134,2291.22a5.9,5.9,0,0,1-6,5.78h0a5.9,5.9,0,0,1-6-5.78l1.5-20.22h9Zm-6,6.78a6.9,6.9,0,0,1-7-6.78l1.57-21.22h10.86l1.57,21.22A6.9,6.9,0,0,1,1128,2298Zm-3.57-26-1.43,19.3a5.008,5.008,0,0,0,10-.04l-1.43-19.26h-7.14Z" transform="translate(-1092 -2161)"/>
  <path id="Shape_82_copy" data-name="Shape 82 copy" class="cls-5" d="M1124.43,2272l-1.43,19.3a5.008,5.008,0,0,0,10-.04l-1.43-19.26h-7.14Z" transform="translate(-1092 -2161)"/>
</svg>
