<svg xmlns="http://www.w3.org/2000/svg" width="209" height="135" viewBox="0 0 209 135">
  <metadata><?xpacket begin="﻿" id="W5M0MpCehiHzreSzNTczkc9d"?>
<x:xmpmeta xmlns:x="adobe:ns:meta/" x:xmptk="Adobe XMP Core 5.6-c138 79.159824, 2016/09/14-01:09:01        ">
   <rdf:RDF xmlns:rdf="http://www.w3.org/1999/02/22-rdf-syntax-ns#">
      <rdf:Description rdf:about=""/>
   </rdf:RDF>
</x:xmpmeta>
                                                                                                    
                                                                                                    
                                                                                                    
                                                                                                    
                                                                                                    
                                                                                                    
                                                                                                    
                                                                                                    
                                                                                                    
                                                                                                    
                                                                                                    
                                                                                                    
                                                                                                    
                                                                                                    
                                                                                                    
                                                                                                    
                                                                                                    
                                                                                                    
                                                                                                    
                                                                                                    
                           
<?xpacket end="w"?></metadata>
<defs>
    <style>
      .cls-1 {
        fill: #f0f7f5;
        fill-rule: evenodd;
      }
    </style>
  </defs>
  <path id="_6_bg" data-name="6_bg" class="cls-1" d="M1221.47,2206h-25.56a7.5,7.5,0,1,0,0,15h16.54a7.5,7.5,0,1,1,0,15h-55.63a7.5,7.5,0,1,0,0,15h67.66a7.5,7.5,0,1,1,0,15h-64.65a7.5,7.5,0,1,0,0,15h9.02a7.5,7.5,0,1,1,0,15H1066.6a7.5,7.5,0,1,1,0-15h48.12a7.5,7.5,0,1,0,0-15h-75.18a7.5,7.5,0,1,1,0-15h52.63a7.5,7.5,0,1,0,0-15h-37.59a7.5,7.5,0,1,1,0-15h21.05a7.5,7.5,0,1,0,0-15h0a7.5,7.5,0,1,1,0-15h75.18a7.505,7.505,0,1,0,0-15.01H1063.6a7.5,7.5,0,1,1,0-14.99h127.8a7.5,7.5,0,1,1,0,14.99h-10.52a7.505,7.505,0,1,0,0,15.01h40.59A7.5,7.5,0,1,1,1221.47,2206Zm-168.4-7.5a7.507,7.507,0,0,1-7.52,7.5h-15.03a7.505,7.505,0,1,1,0-15.01h15.03A7.509,7.509,0,0,1,1053.07,2198.5Z" transform="translate(-1023 -2161)"/>
</svg>
