<?xml version="1.0" encoding="utf-8"?>
<!-- Generator: Adobe Illustrator 21.1.0, SVG Export Plug-In . SVG Version: 6.00 Build 0)  -->
<svg version="1.1" id="_7" xmlns="http://www.w3.org/2000/svg" xmlns:xlink="http://www.w3.org/1999/xlink" x="0px" y="0px"
	 viewBox="0 0 104.1 85" style="enable-background:new 0 0 104.1 85;" xml:space="preserve">
<style type="text/css">
	.st0{fill:none;}
	.st1{fill:#226D4F;}
	.st2{fill:#16D488;}
	.st3{fill:#C1ECDB;}
</style>
<g>
	<path class="st0" d="M75.1,2C75.1,2,75.1,2,75.1,2c0.3,0,0.7,0,1,0C75.8,2,75.5,2,75.1,2z"/>
	<path class="st0" d="M76.5,2c0.7,0,1.4,0.1,2.2,0.2C77.9,2.2,77.2,2.1,76.5,2z"/>
	<polygon class="st0" points="75.1,2 75.1,2 75.1,2 	"/>
	<path class="st0" d="M49.6,11.6l2.4,2.8l0,0L49.6,11.6C44.5,5.6,36.9,2.1,29,2c0,0,0,0,0,0C36.9,2.1,44.5,5.6,49.6,11.6z"/>
	<path class="st0" d="M98.4,15.4c1.7,3,2.9,6.3,3.4,9.7C101.3,21.6,100.1,18.3,98.4,15.4z"/>
	<path class="st0" d="M98.1,38.7c1.3-3.1,2-6.4,2-9.7c0-13.8-11.2-25-24.9-25C67.7,4,60.7,7.3,56,12.9L52,17.6l-3.9-4.6
		C43.3,7.3,36.3,4,29,4c-3.3,0-6.7,0.7-9.7,2C6.5,11.4,0.6,26,6,38.7c3.8,8.8,26.3,27.6,46,41.6C71.8,66.3,94.3,47.6,98.1,38.7z
		 M7.8,37.9C2.9,26.3,8.3,12.8,20,7.8C22.8,6.6,25.9,6,29,6c6.8,0,13.2,3,17.6,8.2L49,17l3.1,3.6l3.1-3.6l2.4-2.8
		C61.9,9,68.3,6,75.1,6c0,0,0,0,0,0h0c0,0,0,0,0,0c12.7,0,23,10.3,22.9,23c0,3.1-0.6,6.1-1.8,9C92.8,45.9,71.8,63.7,52,77.9
		C32.2,63.7,11.2,45.9,7.8,37.9z"/>
	<path class="st0" d="M52.1,82.8L52.1,82.8C52,82.8,52,82.8,52.1,82.8L52.1,82.8c15.6-11,43.3-32.5,47.8-43.3c0.5-1.3,1-2.6,1.3-3.9
		c-0.3,1.3-0.8,2.6-1.3,3.9C95.3,50.2,67.7,71.8,52.1,82.8z"/>
	<path class="st1" d="M86.4,2.3C82.9,0.8,79,0,75.1,0c0,0,0,0,0,0c0,0,0,0,0,0c-8.6,0-16.7,3.8-22.2,10.3l-0.9,1l-0.9-1
		C45.6,3.8,37.5,0.1,29,0c0,0,0,0,0,0c0,0,0,0,0,0C13,0,0,13,0,29c0,3.9,0.8,7.7,2.3,11.3C8.2,54,46.5,81.3,50.9,84.4l0.9,0.6l0,0
		l0,0l1-0.4l0.2-0.1l0.3-0.2c4.3-3.1,42.7-30.4,48.5-44.1C108,25.6,101.2,8.6,86.4,2.3z M78.6,2.2c-0.7-0.1-1.4-0.2-2.2-0.2
		C77.2,2.1,77.9,2.2,78.6,2.2z M75.1,2c0.3,0,0.7,0,1,0C75.8,2,75.5,2,75.1,2C75.1,2,75.1,2,75.1,2z M75.1,2C75.1,2,75.1,2,75.1,2
		C75.1,2,75.1,2,75.1,2L75.1,2z M29,2c8,0,15.5,3.6,20.7,9.6l2.4,2.8l0,0l-2.4-2.8C44.5,5.6,36.9,2.1,29,2C29,2,29,2,29,2z M6,38.7
		C0.6,26,6.5,11.4,19.2,6c3.1-1.3,6.4-2,9.7-2c7.4,0,14.4,3.3,19.1,8.9l3.9,4.6l3.9-4.6C60.7,7.3,67.7,4,75.1,4
		c13.8,0,25,11.2,24.9,25c0,3.3-0.7,6.7-2,9.7c-3.8,8.8-26.3,27.6-46,41.6C32.3,66.3,9.8,47.6,6,38.7z M99.9,39.5
		c-4.6,10.7-32.3,32.3-47.8,43.3l0,0c0,0,0,0,0,0l0,0C67.7,71.8,95.3,50.2,99.9,39.5c0.5-1.3,1-2.6,1.3-3.9
		C100.9,36.9,100.4,38.2,99.9,39.5z M98.4,15.4c1.7,2.9,2.9,6.2,3.4,9.7C101.3,21.7,100.1,18.4,98.4,15.4z"/>
	<polygon class="st1" points="75.1,6 75.1,6 75.1,6 	"/>
	<path class="st1" d="M96.2,37.9c1.2-2.8,1.8-5.9,1.8-9c0-12.7-10.3-23-22.9-23c-6.8,0-13.2,3-17.6,8.2L55.1,17L52,20.7L49,17
		l-2.4-2.8C42.2,9,35.7,6,29,6c-3.1,0-6.1,0.6-9,1.8C8.3,12.8,2.9,26.3,7.8,37.9c3.4,7.9,24.4,25.8,44.2,39.9
		C71.8,63.7,92.8,45.9,96.2,37.9z"/>
</g>
<path id="Shape_83_copy" class="st2" d="M99.9,39.5c-4.6,10.7-32.3,32.3-47.8,43.3l0,0C36.4,71.8,8.8,50.3,4.2,39.5
	C-1.7,25.8,4.7,10,18.4,4.2C21.8,2.7,25.3,2,29,2c8,0,15.5,3.6,20.7,9.6l2.4,2.8l2.4-2.8C59.6,5.6,67.1,2.1,75.1,2
	c14.9,0,27,12.1,26.9,27C102.1,32.6,101.3,36.2,99.9,39.5z"/>
<path id="Shape_83_copy_2" class="st3" d="M75.1,6c12.7,0,23,10.3,22.9,23c0,3.1-0.6,6.1-1.8,9C92.8,45.9,71.8,63.7,52,77.9
	c-19.8-14.2-40.8-32-44.2-39.9C2.9,26.3,8.3,12.8,20,7.8C22.8,6.6,25.9,6,29,6c6.8,0,13.2,3,17.6,8.2L49,17l3.1,3.6l3.1-3.6l2.4-2.8
	C61.9,9,68.3,6,75.1,6"/>
</svg>
