<svg xmlns="http://www.w3.org/2000/svg" width="188" height="135" viewBox="0 0 188 135">
  <metadata><?xpacket begin="﻿" id="W5M0MpCehiHzreSzNTczkc9d"?>
<x:xmpmeta xmlns:x="adobe:ns:meta/" x:xmptk="Adobe XMP Core 5.6-c138 79.159824, 2016/09/14-01:09:01        ">
   <rdf:RDF xmlns:rdf="http://www.w3.org/1999/02/22-rdf-syntax-ns#">
      <rdf:Description rdf:about=""/>
   </rdf:RDF>
</x:xmpmeta>
                                                                                                    
                                                                                                    
                                                                                                    
                                                                                                    
                                                                                                    
                                                                                                    
                                                                                                    
                                                                                                    
                                                                                                    
                                                                                                    
                                                                                                    
                                                                                                    
                                                                                                    
                                                                                                    
                                                                                                    
                                                                                                    
                                                                                                    
                                                                                                    
                                                                                                    
                                                                                                    
                           
<?xpacket end="w"?></metadata>
<defs>
    <style>
      .cls-1 {
        fill: #f0f7f5;
        fill-rule: evenodd;
      }
    </style>
  </defs>
  <path id="_7_bg" data-name="7_bg" class="cls-1" d="M558.48,2753H480.272a7.5,7.5,0,1,0,0,15h69.184a7.5,7.5,0,1,1,0,15H523.888a7.5,7.5,0,1,0,0,15h10.528a7.5,7.5,0,1,1,0,15H451.7a7.5,7.5,0,1,0,0,15H505.84a7.5,7.5,0,1,1,0,15H388.528a7.5,7.5,0,1,1,0-15h33.088a7.5,7.5,0,1,0,0-15H411.088a7.5,7.5,0,1,1,0-15h48.128a7.5,7.5,0,1,0,0-15h-22.56a7.5,7.5,0,1,1,0-15h6.016a7.5,7.5,0,1,0,0-15H385.52a7.5,7.5,0,1,1,0-15H502.832a7.505,7.505,0,1,0,0-15.01H460.72a7.5,7.5,0,1,1,0-14.99h87.232a7.5,7.5,0,1,1,0,14.99H535.92a7.505,7.505,0,1,0,0,15.01h22.56A7.5,7.5,0,1,1,558.48,2753ZM414.1,2775.5a7.512,7.512,0,0,1-7.52,7.5h-15.04a7.505,7.505,0,1,1,0-15.01h15.04A7.514,7.514,0,0,1,414.1,2775.5Zm24.064-60a7.512,7.512,0,0,1-7.52,7.5H400.56a7.505,7.505,0,1,1,0-15.01h30.08A7.514,7.514,0,0,1,438.16,2715.5Zm120.32,120a7.512,7.512,0,0,1-7.52,7.5H535.92a7.5,7.5,0,1,1,0-15h15.04A7.505,7.505,0,0,1,558.48,2835.5Z" transform="translate(-378 -2708)"/>
</svg>
