<?xml version="1.0" encoding="utf-8"?>
<!-- Generator: Adobe Illustrator 21.1.0, SVG Export Plug-In . SVG Version: 6.00 Build 0)  -->
<svg version="1.1" id="_8" xmlns="http://www.w3.org/2000/svg" xmlns:xlink="http://www.w3.org/1999/xlink" x="0px" y="0px"
	 viewBox="0 0 128 80" style="enable-background:new 0 0 128 80;" xml:space="preserve">
<style type="text/css">
	.st0{fill:none;}
	.st1{fill:#226D4F;}
	.st2{fill:#17CA82;}
	.st3{fill:#C1ECDB;}
</style>
<g>
	<path class="st0" d="M116.5,38c0.9,0.6,1.7,1.3,2.5,2C118.3,39.2,117.4,38.6,116.5,38z"/>
	<path class="st0" d="M2,56.1C2,56.1,2,56.1,2,56.1C2,56,2,56.1,2,56.1C2,56.1,2,56.1,2,56.1z"/>
	<path class="st0" d="M3.7,64.4c-0.8-1.8-1.3-3.8-1.6-5.9C2.4,60.6,2.9,62.6,3.7,64.4z"/>
	<path class="st0" d="M119.1,40c0.8,0.7,1.5,1.5,2.2,2.4C120.6,41.5,119.9,40.7,119.1,40z"/>
	<path class="st0" d="M125.8,53c0.2,1.1,0.2,2.2,0.2,3.3C126,55.2,125.9,54.1,125.8,53z"/>
	<path class="st0" d="M115.1,37c0.4,0.3,0.9,0.5,1.3,0.8C116,37.6,115.5,37.3,115.1,37z"/>
	<path class="st0" d="M109.8,36.9c0.3-1.7,0.5-3.5,0.4-5.3C110,16.2,97.3,3.8,81.9,4C71.7,4,62.3,9.4,57.1,18.3
		c-3.2-1.4-6.6-2.2-10.1-2.2c-11.6,0-21.7,8.1-24,19.5C12.3,36.2,3.9,45.2,4,56c0.1,11.2,9.3,20.1,20.4,20l79.3,0
		c8.9,0.1,16.8-5.7,19.4-14.2C126.3,51.2,120.4,40.1,109.8,36.9z M121.7,59.4C120,68,112.5,74.1,103.7,74H24.5
		C14.4,74.2,6.1,66.1,6,56.1C5.8,46,13.9,37.7,23.9,37.6c0.2,0,0.4,0,0.5,0c0.1,0,0.2,0,0.3,0c1.5-11.2,11-19.5,22.3-19.5
		c3.8,0,7.6,1,11,2.8C62.4,11.8,71.7,6,81.9,6l0,0c14.5-0.1,26.3,11.5,26.4,26c0,0,0,0,0,0c0,2.1-0.3,4.3-0.8,6.3
		C117.2,40.2,123.6,49.7,121.7,59.4z"/>
	<path class="st0" d="M11.2,73.8c-0.5-0.4-1-0.8-1.5-1.2C10.1,73,10.6,73.4,11.2,73.8z"/>
	<path class="st0" d="M125.7,59.6c0.2-1,0.3-2.1,0.3-3.1C126,57.5,125.9,58.5,125.7,59.6z"/>
	<path class="st1" d="M107.4,38.3c0.5-2.1,0.8-4.2,0.8-6.3c0,0,0,0,0,0C108.1,17.5,96.3,5.9,81.9,6l0,0C71.7,6,62.4,11.8,58,20.9
		c-3.4-1.9-7.1-2.8-11-2.8c-11.3-0.1-20.8,8.3-22.3,19.5c-0.1,0-0.2,0-0.3,0c-0.2,0-0.4,0-0.5,0C13.9,37.7,5.8,46,6,56.1
		C6.1,66.1,14.4,74.2,24.5,74h79.3c8.7,0.1,16.3-6,17.9-14.6C123.6,49.7,117.2,40.2,107.4,38.3z"/>
	<path class="st1" d="M114.2,34.3c0.1-0.8,0.1-1.5,0.1-2.3C114.1,14.2,99.7-0.1,81.9,0c-0.7,0-1.3,0-1.9,0.1
		c-9.7,0.6-18.6,5.5-24.4,13.3c-3.3-1-6.6-1.4-9.8-1.3C34.1,12.7,23.6,20.3,19.9,32C6.7,34.4-2,47,0.4,60.1
		c2.1,11.6,12.3,20,24.1,19.9h79.3c0.4,0,0.8,0,1.2,0c12.7-0.5,22.9-10.8,23-23.7C128.1,46.9,122.7,38.3,114.2,34.3z M126,56.3
		c0-1.1-0.1-2.2-0.2-3.3C125.9,54.1,126,55.2,126,56.3z M121.2,42.4c-0.7-0.8-1.4-1.6-2.2-2.4C119.9,40.7,120.6,41.5,121.2,42.4z
		 M119,40c-0.8-0.7-1.6-1.4-2.5-2C117.4,38.6,118.3,39.2,119,40z M116.4,37.9c-0.4-0.3-0.9-0.6-1.3-0.8
		C115.5,37.3,116,37.6,116.4,37.9z M2,56.1C2,56.1,2,56.1,2,56.1C2,56.1,2,56,2,56.1C2,56.1,2,56.1,2,56.1z M2.1,58.6
		c0.3,2.1,0.8,4,1.6,5.9C2.9,62.6,2.4,60.6,2.1,58.6z M9.7,72.6c0.5,0.4,1,0.8,1.5,1.2C10.6,73.4,10.1,73,9.7,72.6z M123.1,61.8
		c-2.6,8.5-10.5,14.3-19.4,14.2l-79.3,0C13.3,76.1,4.1,67.2,4,56c-0.1-10.8,8.3-19.8,19.1-20.4c2.3-11.4,12.4-19.5,24-19.5
		c3.5,0,6.9,0.7,10.1,2.2C62.3,9.4,71.7,4,81.9,4c15.5-0.2,28.2,12.2,28.4,27.6c0,1.8-0.1,3.5-0.4,5.3
		C120.4,40.1,126.3,51.2,123.1,61.8z M126,56.5c0,1-0.1,2.1-0.3,3.1C125.9,58.5,126,57.5,126,56.5z"/>
</g>
<path id="Shape_94_copy" class="st2" d="M126,56c-0.1,12.2-10,22.1-22.3,22l-79.3,0C12.2,78.2,2.1,68.3,2,56.1
	c-0.1-11.3,8.2-20.9,19.5-22.3C24.5,22.1,35,14.1,47,14.1c3.2,0,6.3,0.6,9.3,1.7C62,7.2,71.6,2,81.9,2c16.7-0.1,30.2,13.3,30.4,30
	c0,1.2-0.1,2.4-0.2,3.5C120.4,38.9,125.9,46.9,126,56z"/>
<path id="Shape_94_copy_2" class="st3" d="M81.9,6c14.5-0.1,26.3,11.5,26.4,26c0,0,0,0,0,0c0,2.1-0.3,4.3-0.8,6.3
	c9.8,1.9,16.1,11.3,14.3,21.1C120,68,112.5,74.1,103.7,74H24.5C14.4,74.2,6.1,66.1,6,56.1C5.8,46,13.9,37.7,23.9,37.6
	c0.2,0,0.4,0,0.5,0c0.1,0,0.2,0,0.3,0c1.5-11.2,11-19.5,22.3-19.5c3.8,0,7.6,1,11,2.8C62.4,11.8,71.7,6,81.9,6"/>
<path class="st1" d="M21,46.9h7.3l-0.6,1.9h-4.4v2.4h0.8c1.1-0.1,2.1,0.2,3.1,0.6c1.1,0.6,1.7,1.7,1.6,2.9c0,2-1.2,3.5-4.6,3.5H21
	L21,46.9L21,46.9z M24.2,56.3c1.6,0,2.3-0.5,2.3-1.6c0-0.5-0.2-1-0.6-1.3c-0.5-0.3-1.1-0.4-1.7-0.3h-0.8v3.2L24.2,56.3L24.2,56.3z
	 M29.9,50.1h2.2v3.2c0,0.7,0,1.3-0.1,1.8H32c0.2-0.3,0.6-1,1-1.7l2.3-3.3h2.2v8.1h-2.2V55c0-0.6,0-1.2,0.1-1.8h-0.1
	c-0.2,0.3-0.6,1-1,1.7l-2.3,3.3h-2.2V50.1z M40.8,52h-2.4v-1.9h7.5L45.3,52H43v6.2h-2.3V52z M46.5,50.4c1-0.3,2.1-0.5,3.2-0.5
	c3,0,4.5,1.7,4.5,4.2c0.1,2.2-1.6,4.1-3.8,4.2c-0.1,0-0.3,0-0.4,0c-0.4,0-0.8,0-1.2-0.1v4h-2.3V50.4z M49.7,56.5
	c1.4,0,2.1-0.9,2.1-2.3c0.2-1.1-0.6-2.2-1.8-2.3c-0.2,0-0.3,0-0.5,0c-0.3,0-0.5,0-0.8,0.1v4.4C49.1,56.4,49.4,56.5,49.7,56.5
	L49.7,56.5z M55,50.1h2.2v3.2c0,0.7,0,1.3-0.1,1.8h0.1c0.2-0.3,0.6-1,1-1.7l2.3-3.3h2.2v8.1h-2.2V55c0-0.6,0-1.2,0.1-1.8h-0.1
	c-0.2,0.3-0.6,1-1,1.7l-2.3,3.3H55V50.1z M64.1,50.1h2.3v3.1h0.8c1,0,0.9-1.6,1.6-2.6c0.3-0.5,0.9-0.7,1.5-0.7c0.3,0,0.6,0,0.9,0.1
	v2c-0.2-0.1-0.3-0.1-0.5-0.1c-0.2,0-0.4,0.1-0.6,0.3c-0.4,0.5-0.5,1.6-1.1,1.9v0c0.4,0.2,0.8,0.5,0.9,1l1.4,3.1h-2.5l-0.9-2.5
	c-0.1-0.3-0.3-0.6-0.6-0.7h-1.1v3.3h-2.3L64.1,50.1L64.1,50.1z M71.8,54.2c-0.1-2.3,1.8-4.2,4.1-4.3c0.1,0,0.1,0,0.2,0
	c0.8,0,1.5,0.2,2.2,0.6v1.9c-0.6-0.5-1.2-0.7-2-0.7c-1.2,0-2.2,1-2.2,2.2c0,0.1,0,0.1,0,0.2c-0.2,1.1,0.6,2.2,1.8,2.3
	c0.1,0,0.3,0,0.4,0c0.7,0,1.3-0.2,1.8-0.6l0.7,1.6c-0.8,0.6-1.8,0.8-2.8,0.8c-2.1,0.1-4-1.5-4.1-3.6C71.8,54.6,71.8,54.4,71.8,54.2z
	 M86.2,49.5c0-0.8-0.7-1.5-1.5-1.5c-0.1,0-0.2,0-0.2,0c-1.1,0-2.2,0.3-3.2,0.8l-0.6-1.9c1.3-0.7,2.8-1,4.2-1c2.7,0,4,1.4,4,3.3
	c0,3.4-4.6,4.3-5.4,6.9H89v2.1h-8.8C80.7,52.2,86.2,51.9,86.2,49.5L86.2,49.5z M88.8,53.7l6.1-7.8h1.8v7.4h1.8v2.1h-1.8v2.9h-2.4
	v-2.9h-5.4L88.8,53.7L88.8,53.7z M93.1,53.3h1.1V52c0-0.8,0-1.5,0.1-2.3l-2.7,3.7C91.8,53.3,92.7,53.3,93.1,53.3z M101.1,36.8
	c-2.2,0-4,1.7-4,3.9c0,2.2,1.7,4,3.9,4c2.2,0,4-1.7,4-3.9c0,0,0,0,0,0C105,38.6,103.3,36.8,101.1,36.8
	C101.1,36.8,101.1,36.8,101.1,36.8z M103.5,41.2c0,0.2-0.2,0.4-0.4,0.4c0,0,0,0,0,0H101c-0.2,0-0.4-0.2-0.4-0.4v-1.8
	c0-0.2,0.2-0.4,0.4-0.4h0.1c0.2,0,0.4,0.2,0.4,0.4v1.3h1.7C103.3,40.7,103.5,40.9,103.5,41.2L103.5,41.2L103.5,41.2z"/>
</svg>
