<svg xmlns="http://www.w3.org/2000/svg" width="207" height="135" viewBox="0 0 207 135">
  <metadata><?xpacket begin="﻿" id="W5M0MpCehiHzreSzNTczkc9d"?>
<x:xmpmeta xmlns:x="adobe:ns:meta/" x:xmptk="Adobe XMP Core 5.6-c138 79.159824, 2016/09/14-01:09:01        ">
   <rdf:RDF xmlns:rdf="http://www.w3.org/1999/02/22-rdf-syntax-ns#">
      <rdf:Description rdf:about=""/>
   </rdf:RDF>
</x:xmpmeta>
                                                                                                    
                                                                                                    
                                                                                                    
                                                                                                    
                                                                                                    
                                                                                                    
                                                                                                    
                                                                                                    
                                                                                                    
                                                                                                    
                                                                                                    
                                                                                                    
                                                                                                    
                                                                                                    
                                                                                                    
                                                                                                    
                                                                                                    
                                                                                                    
                                                                                                    
                                                                                                    
                           
<?xpacket end="w"?></metadata>
<defs>
    <style>
      .cls-1 {
        fill: #f0f7f5;
        fill-rule: evenodd;
      }
    </style>
  </defs>
  <path id="_8_bg" data-name="8_bg" class="cls-1" d="M1215.5,2723.49h0a7.505,7.505,0,0,0,0,15.01h7.5a7.5,7.5,0,0,1,0,15h-48a7.5,7.5,0,0,0,0,15h24a7.5,7.5,0,0,1,0,15h-33a7.5,7.5,0,1,0,0,15h48a7.5,7.5,0,0,1,0,15h-52.5a7.5,7.5,0,0,0,0,15h39a7.5,7.5,0,0,1,0,15h-147a7.5,7.5,0,0,1,0-15h63a7.5,7.5,0,0,0,0-15H1031a7.5,7.5,0,0,1,0-15h45a7.5,7.5,0,1,0,0-15h-30a7.5,7.5,0,0,1,0-15h91.5a7.5,7.5,0,0,0,0-15h-87a7.5,7.5,0,0,1,0-15h30a7.505,7.505,0,0,0,0-15.01h-33a7.5,7.5,0,1,1,0-14.99h108a7.5,7.5,0,1,1,0,14.99h-45a7.505,7.505,0,0,0,0,15.01h75a7.505,7.505,0,0,0,0-15.01h0a7.5,7.5,0,1,1,0-14.99h30A7.5,7.5,0,1,1,1215.5,2723.49Z" transform="translate(-1023.5 -2708.5)"/>
</svg>
