<?xml version="1.0" encoding="utf-8"?>
<!-- Generator: Adobe Illustrator 21.1.0, SVG Export Plug-In . SVG Version: 6.00 Build 0)  -->
<svg version="1.1" id="_1" xmlns="http://www.w3.org/2000/svg" xmlns:xlink="http://www.w3.org/1999/xlink" x="0px" y="0px"
	 viewBox="0 0 88 108" style="enable-background:new 0 0 88 108;" xml:space="preserve">
<style type="text/css">
	.st0{fill:#226D4F;}
	.st1{fill:#16D488;}
	.st2{fill:#C1ECDB;}
	.st3{fill:none;stroke:#226D4F;stroke-width:2;stroke-miterlimit:10;}
</style>
<path id="Shape_990_copy_23" class="st0" d="M3,12h70c1.7,0,3,1.3,3,3v90c0,1.7-1.3,3-3,3H3c-1.7,0-3-1.3-3-3V15C0,13.3,1.3,12,3,12
	z"/>
<path id="Shape_990_copy_25" class="st1" d="M3,14h70c0.6,0,1,0.4,1,1v90c0,0.6-0.4,1-1,1H3c-0.6,0-1-0.4-1-1V15C2,14.4,2.4,14,3,14
	z"/>
<path id="Rectangle_52_copy_13" class="st2" d="M6,18h64v84H6V18L6,18z"/>
<path id="Shape_990_copy_26" class="st0" d="M88,90v3c0,1.7-1.3,3-3,3H15c-1.7,0-3-1.3-3-3V3c0-1.7,1.3-3,3-3h53.2
	c0.8,0,1.6,0.3,2.1,0.9l0.9,0.9l15,15l0.9,0.9c0.6,0.6,0.9,1.3,0.9,2.1V90z"/>
<path id="Shape_990_copy_27" class="st1" d="M15,2h53.2c0.3,0,0.5,0.1,0.7,0.3l0.9,0.9l15,15l0.9,0.9c0.2,0.2,0.3,0.4,0.3,0.7V93
	c0,0.6-0.4,1-1,1H15c-0.6,0-1-0.4-1-1V3C14,2.4,14.4,2,15,2"/>
<path id="Rectangle_52_copy_14" class="st2" d="M82,90H18V6h51l13,13V90z"/>
<path id="Rounded_Rectangle_511_copy_6" class="st0" d="M27,78h46c0.6,0,1,0.4,1,1s-0.4,1-1,1H27c-0.6,0-1-0.4-1-1S26.4,78,27,78z
	 M27,66h46c0.6,0,1,0.4,1,1s-0.4,1-1,1H27c-0.6,0-1-0.4-1-1S26.4,66,27,66z M27,54h46c0.6,0,1,0.4,1,1l0,0c0,0.6-0.4,1-1,1H27
	c-0.6,0-1-0.4-1-1l0,0C26,54.4,26.4,54,27,54z M27,42h46c0.6,0,1,0.4,1,1l0,0c0,0.6-0.4,1-1,1H27c-0.6,0-1-0.4-1-1l0,0
	C26,42.4,26.4,42,27,42z M27,29h46c0.6,0,1,0.4,1,1s-0.4,1-1,1H27c-0.6,0-1-0.4-1-1S26.4,29,27,29z M27,16h46c0.6,0,1,0.4,1,1l0,0
	c0,0.6-0.4,1-1,1H27c-0.6,0-1-0.4-1-1l0,0C26,16.4,26.4,16,27,16z"/>
<circle class="st2" cx="38" cy="36" r="17"/>
<circle class="st3" cx="38" cy="36" r="11"/>
<path id="Shape_509_copy" class="st0" d="M36.7,37.1L40,24.5l1.9,0.5l-2.6,9.8L49.4,34l0.2,2L36.7,37.1z M38,26c5.5,0,10,4.5,10,10
	s-4.5,10-10,10s-10-4.5-10-10S32.5,26,38,26 M38,24c-6.6,0-12,5.4-12,12s5.4,12,12,12s12-5.4,12-12C50,29.4,44.6,24,38,24L38,24z"/>
<path id="Shape_990_copy_28" class="st0" d="M88,21H71c-2.2,0-4-1.8-4-4V0h1.2c0.8,0,1.6,0.3,2.1,0.9l0.9,0.9l15,15l0.9,0.9
	c0.6,0.6,0.9,1.3,0.9,2.1V21z"/>
<path id="Shape_990_copy_29" class="st1" d="M69.8,3.2l15,15l0.8,0.8H71c-1.1,0-2-0.9-2-2V2.3L69.8,3.2z"/>
</svg>
