<svg xmlns="http://www.w3.org/2000/svg" width="300" height="180" viewBox="0 0 300 180">
  <metadata><?xpacket begin="﻿" id="W5M0MpCehiHzreSzNTczkc9d"?>
<x:xmpmeta xmlns:x="adobe:ns:meta/" x:xmptk="Adobe XMP Core 5.6-c138 79.159824, 2016/09/14-01:09:01        ">
   <rdf:RDF xmlns:rdf="http://www.w3.org/1999/02/22-rdf-syntax-ns#">
      <rdf:Description rdf:about=""/>
   </rdf:RDF>
</x:xmpmeta>
                                                                                                    
                                                                                                    
                                                                                                    
                                                                                                    
                                                                                                    
                                                                                                    
                                                                                                    
                                                                                                    
                                                                                                    
                                                                                                    
                                                                                                    
                                                                                                    
                                                                                                    
                                                                                                    
                                                                                                    
                                                                                                    
                                                                                                    
                                                                                                    
                                                                                                    
                                                                                                    
                           
<?xpacket end="w"?></metadata>
<defs>
    <style>
      .cls-1 {
        fill: #e0eee9;
        fill-rule: evenodd;
      }
    </style>
  </defs>
  <path id="_1_bg" data-name="1_bg" class="cls-1" d="M487,5680H440a10,10,0,0,1,0-20h37a10,10,0,0,0,0-20H251.166a10,10,0,1,0,0,20H400a10,10,0,0,1,0,20H226.166a10,10,0,1,0,0,20H290a10,10,0,0,1,0,20H238.166a10,10,0,1,0,0,20H258a10,10,0,0,1,0,20H223a10,10,0,0,0,0,20h80a10,10,0,0,0,0-20h-5a10,10,0,0,1,0-20h76a10,10,0,0,1,0,20H343.166a10,10,0,1,0,0,20H363a10,10,0,0,1,0,20H283.166a10,10,0,1,0,0,20H457a10,10,0,0,0,0-20H403a10,10,0,0,1,0-20h39a10,10,0,0,0,0-20H414a10,10,0,0,1,0-20h83a10,10,0,0,0,0-20H469a10,10,0,0,1,0-20h18A10,10,0,0,0,487,5680Zm16,80H482a10,10,0,0,0,0,20h21A10,10,0,0,0,503,5760Z" transform="translate(-213 -5640)"/>
</svg>
