<svg xmlns="http://www.w3.org/2000/svg" width="300" height="180" viewBox="0 0 300 180">
  <metadata><?xpacket begin="﻿" id="W5M0MpCehiHzreSzNTczkc9d"?>
<x:xmpmeta xmlns:x="adobe:ns:meta/" x:xmptk="Adobe XMP Core 5.6-c138 79.159824, 2016/09/14-01:09:01        ">
   <rdf:RDF xmlns:rdf="http://www.w3.org/1999/02/22-rdf-syntax-ns#">
      <rdf:Description rdf:about=""/>
   </rdf:RDF>
</x:xmpmeta>
                                                                                                    
                                                                                                    
                                                                                                    
                                                                                                    
                                                                                                    
                                                                                                    
                                                                                                    
                                                                                                    
                                                                                                    
                                                                                                    
                                                                                                    
                                                                                                    
                                                                                                    
                                                                                                    
                                                                                                    
                                                                                                    
                                                                                                    
                                                                                                    
                                                                                                    
                                                                                                    
                           
<?xpacket end="w"?></metadata>
<defs>
    <style>
      .cls-1 {
        fill: #e0eee9;
        fill-rule: evenodd;
      }
    </style>
  </defs>
  <path id="_2_bg" data-name="2_bg" class="cls-1" d="M939,5720H847a10,10,0,0,1,0-20h78a10,10,0,0,0,0-20H746a10,10,0,0,1,0-20H910a10,10,0,0,0,0-20H666.166a10,10,0,1,0,0,20H706a10,10,0,0,1,0,20h-9.834a10,10,0,1,0,0,20H807a10,10,0,0,1,0,20H741.114a10,10,0,1,0,.052,20H753a10,10,0,0,1,0,20H659.166a10,10,0,1,0,0,20H848a10,10,0,0,1,0,20H683a10,10,0,0,0,0,20H921a10,10,0,0,0,0-20H887.994a10,10,0,0,1,.006-20h32a10,10,0,0,0,0-20H793a10,10,0,0,1,0-20H939A10,10,0,0,0,939,5720Zm-269,20h31a10,10,0,0,0,0-20H670A10,10,0,0,0,670,5740Z" transform="translate(-649 -5640)"/>
</svg>
