<svg id="_3" data-name="3" xmlns="http://www.w3.org/2000/svg" width="80" height="103" viewBox="0 0 80 103">
  <metadata><?xpacket begin="﻿" id="W5M0MpCehiHzreSzNTczkc9d"?>
<x:xmpmeta xmlns:x="adobe:ns:meta/" x:xmptk="Adobe XMP Core 5.6-c138 79.159824, 2016/09/14-01:09:01        ">
   <rdf:RDF xmlns:rdf="http://www.w3.org/1999/02/22-rdf-syntax-ns#">
      <rdf:Description rdf:about=""/>
   </rdf:RDF>
</x:xmpmeta>
                                                                                                    
                                                                                                    
                                                                                                    
                                                                                                    
                                                                                                    
                                                                                                    
                                                                                                    
                                                                                                    
                                                                                                    
                                                                                                    
                                                                                                    
                                                                                                    
                                                                                                    
                                                                                                    
                                                                                                    
                                                                                                    
                                                                                                    
                                                                                                    
                                                                                                    
                                                                                                    
                           
<?xpacket end="w"?></metadata>
<defs>
    <style>
      .cls-1, .cls-4 {
        fill: #226d4f;
      }

      .cls-2 {
        fill: #16d488;
      }

      .cls-3, .cls-5 {
        fill: #c1ecdb;
      }

      .cls-3, .cls-4 {
        fill-rule: evenodd;
      }
    </style>
  </defs>
  <rect id="Shape_990_copy_30" data-name="Shape 990 copy 30" class="cls-1" width="80" height="103" rx="4" ry="4"/>
  <rect id="Shape_990_copy_30-2" data-name="Shape 990 copy 30" class="cls-2" x="2" y="2" width="76" height="99" rx="2" ry="2"/>
  <path id="Rectangle_52_copy_15" data-name="Rectangle 52 copy 15" class="cls-3" d="M1204,5684h68v90.99h-68V5684h0Z" transform="translate(-1198 -5678)"/>
  <path class="cls-4" d="M1258.74,5738.68a25.96,25.96,0,1,0-5.08,5.08l1.08,1.68a27.911,27.911,0,1,1,5.72-5.71Z" transform="translate(-1198 -5678)"/>
  <circle class="cls-2" cx="40" cy="45" r="26"/>
  <circle class="cls-1" cx="40" cy="45" r="6"/>
  <circle id="Ellipse_578_copy" data-name="Ellipse 578 copy" class="cls-5" cx="40" cy="45" r="4"/>
  <path class="cls-4" d="M1211,5688a3,3,0,1,1-3,3A3,3,0,0,1,1211,5688Zm0,2a1,1,0,1,1-1,1A1,1,0,0,1,1211,5690Z" transform="translate(-1198 -5678)"/>
  <path id="Ellipse_573_copy" data-name="Ellipse 573 copy" class="cls-4" d="M1265,5688a3,3,0,1,1-3,3A3,3,0,0,1,1265,5688Zm0,2a1,1,0,1,1-1,1A1,1,0,0,1,1265,5690Z" transform="translate(-1198 -5678)"/>
  <path id="Ellipse_573_copy_2" data-name="Ellipse 573 copy 2" class="cls-4" d="M1211,5765a3,3,0,1,1-3,3A3,3,0,0,1,1211,5765Zm0,2a1,1,0,1,1-1,1A1,1,0,0,1,1211,5767Z" transform="translate(-1198 -5678)"/>
  <path id="Ellipse_573_copy_2-2" data-name="Ellipse 573 copy 2" class="cls-4" d="M1265,5765a3,3,0,1,1-3,3A3,3,0,0,1,1265,5765Zm0,2a1,1,0,1,1-1,1A1,1,0,0,1,1265,5767Z" transform="translate(-1198 -5678)"/>
  <path class="cls-4" d="M1246.42,5731.75a0.983,0.983,0,0,1,1.31-.1l20.33,14.87a1.009,1.009,0,0,1,.12,1.53l-5.46,5.46a1.021,1.021,0,0,1-1.54-.12l-14.86-20.33a0.984,0.984,0,0,1,.1-1.31m-1.43-1.43a3,3,0,0,0-.3,3.93l14.86,20.33a3.058,3.058,0,0,0,2.22,1.24,2.994,2.994,0,0,0,2.38-.87l5.47-5.47a3.035,3.035,0,0,0-.37-4.59l-20.33-14.87a3.014,3.014,0,0,0-3.93.3h0Z" transform="translate(-1198 -5678)"/>
  <path id="Shape_579_copy" data-name="Shape 579 copy" class="cls-3" d="M1246.42,5731.75a0.983,0.983,0,0,1,1.31-.1l20.33,14.87a1.009,1.009,0,0,1,.12,1.53l-5.46,5.46a1.021,1.021,0,0,1-1.54-.12l-14.86-20.33a0.984,0.984,0,0,1,.1-1.31" transform="translate(-1198 -5678)"/>
</svg>
