<svg id="_3_1" data-name="3_1" xmlns="http://www.w3.org/2000/svg" width="217.44" height="134" viewBox="0 0 217.44 134">
  <metadata><?xpacket begin="﻿" id="W5M0MpCehiHzreSzNTczkc9d"?>
<x:xmpmeta xmlns:x="adobe:ns:meta/" x:xmptk="Adobe XMP Core 5.6-c138 79.159824, 2016/09/14-01:09:01        ">
   <rdf:RDF xmlns:rdf="http://www.w3.org/1999/02/22-rdf-syntax-ns#">
      <rdf:Description rdf:about=""/>
   </rdf:RDF>
</x:xmpmeta>
                                                                                                    
                                                                                                    
                                                                                                    
                                                                                                    
                                                                                                    
                                                                                                    
                                                                                                    
                                                                                                    
                                                                                                    
                                                                                                    
                                                                                                    
                                                                                                    
                                                                                                    
                                                                                                    
                                                                                                    
                                                                                                    
                                                                                                    
                                                                                                    
                                                                                                    
                                                                                                    
                           
<?xpacket end="w"?></metadata>
<defs>
    <style>
      .cls-1 {
        fill: #16d488;
      }

      .cls-1, .cls-2, .cls-3 {
        fill-rule: evenodd;
        opacity: 0.5;
      }

      .cls-2 {
        fill: #2c7457;
      }

      .cls-3 {
        fill: #226d4f;
      }
    </style>
  </defs>
  <path id="Rectangle_175_copy_16" data-name="Rectangle 175 copy 16" class="cls-1" d="M1163,5683h-3v3a1,1,0,0,1-2,0v-3h-3a1,1,0,0,1,0-2h3v-3a1,1,0,0,1,2,0v3h3A1,1,0,0,1,1163,5683Z" transform="translate(-1129.94 -5656)"/>
  <path id="Shape_988_copy_3" data-name="Shape 988 copy 3" class="cls-1" d="M1326.33,5756.76a0.511,0.511,0,0,1,.47.32l1.83,4.84,4.84,1.84a0.489,0.489,0,0,1,0,.92l-4.84,1.84-1.83,4.84a0.511,0.511,0,0,1-.47.32,0.489,0.489,0,0,1-.46-0.32l-1.83-4.84-4.84-1.84a0.489,0.489,0,0,1,0-.92l4.84-1.84,1.83-4.84a0.489,0.489,0,0,1,.46-0.32m0-2.03a2.518,2.518,0,0,0-2.36,1.63l-1.51,3.99-3.98,1.51a2.523,2.523,0,0,0,0,4.72l3.98,1.51,1.51,3.99a2.523,2.523,0,0,0,4.72,0l1.51-3.99,3.99-1.51a2.523,2.523,0,0,0,0-4.72l-3.99-1.51-1.51-3.99a2.5,2.5,0,0,0-2.36-1.63h0Z" transform="translate(-1129.94 -5656)"/>
  <path id="Rectangle_133_copy_3" data-name="Rectangle 133 copy 3" class="cls-2" d="M1338.8,5712.61l-2.6,1.5-1.73,1-1-1.73-1.5-2.6-4.33,2.5-1-1.73,4.33-2.5,1.73-1,2.5,4.33,2.6-1.5,1.73-1,2.5,4.33,4.33-2.5,1,1.73-4.33,2.5-1.73,1Z" transform="translate(-1129.94 -5656)"/>
  <path id="Rectangle_131_copy_16" data-name="Rectangle 131 copy 16" class="cls-1" d="M1136.66,5737.07l-2.66-2.66-2.66,2.66-1.41-1.42,2.66-2.65-2.66-2.66,1.41-1.42,2.66,2.66,2.66-2.66,1.41,1.42-2.66,2.66,2.66,2.65Z" transform="translate(-1129.94 -5656)"/>
  <path id="Rectangle_175_copy_17" data-name="Rectangle 175 copy 17" class="cls-3" d="M1166,5786h-3v3a1,1,0,0,1-2,0v-3h-3a1,1,0,0,1,0-2h3v-3a1,1,0,0,1,2,0v3h3A1,1,0,0,1,1166,5786Z" transform="translate(-1129.94 -5656)"/>
  <path id="Ellipse_40_copy_2" data-name="Ellipse 40 copy 2" class="cls-1" d="M1313,5668a6,6,0,1,1,6-6A6,6,0,0,1,1313,5668Zm0-10a4,4,0,1,0,4,4A4,4,0,0,0,1313,5658Z" transform="translate(-1129.94 -5656)"/>
</svg>
