<svg xmlns="http://www.w3.org/2000/svg" width="300" height="180" viewBox="0 0 300 180">
  <metadata><?xpacket begin="﻿" id="W5M0MpCehiHzreSzNTczkc9d"?>
<x:xmpmeta xmlns:x="adobe:ns:meta/" x:xmptk="Adobe XMP Core 5.6-c138 79.159824, 2016/09/14-01:09:01        ">
   <rdf:RDF xmlns:rdf="http://www.w3.org/1999/02/22-rdf-syntax-ns#">
      <rdf:Description rdf:about=""/>
   </rdf:RDF>
</x:xmpmeta>
                                                                                                    
                                                                                                    
                                                                                                    
                                                                                                    
                                                                                                    
                                                                                                    
                                                                                                    
                                                                                                    
                                                                                                    
                                                                                                    
                                                                                                    
                                                                                                    
                                                                                                    
                                                                                                    
                                                                                                    
                                                                                                    
                                                                                                    
                                                                                                    
                                                                                                    
                                                                                                    
                           
<?xpacket end="w"?></metadata>
<defs>
    <style>
      .cls-1 {
        fill: #e0eee9;
        fill-rule: evenodd;
      }
    </style>
  </defs>
  <path id="_3_bg" data-name="3_bg" class="cls-1" d="M1190,5720a10,10,0,0,1,0,20h-81a10,10,0,0,1,0-20h81Zm151,0h37a10,10,0,0,1,0,20h-92a10,10,0,0,0,0,20h78a10,10,0,0,1,0,20h-89a10,10,0,0,0,0,20h74a10,10,0,0,1,0,20H1115.17a10,10,0,1,1,0-20H1225a10,10,0,0,0,0-20h-89.83a10,10,0,1,1,0-20H1246a10,10,0,0,0,0-20h-15.89a10,10,0,1,1,.06-20H1292a10,10,0,0,0,0-20H1098.17a10,10,0,1,1,0-20H1152a10,10,0,0,0,0-20h-28.83a10,10,0,1,1,0-20H1199a10,10,0,0,1,0,20h-7a10,10,0,0,0,0,20h85a10,10,0,0,0,.01-20H1239a10,10,0,0,1,0-20h121a10,10,0,0,1,0,20h-34.01a10,10,0,0,0,.01,20h33a10,10,0,0,1,0,20h-18A10,10,0,0,0,1341,5720Z" transform="translate(-1088 -5640)"/>
</svg>
