<svg xmlns="http://www.w3.org/2000/svg" width="380" height="180" viewBox="0 0 380 180">
  <metadata><?xpacket begin="﻿" id="W5M0MpCehiHzreSzNTczkc9d"?>
<x:xmpmeta xmlns:x="adobe:ns:meta/" x:xmptk="Adobe XMP Core 5.6-c138 79.159824, 2016/09/14-01:09:01        ">
   <rdf:RDF xmlns:rdf="http://www.w3.org/1999/02/22-rdf-syntax-ns#">
      <rdf:Description rdf:about=""/>
   </rdf:RDF>
</x:xmpmeta>
                                                                                                    
                                                                                                    
                                                                                                    
                                                                                                    
                                                                                                    
                                                                                                    
                                                                                                    
                                                                                                    
                                                                                                    
                                                                                                    
                                                                                                    
                                                                                                    
                                                                                                    
                                                                                                    
                                                                                                    
                                                                                                    
                                                                                                    
                                                                                                    
                                                                                                    
                                                                                                    
                           
<?xpacket end="w"?></metadata>
<defs>
    <style>
      .cls-1 {
        fill: #f0f7f5;
        fill-rule: evenodd;
      }
    </style>
  </defs>
  <path id="bg" class="cls-1" d="M968,6024H791a10,10,0,0,1,0-20h57a10,10,0,0,0,0-20H639.165a10,10,0,1,0,0,20H751a10,10,0,0,1,0,20H657.166a10,10,0,1,0,0,20H681a10,10,0,0,1,0,20H618.165a10,10,0,1,0,0,20H739a10,10,0,0,1,0,20H684a10,10,0,0,0,0,20H794a10,10,0,0,0,0-20H779a10,10,0,0,1,0-20h76a10,10,0,0,1,0,20H834.166a10,10,0,1,0,0,20H874a10,10,0,0,1,0,20H764.166a10,10,0,1,0,0,20H968a10,10,0,0,0,0-20H914a10,10,0,0,1,0-20h29a10,10,0,0,0,0-20H895a10,10,0,0,1,0-20h83a10,10,0,0,0,0-20H721a10,10,0,0,1,0-20H968A10,10,0,0,0,968,6024ZM645,6144h79a10,10,0,0,1,0,20H645A10,10,0,0,1,645,6144Zm243-160h69a10,10,0,0,1,0,20H888A10,10,0,0,1,888,5984Z" transform="translate(-608 -5984)"/>
</svg>
