<svg id="icon" xmlns="http://www.w3.org/2000/svg" width="145.812" height="143.81" viewBox="0 0 145.812 143.81">
  <metadata><?xpacket begin="﻿" id="W5M0MpCehiHzreSzNTczkc9d"?>
<x:xmpmeta xmlns:x="adobe:ns:meta/" x:xmptk="Adobe XMP Core 5.6-c138 79.159824, 2016/09/14-01:09:01        ">
   <rdf:RDF xmlns:rdf="http://www.w3.org/1999/02/22-rdf-syntax-ns#">
      <rdf:Description rdf:about=""/>
   </rdf:RDF>
</x:xmpmeta>
                                                                                                    
                                                                                                    
                                                                                                    
                                                                                                    
                                                                                                    
                                                                                                    
                                                                                                    
                                                                                                    
                                                                                                    
                                                                                                    
                                                                                                    
                                                                                                    
                                                                                                    
                                                                                                    
                                                                                                    
                                                                                                    
                                                                                                    
                                                                                                    
                                                                                                    
                                                                                                    
                           
<?xpacket end="w"?></metadata>
<defs>
    <style>
      .cls-1 {
        fill: #226d4f;
      }

      .cls-1, .cls-2, .cls-3 {
        fill-rule: evenodd;
      }

      .cls-2 {
        fill: #16d488;
      }

      .cls-3 {
        fill: #c1ecdb;
      }
    </style>
  </defs>
  <path class="cls-1" d="M714.336,6079.7l122.05,47.2a2,2,0,0,0,2.7-1.57l17.753-116.86a2,2,0,0,0-2.872-2.1l-139.8,69.67A2,2,0,0,0,714.336,6079.7Zm122.774,48.34a2.936,2.936,0,0,1-1.085-.21l-122.05-47.19a3.011,3.011,0,0,1-.257-5.5l139.8-69.66a3,3,0,0,1,4.307,3.14l-17.753,116.86A3.014,3.014,0,0,1,837.11,6128.04Zm17.753-120.88a1.035,1.035,0,0,0-.449.11l-139.8,69.67a1,1,0,0,0,.086,1.83l122.05,47.19a1.006,1.006,0,0,0,.863-0.06,1.022,1.022,0,0,0,.488-0.72l17.752-116.86a0.98,0.98,0,0,0-.4-0.96A1,1,0,0,0,854.863,6007.16Zm-103.394,86.45a0.3,0.3,0,0,0-.09.35l13.438,52.56,24.647-37.77c0.016-.03-0.016.04,0,0l66.314-101.58a0.092,0.092,0,0,0-.127-0.13Zm12.942,55.36-13.99-54.72a1.3,1.3,0,0,1,.415-1.42l104.176-86.56a1.107,1.107,0,0,1,1.451.06,1.09,1.09,0,0,1,.136,1.41Zm-11.963-54.87,12.775,49.96,86.412-132.38Zm102.492-87.48a0.3,0.3,0,0,0-.026.04Zm-89.183,140.24-1.879-.69,15.594-42.29,0.094-.14,74.175-95.59,1.581,1.23-74.1,95.5Zm89.894-139.82-1.12,1.72,1.247-1.59A0.092,0.092,0,0,0,855.651,6007.04Zm-0.332,2.34-1.626-1.17,1.218-1.86,0.141-.11a1.091,1.091,0,0,1,1.547,1.5Z" transform="translate(-712.063 -6005.16)"/>
  <path id="Shape_1064_copy_3" data-name="Shape 1064 copy 3" class="cls-1" d="M857.829,6008.62l-17.753,116.86a3.014,3.014,0,0,1-2.966,2.56,2.936,2.936,0,0,1-1.085-.21l-46.164-17.85-25.45,38.99-13.855-54.19-36.581-14.14a3.011,3.011,0,0,1-.257-5.5l139.8-69.66A3,3,0,0,1,857.829,6008.62Z" transform="translate(-712.063 -6005.16)"/>
  <path id="Shape_1064_copy_2" data-name="Shape 1064 copy 2" class="cls-2" d="M856.6,6007.74l-1.28,1.64h0l-13.737,17.7-72.766,111.48-3.826,4.59-12.542-49.05,97.387-80.92,3.883-5.01,1.193-1.82,0.141-.11A1.091,1.091,0,0,1,856.6,6007.74Z" transform="translate(-712.063 -6005.16)"/>
  <path class="cls-3" d="M768,6136l-10.537-40.37L841,6025l-61,79Z" transform="translate(-712.063 -6005.16)"/>
  <path id="Shape_1064_copy_8" data-name="Shape 1064 copy 8" class="cls-2" d="M768.816,6138.56l-3.826,4.59L781,6105l7.2,3.86Z" transform="translate(-712.063 -6005.16)"/>
  <path id="Shape_1064_copy_4" data-name="Shape 1064 copy 4" class="cls-1" d="M854.94,6006.62a0.3,0.3,0,0,0-.026.04Zm-89.183,140.24-1.879-.69,15.594-42.29,0.094-.14,74.175-95.59,1.581,1.23-74.1,95.5Zm89.894-139.82-1.12,1.72,1.247-1.59A0.092,0.092,0,0,0,855.651,6007.04Zm-0.332,2.34-1.626-1.17,1.218-1.86,0.141-.11a1.091,1.091,0,0,1,1.547,1.5Z" transform="translate(-712.063 -6005.16)"/>
  <path id="Shape_1064_copy" data-name="Shape 1064 copy" class="cls-2" d="M750.578,6092.64L714.7,6078.77a1,1,0,0,1-.086-1.83l134.3-66.93L854,6007Zm106.2-85.66a1.062,1.062,0,0,1-.182.76l-0.821,1.05L838.1,6125.18a1.022,1.022,0,0,1-.488.72,1.006,1.006,0,0,1-.863.06l-56.125-21.7Z" transform="translate(-712.063 -6005.16)"/>
  <path class="cls-1" d="M857.828,6008.63l-17.753,116.8a3.017,3.017,0,0,1-2.966,2.55,3.14,3.14,0,0,1-1.085-.2L779,6105.74v-2.15l57.746,22.32a1.007,1.007,0,0,0,.863-0.07,0.985,0.985,0,0,0,.488-0.71l17.752-116.8a0.98,0.98,0,0,0-.4-0.96,0.993,0.993,0,0,0-.587-0.2,1.035,1.035,0,0,0-.449.11l-139.8,69.63a1,1,0,0,0,.086,1.83l36.3,14.03v2.15l-37.025-14.31a3,3,0,0,1-.258-5.49l139.805-69.63A3,3,0,0,1,857.828,6008.63Z" transform="translate(-712.063 -6005.16)"/>
  <path id="Shape_1064_copy_5" data-name="Shape 1064 copy 5" class="cls-1" d="M856.319,6007.38l-75.1,97.5-15.466,41.98-1.879-.69,15.594-42.29,0.094-.14,74.152-95.57,2.6-.79h0Z" transform="translate(-712.063 -6005.16)"/>
  <path id="MVP_copy" data-name="MVP copy" class="cls-1" d="M832.825,6113.36l0.585-2.06-9.467-3.29,10.123,0.98,0.444-1.56-8.7-4.55,9.321,2.38,0.52-1.83-12.907-3.15-0.85,2.2,8.076,4.45-9.467-.85-0.949,2.46Zm3.932-13.83,0.628-2.21-11.642-4.82-0.672,1.74,8.088,3.28-9.176-.46-0.7,1.83Zm1.648-5.8,0.583-2.05-5.664-.97,0.348-1.05c0.608-1.83.348-2.8-1.741-3.17-2.112-.38-4,0.35-4.638,2l-1.14,2.95Zm-6.632-3.29-3.473-.59,0.265-.71a1.91,1.91,0,0,1,.485-0.79,1.181,1.181,0,0,1,.666-0.26,4.873,4.873,0,0,1,1.068.07,2.137,2.137,0,0,1,1.222.47,1.092,1.092,0,0,1,.019,1.08Z" transform="translate(-712.063 -6005.16)"/>
</svg>
