<svg xmlns="http://www.w3.org/2000/svg" width="300" height="180" viewBox="0 0 300 180">
  <metadata><?xpacket begin="﻿" id="W5M0MpCehiHzreSzNTczkc9d"?>
<x:xmpmeta xmlns:x="adobe:ns:meta/" x:xmptk="Adobe XMP Core 5.6-c138 79.159824, 2016/09/14-01:09:01        ">
   <rdf:RDF xmlns:rdf="http://www.w3.org/1999/02/22-rdf-syntax-ns#">
      <rdf:Description rdf:about=""/>
   </rdf:RDF>
</x:xmpmeta>
                                                                                                    
                                                                                                    
                                                                                                    
                                                                                                    
                                                                                                    
                                                                                                    
                                                                                                    
                                                                                                    
                                                                                                    
                                                                                                    
                                                                                                    
                                                                                                    
                                                                                                    
                                                                                                    
                                                                                                    
                                                                                                    
                                                                                                    
                                                                                                    
                                                                                                    
                                                                                                    
                           
<?xpacket end="w"?></metadata>
<defs>
    <style>
      .cls-1 {
        fill: #e1eee9;
        fill-rule: evenodd;
      }
    </style>
  </defs>
  <path id="bg" class="cls-1" d="M290,100H238a10,10,0,0,0,0,20h18a10,10,0,1,1,0,20H137a10,10,0,0,0,0,20h14a10,10,0,1,1,0,20H12.165a10,10,0,1,1,0-20H97a10,10,0,0,0,0-20H42.165a10,10,0,1,1,0-20H198a10,10,0,0,0,0-20l-172.886,0a10,10,0,1,1,.052-20H104a10,10,0,0,0,0-20H45.165a10,10,0,1,1,0-20H179a10,10,0,0,0,.006-20H10A10,10,0,1,1,10,0H272a10,10,0,1,1,0,20H218.994a10,10,0,0,0,0,20h32a10,10,0,1,1,0,20H144a10,10,0,0,0,0,20H290A10,10,0,1,1,290,100Zm-99,60h81a10,10,0,1,1,0,20H191A10,10,0,1,1,191,160Z"/>
</svg>
