<svg id="icon" xmlns="http://www.w3.org/2000/svg" width="76" height="111" viewBox="0 0 76 111">
  <metadata><?xpacket begin="﻿" id="W5M0MpCehiHzreSzNTczkc9d"?>
<x:xmpmeta xmlns:x="adobe:ns:meta/" x:xmptk="Adobe XMP Core 5.6-c138 79.159824, 2016/09/14-01:09:01        ">
   <rdf:RDF xmlns:rdf="http://www.w3.org/1999/02/22-rdf-syntax-ns#">
      <rdf:Description rdf:about=""/>
   </rdf:RDF>
</x:xmpmeta>
                                                                                                    
                                                                                                    
                                                                                                    
                                                                                                    
                                                                                                    
                                                                                                    
                                                                                                    
                                                                                                    
                                                                                                    
                                                                                                    
                                                                                                    
                                                                                                    
                                                                                                    
                                                                                                    
                                                                                                    
                                                                                                    
                                                                                                    
                                                                                                    
                                                                                                    
                                                                                                    
                           
<?xpacket end="w"?></metadata>
<defs>
    <style>
      .cls-1, .cls-3 {
        fill: #226d4f;
      }

      .cls-1, .cls-2, .cls-4 {
        fill-rule: evenodd;
      }

      .cls-2 {
        fill: #16d488;
      }

      .cls-4, .cls-5 {
        fill: #c1ecdb;
      }
    </style>
  </defs>
  <path id="Rounded_Rectangle_3" data-name="Rounded Rectangle 3" class="cls-1" d="M184,143.993h-9a2,2,0,0,1-2,2H127a2,2,0,0,1-2-2h-9a4,4,0,0,1-4-4v-9.943a38,38,0,1,1,76,0v9.943A4,4,0,0,1,184,143.993Z" transform="translate(-112 -35)"/>
  <path id="Shape_1028_copy_6" data-name="Shape 1028 copy 6" class="cls-2" d="M184,141.993H173v2H127v-2H116a2,2,0,0,1-2-2V130a36,36,0,1,1,72,0l0,2v8A2,2,0,0,1,184,141.993Z" transform="translate(-112 -35)"/>
  <rect class="cls-3" x="37" y="76" width="2" height="34"/>
  <path class="cls-1" d="M150,117.994l-15.557-16.472c0.636-.307,1.286-0.587,1.942-0.856L150,115.081l13.616-14.415c0.656,0.269,1.306.549,1.942,0.856Z" transform="translate(-112 -35)"/>
  <path id="Shape_1055_copy" data-name="Shape 1055 copy" class="cls-4" d="M150,97.994a20.878,20.878,0,0,1,12.333,4.027L150,115.081l-12.333-13.058A20.867,20.867,0,0,1,150,97.994Z" transform="translate(-112 -35)"/>
  <path id="Polygon_1" data-name="Polygon 1" class="cls-1" d="M150,100.99l4,10.506L150,116l-4-4.505Z" transform="translate(-112 -35)"/>
  <path id="Shape_1028_copy_2" data-name="Shape 1028 copy 2" class="cls-1" d="M175.7,103.991q0.671,0.771,1.3,1.581a13.779,13.779,0,0,0-2,7.42v29h-2v-29A16.081,16.081,0,0,1,175.7,103.991Z" transform="translate(-112 -35)"/>
  <path id="Shape_1028_copy_5" data-name="Shape 1028 copy 5" class="cls-1" d="M124.3,103.991q-0.672.771-1.3,1.581a13.78,13.78,0,0,1,2,7.42v29h2v-29A16.089,16.089,0,0,0,124.3,103.991Z" transform="translate(-112 -35)"/>
  <path id="Shape_1022_copy_3" data-name="Shape 1022 copy 3" class="cls-1" d="M178,78.993h-4a4,4,0,0,1-4-4v-5a4,4,0,0,1,4-4h4a4,4,0,0,1,4,4v5A4,4,0,0,1,178,78.993Zm-52,0h-4a4,4,0,0,1-4-4v-5a4,4,0,0,1,4-4h4a4,4,0,0,1,4,4v5A4,4,0,0,1,126,78.993Z" transform="translate(-112 -35)"/>
  <path id="Shape_1022_copy_4" data-name="Shape 1022 copy 4" class="cls-4" d="M122,67.994a2,2,0,0,0-2,2v5a2,2,0,0,0,2,2h4a2,2,0,0,0,2-2v-5a2,2,0,0,0-2-2h-4Zm52,0a2,2,0,0,0-2,2v5a2,2,0,0,0,2,2h4a2,2,0,0,0,2-2v-5a2,2,0,0,0-2-2h-4Z" transform="translate(-112 -35)"/>
  <path class="cls-1" d="M150,105.993a28.031,28.031,0,0,1-28-28v-15a28,28,0,1,1,56,0v15A28.032,28.032,0,0,1,150,105.993Z" transform="translate(-112 -35)"/>
  <path id="Shape_1022_copy" data-name="Shape 1022 copy" class="cls-4" d="M150,103.991a26.027,26.027,0,0,1-26-26v-15a26,26,0,1,1,52,0v15A26.027,26.027,0,0,1,150,103.991Z" transform="translate(-112 -35)"/>
  <path id="Shape_1022_copy_2" data-name="Shape 1022 copy 2" class="cls-1" d="M142,71.994a2,2,0,1,0,2,2A2,2,0,0,0,142,71.994Zm20.25,0a2,2,0,1,0,2,2A2,2,0,0,0,162.25,71.994Z" transform="translate(-112 -35)"/>
  <path id="Rounded_Rectangle_5" data-name="Rounded Rectangle 5" class="cls-1" d="M141,126.993h-6a2,2,0,0,1-2-2v-3a2,2,0,0,1,2-2h2v-1a1,1,0,0,1,2,0v1h2a2,2,0,0,1,2,2v3A2,2,0,0,1,141,126.993Z" transform="translate(-112 -35)"/>
  <rect class="cls-5" x="23" y="87" width="6" height="3"/>
  <path id="Ellipse_670_copy_5" data-name="Ellipse 670 copy 5" class="cls-1" d="M153.5,120a1.5,1.5,0,1,1-1.5,1.5A1.5,1.5,0,0,1,153.5,120Zm0,8a1.5,1.5,0,1,1-1.5,1.5A1.5,1.5,0,0,1,153.5,128Zm0,8a1.5,1.5,0,1,1-1.5,1.5A1.5,1.5,0,0,1,153.5,136Z" transform="translate(-112 -35)"/>
  <path id="Shape_1054_copy" data-name="Shape 1054 copy" class="cls-1" d="M138.289,91.175a5.324,5.324,0,0,0,1.525-.269c-0.9-.128-0.872-0.5-0.428-0.426,2.371,0.406,8.1-5.324,11.389-2.872,3.767,2.81-3.352,6.4-8.835,5.107C139.746,92.2,137.137,91.2,138.289,91.175Zm23.427,0a5.145,5.145,0,0,1-1.5-.269c0.884-.128.856-0.5,0.421-0.426-2.327.406-7.949-5.324-11.175-2.872-3.7,2.81,3.289,6.4,8.669,5.107C160.286,92.2,162.846,91.2,161.716,91.175Z" transform="translate(-112 -35)"/>
  <path id="Ellipse_668_copy_3" data-name="Ellipse 668 copy 3" class="cls-1" d="M150,35c0.411,0,.81.044,1.217,0.063a45.1,45.1,0,0,1-29.083,25.269A28,28,0,0,1,150,35Z" transform="translate(-112 -35)"/>
  <path id="Ellipse_668_copy_3-2" data-name="Ellipse 668 copy 3" class="cls-2" d="M148.013,37.1a43.133,43.133,0,0,1-23.406,20.351A25.99,25.99,0,0,1,148.013,37.1Z" transform="translate(-112 -35)"/>
  <path class="cls-1" d="M128.736,44.789A27.992,27.992,0,0,1,174.75,49.9,44.976,44.976,0,0,1,128.736,44.789Z" transform="translate(-112 -35)"/>
  <path id="Ellipse_668_copy" data-name="Ellipse 668 copy" class="cls-2" d="M131.737,44.5a25.987,25.987,0,0,1,40.141,4.461A42.993,42.993,0,0,1,131.737,44.5Z" transform="translate(-112 -35)"/>
  <path id="Rounded_Rectangle_7_copy_2" data-name="Rounded Rectangle 7 copy 2" class="cls-1" d="M139,66a9,9,0,1,1-9,9A9,9,0,0,1,139,66Zm0,2a7,7,0,1,1-7,7A7,7,0,0,1,139,68Zm11,4.992a5.953,5.953,0,0,0-3.088.882,7.92,7.92,0,0,0-.545-2,7.965,7.965,0,0,1,7.265,0,7.92,7.92,0,0,0-.545,2A5.947,5.947,0,0,0,150,72.992ZM161,66a9,9,0,1,1-9,9A9,9,0,0,1,161,66Zm0,2a7,7,0,1,1-7,7A7,7,0,0,1,161,68Z" transform="translate(-112 -35)"/>
</svg>
