<svg id="icon2" xmlns="http://www.w3.org/2000/svg" width="178.375" height="130" viewBox="0 0 178.375 130">
  <metadata><?xpacket begin="﻿" id="W5M0MpCehiHzreSzNTczkc9d"?>
<x:xmpmeta xmlns:x="adobe:ns:meta/" x:xmptk="Adobe XMP Core 5.6-c138 79.159824, 2016/09/14-01:09:01        ">
   <rdf:RDF xmlns:rdf="http://www.w3.org/1999/02/22-rdf-syntax-ns#">
      <rdf:Description rdf:about=""/>
   </rdf:RDF>
</x:xmpmeta>
                                                                                                    
                                                                                                    
                                                                                                    
                                                                                                    
                                                                                                    
                                                                                                    
                                                                                                    
                                                                                                    
                                                                                                    
                                                                                                    
                                                                                                    
                                                                                                    
                                                                                                    
                                                                                                    
                                                                                                    
                                                                                                    
                                                                                                    
                                                                                                    
                                                                                                    
                                                                                                    
                           
<?xpacket end="w"?></metadata>
<defs>
    <style>
      .cls-1 {
        fill: #226d4f;
      }

      .cls-1, .cls-2, .cls-3 {
        fill-rule: evenodd;
        opacity: 0.5;
      }

      .cls-2 {
        fill: #16d488;
      }

      .cls-3 {
        fill: #2c7457;
      }
    </style>
  </defs>
  <path id="Rounded_Rectangle_10_copy_10" data-name="Rounded Rectangle 10 copy 10" class="cls-1" d="M64,33.991H57a1,1,0,0,1-1-1v-7a1,1,0,0,1,1-1h7a1,1,0,0,1,1,1v7A1,1,0,0,1,64,33.991Zm-1-7H58v5h5v-5Z" transform="translate(-56 -5)"/>
  <path id="Shape_988_copy_3" data-name="Shape 988 copy 3" class="cls-1" d="M219.333,21.757a0.488,0.488,0,0,1,.462.316l1.836,4.842,4.84,1.838a0.493,0.493,0,0,1,0,.922l-4.84,1.835L219.8,36.35a0.494,0.494,0,0,1-.924,0l-1.836-4.841-4.84-1.835a0.493,0.493,0,0,1,0-.922l4.84-1.838,1.836-4.842a0.488,0.488,0,0,1,.462-0.316m0-2.029a2.5,2.5,0,0,0-2.359,1.628l-1.512,3.986-3.987,1.512a2.523,2.523,0,0,0,0,4.718l3.986,1.513,1.512,3.986a2.523,2.523,0,0,0,4.718,0l1.512-3.986,3.987-1.513a2.523,2.523,0,0,0,0-4.718L223.2,25.342l-1.512-3.986a2.5,2.5,0,0,0-2.359-1.628h0Z" transform="translate(-56 -5)"/>
  <path id="Rectangle_175_copy_17" data-name="Rectangle 175 copy 17" class="cls-1" d="M69,130.989H66v3a1,1,0,0,1-2,0v-3H61a1,1,0,1,1,0-2h3v-3a1,1,0,0,1,2,0v3h3A1,1,0,1,1,69,130.989Z" transform="translate(-56 -5)"/>
  <path id="Ellipse_40_copy_2" data-name="Ellipse 40 copy 2" class="cls-2" d="M74,83.992a6,6,0,1,0-6-6A6,6,0,0,0,74,83.992Zm0-10a4,4,0,1,1-4,4A4,4,0,0,1,74,73.991Z" transform="translate(-56 -5)"/>
  <path id="Rounded_Rectangle_10_copy_14" data-name="Rounded Rectangle 10 copy 14" class="cls-2" d="M224,86.991h-7a1,1,0,0,1-1-1v-7a1,1,0,0,1,1-1h7a1,1,0,0,1,1,1v7A1,1,0,0,1,224,86.991Zm-1-7h-5v5h5v-5Z" transform="translate(-56 -5)"/>
  <path id="Rectangle_133_copy_4" data-name="Rectangle 133 copy 4" class="cls-3" d="M225.8,128.6l-2.6,1.5-1.732,1-1-1.732-1.5-2.6-4.33,2.5-1-1.732,4.33-2.5,1.732-1,2.5,4.332,2.6-1.5,1.732-1,2.5,4.327,4.33-2.5,1,1.732-4.33,2.5-1.732,1Z" transform="translate(-56 -5)"/>
  <path id="Rectangle_175_copy_19" data-name="Rectangle 175 copy 19" class="cls-2" d="M117,10.99h-3v3a1,1,0,1,1-2,0v-3h-3a1,1,0,0,1,0-2h3v-3a1,1,0,1,1,2,0v3h3A1,1,0,0,1,117,10.99Z" transform="translate(-56 -5)"/>
</svg>
