<svg id="Layer_1" data-name="Layer 1" xmlns="http://www.w3.org/2000/svg" xmlns:xlink="http://www.w3.org/1999/xlink" viewBox="0 0 275.36 125.2">
  <defs>
    <clipPath id="clip-path" transform="translate(0 0)">
      <rect width="275.36" height="125.2" style="fill: none"/>
    </clipPath>
  </defs>
  <title>logo</title>
  <g style="clip-path: url(#clip-path)">
    <path d="M47.94,2.89q0-1.23.53-1.53A3,3,0,0,1,50,1.05H55a2.94,2.94,0,0,1,1.58.31q.44.31.44,1.53V60.57q0,1.23-.44,1.53a2.92,2.92,0,0,1-1.58.31H50a3,3,0,0,1-1.49-.31q-.53-.31-.53-1.53Z" transform="translate(0 0)" style="fill: #010101"/>
    <path d="M109,2.81q0-1.23.53-1.53A3,3,0,0,1,111,1h4.82a2.93,2.93,0,0,1,1.58.31q.44.31.44,1.53V57.59a5.52,5.52,0,0,1-1,3.64q-1,1.18-3.73,1.18H110.5a4.47,4.47,0,0,1-3.07-.88,13.45,13.45,0,0,1-2.19-2.89L86,26.47,78.77,14h-.26V60.57q0,1.23-.44,1.53a2.92,2.92,0,0,1-1.58.31H71.67a3,3,0,0,1-1.49-.31q-.53-.31-.53-1.53V5.79a5.52,5.52,0,0,1,1-3.64Q71.67,1,74.39,1H77a4.48,4.48,0,0,1,3.07.88,13.59,13.59,0,0,1,2.19,2.89l19,31.82,7.45,12.8H109Z" transform="translate(0 0)" style="fill: #010101"/>
    <path d="M130,5.61A5,5,0,0,1,131.11,2a5,5,0,0,1,3.64-1.1h20.43a22.19,22.19,0,0,1,7.76,1.31A17.29,17.29,0,0,1,169,6a17.71,17.71,0,0,1,4,5.83,18.84,18.84,0,0,1,1.45,7.49,24.8,24.8,0,0,1-.79,5.65,17.77,17.77,0,0,1-2.94,6.27,17.2,17.2,0,0,1-6,5,20.94,20.94,0,0,1-9.91,2.06H139V60.57q0,1.23-.44,1.53a2.9,2.9,0,0,1-1.58.31H132a3,3,0,0,1-1.49-.31q-.53-.31-.53-1.53ZM165.08,19.9a13.32,13.32,0,0,0-.53-3.55,9,9,0,0,0-1.88-3.46A10.48,10.48,0,0,0,159,10.26a14.65,14.65,0,0,0-6-1.05H139V30.33h14.2q6.22,0,9-2.89a10.38,10.38,0,0,0,2.81-7.54" transform="translate(0 0)" style="fill: #010101"/>
    <path d="M217.41,62.42a4.91,4.91,0,0,1-1.49-.18q-.53-.17-.88-1.23l-4.12-12.45H187.16L183,61a2.38,2.38,0,0,1-.7,1.05,2.24,2.24,0,0,1-1.4.35h-6.75q-1,0-1.23-.57a1.59,1.59,0,0,1,0-1.27L192.42,4.73a6.54,6.54,0,0,1,1.75-3,5.77,5.77,0,0,1,3.24-.83h2.89a5.68,5.68,0,0,1,3.6.83,6.72,6.72,0,0,1,1.67,3l19.55,55.84a1.59,1.59,0,0,1,0,1.27,1.12,1.12,0,0,1-1.14.57ZM202.94,23.67,199,11.22h-.44l-3.68,12-5.35,17.36h18.76Z" transform="translate(0 0)" style="fill: #010101"/>
    <path d="M275.36,45.76a17.06,17.06,0,0,1-1.71,7.89A15.36,15.36,0,0,1,269,59.13a20.49,20.49,0,0,1-6.84,3.2,31.68,31.68,0,0,1-8.28,1.05,74.84,74.84,0,0,1-11.4-.92,37.82,37.82,0,0,1-11.22-3.55q-1.05-.44-.44-1.84l2.37-5.35a1.1,1.1,0,0,1,1.58-.61,44.22,44.22,0,0,0,17.53,4.12q7.36,0,10.56-2.5a8,8,0,0,0,3.2-6.62,7.72,7.72,0,0,0-.88-3.73,9.8,9.8,0,0,0-2.59-3,21.68,21.68,0,0,0-4.21-2.54q-2.5-1.19-5.83-2.5-4.91-1.93-8.59-3.77a31.39,31.39,0,0,1-6.18-3.94A14.71,14.71,0,0,1,234,22a13,13,0,0,1-1.27-5.87,15.13,15.13,0,0,1,4.82-11.7Q242.4,0,252,0q2.19,0,4.73.22t5,.66q2.5.44,4.86,1.1A33.52,33.52,0,0,1,271,3.51,1,1,0,0,1,271.59,5l-2,5.61c-.18.47-.35.73-.53.79a1,1,0,0,1-.7-.09A53.89,53.89,0,0,0,259.54,9a47.27,47.27,0,0,0-7.93-.75q-5,0-7.36,2.1a6.56,6.56,0,0,0-2.37,5.08,6.14,6.14,0,0,0,.92,3.37,9.94,9.94,0,0,0,2.85,2.76,32.57,32.57,0,0,0,4.82,2.63q2.89,1.31,6.84,3,3.33,1.4,6.58,2.94a27.41,27.41,0,0,1,5.79,3.64,17,17,0,0,1,4.12,5,14.47,14.47,0,0,1,1.58,7" transform="translate(0 0)" style="fill: #010101"/>
    <path d="M47.58,109.85a1.06,1.06,0,0,1,1.26-1.26h5.42a5.9,5.9,0,0,1,2.06.35,4.6,4.6,0,0,1,1.62,1A4.7,4.7,0,0,1,59,111.49a5,5,0,0,1,.38,2,6.55,6.55,0,0,1-.21,1.5,4.7,4.7,0,0,1-.78,1.66A4.55,4.55,0,0,1,56.79,118a5.56,5.56,0,0,1-2.63.55H49.95v5.91c0,.22,0,.35-.12.41a.78.78,0,0,1-.42.08h-1.3a.79.79,0,0,1-.4-.08c-.09-.05-.14-.19-.14-.41Zm9.3,3.79a3.52,3.52,0,0,0-.14-.94,2.37,2.37,0,0,0-.5-.92,2.77,2.77,0,0,0-1-.7,3.87,3.87,0,0,0-1.59-.28H50v5.61h3.77a3.22,3.22,0,0,0,2.4-.77,2.75,2.75,0,0,0,.75-2" transform="translate(0 0)" style="fill: #010101"/>
    <path d="M71,124.93a1.31,1.31,0,0,1-.4,0c-.09,0-.17-.14-.23-.33l-1.09-3.3h-6.3l-1.09,3.3a.64.64,0,0,1-.19.28.6.6,0,0,1-.37.09H59.5c-.17,0-.28-.05-.33-.15a.43.43,0,0,1,0-.34l5.17-14.82a1.72,1.72,0,0,1,.46-.8,1.53,1.53,0,0,1,.86-.22h.77a1.5,1.5,0,0,1,1,.22,1.78,1.78,0,0,1,.44.8L73,124.44a.43.43,0,0,1,0,.34.3.3,0,0,1-.3.15Zm-3.84-10.28-1-3.3H66l-1,3.19-1.42,4.6h5Z" transform="translate(0 0)" style="fill: #010101"/>
    <path d="M79.47,118.48v6.07c0,.17,0,.28-.08.32a.58.58,0,0,1-.31.06H77.54a.67.67,0,0,1-.32-.06c-.07,0-.11-.14-.11-.32v-6.07L71.8,108.9a.22.22,0,0,1,0-.19c0-.06.09-.09.2-.09h2a.6.6,0,0,1,.29.06.68.68,0,0,1,.22.27l2,3.77,1.84,3.65h.09l1.93-3.81,1.88-3.6a.57.57,0,0,1,.51-.33h1.84q.14,0,.17.09a.22.22,0,0,1,0,.19Z" transform="translate(0 0)" style="fill: #010101"/>
    <path d="M99.91,112.92h-.14l-1.33,3.47L96.21,122a2.05,2.05,0,0,1-.48.81,1.32,1.32,0,0,1-.85.21H94a1.32,1.32,0,0,1-.85-.21,2.05,2.05,0,0,1-.48-.81l-2.26-5.51L89.1,113.2H89v11.24c0,.22,0,.35-.12.41a.75.75,0,0,1-.41.08H87.21a.77.77,0,0,1-.39-.08c-.09-.05-.14-.19-.14-.41V109.9a1.53,1.53,0,0,1,.25-.94,1.2,1.2,0,0,1,1-.34h.72a1.59,1.59,0,0,1,.84.19,1.68,1.68,0,0,1,.56.81l3,7.58,1.35,3.53h.09l1.33-3.46,3-7.65a1.68,1.68,0,0,1,.56-.81,1.59,1.59,0,0,1,.84-.19h.72a1.2,1.2,0,0,1,1,.34,1.53,1.53,0,0,1,.26.94v14.54c0,.22,0,.35-.12.41a.75.75,0,0,1-.41.08h-1.22a.77.77,0,0,1-.39-.08c-.09-.05-.14-.19-.14-.41Z" transform="translate(0 0)" style="fill: #010101"/>
    <path d="M116.48,124.79c-.06.09-.19.14-.41.14h-6.47a5,5,0,0,1-2-.34,3.29,3.29,0,0,1-1.24-.89,3.22,3.22,0,0,1-.65-1.3,6.4,6.4,0,0,1-.19-1.56v-8.1a5.46,5.46,0,0,1,.22-1.56,3.55,3.55,0,0,1,.71-1.31,3.43,3.43,0,0,1,1.26-.91,4.63,4.63,0,0,1,1.86-.34H116c.22,0,.35,0,.41.14a.8.8,0,0,1,.08.4v1.12a.71.71,0,0,1-.08.41c-.05.07-.19.11-.41.11h-6.37a1.75,1.75,0,0,0-1.27.38,1.67,1.67,0,0,0-.38,1.22v2.86h7.26c.2,0,.33,0,.38.12a.78.78,0,0,1,.08.42v1a.79.79,0,0,1-.08.39c-.05.09-.18.14-.38.14H108v3.86a1.68,1.68,0,0,0,.38,1.14,1.6,1.6,0,0,0,1.27.44h6.47c.22,0,.35,0,.41.12a.77.77,0,0,1,.08.42v1.12a.79.79,0,0,1-.08.39" transform="translate(0 0)" style="fill: #010101"/>
    <path d="M129.38,109.11c0-.22,0-.35.14-.41a.79.79,0,0,1,.4-.08h1.28a.77.77,0,0,1,.42.08c.08.05.12.19.12.41v14.54a1.46,1.46,0,0,1-.27,1,1.26,1.26,0,0,1-1,.31h-.7a1.19,1.19,0,0,1-.81-.23,3.59,3.59,0,0,1-.58-.77l-5.12-8.53-1.91-3.3h-.07v12.35c0,.22,0,.35-.12.41a.77.77,0,0,1-.42.08h-1.28a.78.78,0,0,1-.4-.08c-.09-.05-.14-.19-.14-.41V109.9a1.47,1.47,0,0,1,.27-1,1.26,1.26,0,0,1,1-.31h.7a1.19,1.19,0,0,1,.81.23,3.58,3.58,0,0,1,.58.77l5,8.44,2,3.4h.07Z" transform="translate(0 0)" style="fill: #010101"/>
    <path d="M138.57,110.76h-4.44c-.17,0-.28,0-.31-.09a.59.59,0,0,1-.06-.3v-1.3a.67.67,0,0,1,.06-.32c0-.07.14-.1.31-.1h11.47c.17,0,.27,0,.31.1a.67.67,0,0,1,.06.32v1.3a.59.59,0,0,1-.06.3c0,.06-.14.09-.31.09H141v13.68c0,.22,0,.35-.12.41a.77.77,0,0,1-.42.08h-1.4a.78.78,0,0,1-.4-.08c-.09-.05-.14-.19-.14-.41Z" transform="translate(0 0)" style="fill: #010101"/>
    <path d="M165.46,120.51a4.53,4.53,0,0,1-.45,2.09,4.05,4.05,0,0,1-1.23,1.45,5.4,5.4,0,0,1-1.81.85,8.41,8.41,0,0,1-2.2.28,19.93,19.93,0,0,1-3-.24,10.07,10.07,0,0,1-3-.94c-.19-.08-.22-.24-.11-.49l.63-1.42a.29.29,0,0,1,.42-.16,11.73,11.73,0,0,0,4.65,1.09,4.63,4.63,0,0,0,2.8-.66,2.12,2.12,0,0,0,.85-1.76,2.06,2.06,0,0,0-.23-1,2.61,2.61,0,0,0-.69-.79,5.77,5.77,0,0,0-1.12-.68q-.66-.31-1.55-.66-1.3-.51-2.28-1a8.35,8.35,0,0,1-1.64-1,3.92,3.92,0,0,1-1-1.23,3.46,3.46,0,0,1-.34-1.56,4,4,0,0,1,1.28-3.11,5.47,5.47,0,0,1,3.81-1.17c.39,0,.81,0,1.26.06s.9.1,1.34.17.87.17,1.29.29a9.08,9.08,0,0,1,1.16.41.27.27,0,0,1,.16.4l-.54,1.49c0,.12-.09.19-.14.21a.27.27,0,0,1-.18,0,14.45,14.45,0,0,0-2.34-.62,12.52,12.52,0,0,0-2.11-.2,2.88,2.88,0,0,0-2,.56,1.74,1.74,0,0,0-.63,1.35,1.64,1.64,0,0,0,.24.9,2.66,2.66,0,0,0,.76.73,8.67,8.67,0,0,0,1.28.7l1.81.79q.88.37,1.74.78a7.32,7.32,0,0,1,1.54,1,4.53,4.53,0,0,1,1.09,1.33,3.84,3.84,0,0,1,.42,1.86" transform="translate(0 0)" style="fill: #010101"/>
    <path d="M181.31,116.71a9.68,9.68,0,0,1-1.79,6.28,6.42,6.42,0,0,1-5.28,2.19,6.35,6.35,0,0,1-5.18-2.1q-1.76-2.1-1.76-6.27a11.11,11.11,0,0,1,.54-3.59,7.66,7.66,0,0,1,1.48-2.64,6.24,6.24,0,0,1,2.22-1.63,6.82,6.82,0,0,1,2.77-.56,7.51,7.51,0,0,1,3,.57,5.78,5.78,0,0,1,2.19,1.65,7.42,7.42,0,0,1,1.34,2.62,12.34,12.34,0,0,1,.45,3.49m-2.44.09a14.56,14.56,0,0,0-.19-2.35,6,6,0,0,0-.67-2,3.76,3.76,0,0,0-1.36-1.38,4.36,4.36,0,0,0-2.27-.52,4.16,4.16,0,0,0-2.06.49,4.21,4.21,0,0,0-1.44,1.33,6.2,6.2,0,0,0-.86,2,9.56,9.56,0,0,0-.29,2.39,14,14,0,0,0,.22,2.58,5.72,5.72,0,0,0,.74,2,3.59,3.59,0,0,0,1.4,1.28,4.67,4.67,0,0,0,2.18.45,4.26,4.26,0,0,0,2.21-.52,4.11,4.11,0,0,0,1.42-1.38,5.82,5.82,0,0,0,.76-2,11.82,11.82,0,0,0,.22-2.33" transform="translate(0 0)" style="fill: #010101"/>
    <path d="M184.13,109.09c0-.22,0-.35.14-.41a.78.78,0,0,1,.4-.08H186a.77.77,0,0,1,.42.08c.08.05.12.19.12.41V121a1.57,1.57,0,0,0,1.79,1.77h6.44c.17,0,.27,0,.31.11a.67.67,0,0,1,.06.31v1.32a.74.74,0,0,1-.06.34c0,.07-.14.11-.31.11h-6.65a4.73,4.73,0,0,1-1.92-.34,3.25,3.25,0,0,1-1.22-.91,3.32,3.32,0,0,1-.65-1.3,6.22,6.22,0,0,1-.19-1.55Z" transform="translate(0 0)" style="fill: #010101"/>
    <path d="M196.66,109.13c0-.22,0-.35.14-.41a.79.79,0,0,1,.39-.08h1.4a.78.78,0,0,1,.42.08c.08.05.12.19.12.41v8.63a13.48,13.48,0,0,0,.18,2.34,3.77,3.77,0,0,0,.67,1.65,3,3,0,0,0,1.44,1,7.7,7.7,0,0,0,2.48.33l1.14,0a11.75,11.75,0,0,0,1.7-.22V109.13c0-.22,0-.35.14-.41a.8.8,0,0,1,.4-.08h1.4c.2,0,.33,0,.37.08a.73.73,0,0,1,.07.41v13.54a2.58,2.58,0,0,1-.41,1.51,2.19,2.19,0,0,1-1.5.77q-.88.14-1.79.2c-.6,0-1.15.06-1.65.06a12.5,12.5,0,0,1-3.28-.37,4.73,4.73,0,0,1-2.18-1.23,5.11,5.11,0,0,1-1.22-2.28,13.73,13.73,0,0,1-.38-3.51Z" transform="translate(0 0)" style="fill: #010101"/>
    <path d="M215.95,110.76h-4.44c-.17,0-.28,0-.31-.09a.59.59,0,0,1-.06-.3v-1.3a.67.67,0,0,1,.06-.32c0-.07.14-.1.31-.1H223c.17,0,.27,0,.31.1a.68.68,0,0,1,.06.32v1.3a.6.6,0,0,1-.06.3c0,.06-.14.09-.31.09h-4.56v13.68c0,.22,0,.35-.12.41a.77.77,0,0,1-.42.08h-1.4a.78.78,0,0,1-.39-.08c-.09-.05-.14-.19-.14-.41Z" transform="translate(0 0)" style="fill: #010101"/>
    <path d="M225.49,109.13c0-.22,0-.35.14-.41a.79.79,0,0,1,.4-.08h1.35a.77.77,0,0,1,.42.08c.08.05.12.19.12.41v15.31c0,.22,0,.35-.12.41a.76.76,0,0,1-.42.08H226a.78.78,0,0,1-.4-.08c-.09-.05-.14-.19-.14-.41Z" transform="translate(0 0)" style="fill: #010101"/>
    <path d="M244.86,116.71a9.67,9.67,0,0,1-1.79,6.28,6.42,6.42,0,0,1-5.28,2.19,6.36,6.36,0,0,1-5.18-2.1q-1.75-2.1-1.76-6.27a11.11,11.11,0,0,1,.54-3.59,7.71,7.71,0,0,1,1.48-2.64,6.27,6.27,0,0,1,2.22-1.63,6.82,6.82,0,0,1,2.77-.56,7.5,7.5,0,0,1,3,.57,5.77,5.77,0,0,1,2.19,1.65,7.35,7.35,0,0,1,1.34,2.62,12.27,12.27,0,0,1,.46,3.49m-2.44.09a14.56,14.56,0,0,0-.19-2.35,6,6,0,0,0-.67-2,3.75,3.75,0,0,0-1.36-1.38,4.36,4.36,0,0,0-2.27-.52,4.16,4.16,0,0,0-2.06.49,4.23,4.23,0,0,0-1.44,1.33,6.22,6.22,0,0,0-.86,2,9.47,9.47,0,0,0-.29,2.39,13.82,13.82,0,0,0,.22,2.58,5.65,5.65,0,0,0,.74,2,3.59,3.59,0,0,0,1.4,1.28,4.67,4.67,0,0,0,2.17.45,4.27,4.27,0,0,0,2.21-.52,4.11,4.11,0,0,0,1.42-1.38,5.88,5.88,0,0,0,.76-2,12,12,0,0,0,.22-2.33" transform="translate(0 0)" style="fill: #010101"/>
    <path d="M258.12,109.11c0-.22,0-.35.14-.41a.78.78,0,0,1,.39-.08h1.28a.77.77,0,0,1,.42.08c.08.05.12.19.12.41v14.54a1.46,1.46,0,0,1-.27,1,1.26,1.26,0,0,1-1,.31h-.7a1.19,1.19,0,0,1-.82-.23,3.62,3.62,0,0,1-.58-.77L252,115.39l-1.91-3.3H250v12.35c0,.22,0,.35-.12.41a.77.77,0,0,1-.42.08h-1.28a.79.79,0,0,1-.4-.08c-.09-.05-.14-.19-.14-.41V109.9a1.47,1.47,0,0,1,.27-1,1.26,1.26,0,0,1,1-.31h.7a1.19,1.19,0,0,1,.81.23,3.65,3.65,0,0,1,.58.77l5,8.44,2,3.4h.07Z" transform="translate(0 0)" style="fill: #010101"/>
    <path d="M274.64,120.51a4.53,4.53,0,0,1-.46,2.09,4.06,4.06,0,0,1-1.23,1.45,5.39,5.39,0,0,1-1.82.85,8.4,8.4,0,0,1-2.2.28,20,20,0,0,1-3-.24,10.07,10.07,0,0,1-3-.94c-.19-.08-.23-.24-.12-.49l.63-1.42a.29.29,0,0,1,.42-.16,11.72,11.72,0,0,0,4.65,1.09,4.62,4.62,0,0,0,2.8-.66,2.12,2.12,0,0,0,.85-1.76,2.06,2.06,0,0,0-.23-1,2.6,2.6,0,0,0-.69-.79,5.74,5.74,0,0,0-1.12-.68q-.66-.31-1.55-.66-1.3-.51-2.28-1a8.38,8.38,0,0,1-1.64-1,3.93,3.93,0,0,1-1-1.23,3.46,3.46,0,0,1-.34-1.56,4,4,0,0,1,1.28-3.11,5.47,5.47,0,0,1,3.81-1.17c.39,0,.81,0,1.26.06s.9.1,1.34.17.87.17,1.29.29a9,9,0,0,1,1.16.41.27.27,0,0,1,.16.4l-.54,1.49c0,.12-.09.19-.14.21a.27.27,0,0,1-.18,0,14.52,14.52,0,0,0-2.34-.62,12.51,12.51,0,0,0-2.11-.2,2.88,2.88,0,0,0-2,.56,1.74,1.74,0,0,0-.63,1.35,1.62,1.62,0,0,0,.25.9,2.6,2.6,0,0,0,.76.73,8.47,8.47,0,0,0,1.28.7l1.81.79q.88.37,1.74.78a7.37,7.37,0,0,1,1.54,1,4.53,4.53,0,0,1,1.09,1.33,3.86,3.86,0,0,1,.42,1.86" transform="translate(0 0)" style="fill: #010101"/>
    <polyline points="21.77 0.88 21.77 108.59 25.06 108.59 25.06 0.88" style="fill: #632466"/>
    <polyline points="275.36 83.78 0 83.78 0 87.07 275.36 87.07" style="fill: #632466"/>
  </g>
</svg>
