<svg id="_1" data-name="1" xmlns="http://www.w3.org/2000/svg" width="70.75" height="84.56" viewBox="0 0 70.75 84.56">
  <metadata><?xpacket begin="﻿" id="W5M0MpCehiHzreSzNTczkc9d"?>
<x:xmpmeta xmlns:x="adobe:ns:meta/" x:xmptk="Adobe XMP Core 5.6-c138 79.159824, 2016/09/14-01:09:01        ">
   <rdf:RDF xmlns:rdf="http://www.w3.org/1999/02/22-rdf-syntax-ns#">
      <rdf:Description rdf:about=""/>
   </rdf:RDF>
</x:xmpmeta>
                                                                                                    
                                                                                                    
                                                                                                    
                                                                                                    
                                                                                                    
                                                                                                    
                                                                                                    
                                                                                                    
                                                                                                    
                                                                                                    
                                                                                                    
                                                                                                    
                                                                                                    
                                                                                                    
                                                                                                    
                                                                                                    
                                                                                                    
                                                                                                    
                                                                                                    
                                                                                                    
                           
<?xpacket end="w"?></metadata>
<defs>
    <style>
      .cls-1 {
        fill: #226d4f;
      }

      .cls-1, .cls-2, .cls-3 {
        fill-rule: evenodd;
      }

      .cls-2 {
        fill: #16d488;
      }

      .cls-3 {
        fill: #c1ecdb;
      }
    </style>
  </defs>
  <path id="Shape_1081_copy_2" data-name="Shape 1081 copy 2" class="cls-1" d="M386.6,3603.78a2.224,2.224,0,0,1-1.882,1.05h-0.149l-0.068-.01-5.861-.4-2.653,5.31a2.213,2.213,0,0,1-1.913,1.21l-0.031.01h-0.032a2.172,2.172,0,0,1-1.934-1.12l-10-17.42-0.992-1.73,1.733-.99,11.1-6.34,1.732-.99,0.993,1.73,10,17.42A2.209,2.209,0,0,1,386.6,3603.78Zm-40.676,6.05a2.177,2.177,0,0,1-1.935,1.12h-0.032l-0.032-.01a2.215,2.215,0,0,1-1.917-1.22l-2.648-5.3-5.881.4-0.078.01H333.28a2.215,2.215,0,0,1-1.921-3.32l10-17.42,0.992-1.73,1.733,0.99,11.1,6.34,1.733,0.99-0.992,1.73Z" transform="translate(-323.625 -3526.38)"/>
  <path id="Shape_1081_copy_5" data-name="Shape 1081 copy 5" class="cls-2" d="M343.094,3585.08l11.1,6.34-10,17.42a0.176,0.176,0,0,1-.2.11,0.2,0.2,0,0,1-.194-0.12l-3.243-6.49-7.249.5H333.28a0.232,0.232,0,0,1-.184-0.11,0.211,0.211,0,0,1,0-.23l10-17.42m31.808,0,10,17.42a0.213,0.213,0,0,1,0,.23,0.229,0.229,0,0,1-.183.11h-0.022l-7.249-.5-3.242,6.49a0.2,0.2,0,0,1-.194.12,0.183,0.183,0,0,1-.2-0.11l-10-17.42,11.1-6.34" transform="translate(-323.625 -3526.38)"/>
  <path id="Shape_1081_copy" data-name="Shape 1081 copy" class="cls-1" d="M393.619,3559.69l-3.877,6.69a3.2,3.2,0,0,0-.385,2.16l1.347,7.6a5.626,5.626,0,0,1-3.636,6.28l-7.286,2.64a3.231,3.231,0,0,0-1.682,1.41l-3.877,6.7a5.631,5.631,0,0,1-4.894,2.83,5.539,5.539,0,0,1-1.987-.36l-7.279-2.63a3.194,3.194,0,0,0-2.2,0l-7.266,2.59a5.639,5.639,0,0,1-6.867-2.49l-3.877-6.69a3.231,3.231,0,0,0-1.682-1.41l-7.287-2.64a5.63,5.63,0,0,1-3.636-6.28l1.349-7.61a3.175,3.175,0,0,0-.359-2.11l-3.869-6.68a5.622,5.622,0,0,1,1.263-7.14l5.938-4.96a3.234,3.234,0,0,0,1.1-1.9l1.349-7.61a5.638,5.638,0,0,1,5.569-4.66h7.759a3.249,3.249,0,0,0,2.068-.75l5.939-4.97a5.668,5.668,0,0,1,7.272,0l5.938,4.97a3.227,3.227,0,0,0,2.065.74H378.4a5.639,5.639,0,0,1,5.571,4.67l1.348,7.6a3.236,3.236,0,0,0,1.1,1.9l5.939,4.96A5.62,5.62,0,0,1,393.619,3559.69Z" transform="translate(-323.625 -3526.38)"/>
  <path id="Shape_1081_copy_3" data-name="Shape 1081 copy 3" class="cls-2" d="M358.962,3590.38a5.6,5.6,0,0,1,1.936.34l7.287,2.64a3.217,3.217,0,0,0,3.923-1.41l3.878-6.69a5.62,5.62,0,0,1,2.96-2.48l7.289-2.65a3.189,3.189,0,0,0,2.067-3.56l-1.349-7.61a5.642,5.642,0,0,1,.676-3.8l3.877-6.69a3.187,3.187,0,0,0-.716-4.06l-5.939-4.97a5.619,5.619,0,0,1-1.938-3.33l-1.348-7.61a3.2,3.2,0,0,0-3.169-2.65h-7.763a5.67,5.67,0,0,1-3.629-1.32l-5.941-4.96a3.2,3.2,0,0,0-4.135,0l-5.938,4.96a5.734,5.734,0,0,1-3.634,1.33H339.6a3.2,3.2,0,0,0-3.168,2.65l-1.35,7.61a5.635,5.635,0,0,1-1.939,3.33l-5.937,4.97a3.185,3.185,0,0,0-.717,4.05l3.878,6.69a5.649,5.649,0,0,1,.638,3.75l-1.348,7.6a3.2,3.2,0,0,0,2.066,3.57l7.289,2.64a5.708,5.708,0,0,1,2.961,2.48l3.878,6.7a3.21,3.21,0,0,0,3.916,1.41l7.274-2.6A5.754,5.754,0,0,1,358.962,3590.38Zm10.361,1.19a1.12,1.12,0,0,1-.44-0.08l-7.3-2.65a7.785,7.785,0,0,0-2.617-.45,7.7,7.7,0,0,0-2.608.45l-7.265,2.59a1.119,1.119,0,0,1-.457.09h0a1.21,1.21,0,0,1-1.053-.61l-3.881-6.7a7.689,7.689,0,0,0-4-3.36l-7.293-2.64a1.215,1.215,0,0,1-.782-1.35l1.349-7.61a7.63,7.63,0,0,0-.863-5.06l-3.891-6.72a1.188,1.188,0,0,1,.271-1.52l5.937-4.97a7.647,7.647,0,0,0,2.622-4.51l1.351-7.62a1.213,1.213,0,0,1,1.2-1h7.761a7.732,7.732,0,0,0,4.92-1.79l5.935-4.97a1.242,1.242,0,0,1,1.571,0l5.94,4.97a7.669,7.669,0,0,0,4.912,1.78h7.76a1.216,1.216,0,0,1,1.2,1l1.349,7.61a7.632,7.632,0,0,0,2.622,4.52l5.938,4.97a1.2,1.2,0,0,1,.273,1.53l-3.879,6.7a7.584,7.584,0,0,0-.914,5.13l1.348,7.62a1.2,1.2,0,0,1-.781,1.34l-7.29,2.64a7.68,7.68,0,0,0-4.007,3.36l-3.878,6.7A1.2,1.2,0,0,1,369.323,3591.57ZM359,3533.04l5.449,4.55a9.712,9.712,0,0,0,6.193,2.24h7.108l1.237,6.98a9.637,9.637,0,0,0,3.3,5.69l5.434,4.54-3.547,6.13a9.581,9.581,0,0,0-1.152,6.48l1.233,6.96-6.676,2.42a9.7,9.7,0,0,0-5.05,4.23l-3.557,6.15-6.712-2.44a9.663,9.663,0,0,0-6.567-.01l-6.7,2.4-3.56-6.15a9.653,9.653,0,0,0-5.055-4.23l-6.673-2.42,1.233-6.95a9.633,9.633,0,0,0-1.085-6.39l-0.014-.03-0.014-.02-3.546-6.12,5.428-4.54a9.623,9.623,0,0,0,3.308-5.7l1.237-6.97h7.116a9.657,9.657,0,0,0,6.193-2.26l5.439-4.54" transform="translate(-323.625 -3526.38)"/>
  <path id="Shape_1081_copy_4" data-name="Shape 1081 copy 4" class="cls-3" d="M359,3533.04l5.449,4.55a9.712,9.712,0,0,0,6.193,2.24h7.108l1.237,6.98a9.637,9.637,0,0,0,3.3,5.69l5.434,4.54-3.547,6.13a9.581,9.581,0,0,0-1.152,6.48l1.233,6.96-6.676,2.42a9.7,9.7,0,0,0-5.05,4.23l-3.557,6.15-6.712-2.44a9.663,9.663,0,0,0-6.567-.01l-6.7,2.4-3.56-6.15a9.653,9.653,0,0,0-5.055-4.23l-6.673-2.42,1.233-6.95a9.633,9.633,0,0,0-1.085-6.39l-0.014-.03-0.014-.02-3.546-6.12,5.428-4.54a9.623,9.623,0,0,0,3.308-5.7l1.237-6.97h7.116a9.657,9.657,0,0,0,6.193-2.26l5.439-4.54" transform="translate(-323.625 -3526.38)"/>
  <path class="cls-1" d="M354.372,3570.26a1.5,1.5,0,0,1-1.461-1.82l0.932-4.39-3.327-3a1.508,1.508,0,0,1-.42-1.58,1.483,1.483,0,0,1,1.265-1.03l4.45-.47,1.817-4.1a1.5,1.5,0,0,1,1.365-.89h0a1.5,1.5,0,0,1,1.364.89l1.818,4.1,4.449,0.47a1.486,1.486,0,0,1,1.266,1.03,1.51,1.51,0,0,1-.421,1.58l-3.328,3,0.933,4.39a1.511,1.511,0,0,1-.583,1.53,1.479,1.479,0,0,1-1.626.08l-3.874-2.24-3.873,2.24A1.445,1.445,0,0,1,354.372,3570.26Zm0.488-1.4h0Zm-2.179-8.55,3.351,3.03-0.94,4.42,3.9-2.26,3.9,2.26-0.939-4.42,3.351-3.03-4.481-.47-1.832-4.13-1.83,4.13Z" transform="translate(-323.625 -3526.38)"/>
</svg>
