<svg id="_1_1" data-name="1_1" xmlns="http://www.w3.org/2000/svg" width="150.156" height="95.87" viewBox="0 0 150.156 95.87">
  <metadata><?xpacket begin="﻿" id="W5M0MpCehiHzreSzNTczkc9d"?>
<x:xmpmeta xmlns:x="adobe:ns:meta/" x:xmptk="Adobe XMP Core 5.6-c138 79.159824, 2016/09/14-01:09:01        ">
   <rdf:RDF xmlns:rdf="http://www.w3.org/1999/02/22-rdf-syntax-ns#">
      <rdf:Description rdf:about=""/>
   </rdf:RDF>
</x:xmpmeta>
                                                                                                    
                                                                                                    
                                                                                                    
                                                                                                    
                                                                                                    
                                                                                                    
                                                                                                    
                                                                                                    
                                                                                                    
                                                                                                    
                                                                                                    
                                                                                                    
                                                                                                    
                                                                                                    
                                                                                                    
                                                                                                    
                                                                                                    
                                                                                                    
                                                                                                    
                                                                                                    
                           
<?xpacket end="w"?></metadata>
<defs>
    <style>
      .cls-1 {
        fill: #2c7457;
      }

      .cls-1, .cls-2, .cls-3 {
        fill-rule: evenodd;
        opacity: 0.5;
      }

      .cls-2 {
        fill: #226d4f;
      }

      .cls-3 {
        fill: #16d488;
      }
    </style>
  </defs>
  <path id="Rectangle_131_copy_7" data-name="Rectangle 131 copy 7" class="cls-1" d="M299.656,3611.07L297,3608.41l-2.656,2.66-1.415-1.42,2.657-2.65-2.657-2.66,1.415-1.42,2.656,2.66,2.657-2.66,1.414,1.42-2.656,2.66,2.656,2.65Z" transform="translate(-287.844 -3515.19)"/>
  <path id="Rectangle_175_copy_7" data-name="Rectangle 175 copy 7" class="cls-2" d="M424,3607h-3v3a1,1,0,0,1-2,0v-3h-3a1,1,0,0,1,0-2h3v-3a1,1,0,0,1,2,0v3h3A1,1,0,0,1,424,3607Z" transform="translate(-287.844 -3515.19)"/>
  <path id="Rounded_Rectangle_10_copy_8" data-name="Rounded Rectangle 10 copy 8" class="cls-2" d="M317,3525h-7a1,1,0,0,1-1-1v-7a1,1,0,0,1,1-1h7a1,1,0,0,1,1,1v7A1,1,0,0,1,317,3525Zm-1-7h-5v5h5v-5Z" transform="translate(-287.844 -3515.19)"/>
  <path id="Shape_981_copy_7" data-name="Shape 981 copy 7" class="cls-3" d="M299.261,3564.55l-11.406.2,5.876-9.77Zm-7.9-1.82,4.47-.08-2.167-3.75Z" transform="translate(-287.844 -3515.19)"/>
  <path id="Ellipse_42_copy_11" data-name="Ellipse 42 copy 11" class="cls-3" d="M434,3568a4,4,0,1,1,4-4A4,4,0,0,1,434,3568Zm0-6a2,2,0,1,0,2,2A2,2,0,0,0,434,3562Z" transform="translate(-287.844 -3515.19)"/>
  <path id="Shape_981_copy_9" data-name="Shape 981 copy 9" class="cls-2" d="M413.851,3525.87l-11.069-2.76,8.207-7.92Zm-7.162-3.8,4.338,1.08-1.121-4.19Z" transform="translate(-287.844 -3515.19)"/>
</svg>
