<svg xmlns="http://www.w3.org/2000/svg" width="170" height="110" viewBox="0 0 170 110">
  <metadata><?xpacket begin="﻿" id="W5M0MpCehiHzreSzNTczkc9d"?>
<x:xmpmeta xmlns:x="adobe:ns:meta/" x:xmptk="Adobe XMP Core 5.6-c138 79.159824, 2016/09/14-01:09:01        ">
   <rdf:RDF xmlns:rdf="http://www.w3.org/1999/02/22-rdf-syntax-ns#">
      <rdf:Description rdf:about=""/>
   </rdf:RDF>
</x:xmpmeta>
                                                                                                    
                                                                                                    
                                                                                                    
                                                                                                    
                                                                                                    
                                                                                                    
                                                                                                    
                                                                                                    
                                                                                                    
                                                                                                    
                                                                                                    
                                                                                                    
                                                                                                    
                                                                                                    
                                                                                                    
                                                                                                    
                                                                                                    
                                                                                                    
                                                                                                    
                                                                                                    
                           
<?xpacket end="w"?></metadata>
<defs>
    <style>
      .cls-1 {
        fill: #f0f7f5;
        fill-rule: evenodd;
      }
    </style>
  </defs>
  <path id="_1_bg" data-name="1_bg" class="cls-1" d="M291,3613h62a5,5,0,0,0,0-10H294a5,5,0,0,1,0-10h12a5,5,0,0,0,0-10H286a5,5,0,0,1,0-10h81a5,5,0,0,0,0-10H283a5,5,0,0,1,0-10h58a5,5,0,0,0,0-10h-3a5,5,0,0,1,0-10h34a5,5,0,0,0,0-10H294a5,5,0,0,1,0-10H435a5,5,0,0,1,0,10H392a5,5,0,0,0,0,10h43a5,5,0,0,1,0,10H361a5,5,0,0,0,0,10h62a5,5,0,0,1,0,10H387a5,5,0,0,0,0,10h6a5,5,0,0,1,0,10H326a5,5,0,0,0,0,10H430a5,5,0,0,1,0,10H373a5,5,0,0,0,0,10h61a5,5,0,0,1,0,10H291A5,5,0,0,1,291,3613Zm122-40h30a5,5,0,0,1,0,10H413A5,5,0,0,1,413,3573Zm-118-40h23a5,5,0,0,1,0,10H295A5,5,0,0,1,295,3533Z" transform="translate(-278 -3513)"/>
</svg>
