<?xml version="1.0" encoding="utf-8"?>
<!-- Generator: Adobe Illustrator 21.1.0, SVG Export Plug-In . SVG Version: 6.00 Build 0)  -->
<svg version="1.1" id="_2" xmlns="http://www.w3.org/2000/svg" xmlns:xlink="http://www.w3.org/1999/xlink" x="0px" y="0px"
	 viewBox="0 0 108 71" style="enable-background:new 0 0 108 71;" xml:space="preserve">
<style type="text/css">
	.st0{fill:#226D4F;}
	.st1{fill:#16D488;}
	.st2{fill:#C1ECDB;}
</style>
<path class="st0" d="M46.6,62c-2.4,0-4.4-1.7-4.7-4.1C38.3,43.2,31.6,34.3,5.3,26.7c-1.4-0.4-2.2-1.7-2.1-3.1
	c0.1-1.4,1.1-2.5,2.5-2.6l0.1,0c1.2-0.1,2.9-0.2,4.6-0.2c4.3,0,8.5,0.4,12.8,1.2c3.1,0.5,6.2,1.5,9,3c2.8,1.4,5.8,2,8.9,1.9
	c6.4,0,13.3-2,15.4-4.5c2.5-2.9,9.2-4,14.2-4c1.6,0,3.2,0.1,4.9,0.3c0.1,0,0.2,0,0.2,0c0.6,0,1.1-0.3,1.4-0.9
	c0.3-0.5,0.2-1.2-0.2-1.6L66.2,4.8c-0.6-0.7-0.8-1.6-0.4-2.4C66.1,1.5,67,1,67.9,1c0.2,0,0.4,0,0.6,0.1c20.9,5.8,26,21.6,27.3,28.2
	c0.2,1-0.1,2.1-0.8,2.9c-0.7,0.8-1.7,1.3-2.7,1.3c-0.1,0-0.1,0-0.2,0c-0.5,0-1,0-1.5,0c-16.5,0-22.6,17.5-24.4,25
	c-0.5,2.1-2.4,3.6-4.6,3.6L46.6,62L46.6,62z M67.9,2c0.1,0,0.2,0,0.4,0.1c20.2,5.6,25.3,20.7,26.5,27.4c0.2,1.4-0.7,2.7-2,2.9
	c-0.2,0-0.3,0-0.5,0h-0.2c-0.5,0-1-0.1-1.5-0.1c-17.4,0-23.6,18.6-25.4,25.8c-0.4,1.7-1.9,2.8-3.6,2.8h-15c-1.9,0-3.4-1.4-3.7-3.2
	C39,42.2,31.5,33.2,5.5,25.8c-1-0.3-1.6-1.3-1.3-2.4C4.4,22.7,5,22.2,5.8,22c0,0,0.1,0,0.1,0c1.5-0.1,3-0.2,4.5-0.2
	c4.2,0,8.4,0.4,12.6,1.2c3,0.5,5.9,1.5,8.7,2.9c2.9,1.4,6.1,2.1,9.4,2c6.7,0,13.9-2.1,16.1-4.8c2-2.3,7.6-3.6,13.5-3.6
	c1.6,0,3.2,0.1,4.7,0.3c0.1,0,0.2,0,0.4,0c1.4,0,2.5-1.1,2.5-2.5c0-0.6-0.2-1.1-0.6-1.6L66.9,4.1c-0.5-0.5-0.4-1.3,0.1-1.8
	C67.3,2.1,67.6,2,67.9,2 M67.9,0c-1.3,0-2.5,0.8-3,2c-0.5,1.2-0.3,2.6,0.6,3.5l10.6,11.4c0.1,0.1,0.1,0.3,0,0.5
	c-0.1,0.2-0.3,0.3-0.5,0.3c0,0-0.1,0-0.1,0c-1.7-0.2-3.3-0.3-5-0.3c-5.5,0-12.3,1.1-15,4.3c-1.7,1.9-8.1,4.1-14.6,4.1
	c-2.9,0.1-5.8-0.5-8.4-1.7c-2.9-1.5-6-2.5-9.3-3.1c-4.3-0.8-8.6-1.2-12.9-1.2c-1.6,0-3.1,0.1-4.7,0.2l-0.1,0
	c-1.8,0.2-3.2,1.7-3.4,3.5c-0.2,1.9,1,3.6,2.8,4.1c25.8,7.4,32.4,16.1,35.9,30.5c0.5,2.8,2.9,4.8,5.7,4.8h15c2.6,0,5-1.8,5.6-4.4
	c1.8-7.3,7.7-24.3,23.4-24.3c0.5,0,0.9,0,1.4,0c0.1,0,0.2,0,0.3,0c1.4,0,2.6-0.6,3.5-1.6c0.9-1,1.2-2.4,1-3.7c-1.3-6.7-6.5-23-28-29
	C68.5,0,68.2,0,67.9,0L67.9,0L67.9,0z M46.6,62c-2.4,0-4.4-1.7-4.7-4.1C38.2,43.2,31.6,34.3,5.3,26.7c-1.4-0.4-2.2-1.7-2.1-3.1
	c0.1-1.4,1.1-2.5,2.5-2.6l0.1,0c1.2-0.1,2.9-0.2,4.6-0.2c4.3,0,8.5,0.4,12.8,1.2c3.1,0.5,6.2,1.5,9,3c2.8,1.4,5.8,2,8.9,1.9
	c6.4,0,13.3-2,15.4-4.5c2.5-2.9,9.2-4,14.2-4c1.6,0,3.2,0.1,4.9,0.3c0.1,0,0.2,0,0.2,0c0.6,0,1.1-0.3,1.4-0.9
	c0.3-0.5,0.2-1.2-0.2-1.6L66.2,4.8c-0.6-0.7-0.8-1.6-0.4-2.4C66.1,1.5,67,1,67.9,1c0.2,0,0.4,0,0.6,0.1c20.9,5.8,26,21.6,27.3,28.2
	c0.2,1-0.1,2.1-0.8,2.9c-0.7,0.8-1.7,1.3-2.7,1.3c-0.1,0-0.1,0-0.2,0c-0.5,0-1,0-1.5,0c-16.5,0-22.6,17.5-24.4,25
	c-0.5,2.1-2.4,3.6-4.6,3.6L46.6,62L46.6,62z"/>
<path id="Shape_1061_copy" class="st1" d="M67.9,2c0.1,0,0.2,0,0.4,0.1c20.2,5.6,25.3,20.7,26.5,27.4c0.2,1.4-0.7,2.7-2,2.9
	c-0.2,0-0.3,0-0.5,0h-0.2c-0.5,0-1-0.1-1.5-0.1c-17.4,0-23.6,18.6-25.4,25.8c-0.4,1.7-1.9,2.8-3.6,2.8h-15c-1.9,0-3.4-1.4-3.7-3.2
	C39,42.2,31.5,33.2,5.5,25.8c-1-0.3-1.6-1.3-1.3-2.4C4.4,22.7,5,22.2,5.8,22c0,0,0.1,0,0.1,0c1.5-0.1,3-0.2,4.5-0.2
	c4.2,0,8.4,0.4,12.6,1.2c3,0.5,5.9,1.5,8.7,2.9c2.9,1.4,6.1,2.1,9.4,2c6.7,0,13.9-2.1,16.1-4.8c2-2.3,7.6-3.6,13.5-3.6
	c1.6,0,3.2,0.1,4.7,0.3c0.1,0,0.2,0,0.4,0c1.4,0,2.5-1.1,2.5-2.5c0-0.6-0.2-1.1-0.6-1.6L66.9,4.1c-0.5-0.5-0.4-1.3,0.1-1.8
	C67.3,2.1,67.6,2,67.9,2"/>
<path class="st2" d="M79.2,11.7c5.5,4.1,9.5,10,11.1,16.7C70,28.5,62.9,50,61.1,57H46.4v0l0-0.2c-3.7-15-10.9-23.6-26.6-30.2
	c0.6,0.1,1.2,0.2,1.8,0.3c2.6,0.4,5.1,1.2,7.5,2.4c3.7,2.1,8.2,2.5,11.4,2.5c6.9,0,15.8-2.1,19.3-6.2c0.6-0.8,4.5-2.2,10.5-2.2
	c1.4,0,2.8,0.1,4.2,0.3c2.8,0.4,5.6-1.1,6.8-3.7c1.1-2.3,0.8-4.9-0.8-6.9L80.4,13l-0.1-0.1L79.2,11.7"/>
<path class="st0" d="M92,39c-8.8,0-16,7.2-16,16s7.2,16,16,16s16-7.2,16-16S100.8,39,92,39z M92,63c-4.4,0-8-3.6-8-8s3.6-8,8-8
	s8,3.6,8,8S96.4,63,92,63z"/>
<path class="st1" d="M92,41c-7.7,0-14,6.3-14,14s6.3,14,14,14s14-6.3,14-14S99.7,41,92,41z M92,65c-5.5,0-10-4.5-10-10s4.5-10,10-10
	s10,4.5,10,10S97.5,65,92,65z"/>
<path class="st0" d="M16,39C7.2,39,0,46.2,0,55s7.2,16,16,16s16-7.2,16-16S24.8,39,16,39z M16,63c-4.4,0-8-3.6-8-8s3.6-8,8-8
	s8,3.6,8,8S20.4,63,16,63z"/>
<path class="st1" d="M16,41C8.3,41,2,47.3,2,55s6.3,14,14,14s14-6.3,14-14S23.7,41,16,41z M16,65c-5.5,0-10-4.5-10-10s4.5-10,10-10
	s10,4.5,10,10S21.5,65,16,65z"/>
</svg>
