<svg id="_2_1" data-name="2_1" xmlns="http://www.w3.org/2000/svg" width="166.062" height="94" viewBox="0 0 166.062 94">
  <metadata><?xpacket begin="﻿" id="W5M0MpCehiHzreSzNTczkc9d"?>
<x:xmpmeta xmlns:x="adobe:ns:meta/" x:xmptk="Adobe XMP Core 5.6-c138 79.159824, 2016/09/14-01:09:01        ">
   <rdf:RDF xmlns:rdf="http://www.w3.org/1999/02/22-rdf-syntax-ns#">
      <rdf:Description rdf:about=""/>
   </rdf:RDF>
</x:xmpmeta>
                                                                                                    
                                                                                                    
                                                                                                    
                                                                                                    
                                                                                                    
                                                                                                    
                                                                                                    
                                                                                                    
                                                                                                    
                                                                                                    
                                                                                                    
                                                                                                    
                                                                                                    
                                                                                                    
                                                                                                    
                                                                                                    
                                                                                                    
                                                                                                    
                                                                                                    
                                                                                                    
                           
<?xpacket end="w"?></metadata>
<defs>
    <style>
      .cls-1 {
        fill: #2c7457;
      }

      .cls-1, .cls-2, .cls-3 {
        fill-rule: evenodd;
        opacity: 0.5;
      }

      .cls-2 {
        fill: #16d488;
      }

      .cls-3 {
        fill: #226d4f;
      }
    </style>
  </defs>
  <path id="Rectangle_131_copy_12" data-name="Rectangle 131 copy 12" class="cls-1" d="M855.656,3532.07L853,3529.41l-2.657,2.66-1.414-1.42,2.657-2.65-2.657-2.66,1.414-1.42,2.657,2.66,2.657-2.66,1.414,1.42-2.656,2.66,2.656,2.65Z" transform="translate(-717.938 -3522)"/>
  <path id="Rectangle_175_copy_12" data-name="Rectangle 175 copy 12" class="cls-2" d="M883,3568h-3v3a1,1,0,0,1-2,0v-3h-3a1,1,0,0,1-1-1.01,0.993,0.993,0,0,1,1-.99h3v-3a1,1,0,0,1,2,0v3h3a0.993,0.993,0,0,1,1,.99A1,1,0,0,1,883,3568Z" transform="translate(-717.938 -3522)"/>
  <path id="Rectangle_175_copy_14" data-name="Rectangle 175 copy 14" class="cls-2" d="M758,3528h-3v3a1,1,0,0,1-2,0v-3h-3a1,1,0,0,1,0-2h3v-3a1,1,0,0,1,2,0v3h3A1,1,0,0,1,758,3528Z" transform="translate(-717.938 -3522)"/>
  <path id="Rounded_Rectangle_10_copy_11" data-name="Rounded Rectangle 10 copy 11" class="cls-2" d="M739,3616h-7a1,1,0,0,1-1-1v-7a0.994,0.994,0,0,1,1-1h7a1,1,0,0,1,1,1v7A1,1,0,0,1,739,3616Zm-1-7h-5v5h5v-5Z" transform="translate(-717.938 -3522)"/>
  <path id="Ellipse_42_copy_13" data-name="Ellipse 42 copy 13" class="cls-3" d="M866,3616a4,4,0,1,1,4-4A4,4,0,0,1,866,3616Zm0-6a2,2,0,1,0,2,2A2,2,0,0,0,866,3610Z" transform="translate(-717.938 -3522)"/>
  <path id="Rectangle_131_copy_13" data-name="Rectangle 131 copy 13" class="cls-1" d="M724.656,3555.07L722,3552.41l-2.657,2.66-1.414-1.42,2.656-2.65-2.656-2.66,1.414-1.41,2.657,2.65,2.656-2.65,1.415,1.41-2.657,2.66,2.657,2.65Z" transform="translate(-717.938 -3522)"/>
</svg>
