<svg xmlns="http://www.w3.org/2000/svg" width="170" height="110" viewBox="0 0 170 110">
  <metadata><?xpacket begin="﻿" id="W5M0MpCehiHzreSzNTczkc9d"?>
<x:xmpmeta xmlns:x="adobe:ns:meta/" x:xmptk="Adobe XMP Core 5.6-c138 79.159824, 2016/09/14-01:09:01        ">
   <rdf:RDF xmlns:rdf="http://www.w3.org/1999/02/22-rdf-syntax-ns#">
      <rdf:Description rdf:about=""/>
   </rdf:RDF>
</x:xmpmeta>
                                                                                                    
                                                                                                    
                                                                                                    
                                                                                                    
                                                                                                    
                                                                                                    
                                                                                                    
                                                                                                    
                                                                                                    
                                                                                                    
                                                                                                    
                                                                                                    
                                                                                                    
                                                                                                    
                                                                                                    
                                                                                                    
                                                                                                    
                                                                                                    
                                                                                                    
                                                                                                    
                           
<?xpacket end="w"?></metadata>
<defs>
    <style>
      .cls-1 {
        fill: #f0f7f5;
        fill-rule: evenodd;
      }
    </style>
  </defs>
  <path id="_2_bg" data-name="2_bg" class="cls-1" d="M869,3523H829a5,5,0,0,0,0,10h49a5,5,0,0,1,0,10H786a5,5,0,0,0,0,10h83a5,5,0,0,1,0,10H832a5,5,0,0,0,0,10h47a5,5,0,0,1,0,10H836a5,5,0,0,0,0,10h28a5,5,0,0,1,0,10H820a5,5,0,0,0,0,10h29a5,5,0,0,1,0,10H734a5,5,0,0,1,0-10h66a5,5,0,0,0,0-10H724a5,5,0,0,1,0-10h27a5,5,0,0,0,0-10H720a5,5,0,0,1,0-10h92a5,5,0,0,0,0-10H759a5,5,0,0,1,0-10h7a5,5,0,0,0,0-10H719a5,5,0,0,1,0-10h88a5,5,0,0,0,0-10H729a5,5,0,0,1,0-10H869A5,5,0,0,1,869,3523Zm-140,30h10a5,5,0,0,1,5,5h0a5,5,0,0,1-5,5H729a5,5,0,0,1-5-5h0A5,5,0,0,1,729,3553Zm42,30h45a5,5,0,0,1,0,10H771A5,5,0,0,1,771,3583Z" transform="translate(-714 -3513)"/>
</svg>
