<svg id="_3" data-name="3" xmlns="http://www.w3.org/2000/svg" width="81" height="75" viewBox="0 0 81 75">
  <metadata><?xpacket begin="﻿" id="W5M0MpCehiHzreSzNTczkc9d"?>
<x:xmpmeta xmlns:x="adobe:ns:meta/" x:xmptk="Adobe XMP Core 5.6-c138 79.159824, 2016/09/14-01:09:01        ">
   <rdf:RDF xmlns:rdf="http://www.w3.org/1999/02/22-rdf-syntax-ns#">
      <rdf:Description rdf:about=""/>
   </rdf:RDF>
</x:xmpmeta>
                                                                                                    
                                                                                                    
                                                                                                    
                                                                                                    
                                                                                                    
                                                                                                    
                                                                                                    
                                                                                                    
                                                                                                    
                                                                                                    
                                                                                                    
                                                                                                    
                                                                                                    
                                                                                                    
                                                                                                    
                                                                                                    
                                                                                                    
                                                                                                    
                                                                                                    
                                                                                                    
                           
<?xpacket end="w"?></metadata>
<defs>
    <style>
      .cls-1 {
        fill: #226d4f;
      }

      .cls-1, .cls-2, .cls-3 {
        fill-rule: evenodd;
      }

      .cls-2 {
        fill: #16d488;
      }

      .cls-3 {
        fill: #c1ecdb;
      }
    </style>
  </defs>
  <path class="cls-1" d="M1275.65,3559.7l-35.16,45.35a5.016,5.016,0,0,1-7.94,0l-35.14-45.32a7.255,7.255,0,0,1-1.19-2.7H1196v-2.04h0.08a7.073,7.073,0,0,1,.8-2.82l7.53-14.25a11.069,11.069,0,0,1,9.81-5.93h44.59a11.1,11.1,0,0,1,9.82,5.93l7.52,14.25A7.139,7.139,0,0,1,1275.65,3559.7Z" transform="translate(-1196 -3532)"/>
  <path id="Shape_1072_copy" data-name="Shape 1072 copy" class="cls-2" d="M1238.89,3603.8l35.14-45.32a5.392,5.392,0,0,0,.7-1.45h-20.02l-16.59,47.47A3.2,3.2,0,0,0,1238.89,3603.8Zm-2.37-68.57-15.16,19.76h30.32Zm16.04,21.8h-32.09l16.05,45.91Zm-53.53,1.48,35.11,45.29a3.212,3.212,0,0,0,.76.67l-16.58-47.44h-20A5.045,5.045,0,0,0,1199.03,3558.51Zm7.17-19.63-7.53,14.25a4.932,4.932,0,0,0-.55,1.86h19.49l-7.06-20.18A9.034,9.034,0,0,0,1206.2,3538.88Zm8.02-4.85a9.067,9.067,0,0,0-1.73.18l6.97,19.92,15.42-20.1h-20.66Zm44.59,0h-20.66l15.43,20.1,6.96-19.92A8.983,8.983,0,0,0,1258.81,3534.03Zm15.55,19.1-7.52-14.25a9.1,9.1,0,0,0-4.36-4.07l-7.05,20.18h19.5A5.02,5.02,0,0,0,1274.36,3553.13Z" transform="translate(-1196 -3532)"/>
  <path class="cls-3" d="M1255.14,3538.01l-2.76,7.82-6.04-7.82h8.8m-28.48,0-6.04,7.82-2.75-7.82h8.79m9.84,3.79,7.12,9.22h-14.23l7.11-9.22m27.86,0.47,4.65,8.75h-7.72l3.07-8.75m-55.71,0,3.07,8.75H1204l4.65-8.75m58.62,18.82-17.35,22.24,7.82-22.24h9.53m-20.25,0-10.52,29.89-10.51-29.89h21.03m-31.75,0,7.82,22.24-17.35-22.24h9.53" transform="translate(-1196 -3532)"/>
</svg>
