<svg id="_3_1" data-name="3_1" xmlns="http://www.w3.org/2000/svg" width="146" height="89.91" viewBox="0 0 146 89.91">
  <metadata><?xpacket begin="﻿" id="W5M0MpCehiHzreSzNTczkc9d"?>
<x:xmpmeta xmlns:x="adobe:ns:meta/" x:xmptk="Adobe XMP Core 5.6-c138 79.159824, 2016/09/14-01:09:01        ">
   <rdf:RDF xmlns:rdf="http://www.w3.org/1999/02/22-rdf-syntax-ns#">
      <rdf:Description rdf:about=""/>
   </rdf:RDF>
</x:xmpmeta>
                                                                                                    
                                                                                                    
                                                                                                    
                                                                                                    
                                                                                                    
                                                                                                    
                                                                                                    
                                                                                                    
                                                                                                    
                                                                                                    
                                                                                                    
                                                                                                    
                                                                                                    
                                                                                                    
                                                                                                    
                                                                                                    
                                                                                                    
                                                                                                    
                                                                                                    
                                                                                                    
                           
<?xpacket end="w"?></metadata>
<defs>
    <style>
      .cls-1 {
        fill: #226d4f;
      }

      .cls-1, .cls-2, .cls-3 {
        fill-rule: evenodd;
        opacity: 0.5;
      }

      .cls-2 {
        fill: #2c7457;
      }

      .cls-3 {
        fill: #16d488;
      }
    </style>
  </defs>
  <path id="Shape_981_copy_8" data-name="Shape 981 copy 8" class="cls-1" d="M1286.85,3612.87l-11.07-2.76,8.21-7.92Zm-7.16-3.8,4.34,1.08-1.12-4.19Z" transform="translate(-1162 -3523.09)"/>
  <path id="Rectangle_175_copy_11" data-name="Rectangle 175 copy 11" class="cls-1" d="M1307,3540h-3v3a1,1,0,0,1-2,0v-3h-3a1,1,0,0,1,0-2h3v-3a1,1,0,0,1,2,0v3h3A1,1,0,0,1,1307,3540Z" transform="translate(-1162 -3523.09)"/>
  <path id="Shape_981_copy_11" data-name="Shape 981 copy 11" class="cls-2" d="M1182.28,3530.91l-10.96,3.15,3.14-10.97Zm-8.1.29,4.29-1.23-3.06-3.07Z" transform="translate(-1162 -3523.09)"/>
  <path id="Rounded_Rectangle_10_copy_12" data-name="Rounded Rectangle 10 copy 12" class="cls-3" d="M1170,3573h-7a1,1,0,0,1-1-1v-7a1,1,0,0,1,1-1h7a1,1,0,0,1,1,1v7A1,1,0,0,1,1170,3573Zm-1-7h-5v5h5v-5Z" transform="translate(-1162 -3523.09)"/>
  <path id="Ellipse_42_copy_14" data-name="Ellipse 42 copy 14" class="cls-3" d="M1304,3580a4,4,0,1,1,4-4A4,4,0,0,1,1304,3580Zm0-6a2,2,0,1,0,2,2A1.993,1.993,0,0,0,1304,3574Z" transform="translate(-1162 -3523.09)"/>
  <path id="Rounded_Rectangle_10_copy_9" data-name="Rounded Rectangle 10 copy 9" class="cls-1" d="M1192,3613h-7a1,1,0,0,1-1-1v-7a1,1,0,0,1,1-1h7a1,1,0,0,1,1,1v7A1,1,0,0,1,1192,3613Zm-1-7h-5v5h5v-5Z" transform="translate(-1162 -3523.09)"/>
</svg>
