<svg xmlns="http://www.w3.org/2000/svg" width="170" height="110" viewBox="0 0 170 110">
  <metadata><?xpacket begin="﻿" id="W5M0MpCehiHzreSzNTczkc9d"?>
<x:xmpmeta xmlns:x="adobe:ns:meta/" x:xmptk="Adobe XMP Core 5.6-c138 79.159824, 2016/09/14-01:09:01        ">
   <rdf:RDF xmlns:rdf="http://www.w3.org/1999/02/22-rdf-syntax-ns#">
      <rdf:Description rdf:about=""/>
   </rdf:RDF>
</x:xmpmeta>
                                                                                                    
                                                                                                    
                                                                                                    
                                                                                                    
                                                                                                    
                                                                                                    
                                                                                                    
                                                                                                    
                                                                                                    
                                                                                                    
                                                                                                    
                                                                                                    
                                                                                                    
                                                                                                    
                                                                                                    
                                                                                                    
                                                                                                    
                                                                                                    
                                                                                                    
                                                                                                    
                           
<?xpacket end="w"?></metadata>
<defs>
    <style>
      .cls-1 {
        fill: #f0f7f5;
        fill-rule: evenodd;
      }
    </style>
  </defs>
  <path id="_3_bg" data-name="3_bg" class="cls-1" d="M1201,3613h32a5,5,0,0,0,0-10h-77a5,5,0,0,1,0-10h48a5,5,0,0,0,0-10h-28a5,5,0,0,1,0-10h99a5,5,0,0,0,0-10H1171a5,5,0,0,1,0-10h102a5,5,0,0,0,0-10h-92a5,5,0,0,1,0-10h19a5,5,0,0,0,0-10h-42a5,5,0,0,1,0-10h158a5,5,0,0,1,0,10h-96a5,5,0,0,0,0,10h95a5,5,0,0,1,0,10h-22a5,5,0,0,0,0,10h21a5,5,0,0,1,0,10h-19a5,5,0,0,0,0,10h6a5,5,0,0,1,0,10h-77a5,5,0,0,0,0,10h37a5,5,0,0,1,0,10h-8a5,5,0,0,0,0,10h62a5,5,0,0,1,0,10H1201A5,5,0,0,1,1201,3613Zm80-20h30a5,5,0,0,1,5,5h0a5,5,0,0,1-5,5h-30a5,5,0,0,1-5-5h0A5,5,0,0,1,1281,3593Zm-120,20h20a5,5,0,0,1,0,10h-20A5,5,0,0,1,1161,3613Z" transform="translate(-1151 -3513)"/>
</svg>
